<?xml version="1.0" encoding="UTF-8" standalone="no"?><!DOCTYPE svg PUBLIC "-//W3C//DTD SVG 1.1//EN" "http://www.w3.org/Graphics/SVG/1.1/DTD/svg11.dtd"><svg width="100%" height="100%" viewBox="0 0 756 180" version="1.1" xmlns="http://www.w3.org/2000/svg" xmlns:xlink="http://www.w3.org/1999/xlink" xml:space="preserve" xmlns:serif="http://www.serif.com/" style="fill-rule:evenodd;clip-rule:evenodd;stroke-linejoin:round;stroke-miterlimit:2;"><rect id="Artboard1" x="0" y="0" width="755.509" height="179.599" style="fill:none;"/><clipPath id="_clip1"><rect x="0" y="0" width="755.509" height="179.599"/></clipPath><g clip-path="url(#_clip1)"><rect x="-8.604" y="-1.458" width="785.94" height="158.493" style="fill:#ed2d24;"/><path d="M389.268,23.567c0.869,-0 1.548,0.773 2.191,1.264l0.51,0.462c0.304,0.307 0.694,0.637 0.979,0.925l0.573,0.534c0.066,0.055 0.112,0.099 0.173,0.156l1.286,1.394c-4.849,6.59 -8.667,-4.735 -5.712,-4.735m18.783,-10.184c0.098,0.142 0.068,0.536 0.068,0.748c-0,1.082 -0.585,2.818 -0.981,3.764c-0.243,0.583 -0.396,0.861 -0.661,1.398l-0.214,0.39c-0.193,0.346 -0.581,0.957 -0.818,1.28l-0.647,0.829l-1.038,1.041c-0.037,0.035 -0.034,0.03 -0.074,0.061l-0.416,0.323c-0.863,0.611 -1.681,0.919 -2.762,1.1c-0.33,0.056 -0.73,0.106 -1.097,0.106c1.006,-1.537 7.159,-14.041 8.64,-11.04m-24.131,4.79c0.135,0.644 0.306,1.296 0.486,1.924c0.241,0.836 0.501,1.611 0.797,2.392c0.289,0.761 0.614,1.509 0.975,2.232c0.217,0.437 0.441,0.875 0.684,1.298c1.013,1.763 3.364,5.291 5.528,5.291c0.481,-0 0.816,-0.109 1.222,-0.312c0.087,-0.043 0.135,-0.079 0.219,-0.13c0.075,-0.044 0.144,-0.09 0.211,-0.139c0.139,-0.103 0.274,-0.199 0.408,-0.309c0.43,-0.356 0.972,-0.848 1.34,-1.283c0.038,-0.046 0.059,-0.055 0.091,-0.104c0.08,0.054 0.16,0.124 0.239,0.189c0.783,0.64 1.706,1.244 2.632,1.66c0.605,0.27 1.138,0.428 1.656,0.447l0.216,-0c0.574,-0.021 1.138,-0.22 1.77,-0.626c0.362,-0.232 0.673,-0.494 0.999,-0.769c0.046,-0.039 0.061,-0.043 0.106,-0.088c0.232,-0.23 0.596,-0.532 0.779,-0.774c0.063,-0.081 0.135,-0.132 0.198,-0.211l0.273,-0.309c0.036,-0.041 0.049,-0.064 0.088,-0.107l0.176,-0.212c0.52,-0.659 1.028,-1.33 1.474,-2.044c0.356,-0.571 0.684,-1.149 0.985,-1.753c0.827,-1.656 1.576,-4.521 1.899,-6.324c0.083,-0.461 0.144,-0.886 0.209,-1.367c0.049,-0.373 0.091,-0.79 0.11,-1.222l0,-0.861c-0.032,-0.671 -0.147,-1.326 -0.408,-1.853c-2.125,-4.305 -9.708,9.084 -10.843,10.619c-0.053,0.071 -0.089,0.131 -0.145,0.206c-0.555,0.739 -1.047,0.052 -1.548,-0.39c-0.293,-0.226 -0.951,-0.962 -1.238,-1.287l-0.267,-0.316c-0.28,-0.362 -0.591,-0.708 -0.872,-1.07l-1.02,-1.312c-0.662,-0.888 -1.484,-1.965 -2.206,-2.826l-0.27,-0.312c-0.396,-0.446 -0.789,-0.892 -1.213,-1.313c-0.161,-0.16 -0.309,-0.341 -0.483,-0.487c-0.038,-0.033 -0.064,-0.062 -0.099,-0.097l-1.018,-0.925c-0.346,-0.302 -0.719,-0.588 -1.111,-0.829c-0.472,-0.289 -1.092,-0.654 -1.677,-0.654l-0.017,-0c-0.37,0.002 -0.659,0.042 -0.957,0.23c-0.625,0.395 -0.888,1.26 -0.888,2.066c0,1.189 0.061,1.566 0.252,2.723l0.258,1.338Z" style="fill:#191a18;fill-rule:nonzero;"/><path d="M306.269,35.232c0.098,-1.416 0.233,-2.671 0.418,-3.763c0.087,-0.463 0.17,-0.911 0.27,-1.346c0.099,-0.433 0.221,-0.825 0.358,-1.169c0.133,-0.347 0.292,-0.603 0.466,-0.799c0.171,-0.197 0.371,-0.277 0.578,-0.236c0.258,0.041 0.444,0.171 0.552,0.392c0.111,0.222 0.148,0.503 0.124,0.832c-0.024,0.33 -0.086,0.688 -0.197,1.063c-0.112,0.375 -0.233,0.734 -0.381,1.08c-0.208,0.48 -0.443,0.961 -0.687,1.43c-0.247,0.465 -0.48,0.903 -0.714,1.279c-0.257,0.438 -0.529,0.861 -0.787,1.237m23.257,-2.535c-0.021,-0.03 -0.045,-0.057 -0.068,-0.084c-0.006,-0.007 -0.015,-0.016 -0.015,-0.016l-0.001,-0c-0.112,-0.126 -0.246,-0.231 -0.41,-0.3c-0.196,-0.068 -0.391,-0.012 -0.604,0.189c-0.214,0.199 -0.427,0.47 -0.642,0.83c-0.212,0.36 -0.425,0.775 -0.638,1.26c-0.214,0.485 -0.41,0.97 -0.57,1.473c-0.426,1.273 -0.755,2.997 -1.04,4.626c-0.285,1.629 -0.533,3.203 -0.747,4.758c-0.068,0.496 -0.132,0.972 -0.196,1.437c-0.053,0.393 -0.105,0.775 -0.155,1.147c-0.031,0.197 -0.061,0.378 -0.093,0.548c-0.105,0.566 -0.274,1.336 -0.482,1.794c-0.007,0.015 -0.015,0.033 -0.023,0.047c-0.021,0.047 -0.045,0.091 -0.067,0.129c-0.242,0.413 -0.416,0.251 -0.416,0.251c-0.382,-0.156 -0.695,-1.171 -0.931,-2.316c-0.015,-0.075 -0.031,-0.149 -0.045,-0.223c-0.143,-0.734 -0.255,-1.497 -0.334,-2.109l0.01,0.016c-0.539,-6.09 -2.006,-8.592 -3.131,-9.623c-0.109,-0.099 -0.192,-0.167 -0.275,-0.227l0.013,-0.001c-0.018,-0.01 -0.032,-0.016 -0.049,-0.025c-0.1,-0.069 -0.208,-0.124 -0.35,-0.183c-0.264,-0.127 -0.516,-0.218 -0.755,-0.276c-0.004,-0.003 -0.016,-0.009 -0.016,-0.009l0.002,0.005c-0.764,-0.183 -1.404,-0.058 -1.909,0.191c-0.152,0.063 -0.297,0.136 -0.427,0.229c-0.197,0.138 -0.378,0.309 -0.551,0.505c-0.291,0.309 -0.439,0.57 -0.439,0.57l-0.002,0.019c-0.202,0.314 -0.392,0.667 -0.574,1.055c-0.444,0.954 -0.853,2.048 -1.19,3.284c-0.308,1.128 -0.616,2.236 -0.924,3.32c-0,-0 -0.12,0.453 -0.288,1.097c-0.131,0.451 -0.265,0.984 -0.373,1.439c-0.164,0.636 -0.328,1.284 -0.457,1.805c-0.593,1.599 -1.371,0.509 -1.613,-0.198c-0.104,-0.3 -0.336,-1.386 -0.336,-1.386c-0.215,-1.232 -0.413,-2.446 -0.579,-3.644c-0.164,-1.197 -0.331,-1.927 -0.479,-3.16c-0.069,-0.569 -0.142,-1.265 -0.213,-1.985c0.013,-0.074 0.026,-0.152 0.042,-0.225c0.776,-0.562 1.506,-1.281 2.189,-2.169c0.571,-0.749 1.126,-1.688 1.649,-2.846c0.524,-1.162 0.905,-2.526 1.111,-4.112c0.142,-1.19 0.094,-2.134 -0.159,-2.817c-0.254,-0.684 -0.57,-1.176 -0.952,-1.495c-0.445,-0.388 -0.983,-0.601 -1.617,-0.662c-0.969,0.018 -1.807,0.239 -2.523,0.648c-0.713,0.406 -1.301,0.967 -1.791,1.662c-0.492,0.699 -0.873,1.494 -1.174,2.41c-0.302,0.916 -0.367,0.755 -0.739,3.033c-0.372,2.277 -0.323,5.612 -0.323,5.612c-0.034,0.039 -0.299,0.197 -0.334,0.233c-0.142,0.123 -0.334,0.246 -0.572,0.388c-0.239,0.142 -0.554,0.267 -0.984,0.396c-0.379,0.125 -0.664,0.286 -0.854,0.496c-0.191,0.209 -0.287,0.416 -0.305,0.624c-0.013,0.206 0.081,0.393 0.257,0.58c0.171,0.185 0.458,0.284 0.839,0.295c0.43,0.043 0.747,0.056 0.968,0.034c0.222,-0.02 0.38,-0.042 0.492,-0.06c0.124,-0.019 0.483,-0.204 0.531,-0.257c0.155,1.234 0.25,2.253 0.391,3.59c0.079,0.549 0.165,1.117 0.254,1.707c0.184,1.197 0.431,2.356 0.709,3.498c0.283,1.14 0.614,2.211 0.994,3.206c0.38,0.995 0.811,1.812 1.306,2.465c0.494,0.656 1.04,1.074 1.635,1.296c0.594,0.224 1.273,0.121 2.016,-0.302c0.579,-0.35 1.039,-0.859 1.404,-1.529c0.363,-0.669 0.659,-1.408 0.894,-2.2c0.23,-0.792 0.413,-1.583 0.561,-2.391c0.073,-0.396 0.141,-0.764 0.208,-1.113c0.156,-0.79 0.297,-1.477 0.436,-2.093c0.018,-0.103 0.043,-0.23 0.071,-0.367c0.144,-0.569 0.3,-1.169 0.472,-1.84c0.034,-0.127 0.071,-0.257 0.105,-0.384c0.061,-0.218 0.124,-0.44 0.189,-0.67c0.195,-0.699 0.408,-1.399 0.622,-2.116c0.213,-0.716 0.409,-1.345 0.604,-1.901c0.195,-0.556 0.356,-0.987 0.499,-1.311c0.142,-0.323 0.319,-0.112 0.372,-0.042c0.408,0.796 0.605,2.04 0.764,3.198c0.161,1.157 0.32,2.368 0.446,3.667c0.124,1.302 0.302,2.603 0.498,3.92c0.122,0.82 0.28,1.662 0.492,2.459c0.203,0.636 0.7,1.943 1.598,2.927c0.041,0.04 0.076,0.082 0.121,0.123c0.405,0.388 0.724,0.67 1.296,0.972c0.472,0.231 1.87,0.805 3.304,0.131l-0.003,0.004c0.012,-0.005 0.021,-0.012 0.031,-0.018c0.22,-0.105 0.439,-0.248 0.656,-0.417c0.31,-0.281 1.346,-1.343 2.102,-3.541c0.005,-0.012 0.009,-0.025 0.013,-0.039c0.049,-0.145 0.097,-0.292 0.144,-0.446c0.04,-0.137 0.077,-0.274 0.114,-0.411c0.013,-0.048 0.027,-0.092 0.039,-0.142c0.016,-0.061 0.032,-0.11 0.047,-0.163c0.621,-2.449 0.761,-4.974 0.79,-5.852c0.183,-1.981 0.272,-3.783 0.324,-5.734c0.041,-1.608 0.504,-4.533 0.473,-5.124c-0.006,-0.499 -0.232,-0.875 -0.36,-1.044" style="fill:#191a18;fill-rule:nonzero;"/><path d="M416.142,45.167c-0.547,2.794 -2.962,7.668 -6.388,8.814c-0.883,0.286 -1.494,0.258 -1.827,-0.089c-0.336,-0.346 -0.475,-0.889 -0.456,-1.603c0.02,-0.717 0.201,-1.566 0.506,-2.519c0.306,-0.954 0.673,-1.896 1.096,-2.812c0.423,-0.917 0.844,-1.757 1.267,-2.517c0.422,-0.761 0.806,-1.273 1.029,-1.616c0.218,-0.332 0.84,-1.07 1.156,-1.478c0.31,-0.397 0.67,-0.723 1.024,-1.056c0.696,-0.586 1.73,-1.059 2.45,0.425c0.023,0.063 0.051,0.12 0.073,0.187c0.187,0.556 0.284,1.191 0.299,1.92c0.016,0.728 -0.067,1.508 -0.229,2.344m1.26,-7.785c-0.682,-0.03 -2.158,0.002 -3.093,0.302c-0.761,0.245 -1.254,0.407 -2.134,1.019c-0.648,0.451 -1.158,0.905 -1.548,1.395c-0.893,1.076 -1.739,2.287 -2.537,3.642c-0.8,1.358 -1.431,2.726 -1.888,4.09c-0.454,1.364 -0.684,2.686 -0.662,3.935c0.021,1.25 0.392,2.333 1.143,3.234c0.382,0.493 0.908,0.834 1.576,1.024c0.67,0.191 1.388,0.232 2.152,0.14c8.398,-1.022 13.14,-18.517 6.991,-18.781" style="fill:#191a18;fill-rule:nonzero;"/><path d="M348.799,52.763c-0.137,-0.067 -0.29,-0.029 -0.444,0.108c-0.154,0.141 -0.342,0.298 -0.564,0.474c-0.221,0.173 -0.495,0.333 -0.818,0.457c-0.325,0.125 -0.751,0.149 -1.247,0.072c-0.358,-0.064 -0.7,-0.264 -1.025,-0.619c-0.324,-0.353 -0.596,-0.812 -0.818,-1.391c-0.223,-0.578 -0.411,-1.26 -0.529,-2.03c-0.12,-0.769 -0.172,-1.624 -0.12,-2.566c0.05,-0.91 -0.034,-1.56 -0.222,-1.933c-0.188,-0.373 -0.444,-0.593 -0.768,-0.655c-0.325,-0.064 -0.649,-0.043 -1.008,0.05c-0.359,0.091 -0.647,0.164 -0.905,0.185c-0.256,0.02 -0.426,0.196 -0.529,0.523c-0.101,0.327 -0.169,0.706 -0.204,1.134c-0.034,0.428 -0.034,0.874 -0.017,1.319c0.017,0.446 0.034,0.788 0.034,1.044c-0,0.257 -0.103,0.619 -0.307,1.084c-0.205,0.467 -0.462,0.935 -0.786,1.383c-0.324,0.451 -0.683,0.851 -1.074,1.2c-0.393,0.35 -0.786,0.526 -1.144,0.533c-0.291,0.004 -0.547,-0.301 -0.735,-0.896c-0.188,-0.597 -0.291,-1.314 -0.306,-2.154c-0.017,-0.84 0.068,-1.715 0.255,-2.625c0.187,-0.911 0.495,-1.703 0.956,-2.379c0.29,-0.417 0.666,-0.749 1.092,-1.012c0.428,-0.263 0.854,-0.494 1.264,-0.705c0.409,-0.213 0.768,-0.425 1.093,-0.619c0.323,-0.192 0.511,-0.453 0.58,-0.744c0.051,-0.19 -0.103,-0.324 -0.428,-0.421c-0.325,-0.1 -0.767,-0.125 -1.297,-0.1c-0.528,0.027 -1.143,0.138 -1.808,0.32c-0.666,0.182 -1.349,0.468 -2.015,0.856c-0.665,0.386 -1.298,0.876 -1.895,1.485c-0.597,0.609 -1.077,1.337 -1.435,2.183c-0.545,1.31 -0.801,2.548 -0.768,3.73c0.035,1.181 0.258,2.205 0.683,3.087c0.427,0.886 0.991,1.579 1.691,2.099c0.7,0.519 1.45,0.747 2.253,0.718c0.802,-0.065 1.468,-0.247 2.015,-0.564c0.545,-0.318 0.989,-0.668 1.331,-1.033c0.409,-0.418 0.734,-0.903 0.955,-1.453c0.325,0.73 0.735,1.358 1.265,1.898c0.46,0.455 1.039,0.838 1.756,1.171c0.718,0.331 1.589,0.402 2.613,0.197c0.683,-0.097 1.28,-0.33 1.775,-0.679c0.495,-0.352 0.888,-0.718 1.178,-1.098c0.29,-0.381 0.461,-0.728 0.545,-1.053c0.086,-0.329 0.036,-0.516 -0.118,-0.581" style="fill:#191a18;fill-rule:nonzero;"/><path d="M370.103,44.231c-0.324,0.467 -0.649,0.8 -0.973,1.026c-0.324,0.228 -0.614,0.37 -0.87,0.443c-0.292,0.089 -0.599,0.129 -0.888,0.083c0.069,-0.686 0.238,-1.34 0.512,-1.962c0.274,-0.621 0.581,-1.158 0.94,-1.608c0.357,-0.452 0.716,-0.782 1.091,-1.011c0.376,-0.229 0.682,-0.267 0.94,-0.135c0.256,0.116 0.341,0.457 0.273,1.024c-0.068,0.565 -0.41,1.292 -1.025,2.14m-16.593,-7.305c0.12,-0.533 0.239,-1.048 0.375,-1.548c0.138,-0.499 0.307,-0.947 0.496,-1.344c0.188,-0.397 0.409,-0.692 0.649,-0.917c0.238,-0.227 0.512,-0.317 0.801,-0.27c0.359,0.045 0.616,0.196 0.768,0.449c0.155,0.255 0.206,0.58 0.172,0.957c-0.034,0.378 -0.12,0.79 -0.274,1.221c-0.153,0.43 -0.323,0.845 -0.529,1.242c-0.289,0.552 -0.613,1.106 -0.955,1.642c-0.341,0.537 -0.666,1.038 -0.99,1.472c-0.359,0.502 -0.735,0.988 -1.093,1.422c0.137,-1.629 0.325,-3.072 0.58,-4.326m42.232,15.083c-0.135,-0.067 -0.29,-0.032 -0.443,0.108c-0.154,0.141 -0.341,0.297 -0.565,0.471c-0.22,0.176 -0.493,0.334 -0.817,0.459c-0.325,0.125 -0.752,0.15 -1.248,0.071c-0.358,-0.062 -0.699,-0.263 -1.023,-0.616c-0.326,-0.355 -0.598,-0.812 -0.819,-1.393c-0.223,-0.578 -0.412,-1.26 -0.53,-2.03c-0.119,-0.767 -0.17,-1.624 -0.119,-2.568c0.051,-0.908 -0.033,-1.558 -0.222,-1.931c-0.188,-0.375 -0.443,-0.592 -0.768,-0.656c-0.324,-0.062 -0.65,-0.04 -1.008,0.052c-0.357,0.09 -0.648,0.164 -0.906,0.184c-0.254,0.023 -0.424,0.197 -0.527,0.524c-0.104,0.326 -0.172,0.704 -0.206,1.133c-0.033,0.43 -0.033,0.873 -0.016,1.319c0.016,0.446 0.033,0.787 0.033,1.044c0,0.257 -0.102,0.619 -0.307,1.084c-0.204,0.466 -0.461,0.933 -0.785,1.384c-0.324,0.45 -0.683,0.851 -1.075,1.199c-0.393,0.349 -0.785,0.527 -1.144,0.534c-0.29,0.004 -0.545,-0.3 -0.734,-0.897c-0.188,-0.598 -0.292,-1.315 -0.308,-2.154c-0.016,-0.839 0.069,-1.715 0.257,-2.625c0.188,-0.91 0.495,-1.704 0.957,-2.38c0.29,-0.415 0.664,-0.748 1.091,-1.01c0.427,-0.264 0.853,-0.495 1.263,-0.705c0.411,-0.214 0.768,-0.426 1.091,-0.618c0.327,-0.193 0.515,-0.454 0.583,-0.746c0.051,-0.189 -0.104,-0.324 -0.427,-0.421c-0.325,-0.098 -0.769,-0.125 -1.298,-0.099c-0.529,0.025 -1.145,0.137 -1.809,0.32c-0.666,0.182 -1.348,0.466 -2.016,0.854c-0.665,0.389 -1.296,0.877 -1.893,1.488c-0.597,0.608 -1.076,1.334 -1.434,2.18c-0.545,1.311 -0.803,2.548 -0.768,3.731c0.006,0.221 0.025,0.431 0.045,0.641c-0.037,0.017 -0.074,0.035 -0.113,0.061c-0.223,0.141 -0.479,0.333 -0.785,0.561c-0.309,0.227 -0.649,0.49 -1.008,0.753c-0.36,0.263 -0.734,0.491 -1.126,0.686c-0.394,0.195 -0.786,0.304 -1.178,0.328c-0.392,0.023 -0.786,-0.092 -1.145,-0.358c-0.358,-0.252 -0.682,-0.59 -0.955,-1.014c-0.273,-0.424 -0.495,-0.865 -0.665,-1.292c-0.17,-0.424 -0.29,-0.8 -0.36,-1.124c-0.068,-0.323 -0.068,-0.496 -0,-0.513c0.684,-0.303 1.281,-0.793 1.794,-1.435c0.512,-0.641 0.887,-1.366 1.143,-2.158c0.256,-0.793 0.342,-1.599 0.256,-2.419c-0.085,-0.822 -0.358,-1.572 -0.835,-2.249c-0.497,-0.678 -1.041,-1.079 -1.623,-1.225c-0.581,-0.144 -1.144,-0.118 -1.689,0.044c-0.548,0.163 -1.06,0.429 -1.521,0.76c-0.46,0.335 -0.818,0.649 -1.075,0.927c-0.632,0.679 -1.092,1.268 -1.382,1.803c-0.267,0.491 -0.47,0.932 -0.649,1.337l0.291,-4.721c0.666,-1.16 1.143,-2.263 1.433,-3.347c0.136,-0.43 0.24,-0.895 0.29,-1.375c0.051,-0.48 0.051,-0.943 -0.016,-1.371c-0.069,-0.427 -0.223,-0.835 -0.461,-1.208c-0.24,-0.374 -0.58,-0.676 -1.008,-0.926c-0.872,-0.465 -1.587,-0.404 -2.151,0.189c-0.562,0.591 -0.853,1.795 -0.853,3.628c-0,0.805 -0.035,1.474 -0.086,2.006c-0.051,0.53 -0.137,0.977 -0.221,1.338c-0.086,0.363 -0.171,0.637 -0.258,0.845c-0.085,0.205 -0.134,0.378 -0.186,0.517c-0.256,0.757 -0.546,1.396 -0.887,1.914c-0.342,0.52 -0.651,0.954 -0.941,1.301c-0.289,0.348 -0.494,0.641 -0.649,0.884c-0.152,0.243 -0.152,0.465 -0.016,0.668c0.153,0.272 0.358,0.388 0.581,0.369c0.222,-0.021 0.443,-0.094 0.649,-0.218c0.204,-0.123 0.376,-0.245 0.528,-0.403c0.154,-0.156 0.24,-0.226 0.256,-0.226c0.069,-0.018 0.103,0.238 0.12,0.804c0.018,0.564 0.018,1.284 0,2.158c-0.017,0.875 -0.017,1.851 -0.035,2.897c-0.014,0.935 -0.015,1.84 -0.016,2.722c-0.09,0.093 -0.174,0.183 -0.274,0.279c-0.341,0.332 -0.717,0.645 -1.109,0.909c-0.392,0.263 -0.82,0.494 -1.264,0.654c-0.444,0.162 -0.886,0.237 -1.314,0.192c-0.426,-0.045 -0.854,-0.208 -1.262,-0.51c-0.41,-0.302 -0.786,-0.793 -1.128,-1.472c-0.563,-1.14 -0.956,-2.143 -1.16,-3.048c-0.206,-0.905 -0.325,-1.673 -0.376,-2.341c-0.051,-0.753 0.017,-1.439 0.17,-2.058c0.837,-0.561 1.623,-1.277 2.357,-2.163c0.613,-0.747 1.211,-1.68 1.775,-2.838c0.562,-1.156 0.974,-2.515 1.194,-4.095c0.155,-1.185 0.103,-2.126 -0.169,-2.807c-0.273,-0.681 -0.615,-1.172 -1.025,-1.492c-0.478,-0.387 -1.059,-0.599 -1.742,-0.655c-1.041,0.015 -1.945,0.235 -2.713,0.641c-0.769,0.407 -1.401,0.966 -1.929,1.659c-0.531,0.694 -0.94,1.489 -1.265,2.402c-0.324,0.913 -0.562,1.877 -0.715,2.906c-0.155,1.03 -0.274,1.888 -0.325,2.592c-0.051,0.703 -0.103,1.269 -0.119,1.699c-0.017,0.496 -0.017,0.907 0.033,1.198c-0.085,0.155 -0.222,0.311 -0.375,0.451c-0.153,0.122 -0.358,0.245 -0.614,0.388c-0.258,0.14 -0.598,0.265 -1.059,0.393c-0.41,0.126 -0.716,0.286 -0.921,0.494c-0.206,0.21 -0.308,0.417 -0.326,0.622c-0.016,0.206 0.086,0.393 0.274,0.578c0.188,0.185 0.496,0.283 0.905,0.293c0.461,0.045 0.803,0.057 1.042,0.037c0.237,-0.023 0.408,-0.042 0.528,-0.061c0.137,-0.018 0.222,-0.055 0.274,-0.106c0.255,1.896 0.683,3.585 1.297,5.082c0.273,0.63 0.598,1.259 0.957,1.886c0.358,0.629 0.801,1.17 1.296,1.659c0.494,0.489 1.075,0.89 1.725,1.205c0.647,0.316 1.381,0.491 2.201,0.495c0.632,0.041 1.23,-0.018 1.775,-0.165c0.548,-0.145 1.042,-0.342 1.486,-0.588c0.442,-0.248 0.852,-0.528 1.212,-0.86c0.277,-0.256 0.527,-0.516 0.756,-0.781c0.004,0.069 0.008,0.138 0.013,0.204c0.051,0.735 0.136,1.231 0.254,1.487c0.122,0.255 0.343,0.405 0.702,0.452c0.357,0.044 0.733,0.003 1.144,-0.123c0.408,-0.127 0.783,-0.355 1.142,-0.669c0.36,-0.314 0.582,-0.712 0.7,-1.193c0.069,-0.224 0.121,-0.533 0.154,-0.93c0.035,-0.393 0.052,-0.787 0.068,-1.198c0.018,-0.411 0.018,-0.807 0.035,-1.165c0.016,-0.362 0.016,-0.634 0.016,-0.789c0.017,-0.36 0.052,-0.634 0.086,-0.806c0.034,-0.173 0.085,-0.294 0.172,-0.381c0.083,-0.086 0.186,-0.14 0.307,-0.175c0.118,-0.037 0.307,-0.108 0.528,-0.198c0.051,-0.017 0.102,0.136 0.188,0.46c0.085,0.324 0.188,0.75 0.342,1.245c0.153,0.494 0.342,1.057 0.598,1.653c0.255,0.594 0.563,1.173 0.955,1.697c0.393,0.525 0.853,0.98 1.401,1.348c0.545,0.368 1.209,0.563 1.978,0.602c0.7,0.039 1.366,-0.073 1.981,-0.322c0.613,-0.251 1.177,-0.586 1.671,-0.989c0.497,-0.401 0.94,-0.871 1.333,-1.373c0.393,-0.503 0.682,-0.988 0.904,-1.455c0.056,-0.116 0.087,-0.22 0.13,-0.33c0.089,0.279 0.192,0.548 0.313,0.804c0.428,0.884 0.991,1.577 1.691,2.097c0.7,0.519 1.451,0.747 2.254,0.718c0.802,-0.065 1.467,-0.248 2.014,-0.564c0.546,-0.317 0.99,-0.667 1.331,-1.033c0.411,-0.418 0.735,-0.901 0.956,-1.453c0.325,0.73 0.735,1.358 1.264,1.898c0.461,0.454 1.041,0.84 1.757,1.171c0.718,0.331 1.588,0.402 2.612,0.197c0.682,-0.096 1.281,-0.329 1.777,-0.679c0.493,-0.35 0.885,-0.717 1.176,-1.099c0.292,-0.381 0.462,-0.727 0.548,-1.053c0.085,-0.326 0.034,-0.515 -0.121,-0.579" style="fill:#191a18;fill-rule:nonzero;"/><path d="M432.578,50.061c-0.954,0.814 -1.842,1.415 -2.747,1.629c-0.755,0.176 -1.396,-0.104 -1.846,-0.615c-2.488,-2.843 -2.739,-8.77 -2.312,-12.115c0.208,-1.634 0.55,-3.286 1.015,-4.933c0.467,-1.647 1.053,-3.073 1.793,-4.225c0.74,-1.153 1.594,-1.965 2.594,-2.385c1.001,-0.419 2.171,-0.224 3.503,0.586c0.981,0.61 1.757,1.412 2.31,2.38c0.555,0.968 0.96,2.021 1.189,3.155c0.231,1.134 0.352,2.291 0.32,3.462c-0.149,5.176 -1.637,9.495 -5.819,13.061m2.57,-26.95c-6.422,-0.38 -11.746,7.05 -13.864,16.308c-1.442,6.297 0.809,15.406 6.735,15.777c7.524,0.474 13.905,-7.986 15.642,-12.774c3.336,-9.19 0.67,-18.769 -8.513,-19.311" style="fill:#191a18;fill-rule:nonzero;"/><path d="M407.577,41.341c0.335,-0.261 0.608,-0.541 0.804,-0.84c0.196,-0.298 0.295,-0.556 0.315,-0.812c0.02,-0.255 -0.079,-0.411 -0.296,-0.486c-0.842,-0.223 -1.667,-0.191 -2.508,0.079c-0.845,0.269 -1.589,0.637 -2.274,1.059c-0.785,0.486 -1.55,1.088 -2.277,1.807c-0.134,-0.312 -0.333,-0.683 -0.587,-1.091c-0.216,-0.331 -0.49,-0.74 -0.823,-1.187c-0.333,-0.447 -0.765,-0.932 -1.296,-1.456c-0.626,-0.599 -1.312,-0.903 -2.037,-0.95c-0.725,-0.049 -1.412,0.044 -2.06,0.229c-0.647,0.189 -1.175,0.453 -1.607,0.754c-0.431,0.303 -0.646,0.522 -0.646,0.621c0.02,0.235 0.117,0.372 0.273,0.429c0.158,0.055 0.354,0.072 0.609,0.087c0.255,0.016 0.509,0.032 0.803,0.067c0.294,0.034 0.568,0.128 0.864,0.281c0.686,0.363 1.176,1.28 1.489,2.79c0.313,1.51 0.452,3.691 0.392,6.546c0,2.263 0.235,3.851 0.706,4.789c0.47,0.938 1.196,1.378 2.157,1.304c0.843,-0.074 1.509,-0.517 2,-1.35c0.49,-0.835 0.725,-2.098 0.708,-3.81c-0,-0.805 0.035,-1.653 0.116,-2.539c0.079,-0.888 0.254,-1.716 0.548,-2.489c0.295,-0.772 0.704,-1.468 1.235,-2.046c0.53,-0.578 1.255,-0.984 2.177,-1.216c0.469,-0.106 0.882,-0.31 1.215,-0.57" style="fill:#191a18;fill-rule:nonzero;"/><path d="M388.683,23.304c0.869,0 1.549,0.773 2.191,1.265l0.51,0.461c0.304,0.307 0.694,0.637 0.979,0.925l0.573,0.534c0.066,0.055 0.112,0.099 0.173,0.156l1.286,1.394c-4.849,6.591 -8.666,-4.735 -5.712,-4.735m18.783,-10.184c0.098,0.142 0.068,0.536 0.068,0.748c0,1.082 -0.585,2.817 -0.981,3.764c-0.243,0.582 -0.396,0.861 -0.661,1.399l-0.213,0.389c-0.194,0.346 -0.582,0.957 -0.819,1.28l-0.647,0.829l-1.038,1.041c-0.037,0.035 -0.034,0.03 -0.074,0.061l-0.416,0.323c-0.863,0.611 -1.681,0.92 -2.761,1.1c-0.33,0.056 -0.731,0.106 -1.098,0.106c1.006,-1.536 7.16,-14.041 8.64,-11.04m-24.131,4.791c0.135,0.643 0.306,1.295 0.486,1.923c0.242,0.836 0.501,1.611 0.797,2.392c0.289,0.761 0.614,1.509 0.975,2.232c0.217,0.437 0.441,0.876 0.684,1.298c1.013,1.763 3.364,5.291 5.529,5.291c0.48,0 0.815,-0.109 1.221,-0.312c0.087,-0.042 0.136,-0.079 0.219,-0.129c0.075,-0.045 0.144,-0.09 0.211,-0.14c0.139,-0.103 0.274,-0.199 0.409,-0.309c0.429,-0.355 0.972,-0.848 1.34,-1.283c0.037,-0.046 0.058,-0.055 0.09,-0.103c0.081,0.054 0.16,0.123 0.24,0.188c0.782,0.64 1.706,1.245 2.631,1.659c0.605,0.272 1.138,0.429 1.656,0.448l0.216,0c0.575,-0.021 1.138,-0.22 1.77,-0.626c0.362,-0.232 0.673,-0.494 0.999,-0.769c0.046,-0.039 0.061,-0.043 0.106,-0.088c0.232,-0.23 0.596,-0.532 0.779,-0.774c0.063,-0.081 0.135,-0.132 0.198,-0.211l0.273,-0.309c0.037,-0.041 0.049,-0.064 0.088,-0.107l0.177,-0.211c0.519,-0.66 1.027,-1.331 1.473,-2.045c0.356,-0.571 0.684,-1.149 0.985,-1.753c0.828,-1.656 1.576,-4.521 1.899,-6.324c0.083,-0.461 0.144,-0.885 0.209,-1.367c0.05,-0.373 0.092,-0.79 0.11,-1.222l0,-0.861c-0.031,-0.671 -0.146,-1.326 -0.407,-1.853c-2.126,-4.305 -9.709,9.084 -10.844,10.618c-0.053,0.072 -0.089,0.132 -0.145,0.207c-0.555,0.739 -1.047,0.052 -1.548,-0.389c-0.292,-0.227 -0.95,-0.963 -1.238,-1.288l-0.267,-0.316c-0.28,-0.362 -0.591,-0.708 -0.872,-1.07l-1.02,-1.311c-0.662,-0.889 -1.484,-1.966 -2.206,-2.827l-0.27,-0.312c-0.396,-0.446 -0.789,-0.892 -1.213,-1.313c-0.161,-0.16 -0.308,-0.341 -0.483,-0.487c-0.038,-0.032 -0.064,-0.062 -0.099,-0.097l-1.018,-0.925c-0.345,-0.302 -0.718,-0.588 -1.111,-0.829c-0.472,-0.29 -1.092,-0.653 -1.676,-0.653l-0.018,0c-0.37,0.001 -0.659,0.041 -0.956,0.229c-0.626,0.395 -0.889,1.26 -0.889,2.066c0,1.19 0.061,1.567 0.252,2.724l0.258,1.338Z" style="fill:#fff;fill-rule:nonzero;"/><path d="M305.684,34.969c0.098,-1.416 0.233,-2.672 0.419,-3.762c0.086,-0.464 0.169,-0.912 0.269,-1.347c0.099,-0.433 0.221,-0.825 0.358,-1.169c0.133,-0.347 0.292,-0.603 0.467,-0.799c0.17,-0.197 0.37,-0.277 0.577,-0.236c0.258,0.041 0.444,0.171 0.552,0.392c0.111,0.222 0.148,0.503 0.124,0.832c-0.024,0.33 -0.086,0.688 -0.197,1.063c-0.112,0.375 -0.232,0.733 -0.381,1.08c-0.208,0.48 -0.443,0.961 -0.687,1.43c-0.247,0.465 -0.48,0.903 -0.714,1.279c-0.257,0.438 -0.529,0.861 -0.787,1.237m23.257,-2.535c-0.021,-0.03 -0.045,-0.057 -0.068,-0.085c-0.005,-0.006 -0.015,-0.016 -0.015,-0.016l-0.001,0.001c-0.112,-0.126 -0.246,-0.231 -0.41,-0.3c-0.196,-0.068 -0.391,-0.012 -0.604,0.189c-0.214,0.199 -0.427,0.47 -0.642,0.83c-0.212,0.36 -0.425,0.775 -0.638,1.26c-0.214,0.485 -0.41,0.97 -0.57,1.473c-0.426,1.273 -0.755,2.997 -1.04,4.626c-0.285,1.629 -0.533,3.203 -0.747,4.758c-0.067,0.496 -0.132,0.972 -0.196,1.437c-0.053,0.393 -0.105,0.775 -0.155,1.146c-0.031,0.198 -0.061,0.379 -0.093,0.549c-0.105,0.567 -0.274,1.336 -0.482,1.794c-0.007,0.015 -0.015,0.033 -0.023,0.048c-0.021,0.046 -0.045,0.09 -0.067,0.128c-0.242,0.413 -0.416,0.251 -0.416,0.251c-0.382,-0.156 -0.695,-1.171 -0.931,-2.316c-0.015,-0.075 -0.031,-0.149 -0.045,-0.223c-0.143,-0.734 -0.255,-1.497 -0.334,-2.109l0.01,0.016c-0.539,-6.09 -2.006,-8.592 -3.131,-9.623c-0.109,-0.099 -0.192,-0.167 -0.275,-0.227l0.013,-0.001c-0.017,-0.01 -0.032,-0.016 -0.049,-0.025c-0.1,-0.069 -0.208,-0.124 -0.35,-0.183c-0.264,-0.127 -0.516,-0.218 -0.755,-0.276c-0.004,-0.003 -0.016,-0.009 -0.016,-0.009l0.002,0.005c-0.764,-0.183 -1.403,-0.058 -1.909,0.191c-0.152,0.063 -0.297,0.136 -0.427,0.229c-0.197,0.137 -0.378,0.309 -0.551,0.505c-0.291,0.309 -0.439,0.57 -0.439,0.57l-0.002,0.019c-0.202,0.314 -0.392,0.667 -0.574,1.055c-0.444,0.954 -0.853,2.047 -1.19,3.284c-0.308,1.128 -0.616,2.236 -0.924,3.32c-0,0 -0.12,0.453 -0.288,1.097c-0.131,0.451 -0.265,0.984 -0.373,1.439c-0.164,0.636 -0.328,1.285 -0.457,1.805c-0.593,1.599 -1.371,0.509 -1.613,-0.197c-0.104,-0.301 -0.336,-1.387 -0.336,-1.387c-0.215,-1.232 -0.413,-2.446 -0.579,-3.644c-0.164,-1.196 -0.331,-1.927 -0.479,-3.16c-0.069,-0.569 -0.142,-1.265 -0.213,-1.985c0.014,-0.075 0.026,-0.152 0.042,-0.225c0.776,-0.562 1.506,-1.281 2.189,-2.169c0.571,-0.749 1.126,-1.688 1.649,-2.846c0.525,-1.162 0.905,-2.526 1.111,-4.112c0.142,-1.19 0.094,-2.134 -0.159,-2.817c-0.254,-0.684 -0.57,-1.176 -0.952,-1.495c-0.444,-0.388 -0.983,-0.601 -1.617,-0.662c-0.969,0.018 -1.807,0.239 -2.523,0.647c-0.713,0.407 -1.301,0.968 -1.791,1.663c-0.492,0.699 -0.873,1.494 -1.174,2.41c-0.302,0.916 -0.367,0.755 -0.739,3.032c-0.372,2.278 -0.323,5.613 -0.323,5.613c-0.034,0.039 -0.298,0.197 -0.334,0.233c-0.142,0.123 -0.334,0.246 -0.572,0.388c-0.239,0.141 -0.554,0.268 -0.984,0.396c-0.379,0.126 -0.664,0.286 -0.854,0.496c-0.191,0.208 -0.287,0.416 -0.305,0.624c-0.013,0.206 0.081,0.393 0.257,0.58c0.171,0.185 0.458,0.284 0.839,0.295c0.43,0.043 0.747,0.056 0.968,0.034c0.222,-0.02 0.38,-0.042 0.492,-0.06c0.124,-0.019 0.483,-0.204 0.531,-0.257c0.155,1.234 0.25,2.253 0.391,3.59c0.079,0.549 0.165,1.117 0.254,1.707c0.184,1.197 0.431,2.356 0.709,3.498c0.283,1.14 0.614,2.211 0.994,3.206c0.38,0.995 0.811,1.812 1.306,2.465c0.494,0.656 1.04,1.074 1.635,1.296c0.594,0.224 1.273,0.121 2.017,-0.302c0.578,-0.35 1.038,-0.86 1.403,-1.529c0.364,-0.669 0.659,-1.408 0.894,-2.2c0.23,-0.792 0.413,-1.583 0.561,-2.392c0.073,-0.395 0.141,-0.763 0.208,-1.112c0.156,-0.79 0.297,-1.477 0.436,-2.093c0.018,-0.103 0.043,-0.23 0.071,-0.367c0.145,-0.569 0.3,-1.169 0.473,-1.84c0.033,-0.127 0.071,-0.257 0.104,-0.384c0.061,-0.218 0.124,-0.44 0.189,-0.67c0.195,-0.699 0.408,-1.399 0.622,-2.117c0.213,-0.715 0.409,-1.344 0.604,-1.9c0.195,-0.556 0.356,-0.987 0.499,-1.311c0.142,-0.323 0.319,-0.112 0.372,-0.042c0.408,0.796 0.605,2.04 0.764,3.198c0.161,1.157 0.32,2.368 0.446,3.667c0.125,1.302 0.302,2.603 0.498,3.92c0.122,0.82 0.28,1.662 0.492,2.459c0.203,0.636 0.7,1.943 1.598,2.927c0.041,0.041 0.076,0.082 0.121,0.123c0.405,0.388 0.724,0.67 1.296,0.972c0.472,0.231 1.87,0.805 3.304,0.131l-0.003,0.004c0.012,-0.005 0.021,-0.012 0.031,-0.018c0.221,-0.105 0.439,-0.248 0.656,-0.417c0.31,-0.281 1.346,-1.343 2.102,-3.541c0.005,-0.012 0.009,-0.025 0.013,-0.04c0.049,-0.144 0.097,-0.291 0.144,-0.445c0.04,-0.137 0.077,-0.274 0.114,-0.411c0.013,-0.048 0.027,-0.092 0.039,-0.142c0.016,-0.061 0.032,-0.11 0.047,-0.163c0.621,-2.449 0.761,-4.974 0.79,-5.853c0.183,-1.98 0.272,-3.782 0.324,-5.734c0.042,-1.607 0.504,-4.532 0.472,-5.123c-0.005,-0.499 -0.232,-0.874 -0.359,-1.044" style="fill:#fff;fill-rule:nonzero;"/><path d="M415.557,44.904c-0.547,2.794 -2.963,7.668 -6.389,8.814c-0.881,0.286 -1.492,0.258 -1.826,-0.088c-0.336,-0.347 -0.475,-0.89 -0.457,-1.604c0.021,-0.717 0.203,-1.566 0.508,-2.519c0.305,-0.954 0.672,-1.896 1.094,-2.812c0.423,-0.917 0.845,-1.757 1.268,-2.517c0.422,-0.761 0.805,-1.273 1.029,-1.616c0.219,-0.332 0.84,-1.07 1.155,-1.478c0.31,-0.397 0.67,-0.723 1.024,-1.056c0.697,-0.586 1.731,-1.059 2.451,0.425c0.024,0.063 0.051,0.12 0.073,0.187c0.187,0.556 0.284,1.191 0.299,1.92c0.016,0.728 -0.067,1.508 -0.229,2.344m1.261,-7.785c-0.683,-0.03 -2.16,0.002 -3.093,0.302c-0.763,0.245 -1.255,0.407 -2.136,1.019c-0.647,0.451 -1.157,0.905 -1.547,1.395c-0.893,1.076 -1.739,2.287 -2.538,3.642c-0.799,1.358 -1.429,2.726 -1.887,4.09c-0.455,1.364 -0.683,2.686 -0.662,3.935c0.021,1.25 0.393,2.333 1.144,3.234c0.381,0.493 0.907,0.834 1.576,1.024c0.669,0.191 1.387,0.232 2.151,0.14c8.398,-1.022 13.14,-18.517 6.992,-18.781" style="fill:#fff;fill-rule:nonzero;"/><path d="M348.214,52.501c-0.137,-0.068 -0.289,-0.029 -0.444,0.108c-0.153,0.141 -0.342,0.297 -0.564,0.473c-0.22,0.174 -0.495,0.334 -0.818,0.458c-0.325,0.124 -0.751,0.149 -1.247,0.072c-0.358,-0.064 -0.7,-0.264 -1.025,-0.619c-0.324,-0.353 -0.596,-0.812 -0.818,-1.391c-0.223,-0.578 -0.41,-1.261 -0.529,-2.03c-0.12,-0.769 -0.172,-1.624 -0.12,-2.567c0.05,-0.909 -0.034,-1.559 -0.222,-1.932c-0.188,-0.373 -0.444,-0.593 -0.768,-0.655c-0.325,-0.064 -0.649,-0.043 -1.008,0.05c-0.359,0.09 -0.647,0.164 -0.905,0.184c-0.255,0.021 -0.426,0.197 -0.529,0.524c-0.101,0.327 -0.169,0.705 -0.204,1.134c-0.034,0.428 -0.034,0.873 -0.017,1.319c0.017,0.446 0.034,0.788 0.034,1.044c0,0.257 -0.103,0.618 -0.307,1.084c-0.204,0.467 -0.462,0.934 -0.786,1.383c-0.324,0.451 -0.683,0.851 -1.074,1.199c-0.392,0.351 -0.786,0.527 -1.144,0.534c-0.29,0.003 -0.547,-0.301 -0.735,-0.896c-0.187,-0.597 -0.291,-1.315 -0.306,-2.154c-0.017,-0.84 0.068,-1.715 0.255,-2.625c0.188,-0.911 0.496,-1.703 0.956,-2.379c0.29,-0.418 0.666,-0.749 1.092,-1.012c0.428,-0.263 0.855,-0.494 1.264,-0.705c0.409,-0.214 0.768,-0.425 1.093,-0.619c0.323,-0.192 0.512,-0.453 0.58,-0.744c0.051,-0.19 -0.102,-0.324 -0.427,-0.422c-0.325,-0.099 -0.768,-0.124 -1.297,-0.099c-0.529,0.026 -1.144,0.138 -1.809,0.32c-0.666,0.182 -1.349,0.468 -2.015,0.855c-0.665,0.387 -1.297,0.877 -1.895,1.486c-0.597,0.609 -1.076,1.337 -1.434,2.183c-0.546,1.31 -0.802,2.547 -0.769,3.729c0.035,1.181 0.258,2.206 0.683,3.088c0.428,0.885 0.991,1.579 1.691,2.098c0.7,0.52 1.451,0.748 2.253,0.719c0.802,-0.066 1.468,-0.247 2.015,-0.564c0.546,-0.318 0.989,-0.668 1.331,-1.033c0.409,-0.418 0.734,-0.903 0.956,-1.454c0.325,0.731 0.734,1.359 1.264,1.899c0.46,0.454 1.04,0.838 1.757,1.171c0.717,0.331 1.588,0.402 2.612,0.197c0.683,-0.097 1.28,-0.33 1.776,-0.679c0.494,-0.352 0.887,-0.718 1.177,-1.098c0.29,-0.382 0.461,-0.728 0.546,-1.054c0.085,-0.328 0.035,-0.515 -0.119,-0.58" style="fill:#fff;fill-rule:nonzero;"/><path d="M369.518,43.968c-0.324,0.467 -0.649,0.8 -0.973,1.026c-0.324,0.228 -0.614,0.37 -0.871,0.443c-0.291,0.089 -0.598,0.129 -0.887,0.083c0.069,-0.686 0.238,-1.34 0.511,-1.962c0.275,-0.621 0.582,-1.158 0.941,-1.608c0.357,-0.452 0.715,-0.782 1.09,-1.01c0.376,-0.23 0.682,-0.268 0.941,-0.136c0.256,0.116 0.341,0.457 0.273,1.024c-0.068,0.565 -0.41,1.292 -1.025,2.14m-16.592,-7.305c0.119,-0.533 0.238,-1.048 0.375,-1.548c0.136,-0.499 0.307,-0.947 0.495,-1.344c0.188,-0.397 0.409,-0.692 0.648,-0.917c0.239,-0.227 0.513,-0.317 0.802,-0.27c0.359,0.045 0.615,0.196 0.768,0.449c0.154,0.254 0.206,0.58 0.171,0.957c-0.034,0.378 -0.119,0.79 -0.272,1.221c-0.154,0.43 -0.324,0.845 -0.53,1.242c-0.289,0.552 -0.614,1.106 -0.956,1.642c-0.341,0.537 -0.666,1.038 -0.99,1.472c-0.359,0.502 -0.734,0.988 -1.092,1.422c0.136,-1.629 0.325,-3.072 0.581,-4.326m42.231,15.083c-0.136,-0.067 -0.29,-0.032 -0.444,0.108c-0.153,0.141 -0.341,0.297 -0.564,0.471c-0.22,0.176 -0.494,0.334 -0.818,0.459c-0.325,0.125 -0.751,0.15 -1.247,0.071c-0.358,-0.062 -0.699,-0.263 -1.023,-0.616c-0.326,-0.355 -0.598,-0.812 -0.82,-1.393c-0.222,-0.578 -0.411,-1.26 -0.529,-2.03c-0.12,-0.767 -0.17,-1.624 -0.12,-2.568c0.051,-0.908 -0.032,-1.558 -0.221,-1.931c-0.188,-0.375 -0.444,-0.592 -0.769,-0.656c-0.324,-0.062 -0.65,-0.04 -1.008,0.052c-0.358,0.09 -0.648,0.164 -0.905,0.184c-0.254,0.023 -0.425,0.197 -0.527,0.524c-0.104,0.326 -0.172,0.703 -0.206,1.133c-0.034,0.43 -0.034,0.873 -0.016,1.319c0.016,0.446 0.033,0.787 0.033,1.044c0,0.257 -0.103,0.619 -0.307,1.084c-0.204,0.466 -0.462,0.933 -0.786,1.384c-0.325,0.45 -0.683,0.851 -1.074,1.199c-0.393,0.349 -0.785,0.527 -1.144,0.534c-0.29,0.004 -0.545,-0.3 -0.734,-0.897c-0.188,-0.598 -0.292,-1.315 -0.308,-2.154c-0.016,-0.839 0.069,-1.715 0.256,-2.625c0.189,-0.91 0.496,-1.704 0.957,-2.38c0.291,-0.415 0.664,-0.748 1.092,-1.01c0.427,-0.264 0.853,-0.495 1.262,-0.705c0.411,-0.214 0.769,-0.426 1.092,-0.618c0.326,-0.194 0.515,-0.454 0.582,-0.746c0.051,-0.19 -0.103,-0.324 -0.426,-0.421c-0.325,-0.098 -0.769,-0.125 -1.298,-0.1c-0.529,0.026 -1.145,0.138 -1.809,0.321c-0.666,0.182 -1.348,0.466 -2.016,0.854c-0.665,0.389 -1.296,0.877 -1.893,1.488c-0.598,0.608 -1.076,1.334 -1.434,2.18c-0.546,1.311 -0.803,2.548 -0.768,3.731c0.006,0.221 0.025,0.431 0.045,0.641c-0.037,0.018 -0.074,0.035 -0.114,0.062c-0.222,0.14 -0.478,0.332 -0.784,0.56c-0.31,0.227 -0.65,0.49 -1.008,0.753c-0.36,0.263 -0.734,0.491 -1.126,0.686c-0.394,0.195 -0.786,0.304 -1.179,0.328c-0.39,0.023 -0.785,-0.092 -1.144,-0.358c-0.358,-0.252 -0.682,-0.59 -0.955,-1.014c-0.274,-0.423 -0.495,-0.865 -0.665,-1.292c-0.17,-0.424 -0.291,-0.8 -0.36,-1.124c-0.068,-0.323 -0.068,-0.496 -0,-0.513c0.684,-0.303 1.281,-0.793 1.793,-1.435c0.513,-0.641 0.888,-1.366 1.144,-2.158c0.256,-0.793 0.342,-1.599 0.256,-2.419c-0.086,-0.822 -0.358,-1.572 -0.835,-2.249c-0.497,-0.678 -1.041,-1.08 -1.624,-1.225c-0.58,-0.144 -1.143,-0.118 -1.689,0.044c-0.547,0.163 -1.059,0.429 -1.52,0.76c-0.461,0.335 -0.819,0.649 -1.075,0.927c-0.632,0.679 -1.093,1.268 -1.382,1.804c-0.267,0.49 -0.47,0.931 -0.649,1.336l0.29,-4.721c0.666,-1.16 1.144,-2.263 1.434,-3.347c0.136,-0.43 0.239,-0.895 0.29,-1.375c0.051,-0.48 0.051,-0.943 -0.016,-1.371c-0.07,-0.427 -0.223,-0.835 -0.461,-1.208c-0.241,-0.374 -0.581,-0.676 -1.008,-0.926c-0.872,-0.465 -1.588,-0.404 -2.151,0.189c-0.562,0.591 -0.854,1.795 -0.854,3.628c0,0.805 -0.034,1.474 -0.085,2.006c-0.051,0.53 -0.137,0.977 -0.222,1.338c-0.085,0.363 -0.17,0.637 -0.257,0.845c-0.086,0.205 -0.134,0.378 -0.186,0.517c-0.257,0.757 -0.547,1.396 -0.888,1.914c-0.342,0.52 -0.65,0.954 -0.94,1.301c-0.289,0.348 -0.494,0.641 -0.649,0.884c-0.153,0.243 -0.153,0.465 -0.016,0.668c0.153,0.272 0.358,0.388 0.58,0.369c0.224,-0.021 0.445,-0.093 0.649,-0.218c0.205,-0.123 0.376,-0.245 0.529,-0.403c0.153,-0.156 0.24,-0.226 0.255,-0.226c0.07,-0.018 0.104,0.238 0.121,0.804c0.018,0.564 0.018,1.284 -0,2.158c-0.017,0.875 -0.017,1.851 -0.035,2.897c-0.014,0.935 -0.015,1.84 -0.016,2.722c-0.09,0.093 -0.175,0.183 -0.274,0.279c-0.341,0.332 -0.717,0.645 -1.109,0.91c-0.392,0.262 -0.821,0.493 -1.264,0.653c-0.444,0.162 -0.887,0.237 -1.314,0.192c-0.426,-0.045 -0.854,-0.208 -1.263,-0.51c-0.409,-0.302 -0.785,-0.793 -1.127,-1.472c-0.563,-1.14 -0.956,-2.143 -1.16,-3.048c-0.205,-0.905 -0.325,-1.673 -0.377,-2.341c-0.051,-0.753 0.018,-1.439 0.172,-2.058c0.835,-0.561 1.622,-1.277 2.356,-2.163c0.613,-0.746 1.211,-1.68 1.775,-2.838c0.562,-1.156 0.974,-2.515 1.194,-4.095c0.155,-1.185 0.103,-2.126 -0.17,-2.807c-0.273,-0.681 -0.615,-1.172 -1.024,-1.492c-0.478,-0.387 -1.059,-0.599 -1.742,-0.655c-1.041,0.015 -1.946,0.235 -2.713,0.641c-0.769,0.407 -1.401,0.966 -1.93,1.659c-0.53,0.694 -0.939,1.489 -1.264,2.402c-0.324,0.913 -0.562,1.877 -0.716,2.906c-0.153,1.03 -0.273,1.888 -0.323,2.592c-0.053,0.703 -0.104,1.269 -0.12,1.699c-0.017,0.496 -0.017,0.907 0.032,1.198c-0.084,0.155 -0.221,0.311 -0.374,0.451c-0.153,0.122 -0.358,0.245 -0.615,0.388c-0.256,0.14 -0.597,0.265 -1.058,0.393c-0.41,0.126 -0.716,0.286 -0.922,0.494c-0.205,0.21 -0.307,0.417 -0.325,0.622c-0.017,0.206 0.086,0.393 0.273,0.578c0.189,0.185 0.497,0.283 0.906,0.293c0.46,0.045 0.802,0.057 1.042,0.037c0.238,-0.023 0.407,-0.042 0.528,-0.061c0.137,-0.018 0.221,-0.056 0.273,-0.106c0.256,1.896 0.683,3.585 1.297,5.082c0.274,0.63 0.599,1.259 0.958,1.886c0.358,0.629 0.8,1.17 1.296,1.659c0.493,0.489 1.075,0.89 1.725,1.205c0.647,0.316 1.381,0.491 2.201,0.495c0.631,0.041 1.23,-0.018 1.775,-0.165c0.547,-0.145 1.042,-0.342 1.486,-0.588c0.442,-0.248 0.852,-0.528 1.212,-0.86c0.277,-0.256 0.526,-0.516 0.756,-0.781c0.004,0.069 0.008,0.138 0.013,0.204c0.05,0.735 0.135,1.231 0.254,1.487c0.122,0.255 0.343,0.405 0.702,0.452c0.357,0.044 0.733,0.003 1.143,-0.123c0.408,-0.127 0.784,-0.355 1.143,-0.669c0.36,-0.314 0.581,-0.712 0.7,-1.193c0.069,-0.224 0.121,-0.533 0.154,-0.93c0.034,-0.393 0.051,-0.787 0.067,-1.198c0.018,-0.411 0.018,-0.807 0.036,-1.165c0.017,-0.362 0.017,-0.634 0.017,-0.789c0.016,-0.36 0.051,-0.634 0.085,-0.806c0.034,-0.174 0.085,-0.294 0.171,-0.381c0.084,-0.086 0.187,-0.14 0.307,-0.175c0.119,-0.037 0.308,-0.108 0.529,-0.198c0.051,-0.017 0.102,0.136 0.187,0.46c0.086,0.324 0.189,0.75 0.342,1.245c0.154,0.494 0.342,1.057 0.599,1.653c0.255,0.594 0.563,1.173 0.954,1.697c0.394,0.525 0.853,0.98 1.402,1.348c0.545,0.368 1.209,0.563 1.978,0.602c0.7,0.039 1.366,-0.073 1.981,-0.322c0.613,-0.251 1.176,-0.585 1.671,-0.989c0.496,-0.401 0.94,-0.871 1.333,-1.373c0.393,-0.503 0.682,-0.988 0.903,-1.454c0.057,-0.117 0.088,-0.221 0.131,-0.331c0.089,0.279 0.191,0.548 0.313,0.804c0.428,0.884 0.992,1.577 1.691,2.097c0.7,0.519 1.451,0.747 2.253,0.718c0.803,-0.065 1.468,-0.248 2.014,-0.564c0.547,-0.317 0.99,-0.667 1.331,-1.033c0.411,-0.418 0.735,-0.901 0.957,-1.453c0.325,0.73 0.734,1.358 1.264,1.898c0.461,0.454 1.041,0.84 1.757,1.171c0.718,0.331 1.587,0.402 2.612,0.197c0.682,-0.096 1.281,-0.329 1.777,-0.679c0.493,-0.35 0.885,-0.717 1.176,-1.099c0.291,-0.381 0.461,-0.727 0.548,-1.053c0.084,-0.326 0.033,-0.515 -0.121,-0.579" style="fill:#fff;fill-rule:nonzero;"/><path d="M431.993,49.798c-0.955,0.814 -1.842,1.415 -2.747,1.629c-0.755,0.176 -1.396,-0.104 -1.846,-0.615c-2.489,-2.843 -2.74,-8.77 -2.312,-12.115c0.207,-1.634 0.549,-3.287 1.015,-4.933c0.467,-1.647 1.053,-3.073 1.793,-4.225c0.739,-1.152 1.594,-1.965 2.594,-2.385c1.001,-0.419 2.171,-0.224 3.503,0.586c0.981,0.61 1.756,1.413 2.31,2.38c0.555,0.968 0.96,2.021 1.188,3.155c0.232,1.134 0.353,2.291 0.32,3.462c-0.148,5.176 -1.636,9.495 -5.818,13.061m2.57,-26.95c-6.422,-0.38 -11.746,7.05 -13.864,16.309c-1.442,6.296 0.81,15.405 6.735,15.776c7.524,0.474 13.905,-7.986 15.642,-12.774c3.336,-9.19 0.67,-18.769 -8.513,-19.311" style="fill:#fff;fill-rule:nonzero;"/><path d="M406.992,41.078c0.335,-0.261 0.608,-0.54 0.804,-0.84c0.196,-0.298 0.295,-0.556 0.315,-0.812c0.02,-0.255 -0.08,-0.411 -0.295,-0.486c-0.843,-0.223 -1.667,-0.191 -2.51,0.079c-0.843,0.269 -1.588,0.637 -2.273,1.059c-0.785,0.486 -1.55,1.088 -2.276,1.807c-0.135,-0.312 -0.333,-0.683 -0.588,-1.091c-0.216,-0.331 -0.49,-0.74 -0.823,-1.187c-0.333,-0.447 -0.765,-0.932 -1.295,-1.456c-0.627,-0.599 -1.313,-0.903 -2.037,-0.95c-0.726,-0.049 -1.413,0.044 -2.06,0.229c-0.647,0.189 -1.176,0.453 -1.608,0.754c-0.431,0.303 -0.646,0.522 -0.646,0.621c0.019,0.235 0.117,0.372 0.274,0.429c0.158,0.055 0.354,0.072 0.608,0.087c0.255,0.016 0.509,0.032 0.803,0.067c0.295,0.034 0.569,0.128 0.864,0.281c0.686,0.363 1.176,1.28 1.489,2.79c0.313,1.51 0.452,3.691 0.392,6.546c0,2.263 0.236,3.851 0.707,4.789c0.469,0.938 1.196,1.378 2.156,1.304c0.842,-0.074 1.509,-0.517 2,-1.35c0.49,-0.835 0.726,-2.098 0.708,-3.81c-0,-0.805 0.036,-1.653 0.116,-2.539c0.079,-0.888 0.255,-1.716 0.548,-2.489c0.295,-0.772 0.705,-1.468 1.235,-2.046c0.531,-0.579 1.255,-0.984 2.178,-1.216c0.469,-0.106 0.881,-0.31 1.214,-0.57" style="fill:#fff;fill-rule:nonzero;"/><path d="M443.091,21.264l-0.167,-0l0,-0.515c0.03,-0.008 0.089,-0.014 0.192,-0.014c0.194,-0 0.311,0.089 0.311,0.259c-0,0.164 -0.125,0.27 -0.336,0.27m0.426,0.164l0,-0.008c0.162,-0.059 0.331,-0.223 0.331,-0.459c0,-0.173 -0.061,-0.304 -0.174,-0.392c-0.134,-0.109 -0.328,-0.151 -0.605,-0.151c-0.228,-0 -0.428,0.016 -0.564,0.042l0,1.848l0.419,-0l0,-0.738l0.125,-0c0.174,0.003 0.255,0.064 0.308,0.301c0.053,0.231 0.1,0.381 0.128,0.437l0.433,-0c-0.037,-0.073 -0.091,-0.317 -0.15,-0.532c-0.047,-0.173 -0.12,-0.295 -0.251,-0.348" style="fill:#fff;fill-rule:nonzero;"/><path d="M444.236,22.577c-0.291,0.291 -0.69,0.47 -1.133,0.471c-0.443,-0.001 -0.843,-0.18 -1.133,-0.471c-0.29,-0.291 -0.468,-0.692 -0.468,-1.136c-0,-0.444 0.178,-0.845 0.468,-1.136c0.29,-0.291 0.69,-0.47 1.133,-0.47c0.443,0 0.842,0.179 1.133,0.47c0.29,0.291 0.469,0.692 0.469,1.136c0,0.444 -0.179,0.845 -0.469,1.136m-1.133,-3.08c-1.07,0 -1.938,0.871 -1.938,1.944c-0,1.074 0.868,1.943 1.938,1.944c1.071,-0.001 1.938,-0.87 1.938,-1.944c0,-1.073 -0.867,-1.944 -1.938,-1.944" style="fill:#fff;fill-rule:nonzero;"/><path d="M157.354,79.809l-0.259,1.56c-0.329,1.86 -1.536,2.79 -3.619,2.79l-3.38,0l1.256,-7.21l3.42,0c1.017,0 1.715,0.23 2.094,0.69c0.378,0.45 0.568,0.87 0.568,1.25c-0,0.39 -0.02,0.69 -0.08,0.92m5.943,-6.83c-1.217,-1.32 -3.261,-1.98 -6.132,-1.98l-11.596,0l-4.836,27.47l6.85,0l1.486,-8.36l4.526,0c2.662,0 4.916,-0.68 6.77,-2.04c1.855,-1.36 2.971,-3.1 3.35,-5.21l0.758,-4.31c0.1,-0.58 0.15,-1.14 0.15,-1.68c-0,-1.57 -0.439,-2.87 -1.326,-3.89" style="fill:#fff;fill-rule:nonzero;"/><path d="M190.247,76.949l1.067,-5.95l-19.104,0l-4.826,27.47l19.094,0l1.067,-5.95l-12.254,0l0.768,-4.47l10.12,0l1.057,-5.95l-10.12,0l0.877,-5.15l12.254,0Z" style="fill:#fff;fill-rule:nonzero;"/><path d="M211.544,82.619c-0.578,0.64 -1.546,0.97 -2.892,0.97l-2.662,0l0.987,-6.64l2.862,0c1.715,0 2.582,1.03 2.582,3.09c0,1.07 -0.289,1.93 -0.877,2.58m6.85,-9.72c-1.217,-1.27 -3.271,-1.9 -6.162,-1.9l-11.038,0l-4.825,27.47l7.298,0l1.566,-10.26l2.353,0l3.2,10.26l7.687,0l-3.469,-11.14c0.917,-0.43 1.744,-1.16 2.492,-2.18c0.748,-1.01 1.276,-2.35 1.586,-4l0.528,-2.98c0.1,-0.56 0.15,-1.09 0.15,-1.6c-0,-1.48 -0.449,-2.7 -1.366,-3.67" style="fill:#fff;fill-rule:nonzero;"/><path d="M234.635,87.369l3.002,-9.7l2.392,0l-0.418,9.7l-4.976,0Zm11.795,11.1l-0.159,-27.47l-12.553,0l-9.781,27.47l7.269,0l1.864,-5.99l6.351,0l-0.229,5.99l7.238,0Z" style="fill:#fff;fill-rule:nonzero;"/><path d="M269.004,70.999l-7.229,20.79l-0.877,0l0.119,-20.79l-7.458,0l0.309,27.47l12.174,0l10.38,-27.47l-7.418,0Z" style="fill:#fff;fill-rule:nonzero;"/><path d="M295.216,81.109l-1.296,7.32c-0.299,1.79 -0.837,3.01 -1.595,3.67c-0.758,0.66 -1.775,0.99 -3.041,0.99c-2.134,0 -3.201,-0.89 -3.201,-2.67c0,-0.69 0.05,-1.35 0.15,-1.99l1.296,-7.32c0.508,-2.93 2.064,-4.42 4.676,-4.47c2.084,0 3.121,1.03 3.121,3.09c-0,0.41 -0.03,0.87 -0.11,1.38m-2.014,-10.38c-7.129,0 -11.286,3.41 -12.483,10.23l-1.326,7.63c-0.209,1.09 -0.309,2.1 -0.309,3.01c-0,2.06 0.498,3.68 1.486,4.85c1.445,1.7 4.008,2.55 7.687,2.55c3.669,0 6.53,-0.85 8.554,-2.55c2.034,-1.71 3.351,-4.33 3.959,-7.86l1.336,-7.63c0.169,-0.97 0.259,-1.87 0.259,-2.71c0,-5.02 -3.051,-7.52 -9.163,-7.52" style="fill:#fff;fill-rule:nonzero;"/><path d="M323.373,81.109l-1.296,7.32c-0.309,1.79 -0.838,3.01 -1.596,3.67c-0.767,0.66 -1.784,0.99 -3.051,0.99c-2.123,0 -3.19,-0.89 -3.19,-2.67c-0,-0.69 0.05,-1.35 0.149,-1.99l1.297,-7.32c0.508,-2.93 2.063,-4.42 4.676,-4.47c2.084,0 3.12,1.03 3.12,3.09c0,0.41 -0.039,0.87 -0.109,1.38m-2.024,-10.38c-7.129,0 -11.287,3.41 -12.473,10.23l-1.336,7.63c-0.2,1.09 -0.299,2.1 -0.299,3.01c-0,2.06 0.488,3.68 1.475,4.85c1.446,1.7 4.008,2.55 7.687,2.55c3.68,0 6.531,-0.85 8.565,-2.55c2.024,-1.71 3.35,-4.33 3.958,-7.86l1.326,-7.63c0.18,-0.97 0.27,-1.87 0.27,-2.71c-0,-5.02 -3.061,-7.52 -9.173,-7.52" style="fill:#fff;fill-rule:nonzero;"/><path d="M350.393,82.619c-0.588,0.64 -1.546,0.97 -2.892,0.97l-2.662,0l0.987,-6.64l2.852,0c1.725,0 2.592,1.03 2.592,3.09c0,1.07 -0.299,1.93 -0.877,2.58m6.85,-9.72c-1.217,-1.27 -3.271,-1.9 -6.162,-1.9l-11.038,0l-4.835,27.47l7.308,0l1.566,-10.26l2.353,0l3.2,10.26l7.677,0l-3.459,-11.14c0.917,-0.43 1.744,-1.16 2.492,-2.18c0.748,-1.01 1.276,-2.35 1.586,-4l0.528,-2.98c0.1,-0.56 0.15,-1.09 0.15,-1.6c-0,-1.48 -0.459,-2.7 -1.366,-3.67" style="fill:#fff;fill-rule:nonzero;"/><path d="M404.489,70.994l-8.754,13.16l-4.068,-13.16l-7.159,0l-4.826,27.47l6.85,0l2.732,-15.49l2.592,9.23l4.985,0l5.853,-9.23l-2.732,15.49l6.88,0l4.836,-27.47l-7.189,0Z" style="fill:#fff;fill-rule:nonzero;"/><path d="M422.306,87.364l3.011,-9.69l2.393,0l-0.419,9.69l-4.985,0Zm11.795,11.1l-0.149,-27.47l-12.553,0l-9.781,27.47l7.268,0l1.865,-5.99l6.351,0l-0.229,5.99l7.228,0Z" style="fill:#fff;fill-rule:nonzero;"/><path d="M455.189,82.614c-0.579,0.65 -1.546,0.97 -2.892,0.97l-2.662,0l0.987,-6.64l2.862,0c1.715,0 2.582,1.03 2.582,3.09c0,1.07 -0.289,1.93 -0.877,2.58m6.849,-9.71c-1.216,-1.28 -3.27,-1.91 -6.161,-1.91l-11.038,0l-4.825,27.47l7.298,0l1.565,-10.26l2.353,0l3.201,10.26l7.687,0l-3.47,-11.14c0.918,-0.43 1.745,-1.16 2.493,-2.18c0.748,-1.01 1.276,-2.35 1.585,-4l0.529,-2.98c0.1,-0.56 0.149,-1.09 0.149,-1.6c0,-1.48 -0.448,-2.7 -1.366,-3.66" style="fill:#fff;fill-rule:nonzero;"/><path d="M477.343,87.364l3.001,-9.69l2.403,0l-0.419,9.69l-4.985,0Zm11.795,11.1l-0.149,-27.47l-12.563,0l-9.073,25.52l-0.01,0.02l-0.688,1.93l7.268,0l1.865,-5.99l6.351,0l-0.229,5.99l7.228,0Z" style="fill:#fff;fill-rule:nonzero;"/><path d="M497.184,70.994l-1.056,5.95l9.392,0l-3.769,21.52l6.889,0l3.769,-21.52l9.353,0l1.067,-5.95l-25.645,0Z" style="fill:#fff;fill-rule:nonzero;"/><path d="M542.55,70.994l-2.054,11.6l-7.418,0l2.054,-11.6l-6.85,0l-4.825,27.47l6.879,0l1.715,-9.92l7.418,0l-1.755,9.92l6.89,0l4.796,-27.47l-6.85,0Z" style="fill:#fff;fill-rule:nonzero;"/><path d="M568.444,81.104l-1.287,7.33c-0.309,1.78 -0.837,3 -1.605,3.66c-0.758,0.66 -1.775,0.99 -3.041,0.99c-2.134,0 -3.2,-0.89 -3.2,-2.67c-0,-0.69 0.059,-1.35 0.159,-1.98l1.286,-7.33c0.509,-2.93 2.074,-4.41 4.686,-4.46c2.074,0 3.121,1.03 3.121,3.09c0,0.4 -0.04,0.86 -0.119,1.37m-2.015,-10.38c-7.128,0 -11.286,3.41 -12.483,10.23l-1.326,7.63c-0.209,1.09 -0.309,2.1 -0.309,3.01c0,2.06 0.499,3.68 1.486,4.85c1.446,1.7 4.008,2.56 7.687,2.56c3.679,0 6.531,-0.86 8.565,-2.56c2.024,-1.7 3.34,-4.32 3.948,-7.86l1.336,-7.63c0.18,-0.97 0.269,-1.87 0.269,-2.71c0,-5.01 -3.061,-7.52 -9.173,-7.52" style="fill:#fff;fill-rule:nonzero;"/><path d="M596.68,70.994l-2.473,14.04l-4.716,-14.04l-7.079,0l-4.826,27.47l6.88,0l2.592,-15.03l4.796,15.03l6.88,0l4.796,-27.47l-6.85,0Z" style="fill:#fff;fill-rule:nonzero;"/><path d="M338.376,121.169l0,2.31l-164.264,-1.15l164.264,-1.16Z" style="fill:#faa919;fill-rule:nonzero;"/><path d="M338.376,116.829l0,2.44l-187.714,-1.22l187.714,-1.22Z" style="fill:#faa919;fill-rule:nonzero;"/><path d="M338.376,112.509l0,2.53l-202.092,-1.27l202.092,-1.26Z" style="fill:#faa919;fill-rule:nonzero;"/><path d="M563.969,122.359l-163.666,1.12l0,-2.24l163.666,1.12Z" style="fill:#faa919;fill-rule:nonzero;"/><path d="M588.207,118.079l-187.904,1.18l0,-2.36l187.904,1.18Z" style="fill:#faa919;fill-rule:nonzero;"/><path d="M603.123,113.799l-202.82,1.23l0,-2.46l202.82,1.23Z" style="fill:#faa919;fill-rule:nonzero;"/><path d="M448.431,157.039l10.02,22.35l-166.477,-0l8.824,-22.35l-9.472,-22.54l167.863,-0l-10.758,22.54Z" style="fill:#003bb7;fill-rule:nonzero;"/><path d="M416.678,170.969l-28.143,0.938l0.1,-1.15l0.063,-0.718l27.98,0.93Z" style="fill:#faa919;fill-rule:nonzero;"/><path d="M420.732,167.479l-31.898,0.979l0.107,-1.248l0.06,-0.701l31.731,0.97Z" style="fill:#faa919;fill-rule:nonzero;"/><path d="M423.225,163.988l-34.093,1.011l0.112,-1.321l0.06,-0.693l33.921,1.003Z" style="fill:#faa919;fill-rule:nonzero;"/><path d="M353.684,170.055c-0,0 -0.14,1.914 -0.156,1.948l-28.917,-0.966l29.073,-0.982Z" style="fill:#faa919;fill-rule:nonzero;"/><path d="M353.996,166.404l-0.179,2.073l-33.334,-1.032l33.513,-1.041Z" style="fill:#faa919;fill-rule:nonzero;"/><path d="M354.304,162.769l-0.183,2.166l-36.17,-1.083l36.353,-1.083Z" style="fill:#faa919;fill-rule:nonzero;"/><path d="M297.712,157.039l-6.07,12.58l-255.766,-0l0,-25.16l255.378,-0l6.458,12.58Z" style="fill:#003bb7;fill-rule:nonzero;"/><path d="M451.709,157.039l6.103,12.58l253.125,-0l-0,-25.16l-252.735,-0l-6.493,12.58Z" style="fill:#003bb7;fill-rule:nonzero;"/><g transform="matrix(0.997049,0,0,1,0.222403,0)"><text x="347.405px" y="123.468px" style="font-family:'Arial-BoldItalicMT', 'Arial', sans-serif;font-weight:700;font-style:italic;font-size:16px;fill:#fff;">1<tspan x="356.95px 366.495px 371.587px 381.133px " y="123.468px 123.468px 123.468px 123.468px ">0.5K</tspan></text></g><g transform="matrix(0.997049,0,0,1,0.222403,0)"><text x="319.699px" y="157.049px" style="font-family:'Arial-Black', 'Arial', sans-serif;font-weight:900;font-size:22.477px;fill:#fff;">F<tspan x="334.116px 352.265px 370.414px 376.273px 392.797px 410.946px " y="157.049px 157.049px 157.049px 157.049px 157.049px 157.049px ">UN RUN</tspan></text></g><g transform="matrix(0.997049,0,0,1,0.222403,0)"><text x="362.089px" y="173.022px" style="font-family:'Arial-BoldItalicMT', 'Arial', sans-serif;font-weight:700;font-style:italic;font-size:15px;fill:#fff;">4<tspan x="372.319px " y="173.022px ">K</tspan></text></g><g transform="matrix(0.997049,0,0,1,0.222403,0)"><g transform="matrix(11,0,0,11,464.552,160.307)"></g><g transform="matrix(11,0,0,11,613.299,160.307)"></g><g transform="matrix(11,0,0,11,620.064,160.307)"></g><g transform="matrix(11,0,0,11,626.828,160.307)"></g><g transform="matrix(11,0,0,11,633.593,160.307)"></g><text x="471.317px" y="160.307px" style="font-family:'ArialMT', 'Arial', sans-serif;font-size:11px;fill:#fff;"><tspan x="471.317px 478.022px 484.727px 494.478px 498.122px 504.827px 511.532px 515.176px 521.881px 525.525px 534.057px 540.762px 546.85px 553.555px 563.306px 570.011px 576.716px 580.967px 584.611px 591.316px 598.021px 604.727px " y="160.307px 160.307px 160.307px 160.307px 160.307px 160.307px 160.307px 160.307px 160.307px 160.307px 160.307px 160.307px 160.307px 160.307px 160.307px 160.307px 160.307px 160.307px 160.307px 160.307px 160.307px 160.307px ">6am,27th December 2025</tspan></text></g><g transform="matrix(0.997049,0,0,1,0.222403,0)"><text x="106.062px" y="160.307px" style="font-family:'ArialMT', 'Arial', sans-serif;font-size:11px;fill:#fff;">J<tspan x="112.192px 115.266px 125.06px 134.853px 140.983px 145.574px 154.761px 161.508px 168.256px 172.549px 179.297px 186.045px 186.758px 194.725px 198.412px 205.159px 211.907px 214.981px 221.729px 231.522px 235.209px 238.271px 246.238px 252.986px 257.279px 264.027px 270.157px 276.905px 283.653px " y="160.307px 160.307px 160.307px 160.307px 160.307px 160.307px 160.307px 160.307px 160.307px 160.307px 160.307px 160.307px 160.307px 160.307px 160.307px 160.307px 160.307px 160.307px 160.307px 160.307px 160.307px 160.307px 160.307px 160.307px 160.307px 160.307px 160.307px 160.307px 160.307px ">immy George Stadium, Peravoor</tspan></text></g></g></svg>