<?xml version="1.0" encoding="UTF-8"?>
<!-- Creator: CorelDRAW 2021 (64-Bit) -->
<svg xmlns="http://www.w3.org/2000/svg" xmlns:xlink="http://www.w3.org/1999/xlink" xmlns:xodm="http://www.corel.com/coreldraw/odm/2003" xml:space="preserve" width="180px" height="180px" version="1.1" style="shape-rendering:geometricPrecision; text-rendering:geometricPrecision; image-rendering:optimizeQuality; fill-rule:evenodd; clip-rule:evenodd" viewBox="0 0 6.67 6.67">
 <defs>
  <style type="text/css">
   <![CDATA[
    .fil0 {fill:#E9EAEE}
    .fil1 {fill:#394691;fill-rule:nonzero}
   ]]>
  </style>
 </defs>
 <g id="Layer_x0020_1">
  <metadata id="CorelCorpID_0Corel-Layer"></metadata>
  <g id="_2683254351728">
   <rect class="fil0" width="6.67" height="6.67" rx="0.57" ry="0.57"></rect>
   <g>
    <path class="fil1" d="M4.05 2.54l0.06 0.08 -0.04 0.04 -0.07 0.06c-0.01,0 -0.01,0.01 -0.01,0.01l-0.15 0.18 -0.04 0.06 -0.02 -0.06 -0.06 -0.14 0 0c-0.01,0 -0.02,0 -0.02,0l-0.17 -0.04 0.01 -0.01 0.02 -0.1 0.01 -0.06c0,-0.02 0.01,-0.04 0.01,-0.07 0,-0.01 0.01,-0.03 0.01,-0.04l0.02 -0.11 0.11 -0.03c0.01,0 0.03,-0.01 0.04,-0.01 0.01,0 0.02,0 0.02,0l0.01 0 0.04 -0.01 0.41 -0.09 -0.18 0.24 -0.03 0.03 -0.01 0.02c0,0 0,0.01 0,0.01l0.03 0.03 0 0.01 0 0z"></path>
    <path class="fil1" d="M3.78 2.6c0.01,0 0.01,0 0.02,0 0.01,0 0.02,0 0.02,0 0.01,0 0.02,0.01 0.02,0.01 0.01,0 0.01,0.01 0.01,0.02 0.01,-0.02 0.02,-0.03 0.03,-0.04 0,0 0,0 -0.01,0 0,-0.01 -0.01,-0.02 -0.02,-0.02 -0.01,-0.01 -0.03,-0.01 -0.04,-0.01 -0.01,0 -0.01,0 -0.02,0 0,0.01 -0.01,0.01 -0.02,0.01 0.01,-0.02 0.01,-0.04 0.02,-0.06 0,0 0,0 0.01,0 0,-0.02 0.01,-0.03 0.02,-0.04 -0.02,0 -0.04,0 -0.06,0.01 -0.01,0.04 -0.02,0.08 -0.02,0.12 0,0 0.01,0 0.02,0 0.01,0 0.01,0 0.02,0l0 0z"></path>
    <path class="fil1" d="M4.07 2.65c0,0 0,0 0,0.01 0,0.03 -0.01,0.07 -0.02,0.1 -0.02,0.04 -0.04,0.07 -0.07,0.09l0 0c-0.03,0.03 -0.07,0.05 -0.11,0.06 -0.01,0 -0.02,0 -0.03,0 0,0 -0.01,0 -0.02,0 -0.01,0 -0.03,0 -0.04,0 -0.01,0 -0.01,0 -0.02,0 -0.02,-0.01 -0.04,-0.01 -0.05,-0.02 -0.02,-0.01 -0.03,-0.02 -0.04,-0.02 -0.02,-0.01 -0.03,-0.02 -0.04,-0.03l0 0c-0.01,-0.01 -0.02,-0.01 -0.03,-0.02l-0.09 -0.09 -0.03 -0.03 0.08 -0.08 0.04 -0.05c0,0 0,0 0.01,-0.01 0.03,-0.03 0.08,-0.06 0.13,-0.06 0,0 0.01,0 0.01,0l0.01 0c0.01,-0.01 0.02,-0.01 0.02,-0.02 0.01,0 0.01,0 0.02,-0.01l0.2 -0.12 0.03 0.12 0.02 0.06 0 0.01 0.01 0.04c0,0.02 0.01,0.05 0.01,0.07l0 0z"></path>
    <path class="fil1" d="M3.75 2.72c0.01,0 0.02,0.01 0.02,0.01 0.01,0 0.02,0 0.03,0.01 0.01,0 0.02,0 0.04,0 0.01,0 0.02,-0.01 0.03,-0.02 0.01,0 0.01,-0.01 0.02,-0.03 0,-0.01 0.01,-0.02 0.01,-0.04 0,-0.01 -0.01,-0.02 -0.01,-0.03 -0.01,0.01 -0.02,0.02 -0.04,0.02 0,0.01 0.01,0.01 0.01,0.01 0,0.01 -0.01,0.02 -0.01,0.02 0,0.01 0,0.02 -0.01,0.02 0,0.01 -0.01,0.01 -0.02,0.01 0,0 -0.01,0 -0.02,0 -0.01,0 -0.01,0 -0.02,0 -0.01,-0.01 -0.01,-0.01 -0.02,-0.01 0,0 0,-0.01 -0.01,-0.01 0,0 0,0 -0.01,0 0,0 0,0 -0.01,0 0,0.01 0,0.01 -0.01,0.01 0.01,0.01 0.01,0.01 0.02,0.02 0,0 0.01,0 0.01,0.01z"></path>
    <path class="fil1" d="M4.06 2.24l0 0.23c0,0.02 0,0.05 -0.01,0.07 0,0 0,0 0,0 -0.01,0.02 -0.02,0.04 -0.03,0.06 -0.03,0.03 -0.08,0.06 -0.13,0.07 -0.01,0 -0.02,0 -0.03,0l-0.02 0 -0.3 0.05 -0.03 0.01 -0.22 0.03 0.29 -0.27 0.12 -0.11c0.02,-0.02 0.04,-0.04 0.06,-0.06l0.03 -0.02 0 -0.01 0.04 0 0.01 0c0,0 0,0 0,0 0.01,-0.01 0.01,-0.01 0.01,-0.01l0.21 -0.04 0 0z"></path>
    <path class="fil1" d="M3.86 2.5c0.01,0 0.02,-0.01 0.02,-0.01 0,-0.01 0.01,-0.01 0.01,-0.02l0 -0.02c-0.01,0 -0.01,0 -0.02,0.01 -0.02,0.01 -0.03,0.03 -0.05,0.04 0.01,0 0.03,0 0.04,0l0 0z"></path>
    <path class="fil1" d="M3.23 2.62c0,-0.02 -0.01,-0.03 -0.01,-0.04 0.01,-0.02 0.02,-0.04 0.04,-0.06 0.04,-0.07 0.09,-0.16 0.12,-0.25 0.02,-0.05 0.04,-0.1 0.05,-0.14 0.02,-0.05 0.03,-0.09 0.04,-0.13 0,-0.03 0,-0.07 -0.01,-0.09 -0.01,-0.02 -0.02,-0.02 -0.02,-0.02 0,0 0.01,0 0.02,0.02 0.01,0.02 0.02,0.06 0.01,0.09 0,0.04 -0.01,0.09 -0.02,0.13 -0.02,0.05 -0.03,0.1 -0.05,0.15 -0.03,0.09 -0.08,0.19 -0.12,0.25 -0.01,0.04 -0.03,0.06 -0.04,0.08 0,0 0,0.01 -0.01,0.01l0 0zm0.8 3.39c0,0 0,0 0,0 0.01,0 0.03,0 0.05,-0.01 0,0 0.01,0 0.01,0 0,0 0,-0.01 0,-0.01 0.01,0 0.01,0 0.01,0 0.01,-0.01 0.01,-0.02 0.02,-0.03 0.01,-0.02 0.02,-0.04 0.04,-0.05 0.02,-0.01 0.04,-0.02 0.06,-0.02 0.02,0 0.03,0 0.04,0.01 0.01,0 0.01,0 0.01,0 0,0 0,0 -0.01,0 -0.01,0 -0.02,-0.01 -0.04,0 -0.02,0 -0.03,0.01 -0.05,0.02 -0.02,0.01 -0.03,0.03 -0.03,0.05 -0.01,0.01 -0.02,0.02 -0.02,0.03 0,0 -0.01,0.01 -0.01,0.01 0,0 0,0 -0.01,0.01 0,0 -0.01,0 -0.01,0.01 -0.02,0.01 -0.04,0.01 -0.06,0.01 0,0 0,0 0,-0.01 0,0 0,-0.01 0,-0.01 0,-0.01 0,-0.01 0,-0.01l0 0zm-0.43 -1.65c-0.04,-0.1 -0.07,-0.16 -0.07,-0.16 0,0 0.04,0.06 0.09,0.15 0.02,0.05 0.05,0.1 0.08,0.16 0.02,0.07 0.04,0.13 0.06,0.2 0.01,0.04 0.01,0.08 0.02,0.11 0,0.04 0,0.07 0,0.1 0.01,0.07 0.02,0.13 0.03,0.18 0.01,0.05 0.02,0.1 0.03,0.13 0,0.03 0.01,0.04 0.01,0.04 0,0 -0.01,-0.01 -0.02,-0.04 -0.01,-0.03 -0.03,-0.07 -0.04,-0.12 -0.01,-0.06 -0.02,-0.12 -0.03,-0.18 0,-0.04 -0.01,-0.07 -0.01,-0.11 0,-0.03 -0.01,-0.06 -0.02,-0.1 -0.01,-0.07 -0.03,-0.13 -0.06,-0.2 -0.02,-0.06 -0.04,-0.12 -0.07,-0.16l0 0zm-0.09 -0.93c0.02,0.01 0.05,0.02 0.08,0.03 0.02,0.01 0.04,0.02 0.07,0.04 0.02,0.01 0.03,0.03 0.05,0.05 0.01,0.01 0.02,0.03 0.03,0.04 0,0.01 0.01,0.01 0.01,0.01 0,0 -0.01,0 -0.02,-0.01 -0.01,-0.01 -0.02,-0.02 -0.03,-0.03 -0.03,-0.03 -0.08,-0.05 -0.13,-0.08 -0.04,-0.02 -0.09,-0.03 -0.13,-0.04 -0.02,0 -0.04,0 -0.05,0 -0.01,-0.01 -0.02,-0.01 -0.02,-0.01 0,0 0.01,0 0.02,0 0.01,0 0.03,0 0.05,0 0.02,0 0.04,0 0.07,0zm-0.06 -0.08c0,0 0.03,0 0.06,0.01 0.03,0.01 0.07,0.02 0.11,0.05 0.04,0.02 0.07,0.05 0.09,0.08 0.02,0.03 0.03,0.05 0.03,0.05 0,0 0,-0.01 -0.01,-0.01 0,-0.01 -0.01,-0.02 -0.03,-0.03 -0.01,-0.01 -0.02,-0.02 -0.04,-0.04 -0.01,-0.01 -0.03,-0.02 -0.05,-0.04 -0.02,-0.01 -0.04,-0.02 -0.06,-0.03 -0.01,-0.01 -0.03,-0.02 -0.05,-0.02 -0.03,-0.02 -0.05,-0.02 -0.05,-0.02l0 0zm0.45 -1.33c0,-0.01 -0.01,-0.01 -0.01,-0.01 0,0 0.01,0 0.02,0.01 0,0.01 0.01,0.03 0.01,0.06 0,0.01 -0.01,0.02 -0.02,0.03 0,0.01 -0.02,0.02 -0.03,0.03 -0.02,0.01 -0.03,0.01 -0.05,0.01 -0.02,0 -0.03,-0.01 -0.05,-0.02 -0.03,-0.01 -0.05,-0.03 -0.07,-0.05 -0.02,-0.02 -0.04,-0.04 -0.05,-0.06 -0.02,-0.01 -0.03,-0.02 -0.04,-0.03 -0.02,-0.01 -0.02,-0.01 -0.02,-0.01 0,0 0.01,0 0.02,0 0.01,0.01 0.03,0.02 0.05,0.03 0.02,0.01 0.04,0.03 0.06,0.05 0.02,0.02 0.04,0.04 0.06,0.05 0.02,0 0.03,0.01 0.04,0.01 0.01,0 0.03,0 0.04,0 0.01,-0.01 0.02,-0.01 0.03,-0.02 0.01,-0.01 0.01,-0.02 0.01,-0.03 0.01,-0.02 0.01,-0.04 0,-0.05l0 0zm0.06 0.8c-0.11,0.01 -0.22,0.02 -0.33,0.01 0,-0.15 0,-0.3 -0.01,-0.45l0.38 0c0.01,0.14 -0.05,0.29 -0.04,0.44zm-0.55 -0.88c0,0 0,0 -0.01,-0.01 -0.01,0 -0.02,-0.01 -0.03,-0.01 -0.02,-0.01 -0.05,-0.02 -0.08,-0.03 -0.03,-0.01 -0.06,-0.02 -0.08,-0.03 -0.02,0 -0.03,0 -0.03,0 -0.01,0 -0.01,0 -0.01,0 0,0 0.01,-0.01 0.04,-0.01 0.02,-0.01 0.06,0 0.09,0.01 0.03,0.01 0.06,0.03 0.08,0.05 0.02,0.01 0.03,0.03 0.03,0.03zm-0.32 -0.14c0,0 0,-0.01 -0.01,-0.02 0,-0.01 -0.01,-0.03 -0.03,-0.04 -0.02,-0.04 -0.06,-0.09 -0.1,-0.13 -0.04,-0.04 -0.09,-0.07 -0.12,-0.09 -0.02,-0.01 -0.04,-0.02 -0.05,-0.03 -0.01,-0.01 -0.02,-0.01 -0.02,-0.01 0,0 0.01,0 0.02,0 0.01,0.01 0.03,0.01 0.05,0.02 0.02,0.01 0.05,0.02 0.07,0.04 0.03,0.01 0.05,0.03 0.07,0.05 0.02,0.02 0.04,0.05 0.06,0.07 0.02,0.02 0.03,0.05 0.04,0.07 0.01,0.02 0.01,0.04 0.02,0.05 0,0.01 0,0.02 0,0.02l0 0zm1.05 0.4c0,0 -0.01,0.01 -0.01,0.01 0,0.01 0,0.02 0,0.03 -0.01,-0.01 -0.01,-0.02 -0.01,-0.04 -0.01,-0.04 -0.02,-0.1 -0.05,-0.15 -0.01,-0.03 -0.04,-0.05 -0.06,-0.06 -0.02,-0.02 -0.05,-0.03 -0.07,-0.03 -0.02,-0.01 -0.04,0 -0.05,0 -0.02,0.01 -0.02,0.01 -0.02,0.01 0,0 0,0 0,0 0,0 0.01,-0.01 0.01,-0.01 0.02,-0.01 0.04,-0.01 0.06,-0.01 0.02,0 0.05,0.01 0.08,0.02 0.02,0.02 0.05,0.04 0.07,0.07 0.02,0.02 0.03,0.05 0.04,0.08 0.01,0.03 0.02,0.05 0.02,0.08 0,0 0,0 0,0 0,0 0,0 -0.01,0zm-0.07 1.99c-0.01,0 -0.01,0 -0.02,0 -0.04,-0.02 -0.08,-0.02 -0.08,-0.02 0,0.03 0.01,0.05 0.01,0.07 0.01,0.04 0.01,0.07 0.01,0.09 0,0.02 0.01,0.03 0.01,0.03 0,0 -0.02,-0.05 -0.03,-0.11 -0.01,-0.04 -0.02,-0.07 -0.03,-0.11 -0.02,-0.05 -0.03,-0.09 -0.04,-0.13 -0.02,-0.05 -0.03,-0.09 -0.04,-0.13 -0.02,-0.04 -0.03,-0.08 -0.04,-0.11 -0.03,-0.06 -0.04,-0.11 -0.04,-0.11 0,0 0,0.01 0.01,0.03 0.01,0.02 0.03,0.04 0.04,0.08 0.02,0.03 0.03,0.06 0.05,0.1 0.01,0.04 0.03,0.09 0.04,0.13 0.02,0.04 0.03,0.09 0.04,0.13 0,0.01 0.01,0.03 0.01,0.04 0,0 0.04,-0.01 0.09,0 0,0 0,0 0.01,0 0,0.01 0,0.01 0,0.02l0 0zm-0.96 0.23c-0.01,0 -0.01,0 -0.01,0 -0.02,0.01 -0.04,0.02 -0.05,0.03 -0.02,0.01 -0.03,0.02 -0.04,0.04 -0.02,0.03 -0.02,0.08 -0.02,0.11 0.01,0.03 0.01,0.05 0.01,0.05 0,0 -0.01,-0.02 -0.01,-0.05 -0.01,-0.03 -0.02,-0.08 0,-0.12 0.01,-0.02 0.03,-0.04 0.04,-0.05 0.02,-0.02 0.04,-0.03 0.05,-0.03 0,0 0,-0.01 0,-0.01 0,0 0.01,0 0.01,0.01 0,0 0.01,0.01 0.02,0.02l0 0zm0.33 -0.37c0.01,-0.02 0.02,-0.03 0.04,-0.05 0.03,-0.02 0.06,-0.04 0.09,-0.05 0.01,-0.01 0.03,-0.02 0.04,-0.02 0.02,-0.01 0.03,-0.01 0.05,-0.02 0.03,0 0.06,0 0.08,0.01 0.03,0 0.05,0 0.06,0.01 0.02,0 0.02,0 0.02,0 0,0 0,0 -0.02,0 -0.01,0 -0.03,0 -0.06,0 -0.02,0 -0.05,0 -0.08,0.01 -0.01,0 -0.02,0.01 -0.03,0.01 -0.02,0.01 -0.03,0.02 -0.04,0.03 -0.03,0.02 -0.05,0.04 -0.07,0.06 -0.02,0.02 -0.03,0.04 -0.04,0.06 0,0.01 -0.01,0.02 -0.01,0.02 -0.01,-0.02 -0.02,-0.05 -0.03,-0.07l0 0zm-1.72 -3.39c0,0.02 0.02,0.03 0.03,0.04 0.02,0.02 0.05,0.04 0.08,0.05l0.01 0c0.01,0.01 0.02,0.01 0.04,0.02 0,0.01 0.01,0.02 0.02,0.03l0.01 0.01c0.03,0.04 0.06,0.08 0.1,0.1 0.01,0.01 0.02,0.02 0.04,0.03 0.01,0.01 0.03,0.02 0.05,0.03 0.01,0.01 0.02,0.02 0.02,0.04 0.12,0.23 0.26,0.4 0.43,0.56l0.03 0.02c0.03,0.03 0.05,0.05 0.08,0.08 0.04,0.04 0.08,0.1 0.11,0.16 0.01,0.02 0.02,0.04 0.02,0.05 0.02,0.04 0.03,0.07 0.05,0.11 0.03,0.04 0.07,0.08 0.11,0.11l0.02 0.02c0.01,0.01 0.02,0.02 0.04,0.03 0.02,0.01 0.05,0.03 0.06,0.06 0.01,0.01 0.01,0.03 0.02,0.05 0,0.02 0,0.03 0,0.05 0.01,0.06 0.02,0.13 0.05,0.2 0.01,0.02 0.02,0.05 0.04,0.07 0,0.01 0.01,0.02 0.01,0.03 0,0.01 0.01,0.01 0.01,0.02 0.01,0.01 0.01,0.03 0.02,0.05 0.01,0.04 0.02,0.09 0.03,0.14 0,0.02 0,0.05 0.01,0.08 0,0.02 0.01,0.04 0.01,0.06 0.01,0.03 0.02,0.06 0.02,0.1 0.01,0.09 -0.02,0.19 -0.04,0.28 -0.01,0 -0.01,0.01 -0.01,0.01 -0.03,0.18 0.01,0.31 0.06,0.47 0.03,0.09 0.07,0.18 0.11,0.27 0.01,0.02 0.03,0.05 0.04,0.07 0.02,0.04 0.04,0.09 0.06,0.13l0.09 0.17c-0.12,0.01 -0.23,0.01 -0.33,-0.01 -0.03,0 -0.08,-0.01 -0.12,-0.04 0,-0.01 -0.01,-0.01 -0.01,-0.02 -0.01,0 -0.02,-0.01 -0.03,-0.02 0,0 0,0 0,0 0,-0.01 -0.01,-0.02 -0.02,-0.02l-0.01 -0.02c-0.05,-0.05 -0.12,-0.12 -0.19,-0.09 -0.05,0.02 -0.08,0.08 -0.09,0.14 0,0.04 0,0.07 0,0.1 0,0.02 0,0.04 0,0.07 0,0.04 -0.01,0.08 -0.02,0.11 -0.01,0.05 -0.02,0.1 -0.02,0.16 0,0.03 0.01,0.08 0.05,0.11 0.02,0.02 0.04,0.02 0.06,0.02 0.05,-0.01 0.07,-0.07 0.09,-0.11l0 -0.01c0.03,-0.08 0.09,-0.16 0.18,-0.16 0.04,0 0.08,0.01 0.12,0.03l0.43 0.17c0.01,0.21 0.09,0.41 0.18,0.6 0.06,0.14 0.12,0.28 0.15,0.43 0,0.01 0.01,0.02 0,0.03 0,0 0,0.01 -0.01,0.01 0,0.01 -0.01,0.01 -0.01,0.02 -0.01,0.01 -0.01,0.02 -0.01,0.03 0,0.01 0,0.02 0,0.03 0,0 0,0.01 0,0.01 0,0 0,0 0,0.01 0,0.01 0,0.04 -0.01,0.06 0,0.02 -0.01,0.04 -0.01,0.06 0,0.08 0.06,0.09 0.11,0.09 0.01,0 0.02,0 0.03,0.01 0.1,0.02 0.2,0.03 0.3,0.03 0.08,0 0.15,-0.01 0.23,-0.04 0.03,-0.01 0.05,-0.03 0.04,-0.06 0,-0.01 -0.01,-0.01 -0.01,-0.02 -0.04,-0.04 -0.09,-0.07 -0.14,-0.09 -0.04,-0.02 -0.08,-0.04 -0.11,-0.07 -0.03,-0.03 -0.05,-0.06 -0.07,-0.09 -0.01,-0.02 -0.03,-0.04 -0.04,-0.06 -0.01,-0.01 -0.02,-0.03 -0.04,-0.04 -0.03,-0.04 -0.07,-0.08 -0.07,-0.13 0,-0.01 -0.01,-0.01 -0.01,-0.02 -0.02,-0.1 -0.04,-0.21 -0.07,-0.32 -0.02,-0.12 -0.05,-0.24 -0.07,-0.36 -0.01,-0.06 -0.02,-0.13 -0.02,-0.19 0,-0.02 0,-0.05 0,-0.07 0.01,-0.03 0.01,-0.06 0.01,-0.09 0,-0.01 0,-0.03 0,-0.05 -0.01,-0.02 -0.01,-0.05 -0.01,-0.07 0.01,-0.04 0.02,-0.08 0.03,-0.13 0.01,-0.02 0.02,-0.04 0.02,-0.06 0.01,-0.04 0.02,-0.08 0.02,-0.12 0.01,-0.01 0.01,-0.02 0.01,-0.03 0,-0.04 0,-0.08 0,-0.12 0,-0.06 0.01,-0.12 0.01,-0.17 0.01,-0.11 0.01,-0.21 0.01,-0.31 -0.01,-0.07 -0.02,-0.13 -0.03,-0.19 -0.01,-0.09 -0.03,-0.18 -0.02,-0.27 0.01,-0.09 0.03,-0.17 0.04,-0.26 0.01,-0.06 0.03,-0.12 0.03,-0.19 0.01,-0.07 0.01,-0.15 0.01,-0.22 0,-0.06 0,-0.12 0,-0.18 0,-0.01 0,-0.01 0,-0.02 0,-0.01 0.01,-0.01 0.01,-0.02 0.06,-0.01 0.13,-0.06 0.17,-0.12 0.02,-0.02 0.03,-0.04 0.04,-0.06 0.02,-0.03 0.04,-0.05 0.06,-0.08 0.02,-0.02 0.05,-0.04 0.07,-0.05 0.03,-0.02 0.06,-0.04 0.08,-0.06 0.04,-0.04 0.06,-0.08 0.09,-0.13l0.01 -0.02c0.03,-0.06 0.05,-0.09 0.05,-0.11 0.03,0 0.05,-0.01 0.07,-0.02 0,-0.01 0.01,-0.01 0.01,-0.01 0.01,-0.01 0.01,-0.01 0.01,-0.01 0,0 0.01,0 0.01,0 0,0 0.01,0 0.01,0 0.02,0 0.04,-0.01 0.06,-0.02 0.01,0 0.02,0 0.03,-0.02 0.02,-0.02 0.01,-0.03 0.01,-0.04 -0.02,-0.02 -0.04,-0.02 -0.06,-0.02l-0.01 0.01c-0.03,0 -0.04,0 -0.05,0 0,0 0,0 0.01,0 0.02,-0.01 0.03,-0.02 0.04,-0.04 0.01,-0.02 0.01,-0.03 0,-0.05 0,-0.01 -0.01,-0.02 -0.02,-0.02 -0.03,-0.01 -0.05,0.01 -0.06,0.03 -0.02,0.01 -0.03,0.02 -0.04,0.03 0,-0.01 0.01,-0.03 0.01,-0.04 0.01,-0.02 0.01,-0.03 0.01,-0.03 0.01,-0.03 0,-0.05 -0.02,-0.06 -0.01,-0.01 -0.03,0 -0.04,0.01 -0.01,0.01 -0.02,0.02 -0.02,0.03l-0.01 0.04c0,-0.01 0,-0.02 0,-0.03 0,-0.01 0,-0.03 -0.01,-0.04 0,-0.03 -0.02,-0.05 -0.04,-0.05 -0.01,0 -0.03,0.01 -0.04,0.05 0,0 0,0.01 0,0.01 0,0.01 -0.01,0.02 -0.01,0.04 0,0 0.01,0.01 0.01,0.01 0,0 -0.01,0 -0.01,0 -0.02,-0.01 -0.05,-0.03 -0.08,-0.02 0,0 -0.02,0.01 -0.02,0.03 0,0.03 0.02,0.04 0.03,0.05 0,0 0.01,0.01 0.01,0.01 0,0 0,0 0,0.01 0,0.03 0.02,0.05 0.04,0.06 0,0 0,0 0,0 0.01,0 0.01,0.01 0.01,0.01 -0.02,0.05 -0.08,0.08 -0.13,0.11 -0.02,0 -0.03,0.01 -0.04,0.01 -0.09,0.05 -0.17,0.11 -0.23,0.19l0 0c-0.02,0.02 -0.03,0.04 -0.05,0.05 -0.02,0 -0.04,0 -0.06,-0.01 -0.01,0 -0.02,0 -0.03,-0.01 -0.07,-0.01 -0.16,0.03 -0.2,0.09 -0.02,-0.03 -0.03,-0.06 -0.02,-0.08 0,-0.01 0.01,-0.02 0.02,-0.03 0.01,-0.02 0.02,-0.03 0.03,-0.05 0.01,-0.03 0,-0.06 -0.01,-0.09 0,-0.02 -0.02,-0.05 -0.03,-0.08 0,0 0,-0.01 -0.01,-0.02 -0.01,-0.01 -0.01,-0.02 -0.01,-0.03l0 -0.01c0,-0.01 0.01,-0.03 -0.01,-0.05 -0.02,-0.01 -0.03,-0.02 -0.04,-0.02 -0.01,0 -0.02,0 -0.02,0 -0.01,-0.01 -0.01,-0.01 -0.01,-0.02l-0.01 0c-0.02,-0.03 -0.05,-0.04 -0.09,-0.04 -0.03,-0.01 -0.06,-0.01 -0.09,0 -0.07,0.01 -0.13,0.06 -0.18,0.11 -0.02,0.01 -0.04,0.03 -0.05,0.06 -0.01,0.02 -0.01,0.03 -0.01,0.05 -0.01,0.05 0,0.11 0.03,0.16 -0.05,-0.02 -0.1,-0.03 -0.15,-0.04 -0.02,0 -0.03,-0.02 -0.04,-0.04 0,0 -0.01,-0.01 -0.01,-0.01 -0.07,-0.11 -0.19,-0.24 -0.36,-0.31l-0.01 -0.02c-0.05,-0.06 -0.1,-0.12 -0.15,-0.18 -0.05,-0.05 -0.1,-0.09 -0.15,-0.13 -0.08,-0.07 -0.16,-0.14 -0.22,-0.22 -0.01,-0.01 0,-0.03 0.02,-0.05 0.01,-0.02 0.03,-0.03 0.03,-0.05 0.01,-0.02 0.01,-0.04 0.01,-0.06 0,-0.03 0,-0.05 0.02,-0.06 0,-0.01 0,-0.01 0.01,-0.01 0.01,-0.01 0.02,-0.02 0.02,-0.03 0.01,-0.01 0.01,-0.03 0,-0.04 -0.01,-0.02 -0.04,-0.03 -0.06,-0.03 -0.06,0.01 -0.1,0.06 -0.11,0.11 -0.02,0 -0.04,-0.02 -0.04,-0.04 -0.01,-0.02 -0.01,-0.05 -0.01,-0.07l0 -0.01c0,-0.04 -0.01,-0.07 -0.03,-0.1 -0.01,-0.02 -0.04,-0.04 -0.06,-0.03 -0.02,0 -0.04,0.02 -0.03,0.07l0.02 0.1c0,0 0,0 0,0.01 0,0 0,0 0,0l-0.04 -0.1c-0.01,-0.01 -0.02,-0.03 -0.03,-0.05 -0.01,-0.01 -0.03,-0.02 -0.06,-0.02 -0.01,0 -0.02,0.01 -0.03,0.02 -0.02,0.04 0,0.07 0.02,0.1l0 0c0.01,0.02 0.02,0.04 0.02,0.06l-0.04 -0.05c-0.01,-0.01 -0.03,-0.02 -0.05,-0.03 -0.01,0 -0.03,0 -0.04,0.01 -0.01,0 -0.02,0.01 -0.02,0.02 0,0.02 0,0.03 0.02,0.05 0.01,0.02 0.02,0.03 0.04,0.04 0,0.01 0.01,0.01 0.01,0.01 0.01,0.01 0.02,0.02 0.03,0.03 0,0 0,0 0,0 -0.01,0 -0.01,0 -0.02,0 0,-0.01 -0.01,-0.01 -0.01,-0.01 -0.01,-0.01 -0.03,-0.02 -0.04,-0.03 -0.02,0 -0.04,0 -0.06,0.01 -0.01,0.01 -0.01,0.03 -0.01,0.04l0 0z"></path>
   </g>
  </g>
 </g>
</svg>
