<?xml version="1.0" encoding="UTF-8"?>
<!-- Creator: CorelDRAW 2021 (64-Bit) -->
<svg xmlns="http://www.w3.org/2000/svg" xmlns:xlink="http://www.w3.org/1999/xlink" xmlns:xodm="http://www.corel.com/coreldraw/odm/2003" xml:space="preserve" width="192px" height="192px" version="1.1" style="shape-rendering:geometricPrecision; text-rendering:geometricPrecision; image-rendering:optimizeQuality; fill-rule:evenodd; clip-rule:evenodd" viewBox="0 0 7.57 7.57">
 <defs>
  <style type="text/css">
   <![CDATA[
    .fil0 {fill:#E9EAEE}
    .fil1 {fill:#394691;fill-rule:nonzero}
   ]]>
  </style>
 </defs>
 <g id="Layer_x0020_1">
  <metadata id="CorelCorpID_0Corel-Layer"></metadata>
  <g id="_2682767057040">
   <rect class="fil0" width="7.57" height="7.57" rx="0.64" ry="0.64"></rect>
   <g>
    <path class="fil1" d="M4.6 2.88l0.06 0.1 -0.04 0.04 -0.09 0.07c0,0 0,0.01 -0.01,0.01l-0.16 0.2 -0.05 0.07 -0.02 -0.07 -0.06 -0.15 -0.01 -0.01c-0.01,0 -0.02,0 -0.02,0l-0.19 -0.04 0 -0.01 0.03 -0.12 0.01 -0.06c0,-0.03 0.01,-0.06 0.01,-0.08 0.01,-0.02 0.01,-0.03 0.01,-0.05l0.02 -0.13 0.13 -0.03c0.02,0 0.03,0 0.05,-0.01 0.01,0 0.02,0 0.02,0l0.01 0 0.05 -0.01 0.46 -0.1 -0.2 0.27 -0.03 0.04 -0.02 0.02c0,0 0,0 0.01,0l0.02 0.05 0.01 0 0 0z"></path>
    <path class="fil1" d="M4.29 2.95c0.01,0 0.02,0 0.02,0 0.01,0 0.02,0 0.03,0 0.01,0 0.02,0.01 0.02,0.01 0,0.01 0.01,0.01 0.01,0.02 0.01,-0.01 0.02,-0.03 0.03,-0.04 0,0 0,0 0,-0.01 -0.01,0 -0.02,-0.01 -0.03,-0.02 -0.02,0 -0.03,0 -0.05,0 0,0 -0.01,0 -0.02,0 0,0 -0.01,0 -0.02,0.01 0.01,-0.03 0.01,-0.05 0.02,-0.07 0,0 0,0 0.01,0 0,-0.02 0.01,-0.04 0.03,-0.05 -0.03,0 -0.05,0.01 -0.08,0.01 0,0.05 -0.01,0.1 -0.02,0.14 0.01,0 0.02,0 0.03,0 0.01,0 0.01,0 0.02,0l0 0z"></path>
    <path class="fil1" d="M4.62 3.01c0,0 0,0 0,0.01 0,0.04 -0.01,0.07 -0.03,0.11 -0.01,0.04 -0.04,0.08 -0.07,0.11l0 0c-0.04,0.03 -0.08,0.05 -0.13,0.06 -0.01,0 -0.02,0 -0.03,0 -0.01,0 -0.01,0 -0.02,0 -0.02,0 -0.04,0 -0.05,0 -0.01,0 -0.02,0 -0.02,0 -0.02,-0.01 -0.04,-0.01 -0.06,-0.02 -0.02,-0.01 -0.03,-0.02 -0.05,-0.03 -0.01,0 -0.03,-0.01 -0.04,-0.02l0 0c-0.01,-0.01 -0.02,-0.02 -0.03,-0.03l-0.11 -0.1 -0.03 -0.04 0.09 -0.09 0.04 -0.05c0.01,0 0.01,-0.01 0.01,-0.01 0.04,-0.04 0.1,-0.07 0.16,-0.07 0,0 0,0 0.01,0l0.01 -0.01c0.01,0 0.02,-0.01 0.02,-0.01 0.01,0 0.02,-0.01 0.02,-0.01l0.23 -0.14 0.04 0.14 0.01 0.07 0 0 0.02 0.05c0,0.02 0.01,0.05 0.01,0.08l0 0z"></path>
    <path class="fil1" d="M4.26 3.09c0.01,0 0.02,0 0.02,0.01 0.01,0 0.02,0 0.03,0.01 0.02,0 0.03,0 0.04,0 0.02,-0.01 0.03,-0.01 0.04,-0.02 0.01,-0.01 0.02,-0.02 0.02,-0.03 0.01,-0.02 0.01,-0.03 0.01,-0.05 0,-0.01 0,-0.03 0,-0.04 -0.02,0.01 -0.03,0.02 -0.05,0.03 0,0 0.01,0 0.01,0.01 0,0.01 -0.01,0.02 -0.01,0.03 0,0 -0.01,0.01 -0.01,0.02 -0.01,0 -0.01,0.01 -0.02,0.01 -0.01,0 -0.02,0 -0.03,0 -0.01,0 -0.01,-0.01 -0.02,-0.01 -0.01,0 -0.01,-0.01 -0.02,-0.01 0,0 -0.01,0 -0.01,-0.01 0,0 -0.01,0 -0.01,0 -0.01,0 -0.01,0 -0.01,0 -0.01,0.01 -0.01,0.01 -0.02,0.02 0.01,0 0.01,0.01 0.02,0.01 0.01,0.01 0.01,0.01 0.02,0.02z"></path>
    <path class="fil1" d="M4.61 2.55l0 0.26c0,0.02 -0.01,0.04 -0.01,0.07 0,0 -0.01,0 -0.01,0 0,0.02 -0.02,0.05 -0.03,0.07 -0.04,0.04 -0.09,0.07 -0.15,0.08 -0.01,0 -0.02,0 -0.03,0l-0.02 0.01 -0.35 0.05 -0.03 0.01 -0.24 0.03 0.32 -0.3 0.14 -0.13c0.02,-0.02 0.04,-0.04 0.07,-0.06l0.03 -0.03 0.01 -0.01 0.04 0 0.01 -0.01c0,0 0,0 0,0 0,0 0.01,0 0.01,0l0.24 -0.04 0 0z"></path>
    <path class="fil1" d="M4.38 2.83c0.01,0 0.02,0 0.02,-0.01 0.01,0 0.01,-0.01 0.01,-0.01l0 -0.03c0,0 -0.01,0.01 -0.02,0.01 -0.02,0.01 -0.04,0.03 -0.06,0.05 0.02,0 0.04,0 0.05,-0.01l0 0z"></path>
    <path class="fil1" d="M3.67 2.97c-0.01,-0.01 -0.01,-0.03 -0.02,-0.04 0.01,-0.02 0.03,-0.05 0.05,-0.07 0.04,-0.08 0.1,-0.18 0.14,-0.28 0.02,-0.06 0.04,-0.11 0.06,-0.16 0.01,-0.05 0.03,-0.1 0.04,-0.15 0,-0.04 0,-0.08 -0.01,-0.1 -0.01,-0.02 -0.03,-0.03 -0.03,-0.03 0,0 0.02,0.01 0.03,0.03 0.01,0.02 0.02,0.06 0.01,0.1 0,0.05 -0.02,0.1 -0.03,0.15 -0.01,0.05 -0.03,0.11 -0.05,0.16 -0.04,0.11 -0.09,0.22 -0.13,0.29 -0.02,0.04 -0.04,0.07 -0.06,0.1 0,0 0,0 0,0l0 0zm0.9 3.85c0,0 0,0 0,0 0.02,0 0.04,0 0.06,-0.01 0,0 0.01,0 0.01,0 0,0 0.01,-0.01 0.01,-0.01 0,0 0,0 0,0 0.01,-0.01 0.02,-0.02 0.02,-0.03 0.02,-0.02 0.03,-0.05 0.05,-0.06 0.03,-0.02 0.05,-0.02 0.07,-0.02 0.02,-0.01 0.03,0 0.05,0 0.01,0 0.01,0.01 0.01,0.01 0,0 0,-0.01 -0.02,-0.01 -0.01,0 -0.02,0 -0.04,0 -0.02,0.01 -0.04,0.01 -0.06,0.03 -0.01,0.01 -0.03,0.03 -0.04,0.06 0,0.01 -0.01,0.02 -0.02,0.03 0,0 0,0.01 0,0.01 -0.01,0 -0.01,0 -0.01,0.01 -0.01,0 -0.01,0.01 -0.02,0.01 -0.02,0.01 -0.04,0.02 -0.07,0.01 0,0 0,0 0,0 0,-0.01 0,-0.02 0,-0.02 0,-0.01 0,-0.01 0,-0.01l0 0zm-0.48 -1.88c-0.05,-0.1 -0.08,-0.18 -0.08,-0.18 0,0 0.04,0.07 0.1,0.18 0.03,0.05 0.06,0.11 0.09,0.18 0.02,0.07 0.05,0.15 0.07,0.23 0.01,0.04 0.01,0.08 0.02,0.12 0,0.04 0,0.08 0.01,0.12 0,0.07 0.01,0.14 0.02,0.2 0.01,0.06 0.02,0.11 0.03,0.14 0.01,0.04 0.02,0.05 0.02,0.05 0,0 -0.01,-0.01 -0.02,-0.05 -0.02,-0.03 -0.03,-0.08 -0.05,-0.14 -0.01,-0.05 -0.03,-0.12 -0.03,-0.2 -0.01,-0.04 -0.01,-0.08 -0.01,-0.12 -0.01,-0.03 -0.01,-0.07 -0.02,-0.11 -0.02,-0.08 -0.04,-0.16 -0.07,-0.23 -0.03,-0.07 -0.05,-0.13 -0.08,-0.19l0 0zm-0.11 -1.04c0.03,0 0.06,0.01 0.09,0.02 0.03,0.02 0.06,0.03 0.08,0.05 0.02,0.02 0.04,0.04 0.06,0.06 0.01,0.01 0.02,0.03 0.03,0.04 0.01,0.01 0.01,0.02 0.01,0.02 0,0 0,-0.01 -0.01,-0.02 -0.01,-0.01 -0.03,-0.02 -0.05,-0.03 -0.03,-0.03 -0.08,-0.06 -0.13,-0.09 -0.06,-0.02 -0.11,-0.04 -0.16,-0.04 -0.02,-0.01 -0.04,-0.01 -0.05,-0.01 -0.01,0 -0.02,0 -0.02,0 0,0 0,0 0.02,-0.01 0.01,0 0.03,0 0.05,0 0.03,0 0.05,0 0.08,0.01zm-0.06 -0.1c0,0 0.03,0 0.06,0.01 0.04,0.01 0.09,0.03 0.13,0.06 0.04,0.03 0.08,0.06 0.1,0.09 0.03,0.03 0.04,0.05 0.04,0.05 0,0 -0.01,0 -0.01,-0.01 -0.01,-0.01 -0.02,-0.02 -0.04,-0.03 -0.01,-0.01 -0.03,-0.03 -0.04,-0.04 -0.02,-0.02 -0.04,-0.03 -0.06,-0.04 -0.02,-0.02 -0.04,-0.03 -0.07,-0.04 -0.02,-0.01 -0.04,-0.02 -0.05,-0.03 -0.04,-0.01 -0.06,-0.02 -0.06,-0.02l0 0zm0.51 -1.5c-0.01,-0.02 -0.01,-0.02 -0.01,-0.02 0,0 0,0 0.01,0.01 0.01,0.02 0.02,0.04 0.02,0.07 0,0.01 -0.01,0.03 -0.02,0.04 -0.01,0.01 -0.02,0.02 -0.04,0.03 -0.02,0.01 -0.04,0.01 -0.06,0.01 -0.01,0 -0.03,-0.01 -0.05,-0.02 -0.03,-0.01 -0.06,-0.04 -0.08,-0.06 -0.02,-0.02 -0.04,-0.05 -0.06,-0.06 -0.02,-0.02 -0.04,-0.04 -0.05,-0.04 -0.01,-0.01 -0.02,-0.01 -0.02,-0.01 0,0 0.01,0 0.02,0 0.02,0.01 0.04,0.02 0.06,0.03 0.02,0.02 0.04,0.04 0.07,0.06 0.02,0.02 0.05,0.04 0.07,0.05 0.02,0.01 0.03,0.01 0.05,0.02 0.01,0 0.03,0 0.04,-0.01 0.01,0 0.02,-0.01 0.03,-0.02 0.01,-0.01 0.02,-0.02 0.02,-0.03 0.01,-0.02 0,-0.04 0,-0.05l0 0zm0.06 0.9c-0.12,0.01 -0.25,0.02 -0.37,0.02 0,-0.18 -0.01,-0.35 -0.01,-0.52l0.42 0c0.02,0.16 -0.05,0.33 -0.04,0.5zm-0.62 -1c0,0 0,0 -0.01,-0.01 -0.01,0 -0.02,-0.01 -0.03,-0.01 -0.03,-0.01 -0.06,-0.03 -0.09,-0.04 -0.04,-0.01 -0.07,-0.02 -0.1,-0.02 -0.01,-0.01 -0.03,-0.01 -0.03,-0.01 -0.01,0 -0.02,0 -0.02,0 0,0 0.02,-0.01 0.05,-0.01 0.03,-0.01 0.07,0 0.11,0.01 0.03,0.01 0.07,0.03 0.09,0.05 0.02,0.02 0.03,0.04 0.03,0.04zm-0.36 -0.16c0,0 -0.01,0 -0.01,-0.02 -0.01,-0.01 -0.02,-0.03 -0.03,-0.05 -0.03,-0.04 -0.07,-0.09 -0.12,-0.14 -0.05,-0.04 -0.1,-0.08 -0.14,-0.11 -0.02,-0.01 -0.04,-0.02 -0.06,-0.03 -0.01,-0.01 -0.02,-0.01 -0.02,-0.01 0,0 0.01,0 0.03,0.01 0.01,0 0.03,0 0.06,0.01 0.02,0.01 0.05,0.03 0.07,0.05 0.03,0.01 0.06,0.03 0.08,0.06 0.03,0.02 0.05,0.05 0.07,0.08 0.02,0.02 0.03,0.05 0.04,0.07 0.01,0.02 0.02,0.05 0.02,0.06 0.01,0.01 0.01,0.02 0.01,0.02l0 0zm1.19 0.46c0,0 -0.01,0 -0.01,0.01 0,0.01 -0.01,0.03 -0.01,0.04 0,-0.02 0,-0.03 0,-0.05 -0.01,-0.05 -0.02,-0.12 -0.06,-0.18 -0.02,-0.03 -0.04,-0.05 -0.07,-0.07 -0.03,-0.01 -0.05,-0.03 -0.08,-0.03 -0.02,0 -0.05,0 -0.06,0.01 -0.01,0 -0.02,0.01 -0.02,0.01 0,0 0,0 0,0 0,-0.01 0.01,-0.01 0.02,-0.02 0.01,0 0.03,-0.01 0.06,-0.01 0.03,0 0.06,0.01 0.09,0.03 0.03,0.02 0.06,0.04 0.08,0.07 0.02,0.03 0.04,0.06 0.05,0.09 0.01,0.04 0.02,0.07 0.02,0.09 0,0 0,0 0,0 0,0 0,0 -0.01,0.01zm-0.08 2.26c-0.01,0 -0.02,-0.01 -0.02,-0.01 -0.04,-0.02 -0.09,-0.02 -0.1,-0.02 0.01,0.03 0.02,0.06 0.02,0.09 0.01,0.04 0.01,0.07 0.01,0.09 0,0.02 0,0.04 0,0.04 0,0 -0.01,-0.05 -0.03,-0.13 -0.01,-0.04 -0.02,-0.08 -0.03,-0.13 -0.02,-0.04 -0.03,-0.09 -0.05,-0.14 -0.01,-0.05 -0.03,-0.1 -0.04,-0.14 -0.02,-0.05 -0.03,-0.09 -0.05,-0.13 -0.03,-0.07 -0.04,-0.12 -0.04,-0.12 0,0 0,0.01 0.01,0.03 0.02,0.02 0.03,0.05 0.05,0.08 0.02,0.04 0.03,0.08 0.05,0.13 0.02,0.04 0.04,0.09 0.05,0.14 0.02,0.05 0.03,0.1 0.04,0.15 0.01,0.01 0.01,0.03 0.01,0.04 0.01,0 0.05,-0.01 0.1,0 0.01,0 0.01,0 0.02,0 0,0.01 0,0.02 0,0.03l0 0zm-1.09 0.25c-0.01,0.01 -0.01,0.01 -0.02,0.01 -0.01,0.01 -0.03,0.02 -0.05,0.03 -0.02,0.01 -0.03,0.02 -0.05,0.04 -0.02,0.04 -0.02,0.09 -0.02,0.13 0.01,0.03 0.02,0.06 0.02,0.06 0,0 -0.01,-0.03 -0.02,-0.06 -0.01,-0.04 -0.02,-0.09 0.01,-0.14 0.01,-0.02 0.02,-0.04 0.04,-0.06 0.02,-0.01 0.04,-0.02 0.05,-0.03 0.01,0 0.01,0 0.01,0 0,0 0,0 0,0 0.01,0.01 0.02,0.02 0.03,0.02l0 0zm0.37 -0.41c0.01,-0.02 0.03,-0.04 0.05,-0.06 0.03,-0.02 0.06,-0.05 0.1,-0.06 0.02,-0.01 0.03,-0.02 0.05,-0.02 0.02,-0.01 0.04,-0.02 0.05,-0.02 0.04,0 0.07,0 0.1,0.01 0.03,0 0.05,0 0.06,0.01 0.02,0 0.03,0 0.03,0 0,0 -0.01,0 -0.03,0 -0.01,0 -0.03,0 -0.06,0 -0.03,0 -0.06,0 -0.09,0.01 -0.02,0 -0.03,0.01 -0.05,0.02 -0.01,0.01 -0.03,0.02 -0.04,0.03 -0.03,0.02 -0.05,0.04 -0.07,0.06 -0.03,0.03 -0.04,0.05 -0.05,0.07 0,0.01 -0.01,0.02 -0.01,0.03 -0.01,-0.03 -0.03,-0.06 -0.04,-0.08l0 0zm-1.95 -3.85c0,0.02 0.02,0.04 0.03,0.05 0.03,0.02 0.06,0.04 0.1,0.05l0.01 0c0.01,0.01 0.03,0.02 0.04,0.03 0.01,0 0.02,0.02 0.03,0.03l0.01 0.01c0.03,0.04 0.06,0.08 0.11,0.12 0.01,0.01 0.03,0.01 0.04,0.02 0.02,0.02 0.04,0.03 0.06,0.04 0.01,0.02 0.02,0.03 0.03,0.04 0.14,0.26 0.29,0.46 0.48,0.64l0.04 0.03c0.03,0.02 0.06,0.05 0.09,0.08 0.05,0.06 0.09,0.12 0.13,0.19 0.01,0.02 0.01,0.04 0.02,0.06 0.02,0.04 0.04,0.08 0.06,0.11 0.03,0.06 0.08,0.09 0.12,0.13l0.02 0.02c0.01,0.01 0.03,0.02 0.04,0.04 0.03,0.02 0.06,0.04 0.07,0.06 0.01,0.02 0.02,0.05 0.02,0.07 0.01,0.02 0.01,0.03 0.01,0.05 0.01,0.08 0.02,0.15 0.05,0.22 0.02,0.03 0.03,0.06 0.04,0.09 0.01,0.01 0.02,0.03 0.02,0.04 0,0 0.01,0.01 0.01,0.01 0.01,0.02 0.02,0.04 0.02,0.06 0.02,0.05 0.03,0.1 0.03,0.16 0.01,0.03 0.01,0.06 0.02,0.09 0,0.02 0.01,0.04 0.01,0.07 0.01,0.04 0.02,0.07 0.03,0.11 0.01,0.11 -0.02,0.22 -0.05,0.32 -0.01,0 -0.01,0.01 -0.01,0.01 -0.03,0.2 0.01,0.36 0.07,0.54 0.03,0.1 0.07,0.2 0.12,0.3 0.02,0.03 0.03,0.06 0.04,0.08 0.03,0.05 0.05,0.1 0.08,0.15l0.1 0.19c-0.15,0.01 -0.26,0.01 -0.37,-0.01 -0.05,0 -0.1,-0.01 -0.14,-0.05 -0.01,0 -0.01,-0.01 -0.02,-0.01 -0.01,-0.01 -0.02,-0.02 -0.02,-0.03 -0.01,0 -0.01,0 -0.01,0 0,-0.01 -0.01,-0.02 -0.02,-0.03l-0.01 -0.01c-0.06,-0.06 -0.14,-0.14 -0.22,-0.11 -0.05,0.03 -0.09,0.09 -0.1,0.17 -0.01,0.03 -0.01,0.07 0,0.1 0,0.03 0,0.05 0,0.08 -0.01,0.04 -0.02,0.09 -0.03,0.13 -0.01,0.06 -0.02,0.12 -0.02,0.18 0,0.04 0.02,0.1 0.06,0.13 0.02,0.01 0.04,0.02 0.07,0.02 0.06,-0.01 0.08,-0.08 0.1,-0.13l0 -0.01c0.03,-0.09 0.1,-0.18 0.2,-0.18 0.05,0 0.09,0.02 0.13,0.03l0.5 0.2c0.01,0.24 0.1,0.46 0.2,0.68 0.07,0.15 0.14,0.32 0.17,0.49 0.01,0.01 0.01,0.02 0.01,0.03 -0.01,0.01 -0.01,0.01 -0.02,0.01 0,0.01 -0.01,0.02 -0.01,0.02 -0.01,0.01 -0.01,0.03 -0.01,0.04 0,0.01 0,0.02 0,0.03 0,0.01 0,0.01 0,0.01 0,0.01 0,0.01 0,0.01 0,0.02 0,0.05 -0.01,0.07 -0.01,0.02 -0.01,0.04 -0.01,0.07 -0.01,0.09 0.06,0.1 0.12,0.11 0.01,0 0.02,0 0.04,0 0.11,0.02 0.22,0.04 0.33,0.04 0.09,0 0.18,-0.01 0.26,-0.04 0.04,-0.02 0.06,-0.04 0.05,-0.07 0,-0.01 -0.01,-0.02 -0.01,-0.03 -0.05,-0.05 -0.1,-0.07 -0.16,-0.1 -0.04,-0.03 -0.09,-0.05 -0.12,-0.08 -0.03,-0.03 -0.06,-0.06 -0.08,-0.1 -0.02,-0.02 -0.03,-0.05 -0.05,-0.07 -0.01,-0.01 -0.03,-0.03 -0.04,-0.04 -0.04,-0.05 -0.08,-0.1 -0.09,-0.16 0,0 0,-0.01 0,-0.01 -0.03,-0.12 -0.05,-0.25 -0.08,-0.37 -0.03,-0.13 -0.06,-0.27 -0.08,-0.41 -0.01,-0.07 -0.03,-0.14 -0.03,-0.21 0,-0.03 0.01,-0.06 0.01,-0.08 0,-0.03 0,-0.07 0,-0.1 0,-0.02 0,-0.04 0,-0.06 0,-0.03 0,-0.05 0,-0.08 0,-0.05 0.02,-0.1 0.03,-0.14 0.01,-0.03 0.02,-0.05 0.02,-0.07 0.02,-0.05 0.02,-0.09 0.03,-0.14 0,-0.01 0,-0.03 0,-0.04 0,-0.04 0.01,-0.09 0.01,-0.13 0,-0.07 0,-0.13 0.01,-0.2 0,-0.11 0.01,-0.23 0.01,-0.35 -0.01,-0.07 -0.02,-0.14 -0.03,-0.21 -0.02,-0.11 -0.04,-0.2 -0.03,-0.31 0.01,-0.1 0.03,-0.19 0.05,-0.29 0.01,-0.07 0.03,-0.15 0.04,-0.22 0.01,-0.08 0,-0.17 0,-0.25 0,-0.07 0,-0.13 0,-0.2 0,-0.01 0.01,-0.02 0.01,-0.03 0,0 0,-0.01 0,-0.02 0.07,-0.02 0.15,-0.07 0.2,-0.14 0.02,-0.02 0.03,-0.04 0.04,-0.06 0.02,-0.04 0.04,-0.06 0.07,-0.09 0.02,-0.02 0.05,-0.04 0.08,-0.06 0.03,-0.02 0.07,-0.05 0.1,-0.07 0.04,-0.04 0.06,-0.09 0.09,-0.14l0.01 -0.03c0.04,-0.07 0.06,-0.1 0.07,-0.12 0.02,0 0.05,-0.01 0.07,-0.03 0,0 0.01,-0.01 0.01,-0.01 0.01,-0.01 0.01,-0.01 0.02,-0.01 0,0 0,0 0.01,0 0,0 0,0 0,0 0.03,0 0.05,-0.01 0.07,-0.02 0.01,0 0.03,-0.01 0.04,-0.02 0.02,-0.02 0.01,-0.04 0,-0.05 -0.01,-0.02 -0.04,-0.02 -0.06,-0.02l-0.01 0c-0.03,0.01 -0.05,0.01 -0.06,0.01 0,0 0.01,0 0.01,0 0.02,-0.02 0.04,-0.03 0.05,-0.05 0.01,-0.01 0.01,-0.03 0,-0.05 0,-0.01 -0.01,-0.02 -0.03,-0.03 -0.03,0 -0.05,0.02 -0.06,0.03 -0.02,0.02 -0.04,0.03 -0.05,0.04 0,-0.01 0.01,-0.04 0.02,-0.05 0,-0.01 0.01,-0.02 0.01,-0.03 0.01,-0.03 0,-0.05 -0.02,-0.06 -0.02,-0.01 -0.04,-0.01 -0.06,0.01 -0.01,0.01 -0.01,0.02 -0.02,0.03l-0.01 0.04c0,-0.01 0,-0.02 0,-0.03 0,-0.02 0,-0.03 0,-0.04 -0.01,-0.04 -0.03,-0.06 -0.06,-0.06 -0.01,0 -0.03,0.01 -0.04,0.05 0,0.01 0,0.01 0,0.02 0,0.01 -0.01,0.02 -0.01,0.04 0,0.01 0.01,0.01 0.01,0.02 0,0 -0.01,0 -0.01,-0.01 -0.03,-0.01 -0.06,-0.03 -0.09,-0.02 -0.01,0 -0.02,0.01 -0.02,0.04 -0.01,0.02 0.02,0.04 0.03,0.05 0,0 0.01,0.01 0.01,0.01 0,0 0,0.01 0,0.01 0.01,0.04 0.02,0.06 0.04,0.07 0.01,0 0.01,0 0.01,0 0.01,0 0.01,0.01 0.01,0.01 -0.02,0.06 -0.1,0.1 -0.15,0.12 -0.02,0.01 -0.03,0.02 -0.04,0.02 -0.1,0.05 -0.19,0.13 -0.26,0.22l-0.01 0c-0.02,0.02 -0.03,0.04 -0.05,0.05 -0.02,0.01 -0.05,0 -0.07,-0.01 -0.01,0 -0.02,0 -0.03,-0.01 -0.08,-0.01 -0.18,0.03 -0.23,0.1 -0.02,-0.03 -0.04,-0.06 -0.03,-0.09 0.01,-0.01 0.02,-0.02 0.03,-0.04 0.01,-0.01 0.03,-0.03 0.03,-0.05 0.01,-0.04 0,-0.07 0,-0.1 -0.01,-0.03 -0.03,-0.06 -0.04,-0.09 0,-0.01 -0.01,-0.01 -0.01,-0.02 -0.01,-0.02 -0.02,-0.03 -0.02,-0.04l0.01 -0.01c0,-0.02 0,-0.04 -0.02,-0.06 -0.01,-0.01 -0.03,-0.02 -0.05,-0.02 0,0 -0.01,0 -0.02,0 0,-0.01 -0.01,-0.01 -0.01,-0.02l-0.01 -0.01c-0.02,-0.02 -0.06,-0.04 -0.1,-0.04 -0.03,-0.01 -0.06,-0.01 -0.1,0 -0.08,0.01 -0.15,0.07 -0.21,0.12 -0.02,0.02 -0.04,0.04 -0.06,0.07 0,0.02 -0.01,0.04 -0.01,0.06 0,0.06 0.01,0.12 0.04,0.18 -0.05,-0.02 -0.11,-0.04 -0.18,-0.04 -0.01,0 -0.02,-0.03 -0.04,-0.04 0,-0.01 0,-0.02 -0.01,-0.02 -0.07,-0.12 -0.21,-0.28 -0.41,-0.36l-0.01 -0.01c-0.05,-0.07 -0.11,-0.15 -0.17,-0.21 -0.05,-0.05 -0.11,-0.1 -0.17,-0.15 -0.09,-0.07 -0.18,-0.15 -0.25,-0.25 -0.01,-0.01 0.01,-0.03 0.03,-0.05 0.01,-0.02 0.02,-0.04 0.03,-0.06 0.01,-0.02 0.01,-0.05 0.01,-0.07 0,-0.03 0,-0.06 0.02,-0.07 0,0 0.01,-0.01 0.01,-0.01 0.01,0 0.03,-0.01 0.03,-0.03 0.01,-0.02 0,-0.03 -0.01,-0.05 -0.01,-0.01 -0.04,-0.03 -0.06,-0.03 -0.07,0.01 -0.11,0.07 -0.13,0.13 -0.02,-0.01 -0.04,-0.03 -0.04,-0.05 -0.01,-0.02 -0.01,-0.05 -0.02,-0.08l0 -0.01c0,-0.04 0,-0.08 -0.02,-0.12 -0.02,-0.02 -0.05,-0.04 -0.08,-0.03 -0.01,0.01 -0.04,0.03 -0.03,0.08l0.02 0.11c0,0.01 0,0.01 0,0.01 0,0 0,0 0,0l-0.04 -0.1c-0.01,-0.02 -0.02,-0.05 -0.04,-0.06 -0.01,-0.02 -0.04,-0.03 -0.06,-0.03 -0.01,0.01 -0.03,0.01 -0.04,0.03 -0.02,0.04 0.01,0.08 0.02,0.11l0.01 0c0.01,0.02 0.02,0.05 0.02,0.07l-0.05 -0.06c-0.01,-0.01 -0.03,-0.03 -0.05,-0.03 -0.02,-0.01 -0.03,0 -0.05,0 -0.01,0.01 -0.02,0.02 -0.02,0.03 0,0.02 0,0.04 0.01,0.06 0.02,0.02 0.04,0.03 0.05,0.04 0.01,0.01 0.01,0.01 0.02,0.02 0.01,0.01 0.02,0.02 0.03,0.03 0,0 0,0 0,0 -0.01,0 -0.01,0 -0.02,-0.01 0,0 -0.01,0 -0.01,-0.01 -0.02,-0.01 -0.03,-0.02 -0.05,-0.02 -0.02,-0.01 -0.05,0 -0.06,0.01 -0.01,0.01 -0.02,0.02 -0.02,0.04l0 0z"></path>
   </g>
  </g>
 </g>
</svg>
