<?xml version="1.0" encoding="UTF-8"?>
<!-- Creator: CorelDRAW 2021 (64-Bit) -->
<svg xmlns="http://www.w3.org/2000/svg" xmlns:xlink="http://www.w3.org/1999/xlink" xmlns:xodm="http://www.corel.com/coreldraw/odm/2003" xml:space="preserve" width="44525px" height="10078px" version="1.1" style="shape-rendering:geometricPrecision; text-rendering:geometricPrecision; image-rendering:optimizeQuality; fill-rule:evenodd; clip-rule:evenodd" viewBox="0 0 13717.06 3104.82">
 <defs>
  <style type="text/css">
   <![CDATA[
    .fil0 {fill:black}
    .fil1 {fill:#71C6A5}
   ]]>
  </style>
 </defs>
 <g id="Layer_x0020_1">
  <metadata id="CorelCorpID_0Corel-Layer"></metadata>
  <g id="_2793925645488">
   <path class="fil0" d="M2587.41 1832.33c-0.36,0.09 -0.9,-0.09 -1.08,0.36 -0.18,0.45 -0.81,0.36 -1.08,0.45 -5.68,1.9 -13.53,2.08 -19.94,3.25 -5.77,1.17 -13.8,3.25 -20.21,5.05 -13.08,3.61 -26.7,8.12 -38.88,12.99 -46.1,18.41 -88.14,46.82 -120.25,84.62 -4.15,4.88 -7.31,9.21 -11.37,13.99l-23.37 27.33c-1.44,1.81 -1.08,1.63 -2.7,3.7l-103.12 122.6c-32.75,40.96 -59.45,73.8 -105.37,100.59 -20.75,12.09 -48.98,22.82 -77.58,25.89 -13.08,1.45 -295.91,0 -306.01,0l-1131.56 0c-30.67,0 -52.32,-0.09 -80.11,-9.29 -3.15,-1.08 -7.03,-2.16 -10.37,-3.52 -19.94,-7.85 -38.79,-19.76 -55.66,-32.84 -21.75,-16.78 -39.34,-39.6 -53.68,-63.15 -31.85,-52.59 -27.43,-113.03 -8.12,-166.89 5.23,-14.62 12.27,-29.5 20.39,-42.76l66.85 -87.78c1.17,-1.45 1.62,-1.9 2.79,-3.52l544.72 -672.01c13.08,-16.69 27.24,-31.39 42.22,-46.28 3.42,-3.42 3.52,-4.15 6.49,-7.75 2.08,-2.53 3.97,-3.79 6.5,-5.78 7.12,-5.41 13.08,-12.54 19.3,-18.94 10.56,-10.65 29.95,-26.35 41.68,-35.55l14.08 -11.36c9.92,-8.12 19.66,-14.35 29.86,-22.02 12.18,-9.11 25.71,-16.96 38.25,-25.17l24.54 -14.7c21.47,-12.99 45.64,-23.64 68.29,-34.37l55.39 -21.84c32.3,-11.45 66.67,-21.29 100.95,-28.23 20.48,-4.15 44.75,-8.48 65.77,-9.93 6.58,-0.45 19.48,-1.26 24.89,-2.07 28.78,-4.33 72.27,3.07 101.86,-0.9 25.35,-3.34 72.35,-0.9 101.49,-0.9 17.77,0 31.66,-1.27 49.44,-1.27l204.24 -1.26c17.59,0 32.21,-1.26 50.79,-1.26l77.4 0c10.29,0 16.15,-1.36 25.26,-1.27 102.85,0.36 203.62,-2.52 305.83,-2.52l152.19 -1.27c18.68,0 32.84,-1.26 50.79,-1.26 21.47,0 86.25,1.9 102.58,-0.54 41.86,-6.32 103.29,12.36 164.64,-28.87 1.71,-1.26 2.16,-1.53 3.7,-2.71l4.33 -3.42 -7.85 -13.99c-15.7,-26.07 -30.13,-53.13 -47.18,-78.39 -4.24,-6.32 -8.12,-12.09 -12.18,-18.23 -3.88,-5.95 -8.21,-11.72 -11.91,-17.32l-12.54 -17.77c-23.37,-31.03 -45.56,-63.33 -71.09,-92.56l-13.26 -15.88c-1.53,-1.62 -2.17,-1.98 -3.7,-3.88l-31.12 -35.99c-2.89,-2.89 -5.06,-4.78 -7.49,-7.94l-21.11 -23.19c-12.81,-12.63 -33.11,-36.62 -44.66,-45.46 -11.73,-9.12 -31.75,-31.76 -45.47,-43.31l-48.17 -41.86c-10.1,-9.74 -21.47,-18.31 -32.75,-27.06 -6.04,-4.78 -10.1,-8.3 -16.33,-12.9 -3.24,-2.44 -5.41,-4.42 -8.48,-6.68l-59.27 -43.48c-5.95,-4.51 -11.91,-8.12 -17.95,-12.54 -5.59,-4.06 -12,-8.03 -17.5,-11.73 -36.09,-24.08 -73.89,-46.19 -111.87,-67.12l-9.74 -5.5c-3.88,-1.98 -6.23,-3.07 -9.83,-5.23 -16.15,-9.93 -62.07,-32.12 -80.11,-39.43l-51.34 -22.28c-3.51,-1.44 -7.48,-2.98 -10.82,-4.33l-120.89 -42.85c-27.51,-8.93 -54.4,-15.7 -82.63,-22.83 -29.05,-7.3 -55.94,-11.9 -85.53,-18.49 -3.34,-0.81 -9.38,-1.44 -13.08,-2.16 -40.05,-8.12 -116.38,-19.22 -158.96,-19.13 -96.07,0 -201.9,-2.89 -291.66,6.13 -9.11,0.91 -18.4,0.64 -27.15,1.99 -26.17,3.79 -53.95,5.77 -79.93,10.1 -58.01,9.75 -116.11,19.76 -172.85,35.01l-81.2 22.82c-4.06,1.17 -7.85,2.44 -11.45,3.7 -58.01,19.58 -93.1,31.03 -152.92,56.29 -27.33,11.55 -54.4,24.9 -81.01,38.16l-47.36 26.17c-3.16,1.71 -6.68,3.97 -9.47,5.68l-55.67 34.37c-30.67,18.5 -58.91,39.6 -87.41,60.9 -6.41,4.78 -11.19,8.84 -17.24,13.26 -21.29,15.97 -40.59,33.74 -61.16,50.34l-19.49 17.23c-2.97,2.79 -5.41,4.06 -8.3,6.94l-60.89 58.37c-2.8,2.8 -4.15,5.33 -6.86,8.3l-42.58 44.93c-20.21,21.83 -49.62,57.83 -67.66,81.91l-37.71 51.16c-4.69,6.31 -7.94,11.81 -12.45,17.86 -4.42,5.86 -7.58,11.18 -11.73,17.41 -4.42,6.59 -7.76,12.36 -11.91,18.49 -4.05,6.05 -7.57,11.91 -11.45,17.78l-49.53 84.98c-1.98,3.25 -3.61,6.4 -5.32,9.74 -6.23,12.9 -13.71,26.16 -20.3,39.33 -6.68,13.45 -12.45,26.26 -19.4,40.24l-11.54 25.08c-1.09,2.62 -1.36,3.07 -2.44,5.32 -18.04,37.08 -32.48,78.04 -46.73,116.83 -14.71,40.33 -28.15,82.37 -39.33,124.04l-36.18 157.7c-5.41,34.64 -12.18,69.82 -14.34,104.74l-2.53 27.96c-1.98,37.8 -7.22,135.96 -2.71,174.12 1.09,9.2 -0.09,19.75 1.09,28.14l1.62 28.51c0.09,19.94 9.11,88.32 12,107.63 5.14,35.54 10.64,68.92 18.22,101.13 14.53,62.52 30.49,125.3 52.42,185.03l42.22 106.18c1.8,4.51 2.97,6.31 4.69,10.55l18.85 40.87c15.07,29.95 29.23,59.45 46.19,88.41 16.42,27.97 32.48,56.02 50.25,83.09 1.99,3.07 4.06,6.04 6.05,9.11 4.33,6.41 7.75,11.55 12.17,18.22 2.26,3.34 3.61,5.6 5.69,8.39 2.25,3.07 4.24,5.78 6.31,8.84l38.07 52.06c4.42,5.59 8.66,10.91 12.9,16.33l54.85 64.5c4.7,5.32 10.11,10.19 15.25,15.25l13.98 15.24c5.15,5.14 10.65,9.74 14.89,15.34l115.11 108.35c3.25,2.97 4.87,3.78 8.21,6.94 10.02,9.57 22.01,18.41 32.75,26.8l67.93 51.33c25.62,19.03 52.96,35.72 79.66,53.4l18.77 11.64c2.88,1.72 6.31,3.79 9.56,5.69l28.05 16.32c1.72,1.09 3.16,1.72 4.88,2.71l62.6 33.74c46.83,23.46 95,44.66 143.72,64.23l32.11 12.18c3.07,1 2.71,0.81 5.78,1.99 2.52,0.9 3.15,1.26 5.41,2.16l44.66 14.89c46.55,13.98 92.28,28.42 140.1,38.52l61.34 12.36c24.09,5.68 67.21,11 91.3,13.71 9.47,1.08 17.14,1.81 26.25,2.89 4.78,0.54 8.03,1.08 13.9,1.17 6.76,0 7.93,1.08 13.89,1.26 19.39,0.54 35.99,2.62 57.1,2.53 9.57,0 18.41,1.98 28.06,1.17 9.29,-0.72 17.95,-1.17 29.05,-1.17 75.15,0 147.95,-5.86 220.75,-18.13 33.74,-5.69 67.39,-11.01 100.41,-18.95 39.7,-9.47 78.85,-18.76 117.91,-30.58l45.38 -14.35c3.97,-1.26 7.85,-2.61 11.37,-3.78 2.43,-0.73 3.52,-1.09 5.77,-1.9l101.76 -39.15c1.36,-0.54 4.24,-1.72 5.42,-2.17 2.97,-1.26 2.43,-1.17 5.23,-2.34 1.98,-0.9 3.16,-1.17 5.5,-2.26l20.03 -9.02c2.71,-1.08 3.07,-1.35 5.32,-2.43l31.31 -14.35c19.12,-9.56 40.59,-19.03 59.27,-29.68 6.31,-3.61 12.81,-6.49 19.84,-10.64l23.64 -13.18c1.62,-0.99 3.16,-1.89 4.69,-2.79l9.74 -5.51c25.54,-13.8 49.53,-28.68 73.35,-44.65 5.41,-3.61 11.64,-8.03 17.59,-11.55 6.5,-3.79 11.46,-7.85 18.22,-12.36 44.12,-29.32 78.04,-57.65 118.73,-89.31 5.86,-4.6 10.46,-9.65 16.14,-14.34 21.57,-17.96 41.68,-38.17 61.53,-57.92l57.38 -62.07c11.45,-14.61 32.56,-36.9 47.63,-56.38 2.35,-2.98 4.15,-5.06 6.68,-8.48 2.16,-2.89 3.97,-5.06 6.22,-7.76l19.76 -25.98c8.75,-11.64 17.23,-23.1 24.9,-34.74 17.59,-26.52 36.53,-53.13 52.86,-80.38 1.81,-3.06 3.52,-6.04 5.78,-9.38 13.35,-19.94 32.29,-54.13 43.21,-76.23 3.52,-7.13 6.31,-13.44 10.37,-20.03 16.15,-26.34 55.31,-118.54 69.11,-154.35 18.31,-47.46 35.09,-96.53 48.8,-145.52 2.26,-8.03 4.42,-15.25 6.41,-22.82l6.31 -24.09c2.08,-8.21 4.06,-14.89 6.05,-23.19 2.16,-9.02 3.52,-16.32 5.59,-24.81l8.03 -36.53c3.61,-19.85 9.29,-42.31 12.09,-62.79l8.03 -51.6c4.24,-35.37 10.55,-70.01 12.45,-105.73l5.14 -68.48c0.27,-4.96 -0.27,-10.28 0,-15.24l2.53 -116.83 -2.62 -71.99c-2.16,-25.17 -3.88,-70.64 -9.56,-94.28 -1.54,-6.4 -7.04,-16.23 -9.93,-19.84 -8.93,-11.28 -21.11,-19.22 -36.89,-23.28 -12.72,-3.16 -157.88,-1.17 -178.27,-1.17 -198.74,0 -397.48,0 -596.22,0 -30.05,0 -53.86,2.52 -82.19,6.4l-71.81 17.87 -84.53 34.46 -57.47 31.3c-3.15,1.9 -6.76,3.88 -9.56,5.69 -29.95,18.76 -59.18,39.6 -87.15,61.07 -3.42,2.62 -5.59,3.88 -8.57,6.59 -5.32,4.78 -10.91,9.2 -16.6,13.8 -47,38.16 -194.77,189.99 -240.24,235.46 -17.95,17.95 -105.19,101.4 -117,121.16 -15.52,25.89 -14.26,60.71 11.36,80.02 16.15,12.18 31.13,10.37 55.84,10.37l1014.91 0 0 0z"></path>
   <path class="fil0" d="M6253.72 1398.4l-0.72 -2.44c-0.36,-1.98 -0.45,-1.62 -0.54,-3.78 -1.35,-17.42 0,-80.57 0,-99.06l-190.26 0 0 846.21 199.19 0 0 -333.7c0,-36.63 -1.17,-75.15 -0.09,-111.6 0.54,-17.68 5.41,-56.83 9.2,-72.8 3.34,-13.71 8.03,-29.05 13.71,-41.86l13.99 -27.7c1.62,-2.61 3.97,-6.04 5.5,-8.39l11.91 -15.78c4.69,-5.06 7.76,-9.03 12.63,-13.99 2.71,-2.7 4.42,-3.88 7.49,-6.4 3.24,-2.62 3.7,-3.7 7.39,-6.5 15.97,-12.36 33.47,-23.54 53.14,-30.04 14.25,-4.69 28.78,-9.2 44.11,-11.37 34.02,-4.69 69.38,-3.24 101.13,4.69 8.03,1.99 13.9,4.15 21.02,7.04 54.04,21.65 84.17,64.78 99.69,122.15l4.78 23.01c4.51,25.98 4.15,52.32 4.15,79.2 0,147.96 -0.36,296 0,444.04l199.2 0c-0.09,-148.4 0.54,-296.99 -0.09,-445.39 0,-7.31 0.99,-16.6 1.98,-24.18 3.43,-24.08 6.41,-47.81 13.71,-69.82 5.69,-16.87 12.9,-32.57 21.83,-47.63l30.05 -38.17c2.61,-2.61 4.69,-3.87 7.57,-6.31l23.37 -18.31c23.73,-15.97 52.14,-26.89 80.74,-30.14 24.63,-2.7 54.94,-4.78 77.68,-0.18 22.73,4.6 43.3,9.39 63.33,20.84 54.21,30.95 73.88,79.48 85.16,136.23 0.81,3.7 1.44,8.84 1.71,12.09 2.17,22.91 2.71,42.67 2.71,66.93 0,147.96 -0.36,296 0,444.04l199.1 0 0 -492.21c0,-32.03 -4.24,-85.97 -12.81,-117.28 -4.78,-17.59 -8.12,-33.2 -14.7,-49.89 -8.39,-21.2 -17.78,-41.32 -30.59,-60.44 -3.51,-5.32 -6.76,-10.1 -10.37,-14.89 -1.62,-2.25 -3.52,-4.96 -5.41,-7.21 -13.99,-15.79 -29.23,-30.77 -45.74,-44.39 -28.69,-23.73 -66.76,-41.14 -103.48,-53.04 -21.11,-6.95 -43.3,-10.83 -65.58,-13.45 -41.77,-4.78 -99.42,-6.04 -144.17,3.34 -3.15,0.63 -6.22,1.44 -10.64,2.17 -3.07,0.54 -7.58,1.44 -10.38,2.07 -20.38,4.87 -40.32,11.01 -59.72,18.77l-43.66 20.74c-19.67,11.1 -37.17,22.56 -54.67,36.45 -16.87,13.44 -39.24,34.19 -51.51,52.42 -4.33,-1.99 -17.87,-23.55 -22.11,-28.78 -26.88,-33.2 -62.7,-59 -101.4,-77.77l-56.38 -20.02c-84.17,-22.83 -192.7,-13.27 -264.51,16.41l-33.83 16.69c-24.81,13.63 -68.11,45.11 -83.81,69.38l0 0z"></path>
   <path class="fil0" d="M4878.59 1570.98l-195.41 0 0 346.33c-4.33,1.9 -8.03,4.15 -11.82,6.23l-24.08 11.72c-1.81,0.73 -3.88,1.72 -6.14,2.71 -1.98,0.81 -4.06,1.63 -6.22,2.62 -28.78,12.99 -66.4,23 -98.7,27.42 -5.23,0.72 -11,1.63 -15.51,2.17 -21.47,2.79 -45.02,4.24 -68.39,4.24 -47.18,0 -88.23,-7.58 -125.12,-17.77 -4.69,-1.36 -8.66,-2.71 -13.36,-4.33l-39.15 -15.25c-16.06,-6.77 -31.93,-15.88 -46.46,-25.62 -14.25,-9.56 -28.06,-18.59 -40.78,-30.04 -3.42,-3.07 -6.31,-4.87 -9.47,-8.21 -5.68,-5.69 -13.35,-11.82 -18.04,-17.68 -2.8,-3.61 -6.05,-6.23 -9.29,-9.57 -2.98,-3.06 -5.24,-6.22 -8.21,-9.65l-36.45 -52.6c-22.91,-42.49 -39.96,-85.52 -46.73,-133.96 -6.32,-45.11 -6.59,-88.95 -0.09,-134.06l9.29 -43.85c6.32,-22.01 14.44,-45.55 24.36,-65.4 8.21,-16.42 16.33,-30.76 25.8,-45.02 2.44,-3.61 4.51,-6.67 7.31,-10.46 7.58,-10.2 15.06,-21.2 24.08,-30.23 30.32,-30.49 61.71,-58.63 100.59,-77.94 66.58,-32.93 124.14,-47.36 204.25,-47.36 25.53,0 44.93,0.9 67.3,4.06 45.47,6.4 77.22,17.95 117.73,34.91 32.57,13.62 110.78,68.02 120.7,86.61 5.42,-1 5.69,-2.35 9.84,-6.59 7.76,-8.03 15.7,-16.87 24.45,-23.64l81.46 -79.75c3.07,-3.06 5.14,-5.23 8.21,-8.3 3.61,-3.51 6.13,-5.32 7.94,-9.83l-30.13 -30.76c-15.07,-15.25 -33.11,-30.04 -50.79,-42.04 -6.68,-4.6 -11.73,-8.3 -18.77,-12.99 -6.77,-4.42 -11.91,-7.49 -18.76,-11.64l-20.57 -11.28c-27.34,-15.69 -57.29,-27.33 -87.24,-37.35 -33.02,-11 -65.41,-19.75 -100.59,-24.17 -4.24,-0.45 -8.21,-1.81 -13.08,-2.17 -41.14,-3.61 -52.96,-6.49 -102.75,-6.49 -21.02,0 -41.23,-0.27 -60.72,1.35 -8.3,0.72 -18.4,1.71 -27.42,2.89 -34.92,4.42 -69.65,10.55 -103.75,20.29l-24.27 7.4c-3.43,1.08 -7.58,2.62 -11.09,3.97 -3.43,1.35 -7.67,2.62 -11.37,3.97 -22.46,8.75 -43.84,18.68 -65.5,29.5 -23.36,11.73 -45.73,25.44 -67.12,40.51 -2.43,1.71 -2.25,1.71 -4.33,3.24l-22.46 16.87c-1.89,1.45 -2.34,1.99 -4.15,3.43l-59.99 56.57c-3.07,3.33 -3.43,4.78 -6.95,8.3 -3.07,2.97 -4.78,5.59 -7.58,8.84l-20.11 25.35c-12.18,16.69 -24,33.65 -33.92,52.14 -1.54,2.71 -1.72,2.98 -2.89,4.87 -9.74,16.06 -17.77,34.56 -25.44,51.79 -1.63,3.51 -2.89,6.85 -4.42,10.73l-19.85 58.55c-15.25,54.85 -20.57,108.08 -20.57,165.45 0,55.49 8.93,111.33 23.82,164.46 21.47,76.78 57.46,135.06 102.48,192.34 11.28,14.44 24.18,27.79 37.62,41.23 5.77,5.77 9.2,9.47 15.7,14.61 11.55,9.21 21.74,19.58 33.65,28.42 14.79,11.1 29.68,22.37 45.56,31.67l50.25 28.32c6.67,3.34 13.98,6.32 20.74,9.75l22.11 9.47c17.95,7.22 37.98,14.43 57.37,19.85 29.59,8.39 58.91,14.79 89.95,18.94 14.16,1.9 26.52,3.79 41.22,4.15 6.14,0.18 8.67,1.35 15.07,1.35 19.94,0 41.5,2.8 62.43,1.18 42.76,-3.34 69.1,-4.51 112.77,-11.73 16.96,-2.8 35.45,-6.77 51.51,-10.83 8.39,-2.07 16.69,-4.24 24.18,-6.31 4.69,-1.35 6.85,-1.9 11.81,-3.34 4.97,-1.44 8.48,-2.89 12.54,-3.97l23.01 -7.67c37.8,-14.88 71.99,-27.6 107.26,-48.98 32.57,-19.58 38.25,-24.72 65.41,-43.76 5.5,-3.79 6.13,-2.7 6.31,-11.72 0.91,-62.07 -0.09,-124.41 -0.09,-186.57 0,-83.27 0,-166.62 0,-249.89l0.01 0z"></path>
   <path class="fil0" d="M8496.63 2011.13c-4.24,-2.25 -9.11,-9.47 -12.99,-13.62l-20.12 -23.09c-2.26,-2.8 -3.88,-4.6 -6.5,-7.31l-26.61 -30.58c-2.8,-3.25 -3.25,-4.15 -6.4,-7.49 -10.47,-11.1 -19.4,-23.91 -29.77,-34.91 -3.25,-3.52 -1.27,-1.81 -5.42,-3.52 -2.52,4.87 -7.4,7.67 -11.73,11.28l-42.31 32.65c-21.2,14.26 -44.65,23.64 -68.83,31.76 -17.86,5.95 -40.96,11.55 -60.98,13.17 -22.56,1.8 -48.54,5.14 -71.27,1.8l-84.08 -15.87c-17.32,-5.96 -34.65,-13.81 -50.16,-23.1 -15.25,-9.2 -30.49,-20.21 -43.58,-32.29 -24.08,-22.29 -43.03,-50.52 -55.12,-81.11l-6.67 -18.85c-2.62,-9.56 -6.5,-19.31 -7.67,-29.77 12.81,0 650.62,1.35 658.74,0.09 6.77,-1.08 3.16,2.07 5.6,-3.7 1.71,-4.06 1.17,-30.58 1.89,-36.54 4.51,-37.8 -2.52,-92.83 -8.75,-124.67 -1.62,-8.75 -3.79,-15.43 -5.5,-23.64 -2.89,-13.98 -7.4,-27.15 -12.36,-40.69l-6.32 -16.42c-1.53,-3.78 -2.79,-7.3 -4.42,-10.73 -12.81,-26.61 -26.43,-51.06 -43.48,-75.6 -2.07,-2.98 -3.79,-5.14 -5.95,-7.85l-13.81 -16.69c-2.34,-3.07 -4.24,-5.14 -7.12,-7.94l-14.53 -15.88c-10.28,-10.37 -28.87,-25.53 -40.68,-34.37 -3.25,-2.52 -5.33,-3.79 -9.03,-6.31l-18.22 -12.18c-32.21,-21.02 -66.04,-35.64 -105.01,-46.46 -24,-6.59 -49.62,-11.01 -74.52,-14.44 -8.66,-1.26 -18.04,-1.17 -28.59,-2.07 -17.33,-1.44 -40.51,-2.53 -57.29,-0.27 -9.56,1.26 -19.22,0.81 -28.78,1.8 -24.9,2.62 -51.78,7.49 -75.42,14.26 -36.62,10.55 -72.53,25.8 -105.19,45.37 -18.85,11.28 -35.54,23.73 -52.5,37.44 -11.37,9.3 -20.57,18.41 -30.86,28.6 -28.95,28.96 -60.26,73.44 -76.05,111.24l-22.73 59.63c-2.35,6.94 -4.78,17.23 -6.31,23.9 -1.9,8.57 -3.88,17.23 -5.24,25.17 -7.67,43.4 -9.56,95.99 -3.61,139.93 1.27,9.65 2.08,16.5 3.61,25.53 0.63,3.6 1.27,9.29 2.17,13.26l9.02 36.62c27.15,93.11 84.08,171.77 165.27,225.9 24.9,16.6 51.24,30.31 78.94,41.32 57.01,22.91 123.32,36.81 203.52,36.81 8.66,0 20.93,0.72 29.23,-0.18l27.97 -2.26c34.73,-2.07 67.84,-8.93 101.31,-18.4l45.2 -15.97c51.06,-20.21 88.32,-47.99 125.75,-85.25l10.83 -12c3.16,-3.7 1.44,-0.45 3.43,-5.5l0 -0.01zm-612.92 -365l478.86 0c-3.07,-40.96 -24.18,-87.33 -48.08,-117.64 -42.4,-53.86 -107.09,-87.69 -189.54,-87.69 -93.83,0 -175.74,46.55 -213.72,120.71 -11.73,22.82 -25.26,54.76 -27.52,84.62l0 0z"></path>
   <path class="fil0" d="M11427.15 1387.03c1.53,8.21 9.29,20.12 13.62,27.97l24.45 45.2c8.84,17.95 31.48,55.03 38.07,71.45 6.5,-1.27 3.52,-0.82 8.03,-4.52 24.18,-20.02 52.5,-34.64 81.55,-46.27 10.92,-4.34 23.19,-8.48 34.55,-12.18 1,-0.37 8.85,-2.62 8.85,-2.62 1.08,-0.27 8.75,-2.44 8.84,-2.44 3.7,-0.9 5.41,-1.26 9.2,-2.34 3.79,-1.08 4.96,-1.54 8.93,-2.26 27.97,-5.68 54.4,-9.74 83.72,-9.83 10.55,0 10.37,-1.44 20.66,-0.18 7.85,0.9 15.88,-0.45 23.63,0.54 12.63,1.53 28.51,2.98 40.15,5.68 60.89,14.35 108.98,43.58 129.37,105.37 9.29,28.06 10.64,46.92 10.64,83.9 -73.97,0 -147.95,0 -222.02,0 -53.76,0 -100.31,3.25 -149.93,15.79 -42.85,10.74 -87.78,28.42 -120.62,58.82l-14.34 13.26c-2.53,3.25 -3.07,4.24 -6.59,7.67l-12.63 15.07c-24.63,33.02 -43.12,76.5 -43.48,121.61 0,9.02 -2.17,16.05 -1.08,26.7 1.8,16.42 3.15,33.65 6.49,49.53 1.35,6.67 3.61,14.7 5.87,21.02 11.45,32.29 29.86,60.8 52.5,86.33 8.3,9.38 19.76,18.5 29.77,25.89 24.09,17.96 51.87,31.4 81.01,42.94 26.08,10.38 51.06,14.53 79.21,18.05 50.25,6.22 115.84,5.68 166.18,-7.13 43.75,-11.01 79.2,-25.98 114.57,-52.23 3.07,-2.26 4.24,-3.7 7.58,-6.32 5.41,-4.33 9.11,-8.21 14.52,-13.53 4.87,-4.78 9.02,-9.92 12.99,-15.07 1.81,-2.34 9.11,-14.07 11.46,-15.06l0 101.49 187.73 0 0 -507.46c0.09,-35.81 -6.13,-83.72 -15.24,-117.46 -4.51,-16.96 -10.65,-32.56 -17.23,-48.53 -13.44,-32.84 -35.01,-61.89 -59.81,-86.79 -15.16,-15.24 -41.86,-35.36 -61.62,-45.37l-26.25 -13.09c-3.07,-1.53 -6.14,-2.61 -9.93,-4.15 -26.7,-10.64 -54.49,-18.58 -82.99,-23.9 -20.12,-3.7 -49.98,-8.57 -72,-8.3 -9.74,0.09 -14.97,-1.36 -25.35,-1.27l-64.68 1.18c-33.2,0.99 -96.35,11.91 -127.11,19.57l-50.88 14.89c-0.99,0.36 -2.62,1.17 -4.51,1.89 -3.07,1.09 -2.71,0.91 -5.78,1.9 -37.44,12.45 -72.98,32.3 -105.55,53.95l-14.52 10.64 0 0zm543.09 388.19c-50.34,0 -100.68,0 -151.02,0 -73.98,0 -196.04,-7.21 -220.12,81.92 -12.72,47.45 7.03,91.03 33.29,111.23 33.28,25.71 62.51,32.93 114.48,36.09 45.65,2.8 90.84,-8.3 125.4,-25.17 43.39,-21.2 75.23,-52.33 93.37,-94.37 6.04,-14.07 4.6,-16.41 4.6,-33.55 0,-25.45 0,-50.8 0,-76.15l0 0z"></path>
   <path class="fil0" d="M5110.71 1387.03l29.59 54.94c10.19,19.85 39.87,77.32 49.07,90.94 5.33,-8.39 30.04,-22.64 39.7,-28.51l47.45 -23.36c3.07,-1.18 5.05,-1.81 8.39,-3.07 32.57,-12.81 68.2,-21.2 103.02,-25.89 14.62,-1.9 27.52,-2.8 43.76,-2.89 13.17,0 31.48,-1.35 44.38,0.36 12.36,1.53 28.51,2.98 40.06,5.68 18.4,4.34 36.36,9.39 52.59,17.6 15.34,7.75 29.05,17.59 41.5,29.95 9.84,9.83 17.96,21.2 24.81,33.2 18.77,32.65 21.2,67.21 21.2,108.52 -74.06,0 -148.04,0 -222.02,0 -42.49,0 -76.77,2.35 -115.29,8.75l-34.64 7.04c-14.26,3.52 -28.42,7.4 -42.58,13.08 -27.07,10.74 -49.8,22.38 -70.46,39.34 -22.01,18.13 -36.99,34.73 -52.68,58.64 -15.61,23.63 -25.63,51.96 -29.5,80.2 -8.67,63.42 0.45,126.12 36.89,178.44 31.13,44.66 73.98,74.88 125.04,95.36l42.13 13.44c31.03,7.76 64.23,11.91 97.97,11.91 50.25,0 100.14,-3.79 148.23,-19.76 50.33,-16.78 92.28,-44.3 122.87,-86.06 1.44,-1.9 3.88,-6.41 5.41,-7.04l0 101.49 187.83 0 0 -507.46c0,-9.74 -1.36,-15.6 -1.27,-25.44 0,-4.51 -0.63,-8.57 -0.99,-11.36l-8.12 -59.09c-0.54,-3.52 -1.53,-6.77 -2.25,-10.38 -0.91,-4.24 -1.63,-7.21 -2.8,-11 -23.19,-78.85 -58.82,-128.47 -121.88,-170.69 -2.53,-1.71 -5.05,-3.52 -7.76,-5.05 -3.16,-1.72 -5.95,-3.43 -8.84,-5.05 -34.73,-19.67 -77.31,-34.65 -119.08,-41.41 -8.75,-1.45 -14.53,-2.26 -23.19,-3.43 -6.94,-1.08 -15.15,-1.71 -23.72,-2.89 -33.47,-4.69 -82.1,-2.88 -115.3,-1.89 -24.08,0.72 -83.72,9.38 -105.28,14.7 -39.6,9.84 -73.07,18.41 -110.87,34.83l-61.71 31.93c-5.41,3.52 -10.1,6.86 -15.97,10.74 -4.05,2.61 -12.17,9.92 -15.69,10.64l0 0zm544.35 388.19c-50.34,0 -100.77,0 -151.11,0 -74.16,0 -196.13,-7.21 -220.12,81.83 -12.9,47.81 6.49,89.13 32.48,110.87 57.82,48.54 175.46,45.38 239.87,11.73 43.94,-23 75.42,-50.61 94.1,-94.91 6.13,-14.61 4.78,-16.05 4.78,-33.37 0,-25.44 0,-50.8 0,-76.15l0 0z"></path>
   <path class="fil0" d="M9679.07 2139.33l199.1 0c0,-12.72 -1.44,-215.43 0.09,-222.83 1.08,-4.96 11.55,-11.37 15.52,-15.43 10.46,-10.55 28.69,-29.23 40.23,-38.16 9.2,-7.03 15.79,-16.06 24.9,-23.36l48.99 -46.28c3.25,-2.98 13.35,-12.54 14.97,-15.52 8.39,3.43 14.26,15.16 19.94,21.74 6.5,7.58 12.09,14.71 18.22,22.38l238.08 294.82c6.04,7.39 13.44,13.89 18.04,22.64l225.81 0c3.97,0 8.03,0.63 11.55,-0.54 3.42,-1.17 1.26,0 3.69,-1.99 -5.59,-3.33 -23,-28.68 -29.5,-36.62l-66.39 -84.71c-29.41,-38.62 -61.53,-76.15 -90.67,-114.85 -1.98,-2.61 -3.61,-4.96 -5.95,-7.85l-114.66 -145.42c-19.13,-24.36 -62.97,-77.86 -78.49,-100.32 5.68,-3.79 16.24,-15.52 21.83,-21.2l242.32 -243.58c9.74,-9.65 79.66,-81.91 88.5,-87.87 -1.09,-0.45 -0.73,-0.54 -3.7,-0.99l-219.58 -0.27c-16.06,0 -15.34,-0.63 -23.73,7.94l-16.6 15.15c-2.8,2.89 -4.69,4.88 -7.49,7.67l-42.58 38.7c-2.8,2.62 -4.87,4.88 -7.58,7.58l-41.77 38.43c-3.15,2.35 -5.41,4.87 -8.39,7.94 -3.69,3.79 -5.23,4.96 -8.84,7.76 -11.27,8.93 -21.29,21.83 -32.56,30.85 -12.18,9.75 -22.02,21.47 -33.47,31.13l-99.51 92.02c-5.68,5.68 -10.65,9.29 -16.51,15.15 -5.77,5.87 -11.1,9.84 -17.14,15.88 -9.47,9.56 -62.25,55.84 -66.31,61.89 -0.09,-0.45 -0.27,-1.45 -0.36,-1.27l-0.9 -8.93c0,-3.79 0,-7.58 0,-11.36l0 -686.35 -199.1 0 0 1176.03 0 0z"></path>
   <path class="fil0" d="M8807.51 1904.59c-3.25,5.14 -6.32,12.09 -9.3,18.23l-9.74 18.13c-4.51,9.02 -52.86,109.61 -57.1,112.13 3.24,7.85 15.33,13.18 22.82,17.33 8.48,4.6 16.69,9.56 25.35,13.89 4.42,2.25 8.39,3.52 13.17,5.95 2.71,1.36 4.6,2.35 6.77,3.25l36.35 14.25c49.17,16.33 105.92,31.31 161.13,37.62 12.09,1.45 23.9,1.54 36.17,3.34 6.86,0.99 11.28,0.36 18.05,0.72l59.54 1.27c9.83,0.09 29.05,-1 37.44,-2.17l37.25 -3.43c33.56,-4.69 65.77,-11.63 97.35,-22.1 5.14,-1.71 9.29,-3.43 13.98,-5.14 34.19,-12.18 74.97,-35 100.95,-59.45 1.98,-1.81 3.07,-3.25 5.05,-4.96 2.53,-2.26 3.07,-2.17 5.77,-4.52 4.15,-3.69 4.88,-6.31 8.84,-10.19 4.25,-4.15 5.78,-6.31 9.48,-10.92 15.6,-18.94 28.69,-41.58 35.72,-65.04 1.54,-5.05 3.07,-11.01 4.33,-16.06l5.6 -34.01c4.06,-37.08 0.45,-78.58 -13.45,-113.4 -0.9,-2.25 -1.62,-4.42 -2.88,-7.22 -4.06,-9.2 -8.66,-17.59 -14.71,-25.62l-13.26 -15.87c-19.22,-24 -60.89,-50.61 -88.05,-62.07 -22.37,-9.38 -50.25,-17.59 -76.05,-23.19l-83.27 -16.96c-57.28,-9.65 -123.77,-19.57 -177.99,-41.13 -23.73,-9.57 -43.75,-24 -49.8,-50.71 -7.85,-35.36 8.21,-66.3 38.43,-84.16 36.09,-21.3 78.4,-28.33 121.79,-28.24l58.46 1.17c21.2,1.08 67.75,10.47 85.61,14.98l45.29 14.61c21.56,8.66 41.41,17.68 61.35,28.87 2.43,1.35 4.06,2.53 6.76,3.79 5.87,-12.81 12.09,-24.63 18.68,-37.71 12,-24 49.89,-94.09 57.46,-114.57 -1.89,-0.18 -9.65,-4.51 -12.17,-5.96 -3.16,-1.8 -2.62,-1.8 -6.41,-3.79 -2.8,-1.44 -4.33,-2.16 -6.77,-3.33l-27.51 -11.91c-29.41,-11.73 -60.26,-21.38 -91.57,-27.97 -6.31,-1.35 -10.37,-2.16 -16.69,-3.61 -6.22,-1.35 -11.82,-1.8 -17.41,-2.88l-24.72 -4.51c-14.34,-2.53 -29.95,-3.07 -45.56,-5.24 -14.88,-2.16 -58.55,-3.06 -75.96,-3.06 -55.03,0 -106.9,6.04 -157.51,20.83 -2.44,0.64 -4.69,1.54 -7.67,2.44 0,0 -7.13,1.99 -7.76,2.26 -32.11,11.9 -63.6,26.52 -91.65,46.19l-11.55 8.66c-2.35,1.89 -3.07,2.88 -5.42,4.78l-16.32 14.07c-12,11.55 -26.62,29.95 -35.19,44.3 -23,38.34 -32.2,77.58 -32.29,125.39 0,45.74 9.29,82.55 31.75,118.91 1.72,2.61 2.17,3.06 4.33,5.95 6.14,8.21 11.1,14.25 18.14,21.38 35.99,35.82 78.39,58.28 126.75,71.72 5.23,1.44 10.46,2.53 15.15,3.88 5.41,1.62 10.2,2.89 16.06,4.06 10.92,2.26 21.83,5.41 33.2,7.31l84.17 14.88c27.33,4.78 56.74,8.75 83.54,15.52 37.08,9.47 90.57,16.06 105.64,54.4 3.52,8.93 5.41,22.64 3.7,35.99 -2.98,22.47 -14.08,38.8 -29.59,50.16 -17.32,12.63 -35.91,18.23 -56.93,23.64 -36.81,9.38 -104.38,11.28 -148.49,5.68 -57.74,-7.3 -114.3,-20.3 -164.82,-42.76l-71.81 -38.07 0 0z"></path>
   <path class="fil0" d="M12515.67 1299.43l-139.56 0 0 158.6 139.56 0 0 681.3 197.93 0 0 -681.3 314.58 0 0 -158.6 -320.98 0c-0.09,-46.37 -4.51,-105.73 24.99,-145.15 4.51,-5.86 14.52,-16.24 20.93,-20.48 10.91,-7.22 15.61,-10.1 28.42,-14.34 7.3,-2.35 15.24,-4.15 23.63,-5.33 14.35,-1.98 39.88,-1.62 54.13,0.64 28.42,4.69 47.54,11.27 72.89,26.7 3.88,2.35 5.96,4.06 9.75,5.77l41.86 -112.13c4.33,-10.92 10.82,-26.62 13.98,-37.53 -53.05,-34.28 -107.36,-45.74 -173.84,-45.74 -79.21,0 -127.48,11.73 -178.81,39.78 -2.89,1.54 -5.32,2.98 -7.94,4.6 -24.45,16.24 -46.73,34.47 -64.41,58.19 -4.06,5.42 -7.76,10.38 -11.73,16.24 -14.16,21.11 -26.88,50.52 -33.74,74.88 -1.98,7.13 -3.34,14.88 -5.05,21.47 -1.08,4.06 -1.26,6.95 -2.07,11.82 -0.73,4.78 -1.54,7.21 -1.99,11.73 -3.25,39.96 -2.53,68.38 -2.53,108.88l0 0z"></path>
   <path class="fil0" d="M13717.06 2093.59l-55.85 -142.09c-25.98,16.87 -33.65,23.1 -69.01,30.86l-21.02 3.24c-23.45,2.53 -44.29,2.08 -66.49,-5.05 -24.81,-7.94 -42.31,-22.46 -54.76,-43.75 -12.9,-21.92 -17.05,-48.9 -17.05,-82.91 0,-131.98 0,-263.88 0,-395.86l227.16 0 -0.09 -158.6 -227.07 0 0 -194.05 -199.19 0c0,254.86 0.99,511.43 0,766.28 0,9.93 1.26,14.98 1.26,24 0,21.38 5.23,44.57 9.65,64.5l8.58 28.33c1.44,4.33 2.07,5.68 3.51,9.29l11.73 25.26c1.81,3.61 2.89,4.96 4.69,8.03 17.59,29.41 44.21,58.28 73.08,75.33 5.41,3.16 9.92,6.14 16.05,9.2 5.96,2.98 10.65,5.51 16.06,8.03 15.88,7.58 39.7,14.26 56.39,18.23 24.44,5.77 62.7,8.84 89.58,8.84 17.95,0 31.03,-1.18 47,-2.53 31.12,-2.62 80.29,-15.52 106.91,-29.68l23.99 -14.16c4.78,-3.34 9.47,-7.22 14.89,-10.74l0 0z"></path>
   <path class="fil1" d="M2535.45 23.26c-8.12,1.99 -14.89,0.27 -27.06,12.36 -7.67,7.58 -13.08,13.72 -15.88,25.53 -5.59,24.27 4.69,50.07 17.95,60.72l38.88 21.02c28.51,14.25 54.31,31.48 81.29,48.08 32.2,19.76 68.92,48.54 98.33,71.45l75.06 65.59c3.7,3.7 6.49,6.49 10.19,10.19l49.44 50.7c3.43,3.7 6.86,6.41 10.1,10.11 2.08,2.34 1.81,2.61 3.88,5.05l24 26.7c2.26,2.44 2.16,2.98 4.51,5.68l22.91 27.79c6.41,7.94 11.73,14.25 17.96,22.55 5.86,7.94 11.64,14.53 16.96,22.29 3.07,4.51 5.41,7.48 8.57,11.82l51.69 77.58c0.81,1.35 1.53,2.62 1.9,3.16l16.78 28.96c5.41,8.66 11.45,15.42 19.66,21.38 4.51,3.15 8.93,5.77 14.44,6.58 26.97,4.06 56.92,-8.84 62.79,-39.33 4.15,-21.29 1.98,-207.49 1.98,-238.26l0 -239.7c0,-23.27 1.98,-61.43 -2.16,-79.56 -11.91,-51.52 -79.84,-39.7 -122.16,-39.7l-482.01 1.26 0 0z"></path>
   <path class="fil0" d="M10924.84 1413.65l0 -120.53 -190.36 0 0 846.21 199.2 0 0 -364.11c0,-20.29 -0.27,-40.77 0,-60.98l5.59 -54.85c0.09,-0.36 1.08,-4.15 1.26,-4.96 0,-0.18 0.82,-4.87 1.09,-6.59 3.24,-17.32 9.74,-35.63 16.51,-51.69 13.35,-31.58 22.01,-37.35 38.97,-59.63 4.42,-5.78 10.19,-9.48 15.51,-14.71 24,-23.54 68.12,-41.77 101.95,-48.17 8.93,-1.72 17.86,-2.71 26.43,-3.97l56.74 -1.44c8.75,0.72 18.77,3.6 27.79,3.78l0 -188.99c-71.54,-0.19 -132.34,10.37 -182.32,32.47 -16.6,7.4 -36.81,18.14 -50.97,28.78l-15.79 12c-9.65,8.75 -19.4,16.6 -27.7,26.61l-20.66 26.16c-0.72,1.18 -0.9,1.45 -1.53,2.26l-1.17 1.53c-0.09,0.18 -0.36,0.55 -0.54,0.82l0 0z"></path>
  </g>
 </g>
</svg>
