<?xml version="1.0" encoding="UTF-8"?>
<!-- Creator: CorelDRAW 2021 (64-Bit) -->
<svg xmlns="http://www.w3.org/2000/svg" xmlns:xlink="http://www.w3.org/1999/xlink" xmlns:xodm="http://www.corel.com/coreldraw/odm/2003" xml:space="preserve" width="133px" height="96px" version="1.1" style="shape-rendering:geometricPrecision; text-rendering:geometricPrecision; image-rendering:optimizeQuality; fill-rule:evenodd; clip-rule:evenodd" viewBox="0 0 4.67 3.36">
 <defs>
  <style type="text/css">
   <![CDATA[
    .fil0 {fill:#1D1D1E;fill-rule:nonzero}
   ]]>
  </style>
 </defs>
 <g id="Layer_x0020_1">
  <metadata id="CorelCorpID_0Corel-Layer"></metadata>
  <path class="fil0" d="M4.38 2.77c0,0.16 -0.13,0.3 -0.29,0.3l-3.51 0c-0.16,0 -0.29,-0.14 -0.29,-0.3l0 -2.19c0,-0.16 0.13,-0.29 0.29,-0.29l3.51 0c0.16,0 0.29,0.13 0.29,0.29l0 2.19zm-0.29 -2.77l-3.51 0c-0.32,0 -0.58,0.26 -0.58,0.58l0 2.19c0,0.33 0.26,0.59 0.58,0.59l3.51 0c0.32,0 0.58,-0.26 0.58,-0.59l0 -2.19c0,-0.32 -0.26,-0.58 -0.58,-0.58z"></path>
  <path class="fil0" d="M3.85 0.76l-1.51 1.24 -1.52 -1.24c-0.06,-0.05 -0.15,-0.04 -0.2,0.02 -0.05,0.07 -0.04,0.16 0.02,0.21l1.6 1.31c0.03,0.02 0.06,0.04 0.1,0.04 0.03,0 0.06,-0.02 0.09,-0.04l1.6 -1.31c0.07,-0.05 0.08,-0.14 0.02,-0.21 -0.05,-0.06 -0.14,-0.07 -0.2,-0.02z"></path>
 </g>
</svg>
