<?xml version="1.0" encoding="UTF-8" standalone="no"?><!DOCTYPE svg PUBLIC "-//W3C//DTD SVG 1.1//EN" "http://www.w3.org/Graphics/SVG/1.1/DTD/svg11.dtd"><svg width="100%" height="100%" viewBox="0 0 2005 367" version="1.1" xmlns="http://www.w3.org/2000/svg" xmlns:xlink="http://www.w3.org/1999/xlink" xml:space="preserve" xmlns:serif="http://www.serif.com/" style="fill-rule:evenodd;clip-rule:evenodd;stroke-miterlimit:10;"><g transform="matrix(4.16667,0,0,4.16667,-230.956,-1011.38)"><text x="212.813px" y="300.495px" style="font-family:'ArialMT', 'Arial', sans-serif;font-size:44.135px;fill:#d32027;">5<tspan x="239.056px 265.299px 291.543px " y="300.495px 300.495px 300.495px ">300</tspan></text><g transform="matrix(25.7307,0,0,25.7307,332.813,285.797)"></g><text x="317.786px" y="285.797px" style="font-family:'ArialMT', 'Arial', sans-serif;font-size:25.731px;fill:#d32027;">+</text></g><g transform="matrix(4.16667,0,0,4.16667,-230.956,-1011.38)"><text x="53.339px" y="300.495px" style="font-family:'ArialMT', 'Arial', sans-serif;font-size:44.135px;fill:#d32027;">7</text><g transform="matrix(25.7307,0,0,25.7307,104.905,285.797)"></g><text x="81.398px" y="285.797px" style="font-family:'ArialMT', 'Arial', sans-serif;font-size:25.731px;fill:#d32027;">t<tspan x="90.595px " y="285.797px ">h</tspan></text></g><g transform="matrix(83.4346,0,0,83.4346,1168.97,342.255)"></g><text x="661.523px" y="342.255px" style="font-family:'ArialMT', 'Arial', sans-serif;font-size:83.435px;fill:#2b388f;">P<tspan x="723.676px 776.582px 810.869px 840.553px 865.593px 913.814px 938.854px 991.759px 1044.66px 1097.57px 1127.25px " y="342.255px 342.255px 342.255px 342.255px 342.255px 342.255px 342.255px 342.255px 342.255px 342.255px 342.255px ">articipants</tspan></text><g transform="matrix(83.4346,0,0,83.4346,294.59,342.255)"></g><text x="0.47px" y="342.255px" style="font-family:'ArialMT', 'Arial', sans-serif;font-size:83.435px;fill:#2b388f;">E<tspan x="62.622px 115.526px 140.564px 170.246px 195.284px 248.188px " y="342.255px 342.255px 342.255px 342.255px 342.255px 342.255px ">dition</tspan></text><g transform="matrix(54.1667,0,0,54.1667,792.786,60.7118)"></g><g transform="matrix(54.1667,0,0,54.1667,823.201,60.7118)"></g><text x="669.366px" y="60.712px" style="font-family:'ArialMT', 'Arial', sans-serif;font-size:54.167px;fill:#2b388f;">2<tspan x="700.221px 731.076px 761.931px " y="60.712px 60.712px 60.712px ">024</tspan></text><g transform="matrix(4.16667,0,0,4.16667,-230.956,-1011.38)"><text x="415.606px" y="303.356px" style="font-family:'ArialMT', 'Arial', sans-serif;font-size:44.135px;fill:#d32027;">7<tspan x="441.849px 468.093px 494.336px " y="303.356px 303.356px 303.356px ">500</tspan></text><text x="520.58px" y="288.659px" style="font-family:'ArialMT', 'Arial', sans-serif;font-size:25.731px;fill:#d32027;">+</text><g transform="matrix(20.0243,0,0,20.0243,537.394,326.77)"></g><text x="415.606px" y="326.77px" style="font-family:'ArialMT', 'Arial', sans-serif;font-size:20.024px;fill:#2b388f;">P<tspan x="430.523px 443.22px 451.449px 458.573px 464.583px 476.156px 482.166px 494.863px 507.56px 520.258px 527.382px " y="326.77px 326.77px 326.77px 326.77px 326.77px 326.77px 326.77px 326.77px 326.77px 326.77px 326.77px ">articipants</tspan></text></g><g transform="matrix(54.1667,0,0,54.1667,1908.13,68.6056)"></g><text x="1500.74px" y="68.606px" style="font-family:'ArialMT', 'Arial', sans-serif;font-size:54.167px;fill:#2b388f;">2<tspan x="1532.34px 1563.94px 1595.54px 1627.14px 1643.67px 1652.43px 1693.03px 1724.63px 1741.15px 1772.76px 1801.32px 1832.92px 1864.52px 1893.08px " y="68.606px 68.606px 68.606px 68.606px 68.606px 68.606px 68.606px 68.606px 68.606px 68.606px 68.606px 68.606px 68.606px 68.606px ">025, we expect</tspan></text><path d="M484.166,342.254l0,-321.317" style="fill:none;fill-rule:nonzero;stroke:#d32027;stroke-width:4.17px;"/><path d="M1333.71,342.254l-0,-321.317" style="fill:none;fill-rule:nonzero;stroke:#d32027;stroke-width:4.17px;"/></svg>