<?xml version="1.0" encoding="UTF-8"?>
<!-- Creator: CorelDRAW 2021 (64-Bit) -->
<svg xmlns="http://www.w3.org/2000/svg" xmlns:xlink="http://www.w3.org/1999/xlink" xmlns:xodm="http://www.corel.com/coreldraw/odm/2003" xml:space="preserve" width="125px" height="125px" version="1.1" style="shape-rendering:geometricPrecision; text-rendering:geometricPrecision; image-rendering:optimizeQuality; fill-rule:evenodd; clip-rule:evenodd" viewBox="0 0 4.04 4.04">
 <defs>
  <style type="text/css">
   <![CDATA[
    .fil0 {fill:#1D1D1E;fill-rule:nonzero}
   ]]>
  </style>
 </defs>
 <g id="Layer_x0020_1">
  <metadata id="CorelCorpID_0Corel-Layer"></metadata>
  <path class="fil0" d="M3.4 2.53c-0.15,-0.15 -0.33,-0.15 -0.48,0 -0.11,0.11 -0.22,0.22 -0.33,0.33 -0.03,0.03 -0.05,0.04 -0.09,0.02 -0.07,-0.04 -0.14,-0.08 -0.21,-0.12 -0.32,-0.2 -0.59,-0.46 -0.83,-0.75 -0.12,-0.15 -0.22,-0.3 -0.3,-0.48 -0.01,-0.03 -0.01,-0.06 0.02,-0.08 0.11,-0.11 0.22,-0.22 0.33,-0.33 0.15,-0.15 0.15,-0.33 0,-0.49 -0.09,-0.08 -0.18,-0.17 -0.26,-0.26 -0.09,-0.08 -0.18,-0.17 -0.27,-0.26 -0.15,-0.15 -0.33,-0.15 -0.48,0 -0.11,0.11 -0.21,0.22 -0.33,0.33 -0.1,0.1 -0.16,0.22 -0.17,0.36 -0.01,0.23 0.04,0.45 0.12,0.66 0.17,0.45 0.42,0.84 0.72,1.2 0.41,0.48 0.89,0.87 1.46,1.14 0.26,0.13 0.53,0.22 0.82,0.24 0.19,0.01 0.37,-0.04 0.51,-0.2 0.09,-0.1 0.2,-0.2 0.3,-0.3 0.15,-0.15 0.15,-0.33 0,-0.48 -0.18,-0.18 -0.35,-0.36 -0.53,-0.53z"></path>
 </g>
</svg>
