<?xml version="1.0" encoding="UTF-8"?>
<!-- Creator: CorelDRAW 2021 (64-Bit) -->
<svg xmlns="http://www.w3.org/2000/svg" xmlns:xlink="http://www.w3.org/1999/xlink" xmlns:xodm="http://www.corel.com/coreldraw/odm/2003" xml:space="preserve" width="1483px" height="193px" version="1.1" style="shape-rendering:geometricPrecision; text-rendering:geometricPrecision; image-rendering:optimizeQuality; fill-rule:evenodd; clip-rule:evenodd" viewBox="0 0 334.42 43.47">
 <defs>
  <style type="text/css">
   <![CDATA[
    .fil0 {fill:#0F6BA6;fill-rule:nonzero}
    .fil1 {fill:white;fill-rule:nonzero}
   ]]>
  </style>
 </defs>
 <g id="Layer_x0020_1">
  <metadata id="CorelCorpID_0Corel-Layer"></metadata>
  <g id="_2645056825088">
   <polygon class="fil0" points="334.42,0.05 236.31,0.05 236.31,0 110.51,0 110.51,0.05 0,0.05 19.62,22.46 0,43.47 110.51,43.47 110.51,43.39 223.91,43.39 223.91,43.47 334.42,43.47 317.56,21.07 "></polygon>
   <path class="fil1" d="M55.65 23.54c-0.54,1.16 -1.2,2.31 -1.98,3.44 -0.78,1.14 -1.64,2.15 -2.57,3.03 -0.94,0.89 -1.93,1.6 -2.99,2.13 -1.06,0.52 -2.14,0.75 -3.23,0.69 -1.16,-0.09 -2.09,-0.51 -2.79,-1.26 -0.69,-0.75 -1.09,-1.72 -1.18,-2.88 -0.06,-0.76 -0.01,-1.62 0.16,-2.57 0.16,-0.95 0.43,-1.96 0.8,-3.02 0.36,-1.05 0.82,-2.13 1.36,-3.23 0.54,-1.1 1.15,-2.16 1.83,-3.19 0.67,-1.03 1.4,-2.01 2.2,-2.92 0.8,-0.92 1.63,-1.72 2.51,-2.39 0.87,-0.67 1.78,-1.21 2.72,-1.61 0.94,-0.4 1.88,-0.6 2.82,-0.6 0.74,0 1.31,0.1 1.73,0.3 0.42,0.21 0.7,0.48 0.86,0.81 0.16,0.34 0.2,0.74 0.14,1.19 -0.05,0.45 -0.19,0.92 -0.39,1.43 -0.21,0.5 -0.46,1.01 -0.76,1.53 -0.3,0.52 -0.62,1.02 -0.94,1.5 -0.08,0.09 -0.18,0.2 -0.31,0.3 -0.13,0.12 -0.27,0.21 -0.45,0.28 -0.17,0.07 -0.37,0.09 -0.6,0.09 -0.22,-0.01 -0.47,-0.09 -0.74,-0.24 0.24,-0.18 0.51,-0.45 0.8,-0.82 0.29,-0.37 0.58,-0.78 0.87,-1.23 0.29,-0.45 0.54,-0.91 0.75,-1.38 0.22,-0.47 0.37,-0.88 0.46,-1.26 0.15,-0.57 0.14,-0.98 -0.04,-1.24 -0.18,-0.25 -0.6,-0.38 -1.26,-0.38 -0.65,0.03 -1.31,0.25 -1.99,0.68 -0.68,0.42 -1.35,0.97 -2.02,1.65 -0.67,0.68 -1.31,1.45 -1.95,2.29 -0.63,0.84 -1.21,1.7 -1.74,2.56 -0.53,0.86 -1,1.7 -1.42,2.5 -0.41,0.8 -0.73,1.49 -0.96,2.06 -0.27,0.65 -0.53,1.31 -0.76,1.98 -0.25,0.67 -0.44,1.36 -0.57,2.08 -0.16,0.76 -0.25,1.45 -0.27,2.1 -0.01,0.64 0.05,1.22 0.2,1.71 0.14,0.5 0.36,0.9 0.67,1.2 0.3,0.3 0.71,0.46 1.2,0.49 0.65,0.06 1.28,-0.02 1.9,-0.25 0.62,-0.22 1.22,-0.55 1.8,-0.96 0.59,-0.42 1.15,-0.91 1.69,-1.48 0.55,-0.57 1.06,-1.16 1.54,-1.79 0.47,-0.62 0.92,-1.25 1.32,-1.89 0.39,-0.64 0.75,-1.24 1.07,-1.81 0.04,-0.07 0.1,-0.12 0.2,-0.12 0.09,-0.01 0.17,0 0.24,0.05 0.06,0.04 0.11,0.11 0.13,0.18 0.02,0.08 0,0.17 -0.06,0.27zm6.36 -5.18c0.36,0.04 0.66,0.13 0.91,0.27 0.25,0.13 0.45,0.3 0.6,0.5 0.14,0.19 0.25,0.41 0.32,0.65 0.07,0.24 0.11,0.48 0.13,0.72 0.27,0.33 0.44,0.77 0.52,1.31 0.11,0.84 0.01,1.72 -0.28,2.66 -0.3,0.94 -0.73,1.81 -1.29,2.59 -0.57,0.78 -1.22,1.42 -1.97,1.93 -0.75,0.5 -1.52,0.75 -2.32,0.75 -0.86,-0.01 -1.62,-0.28 -2.28,-0.8 -0.66,-0.52 -1.11,-1.31 -1.33,-2.38 -0.14,-0.57 -0.15,-1.18 -0.03,-1.82 0.1,-0.65 0.32,-1.29 0.62,-1.92 0.3,-0.63 0.67,-1.23 1.13,-1.8 0.46,-0.57 0.97,-1.07 1.54,-1.49 0.56,-0.42 1.16,-0.74 1.79,-0.96 0.63,-0.22 1.28,-0.29 1.94,-0.21zm-0.38 4.53c-0.06,-0.02 -0.11,-0.08 -0.13,-0.19 -0.02,-0.11 -0.04,-0.24 -0.05,-0.39 -0.02,-0.14 -0.02,-0.29 -0.02,-0.46 0.01,-0.16 0.02,-0.3 0.02,-0.42 0.01,-0.14 0.07,-0.28 0.18,-0.41 0.1,-0.14 0.22,-0.26 0.35,-0.37 0.12,-0.1 0.25,-0.18 0.37,-0.25 0.12,-0.07 0.2,-0.12 0.25,-0.15 0.18,-0.09 0.35,-0.13 0.53,-0.13 -0.03,-0.22 -0.12,-0.39 -0.28,-0.55 -0.17,-0.14 -0.47,-0.21 -0.91,-0.18 -0.36,0.04 -0.76,0.16 -1.22,0.4 -0.45,0.24 -0.86,0.53 -1.24,0.89 -0.4,0.42 -0.77,0.9 -1.09,1.43 -0.32,0.54 -0.59,1.08 -0.8,1.64 -0.21,0.55 -0.35,1.1 -0.42,1.63 -0.07,0.53 -0.05,1.01 0.05,1.44 0.09,0.43 0.28,0.78 0.57,1.05 0.29,0.27 0.68,0.42 1.18,0.45 0.58,0.03 1.16,-0.17 1.74,-0.61 0.58,-0.43 1.1,-0.98 1.56,-1.64 0.45,-0.66 0.82,-1.37 1.11,-2.13 0.27,-0.76 0.41,-1.45 0.39,-2.09 0,-0.31 -0.11,-0.49 -0.32,-0.54 -0.16,-0.03 -0.35,0.01 -0.55,0.11 -0.2,0.11 -0.39,0.24 -0.57,0.41 -0.19,0.16 -0.35,0.34 -0.48,0.54 -0.14,0.2 -0.21,0.37 -0.22,0.52zm21.46 2.61c-0.21,0.34 -0.49,0.74 -0.85,1.23 -0.35,0.49 -0.74,0.96 -1.18,1.41 -0.44,0.46 -0.89,0.84 -1.37,1.17 -0.47,0.32 -0.94,0.48 -1.4,0.48 -0.26,0 -0.51,-0.04 -0.76,-0.14 -0.24,-0.09 -0.46,-0.22 -0.64,-0.4 -0.18,-0.18 -0.32,-0.42 -0.43,-0.71 -0.11,-0.28 -0.15,-0.62 -0.13,-1 0.01,-0.39 0.06,-0.78 0.16,-1.17 0.09,-0.38 0.2,-0.79 0.35,-1.22 0.14,-0.43 0.31,-0.89 0.52,-1.39 0.21,-0.51 0.44,-1.06 0.7,-1.68 0.16,-0.39 0.29,-0.75 0.39,-1.08 0.09,-0.32 0.1,-0.55 0.04,-0.71 -0.06,-0.14 -0.21,-0.17 -0.46,-0.07 -0.25,0.09 -0.64,0.37 -1.17,0.82 -0.58,0.51 -1.1,1.01 -1.55,1.48 -0.45,0.47 -0.89,1 -1.33,1.56 -0.12,0.26 -0.23,0.52 -0.34,0.78 -0.11,0.26 -0.21,0.53 -0.31,0.82 -0.21,0.63 -0.4,1.28 -0.54,1.93 -0.15,0.66 -0.25,1.33 -0.3,2.02 0,0.11 -0.08,0.14 -0.25,0.09 -0.16,-0.04 -0.35,-0.13 -0.55,-0.24 -0.2,-0.11 -0.39,-0.25 -0.55,-0.39 -0.16,-0.15 -0.25,-0.28 -0.27,-0.4 0.04,-1.08 0.24,-2.16 0.57,-3.22 0.32,-1.06 0.71,-2.13 1.14,-3.21 0.23,-0.58 0.39,-1.07 0.47,-1.45 0.09,-0.39 0.05,-0.6 -0.13,-0.65 -0.12,-0.01 -0.3,0.05 -0.54,0.17 -0.24,0.13 -0.57,0.37 -0.97,0.71 -0.59,0.53 -1.1,1.03 -1.55,1.51 -0.45,0.48 -0.92,1.02 -1.4,1.6 -0.38,0.87 -0.7,1.76 -0.95,2.65 -0.26,0.89 -0.42,1.84 -0.49,2.83 0,0.11 -0.09,0.14 -0.25,0.09 -0.17,-0.04 -0.35,-0.13 -0.55,-0.24 -0.21,-0.11 -0.39,-0.25 -0.56,-0.39 -0.17,-0.15 -0.25,-0.28 -0.27,-0.4 0.05,-0.89 0.18,-1.76 0.42,-2.61 0.23,-0.85 0.5,-1.7 0.8,-2.55 0.3,-0.85 0.62,-1.7 0.95,-2.54 0.32,-0.84 0.62,-1.69 0.87,-2.54 0.15,-0.08 0.36,-0.07 0.61,0.03 0.24,0.1 0.48,0.24 0.7,0.44 0.23,0.2 0.41,0.42 0.55,0.68 0.13,0.25 0.16,0.5 0.08,0.74 -0.04,0.17 -0.1,0.33 -0.17,0.47 -0.08,0.16 -0.16,0.32 -0.26,0.48 0.32,-0.35 0.66,-0.69 1.02,-1.02 0.36,-0.33 0.73,-0.63 1.1,-0.89 0.38,-0.26 0.76,-0.47 1.15,-0.64 0.39,-0.16 0.8,-0.26 1.2,-0.29 0.17,0 0.34,0.06 0.53,0.19 0.19,0.13 0.35,0.29 0.5,0.47 0.14,0.19 0.25,0.39 0.32,0.6 0.07,0.21 0.08,0.4 0.02,0.57 -0.07,0.19 -0.15,0.38 -0.24,0.56 -0.1,0.18 -0.18,0.36 -0.27,0.56 0.31,-0.36 0.65,-0.71 1.01,-1.06 0.36,-0.35 0.74,-0.65 1.13,-0.93 0.39,-0.27 0.79,-0.49 1.2,-0.66 0.42,-0.17 0.84,-0.27 1.26,-0.3 0.14,0 0.32,0.06 0.5,0.19 0.19,0.13 0.35,0.29 0.5,0.47 0.14,0.19 0.25,0.39 0.33,0.6 0.07,0.21 0.07,0.4 0,0.57 -0.38,1.02 -0.72,1.88 -1.03,2.58 -0.31,0.69 -0.58,1.32 -0.82,1.86 -0.24,0.55 -0.44,1.08 -0.59,1.58 -0.15,0.51 -0.25,1.08 -0.29,1.71 0,0.04 0,0.09 0.02,0.15 0.02,0.07 0.05,0.12 0.11,0.16 0.05,0.05 0.12,0.07 0.22,0.07 0.09,0 0.23,-0.04 0.39,-0.11 0.47,-0.21 1,-0.58 1.6,-1.11 0.6,-0.52 1.2,-1.22 1.79,-2.1 0.22,-0.32 0.42,-0.65 0.62,-0.97 0.18,-0.33 0.36,-0.64 0.52,-0.94 0.06,-0.07 0.13,-0.12 0.22,-0.12 0.08,-0.01 0.15,0 0.22,0.05 0.07,0.04 0.12,0.11 0.15,0.18 0.03,0.08 0.01,0.17 -0.05,0.27l-1.19 1.96 0 0zm8.72 -4.03c-0.67,1.22 -1.56,2.23 -2.65,3.03 -1.1,0.8 -2.32,1.39 -3.64,1.75 -0.01,0.26 0.01,0.51 0.05,0.77 0.05,0.25 0.12,0.49 0.22,0.71 0.11,0.23 0.25,0.42 0.43,0.59 0.18,0.17 0.4,0.28 0.67,0.34 0.34,0.08 0.72,0.06 1.15,-0.03 0.43,-0.1 0.87,-0.3 1.35,-0.59 0.47,-0.29 0.95,-0.68 1.45,-1.16 0.49,-0.48 0.99,-1.06 1.47,-1.76 0.23,-0.35 0.45,-0.68 0.65,-1.02 0.2,-0.32 0.37,-0.64 0.54,-0.94 0.06,-0.07 0.14,-0.12 0.22,-0.12 0.08,-0.01 0.15,0 0.22,0.05 0.07,0.04 0.12,0.11 0.15,0.18 0.03,0.08 0.01,0.17 -0.05,0.27 -0.21,0.33 -0.44,0.69 -0.67,1.08 -0.25,0.39 -0.51,0.8 -0.8,1.23 -0.3,0.43 -0.62,0.86 -0.97,1.29 -0.35,0.43 -0.75,0.84 -1.19,1.23 -0.44,0.39 -0.86,0.69 -1.26,0.88 -0.4,0.21 -0.79,0.35 -1.14,0.43 -0.37,0.09 -0.69,0.14 -0.98,0.14 -0.28,0.01 -0.51,0.02 -0.7,0.02 -1.02,0 -1.82,-0.27 -2.39,-0.82 -0.57,-0.54 -0.87,-1.27 -0.92,-2.21 -0.03,-0.85 0.12,-1.71 0.46,-2.56 0.34,-0.85 0.88,-1.77 1.64,-2.76 0.23,-0.31 0.56,-0.66 0.97,-1.03 0.4,-0.36 0.85,-0.71 1.35,-1.02 0.49,-0.31 1.02,-0.57 1.57,-0.77 0.56,-0.2 1.12,-0.29 1.67,-0.27 0.37,0 0.68,0.09 0.94,0.25 0.26,0.17 0.46,0.39 0.58,0.67 0.12,0.27 0.15,0.6 0.1,0.96 -0.06,0.37 -0.22,0.77 -0.49,1.19zm-6.18 3.97c-0.01,0.03 -0.02,0.06 -0.02,0.09 1.22,-0.35 2.32,-0.9 3.3,-1.66 0.97,-0.76 1.76,-1.71 2.36,-2.85 0.21,-0.44 0.26,-0.81 0.16,-1.12 -0.11,-0.31 -0.37,-0.42 -0.79,-0.35 -0.63,0.12 -1.22,0.41 -1.78,0.86 -0.55,0.45 -1.05,0.97 -1.49,1.55 -0.44,0.59 -0.8,1.2 -1.1,1.82 -0.3,0.62 -0.51,1.18 -0.64,1.66z"></path>
   <path class="fil1" d="M93.84 33.57c2.39,-0.25 3.97,-2.41 3.97,-4.46 0,-1.81 -1.24,-2.57 -2.21,-2.57 -0.93,0 -1.9,0.68 -1.9,1.74 0,0.18 0.03,1.19 1.15,1.69 0.14,1.53 -0.67,2.52 -1.01,2.91l0 0.69z"></path>
   <path class="fil1" d="M120.85 23.54c-0.54,1.16 -1.2,2.31 -1.98,3.44 -0.79,1.14 -1.64,2.15 -2.57,3.03 -0.94,0.89 -1.93,1.6 -2.99,2.13 -1.06,0.52 -2.14,0.75 -3.23,0.69 -1.16,-0.09 -2.09,-0.51 -2.79,-1.26 -0.7,-0.75 -1.09,-1.72 -1.18,-2.88 -0.06,-0.76 -0.01,-1.62 0.16,-2.57 0.16,-0.95 0.43,-1.96 0.8,-3.02 0.36,-1.05 0.82,-2.13 1.36,-3.23 0.54,-1.1 1.15,-2.16 1.83,-3.19 0.67,-1.03 1.4,-2.01 2.2,-2.92 0.8,-0.92 1.63,-1.72 2.51,-2.39 0.87,-0.67 1.78,-1.21 2.72,-1.61 0.94,-0.4 1.88,-0.6 2.82,-0.6 0.74,0 1.31,0.1 1.73,0.3 0.41,0.21 0.69,0.48 0.85,0.81 0.16,0.34 0.21,0.74 0.15,1.19 -0.06,0.45 -0.19,0.92 -0.39,1.43 -0.21,0.5 -0.46,1.01 -0.76,1.53 -0.3,0.52 -0.62,1.02 -0.94,1.5 -0.08,0.09 -0.18,0.2 -0.31,0.3 -0.13,0.12 -0.28,0.21 -0.45,0.28 -0.17,0.07 -0.38,0.09 -0.6,0.09 -0.22,-0.01 -0.47,-0.09 -0.74,-0.24 0.24,-0.18 0.5,-0.45 0.8,-0.82 0.29,-0.37 0.58,-0.78 0.87,-1.23 0.28,-0.45 0.53,-0.91 0.75,-1.38 0.22,-0.47 0.37,-0.88 0.46,-1.26 0.15,-0.57 0.14,-0.98 -0.04,-1.24 -0.18,-0.25 -0.6,-0.38 -1.26,-0.38 -0.65,0.03 -1.31,0.25 -1.99,0.68 -0.68,0.42 -1.35,0.97 -2.02,1.65 -0.67,0.68 -1.32,1.45 -1.95,2.29 -0.63,0.84 -1.21,1.7 -1.74,2.56 -0.53,0.86 -1.01,1.7 -1.42,2.5 -0.42,0.8 -0.74,1.49 -0.96,2.06 -0.27,0.65 -0.53,1.31 -0.77,1.98 -0.24,0.67 -0.43,1.36 -0.57,2.08 -0.16,0.76 -0.24,1.45 -0.26,2.1 -0.02,0.64 0.05,1.22 0.19,1.71 0.14,0.5 0.37,0.9 0.68,1.2 0.3,0.3 0.7,0.46 1.2,0.49 0.65,0.06 1.27,-0.02 1.89,-0.25 0.62,-0.22 1.23,-0.55 1.81,-0.96 0.58,-0.42 1.15,-0.91 1.69,-1.48 0.54,-0.57 1.05,-1.16 1.53,-1.79 0.48,-0.62 0.92,-1.25 1.33,-1.89 0.39,-0.64 0.75,-1.24 1.06,-1.81 0.05,-0.07 0.11,-0.12 0.21,-0.12 0.09,-0.01 0.16,0 0.23,0.05 0.07,0.04 0.11,0.11 0.14,0.18 0.02,0.08 0,0.17 -0.06,0.27zm7.66 -2.07c-0.67,1.22 -1.56,2.23 -2.65,3.03 -1.1,0.8 -2.31,1.39 -3.64,1.75 -0.01,0.26 0.01,0.51 0.05,0.77 0.05,0.25 0.12,0.49 0.23,0.71 0.1,0.23 0.24,0.42 0.43,0.59 0.17,0.17 0.4,0.28 0.67,0.34 0.33,0.08 0.71,0.06 1.14,-0.03 0.43,-0.1 0.88,-0.3 1.35,-0.59 0.47,-0.29 0.96,-0.68 1.46,-1.16 0.49,-0.48 0.98,-1.06 1.46,-1.76 0.24,-0.35 0.45,-0.68 0.65,-1.02 0.2,-0.32 0.38,-0.64 0.54,-0.94 0.06,-0.07 0.14,-0.12 0.22,-0.12 0.08,-0.01 0.15,0 0.22,0.05 0.08,0.04 0.12,0.11 0.15,0.18 0.03,0.08 0.01,0.17 -0.04,0.27 -0.21,0.33 -0.44,0.69 -0.68,1.08 -0.24,0.39 -0.51,0.8 -0.8,1.23 -0.29,0.43 -0.62,0.86 -0.97,1.29 -0.35,0.43 -0.75,0.84 -1.18,1.23 -0.44,0.39 -0.87,0.69 -1.27,0.88 -0.4,0.21 -0.78,0.35 -1.14,0.43 -0.37,0.09 -0.69,0.14 -0.97,0.14 -0.29,0.01 -0.52,0.02 -0.71,0.02 -1.02,0 -1.82,-0.27 -2.39,-0.82 -0.56,-0.54 -0.87,-1.27 -0.92,-2.21 -0.03,-0.85 0.13,-1.71 0.46,-2.56 0.34,-0.85 0.89,-1.77 1.64,-2.76 0.24,-0.31 0.56,-0.66 0.97,-1.03 0.4,-0.36 0.86,-0.71 1.35,-1.02 0.49,-0.31 1.02,-0.57 1.58,-0.77 0.55,-0.2 1.11,-0.29 1.67,-0.27 0.36,0 0.67,0.09 0.94,0.25 0.26,0.17 0.45,0.39 0.57,0.67 0.12,0.27 0.15,0.6 0.1,0.96 -0.05,0.37 -0.21,0.77 -0.49,1.19zm-6.17 3.97c-0.02,0.03 -0.03,0.06 -0.03,0.09 1.22,-0.35 2.32,-0.9 3.3,-1.66 0.98,-0.76 1.76,-1.71 2.36,-2.85 0.21,-0.44 0.27,-0.81 0.16,-1.12 -0.11,-0.31 -0.37,-0.42 -0.79,-0.35 -0.63,0.12 -1.22,0.41 -1.78,0.86 -0.55,0.45 -1.05,0.97 -1.48,1.55 -0.45,0.59 -0.81,1.2 -1.11,1.82 -0.3,0.62 -0.51,1.18 -0.63,1.66zm12.96 -6.97c-0.11,0.21 -0.3,0.6 -0.59,1.16 -0.28,0.57 -0.6,1.21 -0.96,1.93 -0.35,0.72 -0.7,1.48 -1.04,2.27 -0.35,0.8 -0.63,1.53 -0.85,2.19 -0.21,0.67 -0.34,1.21 -0.37,1.65 -0.03,0.43 0.1,0.66 0.39,0.68l0.26 0c0.51,-0.16 0.99,-0.43 1.44,-0.82 0.44,-0.39 0.85,-0.83 1.22,-1.33 0.38,-0.49 0.72,-1.01 1.05,-1.55 0.33,-0.55 0.63,-1.04 0.91,-1.49 0.05,-0.07 0.11,-0.12 0.2,-0.12 0.08,-0.01 0.15,0 0.22,0.05 0.07,0.04 0.11,0.11 0.15,0.18 0.03,0.08 0.01,0.17 -0.05,0.27 -0.3,0.47 -0.59,0.94 -0.87,1.42 -0.29,0.48 -0.59,0.95 -0.89,1.4 -0.32,0.45 -0.65,0.89 -1,1.31 -0.35,0.42 -0.74,0.8 -1.16,1.15 -0.1,0.09 -0.24,0.19 -0.4,0.31 -0.17,0.12 -0.36,0.23 -0.55,0.33 -0.21,0.09 -0.43,0.18 -0.66,0.25 -0.24,0.07 -0.49,0.1 -0.76,0.1 -0.31,-0.01 -0.58,-0.1 -0.8,-0.26 -0.21,-0.16 -0.38,-0.37 -0.49,-0.65 -0.11,-0.27 -0.18,-0.58 -0.2,-0.93 -0.03,-0.35 0,-0.72 0.07,-1.11 0.13,-0.83 0.32,-1.64 0.59,-2.43 0.27,-0.79 0.58,-1.57 0.94,-2.35 0.35,-0.77 0.72,-1.54 1.13,-2.3 0.39,-0.77 0.78,-1.54 1.17,-2.32 0.26,-0.53 0.51,-1.06 0.75,-1.59 0.24,-0.53 0.47,-1.06 0.69,-1.57 0.22,-0.51 0.41,-1 0.58,-1.47 0.16,-0.47 0.29,-0.89 0.4,-1.28 0.15,-0.07 0.35,-0.06 0.61,0.03 0.25,0.1 0.49,0.25 0.72,0.43 0.22,0.19 0.41,0.41 0.54,0.67 0.13,0.25 0.15,0.5 0.06,0.74 -0.05,0.18 -0.17,0.46 -0.34,0.82 -0.17,0.37 -0.38,0.79 -0.6,1.26 -0.23,0.46 -0.47,0.95 -0.74,1.47 -0.28,0.52 -0.53,1.02 -0.77,1.5zm9.49 3c-0.67,1.22 -1.56,2.23 -2.65,3.03 -1.1,0.8 -2.32,1.39 -3.64,1.75 -0.01,0.26 0.01,0.51 0.05,0.77 0.05,0.25 0.12,0.49 0.22,0.71 0.11,0.23 0.25,0.42 0.43,0.59 0.18,0.17 0.4,0.28 0.67,0.34 0.34,0.08 0.72,0.06 1.15,-0.03 0.43,-0.1 0.87,-0.3 1.35,-0.59 0.47,-0.29 0.95,-0.68 1.45,-1.16 0.49,-0.48 0.99,-1.06 1.47,-1.76 0.23,-0.35 0.45,-0.68 0.65,-1.02 0.2,-0.32 0.37,-0.64 0.54,-0.94 0.06,-0.07 0.13,-0.12 0.22,-0.12 0.08,-0.01 0.15,0 0.22,0.05 0.07,0.04 0.12,0.11 0.15,0.18 0.03,0.08 0.01,0.17 -0.05,0.27 -0.21,0.33 -0.44,0.69 -0.67,1.08 -0.25,0.39 -0.51,0.8 -0.8,1.23 -0.3,0.43 -0.62,0.86 -0.97,1.29 -0.36,0.43 -0.75,0.84 -1.19,1.23 -0.44,0.39 -0.86,0.69 -1.26,0.88 -0.4,0.21 -0.79,0.35 -1.14,0.43 -0.37,0.09 -0.69,0.14 -0.98,0.14 -0.28,0.01 -0.51,0.02 -0.7,0.02 -1.02,0 -1.82,-0.27 -2.39,-0.82 -0.57,-0.54 -0.87,-1.27 -0.92,-2.21 -0.03,-0.85 0.12,-1.71 0.46,-2.56 0.34,-0.85 0.88,-1.77 1.64,-2.76 0.23,-0.31 0.56,-0.66 0.97,-1.03 0.4,-0.36 0.85,-0.71 1.35,-1.02 0.49,-0.31 1.02,-0.57 1.57,-0.77 0.56,-0.2 1.12,-0.29 1.67,-0.27 0.37,0 0.68,0.09 0.94,0.25 0.26,0.17 0.46,0.39 0.58,0.67 0.12,0.27 0.15,0.6 0.1,0.96 -0.06,0.37 -0.22,0.77 -0.49,1.19zm-6.18 3.97c-0.01,0.03 -0.02,0.06 -0.02,0.09 1.22,-0.35 2.32,-0.9 3.3,-1.66 0.97,-0.76 1.76,-1.71 2.36,-2.85 0.21,-0.44 0.26,-0.81 0.16,-1.12 -0.11,-0.31 -0.37,-0.42 -0.79,-0.35 -0.63,0.12 -1.22,0.41 -1.78,0.86 -0.55,0.45 -1.05,0.97 -1.49,1.55 -0.44,0.59 -0.8,1.2 -1.1,1.82 -0.3,0.62 -0.51,1.18 -0.64,1.66zm12.97 -6.97c-0.21,0.39 -0.42,0.76 -0.61,1.13 -0.2,0.36 -0.39,0.73 -0.59,1.1 0.35,-0.31 0.72,-0.61 1.11,-0.9 0.39,-0.28 0.78,-0.53 1.2,-0.73 0.41,-0.21 0.82,-0.36 1.24,-0.47 0.41,-0.1 0.82,-0.13 1.21,-0.08 0.6,0.07 1.06,0.27 1.37,0.58 0.31,0.31 0.54,0.69 0.66,1.12 0.12,0.43 0.16,0.88 0.11,1.36 -0.04,0.48 -0.13,0.93 -0.25,1.35 -0.25,0.85 -0.61,1.67 -1.08,2.47 -0.46,0.81 -1,1.52 -1.61,2.15 -0.61,0.64 -1.29,1.15 -2.02,1.54 -0.74,0.39 -1.5,0.59 -2.28,0.6 -0.81,0.02 -1.41,-0.13 -1.8,-0.46 -0.39,-0.32 -0.64,-0.72 -0.77,-1.2 -0.03,-0.06 -0.04,-0.12 -0.04,-0.18 -0.08,0.3 -0.13,0.6 -0.16,0.89 -0.03,0.29 -0.06,0.59 -0.09,0.89 0,0.11 -0.08,0.14 -0.25,0.09 -0.16,-0.04 -0.35,-0.13 -0.55,-0.24 -0.2,-0.11 -0.39,-0.25 -0.55,-0.39 -0.17,-0.15 -0.26,-0.28 -0.27,-0.4 0.04,-0.92 0.2,-1.85 0.46,-2.78 0.26,-0.93 0.59,-1.87 0.99,-2.82 0.4,-0.94 0.84,-1.89 1.3,-2.83 0.47,-0.94 0.92,-1.87 1.37,-2.8 0.25,-0.53 0.5,-1.06 0.75,-1.59 0.23,-0.53 0.46,-1.06 0.69,-1.57 0.21,-0.51 0.41,-1 0.57,-1.47 0.16,-0.47 0.3,-0.89 0.4,-1.28 0.15,-0.07 0.36,-0.06 0.61,0.03 0.26,0.1 0.5,0.25 0.72,0.43 0.23,0.19 0.41,0.41 0.55,0.67 0.13,0.25 0.15,0.5 0.06,0.74 -0.06,0.18 -0.17,0.46 -0.34,0.82 -0.18,0.37 -0.38,0.79 -0.6,1.26 -0.23,0.46 -0.48,0.95 -0.75,1.47 -0.27,0.52 -0.53,1.02 -0.76,1.5zm-2.28 4.29c-0.21,0.43 -0.41,0.86 -0.61,1.28 -0.2,0.42 -0.38,0.85 -0.54,1.28 -0.06,0.24 -0.09,0.52 -0.1,0.82 -0.01,0.32 0.03,0.6 0.12,0.87 0.09,0.28 0.24,0.51 0.44,0.7 0.2,0.2 0.48,0.3 0.85,0.32 0.46,0.04 0.99,-0.13 1.55,-0.52 0.57,-0.39 1.13,-0.89 1.67,-1.49 0.55,-0.6 1.03,-1.26 1.47,-1.97 0.43,-0.71 0.76,-1.38 0.97,-2.01 0.21,-0.62 0.26,-1.15 0.16,-1.58 -0.09,-0.43 -0.41,-0.65 -0.93,-0.68 -0.39,-0.02 -0.82,0.05 -1.27,0.2 -0.46,0.15 -0.92,0.36 -1.37,0.63 -0.47,0.27 -0.9,0.59 -1.31,0.96 -0.42,0.37 -0.78,0.76 -1.1,1.19zm17.5 3.15c-0.32,0.46 -0.68,0.91 -1.08,1.38 -0.41,0.46 -0.85,0.88 -1.31,1.25 -0.47,0.38 -0.97,0.69 -1.49,0.92 -0.53,0.23 -1.07,0.34 -1.63,0.31 -0.56,-0.04 -0.99,-0.25 -1.25,-0.64 -0.28,-0.39 -0.41,-0.84 -0.39,-1.35 0.01,-0.46 0.1,-0.9 0.25,-1.31 0.15,-0.4 0.34,-0.79 0.58,-1.18 0.23,-0.38 0.48,-0.76 0.76,-1.14 0.27,-0.38 0.57,-0.77 0.87,-1.17 0.19,-0.27 0.39,-0.54 0.58,-0.8 0.2,-0.26 0.37,-0.5 0.5,-0.7 0.14,-0.2 0.23,-0.37 0.29,-0.49 0.06,-0.12 0.06,-0.17 0,-0.15 -0.22,0.03 -0.42,0.06 -0.58,0.1 -0.16,0.04 -0.3,0.08 -0.43,0.11 -0.13,0.04 -0.28,0.06 -0.43,0.08 -0.15,0.01 -0.33,0.02 -0.54,0.02 -0.08,0 -0.15,0 -0.23,0 -0.07,0 -0.15,-0.01 -0.23,-0.02 -0.34,0.48 -0.67,0.97 -0.99,1.45 -0.31,0.48 -0.61,0.94 -0.9,1.39 -0.04,0.08 -0.11,0.12 -0.19,0.13 -0.08,0 -0.16,-0.01 -0.22,-0.05 -0.05,-0.04 -0.1,-0.1 -0.13,-0.18 -0.03,-0.09 -0.01,-0.18 0.07,-0.28 0.3,-0.48 0.58,-0.95 0.84,-1.39 0.27,-0.44 0.55,-0.89 0.85,-1.34 -0.27,-0.22 -0.37,-0.53 -0.29,-0.91 0.07,-0.38 0.22,-0.79 0.45,-1.22 0.22,-0.43 0.46,-0.84 0.72,-1.23 0.25,-0.39 0.43,-0.71 0.52,-0.94 0.18,0.07 0.36,0.16 0.55,0.27 0.19,0.12 0.34,0.25 0.46,0.41 0.12,0.16 0.19,0.35 0.23,0.59 0.03,0.23 -0.03,0.52 -0.16,0.84l-0.95 1.38c-0.06,0.09 -0.01,0.12 0.16,0.09 0.17,-0.03 0.4,-0.09 0.7,-0.19 0.3,-0.1 0.64,-0.22 1.01,-0.36 0.36,-0.15 0.72,-0.29 1.06,-0.45 0.35,-0.14 0.66,-0.29 0.92,-0.44 0.26,-0.14 0.43,-0.25 0.5,-0.34 0.05,0 0.11,0.03 0.19,0.09 0.09,0.06 0.18,0.13 0.27,0.2 0.1,0.07 0.19,0.15 0.27,0.23 0.07,0.07 0.12,0.12 0.13,0.13 0.15,0.22 0.15,0.52 -0.01,0.89 -0.16,0.37 -0.41,0.8 -0.73,1.28 -0.33,0.48 -0.72,0.99 -1.18,1.54 -0.45,0.55 -0.89,1.11 -1.33,1.7 -0.14,0.18 -0.31,0.39 -0.49,0.64 -0.18,0.25 -0.36,0.51 -0.52,0.77 -0.16,0.26 -0.3,0.52 -0.42,0.78 -0.13,0.25 -0.2,0.48 -0.23,0.69 -0.04,0.22 0,0.39 0.1,0.52 0.09,0.12 0.28,0.19 0.57,0.21 0.2,0.02 0.44,-0.04 0.71,-0.17 0.28,-0.13 0.58,-0.31 0.89,-0.54 0.31,-0.23 0.63,-0.51 0.95,-0.83 0.32,-0.31 0.6,-0.65 0.86,-1.01 0.3,-0.44 0.57,-0.86 0.82,-1.26 0.25,-0.4 0.46,-0.76 0.62,-1.06 0.06,-0.07 0.13,-0.12 0.21,-0.12 0.09,-0.01 0.16,0 0.23,0.05 0.07,0.04 0.11,0.11 0.14,0.18 0.02,0.08 0,0.17 -0.06,0.27 -0.26,0.39 -0.5,0.79 -0.72,1.2 -0.23,0.41 -0.47,0.79 -0.72,1.17zm10.1 -4.42c0,0.11 -0.04,0.19 -0.11,0.25 -0.08,0.06 -0.16,0.09 -0.24,0.1 -0.08,0.01 -0.16,-0.02 -0.22,-0.08 -0.05,-0.05 -0.09,-0.15 -0.09,-0.27 -0.03,-0.15 -0.06,-0.34 -0.08,-0.58 -0.02,-0.23 -0.07,-0.45 -0.15,-0.67 -0.08,-0.22 -0.22,-0.41 -0.4,-0.58 -0.18,-0.16 -0.45,-0.25 -0.79,-0.27 -0.42,-0.01 -0.83,0.07 -1.23,0.25 -0.39,0.18 -0.77,0.43 -1.13,0.74 -0.37,0.32 -0.71,0.69 -1.02,1.1 -0.31,0.42 -0.6,0.85 -0.86,1.29 -0.25,0.44 -0.48,0.89 -0.66,1.33 -0.19,0.44 -0.33,0.85 -0.44,1.22 -0.07,0.26 -0.14,0.57 -0.18,0.92 -0.05,0.37 -0.03,0.7 0.04,1.01 0.08,0.31 0.24,0.55 0.48,0.71 0.24,0.17 0.62,0.19 1.12,0.07 0.24,-0.06 0.54,-0.23 0.88,-0.52 0.35,-0.29 0.7,-0.62 1.05,-1 0.35,-0.39 0.69,-0.79 1,-1.21 0.32,-0.42 0.57,-0.79 0.77,-1.1 0.17,-0.44 0.31,-0.86 0.42,-1.27 0.11,-0.4 0.18,-0.76 0.21,-1.06 0.15,-0.07 0.35,-0.05 0.61,0.05 0.26,0.11 0.5,0.25 0.72,0.45 0.23,0.2 0.41,0.42 0.55,0.68 0.13,0.25 0.16,0.5 0.09,0.74 -0.09,0.22 -0.2,0.5 -0.33,0.81 -0.13,0.31 -0.26,0.64 -0.38,0.97 -0.13,0.33 -0.25,0.65 -0.36,0.98 -0.12,0.33 -0.19,0.62 -0.23,0.88 -0.04,0.26 -0.04,0.48 0,0.64 0.04,0.17 0.14,0.26 0.3,0.28l0.27 0c0.51,-0.16 0.99,-0.43 1.43,-0.82 0.45,-0.39 0.86,-0.83 1.24,-1.33 0.39,-0.49 0.74,-1.01 1.07,-1.55 0.32,-0.55 0.61,-1.04 0.88,-1.49 0.05,-0.07 0.12,-0.12 0.21,-0.12 0.09,-0.01 0.16,0 0.23,0.05 0.07,0.04 0.12,0.11 0.15,0.18 0.03,0.08 0.01,0.17 -0.04,0.27 -0.3,0.47 -0.6,0.94 -0.89,1.42 -0.28,0.48 -0.58,0.95 -0.9,1.4 -0.31,0.45 -0.65,0.89 -1,1.31 -0.35,0.42 -0.74,0.8 -1.16,1.15 -0.11,0.09 -0.23,0.19 -0.39,0.31 -0.16,0.12 -0.34,0.23 -0.55,0.34 -0.2,0.11 -0.42,0.19 -0.65,0.26 -0.23,0.07 -0.48,0.1 -0.76,0.08 -0.41,-0.03 -0.76,-0.13 -1.02,-0.32 -0.26,-0.18 -0.46,-0.41 -0.59,-0.7 -0.14,-0.28 -0.22,-0.6 -0.22,-0.97 -0.01,-0.36 0.04,-0.72 0.14,-1.1 -0.3,0.38 -0.61,0.74 -0.95,1.1 -0.34,0.37 -0.69,0.69 -1.05,0.97 -0.37,0.29 -0.73,0.52 -1.11,0.69 -0.37,0.17 -0.74,0.25 -1.1,0.21 -0.65,-0.03 -1.15,-0.18 -1.5,-0.46 -0.35,-0.27 -0.61,-0.6 -0.78,-0.98 -0.16,-0.38 -0.26,-0.77 -0.28,-1.17 -0.02,-0.4 -0.01,-0.74 0.03,-1.01 0.08,-0.53 0.25,-1.1 0.5,-1.74 0.26,-0.63 0.59,-1.26 0.99,-1.88 0.4,-0.62 0.88,-1.22 1.41,-1.78 0.53,-0.57 1.11,-1.04 1.72,-1.42 0.6,-0.39 1.24,-0.66 1.9,-0.81 0.66,-0.16 1.34,-0.15 2.03,0.03 0.3,0.09 0.55,0.24 0.73,0.44 0.19,0.2 0.33,0.45 0.44,0.72 0.11,0.28 0.17,0.58 0.2,0.9 0.03,0.33 0.04,0.65 0.03,0.96zm4.89 -2.97c-0.11,0.03 -0.2,0.03 -0.27,0 -0.08,-0.03 -0.13,-0.08 -0.16,-0.15 -0.03,-0.07 -0.03,-0.15 0,-0.23 0.03,-0.08 0.09,-0.15 0.18,-0.21 1.1,-0.71 2.22,-1.3 3.38,-1.78 0.44,-0.9 0.81,-1.73 1.1,-2.5 0.29,-0.77 0.52,-1.46 0.68,-2.1 0.15,-0.07 0.35,-0.06 0.61,0.03 0.26,0.1 0.5,0.25 0.72,0.43 0.23,0.19 0.41,0.41 0.55,0.67 0.13,0.25 0.15,0.5 0.06,0.74 -0.06,0.16 -0.16,0.41 -0.3,0.72 -0.15,0.31 -0.32,0.68 -0.53,1.11 1.5,-0.34 3.02,-0.47 4.55,-0.41 0.04,0.13 0.06,0.26 0.04,0.41 -0.03,0.14 -0.07,0.28 -0.14,0.41 -0.07,0.13 -0.15,0.23 -0.26,0.31 -0.11,0.09 -0.21,0.13 -0.31,0.11 -0.76,-0.04 -1.5,-0.04 -2.23,0.01 -0.73,0.06 -1.47,0.17 -2.24,0.33 -0.17,0.35 -0.34,0.69 -0.52,1.04 -0.18,0.34 -0.35,0.68 -0.51,1.01 -0.11,0.21 -0.31,0.6 -0.59,1.16 -0.29,0.57 -0.61,1.21 -0.96,1.93 -0.35,0.72 -0.7,1.48 -1.05,2.27 -0.34,0.8 -0.63,1.53 -0.84,2.19 -0.22,0.67 -0.34,1.21 -0.37,1.65 -0.04,0.43 0.09,0.66 0.38,0.68l0.27 0c0.51,-0.16 0.99,-0.43 1.43,-0.82 0.44,-0.39 0.85,-0.83 1.23,-1.33 0.37,-0.49 0.72,-1.01 1.04,-1.55 0.33,-0.55 0.63,-1.04 0.92,-1.49 0.04,-0.07 0.11,-0.12 0.19,-0.12 0.08,-0.01 0.15,0 0.22,0.05 0.07,0.04 0.12,0.11 0.15,0.18 0.03,0.08 0.01,0.17 -0.04,0.27 -0.3,0.47 -0.59,0.94 -0.88,1.42 -0.29,0.48 -0.58,0.95 -0.89,1.4 -0.31,0.45 -0.64,0.89 -0.99,1.31 -0.36,0.42 -0.75,0.8 -1.17,1.15 -0.1,0.09 -0.23,0.19 -0.4,0.31 -0.17,0.12 -0.35,0.23 -0.55,0.33 -0.2,0.09 -0.42,0.18 -0.66,0.25 -0.23,0.07 -0.48,0.1 -0.75,0.1 -0.32,-0.01 -0.58,-0.1 -0.8,-0.26 -0.22,-0.16 -0.38,-0.37 -0.49,-0.65 -0.12,-0.27 -0.19,-0.58 -0.21,-0.93 -0.02,-0.35 0,-0.72 0.08,-1.11 0.12,-0.83 0.31,-1.64 0.59,-2.43 0.27,-0.79 0.57,-1.57 0.92,-2.35 0.34,-0.77 0.72,-1.54 1.13,-2.3 0.4,-0.77 0.8,-1.54 1.19,-2.32l0.07 -0.14c-0.42,0.16 -0.85,0.34 -1.27,0.54 -0.43,0.2 -0.87,0.42 -1.3,0.66zm13.88 2.95c-0.67,1.22 -1.56,2.23 -2.65,3.03 -1.1,0.8 -2.31,1.39 -3.64,1.75 -0.01,0.26 0.01,0.51 0.05,0.77 0.05,0.25 0.12,0.49 0.23,0.71 0.1,0.23 0.24,0.42 0.43,0.59 0.18,0.17 0.4,0.28 0.67,0.34 0.33,0.08 0.71,0.06 1.14,-0.03 0.43,-0.1 0.88,-0.3 1.35,-0.59 0.47,-0.29 0.96,-0.68 1.46,-1.16 0.49,-0.48 0.98,-1.06 1.46,-1.76 0.24,-0.35 0.45,-0.68 0.65,-1.02 0.2,-0.32 0.38,-0.64 0.55,-0.94 0.05,-0.07 0.13,-0.12 0.21,-0.12 0.09,-0.01 0.16,0 0.23,0.05 0.07,0.04 0.11,0.11 0.14,0.18 0.04,0.08 0.02,0.17 -0.04,0.27 -0.21,0.33 -0.44,0.69 -0.68,1.08 -0.24,0.39 -0.51,0.8 -0.8,1.23 -0.29,0.43 -0.62,0.86 -0.97,1.29 -0.35,0.43 -0.75,0.84 -1.18,1.23 -0.44,0.39 -0.86,0.69 -1.27,0.88 -0.4,0.21 -0.78,0.35 -1.14,0.43 -0.36,0.09 -0.68,0.14 -0.97,0.14 -0.29,0.01 -0.52,0.02 -0.7,0.02 -1.03,0 -1.83,-0.27 -2.39,-0.82 -0.57,-0.54 -0.88,-1.27 -0.92,-2.21 -0.04,-0.85 0.12,-1.71 0.46,-2.56 0.33,-0.85 0.88,-1.77 1.63,-2.76 0.24,-0.31 0.56,-0.66 0.97,-1.03 0.41,-0.36 0.86,-0.71 1.35,-1.02 0.49,-0.31 1.02,-0.57 1.58,-0.77 0.56,-0.2 1.11,-0.29 1.67,-0.27 0.36,0 0.67,0.09 0.94,0.25 0.26,0.17 0.45,0.39 0.57,0.67 0.12,0.27 0.16,0.6 0.1,0.96 -0.05,0.37 -0.21,0.77 -0.49,1.19zm-6.17 3.97c-0.02,0.03 -0.03,0.06 -0.03,0.09 1.22,-0.35 2.32,-0.9 3.3,-1.66 0.98,-0.76 1.76,-1.71 2.37,-2.85 0.21,-0.44 0.26,-0.81 0.15,-1.12 -0.1,-0.31 -0.37,-0.42 -0.79,-0.35 -0.63,0.12 -1.22,0.41 -1.77,0.86 -0.56,0.45 -1.06,0.97 -1.49,1.55 -0.44,0.59 -0.81,1.2 -1.11,1.82 -0.3,0.62 -0.51,1.18 -0.63,1.66zm24.95 -14c0.06,-0.09 0.21,-0.09 0.46,0.02 0.23,0.11 0.48,0.27 0.72,0.48 0.24,0.22 0.43,0.47 0.59,0.76 0.16,0.28 0.2,0.55 0.11,0.81 -0.65,0.8 -1.29,1.65 -1.92,2.57 -0.63,0.92 -1.23,1.86 -1.82,2.84 -0.58,0.98 -1.12,1.98 -1.64,3 -0.52,1.02 -1,2.03 -1.43,3.02 0.45,0.11 0.92,0.15 1.42,0.13 0.81,0 1.67,-0.12 2.57,-0.37 0.9,-0.25 1.79,-0.6 2.67,-1.06 0.87,-0.45 1.71,-1 2.51,-1.64 0.8,-0.64 1.5,-1.35 2.1,-2.12 0.6,-0.77 1.09,-1.6 1.46,-2.48 0.36,-0.88 0.56,-1.79 0.57,-2.74 0,-0.44 -0.05,-0.92 -0.14,-1.43 -0.08,-0.52 -0.33,-1 -0.72,-1.44 -0.39,-0.44 -0.98,-0.81 -1.75,-1.1 -0.79,-0.29 -1.86,-0.42 -3.21,-0.4 -0.76,0.02 -1.54,0.18 -2.33,0.5 -0.79,0.31 -1.56,0.73 -2.33,1.25 -0.77,0.54 -1.51,1.14 -2.23,1.83 -0.72,0.69 -1.4,1.43 -2.03,2.2 -0.64,0.77 -1.21,1.57 -1.74,2.37 -0.53,0.8 -0.97,1.58 -1.33,2.33 -0.37,0.75 -0.64,1.45 -0.83,2.09 -0.18,0.65 -0.26,1.21 -0.23,1.68 0.02,0.29 -0.09,0.39 -0.32,0.32 -0.22,-0.07 -0.46,-0.25 -0.72,-0.54 -0.25,-0.29 -0.46,-0.66 -0.63,-1.12 -0.17,-0.44 -0.18,-0.91 -0.04,-1.39 0.42,-1.52 1.09,-3 2,-4.45 0.92,-1.46 2.02,-2.75 3.32,-3.9 1.29,-1.15 2.73,-2.09 4.32,-2.82 1.6,-0.73 3.28,-1.14 5.05,-1.23 1.5,-0.2 2.78,-0.17 3.82,0.08 1.03,0.25 1.88,0.63 2.52,1.16 0.65,0.53 1.11,1.15 1.39,1.85 0.27,0.72 0.41,1.46 0.41,2.2 0,1.16 -0.23,2.25 -0.68,3.26 -0.46,1.02 -1.07,1.94 -1.81,2.79 -0.76,0.85 -1.62,1.61 -2.6,2.26 -0.98,0.66 -1.99,1.21 -3.02,1.65 -1.04,0.44 -2.07,0.77 -3.09,0.99 -1.02,0.22 -1.96,0.31 -2.82,0.28 -0.67,-0.01 -1.28,-0.1 -1.82,-0.27 -0.57,1.37 -1.04,2.65 -1.4,3.86 -0.37,1.2 -0.6,2.26 -0.73,3.2 -0.01,0.11 -0.08,0.09 -0.22,-0.05 -0.13,-0.13 -0.28,-0.31 -0.44,-0.53 -0.16,-0.23 -0.29,-0.46 -0.42,-0.7 -0.12,-0.24 -0.16,-0.42 -0.13,-0.52 0.03,-0.82 0.19,-1.75 0.46,-2.8 0.28,-1.05 0.64,-2.17 1.09,-3.36 -0.76,-0.63 -1.2,-1.42 -1.33,-2.37 -0.07,-0.29 0.11,-0.52 0.57,-0.71 0.28,0.97 0.65,1.72 1.1,2.24 0.46,-1.12 0.96,-2.26 1.52,-3.41 0.55,-1.15 1.12,-2.27 1.71,-3.37 0.58,-1.09 1.18,-2.13 1.77,-3.1 0.59,-0.97 1.15,-1.84 1.67,-2.6zm16.64 10.03c-0.67,1.22 -1.56,2.23 -2.65,3.03 -1.1,0.8 -2.31,1.39 -3.64,1.75 -0.01,0.26 0.01,0.51 0.05,0.77 0.05,0.25 0.12,0.49 0.23,0.71 0.1,0.23 0.24,0.42 0.43,0.59 0.18,0.17 0.4,0.28 0.67,0.34 0.33,0.08 0.71,0.06 1.14,-0.03 0.43,-0.1 0.88,-0.3 1.35,-0.59 0.47,-0.29 0.96,-0.68 1.46,-1.16 0.49,-0.48 0.98,-1.06 1.46,-1.76 0.24,-0.35 0.45,-0.68 0.65,-1.02 0.2,-0.32 0.38,-0.64 0.54,-0.94 0.06,-0.07 0.14,-0.12 0.22,-0.12 0.09,-0.01 0.16,0 0.23,0.05 0.07,0.04 0.11,0.11 0.14,0.18 0.03,0.08 0.02,0.17 -0.04,0.27 -0.21,0.33 -0.44,0.69 -0.68,1.08 -0.24,0.39 -0.51,0.8 -0.8,1.23 -0.29,0.43 -0.62,0.86 -0.97,1.29 -0.35,0.43 -0.75,0.84 -1.18,1.23 -0.44,0.39 -0.86,0.69 -1.27,0.88 -0.4,0.21 -0.78,0.35 -1.14,0.43 -0.37,0.09 -0.68,0.14 -0.97,0.14 -0.29,0.01 -0.52,0.02 -0.71,0.02 -1.02,0 -1.82,-0.27 -2.39,-0.82 -0.56,-0.54 -0.87,-1.27 -0.92,-2.21 -0.03,-0.85 0.13,-1.71 0.46,-2.56 0.34,-0.85 0.89,-1.77 1.64,-2.76 0.24,-0.31 0.56,-0.66 0.97,-1.03 0.4,-0.36 0.86,-0.71 1.35,-1.02 0.49,-0.31 1.02,-0.57 1.58,-0.77 0.55,-0.2 1.11,-0.29 1.67,-0.27 0.36,0 0.67,0.09 0.94,0.25 0.26,0.17 0.45,0.39 0.57,0.67 0.12,0.27 0.15,0.6 0.1,0.96 -0.05,0.37 -0.21,0.77 -0.49,1.19zm-6.17 3.97c-0.02,0.03 -0.03,0.06 -0.03,0.09 1.22,-0.35 2.32,-0.9 3.3,-1.66 0.98,-0.76 1.76,-1.71 2.36,-2.85 0.22,-0.44 0.27,-0.81 0.16,-1.12 -0.1,-0.31 -0.37,-0.42 -0.79,-0.35 -0.63,0.12 -1.22,0.41 -1.77,0.86 -0.56,0.45 -1.06,0.97 -1.49,1.55 -0.44,0.59 -0.81,1.2 -1.11,1.82 -0.3,0.62 -0.51,1.18 -0.63,1.66zm16.21 0.47c-0.32,0.46 -0.68,0.91 -1.08,1.38 -0.41,0.46 -0.85,0.88 -1.31,1.25 -0.47,0.38 -0.97,0.69 -1.49,0.92 -0.53,0.23 -1.07,0.34 -1.62,0.31 -0.57,-0.04 -1,-0.25 -1.26,-0.64 -0.28,-0.39 -0.41,-0.84 -0.39,-1.35 0.02,-0.46 0.1,-0.9 0.25,-1.31 0.15,-0.4 0.34,-0.79 0.58,-1.18 0.23,-0.38 0.48,-0.76 0.76,-1.14 0.27,-0.38 0.57,-0.77 0.87,-1.17 0.2,-0.27 0.39,-0.54 0.58,-0.8 0.2,-0.26 0.37,-0.5 0.5,-0.7 0.14,-0.2 0.23,-0.37 0.29,-0.49 0.06,-0.12 0.06,-0.17 0,-0.15 -0.22,0.03 -0.41,0.06 -0.57,0.1 -0.16,0.04 -0.3,0.08 -0.44,0.11 -0.13,0.04 -0.28,0.06 -0.43,0.08 -0.15,0.01 -0.33,0.02 -0.54,0.02 -0.08,0 -0.15,0 -0.22,0 -0.08,0 -0.16,-0.01 -0.23,-0.02 -0.35,0.48 -0.68,0.97 -0.99,1.45 -0.32,0.48 -0.62,0.94 -0.91,1.39 -0.04,0.08 -0.1,0.12 -0.19,0.13 -0.08,0 -0.16,-0.01 -0.21,-0.05 -0.06,-0.04 -0.11,-0.1 -0.14,-0.18 -0.03,-0.09 0,-0.18 0.07,-0.28 0.3,-0.48 0.58,-0.95 0.85,-1.39 0.26,-0.44 0.54,-0.89 0.84,-1.34 -0.27,-0.22 -0.37,-0.53 -0.29,-0.91 0.07,-0.38 0.22,-0.79 0.45,-1.22 0.22,-0.43 0.47,-0.84 0.72,-1.23 0.26,-0.39 0.43,-0.71 0.52,-0.94 0.18,0.07 0.36,0.16 0.55,0.27 0.19,0.12 0.34,0.25 0.46,0.41 0.13,0.16 0.2,0.35 0.23,0.59 0.03,0.23 -0.03,0.52 -0.16,0.84l-0.95 1.38c-0.05,0.09 0,0.12 0.16,0.09 0.17,-0.03 0.4,-0.09 0.71,-0.19 0.3,-0.1 0.63,-0.22 1,-0.36 0.36,-0.15 0.72,-0.29 1.07,-0.45 0.34,-0.14 0.65,-0.29 0.91,-0.44 0.26,-0.14 0.43,-0.25 0.5,-0.34 0.05,0 0.11,0.03 0.2,0.09 0.08,0.06 0.17,0.13 0.26,0.2 0.1,0.07 0.19,0.15 0.27,0.23 0.07,0.07 0.12,0.12 0.13,0.13 0.15,0.22 0.15,0.52 -0.01,0.89 -0.16,0.37 -0.4,0.8 -0.73,1.28 -0.33,0.48 -0.72,0.99 -1.18,1.54 -0.45,0.55 -0.89,1.11 -1.33,1.7 -0.14,0.18 -0.31,0.39 -0.49,0.64 -0.18,0.25 -0.36,0.51 -0.52,0.77 -0.16,0.26 -0.3,0.52 -0.42,0.78 -0.12,0.25 -0.2,0.48 -0.23,0.69 -0.04,0.22 0,0.39 0.1,0.52 0.09,0.12 0.29,0.19 0.57,0.21 0.2,0.02 0.44,-0.04 0.71,-0.17 0.28,-0.13 0.58,-0.31 0.89,-0.54 0.31,-0.23 0.63,-0.51 0.95,-0.83 0.32,-0.31 0.6,-0.65 0.86,-1.01 0.3,-0.44 0.58,-0.86 0.82,-1.26 0.25,-0.4 0.46,-0.76 0.62,-1.06 0.06,-0.07 0.13,-0.12 0.22,-0.12 0.08,-0.01 0.15,0 0.22,0.05 0.07,0.04 0.11,0.11 0.14,0.18 0.02,0.08 0,0.17 -0.06,0.27 -0.25,0.39 -0.5,0.79 -0.72,1.2 -0.22,0.41 -0.47,0.79 -0.72,1.17zm10.1 -4.42c0,0.11 -0.04,0.19 -0.11,0.25 -0.08,0.06 -0.15,0.09 -0.24,0.1 -0.08,0.01 -0.16,-0.02 -0.21,-0.08 -0.06,-0.05 -0.09,-0.15 -0.09,-0.27 -0.04,-0.15 -0.07,-0.34 -0.09,-0.58 -0.02,-0.23 -0.07,-0.45 -0.15,-0.67 -0.08,-0.22 -0.22,-0.41 -0.4,-0.58 -0.18,-0.16 -0.44,-0.25 -0.79,-0.27 -0.42,-0.01 -0.83,0.07 -1.23,0.25 -0.39,0.18 -0.77,0.43 -1.13,0.74 -0.37,0.32 -0.71,0.69 -1.02,1.1 -0.31,0.42 -0.6,0.85 -0.86,1.29 -0.25,0.44 -0.48,0.89 -0.66,1.33 -0.19,0.44 -0.33,0.85 -0.44,1.22 -0.07,0.26 -0.14,0.57 -0.18,0.92 -0.05,0.37 -0.03,0.7 0.04,1.01 0.08,0.31 0.24,0.55 0.48,0.71 0.24,0.17 0.62,0.19 1.12,0.07 0.24,-0.06 0.54,-0.23 0.88,-0.52 0.35,-0.29 0.7,-0.62 1.05,-1 0.35,-0.39 0.69,-0.79 1.01,-1.21 0.31,-0.42 0.56,-0.79 0.76,-1.1 0.17,-0.44 0.31,-0.86 0.42,-1.27 0.11,-0.4 0.18,-0.76 0.21,-1.06 0.15,-0.07 0.36,-0.05 0.61,0.05 0.26,0.11 0.5,0.25 0.72,0.45 0.23,0.2 0.41,0.42 0.55,0.68 0.13,0.25 0.16,0.5 0.09,0.74 -0.09,0.22 -0.2,0.5 -0.33,0.81 -0.13,0.31 -0.26,0.64 -0.38,0.97 -0.13,0.33 -0.25,0.65 -0.36,0.98 -0.12,0.33 -0.19,0.62 -0.23,0.88 -0.04,0.26 -0.04,0.48 0,0.64 0.04,0.17 0.14,0.26 0.31,0.28l0.26 0c0.52,-0.16 0.99,-0.43 1.44,-0.82 0.44,-0.39 0.85,-0.83 1.24,-1.33 0.38,-0.49 0.73,-1.01 1.06,-1.55 0.32,-0.55 0.62,-1.04 0.88,-1.49 0.05,-0.07 0.12,-0.12 0.21,-0.12 0.09,-0.01 0.17,0 0.24,0.05 0.07,0.04 0.11,0.11 0.14,0.18 0.03,0.08 0.02,0.17 -0.04,0.27 -0.3,0.47 -0.6,0.94 -0.88,1.42 -0.29,0.48 -0.59,0.95 -0.91,1.4 -0.31,0.45 -0.65,0.89 -1,1.31 -0.35,0.42 -0.74,0.8 -1.16,1.15 -0.1,0.09 -0.23,0.19 -0.39,0.31 -0.16,0.12 -0.34,0.23 -0.54,0.34 -0.21,0.11 -0.43,0.19 -0.66,0.26 -0.23,0.07 -0.48,0.1 -0.76,0.08 -0.41,-0.03 -0.76,-0.13 -1.02,-0.32 -0.26,-0.18 -0.46,-0.41 -0.59,-0.7 -0.14,-0.28 -0.21,-0.6 -0.22,-0.97 -0.01,-0.36 0.04,-0.72 0.15,-1.1 -0.3,0.38 -0.62,0.74 -0.96,1.1 -0.34,0.37 -0.69,0.69 -1.05,0.97 -0.36,0.29 -0.73,0.52 -1.11,0.69 -0.37,0.17 -0.74,0.25 -1.1,0.21 -0.65,-0.03 -1.15,-0.18 -1.5,-0.46 -0.35,-0.27 -0.61,-0.6 -0.78,-0.98 -0.16,-0.38 -0.26,-0.77 -0.28,-1.17 -0.02,-0.4 -0.01,-0.74 0.03,-1.01 0.08,-0.53 0.25,-1.1 0.5,-1.74 0.26,-0.63 0.59,-1.26 0.99,-1.88 0.41,-0.62 0.88,-1.22 1.42,-1.78 0.53,-0.57 1.1,-1.04 1.71,-1.42 0.61,-0.39 1.24,-0.66 1.9,-0.81 0.66,-0.16 1.34,-0.15 2.03,0.03 0.3,0.09 0.55,0.24 0.73,0.44 0.19,0.2 0.34,0.45 0.44,0.72 0.11,0.28 0.17,0.58 0.2,0.9 0.03,0.33 0.04,0.65 0.03,0.96zm6.31 -3.04c0.15,-0.08 0.35,-0.07 0.6,0.03 0.25,0.1 0.48,0.24 0.71,0.44 0.22,0.2 0.41,0.42 0.54,0.68 0.14,0.25 0.16,0.5 0.08,0.74 -0.07,0.21 -0.21,0.56 -0.43,1.04 -0.22,0.48 -0.46,1.02 -0.73,1.62 -0.27,0.6 -0.54,1.23 -0.81,1.88 -0.27,0.66 -0.51,1.26 -0.72,1.79 -0.2,0.53 -0.34,0.97 -0.41,1.31 -0.08,0.35 -0.05,0.52 0.09,0.52 0.24,-0.01 0.61,-0.23 1.1,-0.65 0.5,-0.42 1.04,-0.96 1.63,-1.62 0.58,-0.65 1.19,-1.37 1.82,-2.16 0.64,-0.78 1.21,-1.56 1.72,-2.31 0.5,-0.75 0.93,-1.43 1.27,-2.04 0.34,-0.61 0.52,-1.06 0.55,-1.36 0.04,-0.08 0.11,-0.05 0.2,0.09 0.09,0.13 0.18,0.31 0.25,0.53 0.07,0.22 0.12,0.44 0.15,0.66 0.02,0.23 0,0.39 -0.06,0.5 -0.31,0.45 -0.7,1 -1.15,1.66 -0.46,0.67 -0.98,1.36 -1.54,2.09 -0.57,0.73 -1.16,1.45 -1.78,2.16 -0.63,0.72 -1.25,1.36 -1.89,1.95 -0.63,0.58 -1.25,1.04 -1.86,1.39 -0.62,0.36 -1.2,0.53 -1.74,0.51 -0.24,0 -0.46,-0.06 -0.65,-0.18 -0.18,-0.12 -0.33,-0.3 -0.42,-0.54 -0.1,-0.24 -0.14,-0.53 -0.14,-0.87 0.01,-0.34 0.1,-0.73 0.26,-1.18 0.18,-0.52 0.43,-1.15 0.74,-1.91 0.32,-0.76 0.65,-1.54 0.99,-2.37 0.34,-0.82 0.66,-1.62 0.96,-2.4 0.3,-0.78 0.52,-1.45 0.67,-2zm13.91 -0.09c0.36,0.04 0.66,0.13 0.91,0.27 0.25,0.13 0.45,0.3 0.6,0.5 0.14,0.19 0.25,0.41 0.32,0.65 0.07,0.24 0.11,0.48 0.13,0.72 0.27,0.33 0.44,0.77 0.52,1.31 0.11,0.84 0.01,1.72 -0.28,2.66 -0.3,0.94 -0.73,1.81 -1.29,2.59 -0.57,0.78 -1.23,1.42 -1.97,1.93 -0.75,0.5 -1.52,0.75 -2.32,0.75 -0.86,-0.01 -1.62,-0.28 -2.28,-0.8 -0.66,-0.52 -1.11,-1.31 -1.33,-2.38 -0.14,-0.57 -0.15,-1.18 -0.04,-1.82 0.11,-0.65 0.32,-1.29 0.62,-1.92 0.3,-0.63 0.68,-1.23 1.14,-1.8 0.46,-0.57 0.97,-1.07 1.54,-1.49 0.56,-0.42 1.16,-0.74 1.79,-0.96 0.63,-0.22 1.28,-0.29 1.94,-0.21zm-0.39 4.53c-0.05,-0.02 -0.1,-0.08 -0.12,-0.19 -0.02,-0.11 -0.04,-0.24 -0.05,-0.39 -0.02,-0.14 -0.02,-0.29 -0.02,-0.46 0.01,-0.16 0.02,-0.3 0.02,-0.42 0.01,-0.14 0.07,-0.28 0.17,-0.41 0.11,-0.14 0.23,-0.26 0.36,-0.37 0.12,-0.1 0.24,-0.18 0.37,-0.25 0.12,-0.07 0.2,-0.12 0.25,-0.15 0.17,-0.09 0.35,-0.13 0.53,-0.13 -0.03,-0.22 -0.13,-0.39 -0.29,-0.55 -0.16,-0.14 -0.46,-0.21 -0.9,-0.18 -0.36,0.04 -0.76,0.16 -1.22,0.4 -0.45,0.24 -0.86,0.53 -1.24,0.89 -0.41,0.42 -0.77,0.9 -1.09,1.43 -0.33,0.54 -0.59,1.08 -0.8,1.64 -0.21,0.55 -0.35,1.1 -0.42,1.63 -0.07,0.53 -0.05,1.01 0.04,1.44 0.1,0.43 0.29,0.78 0.58,1.05 0.29,0.27 0.68,0.42 1.18,0.45 0.58,0.03 1.16,-0.17 1.74,-0.61 0.58,-0.43 1.1,-0.98 1.56,-1.64 0.45,-0.66 0.82,-1.37 1.11,-2.13 0.27,-0.76 0.4,-1.45 0.38,-2.09 0,-0.31 -0.1,-0.49 -0.31,-0.54 -0.16,-0.03 -0.35,0.01 -0.55,0.11 -0.2,0.11 -0.39,0.24 -0.57,0.41 -0.19,0.16 -0.35,0.34 -0.48,0.54 -0.14,0.2 -0.21,0.37 -0.23,0.52zm11.46 -4.53c0.36,0.04 0.66,0.13 0.91,0.27 0.25,0.13 0.45,0.3 0.6,0.5 0.14,0.19 0.25,0.41 0.32,0.65 0.07,0.24 0.11,0.48 0.13,0.72 0.27,0.33 0.44,0.77 0.52,1.31 0.11,0.84 0.01,1.72 -0.28,2.66 -0.3,0.94 -0.72,1.81 -1.29,2.59 -0.57,0.78 -1.22,1.42 -1.97,1.93 -0.75,0.5 -1.52,0.75 -2.32,0.75 -0.86,-0.01 -1.62,-0.28 -2.28,-0.8 -0.66,-0.52 -1.11,-1.31 -1.33,-2.38 -0.14,-0.57 -0.15,-1.18 -0.03,-1.82 0.1,-0.65 0.32,-1.29 0.62,-1.92 0.3,-0.63 0.67,-1.23 1.13,-1.8 0.46,-0.57 0.97,-1.07 1.54,-1.49 0.56,-0.42 1.16,-0.74 1.79,-0.96 0.64,-0.22 1.28,-0.29 1.94,-0.21zm-0.38 4.53c-0.06,-0.02 -0.11,-0.08 -0.13,-0.19 -0.02,-0.11 -0.04,-0.24 -0.05,-0.39 -0.02,-0.14 -0.02,-0.29 -0.02,-0.46 0.01,-0.16 0.02,-0.3 0.02,-0.42 0.01,-0.14 0.07,-0.28 0.18,-0.41 0.1,-0.14 0.22,-0.26 0.35,-0.37 0.12,-0.1 0.25,-0.18 0.37,-0.25 0.12,-0.07 0.2,-0.12 0.25,-0.15 0.18,-0.09 0.35,-0.13 0.53,-0.13 -0.03,-0.22 -0.12,-0.39 -0.28,-0.55 -0.17,-0.14 -0.47,-0.21 -0.91,-0.18 -0.36,0.04 -0.76,0.16 -1.22,0.4 -0.45,0.24 -0.86,0.53 -1.24,0.89 -0.4,0.42 -0.77,0.9 -1.09,1.43 -0.32,0.54 -0.59,1.08 -0.8,1.64 -0.21,0.55 -0.35,1.1 -0.42,1.63 -0.07,0.53 -0.05,1.01 0.05,1.44 0.09,0.43 0.28,0.78 0.57,1.05 0.29,0.27 0.68,0.42 1.18,0.45 0.58,0.03 1.16,-0.17 1.74,-0.61 0.58,-0.43 1.1,-0.98 1.56,-1.64 0.45,-0.66 0.83,-1.37 1.11,-2.13 0.27,-0.76 0.41,-1.45 0.39,-2.09 0,-0.31 -0.11,-0.49 -0.32,-0.54 -0.16,-0.03 -0.35,0.01 -0.55,0.11 -0.2,0.11 -0.39,0.24 -0.57,0.41 -0.19,0.16 -0.35,0.34 -0.48,0.54 -0.13,0.2 -0.21,0.37 -0.22,0.52zm13.03 3.02c-0.31,0.46 -0.68,0.91 -1.08,1.38 -0.41,0.46 -0.84,0.88 -1.31,1.25 -0.47,0.38 -0.97,0.69 -1.49,0.92 -0.52,0.23 -1.07,0.34 -1.62,0.31 -0.57,-0.04 -0.99,-0.25 -1.26,-0.64 -0.28,-0.39 -0.4,-0.84 -0.39,-1.35 0.02,-0.46 0.1,-0.9 0.25,-1.31 0.15,-0.4 0.34,-0.79 0.58,-1.18 0.23,-0.38 0.48,-0.76 0.76,-1.14 0.27,-0.38 0.57,-0.77 0.87,-1.17 0.2,-0.27 0.39,-0.54 0.59,-0.8 0.19,-0.26 0.36,-0.5 0.49,-0.7 0.14,-0.2 0.23,-0.37 0.29,-0.49 0.06,-0.12 0.06,-0.17 0,-0.15 -0.22,0.03 -0.41,0.06 -0.57,0.1 -0.16,0.04 -0.3,0.08 -0.44,0.11 -0.13,0.04 -0.28,0.06 -0.43,0.08 -0.15,0.01 -0.33,0.02 -0.54,0.02 -0.08,0 -0.15,0 -0.22,0 -0.08,0 -0.16,-0.01 -0.23,-0.02 -0.35,0.48 -0.68,0.97 -0.99,1.45 -0.32,0.48 -0.62,0.94 -0.9,1.39 -0.05,0.08 -0.11,0.12 -0.2,0.13 -0.08,0 -0.16,-0.01 -0.21,-0.05 -0.06,-0.04 -0.11,-0.1 -0.14,-0.18 -0.03,-0.09 0,-0.18 0.07,-0.28 0.3,-0.48 0.58,-0.95 0.85,-1.39 0.26,-0.44 0.54,-0.89 0.84,-1.34 -0.27,-0.22 -0.36,-0.53 -0.29,-0.91 0.07,-0.38 0.23,-0.79 0.45,-1.22 0.22,-0.43 0.47,-0.84 0.72,-1.23 0.26,-0.39 0.43,-0.71 0.52,-0.94 0.18,0.07 0.36,0.16 0.56,0.27 0.18,0.12 0.33,0.25 0.46,0.41 0.12,0.16 0.19,0.35 0.22,0.59 0.03,0.23 -0.03,0.52 -0.16,0.84l-0.95 1.38c-0.05,0.09 0,0.12 0.16,0.09 0.17,-0.03 0.41,-0.09 0.71,-0.19 0.3,-0.1 0.63,-0.22 1,-0.36 0.36,-0.15 0.72,-0.29 1.07,-0.45 0.34,-0.14 0.65,-0.29 0.91,-0.44 0.26,-0.14 0.43,-0.25 0.51,-0.34 0.04,0 0.1,0.03 0.19,0.09 0.08,0.06 0.17,0.13 0.27,0.2 0.09,0.07 0.18,0.15 0.26,0.23 0.07,0.07 0.12,0.12 0.13,0.13 0.15,0.22 0.15,0.52 -0.01,0.89 -0.16,0.37 -0.4,0.8 -0.73,1.28 -0.33,0.48 -0.72,0.99 -1.17,1.54 -0.46,0.55 -0.9,1.11 -1.33,1.7 -0.15,0.18 -0.32,0.39 -0.5,0.64 -0.18,0.25 -0.35,0.51 -0.51,0.77 -0.17,0.26 -0.31,0.52 -0.43,0.78 -0.12,0.25 -0.2,0.48 -0.23,0.69 -0.03,0.22 0,0.39 0.1,0.52 0.1,0.12 0.29,0.19 0.58,0.21 0.19,0.02 0.43,-0.04 0.7,-0.17 0.28,-0.13 0.58,-0.31 0.89,-0.54 0.32,-0.23 0.64,-0.51 0.96,-0.83 0.31,-0.31 0.6,-0.65 0.85,-1.01 0.3,-0.44 0.58,-0.86 0.83,-1.26 0.24,-0.4 0.45,-0.76 0.61,-1.06 0.06,-0.07 0.13,-0.12 0.22,-0.12 0.08,-0.01 0.15,0 0.22,0.05 0.07,0.04 0.12,0.11 0.14,0.18 0.02,0.08 0,0.17 -0.06,0.27 -0.25,0.39 -0.5,0.79 -0.72,1.2 -0.22,0.41 -0.47,0.79 -0.72,1.17z"></path>
  </g>
 </g>
</svg>
