<?xml version="1.0" encoding="UTF-8" standalone="no"?><!DOCTYPE svg PUBLIC "-//W3C//DTD SVG 1.1//EN" "http://www.w3.org/Graphics/SVG/1.1/DTD/svg11.dtd"><svg width="100%" height="100%" viewBox="0 0 61 28" version="1.1" xmlns="http://www.w3.org/2000/svg" xmlns:xlink="http://www.w3.org/1999/xlink" xml:space="preserve" xmlns:serif="http://www.serif.com/" style="fill-rule:evenodd;clip-rule:evenodd;stroke-linejoin:round;stroke-miterlimit:2;"><rect id="Artboard1" x="0" y="0" width="60.963" height="27.849" style="fill:none;"/><clipPath id="_clip1"><rect x="0" y="0" width="60.963" height="27.849"/></clipPath><g clip-path="url(#_clip1)"><rect id="Page-1" serif:id="Page 1" x="-130.065" y="-391.724" width="595.276" height="841.89" style="fill:none;"/><path d="M-0,-0.057l15.074,-0c0,2.33 0.001,4.661 0.001,7.062c-0,0.737 -0,1.474 0,2.234l0,2.228c0.001,0.32 0.001,0.64 0.001,0.96l-0,1.577c-0,0.039 -0.002,0.069 -0.015,0.106l-15.061,-0l-0,-14.167Z" style="fill-rule:nonzero;"/><path d="M14.716,1.223c0.014,0.003 0.027,0.008 0.041,0.012c0.069,0.021 0.123,0.04 0.176,0.09c0.013,0.004 0.026,0.008 0.039,0.013c0.004,0.012 0.008,0.025 0.013,0.038l0.089,0l-0,9.061c-0.025,0.004 -0.051,0.009 -0.077,0.013c-0.002,0.007 -0.004,0.014 -0.006,0.021c-0.116,0.382 -0.314,0.714 -0.671,0.913c-0.227,0.12 -0.466,0.218 -0.702,0.32c-0.024,0.01 -0.047,0.021 -0.07,0.03c-0.016,0.007 -0.032,0.014 -0.048,0.021c-0.143,0.062 -0.287,0.126 -0.43,0.19c-0.147,0.066 -0.294,0.13 -0.442,0.194c-0.167,0.072 -0.334,0.145 -0.499,0.219c-0.179,0.08 -0.357,0.158 -0.536,0.237c-0.077,0.033 -0.154,0.068 -0.232,0.102c-0.112,0.049 -0.224,0.098 -0.337,0.147c-0.208,0.09 -0.417,0.182 -0.625,0.274c-0.081,0.035 -0.161,0.071 -0.241,0.106c-0.012,0.005 -0.023,0.01 -0.035,0.015c-0.022,0.01 -0.045,0.02 -0.068,0.03c-0.159,0.07 -0.319,0.14 -0.478,0.211c-0.082,0.035 -0.163,0.071 -0.244,0.107c-0.011,0.005 -0.022,0.01 -0.033,0.014c-0.056,0.025 -0.113,0.05 -0.169,0.075c-0.108,0.047 -0.216,0.095 -0.323,0.142c-0.104,0.047 -0.208,0.093 -0.313,0.138c-0.013,0.007 -0.027,0.012 -0.041,0.019c-0.035,0.015 -0.07,0.03 -0.106,0.045c-0.009,0.004 -0.019,0.008 -0.028,0.012c-0.069,0.028 -0.134,0.037 -0.208,0.027c-0.037,-0.017 -0.037,-0.017 -0.066,-0.04c-0.01,-0.009 -0.021,-0.017 -0.032,-0.025c-0.01,-0.008 -0.02,-0.016 -0.03,-0.025c-0.018,-0.013 -0.035,-0.025 -0.053,-0.038c-0.071,-0.054 -0.136,-0.112 -0.177,-0.192c-0.005,-0.039 -0.005,-0.039 -0.005,-0.084l0,-0.026c0,-0.027 0,-0.055 0,-0.083l0,-0.06c0,-0.056 0,-0.111 0.001,-0.167l-0,-0.179c-0,-0.104 -0,-0.207 0,-0.311c0,-0.15 0,-0.3 0.001,-0.449c-0,-0.243 0,-0.486 0,-0.729c0.001,-0.236 0.001,-0.472 0.001,-0.708l-0,-0.045c0,-0.072 0,-0.145 0,-0.218c0.001,-0.606 0.001,-1.212 0.002,-1.817l0.779,0c0.005,0.726 0.009,1.453 0.013,2.201l1.29,-0l0,-5.362l-1.29,-0c-0.004,0.692 -0.008,1.385 -0.013,2.099l-0.766,-0c-0.001,-0.466 -0.003,-0.931 -0.003,-1.396c-0,-0.055 -0.001,-0.11 -0.001,-0.165l0,-0.033c0,-0.177 -0.001,-0.354 -0.001,-0.531c-0,-0.182 -0.001,-0.363 -0.001,-0.545c-0,-0.112 -0,-0.224 -0.001,-0.336c-0,-0.077 -0,-0.154 -0,-0.231c-0,-0.044 -0,-0.088 -0.001,-0.133c-0,-0.048 -0,-0.096 0,-0.144c-0,-0.014 -0,-0.028 -0,-0.042c0.001,-0.095 0.001,-0.095 0.038,-0.144c0.038,-0.028 0.077,-0.051 0.12,-0.071c0.009,-0.004 0.018,-0.009 0.027,-0.013c0.135,-0.065 0.273,-0.124 0.411,-0.184c0.03,-0.013 0.061,-0.026 0.092,-0.04c0.072,-0.031 0.145,-0.063 0.217,-0.094c0.081,-0.035 0.161,-0.07 0.241,-0.105c0.024,-0.01 0.048,-0.021 0.072,-0.031c0.073,-0.031 0.145,-0.063 0.217,-0.094c0.041,-0.018 0.081,-0.035 0.122,-0.053c0.008,-0.004 0.016,-0.007 0.024,-0.011c0.11,-0.047 0.221,-0.095 0.331,-0.141c0.128,-0.054 0.255,-0.111 0.382,-0.168c0.096,-0.043 0.193,-0.086 0.291,-0.125c0.091,-0.037 0.18,-0.077 0.27,-0.117c0.076,-0.034 0.153,-0.068 0.229,-0.101c0.009,-0.003 0.017,-0.007 0.026,-0.011c0.041,-0.018 0.082,-0.035 0.123,-0.053c0.074,-0.032 0.148,-0.065 0.221,-0.099c0.057,-0.026 0.113,-0.05 0.172,-0.073c0.074,-0.03 0.148,-0.063 0.221,-0.095c0.053,-0.023 0.105,-0.045 0.157,-0.068c0.011,-0.005 0.022,-0.01 0.033,-0.014c0.074,-0.033 0.148,-0.064 0.223,-0.096c0.01,-0.005 0.02,-0.009 0.03,-0.013c0.048,-0.021 0.096,-0.041 0.144,-0.062c0.083,-0.035 0.166,-0.072 0.248,-0.109c0.097,-0.045 0.196,-0.087 0.294,-0.131c0.017,-0.007 0.017,-0.007 0.035,-0.015c0.167,-0.074 0.335,-0.147 0.503,-0.218c0.202,-0.086 0.403,-0.173 0.603,-0.264c0.074,-0.034 0.148,-0.065 0.223,-0.095c0.039,-0.016 0.078,-0.033 0.116,-0.051c0.181,-0.083 0.305,-0.124 0.501,-0.063Z" style="fill-rule:nonzero;"/><path d="M-0,-0.057l15.074,-0l-0,1.433c-0.03,0.004 -0.059,0.009 -0.089,0.013c-0.005,-0.017 -0.009,-0.034 -0.013,-0.051c-0.007,-0.002 -0.015,-0.003 -0.023,-0.004c-0.028,-0.009 -0.028,-0.009 -0.05,-0.027c-0.106,-0.075 -0.283,-0.123 -0.413,-0.11c-0.108,0.026 -0.209,0.075 -0.31,0.122c-0.066,0.03 -0.132,0.059 -0.2,0.086c-0.099,0.04 -0.196,0.084 -0.294,0.128c-0.118,0.054 -0.237,0.106 -0.357,0.157c-0.119,0.05 -0.238,0.1 -0.356,0.152c-0.012,0.005 -0.012,0.005 -0.025,0.01c-0.139,0.061 -0.278,0.123 -0.416,0.186c-0.072,0.032 -0.144,0.063 -0.218,0.092c-0.065,0.027 -0.129,0.055 -0.192,0.084c-0.162,0.071 -0.323,0.141 -0.485,0.21c-0.119,0.051 -0.239,0.102 -0.357,0.155c-0.13,0.059 -0.262,0.115 -0.393,0.172c-0.058,0.025 -0.115,0.05 -0.173,0.075c-0.152,0.067 -0.305,0.132 -0.458,0.198c-0.153,0.066 -0.306,0.132 -0.46,0.199c-0.155,0.068 -0.311,0.137 -0.467,0.204c-0.01,0.004 -0.02,0.009 -0.03,0.013c-0.039,0.017 -0.078,0.033 -0.116,0.05c-0.109,0.047 -0.219,0.095 -0.328,0.142c-0.078,0.034 -0.156,0.068 -0.235,0.102c-0.155,0.067 -0.309,0.134 -0.463,0.203c-0.023,0.01 -0.046,0.02 -0.069,0.031c-0.071,0.032 -0.141,0.064 -0.211,0.098c-0.013,0.006 -0.025,0.012 -0.038,0.018c-0.033,0.017 -0.033,0.017 -0.055,0.056c-0.004,0.03 -0.004,0.03 -0.004,0.062c0,0.02 0,0.02 0,0.039l0,0.043c0,0.015 0,0.03 -0,0.046c-0,0.041 -0,0.083 -0,0.124c-0,0.045 -0,0.09 -0.001,0.135c-0,0.078 -0,0.155 -0,0.233c-0,0.113 -0.001,0.225 -0.001,0.338c-0.001,0.182 -0.001,0.365 -0.002,0.547c0,0.177 -0.001,0.355 -0.001,0.532c0,0.011 0,0.022 -0,0.033c-0,0.055 -0.001,0.11 -0.001,0.164c-0.001,0.455 -0.002,0.91 -0.003,1.365l0.766,-0c0,-0.064 0,-0.128 0,-0.193c0,-0.209 -0,-0.418 -0,-0.628c-0,-0.127 -0,-0.254 -0.001,-0.381c0,-0.11 0,-0.221 0,-0.331l0,-0.342c0,-0.02 -0,-0.04 -0,-0.06l-0,-0.13c0.001,-0.034 0.001,-0.034 0.014,-0.047c0.04,-0.001 0.08,-0.002 0.12,-0.002l1.087,0c0.082,0.001 0.082,0.001 0.096,0.015c0.001,0.028 0.002,0.057 0.002,0.085c-0,0.009 -0,0.018 -0,0.027l-0,2.228c-0,0.243 -0,0.487 -0,0.731l-0,2.118c-0,0.029 -0,0.059 -0,0.088l-0,0.049c-0.002,0.036 -0.002,0.036 -0.015,0.049c-0.04,0.001 -0.079,0.002 -0.119,0.001c-0.013,0.001 -0.025,0.001 -0.038,0.001l-0.394,-0c-0.078,-0.001 -0.156,-0.001 -0.234,-0l-0.265,-0c-0.04,-0 -0.08,-0 -0.12,-0.001c-0.012,0.001 -0.024,0.001 -0.037,0.001c-0.081,-0.001 -0.081,-0.001 -0.096,-0.015c-0.001,-0.028 -0.001,-0.057 -0.001,-0.085l-0,-0.027c-0,-0.031 -0,-0.061 0,-0.092l0,-0.427c0,-0.117 0,-0.233 0,-0.35c0.001,-0.133 0.001,-0.266 0.001,-0.399c0,-0.274 0,-0.548 0,-0.821l-0.779,0c0,0.619 0,1.239 0.001,1.858c0,0.073 0,0.146 0,0.22l0,0.043c0.001,0.236 0.001,0.472 0.001,0.708c-0.001,0.242 -0,0.483 0,0.725c0,0.15 0.001,0.299 0,0.448c0,0.103 0,0.205 0.001,0.307c0,0.059 0,0.118 -0,0.177c-0.001,0.054 -0,0.109 0,0.163l0,0.058c-0.001,0.098 -0.002,0.177 0.067,0.253c0.01,0.009 0.01,0.009 0.02,0.018c0.009,0.01 0.018,0.019 0.027,0.029c0.064,0.056 0.128,0.101 0.201,0.144c0.009,0.006 0.018,0.013 0.027,0.019l-0,0.038l-1.201,0c0.029,-0.057 0.06,-0.076 0.113,-0.107c0.092,-0.056 0.183,-0.127 0.232,-0.225c0.001,-0.027 0.002,-0.053 0.002,-0.079l0,-0.025c0,-0.028 0,-0.057 0,-0.084l0,-0.061c0.001,-0.055 0.001,-0.111 0.001,-0.166c-0,-0.06 -0,-0.12 0,-0.18c0,-0.103 0.001,-0.207 0.001,-0.311c0,-0.15 0.001,-0.3 0.001,-0.45c0.001,-0.243 0.001,-0.486 0.001,-0.729c0.001,-0.237 0.002,-0.473 0.002,-0.709c0,-0.022 0,-0.022 0,-0.044c0,-0.073 0.001,-0.146 0.001,-0.219c0.001,-0.607 0.003,-1.213 0.004,-1.819l-0.779,0c-0,0.1 -0,0.1 -0,0.202c-0,0.219 0,0.439 0,0.658c0,0.133 0.001,0.267 0.001,0.4c-0,0.116 -0,0.232 -0,0.348l-0,0.184c0,0.058 0,0.116 0,0.173l0,0.2c-0.001,0.036 -0.001,0.036 -0.014,0.049c-0.04,0.001 -0.08,0.002 -0.12,0.001c-0.012,0.001 -0.025,0.001 -0.038,0.001l-0.394,-0c-0.077,-0.001 -0.155,-0.001 -0.233,-0l-0.266,-0c-0.04,-0 -0.08,-0 -0.12,-0.001c-0.011,0.001 -0.024,0.001 -0.036,0.001c-0.082,-0.001 -0.082,-0.001 -0.096,-0.015c-0.001,-0.028 -0.002,-0.057 -0.002,-0.085l0,-0.028c0,-0.031 0,-0.062 0,-0.093l0,-0.066c0,-0.061 0,-0.122 0,-0.184c0,-0.065 0,-0.132 0,-0.197l0,-0.839c0,-0.284 0,-0.569 0,-0.853l0,-0.733c0,-0.283 0,-0.567 0,-0.85l0,-0.834c0,-0.065 0,-0.131 0,-0.196c0,-0.059 0,-0.119 0,-0.179l0,-0.065c0,-0.029 0,-0.058 0,-0.088l0,-0.049c0.002,-0.036 0.002,-0.036 0.015,-0.049c0.039,-0.001 0.078,-0.002 0.117,-0.001l0.037,-0c0.041,-0.001 0.081,-0.001 0.122,-0l0.085,-0c0.059,-0.001 0.119,-0 0.178,-0l0.228,-0c0.059,-0.001 0.117,-0.001 0.175,-0c0.028,-0 0.056,-0 0.085,-0.001c0.039,0 0.078,0.001 0.117,0.001l0.096,-0c0.025,0.001 0.025,0.001 0.063,0.014c0.004,0.692 0.008,1.385 0.012,2.099l0.754,-0c0.001,-0.459 0.001,-0.917 0.001,-1.375c0,-0.055 0,-0.109 0.001,-0.163l-0,-0.033c-0,-0.174 0,-0.348 0,-0.523c0,-0.179 0.001,-0.358 0.001,-0.537c-0,-0.11 -0,-0.221 -0,-0.331l-0,-0.228c-0,-0.043 -0,-0.087 0,-0.131l0,-0.142c0,-0.014 0,-0.028 0.001,-0.042c-0.001,-0.065 -0.002,-0.121 -0.029,-0.181c-0.024,-0.017 -0.024,-0.017 -0.052,-0.026c-0.009,-0.004 -0.018,-0.009 -0.028,-0.013c-0.034,-0.016 -0.067,-0.033 -0.101,-0.049c-0.011,-0.006 -0.023,-0.011 -0.035,-0.017c-0.066,-0.032 -0.133,-0.061 -0.201,-0.088c-0.048,-0.018 -0.095,-0.039 -0.141,-0.059c-0.012,-0.005 -0.022,-0.009 -0.034,-0.014c-0.144,-0.062 -0.287,-0.125 -0.431,-0.188c-0.252,-0.11 -0.504,-0.22 -0.757,-0.328c-0.124,-0.053 -0.248,-0.107 -0.372,-0.162c-0.217,-0.096 -0.435,-0.191 -0.654,-0.285c-0.01,-0.004 -0.02,-0.008 -0.031,-0.013c-0.054,-0.023 -0.109,-0.046 -0.163,-0.068c-0.092,-0.039 -0.183,-0.081 -0.273,-0.123c-0.069,-0.032 -0.137,-0.062 -0.208,-0.089c-0.064,-0.026 -0.127,-0.055 -0.19,-0.083c-0.079,-0.035 -0.158,-0.07 -0.238,-0.103c-0.098,-0.041 -0.195,-0.085 -0.292,-0.129c-0.086,-0.038 -0.172,-0.074 -0.259,-0.107c-0.044,-0.017 -0.086,-0.036 -0.128,-0.057c-0.07,-0.033 -0.141,-0.064 -0.212,-0.094c-0.1,-0.041 -0.198,-0.084 -0.297,-0.129c-0.134,-0.06 -0.269,-0.118 -0.405,-0.176c-0.099,-0.043 -0.198,-0.086 -0.297,-0.13c-0.128,-0.056 -0.256,-0.112 -0.385,-0.167c-0.035,-0.015 -0.071,-0.031 -0.107,-0.046c-0.032,-0.014 -0.065,-0.028 -0.097,-0.042c-0.024,-0.01 -0.047,-0.02 -0.071,-0.031c-0.022,-0.009 -0.022,-0.009 -0.044,-0.018c-0.013,-0.006 -0.026,-0.012 -0.039,-0.018c-0.126,-0.051 -0.263,-0.065 -0.393,-0.019c-0.023,0.01 -0.044,0.02 -0.066,0.03c-0.017,0.008 -0.017,0.008 -0.034,0.015c-0.068,0.033 -0.12,0.068 -0.183,0.113l-0,-1.446Z" style="fill:#fdfdfd;fill-rule:nonzero;"/><path d="M1.282,4.74l0.025,0c0.029,-0 0.058,-0 0.087,-0l0.23,-0c0.035,-0 0.07,-0 0.105,-0l0.368,-0c0.114,-0 0.228,-0.001 0.342,-0.001c0.098,-0 0.196,-0 0.294,-0l0.176,-0c0.055,-0 0.11,-0 0.165,-0c0.02,-0 0.04,-0 0.06,-0c0.129,-0.001 0.252,0.008 0.379,0.028c0.01,0.002 0.02,0.003 0.03,0.005c0.327,0.055 0.646,0.2 0.852,0.469c0.078,0.117 0.128,0.236 0.166,0.371c0.004,0.017 0.004,0.017 0.009,0.035c0.061,0.266 0.005,0.563 -0.139,0.795c-0.141,0.208 -0.337,0.331 -0.56,0.437c0.014,0.003 0.029,0.007 0.045,0.01c0.056,0.014 0.106,0.036 0.158,0.063c0.008,0.004 0.017,0.009 0.026,0.014c0.073,0.038 0.14,0.08 0.205,0.131c0.008,0.005 0.015,0.011 0.024,0.017c0.191,0.15 0.314,0.411 0.346,0.648c0.004,0.059 0.004,0.118 0.004,0.178c0.001,0.015 0.001,0.03 0.001,0.046c0,0.286 -0.123,0.548 -0.324,0.749c-0.009,0.009 -0.017,0.017 -0.026,0.027c-0.291,0.277 -0.704,0.351 -1.092,0.349l-0.067,-0c-0.06,-0 -0.12,-0.001 -0.18,-0.001c-0.063,0 -0.126,0 -0.189,0c-0.105,0 -0.211,0 -0.316,-0c-0.136,-0.001 -0.272,-0.001 -0.407,-0.001c-0.117,0 -0.234,0 -0.351,-0l-0.112,-0c-0.059,-0.001 -0.117,-0.001 -0.176,-0.001c-0.022,-0 -0.044,-0 -0.065,-0c-0.029,-0 -0.059,-0 -0.088,-0l-0.05,-0c-0.036,-0.002 -0.036,-0.002 -0.049,-0.015c-0.001,-0.023 -0.001,-0.046 -0.001,-0.069c-0.001,-0.015 -0.001,-0.03 -0.001,-0.046l0,-1.778c0.001,-0.197 0.001,-0.394 0,-0.591l0,-1.739c0,-0.015 0,-0.03 0.001,-0.046l-0,-0.04c0.003,-0.06 0.043,-0.044 0.095,-0.044Z" style="fill:#fdfdfd;fill-rule:nonzero;"/><path d="M14.997,10.437l0.077,-0l-0,3.634l-6.796,0c0.03,-0.059 0.041,-0.062 0.101,-0.086c0.008,-0.003 0.016,-0.006 0.024,-0.01c0.017,-0.007 0.034,-0.014 0.051,-0.02c0.045,-0.018 0.09,-0.037 0.135,-0.055c0.009,-0.004 0.018,-0.008 0.028,-0.012c0.092,-0.038 0.182,-0.078 0.273,-0.119c0.03,-0.014 0.061,-0.027 0.092,-0.042c0.014,-0.006 0.029,-0.013 0.045,-0.02c0.179,-0.081 0.359,-0.159 0.54,-0.237c0.157,-0.068 0.314,-0.138 0.471,-0.207c0.186,-0.082 0.371,-0.164 0.556,-0.246c0.011,-0.005 0.022,-0.009 0.033,-0.014c0.136,-0.06 0.273,-0.119 0.409,-0.178c0.179,-0.078 0.358,-0.158 0.537,-0.237c0.139,-0.061 0.278,-0.123 0.417,-0.183c0.14,-0.062 0.281,-0.124 0.421,-0.186c0.128,-0.057 0.256,-0.113 0.385,-0.169c0.126,-0.055 0.253,-0.11 0.379,-0.166c0.012,-0.005 0.023,-0.01 0.035,-0.015c0.107,-0.047 0.213,-0.094 0.32,-0.141c0.02,-0.009 0.02,-0.009 0.04,-0.018c0.024,-0.011 0.049,-0.022 0.074,-0.033c0.07,-0.031 0.14,-0.061 0.21,-0.091c0.452,-0.193 0.843,-0.401 1.043,-0.877c0.027,-0.07 0.05,-0.142 0.073,-0.215c0.015,-0.044 0.015,-0.044 0.027,-0.057Z" style="fill:#fefefe;fill-rule:nonzero;"/><path d="M-0,10.437c0.027,0.027 0.033,0.042 0.045,0.078c0.005,0.016 0.005,0.016 0.01,0.032c0.004,0.011 0.007,0.022 0.011,0.034c0.142,0.414 0.397,0.687 0.788,0.88c0.101,0.049 0.205,0.093 0.308,0.138c0.023,0.01 0.047,0.021 0.071,0.031c0.125,0.055 0.25,0.11 0.375,0.164c0.129,0.056 0.257,0.113 0.386,0.17c0.172,0.076 0.345,0.153 0.518,0.228c0.133,0.057 0.266,0.115 0.398,0.174c0.011,0.004 0.022,0.009 0.034,0.014c0.09,0.04 0.181,0.08 0.271,0.12c0.079,0.034 0.158,0.069 0.237,0.104c0.01,0.004 0.022,0.01 0.033,0.014c0.14,0.062 0.28,0.123 0.421,0.184c0.121,0.052 0.241,0.106 0.362,0.16c0.148,0.067 0.296,0.132 0.445,0.196c0.167,0.072 0.333,0.145 0.498,0.219c0.169,0.074 0.338,0.149 0.507,0.222c0.092,0.04 0.183,0.079 0.275,0.12c0.011,0.005 0.022,0.01 0.034,0.015c0.011,0.005 0.023,0.01 0.034,0.015c0.333,0.15 0.333,0.15 0.672,0.286c0.025,0.011 0.025,0.011 0.038,0.036l-6.771,0l-0,-3.634Z" style="fill:#fefefe;fill-rule:nonzero;"/><path d="M10.35,4.74l3.283,0c0.023,0.002 0.023,0.002 0.036,0.015c0.001,0.026 0.001,0.052 0.001,0.077l0,0.106c-0,0.018 -0,0.037 -0,0.056c-0,0.049 -0,0.098 -0,0.147l-0,0.151c-0.001,0.098 -0.001,0.196 -0.001,0.295c-0.382,0.063 -0.775,0.012 -1.163,0.012l0,3.507c-0.061,0.01 -0.112,0.015 -0.172,0.015l-0.029,-0c-0.03,0 -0.061,0 -0.091,0l-0.064,0c-0.045,0 -0.09,0 -0.134,0c-0.057,0 -0.114,0 -0.172,0.001l-0.131,-0c-0.022,-0 -0.043,-0 -0.064,0l-0.139,0c-0.038,-0.003 -0.038,-0.003 -0.064,-0.029c-0.003,-0.025 -0.003,-0.025 -0.003,-0.058l-0,-0.037c-0,-0.013 -0,-0.027 0,-0.04l0,-0.044c-0,-0.048 0,-0.096 0,-0.145l0,-0.103c0,-0.074 0,-0.148 0,-0.223c0.001,-0.107 0.001,-0.214 0.001,-0.322c-0,-0.174 -0,-0.348 -0,-0.523c0,-0.169 0.001,-0.338 0.001,-0.507l-0,-0.189c-0,-0.434 0.001,-0.868 0.001,-1.303c-0.014,0.001 -0.029,0.001 -0.044,0.001c-0.135,-0 -0.27,-0 -0.405,-0c-0.07,0 -0.139,0 -0.208,0c-0.068,0.001 -0.135,0.001 -0.201,0.001l-0.077,-0c-0.036,-0 -0.072,-0 -0.108,-0l-0.032,-0c-0.073,-0 -0.073,-0 -0.088,-0.014c-0.001,-0.026 -0.001,-0.052 -0.001,-0.078l-0,-0.721c0.002,-0.054 0.02,-0.048 0.068,-0.048Z" style="fill:#fdfdfd;fill-rule:nonzero;"/><path d="M2.478,0.696c0.007,0.005 0.014,0.009 0.021,0.013c0.008,0.006 0.017,0.011 0.025,0.016c0.009,0.006 0.018,0.012 0.027,0.018c0.02,0.012 0.04,0.025 0.061,0.038c0.011,0.007 0.022,0.014 0.033,0.021c0.065,0.041 0.13,0.08 0.195,0.12c0.024,0.014 0.048,0.029 0.071,0.043c0.076,0.046 0.153,0.093 0.229,0.138c0.158,0.095 0.315,0.191 0.471,0.288c0.08,0.049 0.161,0.098 0.242,0.146c0.087,0.052 0.174,0.105 0.26,0.159c0.029,0.018 0.057,0.035 0.086,0.053c0.012,0.007 0.025,0.015 0.037,0.023c0.035,0.021 0.069,0.042 0.104,0.063c0.07,0.042 0.141,0.085 0.212,0.128c0.013,0.008 0.026,0.016 0.039,0.024c0.064,0.039 0.128,0.078 0.192,0.118c0.095,0.058 0.191,0.116 0.286,0.173c0.082,0.049 0.163,0.099 0.244,0.149c0.058,0.035 0.115,0.071 0.173,0.106c0.057,0.035 0.114,0.07 0.171,0.105c0.173,0.108 0.348,0.213 0.523,0.317c0.104,0.061 0.207,0.124 0.309,0.187c0.01,0.006 0.02,0.012 0.03,0.019c0.034,0.02 0.067,0.041 0.1,0.062c0.039,0.025 0.079,0.05 0.119,0.073c0.012,0.008 0.025,0.015 0.038,0.023c0.011,0.006 0.022,0.013 0.034,0.019c0.03,0.027 0.033,0.046 0.037,0.086c-0.052,-0.008 -0.093,-0.025 -0.14,-0.048c-0.015,-0.007 -0.031,-0.014 -0.046,-0.021c-0.008,-0.004 -0.016,-0.008 -0.024,-0.012c-0.143,-0.068 -0.286,-0.134 -0.431,-0.196c-0.016,-0.007 -0.032,-0.014 -0.048,-0.021c-0.008,-0.003 -0.016,-0.007 -0.024,-0.01c-0.012,-0.005 -0.012,-0.005 -0.024,-0.01c-0.011,-0.005 -0.011,-0.005 -0.024,-0.011c-0.211,-0.09 -0.42,-0.186 -0.63,-0.28c-0.099,-0.045 -0.199,-0.089 -0.299,-0.134c-0.013,-0.005 -0.025,-0.011 -0.038,-0.017c-0.064,-0.028 -0.127,-0.056 -0.19,-0.084c-0.118,-0.052 -0.235,-0.105 -0.352,-0.16c-0.065,-0.031 -0.131,-0.06 -0.198,-0.09c-0.03,-0.013 -0.06,-0.026 -0.09,-0.04c-0.017,-0.007 -0.032,-0.014 -0.049,-0.021c-0.09,-0.04 -0.18,-0.08 -0.269,-0.12c-0.015,-0.007 -0.015,-0.007 -0.029,-0.013c-0.17,-0.075 -0.339,-0.151 -0.508,-0.228c-0.129,-0.058 -0.258,-0.116 -0.387,-0.173c-0.14,-0.062 -0.279,-0.125 -0.418,-0.188c-0.011,-0.005 -0.021,-0.009 -0.032,-0.014c-0.101,-0.046 -0.202,-0.091 -0.303,-0.137c-0.058,-0.026 -0.115,-0.052 -0.172,-0.078c-0.032,-0.014 -0.064,-0.029 -0.096,-0.043c-0.02,-0.009 -0.04,-0.018 -0.06,-0.027c-0.009,-0.004 -0.019,-0.009 -0.029,-0.013c-0.047,-0.022 -0.095,-0.042 -0.142,-0.063c-0.014,-0.006 -0.014,-0.006 -0.028,-0.012c-0.018,-0.008 -0.035,-0.015 -0.052,-0.022c-0.066,-0.029 -0.125,-0.064 -0.182,-0.108c0.001,-0.028 0.001,-0.028 0.013,-0.063c0.064,-0.043 0.129,-0.067 0.202,-0.09c0.011,-0.004 0.022,-0.007 0.032,-0.011c0.034,-0.011 0.069,-0.022 0.103,-0.032c0.033,-0.011 0.067,-0.021 0.1,-0.032c0.022,-0.007 0.044,-0.014 0.066,-0.021c0.054,-0.017 0.107,-0.035 0.159,-0.055c0.014,-0.005 0.014,-0.005 0.029,-0.011c0.018,-0.007 0.037,-0.014 0.055,-0.021c0.067,-0.025 0.12,-0.026 0.186,0.002Z" style="fill:#040305;fill-rule:nonzero;"/><path d="M12.75,0.705c0.014,0.005 0.014,0.005 0.03,0.01c0.032,0.012 0.063,0.023 0.095,0.034c0.033,0.011 0.066,0.023 0.099,0.034c0.022,0.008 0.044,0.016 0.066,0.023c0.063,0.023 0.127,0.044 0.191,0.065c0.014,0.004 0.028,0.009 0.042,0.013c0.026,0.009 0.051,0.017 0.077,0.024c0.058,0.019 0.101,0.034 0.14,0.084c-0.019,0.057 -0.061,0.075 -0.111,0.1c-0.013,0.007 -0.013,0.007 -0.026,0.014c-0.082,0.042 -0.165,0.079 -0.25,0.116c-0.047,0.02 -0.094,0.041 -0.141,0.061c-0.01,0.005 -0.02,0.009 -0.03,0.013c-0.12,0.053 -0.24,0.108 -0.36,0.162c-0.17,0.078 -0.34,0.154 -0.51,0.23c-0.01,0.004 -0.019,0.008 -0.029,0.013c-0.019,0.008 -0.038,0.016 -0.057,0.025c-0.013,0.006 -0.013,0.006 -0.027,0.012c-0.009,0.004 -0.018,0.008 -0.028,0.012c-0.135,0.061 -0.27,0.121 -0.405,0.182c-0.044,0.02 -0.088,0.04 -0.132,0.059c-0.134,0.061 -0.269,0.121 -0.404,0.182c-0.215,0.097 -0.431,0.194 -0.648,0.291c-0.179,0.079 -0.358,0.16 -0.536,0.24c-0.102,0.046 -0.203,0.092 -0.304,0.136c-0.093,0.041 -0.186,0.082 -0.278,0.124c-0.231,0.105 -0.462,0.208 -0.694,0.311c-0.012,0.005 -0.024,0.01 -0.035,0.015c-0.023,0.01 -0.045,0.02 -0.067,0.03c-0.069,0.031 -0.137,0.061 -0.204,0.094c-0.025,0.01 -0.025,0.01 -0.064,0.01c0.005,-0.037 0.011,-0.05 0.039,-0.075c0.07,-0.05 0.141,-0.095 0.216,-0.137c0.077,-0.043 0.151,-0.09 0.226,-0.137c0.104,-0.065 0.208,-0.13 0.313,-0.193c0.092,-0.055 0.184,-0.11 0.275,-0.166c0.116,-0.071 0.232,-0.141 0.348,-0.211c0.095,-0.056 0.189,-0.114 0.283,-0.172c0.124,-0.078 0.25,-0.152 0.375,-0.227c0.102,-0.06 0.204,-0.121 0.304,-0.184c0.074,-0.047 0.149,-0.092 0.224,-0.137c0.115,-0.069 0.231,-0.139 0.346,-0.209c0.011,-0.007 0.011,-0.007 0.022,-0.013c0.038,-0.024 0.076,-0.047 0.114,-0.07c0.067,-0.041 0.134,-0.082 0.201,-0.123c0.023,-0.013 0.045,-0.027 0.067,-0.04c0.075,-0.046 0.15,-0.091 0.225,-0.137c0.147,-0.089 0.294,-0.179 0.44,-0.269c0.014,-0.008 0.028,-0.017 0.042,-0.025c0.064,-0.04 0.127,-0.079 0.189,-0.12c0.011,-0.007 0.023,-0.015 0.034,-0.022c0.02,-0.013 0.041,-0.027 0.061,-0.041c0.009,-0.006 0.018,-0.011 0.027,-0.018c0.008,-0.004 0.016,-0.009 0.023,-0.015c0.071,-0.03 0.138,-0.002 0.206,0.022Z" style="fill:#030303;fill-rule:nonzero;"/><path d="M2.261,7.289c0.209,-0.001 0.209,-0.001 0.423,-0.003c0.044,-0 0.088,-0 0.133,-0.001c0.054,-0 0.054,-0 0.08,-0c0.017,-0 0.035,-0 0.052,-0c0.191,-0.002 0.383,0.014 0.53,0.147c0.101,0.111 0.128,0.226 0.126,0.373c-0.006,0.127 -0.044,0.235 -0.138,0.325c-0.101,0.083 -0.224,0.12 -0.353,0.12l-0.028,0c-0.031,0 -0.061,0 -0.091,-0l-0.056,-0c-0.07,-0 -0.139,-0.001 -0.208,-0.001c-0.155,0 -0.31,-0 -0.47,-0l0,-0.96Z" style="fill:#020101;fill-rule:nonzero;"/><path d="M11.536,0.314c0.044,0.012 0.087,0.026 0.13,0.041c0.012,0.005 0.024,0.008 0.036,0.012c0.09,0.032 0.179,0.065 0.268,0.101l-0,0.038c-0.028,0.02 -0.056,0.038 -0.086,0.055c-0.019,0.012 -0.038,0.023 -0.057,0.035c-0.01,0.006 -0.02,0.012 -0.03,0.018c-0.054,0.034 -0.106,0.069 -0.158,0.105c-0.011,0.007 -0.022,0.014 -0.033,0.022c-0.023,0.015 -0.046,0.031 -0.069,0.047c-0.06,0.041 -0.121,0.082 -0.181,0.123c-0.013,0.008 -0.025,0.016 -0.037,0.024c-0.103,0.07 -0.206,0.139 -0.31,0.209c-0.007,0.005 -0.015,0.01 -0.023,0.015c-0.038,0.025 -0.075,0.05 -0.112,0.075c-0.062,0.041 -0.123,0.082 -0.185,0.123c-0.025,0.016 -0.049,0.033 -0.074,0.049c-0.013,0.009 -0.113,0.076 -0.149,0.1c-0.01,0.007 -0.021,0.014 -0.032,0.022c-0.023,0.015 -0.046,0.03 -0.068,0.045c-0.059,0.039 -0.118,0.078 -0.177,0.118c-0.099,0.066 -0.197,0.132 -0.297,0.198c-0.168,0.112 -0.336,0.225 -0.503,0.339c-0.103,0.07 -0.206,0.139 -0.31,0.208c-0.037,0.025 -0.074,0.05 -0.111,0.075c-0.093,0.062 -0.186,0.123 -0.28,0.184c-0.106,0.069 -0.211,0.139 -0.317,0.21c-0.061,0.041 -0.122,0.081 -0.184,0.122c-0.011,0.007 -0.023,0.015 -0.034,0.022c-0.028,0.017 -0.028,0.017 -0.054,0.017l-0,-0.026c0.024,-0.02 0.024,-0.02 0.059,-0.044c0.135,-0.096 0.262,-0.199 0.387,-0.307c0.036,-0.03 0.072,-0.06 0.108,-0.089c0.056,-0.046 0.111,-0.093 0.165,-0.141c0.069,-0.06 0.139,-0.117 0.211,-0.173c0.062,-0.048 0.122,-0.099 0.181,-0.151c0.055,-0.047 0.11,-0.093 0.166,-0.139c0.049,-0.039 0.097,-0.079 0.146,-0.119c0.009,-0.008 0.019,-0.016 0.028,-0.024c0.064,-0.052 0.128,-0.106 0.191,-0.16c0.04,-0.034 0.079,-0.066 0.12,-0.099c0.052,-0.04 0.102,-0.083 0.151,-0.126c0.059,-0.051 0.119,-0.101 0.181,-0.149c0.074,-0.057 0.144,-0.117 0.214,-0.178c0.053,-0.047 0.108,-0.092 0.164,-0.136c0.039,-0.031 0.077,-0.064 0.115,-0.096c0.048,-0.041 0.096,-0.081 0.146,-0.121c0.06,-0.048 0.118,-0.097 0.177,-0.148c0.056,-0.048 0.113,-0.096 0.171,-0.143c0.05,-0.041 0.098,-0.082 0.147,-0.124c0.078,-0.066 0.11,-0.078 0.209,-0.059Z" style="fill:#050405;fill-rule:nonzero;"/><path d="M3.602,0.301c0.024,0.018 0.042,0.038 0.062,0.061c0.035,0.036 0.073,0.065 0.112,0.095c0.072,0.055 0.141,0.113 0.209,0.173c0.056,0.048 0.112,0.094 0.169,0.141c0.04,0.033 0.08,0.066 0.119,0.099c0.051,0.044 0.102,0.086 0.153,0.129c0.052,0.042 0.103,0.085 0.154,0.127c0.085,0.073 0.17,0.143 0.257,0.213c0.074,0.061 0.147,0.122 0.219,0.185c0.057,0.048 0.114,0.096 0.172,0.143c0.047,0.039 0.093,0.078 0.139,0.118c0.044,0.037 0.088,0.073 0.132,0.109c0.062,0.05 0.122,0.102 0.183,0.155c0.057,0.048 0.114,0.096 0.172,0.143c0.047,0.038 0.093,0.078 0.139,0.117c0.044,0.037 0.087,0.073 0.132,0.109c0.055,0.045 0.109,0.092 0.162,0.138c0.062,0.053 0.124,0.103 0.19,0.151c0.021,0.016 0.042,0.032 0.064,0.048c0.009,0.007 0.019,0.015 0.029,0.022c0.011,0.01 0.011,0.01 0.022,0.02l-0,0.025c0.007,0.003 0.014,0.007 0.021,0.01c0.036,0.019 0.065,0.043 0.097,0.069c0.012,0.011 0.024,0.021 0.037,0.031c0.047,0.04 0.093,0.08 0.138,0.121c-0.008,0.004 -0.017,0.008 -0.025,0.013c-0.013,-0.01 -0.026,-0.019 -0.039,-0.028c-0.204,-0.145 -0.41,-0.286 -0.618,-0.424c-0.036,-0.024 -0.073,-0.049 -0.11,-0.074c-0.158,-0.105 -0.316,-0.21 -0.475,-0.315c-0.28,-0.183 -0.558,-0.371 -0.836,-0.559c-0.125,-0.084 -0.249,-0.168 -0.375,-0.251c-0.011,-0.008 -0.023,-0.016 -0.034,-0.024c-0.011,-0.007 -0.021,-0.013 -0.032,-0.021c-0.171,-0.113 -0.341,-0.228 -0.51,-0.343c-0.165,-0.111 -0.331,-0.223 -0.497,-0.334c-0.011,-0.008 -0.011,-0.008 -0.023,-0.015c-0.094,-0.063 -0.188,-0.125 -0.283,-0.185c0.033,-0.041 0.071,-0.053 0.12,-0.069c0.008,-0.003 0.016,-0.005 0.025,-0.009c0.025,-0.008 0.051,-0.017 0.077,-0.025c0.025,-0.009 0.051,-0.017 0.076,-0.026c0.023,-0.008 0.046,-0.015 0.07,-0.023c0.025,-0.009 0.05,-0.018 0.075,-0.028c0.044,-0.018 0.085,-0.023 0.131,-0.012Z" style="fill:#050507;fill-rule:nonzero;"/><path d="M10.322,-0.057c0.06,-0.005 0.103,-0.002 0.159,0.022c0.08,0.033 0.162,0.062 0.245,0.09c0.015,0.005 0.03,0.01 0.046,0.016c0.038,0.012 0.075,0.025 0.112,0.038c-0,0.051 -0,0.051 -0.015,0.072c-0.057,0.054 -0.116,0.104 -0.177,0.153c-0.053,0.044 -0.104,0.09 -0.154,0.137c-0.079,0.073 -0.159,0.145 -0.24,0.216c-0.032,0.028 -0.063,0.057 -0.095,0.086c-0.046,0.042 -0.093,0.082 -0.142,0.121c-0.061,0.05 -0.118,0.103 -0.175,0.156c-0.055,0.052 -0.113,0.099 -0.172,0.147c-0.035,0.029 -0.067,0.061 -0.099,0.094c-0.03,0.03 -0.062,0.057 -0.094,0.085c-0.036,0.031 -0.071,0.064 -0.106,0.096c-0.051,0.047 -0.102,0.093 -0.154,0.138c-0.029,0.026 -0.058,0.052 -0.086,0.078c-0.044,0.039 -0.088,0.077 -0.134,0.114c-0.074,0.059 -0.142,0.124 -0.211,0.188c-0.038,0.036 -0.076,0.07 -0.115,0.104c-0.032,0.027 -0.062,0.055 -0.092,0.084c-0.06,0.056 -0.12,0.112 -0.185,0.164c-0.067,0.053 -0.129,0.112 -0.191,0.171c-0.059,0.055 -0.119,0.106 -0.181,0.156c-0.037,0.03 -0.069,0.063 -0.102,0.096c-0.021,0.022 -0.044,0.04 -0.069,0.057c-0.009,-0.004 -0.017,-0.008 -0.026,-0.013c0.009,-0.009 0.017,-0.018 0.026,-0.027c0.074,-0.08 0.074,-0.08 0.14,-0.167c0.013,-0.018 0.013,-0.018 0.026,-0.036l0.025,0c0.003,-0.007 0.007,-0.014 0.01,-0.022c0.019,-0.034 0.041,-0.059 0.068,-0.088c0.04,-0.044 0.079,-0.089 0.117,-0.136c0.046,-0.057 0.094,-0.113 0.142,-0.168c0.096,-0.11 0.191,-0.221 0.283,-0.335c0.053,-0.065 0.109,-0.127 0.165,-0.188c0.042,-0.045 0.082,-0.091 0.122,-0.138c0.006,-0.006 0.011,-0.012 0.017,-0.019c0.064,-0.075 0.128,-0.15 0.192,-0.225c0.047,-0.057 0.095,-0.113 0.144,-0.167c0.039,-0.042 0.075,-0.086 0.111,-0.13c0.044,-0.055 0.089,-0.106 0.137,-0.156c0.056,-0.061 0.109,-0.123 0.162,-0.187c0.08,-0.099 0.163,-0.196 0.249,-0.289c0.051,-0.056 0.099,-0.114 0.147,-0.173c0.043,-0.053 0.088,-0.106 0.132,-0.158c0.025,-0.029 0.025,-0.029 0.038,-0.057Z" style="fill:#050405;fill-rule:nonzero;"/><path d="M4.675,-0.057c0.03,0.026 0.05,0.048 0.073,0.078c0.014,0.017 0.027,0.033 0.04,0.05c0.007,0.008 0.014,0.017 0.02,0.025c0.033,0.041 0.066,0.08 0.1,0.119c0.006,0.007 0.013,0.015 0.019,0.022c0.038,0.044 0.076,0.088 0.115,0.13c0.039,0.043 0.075,0.087 0.112,0.132c0.049,0.061 0.101,0.119 0.154,0.176c0.041,0.046 0.079,0.094 0.118,0.141c0.029,0.036 0.061,0.071 0.092,0.106c0.053,0.057 0.102,0.116 0.151,0.176c0.046,0.056 0.095,0.11 0.143,0.163c0.049,0.055 0.096,0.11 0.142,0.167c0.075,0.091 0.152,0.179 0.229,0.268c0.086,0.099 0.172,0.198 0.254,0.3c0.036,0.044 0.075,0.086 0.113,0.128c0.029,0.033 0.056,0.066 0.083,0.1c0.046,0.057 0.094,0.11 0.144,0.163c0.06,0.064 0.116,0.129 0.171,0.197c0.037,0.046 0.076,0.089 0.116,0.132c0.027,0.03 0.052,0.061 0.077,0.093c-0.004,0.009 -0.009,0.017 -0.013,0.026c-0.006,-0.005 -0.012,-0.011 -0.018,-0.017c-0.161,-0.153 -0.161,-0.153 -0.327,-0.303c-0.008,-0.007 -0.016,-0.014 -0.024,-0.021c-0.054,-0.048 -0.108,-0.094 -0.162,-0.141c-0.008,-0.007 -0.016,-0.013 -0.024,-0.02c-0.038,-0.033 -0.077,-0.066 -0.115,-0.099c-0.089,-0.075 -0.175,-0.153 -0.26,-0.233c-0.047,-0.044 -0.095,-0.088 -0.144,-0.13c-0.03,-0.026 -0.059,-0.053 -0.088,-0.079c-0.038,-0.034 -0.076,-0.068 -0.115,-0.102c-0.04,-0.035 -0.08,-0.071 -0.119,-0.108c-0.046,-0.041 -0.092,-0.081 -0.141,-0.12c-0.064,-0.052 -0.124,-0.108 -0.185,-0.165c-0.056,-0.053 -0.116,-0.103 -0.176,-0.151c-0.035,-0.03 -0.067,-0.061 -0.099,-0.094c-0.03,-0.031 -0.063,-0.059 -0.096,-0.087c-0.029,-0.026 -0.058,-0.051 -0.086,-0.078c-0.097,-0.086 -0.195,-0.17 -0.294,-0.254c-0.086,-0.073 -0.17,-0.147 -0.252,-0.224c-0.036,-0.033 -0.073,-0.066 -0.111,-0.098c-0.042,-0.037 -0.084,-0.075 -0.125,-0.113c-0.029,-0.026 -0.029,-0.026 -0.066,-0.05l-0,-0.026c0.204,-0.078 0.204,-0.078 0.29,-0.105c0.052,-0.018 0.103,-0.04 0.154,-0.062c0.048,-0.014 0.08,-0.02 0.13,-0.012Z" style="fill:#060507;fill-rule:nonzero;"/><path d="M2.261,5.599c0.132,-0 0.263,-0.001 0.398,-0.002c0.042,-0 0.083,-0.001 0.125,-0.001l0.1,-0c0.016,-0.001 0.033,-0.001 0.05,-0.001c0.165,0 0.316,0.018 0.44,0.132c0.086,0.088 0.128,0.183 0.132,0.307c-0.006,0.146 -0.042,0.258 -0.148,0.36c-0.099,0.086 -0.21,0.116 -0.338,0.116l-0.026,-0c-0.027,-0 -0.053,-0.001 -0.081,-0.001l-0.049,0c-0.062,0 -0.124,-0 -0.185,-0c-0.138,-0 -0.276,-0.001 -0.418,-0.001l0,-0.909Z" style="fill:#020101;fill-rule:nonzero;"/><path d="M8.265,14.033c0.009,0.005 0.017,0.009 0.026,0.013c-0.004,0.008 -0.009,0.017 -0.013,0.025l6.783,0l0,0.039l-15.061,-0l-0,-0.039l0.043,0c0.63,-0.001 1.259,-0.002 1.888,-0.003l0.029,0c0.207,0 0.414,-0 0.621,-0.001c0.102,0 0.203,0 0.305,-0l0.03,-0c0.328,-0.001 0.655,-0.001 0.983,-0.002c0.336,-0 0.673,-0.001 1.009,-0.001c0.048,-0.001 0.096,-0.001 0.143,-0.001l0.028,0c0.151,-0 0.301,-0 0.452,-0c0.152,-0.001 0.303,-0.001 0.454,-0.001c0.082,-0 0.164,-0 0.246,-0.001c0.076,0 0.151,0 0.226,-0l0.081,-0c0.037,-0 0.074,-0 0.111,-0l0.032,-0c0.073,-0.001 0.145,-0.007 0.217,-0.015l0,0.025l1.201,0c0.004,-0.008 0.009,-0.016 0.013,-0.025c0.013,0 0.013,0 0.027,0c0.011,0 0.023,0.001 0.035,0.001c0.017,0 0.017,0 0.035,0c0.031,0.001 0.031,0.001 0.056,-0.014Z" style="fill:#3a3d40;fill-rule:nonzero;"/><path d="M14.997,8.53l0.013,-0c0,0.23 0.001,0.46 0.001,0.691c-0,0.107 -0,0.213 -0,0.32c0,0.094 0,0.187 0,0.28l0,0.148c0.001,0.046 0.001,0.093 0.001,0.139l-0,0.075c-0,0.078 -0.003,0.152 -0.015,0.228l-0.025,0c-0,-0.196 -0.001,-0.392 -0.001,-0.589c-0,-0.091 -0,-0.182 -0,-0.273c-0,-0.08 -0,-0.16 -0,-0.24c-0,-0.041 -0,-0.083 -0.001,-0.126c-0,-0.167 0.001,-0.335 0.008,-0.503c-0,-0.013 0.001,-0.027 0.001,-0.041c0.001,-0.012 0.001,-0.025 0.001,-0.038c0.001,-0.016 0.001,-0.016 0.002,-0.033c0.003,-0.025 0.003,-0.025 0.015,-0.038Z" style="fill:#161616;fill-rule:nonzero;"/><path d="M6.387,2.643c0.072,0.046 0.142,0.096 0.205,0.154l-0,0.025c0.01,0.005 0.01,0.005 0.021,0.01c0.036,0.019 0.065,0.043 0.097,0.069c0.012,0.011 0.024,0.021 0.037,0.031c0.047,0.04 0.093,0.08 0.138,0.121c-0.012,0.006 -0.012,0.006 -0.025,0.013c-0.013,-0.01 -0.026,-0.019 -0.039,-0.028c-0.018,-0.013 -0.036,-0.026 -0.055,-0.039c-0.014,-0.01 -0.014,-0.01 -0.029,-0.021c-0.053,-0.037 -0.107,-0.075 -0.161,-0.111c-0.016,-0.012 -0.016,-0.012 -0.033,-0.023c-0.021,-0.014 -0.042,-0.029 -0.063,-0.043c-0.048,-0.032 -0.092,-0.063 -0.131,-0.107l0.038,0l0,-0.051Z" style="fill:#241d29;fill-rule:nonzero;"/><path d="M6.873,2.528c0.113,0.047 0.195,0.187 0.268,0.281c-0.004,0.009 -0.009,0.017 -0.013,0.026c-0.006,-0.006 -0.012,-0.012 -0.018,-0.018c-0.029,-0.027 -0.057,-0.054 -0.086,-0.08c-0.009,-0.01 -0.019,-0.019 -0.029,-0.028c-0.052,-0.05 -0.105,-0.097 -0.161,-0.143c0.013,-0.004 0.026,-0.008 0.039,-0.013l-0,-0.025Z" style="fill:#1e1921;fill-rule:nonzero;"/><path d="M8.431,2.784c0.009,0.004 0.017,0.008 0.026,0.013c-0,0.038 -0,0.038 -0.022,0.063c-0.03,0.027 -0.061,0.049 -0.095,0.071c-0.012,0.007 -0.025,0.015 -0.038,0.024c-0.012,0.007 -0.025,0.016 -0.038,0.024c-0.013,0.008 -0.026,0.017 -0.04,0.025c-0.096,0.062 -0.096,0.062 -0.125,0.062l-0,-0.026c0.024,-0.02 0.024,-0.02 0.059,-0.044c0.061,-0.043 0.12,-0.088 0.179,-0.135c0.008,-0.006 0.016,-0.012 0.024,-0.018c0.036,-0.029 0.036,-0.029 0.07,-0.059Z" style="fill:#262327;fill-rule:nonzero;"/><path d="M8.125,2.515c0.015,0.045 0.016,0.058 -0,0.102c-0.027,0.032 -0.057,0.058 -0.087,0.085c-0.008,0.008 -0.016,0.015 -0.025,0.022c-0.038,0.035 -0.076,0.069 -0.118,0.098c-0.009,-0.004 -0.017,-0.008 -0.026,-0.013c0.013,-0.013 0.013,-0.013 0.026,-0.027c0.074,-0.08 0.074,-0.08 0.14,-0.167c0.009,-0.012 0.017,-0.024 0.026,-0.036l0.025,0c0.004,-0.008 0.008,-0.016 0.012,-0.025c0.014,-0.026 0.014,-0.026 0.027,-0.039Z" style="fill:#2d292f;fill-rule:nonzero;"/><path d="M6.387,2.643c0.065,0.041 0.126,0.086 0.179,0.141l0,0.025c-0.02,0.01 -0.02,0.01 -0.051,0.013c-0.031,-0.017 -0.058,-0.035 -0.086,-0.057c-0.008,-0.005 -0.016,-0.011 -0.024,-0.016c-0.018,-0.014 -0.037,-0.028 -0.056,-0.042c0.013,-0.004 0.025,-0.008 0.038,-0.013l0,-0.051Z" style="fill:#1b161a;fill-rule:nonzero;"/><path d="M8.303,3.283c-0.002,0.01 -0.004,0.02 -0.007,0.03c-0.009,0.034 -0.009,0.034 0.007,0.06c-0.018,0.008 -0.036,0.017 -0.055,0.025c-0.015,0.007 -0.015,0.007 -0.031,0.015c-0.028,0.011 -0.028,0.011 -0.067,0.011c0.005,-0.037 0.012,-0.05 0.038,-0.076c0.011,-0.008 0.021,-0.016 0.031,-0.023c0.011,-0.008 0.021,-0.016 0.032,-0.024c0.027,-0.018 0.027,-0.018 0.052,-0.018Z" style="fill:#242124;fill-rule:nonzero;"/><path d="M8.533,2.707c0.021,0.013 0.043,0.026 0.064,0.039c-0.021,0.017 -0.042,0.034 -0.064,0.051c-0.013,0.011 -0.013,0.011 -0.026,0.023c-0.025,0.015 -0.025,0.015 -0.053,0.011c-0.008,-0.003 -0.015,-0.006 -0.023,-0.009c0.03,-0.047 0.055,-0.084 0.102,-0.115Z" style="fill:#181519;fill-rule:nonzero;"/><path d="M2.721,2.144c0.078,0.007 0.144,0.039 0.215,0.07c0.012,0.005 0.025,0.01 0.037,0.015c0.012,0.005 0.023,0.011 0.036,0.016c0.01,0.004 0.021,0.009 0.032,0.014c0.025,0.013 0.025,0.013 0.038,0.038c-0.048,-0.008 -0.094,-0.021 -0.141,-0.036c-0.013,-0.004 -0.026,-0.009 -0.039,-0.013c-0.037,-0.014 -0.068,-0.032 -0.101,-0.053c-0.028,-0.009 -0.028,-0.009 -0.051,-0.013l-0,-0.025c-0.009,-0.004 -0.017,-0.009 -0.026,-0.013Z" style="fill:#0f1837;fill-rule:nonzero;"/><path d="M6.732,3.309c0.044,0.015 0.081,0.031 0.115,0.064l0,0.051c-0.053,-0.008 -0.094,-0.026 -0.14,-0.051c0.008,-0.022 0.016,-0.043 0.025,-0.064Z" style="fill:#21191f;fill-rule:nonzero;"/><path d="M3.27,2.374c0.082,0.026 0.16,0.057 0.238,0.092c0.01,0.005 0.02,0.01 0.031,0.015c0.025,0.011 0.051,0.023 0.076,0.034l0,0.013l-0.064,0l0,-0.026c-0.015,-0.001 -0.03,-0.002 -0.046,-0.003c-0.055,-0.007 -0.087,-0.029 -0.133,-0.061c-0.034,-0.01 -0.034,-0.01 -0.064,-0.012l0,-0.026l-0.038,-0l0,-0.026Z" style="fill:#162141;fill-rule:nonzero;"/><path d="M6.975,2.63c0.047,0.036 0.083,0.072 0.119,0.119c0.009,0.011 0.018,0.023 0.027,0.034c0.006,0.009 0.013,0.017 0.02,0.026c-0.004,0.009 -0.009,0.017 -0.013,0.026c-0.025,-0.022 -0.051,-0.044 -0.076,-0.066c-0.008,-0.007 -0.015,-0.013 -0.023,-0.019c-0.053,-0.048 -0.053,-0.048 -0.059,-0.092c0.002,-0.009 0.003,-0.018 0.005,-0.028Z" style="fill:#383241;fill-rule:nonzero;"/><path d="M8.252,2.925c0.017,0.008 0.034,0.017 0.051,0.025c-0.029,0.02 -0.058,0.039 -0.087,0.058c-0.013,0.008 -0.013,0.008 -0.025,0.016c-0.063,0.042 -0.063,0.042 -0.092,0.042l-0,-0.026c0.023,-0.018 0.046,-0.035 0.07,-0.052c0.043,-0.029 0.043,-0.029 0.083,-0.063Z" style="fill:#3e3a4d;fill-rule:nonzero;"/><path d="M6.694,2.925c0.06,0.006 0.088,0.03 0.132,0.071c0.011,0.01 0.022,0.021 0.034,0.032c0.008,0.008 0.017,0.016 0.025,0.025c-0.012,0.006 -0.012,0.006 -0.025,0.013c-0.028,-0.019 -0.055,-0.038 -0.083,-0.057c-0.008,-0.005 -0.016,-0.01 -0.024,-0.016c-0.02,-0.013 -0.04,-0.028 -0.059,-0.043l-0,-0.025Z" style="fill:#3f384b;fill-rule:nonzero;"/><path d="M6.464,2.746c0.058,-0.005 0.058,-0.005 0.087,0.017c0.015,0.021 0.015,0.021 0.015,0.046c-0.022,0.01 -0.022,0.01 -0.051,0.013c-0.035,-0.025 -0.035,-0.025 -0.064,-0.051c0.004,-0.008 0.008,-0.017 0.013,-0.025Z" style="fill:#1a141c;fill-rule:nonzero;"/><path d="M3.628,2.528c0.078,0.028 0.155,0.056 0.23,0.089l0,0.013c-0.077,-0.006 -0.149,-0.026 -0.217,-0.064c-0.004,-0.012 -0.009,-0.025 -0.013,-0.038Z" style="fill:#101b39;fill-rule:nonzero;"/><path d="M9.249,15.166c0.032,0.008 0.064,0.017 0.096,0.026c0.004,0.008 0.009,0.017 0.014,0.026l-0.191,-0l-0,-0.013c0.026,-0.004 0.054,-0.009 0.081,-0.013l0,-0.026Z" style="fill:#dbdcdb;fill-rule:nonzero;"/><path d="M2.376,1.99c0.065,0.009 0.121,0.037 0.179,0.065c-0.009,0.008 -0.017,0.016 -0.026,0.025c-0.063,-0.025 -0.063,-0.025 -0.127,-0.051l-0,-0.026c-0.009,-0.004 -0.017,-0.008 -0.026,-0.013Z" style="fill:#0c1532;fill-rule:nonzero;"/><path d="M8.367,2.861c0.004,0.012 0.009,0.025 0.013,0.038c-0.039,0.034 -0.048,0.038 -0.102,0.038c0.014,-0.038 0.021,-0.049 0.059,-0.067c0.01,-0.003 0.02,-0.006 0.03,-0.009Z" style="fill:#18151e;fill-rule:nonzero;"/><path d="M7.946,2.72c0.017,0.004 0.033,0.008 0.051,0.013c-0.051,0.044 -0.051,0.044 -0.102,0.089c-0.009,-0.004 -0.017,-0.008 -0.026,-0.013c0.025,-0.029 0.051,-0.059 0.077,-0.089Z" style="fill:#42415b;fill-rule:nonzero;"/><path d="M4.343,2.835c0.076,0.032 0.076,0.032 0.154,0.064l-0,0.013c-0.114,-0.009 -0.114,-0.009 -0.154,-0.051l0,-0.026Z" style="fill:#111b37;fill-rule:nonzero;"/><path d="M5.749,3.449c0.054,0.022 0.109,0.042 0.166,0.064c-0.069,0.018 -0.105,-0.007 -0.166,-0.038l-0,-0.026Z" style="fill:#0b1329;fill-rule:nonzero;"/><path d="M8.061,2.643c-0.015,0.032 -0.026,0.052 -0.051,0.077c-0.027,-0.005 -0.027,-0.005 -0.051,-0.013c0.073,-0.064 0.073,-0.064 0.102,-0.064Z" style="fill:#181526;fill-rule:nonzero;"/><path d="M11.101,2.643c0.008,0.004 0.017,0.009 0.026,0.013c-0.034,0.021 -0.068,0.042 -0.103,0.064c-0.012,-0.009 -0.025,-0.017 -0.038,-0.026c0.019,-0.009 0.037,-0.017 0.056,-0.026c0.016,-0.007 0.016,-0.007 0.031,-0.015c0.01,-0.003 0.019,-0.006 0.028,-0.01Z" style="fill:#182836;fill-rule:nonzero;"/><path d="M6.451,2.694c0.021,0.017 0.042,0.034 0.064,0.052l-0.051,-0l-0,0.025c-0.032,-0.013 -0.032,-0.013 -0.064,-0.025c0.013,-0.005 0.025,-0.009 0.039,-0.013c0.004,-0.013 0.008,-0.026 0.012,-0.039Z" style="fill:#292329;fill-rule:nonzero;"/><path d="M6.873,2.528c0.016,0.008 0.033,0.017 0.051,0.025c-0.013,0.007 -0.013,0.007 -0.026,0.013c-0.004,0.013 -0.008,0.026 -0.013,0.039c-0.017,-0.017 -0.033,-0.034 -0.051,-0.052l0.039,0l-0,-0.025Z" style="fill:#2b272e;fill-rule:nonzero;"/><path d="M8.189,3.347c0.008,0.004 0.016,0.008 0.025,0.013c-0.004,0.017 -0.009,0.033 -0.013,0.051c-0.017,0.004 -0.033,0.009 -0.051,0.013c0.007,-0.037 0.011,-0.05 0.039,-0.077Z" style="fill:#3e3841;fill-rule:nonzero;"/><path d="M10.424,2.963c-0.049,0.036 -0.079,0.058 -0.141,0.051c0.093,-0.075 0.093,-0.075 0.141,-0.051Z" style="fill:#102030;fill-rule:nonzero;"/><path d="M3.066,0.455c0.028,0.004 0.028,0.004 0.051,0.013c-0.009,0.016 -0.017,0.033 -0.025,0.051c-0.032,-0.013 -0.032,-0.013 -0.064,-0.026c0.016,-0.02 0.016,-0.02 0.038,-0.038Z" style="fill:#262327;fill-rule:nonzero;"/><path d="M6.822,3.36c0.008,0.004 0.017,0.008 0.025,0.013l0,0.051c-0.061,-0.01 -0.061,-0.01 -0.089,-0.039l0.064,0l-0,-0.025Z" style="fill:#2e2131;fill-rule:nonzero;"/><path d="M8.214,3.334c0.038,0.013 0.038,0.013 0.064,0.039c-0.021,0.008 -0.042,0.016 -0.064,0.025c-0.004,-0.012 -0.009,-0.025 -0.013,-0.038c0.004,-0.009 0.009,-0.017 0.013,-0.026Z" style="fill:#120f13;fill-rule:nonzero;"/><path d="M11.344,2.566c-0.045,0.031 -0.073,0.043 -0.128,0.039c0.072,-0.055 0.072,-0.055 0.128,-0.039Z" style="fill:#233446;fill-rule:nonzero;"/><path d="M2.248,1.939c0.054,0.006 0.087,0.015 0.128,0.051c-0.016,-0.001 -0.063,-0.005 -0.077,-0.006c-0.025,-0.007 -0.025,-0.007 -0.051,-0.045Z" style="fill:#0e1733;fill-rule:nonzero;"/><path d="M10.424,-0.057l0.128,-0c-0.017,0.012 -0.034,0.025 -0.051,0.038c-0.042,-0.01 -0.042,-0.01 -0.077,-0.025l0,-0.013Z" style="fill:#e0e3ec;fill-rule:nonzero;"/><path d="M6.809,2.502c0.012,0.004 0.025,0.009 0.038,0.013l0.038,0c-0.004,0.013 -0.008,0.025 -0.012,0.038c-0.021,-0.004 -0.042,-0.008 -0.064,-0.012l-0,-0.039Z" style="fill:#16121a;fill-rule:nonzero;"/><path d="M27.584,13.87l-2.713,0l1.357,-1.462l1.356,1.462Zm-0,-2.944l-2.713,-0l1.357,1.461l1.356,-1.461Zm2.211,-3.096l-1.561,2.39l1.89,-0.355l-0.329,-2.035Zm-4.924,-3.777l2.713,0l-1.356,-1.461l-1.357,1.461Zm5.418,8.149l-2.357,1.449l0.506,-1.994l1.851,0.545Zm1.704,-2.881l-1.364,2.529l-0.492,-1.999l1.856,-0.53Zm-9.882,2.862l2.356,1.446l-0.507,-1.991l-1.849,0.545Zm-1.704,-2.88l1.364,2.524l0.49,-1.999l-1.854,-0.525Zm1.419,-6.314l-1.344,2.539l1.851,-0.546l-0.507,-1.993Z" style="fill:#ed2d24;fill-rule:nonzero;"/><path d="M24.123,4.417l-1.399,2.504l-0.464,-2.005l1.863,-0.499Zm-1.384,3.436l1.382,2.515l-1.859,-0.512l0.477,-2.003Zm6.981,-0.845l-1.472,-2.456l1.876,0.436l-0.404,2.02Zm-5.219,-5.854l-2.347,1.47l1.855,0.527l0.492,-1.997Zm5.847,1.504l-2.327,-1.504l0.466,2.005l1.861,-0.501Zm1.645,2.919l-1.313,-2.558l-0.53,1.986l1.843,0.572Zm-4.409,-4.518l-2.713,-0l1.357,1.46l1.356,-1.46Zm-7.203,4.906l-0,2.923l1.357,-1.461l-1.357,-1.462Zm11.713,0l-0,2.923l-1.357,-1.461l1.357,-1.462Z" style="fill:#ed2d24;fill-rule:nonzero;"/><path d="M37.346,3.836c-0.019,-0.215 -0.07,-0.409 -0.153,-0.582c-0.081,-0.172 -0.195,-0.309 -0.34,-0.41c-0.145,-0.106 -0.325,-0.156 -0.539,-0.152c-0.22,-0 -0.393,0.065 -0.523,0.195c-0.129,0.131 -0.193,0.289 -0.193,0.474c-0,0.165 0.043,0.304 0.129,0.418c0.086,0.11 0.201,0.209 0.346,0.297c0.149,0.088 0.315,0.177 0.499,0.265c0.149,0.068 0.299,0.144 0.452,0.228c0.152,0.084 0.291,0.181 0.416,0.291c0.125,0.105 0.226,0.233 0.3,0.385c0.074,0.148 0.111,0.323 0.111,0.524c-0,0.237 -0.057,0.448 -0.171,0.633c-0.113,0.185 -0.275,0.331 -0.486,0.436c-0.208,0.105 -0.46,0.158 -0.757,0.158c-0.168,0 -0.346,-0.028 -0.534,-0.083c-0.183,-0.054 -0.352,-0.133 -0.505,-0.233l0.03,0.265l-0.358,-0l-0.023,-1.391l0.281,0c0.031,0.367 0.152,0.645 0.363,0.835c0.215,0.185 0.472,0.277 0.769,0.277c0.148,0 0.283,-0.029 0.405,-0.088c0.121,-0.059 0.217,-0.144 0.287,-0.253c0.071,-0.11 0.106,-0.239 0.106,-0.386c0,-0.173 -0.049,-0.318 -0.146,-0.436c-0.095,-0.118 -0.216,-0.219 -0.364,-0.304c-0.146,-0.084 -0.298,-0.164 -0.459,-0.24c-0.16,-0.075 -0.316,-0.155 -0.468,-0.24c-0.149,-0.084 -0.284,-0.181 -0.405,-0.29c-0.122,-0.109 -0.217,-0.238 -0.288,-0.386c-0.07,-0.151 -0.105,-0.328 -0.105,-0.531c0,-0.117 0.019,-0.243 0.059,-0.373c0.039,-0.13 0.104,-0.255 0.199,-0.373c0.093,-0.117 0.221,-0.213 0.381,-0.285c0.164,-0.075 0.37,-0.113 0.616,-0.113c0.148,0 0.314,0.023 0.499,0.07c0.188,0.047 0.358,0.129 0.51,0.246l-0.024,-0.265l0.352,0l0,1.415l-0.269,0.002Z" style="fill:#333;fill-rule:nonzero;"/><path d="M40.074,6.894c-0.007,-0.067 -0.013,-0.125 -0.018,-0.176c-0.004,-0.051 -0.01,-0.103 -0.017,-0.158c-0.133,0.143 -0.275,0.253 -0.428,0.329c-0.153,0.072 -0.311,0.107 -0.476,0.107c-0.282,0 -0.494,-0.074 -0.639,-0.221c-0.141,-0.151 -0.212,-0.339 -0.212,-0.562c0,-0.194 0.054,-0.362 0.16,-0.505c0.105,-0.144 0.244,-0.26 0.416,-0.348c0.172,-0.092 0.36,-0.16 0.563,-0.202c0.204,-0.047 0.403,-0.07 0.598,-0.07l0,-0.373c0,-0.135 -0.011,-0.259 -0.035,-0.373c-0.023,-0.118 -0.072,-0.213 -0.146,-0.284c-0.071,-0.077 -0.182,-0.114 -0.335,-0.114c-0.101,-0.004 -0.203,0.017 -0.305,0.063c-0.101,0.043 -0.18,0.114 -0.235,0.214c0.032,0.035 0.051,0.074 0.059,0.121c0.012,0.042 0.018,0.081 0.018,0.12c-0,0.059 -0.023,0.126 -0.071,0.202c-0.047,0.071 -0.127,0.106 -0.24,0.101c-0.094,-0 -0.166,-0.034 -0.217,-0.101c-0.047,-0.072 -0.07,-0.154 -0.07,-0.247c-0,-0.152 0.051,-0.286 0.151,-0.404c0.106,-0.118 0.249,-0.21 0.429,-0.278c0.18,-0.067 0.382,-0.101 0.604,-0.101c0.337,0 0.587,0.095 0.751,0.284c0.168,0.19 0.252,0.489 0.252,0.898l0,0.437c0,0.139 -0.001,0.278 -0.006,0.416l0,0.442c0,0.064 -0.002,0.135 -0.005,0.215c-0.005,0.08 -0.01,0.165 -0.018,0.254c0.066,-0.005 0.134,-0.009 0.205,-0.013c0.071,-0.004 0.136,-0.006 0.199,-0.006l-0,0.335l-0.932,-0.002Zm-0.053,-1.517c-0.125,0.009 -0.254,0.028 -0.388,0.057c-0.129,0.03 -0.246,0.073 -0.351,0.133c-0.106,0.059 -0.192,0.135 -0.258,0.227c-0.062,0.093 -0.094,0.204 -0.094,0.336c0.008,0.142 0.051,0.248 0.129,0.315c0.082,0.067 0.178,0.102 0.288,0.102c0.136,-0 0.258,-0.029 0.363,-0.083c0.106,-0.059 0.21,-0.139 0.311,-0.24c-0.003,-0.047 -0.005,-0.093 -0.005,-0.139l-0,-0.366c0.004,-0.105 0.005,-0.219 0.005,-0.342" style="fill:#333;fill-rule:nonzero;"/><path d="M41.388,6.894l0,-0.265c0.117,0 0.199,-0.029 0.246,-0.089c0.047,-0.059 0.074,-0.141 0.083,-0.246c0.011,-0.105 0.017,-0.227 0.017,-0.367l0,-1.529c0.004,-0.079 0.012,-0.158 0.024,-0.233c-0.067,0.003 -0.137,0.008 -0.211,0.011c-0.075,0 -0.143,0.003 -0.205,0.008l-0,-0.336c0.175,0 0.312,-0.009 0.41,-0.026c0.102,-0.02 0.178,-0.044 0.229,-0.069c0.055,-0.025 0.096,-0.053 0.122,-0.083l0.212,0c0.007,0.042 0.011,0.094 0.011,0.152c0.004,0.055 0.008,0.115 0.012,0.177c0.121,-0.109 0.257,-0.197 0.41,-0.265c0.157,-0.067 0.307,-0.101 0.452,-0.101c0.191,-0 0.35,0.037 0.475,0.113c0.129,0.072 0.231,0.175 0.305,0.31c0.137,-0.122 0.291,-0.223 0.463,-0.303c0.172,-0.08 0.341,-0.12 0.504,-0.12c0.333,-0 0.579,0.108 0.74,0.322c0.16,0.211 0.238,0.565 0.235,1.062l-0.006,1.093c0,0.075 -0.002,0.154 -0.006,0.234c0,0.076 -0.007,0.154 -0.018,0.234c0.062,-0.004 0.128,-0.006 0.194,-0.006c0.066,-0.005 0.127,-0.008 0.181,-0.013l0,0.335l-1.291,0l0,-0.265c0.11,0 0.186,-0.029 0.23,-0.089c0.047,-0.059 0.074,-0.141 0.082,-0.246c0.011,-0.105 0.017,-0.227 0.017,-0.367l0,-0.909c-0.004,-0.333 -0.055,-0.577 -0.152,-0.734c-0.098,-0.156 -0.247,-0.233 -0.446,-0.233c-0.114,-0 -0.224,0.026 -0.334,0.081c-0.109,0.051 -0.207,0.116 -0.293,0.196c0.02,0.072 0.034,0.152 0.041,0.24c0.012,0.085 0.018,0.173 0.018,0.265c-0.004,0.211 -0.006,0.424 -0.006,0.639l-0,0.639c-0,0.075 -0.003,0.153 -0.007,0.234c-0.003,0.076 -0.009,0.154 -0.017,0.234c0.062,-0.005 0.125,-0.006 0.188,-0.006c0.066,-0.005 0.127,-0.009 0.181,-0.013l0,0.335l-1.302,0l0,-0.265c0.118,0 0.198,-0.03 0.24,-0.089c0.047,-0.059 0.075,-0.141 0.083,-0.246c0.012,-0.105 0.017,-0.227 0.017,-0.367l0,-0.917c0.005,-0.333 -0.04,-0.577 -0.135,-0.733c-0.09,-0.16 -0.234,-0.238 -0.434,-0.235c-0.113,0 -0.222,0.028 -0.328,0.083c-0.106,0.05 -0.198,0.115 -0.276,0.195l0,0.158c0.004,0.055 0.006,0.114 0.006,0.177l0,1.454c0,0.075 -0.002,0.154 -0.006,0.234c-0.004,0.076 -0.01,0.154 -0.017,0.234c0.063,-0.004 0.125,-0.006 0.188,-0.006c0.062,-0.005 0.12,-0.008 0.176,-0.013l-0,0.335l-1.302,0Zm7.028,0c-0.007,-0.067 -0.013,-0.125 -0.017,-0.176c-0.004,-0.051 -0.01,-0.103 -0.017,-0.158c-0.133,0.143 -0.277,0.253 -0.429,0.329c-0.152,0.072 -0.311,0.107 -0.475,0.107c-0.282,0 -0.495,-0.074 -0.639,-0.221c-0.141,-0.151 -0.212,-0.339 -0.212,-0.562c-0,-0.194 0.053,-0.362 0.159,-0.505c0.105,-0.144 0.245,-0.26 0.417,-0.348c0.171,-0.092 0.359,-0.16 0.563,-0.202c0.202,-0.047 0.402,-0.07 0.598,-0.07l0,-0.373c0,-0.135 -0.012,-0.259 -0.035,-0.373c-0.024,-0.118 -0.073,-0.213 -0.147,-0.284c-0.07,-0.077 -0.182,-0.114 -0.334,-0.114c-0.103,-0.004 -0.203,0.017 -0.305,0.063c-0.102,0.043 -0.18,0.114 -0.235,0.214c0.031,0.035 0.05,0.074 0.058,0.121c0.011,0.042 0.018,0.081 0.018,0.12c-0,0.059 -0.024,0.126 -0.07,0.202c-0.047,0.071 -0.127,0.106 -0.241,0.101c-0.093,-0 -0.166,-0.034 -0.217,-0.101c-0.047,-0.072 -0.07,-0.154 -0.07,-0.247c0,-0.152 0.05,-0.286 0.152,-0.404c0.106,-0.118 0.249,-0.21 0.428,-0.278c0.18,-0.067 0.382,-0.101 0.605,-0.101c0.336,0 0.586,0.095 0.75,0.284c0.168,0.19 0.253,0.489 0.253,0.898l-0,0.437c-0,0.139 -0.002,0.278 -0.006,0.416l-0,0.442c-0,0.064 -0.003,0.135 -0.006,0.215c-0.004,0.08 -0.01,0.165 -0.018,0.254c0.067,-0.005 0.135,-0.009 0.206,-0.013c0.07,-0.004 0.136,-0.006 0.198,-0.006l0,0.335l-0.932,-0.002Zm-0.052,-1.517c-0.125,0.009 -0.255,0.028 -0.388,0.057c-0.129,0.03 -0.246,0.073 -0.351,0.133c-0.106,0.059 -0.192,0.135 -0.259,0.227c-0.063,0.093 -0.093,0.204 -0.093,0.336c0.007,0.142 0.05,0.248 0.129,0.315c0.082,0.067 0.178,0.102 0.287,0.102c0.137,-0 0.258,-0.029 0.364,-0.083c0.106,-0.059 0.209,-0.139 0.311,-0.24c-0.003,-0.047 -0.006,-0.093 -0.006,-0.139l-0,-0.366c0.004,-0.105 0.006,-0.219 0.006,-0.342m-1.256,-2.641l0,-0.455l1.59,-0l-0,0.43l-1.59,0.025Zm3.983,5.872c-0.344,-0 -0.622,-0.043 -0.833,-0.127c-0.207,-0.08 -0.358,-0.185 -0.451,-0.316c-0.091,-0.126 -0.136,-0.261 -0.136,-0.404c0,-0.114 0.024,-0.219 0.07,-0.316c0.051,-0.097 0.118,-0.183 0.199,-0.258c0.083,-0.072 0.174,-0.13 0.276,-0.172c-0.137,-0.046 -0.241,-0.112 -0.311,-0.195c-0.07,-0.088 -0.105,-0.196 -0.105,-0.323c-0,-0.135 0.048,-0.267 0.147,-0.397c0.1,-0.13 0.246,-0.219 0.433,-0.266c-0.176,-0.085 -0.317,-0.206 -0.423,-0.367c-0.105,-0.16 -0.16,-0.348 -0.163,-0.568c-0.005,-0.253 0.054,-0.474 0.176,-0.663c0.125,-0.19 0.283,-0.337 0.475,-0.442c0.196,-0.106 0.398,-0.159 0.61,-0.159c0.121,0 0.247,0.019 0.376,0.057c0.129,0.033 0.246,0.088 0.351,0.164c0.043,-0.122 0.1,-0.233 0.17,-0.335c0.071,-0.101 0.153,-0.181 0.247,-0.24c0.098,-0.059 0.2,-0.089 0.304,-0.089c0.114,0 0.2,0.032 0.259,0.096c0.059,0.062 0.088,0.147 0.088,0.252c0,0.033 -0.01,0.075 -0.03,0.127c-0.016,0.046 -0.045,0.086 -0.088,0.119c-0.043,0.034 -0.102,0.05 -0.176,0.05c-0.062,0 -0.119,-0.02 -0.17,-0.062c-0.047,-0.047 -0.076,-0.102 -0.087,-0.165c-0.082,0.017 -0.151,0.07 -0.206,0.158c-0.051,0.085 -0.084,0.171 -0.1,0.259c0.102,0.097 0.18,0.213 0.235,0.348c0.059,0.131 0.088,0.272 0.088,0.424c0,0.239 -0.061,0.451 -0.182,0.637c-0.118,0.186 -0.272,0.331 -0.463,0.437c-0.192,0.105 -0.399,0.158 -0.622,0.158c-0.066,-0 -0.129,-0.005 -0.187,-0.013c-0.059,-0.012 -0.124,-0.019 -0.194,-0.019c-0.125,0 -0.229,0.032 -0.311,0.095c-0.078,0.063 -0.108,0.139 -0.088,0.228c0.019,0.092 0.101,0.154 0.246,0.183c0.145,0.029 0.354,0.051 0.628,0.063c0.301,0.013 0.559,0.053 0.774,0.12c0.22,0.063 0.387,0.162 0.505,0.297c0.121,0.135 0.181,0.318 0.181,0.55c0,0.172 -0.044,0.326 -0.134,0.461c-0.086,0.134 -0.204,0.247 -0.353,0.335c-0.145,0.092 -0.306,0.163 -0.486,0.209c-0.18,0.046 -0.36,0.069 -0.54,0.069l0.001,-0Zm0.053,-0.311c0.317,0 0.561,-0.062 0.733,-0.189c0.176,-0.127 0.264,-0.27 0.264,-0.43c-0,-0.134 -0.043,-0.24 -0.129,-0.315c-0.087,-0.072 -0.208,-0.125 -0.364,-0.159c-0.153,-0.029 -0.332,-0.046 -0.539,-0.05c-0.102,-0.008 -0.206,-0.014 -0.311,-0.019c-0.106,-0.004 -0.204,-0.014 -0.293,-0.031c-0.09,0.067 -0.161,0.15 -0.212,0.246c-0.047,0.097 -0.072,0.199 -0.076,0.304c-0,0.194 0.084,0.35 0.252,0.467c0.168,0.118 0.394,0.177 0.675,0.177l-0,-0.001Zm-0.077,-2.566c0.134,0 0.243,-0.036 0.329,-0.106c0.09,-0.077 0.157,-0.176 0.199,-0.298c0.047,-0.126 0.07,-0.264 0.07,-0.411c0,-0.172 -0.023,-0.334 -0.07,-0.486c-0.047,-0.152 -0.115,-0.274 -0.205,-0.367c-0.09,-0.093 -0.205,-0.138 -0.347,-0.138c-0.191,-0 -0.34,0.081 -0.445,0.246c-0.106,0.164 -0.159,0.362 -0.159,0.594c0,0.185 0.024,0.351 0.07,0.499c0.052,0.143 0.124,0.257 0.218,0.341c0.094,0.084 0.207,0.126 0.34,0.126" style="fill:#333;fill-rule:nonzero;"/><path d="M54.699,6.894c-0.007,-0.067 -0.014,-0.125 -0.018,-0.176c-0.004,-0.051 -0.01,-0.103 -0.017,-0.158c-0.133,0.143 -0.276,0.253 -0.428,0.329c-0.153,0.072 -0.312,0.107 -0.476,0.107c-0.281,0 -0.495,-0.074 -0.639,-0.221c-0.141,-0.151 -0.211,-0.339 -0.211,-0.562c-0,-0.194 0.053,-0.362 0.159,-0.505c0.106,-0.144 0.244,-0.26 0.416,-0.348c0.172,-0.092 0.36,-0.16 0.563,-0.202c0.204,-0.047 0.403,-0.07 0.598,-0.07l0,-0.373c0,-0.135 -0.011,-0.259 -0.035,-0.373c-0.023,-0.118 -0.072,-0.213 -0.147,-0.284c-0.07,-0.077 -0.181,-0.114 -0.333,-0.114c-0.102,-0.004 -0.204,0.017 -0.306,0.063c-0.102,0.043 -0.18,0.114 -0.235,0.214c0.032,0.035 0.051,0.074 0.059,0.121c0.012,0.042 0.018,0.081 0.018,0.12c-0,0.059 -0.024,0.126 -0.07,0.202c-0.048,0.071 -0.128,0.106 -0.242,0.101c-0.093,-0 -0.166,-0.034 -0.216,-0.101c-0.047,-0.072 -0.07,-0.154 -0.07,-0.247c-0,-0.152 0.051,-0.286 0.152,-0.404c0.105,-0.118 0.248,-0.21 0.428,-0.278c0.18,-0.067 0.382,-0.101 0.604,-0.101c0.336,0 0.587,0.095 0.751,0.284c0.168,0.19 0.252,0.489 0.252,0.898l0,0.437c0,0.139 -0.002,0.278 -0.006,0.416l0,0.442c0,0.064 -0.001,0.135 -0.006,0.215c-0.004,0.08 -0.01,0.165 -0.017,0.254c0.067,-0.005 0.135,-0.009 0.205,-0.013c0.071,-0.004 0.137,-0.006 0.199,-0.006l-0,0.335l-0.932,-0.002Zm-0.053,-1.517c-0.125,0.009 -0.254,0.028 -0.388,0.057c-0.128,0.03 -0.246,0.073 -0.351,0.133c-0.106,0.059 -0.192,0.135 -0.258,0.227c-0.062,0.093 -0.094,0.204 -0.094,0.336c0.007,0.142 0.051,0.248 0.129,0.315c0.082,0.067 0.178,0.102 0.288,0.102c0.136,-0 0.258,-0.029 0.364,-0.083c0.105,-0.059 0.209,-0.139 0.311,-0.24c-0.004,-0.047 -0.007,-0.093 -0.007,-0.139l0,-0.366c0.004,-0.105 0.007,-0.219 0.007,-0.342l-0.001,0Z" style="fill:#333;fill-rule:nonzero;"/><path d="M57.098,6.996c-0.098,0 -0.198,-0.015 -0.3,-0.045c-0.097,-0.025 -0.187,-0.077 -0.269,-0.157c-0.083,-0.085 -0.147,-0.205 -0.194,-0.361c-0.047,-0.155 -0.07,-0.362 -0.07,-0.619l0.011,-1.726l-0.434,0l0,-0.354c0.106,-0.003 0.213,-0.046 0.323,-0.126c0.11,-0.08 0.206,-0.187 0.287,-0.322c0.082,-0.135 0.139,-0.281 0.171,-0.436l0.275,-0l0,0.884l0.904,0l-0,0.329l-0.904,0.013l-0.011,1.687c-0,0.16 0.012,0.301 0.035,0.423c0.028,0.118 0.07,0.211 0.129,0.278c0.062,0.063 0.146,0.095 0.252,0.095c0.091,0 0.182,-0.03 0.276,-0.089c0.097,-0.059 0.189,-0.156 0.275,-0.291l0.199,0.19c-0.094,0.147 -0.187,0.263 -0.282,0.348c-0.093,0.084 -0.183,0.145 -0.269,0.183c-0.086,0.042 -0.164,0.067 -0.235,0.076c-0.07,0.012 -0.127,0.018 -0.171,0.018l0.002,0.002Z" style="fill:#333;fill-rule:nonzero;"/><path d="M60.032,6.894c-0.009,-0.067 -0.015,-0.125 -0.018,-0.176c-0.004,-0.051 -0.01,-0.103 -0.018,-0.158c-0.133,0.143 -0.276,0.253 -0.428,0.329c-0.152,0.072 -0.311,0.107 -0.475,0.107c-0.282,0 -0.495,-0.074 -0.639,-0.221c-0.141,-0.151 -0.212,-0.339 -0.212,-0.562c0,-0.194 0.053,-0.362 0.158,-0.505c0.106,-0.144 0.246,-0.26 0.418,-0.348c0.171,-0.092 0.359,-0.16 0.563,-0.202c0.202,-0.047 0.402,-0.07 0.597,-0.07l0,-0.373c0,-0.135 -0.012,-0.259 -0.035,-0.373c-0.023,-0.118 -0.072,-0.213 -0.146,-0.284c-0.07,-0.077 -0.182,-0.114 -0.335,-0.114c-0.101,-0.004 -0.203,0.017 -0.305,0.063c-0.101,0.043 -0.179,0.114 -0.234,0.214c0.031,0.035 0.05,0.074 0.058,0.121c0.012,0.042 0.018,0.081 0.018,0.12c-0,0.059 -0.024,0.126 -0.071,0.202c-0.046,0.071 -0.126,0.106 -0.24,0.101c-0.094,-0 -0.166,-0.034 -0.217,-0.101c-0.047,-0.072 -0.071,-0.154 -0.071,-0.247c0,-0.152 0.051,-0.286 0.153,-0.404c0.106,-0.118 0.249,-0.21 0.428,-0.278c0.18,-0.067 0.381,-0.101 0.605,-0.101c0.336,0 0.586,0.095 0.75,0.284c0.168,0.19 0.253,0.489 0.253,0.898l-0,0.437c-0,0.139 -0.002,0.278 -0.006,0.416l0,0.442c0,0.064 -0.003,0.135 -0.007,0.215c-0.003,0.08 -0.009,0.165 -0.017,0.254c0.067,-0.005 0.135,-0.009 0.205,-0.013c0.071,-0.004 0.137,-0.006 0.199,-0.006l0,0.335l-0.931,-0.002Zm-0.054,-1.517c-0.124,0.009 -0.254,0.028 -0.387,0.057c-0.129,0.03 -0.246,0.073 -0.352,0.133c-0.105,0.059 -0.191,0.135 -0.258,0.227c-0.063,0.093 -0.093,0.204 -0.093,0.336c0.007,0.142 0.051,0.248 0.128,0.315c0.082,0.067 0.179,0.102 0.288,0.102c0.137,-0 0.258,-0.029 0.364,-0.083c0.106,-0.059 0.209,-0.139 0.311,-0.24c-0.004,-0.047 -0.006,-0.093 -0.006,-0.139l0,-0.366c0.004,-0.105 0.006,-0.219 0.006,-0.342l-0.001,0Z" style="fill:#333;fill-rule:nonzero;"/><path d="M34.91,12.583l0,-0.133c0.094,-0.005 0.159,-0.028 0.193,-0.067c0.035,-0.043 0.054,-0.1 0.056,-0.173c0.005,-0.074 0.008,-0.158 0.008,-0.251l-0,-1.73c-0,-0.054 0,-0.104 0.003,-0.152c0.002,-0.051 0.005,-0.096 0.007,-0.136c-0.045,0.002 -0.089,0.005 -0.134,0.008c-0.044,0.002 -0.088,0.005 -0.134,0.008l0,-0.176l1.725,-0l0.018,0.7l-0.123,-0c-0,-0.157 -0.023,-0.276 -0.071,-0.356c-0.046,-0.083 -0.109,-0.138 -0.186,-0.165c-0.077,-0.029 -0.162,-0.042 -0.256,-0.039l-0.271,0.007c-0.091,0.003 -0.155,0.027 -0.19,0.072c-0.034,0.043 -0.054,0.1 -0.059,0.172c-0.005,0.072 -0.007,0.155 -0.007,0.248l-0,0.689l0.646,0.004l-0.026,-0.348l0.164,-0l-0,0.844l-0.118,-0c-0,-0.12 -0.016,-0.205 -0.049,-0.257c-0.03,-0.05 -0.077,-0.081 -0.141,-0.091c-0.065,-0.011 -0.149,-0.014 -0.253,-0.008l-0.222,0.011l-0,0.842c-0,0.072 -0.001,0.135 -0.004,0.188c0,0.05 -0.002,0.093 -0.007,0.127c0.041,-0.002 0.084,-0.004 0.126,-0.004c0.042,-0.002 0.085,-0.004 0.127,-0.007c0.042,-0.003 0.084,-0.005 0.126,-0.005l0,0.176l-0.948,0.002Z" style="fill:#666;fill-rule:nonzero;"/><path d="M37.771,12.647c-0.173,-0 -0.33,-0.043 -0.471,-0.128c-0.141,-0.089 -0.254,-0.208 -0.338,-0.36c-0.082,-0.155 -0.122,-0.331 -0.122,-0.529c-0,-0.21 0.04,-0.4 0.122,-0.568c0.082,-0.168 0.194,-0.3 0.334,-0.396c0.141,-0.099 0.3,-0.148 0.476,-0.148c0.174,-0 0.331,0.045 0.472,0.136c0.141,0.088 0.253,0.209 0.337,0.361c0.085,0.152 0.127,0.325 0.127,0.52c0,0.205 -0.042,0.394 -0.127,0.564c-0.081,0.169 -0.193,0.302 -0.334,0.401c-0.141,0.098 -0.3,0.148 -0.476,0.148l0,-0.001Zm0.03,-0.16c0.131,-0 0.235,-0.04 0.312,-0.12c0.076,-0.08 0.132,-0.184 0.163,-0.313c0.035,-0.128 0.053,-0.263 0.053,-0.404c-0,-0.119 -0.012,-0.237 -0.034,-0.352c-0.02,-0.117 -0.052,-0.223 -0.096,-0.317c-0.046,-0.096 -0.103,-0.171 -0.175,-0.228c-0.069,-0.056 -0.153,-0.083 -0.253,-0.083c-0.128,-0 -0.233,0.039 -0.316,0.119c-0.081,0.08 -0.143,0.185 -0.182,0.313c-0.037,0.127 -0.056,0.265 -0.056,0.411c0,0.166 0.021,0.323 0.064,0.473c0.041,0.147 0.106,0.267 0.192,0.36c0.087,0.093 0.197,0.14 0.328,0.14l0,0.001Z" style="fill:#666;fill-rule:nonzero;"/><path d="M39.808,12.647c-0.134,-0 -0.247,-0.027 -0.338,-0.08c-0.089,-0.054 -0.158,-0.145 -0.205,-0.272c-0.045,-0.129 -0.066,-0.302 -0.066,-0.521l-0,-0.84c0.001,-0.043 0.006,-0.087 0.015,-0.132c-0.043,0.002 -0.086,0.005 -0.13,0.008c-0.043,-0 -0.085,0.001 -0.127,0.004l-0,-0.165l0.115,0c0.107,0 0.183,-0.011 0.23,-0.031c0.049,-0.025 0.088,-0.05 0.115,-0.077l0.108,0l0,1.221c0,0.23 0.029,0.401 0.088,0.517c0.062,0.112 0.166,0.166 0.312,0.164c0.095,-0.003 0.184,-0.033 0.268,-0.093c0.087,-0.061 0.156,-0.133 0.208,-0.215l-0,-1.029c-0,-0.063 0.001,-0.118 0.004,-0.164c0.003,-0.048 0.008,-0.095 0.015,-0.14c-0.044,0.002 -0.089,0.005 -0.133,0.008c-0.045,-0 -0.09,0.001 -0.135,0.004l0,-0.165l0.115,0c0.107,0 0.184,-0.011 0.231,-0.031c0.049,-0.025 0.087,-0.05 0.115,-0.077l0.107,0l-0.004,1.513c0,0.043 -0.001,0.102 -0.003,0.18c-0.002,0.077 -0.006,0.143 -0.011,0.196c0.045,-0.002 0.089,-0.005 0.134,-0.008c0.044,-0.003 0.089,-0.005 0.134,-0.007l-0,0.168l-0.532,0c-0.007,-0.046 -0.014,-0.088 -0.019,-0.128c-0.002,-0.04 -0.005,-0.078 -0.007,-0.112c-0.076,0.083 -0.169,0.155 -0.278,0.216c-0.109,0.058 -0.219,0.088 -0.327,0.088l0.001,-0Z" style="fill:#666;fill-rule:nonzero;"/><path d="M41.242,12.583l0,-0.12c0.077,-0 0.129,-0.02 0.159,-0.06c0.031,-0.043 0.048,-0.1 0.053,-0.172c0.004,-0.075 0.007,-0.16 0.007,-0.256l0.004,-0.913l-0,-0.128c0.003,-0.042 0.007,-0.087 0.015,-0.132c-0.045,0.002 -0.089,0.005 -0.135,0.008c-0.041,0.003 -0.084,0.004 -0.13,0.007l0,-0.168c0.11,0 0.191,-0.005 0.246,-0.016c0.057,-0.011 0.099,-0.024 0.126,-0.04c0.027,-0.016 0.05,-0.033 0.067,-0.052l0.108,0c0.002,0.019 0.003,0.04 0.003,0.064c0.003,0.023 0.005,0.05 0.008,0.08c0.002,0.028 0.003,0.063 0.003,0.1c0.055,-0.051 0.114,-0.097 0.178,-0.137c0.068,-0.04 0.137,-0.072 0.209,-0.095c0.075,-0.025 0.148,-0.037 0.22,-0.037c0.215,0 0.373,0.074 0.471,0.221c0.099,0.144 0.148,0.369 0.148,0.677l0,0.744c0,0.053 -0.001,0.102 -0.003,0.144c-0,0.04 -0.004,0.082 -0.012,0.127c0.04,-0.002 0.079,-0.003 0.116,-0.003c0.04,-0.003 0.079,-0.006 0.119,-0.008l-0,0.164l-0.758,0l-0,-0.119c0.076,-0 0.13,-0.021 0.16,-0.06c0.029,-0.044 0.046,-0.101 0.051,-0.173c0.005,-0.074 0.008,-0.16 0.008,-0.256l0,-0.56c-0.003,-0.23 -0.038,-0.404 -0.108,-0.521c-0.067,-0.118 -0.173,-0.175 -0.32,-0.172c-0.089,0.002 -0.177,0.027 -0.264,0.076c-0.084,0.048 -0.155,0.109 -0.211,0.184c0.002,0.021 0.003,0.045 0.003,0.072l-0,0.084l-0.003,1.021c-0,0.053 -0.001,0.102 -0.004,0.144c0,0.04 -0.004,0.082 -0.011,0.127c0.039,-0.002 0.078,-0.003 0.114,-0.003c0.04,-0.003 0.08,-0.006 0.12,-0.008l-0,0.164l-0.757,0.001Z" style="fill:#666;fill-rule:nonzero;"/><path d="M44.292,12.647c-0.151,-0 -0.288,-0.041 -0.408,-0.12c-0.122,-0.083 -0.219,-0.2 -0.291,-0.352c-0.069,-0.153 -0.104,-0.332 -0.104,-0.537c-0,-0.218 0.041,-0.412 0.123,-0.58c0.082,-0.168 0.195,-0.3 0.338,-0.397c0.146,-0.096 0.311,-0.143 0.494,-0.143c0.082,-0 0.162,0.011 0.241,0.035c0.082,0.021 0.147,0.047 0.194,0.076l-0,-0.668c0.002,-0.04 0.006,-0.087 0.011,-0.14c-0.045,0.002 -0.089,0.005 -0.135,0.007c-0.041,0.003 -0.085,0.006 -0.13,0.008l0,-0.168c0.109,0 0.194,-0.005 0.253,-0.016c0.059,-0.011 0.104,-0.024 0.133,-0.04c0.033,-0.016 0.058,-0.034 0.076,-0.052l0.107,-0l0,2.598c0,0.042 -0.001,0.084 -0.004,0.128c-0.002,0.042 -0.006,0.091 -0.011,0.143c0.045,-0.002 0.089,-0.005 0.13,-0.007c0.046,-0.003 0.09,-0.005 0.135,-0.008l-0,0.168l-0.532,0c-0.008,-0.039 -0.014,-0.076 -0.019,-0.108c-0.002,-0.035 -0.005,-0.068 -0.008,-0.099c-0.069,0.081 -0.154,0.149 -0.256,0.199c-0.1,0.049 -0.213,0.072 -0.337,0.072l0,0.001Zm0.134,-0.197c0.082,0 0.163,-0.025 0.245,-0.075c0.084,-0.052 0.154,-0.115 0.208,-0.188c-0.002,-0.032 -0.003,-0.066 -0.003,-0.1l-0,-0.121l0.003,-1.152c-0.059,-0.047 -0.125,-0.082 -0.196,-0.104c-0.07,-0.024 -0.142,-0.036 -0.216,-0.036c-0.124,0 -0.231,0.039 -0.323,0.116c-0.092,0.077 -0.161,0.185 -0.209,0.324c-0.047,0.139 -0.068,0.302 -0.063,0.489c0.005,0.162 0.029,0.308 0.071,0.436c0.045,0.128 0.106,0.23 0.186,0.304c0.082,0.072 0.181,0.108 0.297,0.108l-0,-0.001Zm2.422,0.133c-0.007,-0.046 -0.012,-0.085 -0.015,-0.12c-0.003,-0.034 -0.006,-0.071 -0.011,-0.108c-0.084,0.09 -0.176,0.163 -0.275,0.215c-0.096,0.052 -0.199,0.077 -0.308,0.077c-0.188,-0 -0.328,-0.046 -0.42,-0.136c-0.091,-0.094 -0.137,-0.207 -0.137,-0.341c0,-0.122 0.034,-0.228 0.104,-0.317c0.072,-0.09 0.163,-0.163 0.275,-0.22c0.114,-0.059 0.236,-0.101 0.368,-0.128c0.133,-0.029 0.263,-0.042 0.386,-0.039l0,-0.248c0,-0.094 -0.007,-0.182 -0.022,-0.264c-0.015,-0.083 -0.047,-0.151 -0.097,-0.205c-0.049,-0.053 -0.129,-0.081 -0.238,-0.084c-0.071,-0.003 -0.146,0.013 -0.223,0.044c-0.074,0.033 -0.128,0.087 -0.163,0.164c0.02,0.022 0.032,0.047 0.037,0.077c0.007,0.026 0.01,0.052 0.01,0.076c0,0.032 -0.011,0.07 -0.036,0.112c-0.024,0.04 -0.068,0.059 -0.13,0.057c-0.052,-0 -0.092,-0.019 -0.119,-0.057c-0.027,-0.04 -0.041,-0.086 -0.041,-0.14c0,-0.091 0.031,-0.172 0.093,-0.244c0.065,-0.072 0.153,-0.13 0.264,-0.172c0.111,-0.043 0.238,-0.064 0.379,-0.064c0.208,-0 0.361,0.06 0.46,0.18c0.1,0.117 0.148,0.304 0.146,0.56l-0,0.3c-0,0.099 -0.002,0.199 -0.004,0.301l-0,0.299c-0,0.043 -0.001,0.085 -0.003,0.128c-0.003,0.043 -0.007,0.091 -0.012,0.144c0.045,-0.002 0.088,-0.005 0.13,-0.008c0.045,-0.003 0.089,-0.005 0.134,-0.007l0,0.168l-0.532,0Zm-0.033,-0.981c-0.085,0.002 -0.174,0.015 -0.268,0.036c-0.091,0.018 -0.177,0.048 -0.256,0.088c-0.077,0.04 -0.14,0.093 -0.189,0.16c-0.048,0.063 -0.07,0.142 -0.067,0.236c0.005,0.099 0.034,0.173 0.089,0.224c0.057,0.048 0.124,0.072 0.201,0.072c0.101,-0 0.189,-0.02 0.263,-0.061c0.077,-0.042 0.152,-0.1 0.227,-0.176c-0.003,-0.029 -0.004,-0.06 -0.004,-0.095l0,-0.236c0.003,-0.072 0.004,-0.155 0.004,-0.248m1.494,1.045c-0.058,-0 -0.115,-0.01 -0.175,-0.028c-0.06,-0.016 -0.115,-0.05 -0.168,-0.1c-0.048,-0.051 -0.089,-0.125 -0.118,-0.221c-0.03,-0.098 -0.045,-0.227 -0.045,-0.387l0.008,-1.162l-0.287,0.004l0,-0.171c0.065,-0.003 0.13,-0.029 0.197,-0.077c0.067,-0.051 0.127,-0.119 0.179,-0.204c0.054,-0.085 0.092,-0.179 0.111,-0.28l0.127,-0l-0,0.56l0.624,-0l-0,0.155l-0.624,0.008l-0.008,1.113c0,0.12 0.009,0.223 0.026,0.308c0.02,0.083 0.051,0.146 0.093,0.188c0.042,0.043 0.097,0.064 0.163,0.064c0.07,-0 0.135,-0.021 0.194,-0.064c0.061,-0.042 0.115,-0.101 0.163,-0.176l0.1,0.088c-0.054,0.089 -0.108,0.158 -0.163,0.209c-0.052,0.05 -0.103,0.088 -0.153,0.112c-0.049,0.026 -0.095,0.042 -0.137,0.048c-0.042,0.008 -0.078,0.011 -0.107,0.011l-0,0.002Z" style="fill:#666;fill-rule:nonzero;"/><path d="M49.048,12.463c0.076,-0 0.129,-0.021 0.159,-0.06c0.03,-0.044 0.048,-0.101 0.053,-0.173c0.004,-0.075 0.006,-0.16 0.006,-0.256l0,-0.912c0,-0.044 0.002,-0.083 0.004,-0.121c0.003,-0.04 0.006,-0.086 0.011,-0.14c-0.044,0.003 -0.089,0.005 -0.134,0.008c-0.042,0.002 -0.085,0.005 -0.13,0.008l-0,-0.169c0.109,0 0.193,-0.005 0.253,-0.016c0.059,-0.01 0.104,-0.024 0.133,-0.04c0.033,-0.016 0.058,-0.033 0.075,-0.052l0.108,0l-0,1.617c-0,0.053 -0.002,0.102 -0.004,0.144c-0,0.04 -0.004,0.083 -0.011,0.128c0.04,-0.002 0.078,-0.004 0.115,-0.004c0.04,-0.003 0.079,-0.006 0.118,-0.008l0,0.164l-0.757,0l0.001,-0.118Zm0.356,-2.319c-0.052,0 -0.098,-0.022 -0.138,-0.067c-0.039,-0.046 -0.059,-0.101 -0.059,-0.168c0,-0.066 0.02,-0.123 0.059,-0.169c0.043,-0.048 0.09,-0.072 0.141,-0.072c0.058,0 0.105,0.024 0.141,0.072c0.04,0.046 0.06,0.102 0.06,0.169c0,0.067 -0.021,0.122 -0.063,0.168c-0.039,0.045 -0.087,0.067 -0.141,0.067" style="fill:#666;fill-rule:nonzero;"/><path d="M51.013,12.647c-0.174,-0 -0.331,-0.043 -0.472,-0.128c-0.141,-0.089 -0.254,-0.208 -0.338,-0.36c-0.082,-0.155 -0.122,-0.331 -0.122,-0.529c-0,-0.21 0.04,-0.4 0.122,-0.568c0.082,-0.168 0.194,-0.3 0.334,-0.396c0.142,-0.099 0.3,-0.148 0.477,-0.148c0.173,-0 0.33,0.045 0.471,0.136c0.141,0.088 0.253,0.209 0.338,0.361c0.084,0.152 0.126,0.325 0.126,0.52c0,0.205 -0.042,0.394 -0.126,0.564c-0.082,0.169 -0.194,0.302 -0.334,0.401c-0.142,0.098 -0.301,0.148 -0.476,0.148l-0,-0.001Zm0.03,-0.16c0.13,-0 0.234,-0.04 0.311,-0.12c0.076,-0.08 0.132,-0.184 0.163,-0.313c0.035,-0.128 0.053,-0.263 0.053,-0.404c-0,-0.119 -0.012,-0.237 -0.034,-0.352c-0.02,-0.117 -0.052,-0.223 -0.096,-0.317c-0.045,-0.096 -0.103,-0.171 -0.175,-0.228c-0.069,-0.056 -0.153,-0.083 -0.252,-0.083c-0.129,-0 -0.234,0.039 -0.317,0.119c-0.081,0.08 -0.142,0.185 -0.181,0.313c-0.038,0.127 -0.056,0.265 -0.056,0.411c-0,0.166 0.021,0.323 0.063,0.473c0.042,0.147 0.106,0.267 0.193,0.36c0.086,0.093 0.196,0.14 0.327,0.14l0.001,0.001Z" style="fill:#666;fill-rule:nonzero;"/><path d="M52.265,12.583l-0,-0.12c0.077,-0 0.13,-0.02 0.159,-0.06c0.031,-0.043 0.048,-0.1 0.053,-0.172c0.005,-0.075 0.007,-0.16 0.007,-0.256l0.004,-0.913l-0,-0.128c0.002,-0.042 0.007,-0.087 0.015,-0.132c-0.044,0.002 -0.09,0.005 -0.134,0.008c-0.042,0.003 -0.086,0.004 -0.13,0.007l0,-0.168c0.109,0 0.19,-0.005 0.245,-0.016c0.057,-0.011 0.099,-0.024 0.126,-0.04c0.028,-0.016 0.05,-0.033 0.067,-0.052l0.108,0c0.002,0.019 0.004,0.04 0.004,0.064c0.002,0.023 0.004,0.05 0.007,0.08c0.002,0.028 0.004,0.063 0.004,0.1c0.054,-0.051 0.113,-0.097 0.178,-0.137c0.067,-0.04 0.136,-0.072 0.208,-0.095c0.074,-0.025 0.148,-0.037 0.219,-0.037c0.216,0 0.373,0.074 0.472,0.221c0.099,0.144 0.148,0.369 0.148,0.677l0,0.744c0,0.053 -0,0.102 -0.003,0.144c0,0.04 -0.004,0.082 -0.011,0.127c0.039,-0.002 0.078,-0.003 0.114,-0.003c0.041,-0.003 0.08,-0.006 0.12,-0.008l0,0.164l-0.758,0l-0,-0.119c0.076,-0 0.13,-0.021 0.159,-0.06c0.031,-0.044 0.048,-0.101 0.052,-0.173c0.005,-0.074 0.008,-0.16 0.008,-0.256l-0,-0.56c-0.003,-0.23 -0.039,-0.404 -0.108,-0.521c-0.067,-0.118 -0.173,-0.175 -0.319,-0.172c-0.09,0.002 -0.178,0.027 -0.265,0.076c-0.084,0.048 -0.155,0.109 -0.212,0.184c0.003,0.021 0.004,0.045 0.004,0.072l0,0.084l-0.004,1.021c0,0.053 -0.001,0.102 -0.003,0.144c-0,0.04 -0.004,0.082 -0.011,0.127c0.039,-0.002 0.078,-0.003 0.115,-0.003c0.039,-0.003 0.079,-0.006 0.119,-0.008l-0,0.164l-0.757,0.001Z" style="fill:#666;fill-rule:nonzero;"/><path d="M23.792,21.165c1.618,-0 1.618,-0 1.97,0.201c0.179,0.178 0.307,0.371 0.308,0.62c0,0.032 0.001,0.065 0.001,0.098c0,0.035 0,0.071 0,0.107c0.001,0.056 0.001,0.056 0.001,0.113c0.001,0.124 0.001,0.247 0.002,0.371c-0,0.043 -0,0.085 -0,0.128c0.001,0.224 0.001,0.448 0.002,0.672c0,0.231 0.001,0.462 0.003,0.693c0.001,0.177 0.001,0.355 0.001,0.533c0,0.085 0.001,0.17 0.002,0.255c0,0.119 0,0.239 0,0.358c0.001,0.035 0.001,0.07 0.002,0.106c-0.003,0.265 -0.064,0.478 -0.244,0.686c-0.04,0.032 -0.04,0.032 -0.08,0.065c-0.026,0.022 -0.052,0.044 -0.079,0.066c-0.556,0.333 -1.278,0.165 -1.889,0.165l0,-5.237Z" style="fill:#07b0ef;fill-rule:nonzero;"/><path d="M47.586,21.182c0.039,-0.001 0.077,-0.002 0.117,-0.003c0.302,-0 0.556,0.061 0.783,0.257c0.244,0.242 0.281,0.484 0.28,0.805c0,0.037 0.001,0.075 0.001,0.113c0.001,0.123 0.001,0.246 0.001,0.369c0,0.085 0,0.171 0.001,0.257c0,0.179 0,0.359 -0,0.538c-0,0.23 0.001,0.459 0.002,0.689c0.001,0.177 0.001,0.354 0.001,0.531c0,0.084 0.001,0.169 0.001,0.254c0.001,0.118 0.001,0.237 0,0.355c0.001,0.035 0.001,0.069 0.002,0.105c-0.003,0.244 -0.064,0.433 -0.211,0.636c-0.289,0.261 -0.575,0.292 -0.964,0.292c-0.039,0.001 -0.078,0.002 -0.118,0.003c-0.291,0.001 -0.488,-0.045 -0.714,-0.219c-0.019,-0.022 -0.039,-0.043 -0.059,-0.065c-0.031,-0.032 -0.031,-0.032 -0.062,-0.064c-0.162,-0.246 -0.186,-0.498 -0.185,-0.781c0,-0.037 -0,-0.073 -0.001,-0.111c-0,-0.121 -0,-0.241 -0,-0.361c-0.001,-0.084 -0.001,-0.168 -0.001,-0.253c-0.001,-0.176 -0.001,-0.351 -0.001,-0.527c0.001,-0.225 -0.001,-0.451 -0.002,-0.676c-0.001,-0.173 -0.001,-0.347 -0.001,-0.52c-0,-0.083 -0,-0.166 -0.001,-0.249c-0.001,-0.116 -0.001,-0.233 0,-0.349c-0,-0.034 -0.001,-0.068 -0.001,-0.103c0.003,-0.262 0.08,-0.464 0.277,-0.656c0.265,-0.228 0.504,-0.267 0.855,-0.267Z" style="fill:#ee2329;fill-rule:nonzero;"/><path d="M19.299,21.15c0.031,-0 0.062,0 0.094,0c0.34,0.009 0.595,0.092 0.846,0.311c0.159,0.161 0.205,0.318 0.206,0.532c0.001,0.033 0.001,0.066 0.001,0.1c0,0.036 0,0.072 0,0.109c0.001,0.057 0.001,0.057 0.001,0.115c0.001,0.126 0.001,0.252 0.002,0.378c-0,0.043 -0,0.086 0,0.131c0.001,0.204 0.001,0.408 0.002,0.613c0,0.235 0.001,0.47 0.003,0.706c0.001,0.204 0.001,0.408 0.001,0.613c0.001,0.086 0.001,0.173 0.002,0.26c0.001,0.121 0.001,0.243 0,0.364c0.001,0.053 0.001,0.053 0.002,0.108c-0.002,0.251 -0.055,0.44 -0.232,0.632c-0.02,0.016 -0.041,0.031 -0.062,0.047c-0.03,0.023 -0.03,0.023 -0.061,0.047c-0.025,0.015 -0.049,0.031 -0.074,0.046c-0.03,0.019 -0.06,0.038 -0.091,0.058c-0.198,0.071 -0.386,0.062 -0.596,0.06c-0.062,0.001 -0.062,0.001 -0.125,0.001c-0.319,-0.001 -0.553,-0.042 -0.79,-0.258c-0.149,-0.191 -0.227,-0.345 -0.229,-0.584c-0,-0.033 -0.001,-0.066 -0.001,-0.1c-0,-0.036 -0,-0.072 -0,-0.109c-0.001,-0.038 -0.001,-0.076 -0.001,-0.115c-0.001,-0.126 -0.002,-0.252 -0.002,-0.378c-0.001,-0.043 -0.001,-0.086 -0.001,-0.131c-0.001,-0.204 -0.002,-0.408 -0.002,-0.613c-0.001,-0.235 -0.002,-0.47 -0.004,-0.706c-0.002,-0.204 -0.002,-0.408 -0.002,-0.613c-0.001,-0.086 -0.001,-0.173 -0.002,-0.26c-0.001,-0.121 -0.001,-0.242 -0.001,-0.364c-0.001,-0.036 -0.001,-0.071 -0.002,-0.108c0.003,-0.266 0.077,-0.434 0.274,-0.625c0.243,-0.219 0.518,-0.271 0.844,-0.267Z" style="fill:#02aeef;fill-rule:nonzero;"/><path d="M22.09,21.154c0.03,-0.001 0.06,-0.001 0.091,-0.002c0.297,0 0.563,0.056 0.787,0.249c0.027,0.022 0.054,0.044 0.081,0.067c0.197,0.221 0.201,0.438 0.2,0.714c-0,0.038 0,0.077 0,0.116c0.001,0.127 0.001,0.254 0.001,0.38c-0,0.088 0,0.177 0,0.265c0.001,0.185 0.001,0.369 0,0.554c-0,0.213 0,0.426 0.001,0.639c0.001,0.206 0.001,0.411 0.001,0.617c0,0.087 0,0.174 0.001,0.261c0,0.122 -0,0.244 -0.001,0.366c0.001,0.036 0.001,0.072 0.001,0.109c-0.002,0.258 -0.058,0.446 -0.242,0.642c-0.024,0.019 -0.048,0.038 -0.073,0.057c-0.024,0.02 -0.048,0.039 -0.073,0.059c-0.232,0.15 -0.47,0.134 -0.742,0.135c-0.043,0.002 -0.086,0.003 -0.13,0.004c-0.321,0.002 -0.497,-0.057 -0.733,-0.255c-0.017,-0.019 -0.033,-0.037 -0.05,-0.056c-0.016,-0.019 -0.033,-0.037 -0.05,-0.056c-0.161,-0.231 -0.178,-0.426 -0.178,-0.696c-0,-0.038 -0,-0.076 -0.001,-0.114c-0.001,-0.124 -0.001,-0.248 -0.001,-0.372c-0.001,-0.087 -0.001,-0.173 -0.001,-0.26c-0.001,-0.181 -0.001,-0.362 -0.001,-0.543c-0,-0.232 -0.002,-0.463 -0.004,-0.695c-0.001,-0.179 -0.001,-0.357 -0.001,-0.536c-0,-0.085 -0.001,-0.171 -0.002,-0.256c-0.001,-0.12 -0,-0.239 0,-0.359c-0.001,-0.052 -0.001,-0.052 -0.002,-0.106c0.004,-0.257 0.083,-0.435 0.253,-0.638c0.264,-0.231 0.514,-0.291 0.868,-0.29Z" style="fill:#03afef;fill-rule:nonzero;"/><path d="M35.594,21.182c0.039,-0.001 0.077,-0.003 0.117,-0.004c0.284,-0.003 0.459,0.055 0.672,0.231c0.174,0.166 0.307,0.31 0.308,0.55c0,0.034 0.001,0.067 0.001,0.101c-0,0.037 -0,0.073 -0,0.11c0,0.039 0,0.077 0.001,0.117c0,0.127 0.001,0.254 0.001,0.381c-0,0.088 0,0.177 0,0.265c0.001,0.185 0.001,0.371 0.001,0.556c-0,0.214 0.001,0.428 0.002,0.641c0.001,0.207 0.001,0.413 0.001,0.619c0,0.087 0.001,0.175 0.001,0.262c0.001,0.123 0.001,0.245 0,0.368c0.001,0.036 0.001,0.072 0.001,0.109c-0.002,0.253 -0.05,0.437 -0.232,0.634c-0.02,0.016 -0.041,0.031 -0.062,0.047c-0.03,0.023 -0.03,0.023 -0.061,0.047c-0.024,0.015 -0.049,0.031 -0.074,0.046c-0.029,0.019 -0.059,0.038 -0.09,0.058c-0.202,0.072 -0.398,0.065 -0.613,0.065c-0.042,0.001 -0.085,0.002 -0.129,0.003c-0.32,0 -0.496,-0.06 -0.732,-0.257c-0.016,-0.019 -0.032,-0.037 -0.049,-0.056c-0.017,-0.019 -0.034,-0.037 -0.051,-0.056c-0.161,-0.232 -0.177,-0.426 -0.177,-0.697c0,-0.038 -0,-0.076 -0.001,-0.115c-0,-0.124 -0,-0.248 -0,-0.373c-0.001,-0.086 -0.001,-0.173 -0.001,-0.26c-0.001,-0.181 -0.001,-0.363 -0.001,-0.544c0.001,-0.232 -0.001,-0.465 -0.002,-0.697c-0.001,-0.179 -0.001,-0.358 -0.001,-0.537c-0,-0.085 -0,-0.171 -0.001,-0.256c-0.001,-0.12 -0.001,-0.24 0,-0.36c-0,-0.035 -0.001,-0.07 -0.001,-0.106c0.003,-0.274 0.092,-0.437 0.286,-0.638c0.023,-0.019 0.047,-0.038 0.071,-0.057c0.023,-0.02 0.047,-0.039 0.071,-0.059c0.229,-0.144 0.477,-0.135 0.744,-0.138Z" style="fill:#ee1d23;fill-rule:nonzero;"/><path d="M13.672,21.154c0.03,-0.001 0.06,-0.001 0.09,-0.002c0.298,0 0.563,0.056 0.787,0.249c0.027,0.022 0.054,0.044 0.082,0.067c0.212,0.238 0.199,0.479 0.197,0.776c-0,0.068 -0,0.068 -0,0.137c-0,0.122 -0.001,0.245 -0.002,0.368c-0,0.128 -0.001,0.257 -0.001,0.385c-0,0.243 -0.001,0.487 -0.002,0.73c-0.001,0.276 -0.002,0.553 -0.002,0.83c-0.002,0.57 -0.004,1.139 -0.006,1.708l-0.745,0l-0,-1.641l-0.745,0l-0,1.606l-0.745,0c-0.005,-0.59 -0.009,-1.18 -0.012,-1.771c-0.001,-0.274 -0.002,-0.548 -0.005,-0.822c-0.002,-0.239 -0.004,-0.478 -0.004,-0.717c-0,-0.127 -0.001,-0.253 -0.003,-0.38c-0.002,-0.141 -0.002,-0.283 -0.002,-0.424c-0,-0.042 -0.001,-0.083 -0.002,-0.126c0.002,-0.276 0.064,-0.466 0.251,-0.683c0.265,-0.231 0.514,-0.291 0.869,-0.29Z" style="fill:#04afef;fill-rule:nonzero;"/><path d="M41.009,21.185c0.037,-0.002 0.074,-0.003 0.112,-0.004c0.314,-0.002 0.551,0.074 0.791,0.265c0.029,0.034 0.029,0.034 0.059,0.068c0.02,0.022 0.04,0.045 0.06,0.068c0.102,0.143 0.135,0.268 0.135,0.44c0,0.038 0,0.076 0,0.116c-0,0.042 -0,0.084 -0.001,0.127c0,0.044 0,0.088 0,0.134c0,0.121 0,0.242 -0,0.364c-0.001,0.126 -0.001,0.253 -0.001,0.38c-0,0.24 -0.001,0.48 -0.002,0.719c-0.001,0.274 -0.001,0.547 -0.001,0.82c-0.001,0.562 -0.002,1.123 -0.004,1.685l-0.745,0l-0,-1.606l-0.745,0l-0,1.606l-0.745,0c-0.004,-0.591 -0.008,-1.183 -0.01,-1.774c-0.001,-0.275 -0.002,-0.55 -0.004,-0.824c-0.002,-0.24 -0.003,-0.479 -0.004,-0.719c0,-0.127 -0,-0.253 -0.002,-0.38c-0.001,-0.142 -0.001,-0.283 -0.001,-0.425c-0.001,-0.063 -0.001,-0.063 -0.002,-0.127c0.002,-0.297 0.073,-0.465 0.286,-0.682c0.024,-0.019 0.048,-0.038 0.072,-0.057c0.024,-0.02 0.048,-0.039 0.072,-0.059c0.215,-0.141 0.428,-0.134 0.68,-0.135Z" style="fill:#ee1d23;fill-rule:nonzero;"/><path d="M31.652,21.2c1.684,-0 1.684,-0 1.991,0.248c0.029,0.034 0.029,0.034 0.058,0.068c0.02,0.023 0.04,0.046 0.061,0.069c0.101,0.136 0.135,0.231 0.134,0.399c0,0.038 0,0.077 0.001,0.117c-0.001,0.042 -0.001,0.085 -0.001,0.128c-0,0.045 -0,0.089 -0,0.135c-0,0.123 -0.001,0.245 -0.001,0.367c-0.001,0.128 -0.001,0.256 -0.001,0.384c0,0.242 -0.001,0.484 -0.001,0.726c-0.001,0.275 -0.002,0.551 -0.002,0.826c-0.001,0.567 -0.002,1.133 -0.004,1.7l-0.745,0l0,-4.713l-0.707,-0l-0,4.748l-0.783,0l0,-5.202Z" style="fill:#ee2329;fill-rule:nonzero;"/><path d="M28.896,21.2c1.66,-0 1.66,-0 2.026,0.281c0.222,0.253 0.23,0.483 0.226,0.799c-0,0.045 -0,0.089 -0,0.135c-0,0.122 -0.001,0.244 -0.002,0.365c-0.001,0.128 -0.001,0.255 -0.001,0.383c-0.001,0.241 -0.002,0.482 -0.004,0.722c-0.001,0.275 -0.002,0.549 -0.003,0.824c-0.001,0.564 -0.004,1.129 -0.007,1.693l-0.745,0l-0,-4.748l-0.745,-0l-0,4.713l-0.745,0l-0,-5.167Z" style="fill:#ee1f25;fill-rule:nonzero;"/><path d="M49.272,21.2c1.66,-0 1.66,-0 2.026,0.281c0.221,0.252 0.23,0.481 0.226,0.796c-0,0.044 -0,0.088 -0,0.134c-0,0.121 -0.001,0.241 -0.002,0.362c-0.001,0.127 -0.001,0.253 -0.001,0.38c-0.001,0.239 -0.002,0.478 -0.003,0.717c-0.002,0.272 -0.003,0.545 -0.004,0.817c-0.001,0.56 -0.004,1.12 -0.007,1.68l-0.745,0l-0,-4.713l-0.745,-0l-0,4.713l-0.745,0l-0,-5.167Z" style="fill:#ee1e24;fill-rule:nonzero;"/><path d="M37.203,21.2l0.745,-0c-0.001,0.113 -0.002,0.227 -0.002,0.344c-0.002,0.375 -0.002,0.751 -0.001,1.126c0,0.228 0,0.456 -0.001,0.683c-0.002,0.22 -0.002,0.44 -0,0.66c-0,0.083 -0.001,0.167 -0.001,0.251c-0.027,0.523 -0.027,0.523 0.212,0.97c0.087,0.073 0.087,0.073 0.165,0.121c0.211,-0.158 0.336,-0.314 0.367,-0.565c0.015,-0.227 0.012,-0.454 0.009,-0.682c0,-0.084 0.001,-0.168 0.001,-0.252c0.001,-0.22 0,-0.44 -0.001,-0.66c-0.002,-0.225 -0.001,-0.45 -0,-0.675c0.001,-0.44 -0.001,-0.881 -0.003,-1.321l0.745,-0c0.01,0.501 0.018,1.003 0.023,1.504c0.002,0.233 0.005,0.466 0.01,0.699c0.005,0.225 0.008,0.45 0.009,0.675c0.001,0.085 0.002,0.171 0.005,0.256c0.021,0.775 0.021,0.775 -0.266,1.068c-0.074,0.069 -0.15,0.133 -0.228,0.197c-0.043,0.047 -0.085,0.095 -0.124,0.145c-0.016,0.019 -0.032,0.038 -0.048,0.058c-0.022,0.027 -0.022,0.027 -0.045,0.055c-0.145,0.175 -0.294,0.346 -0.454,0.51c-0.142,-0.129 -0.272,-0.264 -0.4,-0.406c-0.02,-0.021 -0.039,-0.042 -0.059,-0.064c-0.173,-0.19 -0.342,-0.383 -0.509,-0.577c-0.026,-0.023 -0.052,-0.046 -0.078,-0.069c-0.107,-0.159 -0.091,-0.304 -0.088,-0.488c-0,-0.038 -0,-0.077 -0,-0.117c-0,-0.127 0.001,-0.254 0.002,-0.381c0,-0.088 0.001,-0.176 0.001,-0.265c0,-0.208 0.001,-0.416 0.003,-0.625c0.002,-0.237 0.002,-0.474 0.003,-0.711c0.002,-0.488 0.004,-0.976 0.008,-1.464Z" style="fill:#ee2026;fill-rule:nonzero;"/><path d="M10.879,21.158c0.043,0 0.043,0 0.088,0c0.108,0.001 0.215,0.002 0.323,0.003c0.362,0.002 0.362,0.002 0.731,0.004l0,1.641l-0.745,-0l0,-1.187l-0.745,-0l0,1.92l0.745,0l0,0.454l-0.745,-0l0,1.92l0.745,0l0,-1.152l0.745,0l0,1.606c-0.387,0.006 -0.387,0.006 -0.782,0.011c-0.081,0.002 -0.162,0.003 -0.245,0.005c-0.065,0 -0.13,0.001 -0.195,0.001c-0.033,0.001 -0.066,0.002 -0.1,0.003c-0.295,0 -0.46,-0.102 -0.68,-0.275c-0.216,-0.242 -0.255,-0.455 -0.253,-0.765c-0.001,-0.039 -0.001,-0.077 -0.002,-0.117c-0.001,-0.126 -0.001,-0.252 -0,-0.378c-0.001,-0.088 -0.001,-0.176 -0.001,-0.264c-0.001,-0.185 -0.001,-0.369 -0,-0.554c-0,-0.212 -0.001,-0.425 -0.003,-0.637c-0.001,-0.205 -0.001,-0.411 -0.001,-0.616c0,-0.087 -0,-0.174 -0.001,-0.261c-0.001,-0.121 -0.001,-0.243 0,-0.365c-0,-0.036 -0.001,-0.071 -0.001,-0.108c0.004,-0.252 0.075,-0.413 0.253,-0.603c0.27,-0.229 0.51,-0.29 0.869,-0.286Z" style="fill:#02aeef;fill-rule:nonzero;"/><path d="M7.925,21.161c0.043,-0 0.043,-0 0.088,-0c0.031,0 0.062,0 0.094,0.001c0.032,-0 0.064,-0 0.097,-0c0.102,-0 0.204,0 0.306,0.001c0.07,-0 0.139,0 0.208,0c0.17,0.001 0.34,0.001 0.509,0.002l0,0.978l-0.782,-0l0,-0.489l-0.708,-0l0,1.885l0.745,0c0.351,0.12 0.54,0.252 0.71,0.56c0.05,0.147 0.047,0.286 0.046,0.439c0.001,0.033 0.001,0.065 0.001,0.098c0,0.069 0,0.137 0,0.206c-0,0.104 0.001,0.208 0.002,0.312c-0,0.067 -0,0.134 -0,0.2c0,0.031 0.001,0.062 0.001,0.094c-0.002,0.272 -0.063,0.511 -0.275,0.71c-0.181,0.121 -0.339,0.214 -0.567,0.213c-0.031,0 -0.062,0 -0.094,0c-0.034,-0 -0.068,-0 -0.102,-0c-0.035,-0 -0.07,-0.001 -0.105,-0.001c-0.111,0 -0.221,-0 -0.331,-0.001c-0.075,0 -0.15,0 -0.225,-0c-0.184,-0 -0.367,-0.001 -0.551,-0.002l0,-0.943l0.708,0l0,0.489l0.782,0l0,-1.92l-0.856,-0c-0.292,-0.11 -0.461,-0.257 -0.596,-0.524c-0.07,-0.19 -0.086,-0.357 -0.086,-0.557c-0,-0.03 -0.001,-0.059 -0.001,-0.089c0,-0.062 0,-0.123 0,-0.185c0,-0.094 -0.001,-0.187 -0.001,-0.281c-0.001,-0.06 -0.001,-0.121 -0.001,-0.181c0,-0.027 -0,-0.055 -0.001,-0.084c0.003,-0.285 0.109,-0.48 0.314,-0.69c0.187,-0.16 0.419,-0.242 0.671,-0.241Z" style="fill:#06afef;fill-rule:nonzero;"/><path d="M53.187,21.193c0.046,0 0.046,0 0.094,0c0.097,0.001 0.195,0.002 0.293,0.002c0.067,0.001 0.134,0.001 0.201,0.001c0.163,0.001 0.326,0.002 0.488,0.004l0,0.977l-0.745,0l0,-0.523l-0.745,-0l0,1.92l0.745,0c0.348,0.122 0.545,0.23 0.707,0.545c0.078,0.239 0.064,0.489 0.061,0.737c-0.002,0.097 -0.001,0.194 -0,0.29c-0.001,0.352 -0.001,0.666 -0.241,0.956c-0.023,0.018 -0.046,0.035 -0.07,0.053c-0.023,0.019 -0.046,0.037 -0.07,0.056c-0.244,0.141 -0.461,0.171 -0.742,0.166c-0.032,0 -0.065,0 -0.099,-0c-0.103,-0.001 -0.206,-0.002 -0.309,-0.003c-0.071,-0.001 -0.141,-0.001 -0.212,-0.002c-0.171,-0.001 -0.343,-0.003 -0.515,-0.005l0,-0.977l0.745,-0l0,0.523l0.708,0l0,-1.885l-0.708,-0c-0.22,-0.064 -0.22,-0.064 -0.335,-0.14c-0.036,-0.023 -0.036,-0.023 -0.072,-0.046c-0.189,-0.135 -0.314,-0.305 -0.352,-0.529c-0.006,-0.096 -0.008,-0.192 -0.008,-0.289c-0,-0.035 -0.001,-0.07 -0.001,-0.107c-0,-0.074 -0,-0.148 -0,-0.222c0,-0.113 -0.002,-0.226 -0.004,-0.339c0,-0.073 0,-0.145 0,-0.218c-0,-0.033 -0.001,-0.066 -0.002,-0.101c0.004,-0.246 0.078,-0.408 0.253,-0.593c0.279,-0.213 0.584,-0.255 0.935,-0.251Z" style="fill:#ee2228;fill-rule:nonzero;"/><path d="M16.529,21.162c0.029,-0 0.057,-0 0.086,-0c0.105,-0 0.211,0 0.316,0.001c0.354,0.001 0.354,0.001 0.715,0.002l-0,1.641l-0.745,-0l-0,-1.187l-0.782,-0l-0,1.92l0.782,0l-0,0.489l-0.745,-0l-0,2.374l-0.782,0c-0.004,-0.591 -0.006,-1.183 -0.008,-1.774c-0.001,-0.275 -0.002,-0.55 -0.004,-0.825c-0.001,-0.239 -0.002,-0.478 -0.002,-0.718c-0.001,-0.127 -0.001,-0.253 -0.002,-0.38c-0.001,-0.142 -0.001,-0.283 -0.001,-0.425c-0.001,-0.042 -0.001,-0.084 -0.002,-0.127c0.002,-0.279 0.046,-0.457 0.231,-0.681c0.292,-0.263 0.551,-0.313 0.943,-0.31Z" style="fill:#08b0ef;fill-rule:nonzero;"/><path d="M42.529,21.2l2.235,-0l0,0.454l-0.745,-0l0,4.748l-0.745,0l0,-4.748l-0.745,-0l0,-0.454Z" style="fill:#ee2127;fill-rule:nonzero;"/><path d="M45.212,21.2l0.782,-0c0.001,0.673 0.001,1.346 0.002,2.019c-0,0.313 0,0.625 0.001,0.938c-0,0.272 0,0.544 0,0.817c0,0.144 0,0.288 0.001,0.433c-0,0.135 0,0.271 -0,0.406c-0,0.05 0,0.1 0,0.15c0,0.068 0,0.136 0,0.204c0,0.038 0,0.076 0,0.115c-0.004,0.085 -0.004,0.085 -0.041,0.12l-0.745,0l-0,-5.202Z" style="fill:#ee262c;fill-rule:nonzero;"/><rect x="27.629" y="21.2" width="0.745" height="5.167" style="fill:#ee1d23;fill-rule:nonzero;"/><rect x="24.575" y="21.619" width="0.745" height="4.294" style="fill:#f9fdfe;fill-rule:nonzero;"/><rect x="18.95" y="21.619" width="0.745" height="4.294" style="fill:#fdfefe;fill-rule:nonzero;"/><rect x="35.191" y="21.654" width="0.745" height="4.26" style="fill:#fefbfb;fill-rule:nonzero;"/><rect x="21.744" y="21.654" width="0.745" height="4.26" style="fill:#fdfefe;fill-rule:nonzero;"/><rect x="47.26" y="21.654" width="0.708" height="4.26" style="fill:#fff;fill-rule:nonzero;"/><path d="M32.071,17.429c0.37,-0.002 0.739,-0.002 1.109,0c0.008,0.182 -0.018,0.322 -0.079,0.494c-0.018,0.05 -0.035,0.099 -0.052,0.148c-0.009,0.026 -0.018,0.052 -0.028,0.079c-0.039,0.114 -0.074,0.229 -0.11,0.343c-0.039,0.122 -0.078,0.243 -0.118,0.365c-0.02,0.062 -0.04,0.124 -0.059,0.186c-0.182,0.588 -0.182,0.588 -0.418,0.744c-0.059,0.03 -0.119,0.059 -0.18,0.085c-0.049,0.028 -0.097,0.057 -0.146,0.085c-0.114,0.055 -0.114,0.055 -0.226,0.055c0.02,-0.228 0.067,-0.428 0.144,-0.645c0.016,-0.045 0.016,-0.045 0.032,-0.091c0.033,-0.095 0.067,-0.19 0.101,-0.286c0.023,-0.064 0.045,-0.128 0.068,-0.193c0.176,-0.503 0.176,-0.503 0.251,-0.671c-0.047,0.001 -0.093,0.001 -0.141,0.002c-0.587,0.003 -1.172,-0.015 -1.759,-0.037c-0.023,-0.08 -0.023,-0.08 -0.037,-0.174c0.13,-0.2 0.317,-0.401 0.56,-0.478c0.188,-0.032 0.377,-0.022 0.567,-0.015c0.174,0.005 0.347,0.004 0.521,0.004Z" style="fill:#ee2127;fill-rule:nonzero;"/><path d="M31.186,15.086c0.077,-0 0.153,0.001 0.229,0.003c0.019,0.017 0.019,0.017 0.038,0.034c-0.016,0.261 -0.087,0.495 -0.169,0.743c-0.014,0.04 -0.027,0.08 -0.041,0.121c-0.028,0.085 -0.056,0.169 -0.085,0.254c-0.043,0.128 -0.085,0.257 -0.126,0.386c-0.028,0.083 -0.056,0.165 -0.083,0.247c-0.013,0.038 -0.025,0.077 -0.037,0.116c-0.087,0.249 -0.184,0.378 -0.428,0.508c-0.039,0.022 -0.078,0.043 -0.119,0.066c-0.034,0.017 -0.069,0.034 -0.104,0.051c-0.036,0.018 -0.071,0.036 -0.107,0.054c-0.027,0.012 -0.053,0.025 -0.08,0.038c-0.012,-0.011 -0.024,-0.023 -0.037,-0.035c0.01,-0.273 0.1,-0.519 0.19,-0.777c0.055,-0.157 0.109,-0.314 0.162,-0.472c0.069,-0.2 0.138,-0.401 0.207,-0.601c-0.94,-0.035 -0.94,-0.035 -1.9,-0.07c0,-0.23 0.1,-0.317 0.262,-0.471c0.282,-0.24 0.59,-0.216 0.951,-0.203c0.063,0 0.127,0.001 0.19,0.001c0.126,0 0.252,0.003 0.378,0.006c0.237,0.005 0.473,0.004 0.709,0.001Z" style="fill:#ee2026;fill-rule:nonzero;"/><rect x="13.325" y="21.619" width="0.745" height="2.688" style="fill:#f9fdfe;fill-rule:nonzero;"/><rect x="40.667" y="21.654" width="0.745" height="2.653" style="fill:#fefbfb;fill-rule:nonzero;"/><path d="M27.704,18.337l1.75,-0c0,0.169 -0.002,0.242 -0.06,0.39c-0.019,0.049 -0.019,0.049 -0.038,0.1c-0.014,0.035 -0.027,0.07 -0.041,0.106c-0.028,0.072 -0.055,0.144 -0.083,0.216c-0.013,0.034 -0.026,0.069 -0.04,0.105c-0.044,0.118 -0.084,0.237 -0.122,0.357c-0.011,0.035 -0.022,0.069 -0.034,0.104c-0.024,0.074 -0.045,0.147 -0.066,0.221c-0.123,0.184 -0.321,0.287 -0.521,0.391l-0.075,-0c-0.008,-0.176 0.013,-0.303 0.082,-0.467c0.087,-0.218 0.16,-0.437 0.227,-0.661c0.036,-0.119 0.073,-0.231 0.138,-0.338c-0.039,0 -0.039,0 -0.08,0.001c-0.47,0.004 -0.94,-0.018 -1.41,-0.036c0.026,-0.142 0.054,-0.208 0.165,-0.308c0.023,-0.021 0.046,-0.042 0.07,-0.064c0.063,-0.047 0.063,-0.047 0.138,-0.047l-0,-0.07Z" style="fill:#ee2228;fill-rule:nonzero;"/><path d="M33.466,15.157c0.161,-0.001 0.322,-0 0.483,0.001c-0.03,0.322 -0.12,0.613 -0.223,0.92c-0.021,0.063 -0.041,0.127 -0.06,0.191c-0.183,0.598 -0.183,0.598 -0.472,0.783c-0.121,0.063 -0.187,0.097 -0.326,0.097c0.021,-0.2 0.063,-0.377 0.131,-0.567c0.012,-0.034 0.012,-0.034 0.024,-0.07c0.03,-0.084 0.06,-0.169 0.09,-0.254c0.067,-0.19 0.133,-0.38 0.202,-0.576l-1.453,0c-0.037,-0.14 -0.037,-0.14 0.004,-0.228c0.129,-0.154 0.235,-0.244 0.441,-0.28c0.385,-0.035 0.772,-0.014 1.159,-0.017Z" style="fill:#ee2127;fill-rule:nonzero;"/><path d="M29.523,16.136c0.188,-0.001 0.376,-0 0.565,0.001c-0.018,0.275 -0.095,0.528 -0.183,0.789c-0.024,0.073 -0.047,0.147 -0.07,0.22c-0.079,0.24 -0.147,0.428 -0.386,0.566c-0.084,0.038 -0.166,0.075 -0.255,0.101c0.02,-0.271 0.113,-0.513 0.207,-0.768c0.016,-0.044 0.032,-0.088 0.048,-0.132c0.039,-0.108 0.078,-0.215 0.117,-0.322c-0.035,0.001 -0.071,0.001 -0.108,0.001c-0.375,0.003 -0.747,-0.011 -1.121,-0.036c0.03,-0.145 0.085,-0.23 0.2,-0.332c0.276,-0.146 0.678,-0.086 0.986,-0.088Z" style="fill:#ee2228;fill-rule:nonzero;"/><path d="M31.338,18.509c0.052,0 0.105,0.001 0.157,0.001c0.127,0 0.254,0.001 0.381,0.001c-0.017,0.278 -0.099,0.531 -0.189,0.793c-0.026,0.074 -0.05,0.148 -0.074,0.222c-0.016,0.048 -0.032,0.095 -0.049,0.143c-0.014,0.042 -0.028,0.085 -0.043,0.129c-0.088,0.177 -0.247,0.265 -0.428,0.354l-0.111,0c0.023,-0.241 0.107,-0.462 0.188,-0.691c0.028,-0.079 0.056,-0.158 0.083,-0.237c0.012,-0.034 0.025,-0.069 0.037,-0.105c0.031,-0.08 0.031,-0.08 0.027,-0.154c-0.393,-0.011 -0.787,-0.023 -1.192,-0.035c0.036,-0.134 0.053,-0.172 0.149,-0.268c0.02,-0.021 0.04,-0.042 0.06,-0.064c0.27,-0.158 0.694,-0.091 1.004,-0.089Z" style="fill:#ee2228;fill-rule:nonzero;"/></g></svg>