<?xml version="1.0" encoding="UTF-8" standalone="no"?>
<svg xmlns="http://www.w3.org/2000/svg" xmlns:xlink="http://www.w3.org/1999/xlink" xmlns:serif="http://www.serif.com/" width="100%" height="100%" viewBox="0 0 864 329" version="1.1" xml:space="preserve" style="fill-rule:evenodd;clip-rule:evenodd;stroke-linejoin:round;stroke-miterlimit:2;">
    <g transform="matrix(1,0,0,1,-1529.61,-1488.37)">
        <g transform="matrix(0.919861,0,0,1.09839,172.964,-168.703)">
            <rect id="Artboard1" x="1474.83" y="1508.64" width="938.746" height="299.184" style="fill:none;"></rect>
            <g id="Artboard11" serif:id="Artboard1">
                <g transform="matrix(-3.34413,-2.55867,-3.05528,2.80057,2198.71,1531.2)">
                    <path d="M-0.13,-1.59C-0.954,-1.531 -1.347,-1.031 -1.01,-0.459C-0.815,-0.13 -0.513,0.037 -0.13,-0.068C0.396,-0.214 0.437,-0.643 0.412,-1.094L-0.13,-1.59Z" style="fill:rgb(3,4,5);fill-rule:nonzero;"></path>
                </g>
                <g transform="matrix(4.52967,0,0,3.79341,2383.92,1649.37)">
                    <path d="M0,0.115C0,7.181 -0.007,14.246 0.014,21.312C0.015,21.834 -0.133,21.927 -0.621,21.925C-5.266,21.903 -9.912,21.903 -14.558,21.917C-14.984,21.918 -15.11,21.829 -15.108,21.383C-15.088,16.864 -15.102,12.346 -15.08,7.827C-15.078,7.352 -15.21,7.26 -15.66,7.261C-20.515,7.273 -25.371,7.269 -30.226,7.245C-30.696,7.242 -30.8,7.369 -30.798,7.824C-30.784,12.343 -30.8,16.861 -30.79,21.38C-30.79,21.77 -30.864,21.906 -31.293,21.904C-35.974,21.887 -40.655,21.888 -45.336,21.903C-45.726,21.904 -45.827,21.809 -45.825,21.416C-45.805,16.897 -45.814,12.379 -45.79,7.86C-45.788,7.401 -45.898,7.286 -46.361,7.288C-50.36,7.299 -54.359,7.271 -58.359,7.285C-58.86,7.286 -58.95,7.128 -58.948,6.671C-58.929,2.188 -58.927,-2.296 -58.94,-6.779C-58.941,-7.201 -58.858,-7.333 -58.406,-7.331C-54.389,-7.31 -50.372,-7.324 -46.355,-7.306C-45.92,-7.304 -45.809,-7.416 -45.811,-7.851C-45.828,-12.3 -45.815,-16.749 -45.831,-21.197C-45.832,-21.649 -45.752,-21.812 -45.247,-21.81C-40.601,-21.788 -35.955,-21.79 -31.31,-21.808C-30.843,-21.81 -30.732,-21.69 -30.733,-21.231C-30.752,-16.782 -30.737,-12.333 -30.755,-7.884C-30.757,-7.429 -30.652,-7.309 -30.186,-7.311C-25.33,-7.329 -20.475,-7.326 -15.619,-7.309C-15.19,-7.307 -15.073,-7.401 -15.075,-7.844C-15.093,-12.31 -15.079,-16.776 -15.096,-21.242C-15.098,-21.67 -15.003,-21.791 -14.559,-21.789C-9.879,-21.772 -5.198,-21.771 -0.517,-21.79C-0.064,-21.792 0.014,-21.658 0.013,-21.239C0,-14.121 0.003,-7.003 0.003,0.115L0,0.115Z" style="fill:rgb(15,92,170);fill-rule:nonzero;"></path>
                </g>
                <g transform="matrix(4.52967,0,0,3.79341,2100.9,1655.09)">
                    <path d="M0,-2.962C-0.236,-2.869 -0.302,-2.678 -0.408,-2.531C-3.988,2.414 -7.564,7.361 -11.141,12.308C-11.516,12.826 -11.518,12.826 -11.88,12.326C-15.473,7.369 -19.065,2.412 -22.658,-2.544C-22.757,-2.68 -22.863,-2.811 -23.058,-3.064L-23.058,-2.388C-23.058,4.992 -23.063,12.372 -23.047,19.752C-23.046,20.234 -23.128,20.395 -23.658,20.392C-28.252,20.367 -32.845,20.37 -37.439,20.383C-37.858,20.385 -38.001,20.301 -38,19.849C-37.976,5.612 -37.965,-8.625 -37.963,-22.862C-37.963,-23.252 -37.864,-23.36 -37.468,-23.359C-33.189,-23.341 -28.909,-23.336 -24.63,-23.354C-24.237,-23.355 -24.075,-23.158 -23.89,-22.9C-19.879,-17.342 -15.867,-11.784 -11.854,-6.227C-11.507,-5.745 -11.507,-5.745 -11.154,-6.233C-7.139,-11.788 -3.121,-17.342 0.886,-22.903C1.102,-23.201 1.321,-23.324 1.698,-23.323C5.925,-23.305 10.152,-23.301 14.379,-23.316C14.823,-23.318 14.92,-23.197 14.918,-22.768C14.899,-18.878 14.897,-14.987 14.914,-11.096C14.916,-10.666 14.817,-10.545 14.374,-10.548C10.357,-10.572 6.339,-10.563 2.322,-10.587C1.882,-10.59 1.777,-10.469 1.777,-10.039C1.786,-4.369 1.78,1.301 1.759,6.972C1.757,7.406 1.86,7.517 2.299,7.515C6.317,7.497 10.334,7.511 14.352,7.495C14.763,7.494 14.911,7.557 14.909,8.02C14.888,11.98 14.891,15.941 14.906,19.901C14.907,20.282 14.827,20.396 14.425,20.395C9.778,20.379 5.132,20.378 0.486,20.396C0.048,20.398 -0.014,20.249 -0.013,19.866C-0.002,12.434 -0.002,5.001 0,-2.431L0,-2.962" style="fill:rgb(15,92,170);fill-rule:nonzero;"></path>
                </g>
                <g transform="matrix(4.52967,0,0,3.79341,1803.28,1684.09)">
                    <path d="M0,-18.302L-0.004,-18.302C-0.004,-16.855 0.006,-15.408 -0.012,-13.961C-0.017,-13.619 0.078,-13.521 0.422,-13.528C1.608,-13.552 2.796,-13.519 3.982,-13.554C5.272,-13.593 6.557,-13.704 7.788,-14.154C8.858,-14.545 9.59,-15.273 9.931,-16.353C10.316,-17.575 10.357,-18.827 10.028,-20.066C9.578,-21.761 8.277,-22.44 6.697,-22.755C4.572,-23.179 2.421,-23.033 0.278,-23.066C-0.08,-23.072 0.002,-22.834 0.002,-22.643C-0.002,-21.196 0,-19.749 0,-18.302M-0.005,-0.345L-0.01,-0.345C-0.01,1.278 0,2.9 -0.018,4.523C-0.021,4.867 0.074,4.979 0.421,4.965C1.031,4.939 1.644,4.958 2.255,4.957C3.932,4.955 5.609,4.94 7.256,4.566C8.917,4.188 10.317,3.465 10.901,1.716C11.246,0.683 11.256,-0.379 11.078,-1.439C10.829,-2.918 10.096,-4.069 8.71,-4.745C8.079,-5.052 7.412,-5.247 6.725,-5.379C4.597,-5.79 2.443,-5.633 0.299,-5.672C-0.089,-5.679 -0.002,-5.422 -0.003,-5.213C-0.006,-3.59 -0.005,-1.968 -0.005,-0.345M16.003,-10.852C16.739,-10.618 17.422,-10.421 18.091,-10.184C19.648,-9.632 21.094,-8.874 22.364,-7.806C24.659,-5.874 25.826,-3.386 25.944,-0.412C26.115,3.887 24.603,7.359 20.86,9.702C19.489,10.56 18,11.145 16.449,11.579C13.382,12.438 10.237,12.702 7.071,12.711C-0.073,12.73 -7.217,12.711 -14.361,12.721C-14.763,12.721 -14.883,12.633 -14.882,12.211C-14.864,-2.026 -14.857,-16.263 -14.862,-30.5C-14.862,-30.922 -14.74,-31.019 -14.335,-31.018C-7.802,-31.001 -1.269,-31.032 5.263,-30.984C8.848,-30.957 12.411,-30.648 15.861,-29.563C17.621,-29.009 19.283,-28.254 20.697,-27.042C24.263,-23.985 24.644,-18.325 21.549,-14.589C20.236,-13.006 18.563,-11.934 16.692,-11.138C16.484,-11.05 16.276,-10.965 16.003,-10.852" style="fill:rgb(15,92,170);fill-rule:nonzero;"></path>
                </g>
                <g transform="matrix(4.52967,0,0,3.79341,1584.89,1689.76)">
                    <path d="M0,-10.82C1.957,-11.118 3.8,-11.4 5.643,-11.68C7.97,-12.032 10.291,-12.43 12.632,-12.681C15.748,-13.015 18.871,-13.216 21.943,-12.405C24.561,-11.714 26.508,-10.185 26.97,-7.397C27.477,-4.342 26.81,-1.514 24.541,0.737C23.001,2.266 21.079,2.396 19.074,1.891C17.953,1.609 16.895,1.151 15.902,0.562C10.35,-2.729 5.208,-6.592 0.217,-10.664C0.177,-10.697 0.134,-10.724 0,-10.82" style="fill:rgb(241,90,38);fill-rule:nonzero;"></path>
                </g>
                <g transform="matrix(4.52967,0,0,3.79341,1578.27,1761.59)">
                    <path d="M0,-27.373C1.385,-26.401 2.677,-25.308 3.975,-24.227C6.885,-21.804 9.91,-19.519 12.72,-16.977C13.912,-15.899 15.03,-14.752 16.033,-13.489C19.215,-9.482 17.87,-4.342 15.35,-1.816C13.897,-0.359 12.027,0.011 10.158,-0.87C8.124,-1.829 6.677,-3.401 5.763,-5.449C4.786,-7.639 4.23,-9.962 3.672,-12.281C2.643,-16.564 1.823,-20.896 0.63,-25.14C0.42,-25.887 0.081,-26.599 0.007,-27.384L0,-27.373Z" style="fill:rgb(241,90,38);fill-rule:nonzero;"></path>
                </g>
                <g transform="matrix(4.52967,0,0,3.79341,1586.53,1576.33)">
                    <path d="M0,16.586C0.603,16.012 1.086,15.543 1.578,15.083C5.646,11.279 9.758,7.524 14.364,4.36C16.714,2.745 19.152,1.273 21.92,0.491C23.661,0 25.394,0.196 26.992,1.068C28.654,1.975 29.458,3.87 29.037,5.88C28.316,9.328 26.071,11.464 22.924,12.772C21.38,13.414 19.715,13.578 18.094,13.9C12.736,14.965 7.327,15.706 1.903,16.345C1.321,16.414 0.74,16.492 0,16.586" style="fill:rgb(241,90,38);fill-rule:nonzero;"></path>
                </g>
                <g transform="matrix(4.52967,0,0,3.79341,1581.94,1526.83)">
                    <path d="M0,26.398C0.396,25.012 0.775,23.622 1.19,22.242C2.625,17.469 4.191,12.742 6.426,8.27C7.523,6.077 8.801,4.001 10.663,2.349C11.644,1.48 12.75,0.841 14.037,0.535C16.576,-0.068 18.473,1.527 18.31,4.125C18.168,6.377 17.156,8.269 15.823,10.006C11.762,15.297 7.172,20.099 2.225,24.566C1.519,25.203 0.808,25.833 0.099,26.466C0.066,26.443 0.033,26.421 0,26.398" style="fill:rgb(241,90,38);fill-rule:nonzero;"></path>
                </g>
                <g transform="matrix(4.52967,0,0,3.79341,1568.18,1785.62)">
                    <path d="M0,-32.129C0.429,-29.912 0.865,-27.697 1.287,-25.478C1.962,-21.934 2.555,-18.377 2.915,-14.786C3.171,-12.233 3.372,-9.672 3.248,-7.108C3.152,-5.113 2.544,-3.266 1.068,-1.817C-0.785,0.002 -3.111,-0.309 -4.393,-2.571C-5.498,-4.52 -5.775,-6.68 -5.581,-8.852C-4.869,-16.799 -2.61,-24.396 -0.188,-31.95C-0.168,-32.013 -0.136,-32.071 -0.109,-32.131C-0.073,-32.13 -0.036,-32.13 0,-32.129" style="fill:rgb(241,90,38);fill-rule:nonzero;"></path>
                </g>
                <g transform="matrix(4.52967,0,0,3.79341,1557.5,1746.11)">
                    <path d="M0,-22.435C-0.64,-20.557 -1.258,-18.672 -1.923,-16.803C-3.284,-12.982 -4.476,-9.1 -6.002,-5.338C-6.526,-4.045 -7.137,-2.792 -7.962,-1.655C-8.28,-1.215 -8.63,-0.804 -9.076,-0.485C-9.874,0.084 -10.632,0.041 -11.358,-0.612C-12.28,-1.443 -12.662,-2.535 -12.808,-3.718C-13.208,-6.957 -12.101,-9.776 -10.21,-12.304C-8.419,-14.701 -6.246,-16.762 -4.081,-18.818C-2.765,-20.067 -1.42,-21.287 -0.088,-22.519C-0.058,-22.491 -0.029,-22.463 0,-22.435" style="fill:rgb(241,90,38);fill-rule:nonzero;"></path>
                </g>
                <g transform="matrix(4.52967,0,0,3.79341,1570.1,1542.87)">
                    <path d="M0,22.383C-1.004,19.779 -1.777,17.254 -2.279,14.648C-2.636,12.795 -2.877,10.924 -2.883,9.04C-2.894,5.262 -1.042,2.551 2.157,0.71C3.391,0 4.337,0.474 4.671,1.856C4.991,3.181 4.774,4.495 4.512,5.795C3.406,11.298 1.83,16.677 0.143,22.025C0.118,22.103 0.083,22.177 0,22.383" style="fill:rgb(241,90,38);fill-rule:nonzero;"></path>
                </g>
                <g transform="matrix(4.52967,0,0,3.79341,1554.34,1681.16)">
                    <path d="M0,-8.334C0.039,-8.184 -0.049,-8.135 -0.108,-8.08C-3.173,-5.197 -6.281,-2.366 -9.8,-0.028C-10.252,0.272 -10.715,0.549 -11.229,0.73C-12.39,1.139 -13.114,0.708 -13.267,-0.509C-13.462,-2.058 -13.191,-3.564 -12.783,-5.051C-12.527,-5.981 -12.15,-6.859 -11.553,-7.629C-10.43,-9.075 -8.895,-9.473 -7.166,-9.297C-4.824,-9.058 -2.485,-8.781 -0.165,-8.372C-0.102,-8.361 -0.042,-8.344 0,-8.334" style="fill:rgb(241,90,38);fill-rule:nonzero;"></path>
                </g>
                <g transform="matrix(4.52967,0,0,3.79341,1559.29,1589.69)">
                    <path d="M0,12.425C-0.914,12.207 -1.771,12.003 -2.628,11.798C-4.254,11.408 -5.881,11.021 -7.506,10.628C-8.983,10.271 -10.044,8.897 -9.904,7.379C-9.668,4.803 -8.487,2.661 -6.633,0.904C-5.68,0 -4.798,0.163 -4.044,1.241C-3.662,1.786 -3.362,2.379 -3.149,3.006C-2.126,6.021 -1.117,9.04 -0.104,12.058C-0.073,12.152 -0.05,12.249 0,12.425" style="fill:rgb(241,90,38);fill-rule:nonzero;"></path>
                </g>
                <g transform="matrix(4.52967,0,0,3.79341,1735.92,1753.62)">
                    <path d="M0,7.812C0.405,5.624 0.801,3.486 1.195,1.347C1.233,1.142 1.281,0.933 1.276,0.727C1.264,0.194 1.531,0.098 2.016,0.102C2.481,0.105 2.6,0.241 2.495,0.668C2.438,0.899 2.422,1.141 2.371,1.499C2.601,1.252 2.746,1.089 2.899,0.934C3.527,0.301 4.268,-0.076 5.182,-0.049C6.092,-0.022 6.528,0.361 6.926,1.511C7.045,1.372 7.15,1.249 7.255,1.127C7.878,0.405 8.652,-0.02 9.616,-0.047C10.721,-0.078 11.471,0.614 11.544,1.715C11.624,2.916 11.263,4.06 11.077,5.227C10.965,5.931 10.797,6.626 10.687,7.331C10.629,7.704 10.483,7.89 10.087,7.814C10.003,7.798 9.912,7.801 9.826,7.814C9.393,7.876 9.267,7.766 9.366,7.285C9.674,5.786 9.939,4.277 10.176,2.764C10.267,2.181 10.3,1.55 9.654,1.194C9.142,0.912 8.415,1.093 7.84,1.63C7.09,2.331 6.784,3.245 6.606,4.222C6.413,5.284 6.188,6.34 6.015,7.405C5.961,7.737 5.842,7.824 5.52,7.82C4.653,7.81 4.649,7.824 4.803,6.993C5.033,5.761 5.277,4.532 5.497,3.299C5.558,2.958 5.593,2.605 5.582,2.259C5.547,1.209 4.735,0.737 3.804,1.249C2.86,1.768 2.333,2.634 2.102,3.651C1.82,4.889 1.598,6.142 1.386,7.394C1.331,7.72 1.234,7.851 0.898,7.818C0.607,7.79 0.311,7.812 0,7.812" style="fill:rgb(3,4,5);fill-rule:nonzero;"></path>
                </g>
                <g transform="matrix(4.52967,0,0,3.79341,2030.89,1770.49)">
                    <path d="M0,-3.204C0.666,-3.939 1.443,-4.464 2.476,-4.495C3.66,-4.529 4.424,-3.82 4.491,-2.641C4.559,-1.456 4.209,-0.329 4.02,0.82C3.907,1.507 3.741,2.186 3.635,2.874C3.578,3.242 3.458,3.435 3.045,3.377C2.774,3.339 2.493,3.369 2.19,3.369C2.479,1.86 2.763,0.408 3.033,-1.046C3.094,-1.371 3.132,-1.703 3.137,-2.032C3.155,-3.175 2.308,-3.723 1.271,-3.208C0.113,-2.632 -0.423,-1.596 -0.658,-0.379C-0.873,0.732 -1.092,1.844 -1.269,2.961C-1.323,3.302 -1.447,3.38 -1.768,3.377C-2.705,3.37 -2.705,3.384 -2.535,2.497C-1.991,-0.342 -1.434,-3.179 -0.917,-6.023C-0.837,-6.468 -0.689,-6.639 -0.254,-6.567C-0.152,-6.55 -0.043,-6.553 0.06,-6.567C0.441,-6.615 0.541,-6.484 0.456,-6.097C0.251,-5.163 0.089,-4.218 -0.09,-3.278C-0.097,-3.215 -0.122,-3.103 -0.108,-3.097C-0.021,-3.066 -0.032,-3.161 0,-3.204" style="fill:rgb(3,4,5);fill-rule:nonzero;"></path>
                </g>
                <g transform="matrix(4.52967,0,0,3.79341,2079.67,1763.09)">
                    <path d="M0,2.826C0.013,2.912 0.033,3.138 0.082,3.357C0.268,4.185 0.93,4.578 1.731,4.329C2.066,4.224 2.357,4.031 2.613,3.788C3.222,3.211 3.61,2.5 3.863,1.711C4.087,1.014 4.178,0.287 4.324,-0.427C4.537,-1.468 4.42,-1.593 3.337,-1.47C3.268,-1.462 3.2,-1.447 3.132,-1.434C1.386,-1.091 0.012,0.717 0,2.826M3.784,3.596C3.172,4.421 2.556,5.148 1.56,5.408C0.036,5.806 -1.217,4.921 -1.372,3.358C-1.716,-0.096 1.285,-2.98 4.73,-2.507C6.015,-2.33 6.004,-2.332 5.775,-1.055C5.412,0.965 4.873,2.96 4.907,5.036C4.91,5.226 4.862,5.327 4.648,5.323C3.45,5.298 3.631,5.496 3.719,4.41C3.741,4.139 3.763,3.868 3.784,3.596" style="fill:rgb(3,4,5);fill-rule:nonzero;"></path>
                </g>
                <g transform="matrix(4.52967,0,0,3.79341,2262.38,1761.86)">
                    <path d="M0,3.198C0.017,3.651 0.077,4.297 0.759,4.599C1.433,4.897 2.017,4.618 2.534,4.179C3.049,3.742 3.399,3.185 3.673,2.574C4.055,1.72 4.153,0.798 4.336,-0.104C4.547,-1.141 4.431,-1.266 3.348,-1.148C3.279,-1.14 3.21,-1.125 3.142,-1.112C1.39,-0.773 0.013,1.032 0,3.198M3.794,3.946C3.441,4.305 3.167,4.703 2.808,5.031C2.215,5.574 1.521,5.866 0.715,5.827C-0.409,5.772 -1.242,4.909 -1.363,3.712C-1.715,0.215 1.274,-2.668 4.748,-2.181C6.007,-2.004 6.004,-2.005 5.783,-0.772C5.418,1.266 4.889,3.281 4.91,5.372C4.913,5.575 4.833,5.63 4.635,5.65C3.684,5.742 3.589,5.653 3.707,4.723C3.739,4.464 3.765,4.205 3.794,3.946" style="fill:rgb(3,4,5);fill-rule:nonzero;"></path>
                </g>
                <g transform="matrix(4.52967,0,0,3.79341,1816.85,1766.97)">
                    <path d="M0,1.394C0.008,2.284 0.475,3.072 1.218,3.32C2.016,3.586 2.875,3.277 3.517,2.482C4.199,1.637 4.524,0.653 4.512,-0.418C4.493,-2.11 3.161,-2.99 1.783,-2.256C1.423,-2.064 1.13,-1.795 0.889,-1.469C0.289,-0.658 0.02,0.261 0,1.394M2.919,-3.57C4.565,-3.553 5.621,-2.568 5.854,-0.832C6.146,1.352 4.731,3.694 2.749,4.307C0.6,4.972 -1.227,3.791 -1.362,1.554C-1.468,-0.218 -0.826,-1.73 0.622,-2.831C1.295,-3.342 2.072,-3.578 2.919,-3.57" style="fill:rgb(3,4,5);fill-rule:nonzero;"></path>
                </g>
                <g transform="matrix(4.52967,0,0,3.79341,2137.89,1777.34)">
                    <path d="M0,-4.877C0.634,-5.523 1.285,-6.04 2.162,-6.232C3.697,-6.57 4.772,-5.746 4.753,-4.18C4.735,-2.743 4.294,-1.367 4.065,0.04C4.04,0.194 4.012,0.348 3.981,0.502C3.738,1.693 3.738,1.693 2.443,1.512C2.731,-0.009 3.014,-1.529 3.31,-3.047C3.367,-3.341 3.386,-3.634 3.38,-3.93C3.357,-4.986 2.554,-5.494 1.575,-5.031C0.425,-4.486 -0.13,-3.476 -0.384,-2.287C-0.617,-1.198 -0.837,-0.104 -0.998,0.997C-1.066,1.465 -1.234,1.627 -1.688,1.566C-1.925,1.534 -2.17,1.56 -2.457,1.56C-2.132,-0.168 -1.815,-1.843 -1.504,-3.519C-1.368,-4.254 -1.246,-4.993 -1.119,-5.73C-1.048,-6.14 -0.765,-6.251 -0.089,-6.13C0.318,-6.058 0.059,-5.785 0.061,-5.603C0.063,-5.361 0.022,-5.119 0,-4.877" style="fill:rgb(3,4,5);fill-rule:nonzero;"></path>
                </g>
                <g transform="matrix(4.52967,0,0,3.79341,1909.45,1770.22)">
                    <path d="M0,-0.98C0.974,-0.954 1.86,-0.993 2.713,-1.29C3.135,-1.437 3.51,-1.662 3.617,-2.148C3.806,-3.01 3.045,-3.601 2.057,-3.319C0.913,-2.994 0.391,-2.092 0,-0.98M1.949,2.518C2.396,2.516 2.904,2.399 3.38,2.171C3.651,2.041 3.756,2.017 3.86,2.388C4.013,2.931 3.814,3.135 3.344,3.287C2.706,3.492 2.057,3.611 1.393,3.605C-0.347,3.59 -1.439,2.555 -1.503,0.775C-1.566,-0.974 -0.935,-2.469 0.429,-3.599C1.275,-4.299 2.259,-4.591 3.358,-4.345C4.267,-4.142 4.803,-3.606 4.925,-2.746C5.049,-1.871 4.73,-1.17 3.983,-0.689C3.323,-0.265 2.571,-0.104 1.805,-0.025C1.251,0.033 0.693,0.057 0.135,0.071C-0.08,0.077 -0.163,0.123 -0.181,0.356C-0.288,1.715 0.517,2.575 1.949,2.518" style="fill:rgb(3,4,5);fill-rule:nonzero;"></path>
                </g>
                <g transform="matrix(4.52967,0,0,3.79341,2359.36,1770.85)">
                    <path d="M0,-1.144C0.583,-1.194 1.353,-1.216 2.057,-1.561C2.626,-1.839 2.855,-2.301 2.714,-2.828C2.59,-3.292 2.193,-3.555 1.576,-3.534C0.456,-3.495 -0.157,-2.759 -0.624,-1.862C-1.002,-1.134 -0.984,-1.123 0,-1.144M1.809,-4.592C2.996,-4.584 3.813,-3.994 4.021,-2.992C4.232,-1.974 3.693,-1.052 2.604,-0.603C1.552,-0.168 0.436,-0.098 -0.682,-0.098C-1.013,-0.098 -1.088,-0.002 -1.087,0.311C-1.079,1.885 -0.076,2.639 1.602,2.289C1.94,2.218 2.269,2.09 2.588,1.954C2.815,1.857 2.873,1.906 2.93,2.14C3.1,2.853 3.099,2.881 2.425,3.12C1.794,3.345 1.138,3.449 0.474,3.439C-1.299,3.412 -2.389,2.325 -2.41,0.484C-2.429,-1.203 -1.802,-2.644 -0.497,-3.749C0.163,-4.307 0.938,-4.593 1.809,-4.592" style="fill:rgb(3,4,5);fill-rule:nonzero;"></path>
                </g>
                <g transform="matrix(4.52967,0,0,3.79341,2347.25,1546.68)">
                    <path d="M0,-3.042C-0.001,-3.469 -0.345,-3.798 -0.778,-3.784C-1.192,-3.772 -1.48,-3.487 -1.478,-3.093C-1.477,-2.738 -1.019,-2.283 -0.651,-2.269C-0.357,-2.258 0.001,-2.683 0,-3.042M-0.734,0.604C-0.231,0.612 0.123,0.289 0.116,-0.17C0.108,-0.629 -0.384,-1.125 -0.827,-1.12C-1.198,-1.116 -1.559,-0.693 -1.566,-0.256C-1.573,0.25 -1.238,0.596 -0.734,0.604M-2.01,-1.657C-2.738,-2.139 -3.06,-2.763 -2.775,-3.563C-2.491,-4.359 -1.822,-4.674 -1.027,-4.758C-0.803,-4.782 -0.574,-4.777 -0.349,-4.762C0.506,-4.705 1.123,-4.271 1.32,-3.576C1.537,-2.81 1.188,-2.269 0.535,-1.809C0.815,-1.617 1.105,-1.467 1.299,-1.203C1.913,-0.365 1.615,0.825 0.638,1.323C-0.128,1.714 -0.941,1.74 -1.751,1.5C-2.469,1.287 -2.989,0.835 -3.075,0.051C-3.162,-0.74 -2.739,-1.266 -2.01,-1.657" style="fill:rgb(3,4,5);fill-rule:nonzero;"></path>
                </g>
                <g transform="matrix(4.52967,0,0,3.79341,2315.99,1544.25)">
                    <path d="M0,-2.03C-0.006,-1.391 0.309,-1.012 0.849,-1.008C1.367,-1.005 1.701,-1.328 1.703,-1.835C1.705,-2.555 1.366,-3.038 0.848,-3.056C0.342,-3.073 0.006,-2.667 0,-2.03M1.572,-0.245C1.176,-0.058 0.768,0.084 0.319,0.044C-0.752,-0.052 -1.454,-0.788 -1.475,-1.835C-1.499,-3.006 -0.671,-3.977 0.467,-4.114C2.132,-4.314 3.213,-3.265 3.222,-1.441C3.233,0.855 1.795,2.284 -0.499,2.284C-0.849,2.284 -1.001,2.172 -0.92,1.842C-0.854,1.577 -1.2,1.119 -0.535,1.109C0.416,1.094 1.269,0.843 1.619,-0.197C1.63,-0.234 1.658,-0.299 1.651,-0.303C1.593,-0.337 1.585,-0.285 1.572,-0.245" style="fill:rgb(3,4,5);fill-rule:nonzero;"></path>
                </g>
                <g transform="matrix(4.52967,0,0,3.79341,1995.73,1784.33)">
                    <path d="M0,-10.032C-0.114,-9.44 -0.205,-8.913 -0.32,-8.39C-0.391,-8.069 -0.306,-7.935 0.037,-7.97C0.262,-7.993 0.491,-7.974 0.718,-7.974C1.502,-7.974 1.494,-7.976 1.324,-7.226C1.273,-7.001 1.181,-6.9 0.94,-6.909C0.539,-6.925 0.137,-6.909 -0.265,-6.915C-0.477,-6.919 -0.619,-6.888 -0.662,-6.625C-0.9,-5.165 -1.276,-3.729 -1.427,-2.254C-1.507,-1.466 -1.273,-1.233 -0.501,-1.243C-0.366,-1.245 -0.091,-1.403 -0.136,-1.076C-0.178,-0.776 0.06,-0.337 -0.361,-0.201C-0.951,-0.01 -1.578,0 -2.142,-0.319C-2.779,-0.681 -2.865,-1.301 -2.813,-1.957C-2.718,-3.141 -2.395,-4.286 -2.196,-5.452C-2.144,-5.761 -2.116,-6.081 -2.008,-6.371C-1.814,-6.892 -2.053,-6.949 -2.486,-6.925C-2.644,-6.917 -2.937,-6.756 -2.968,-7.119C-3.007,-7.582 -2.775,-8.01 -2.469,-7.963C-1.837,-7.866 -1.641,-8.129 -1.56,-8.729C-1.424,-9.729 -1.379,-9.723 0,-10.032" style="fill:rgb(3,4,5);fill-rule:nonzero;"></path>
                </g>
                <g transform="matrix(4.52967,0,0,3.79341,2233.78,1759.12)">
                    <path d="M0,5.053C0.222,6.143 0.222,6.146 -0.825,6.384C-1.406,6.516 -1.992,6.568 -2.589,6.487C-3.852,6.315 -4.738,5.569 -4.961,4.328C-5.464,1.535 -3.442,-1.515 -0.268,-1.49C-0.026,-1.488 0.222,-1.46 0.456,-1.402C1.479,-1.147 1.319,-1.302 1.006,-0.36C0.932,-0.135 0.842,-0.117 0.627,-0.187C-1.57,-0.904 -3.073,0.645 -3.518,2.382C-3.591,2.666 -3.628,2.965 -3.636,3.259C-3.677,4.871 -2.717,5.683 -1.124,5.376C-0.75,5.304 -0.389,5.167 0,5.053" style="fill:rgb(3,4,5);fill-rule:nonzero;"></path>
                </g>
                <g transform="matrix(4.52967,0,0,3.79341,2186.21,1553.17)">
                    <path d="M0,-6.723C0.558,-6.699 0.954,-6.65 1.341,-6.53C1.583,-6.456 1.696,-6.341 1.586,-6.077C1.519,-5.917 1.461,-5.747 1.44,-5.577C1.399,-5.248 1.237,-5.236 0.973,-5.338C0.543,-5.504 0.093,-5.575 -0.362,-5.476C-0.643,-5.415 -0.897,-5.283 -0.93,-4.946C-0.96,-4.636 -0.767,-4.46 -0.517,-4.345C-0.138,-4.17 0.252,-4.019 0.631,-3.844C1.567,-3.411 2.013,-2.723 1.907,-1.894C1.792,-0.996 1.176,-0.387 0.19,-0.169C-0.582,0 -1.334,-0.084 -2.086,-0.285C-2.406,-0.371 -2.541,-0.508 -2.441,-0.874C-2.234,-1.63 -2.253,-1.641 -1.53,-1.434C-1.103,-1.312 -0.671,-1.273 -0.235,-1.339C0.052,-1.383 0.301,-1.51 0.369,-1.833C0.439,-2.172 0.286,-2.405 0.005,-2.572C-0.505,-2.876 -1.106,-2.982 -1.6,-3.324C-2.776,-4.141 -2.686,-5.744 -1.414,-6.402C-1.185,-6.52 -0.93,-6.604 -0.677,-6.657C-0.406,-6.713 -0.123,-6.712 0,-6.723" style="fill:rgb(3,4,5);fill-rule:nonzero;"></path>
                </g>
                <g transform="matrix(4.52967,0,0,3.79341,2216.77,1549.94)">
                    <path d="M0,-3.402C0.406,-3.842 0.842,-4.074 1.366,-4.115C2.193,-4.179 2.893,-3.654 3.049,-2.795C3.244,-1.726 3.106,-0.64 3.142,0.437C3.148,0.62 3.058,0.68 2.888,0.677C2.592,0.672 2.294,0.662 1.999,0.681C1.746,0.698 1.669,0.605 1.675,0.356C1.689,-0.323 1.681,-1.002 1.678,-1.682C1.678,-1.855 1.686,-2.033 1.653,-2.202C1.579,-2.586 1.421,-2.904 0.951,-2.898C0.485,-2.893 0.223,-2.619 0.188,-2.196C0.137,-1.591 0.155,-0.979 0.152,-0.37C0.148,0.777 0.151,0.769 -1.013,0.683C-1.237,0.666 -1.314,0.6 -1.315,0.378C-1.319,-0.981 -1.329,-2.339 -1.347,-3.698C-1.35,-3.917 -1.29,-4.026 -1.057,-4.009C-0.918,-3.999 -0.775,-3.99 -0.639,-4.011C-0.218,-4.077 0.039,-3.952 0,-3.402" style="fill:rgb(3,4,5);fill-rule:nonzero;"></path>
                </g>
                <g transform="matrix(4.52967,0,0,3.79341,1863.8,1753.67)">
                    <path d="M0,7.8C0.394,5.607 0.779,3.469 1.16,1.329C1.212,1.038 1.253,0.744 1.271,0.449C1.287,0.191 1.382,0.104 1.654,0.1C2.489,0.088 2.488,0.073 2.391,0.913C2.37,1.102 2.363,1.292 2.34,1.607C2.567,1.302 2.715,1.081 2.886,0.878C3.364,0.306 3.945,-0.069 4.724,-0.065C4.954,-0.064 5.047,0.016 4.993,0.245C4.961,0.38 4.912,0.516 4.91,0.653C4.9,1.107 4.73,1.301 4.228,1.303C3.65,1.304 3.253,1.72 2.911,2.152C2.287,2.942 2.048,3.885 1.869,4.848C1.716,5.668 1.556,6.488 1.423,7.312C1.365,7.672 1.242,7.869 0.832,7.807C0.578,7.769 0.313,7.8 0,7.8" style="fill:rgb(3,4,5);fill-rule:nonzero;"></path>
                </g>
                <g transform="matrix(4.52967,0,0,3.79341,2320.35,1777.04)">
                    <path d="M0,-4.611C0.254,-4.938 0.439,-5.212 0.66,-5.453C1.062,-5.888 1.554,-6.16 2.158,-6.224C2.549,-6.266 2.721,-6.156 2.595,-5.741C2.545,-5.576 2.523,-5.401 2.498,-5.229C2.465,-4.994 2.388,-4.868 2.1,-4.885C1.471,-4.921 1.012,-4.574 0.626,-4.121C-0.067,-3.309 -0.331,-2.322 -0.513,-1.303C-0.664,-0.464 -0.829,0.373 -0.956,1.215C-1.009,1.564 -1.158,1.655 -1.499,1.648C-2.384,1.629 -2.376,1.647 -2.229,0.802C-1.859,-1.322 -1.367,-3.426 -1.116,-5.571C-1.098,-5.726 -1.162,-5.992 -0.96,-6.023C-0.639,-6.073 -0.299,-6.057 0.025,-6.016C0.17,-5.997 0.094,-5.807 0.087,-5.696C0.064,-5.356 -0.047,-5.023 0,-4.611" style="fill:rgb(3,4,5);fill-rule:nonzero;"></path>
                </g>
                <g transform="matrix(4.52967,0,0,3.79341,2359.19,1528.68)">
                    <path d="M0,6.283C0.871,4.585 1.7,2.968 2.572,1.269C1.726,1.269 0.952,1.253 0.181,1.276C-0.167,1.287 -0.313,1.213 -0.297,0.826C-0.258,-0.07 -0.387,0.081 0.448,0.074C1.545,0.065 2.644,0.08 3.741,0.066C4.027,0.062 4.143,0.129 4.132,0.438C4.119,0.789 4.083,1.113 3.919,1.44C3.204,2.869 2.496,4.302 1.828,5.754C1.641,6.161 1.433,6.353 0.978,6.29C0.688,6.25 0.387,6.283 0,6.283" style="fill:rgb(3,4,5);fill-rule:nonzero;"></path>
                </g>
                <g transform="matrix(4.52967,0,0,3.79341,2294.16,1547.11)">
                    <path d="M0,-3.464C-0.266,-3.346 -0.434,-3.257 -0.611,-3.196C-0.803,-3.129 -1.081,-2.881 -1.162,-3.014C-1.323,-3.281 -1.34,-3.636 -1.406,-3.957C-1.413,-3.989 -1.358,-4.054 -1.318,-4.074C-0.508,-4.469 0.275,-4.953 1.243,-4.792C1.446,-4.758 1.438,-4.631 1.438,-4.49C1.438,-2.626 1.434,-0.761 1.442,1.103C1.443,1.357 1.351,1.418 1.107,1.43C0,1.481 0,1.489 0,0.374L0,-3.464Z" style="fill:rgb(3,4,5);fill-rule:nonzero;"></path>
                </g>
                <g transform="matrix(4.52967,0,0,3.79341,2246.28,1533.82)">
                    <path d="M0,5.05C-1.568,5.033 -2.571,4.036 -2.518,2.526C-2.466,1.026 -1.218,0 0.387,0.141C0.456,0.147 0.525,0.161 0.594,0.171C1.252,0.265 1.457,0.719 1.092,1.269C0.949,1.485 0.778,1.328 0.625,1.303C-0.483,1.124 -1.196,1.857 -0.955,2.935C-0.799,3.634 -0.156,3.995 0.682,3.832C0.935,3.783 1.173,3.676 1.165,4.09C1.159,4.402 1.533,4.837 0.879,4.927C0.586,4.967 0.293,5.009 0,5.05" style="fill:rgb(3,4,5);fill-rule:nonzero;"></path>
                </g>
                <g transform="matrix(4.52967,0,0,3.79341,2199,1543.56)">
                    <path d="M0,0.053C0,-0.574 0.02,-1.201 -0.007,-1.826C-0.023,-2.198 0.06,-2.346 0.474,-2.337C1.483,-2.316 1.484,-2.339 1.484,-1.314C1.484,-0.218 1.476,0.879 1.489,1.975C1.492,2.261 1.418,2.361 1.112,2.366C0,2.386 0,2.399 0,1.306L0,0.053" style="fill:rgb(3,4,5);fill-rule:nonzero;"></path>
                </g>
                <g transform="matrix(4.52967,0,0,3.79341,1557.11,1660.47)">
                    <path d="M0,0.055C0.044,0.023 0.066,-0.084 0.135,-0.025C0.183,0.017 0.152,0.097 0.088,0.139C0.058,0.111 0.029,0.083 0,0.055" style="fill:rgb(241,90,38);fill-rule:nonzero;"></path>
                </g>
                <g transform="matrix(-4.50197,-0.418913,-0.500219,3.77021,1577.99,1657.53)">
                    <path d="M-0.074,0.038L-0.002,0.038C-0.003,0.023 -0.004,0.007 -0.006,-0.008C-0.026,0.012 -0.047,0.031 -0.068,0.05L-0.074,0.038" style="fill:rgb(241,90,38);fill-rule:nonzero;"></path>
                </g>
                <g transform="matrix(4.52967,0,0,3.79341,2030.89,1758.58)">
                    <path d="M0,-0.064C-0.032,-0.021 -0.021,0.074 -0.108,0.043C-0.122,0.037 -0.097,-0.075 -0.09,-0.138C-0.06,-0.113 -0.03,-0.089 0,-0.064" style="fill:rgb(3,4,5);fill-rule:nonzero;"></path>
                </g>
                <g transform="matrix(4.52967,0,0,3.79341,2323.11,1543.15)">
                    <path d="M0,0.044C0.013,0.005 0.02,-0.048 0.079,-0.014C0.086,-0.01 0.058,0.055 0.046,0.092C0.031,0.076 0.016,0.06 0,0.044" style="fill:rgb(3,4,5);fill-rule:nonzero;"></path>
                </g>
                <g transform="matrix(4.52967,0,0,3.79341,2267.76,1545.22)">
                    <path d="M0,-1.069C-0.054,-0.842 -0.364,-0.994 -0.558,-0.961C-0.642,-0.947 -0.73,-0.959 -0.816,-0.959C-0.903,-0.959 -0.99,-0.948 -1.075,-0.961C-1.254,-0.987 -1.521,-0.856 -1.595,-1.054C-1.684,-1.292 -1.5,-1.515 -1.314,-1.676C-1.021,-1.929 -0.685,-1.943 -0.353,-1.763C-0.083,-1.617 0.061,-1.326 0,-1.069M0.319,-2.637C-0.8,-3.224 -2.231,-2.733 -2.784,-1.573C-3.413,-0.253 -2.959,1.287 -1.773,1.785C-0.894,2.155 0.01,2.076 0.891,1.801C1.393,1.645 0.969,1.27 0.993,1.003C1.019,0.706 0.791,0.772 0.589,0.816C0.144,0.912 -0.309,0.95 -0.762,0.871C-1.082,0.815 -1.363,0.686 -1.534,0.392C-1.658,0.18 -1.661,0.035 -1.344,0.044C-0.944,0.056 -0.542,0.047 -0.141,0.047L1.063,0.047C1.204,0.047 1.314,0.053 1.368,-0.142C1.598,-0.973 1.077,-2.239 0.319,-2.637" style="fill:rgb(3,4,5);fill-rule:nonzero;"></path>
                </g>
            </g>
        </g>
    </g>
</svg>
