<?xml version="1.0" encoding="UTF-8"?>
<!-- Creator: CorelDRAW 2021 (64-Bit) -->
<svg xmlns="http://www.w3.org/2000/svg" xmlns:xlink="http://www.w3.org/1999/xlink" xmlns:xodm="http://www.corel.com/coreldraw/odm/2003" xml:space="preserve" width="743px" height="279px" version="1.1" style="shape-rendering:geometricPrecision; text-rendering:geometricPrecision; image-rendering:optimizeQuality; fill-rule:evenodd; clip-rule:evenodd" viewBox="0 0 110.17 41.32">
 <defs>
  <style type="text/css">
   <![CDATA[
    .str0 {stroke:#FEFEFE;stroke-width:0.74;stroke-linecap:round;stroke-linejoin:round;stroke-miterlimit:10}
    .fil1 {fill:none;fill-rule:nonzero}
    .fil3 {fill:#E31E24}
    .fil2 {fill:#393185}
    .fil0 {fill:#FEFEFE;fill-rule:nonzero}
    .fil5 {fill:#2B2A29;fill-rule:nonzero}
    .fil4 {fill:#393185;fill-rule:nonzero}
   ]]>
  </style>
 </defs>
 <g id="Layer_x0020_1">
  <metadata id="CorelCorpID_0Corel-Layer"></metadata>
  <g id="_2484440665952">
   <polygon class="fil0" points="21.02,0.37 14.66,0.37 12,7.85 18.35,7.85 "></polygon>
   <polygon class="fil1 str0" points="21.02,0.37 14.66,0.37 12,7.85 18.35,7.85 "></polygon>
   <polygon class="fil0" points="3.1,7.85 0.37,12.31 10.42,12.31 12,7.85 "></polygon>
   <polygon class="fil1 str0" points="3.1,7.85 0.37,12.31 10.42,12.31 12,7.85 "></polygon>
   <path class="fil0" d="M12.37 32.74c3.22,0 6.05,-0.44 8.48,-1.34 3.4,-1.27 5.1,-3.21 5.1,-5.84 0,-1.27 -0.46,-2.7 -1.37,-4.27 2.24,-1.09 3.91,-2.09 5.01,-3 1.83,-1.51 2.75,-3.13 2.75,-4.87 0,-2.08 -0.84,-3.57 -2.51,-4.47 -1.35,-0.73 -3.38,-1.1 -6.09,-1.1l-5.39 0 -1.59 4.46 4.3 0c2.77,0 4.16,0.91 4.16,2.72 0,1.29 -0.57,2.42 -1.69,3.4 -0.68,0.59 -1.74,1.23 -3.19,1.93 -1.05,0.5 -1.69,1 -1.92,1.52 -0.03,0.07 -0.04,0.19 -0.04,0.36 0,0.32 0.23,0.85 0.7,1.58 0.47,0.72 0.71,1.34 0.71,1.86 0,1.63 -1.05,2.81 -3.16,3.52 -1.43,0.48 -3.17,0.71 -5.24,0.71l-0.91 0 6.28 -17.6 -6.34 0 -7.26 20.43 9.21 0z"></path>
   <path class="fil1 str0" d="M12.37 32.74c3.22,0 6.05,-0.44 8.48,-1.34 3.4,-1.27 5.1,-3.21 5.1,-5.84 0,-1.27 -0.46,-2.7 -1.37,-4.27 2.24,-1.09 3.91,-2.09 5.01,-3 1.83,-1.51 2.75,-3.13 2.75,-4.87 0,-2.08 -0.84,-3.57 -2.51,-4.47 -1.35,-0.73 -3.38,-1.1 -6.09,-1.1l-5.39 0 -1.59 4.46 4.3 0c2.77,0 4.16,0.91 4.16,2.72 0,1.29 -0.57,2.42 -1.69,3.4 -0.68,0.59 -1.74,1.23 -3.19,1.93 -1.05,0.5 -1.69,1 -1.92,1.52 -0.03,0.07 -0.04,0.19 -0.04,0.36 0,0.32 0.23,0.85 0.7,1.58 0.47,0.72 0.71,1.34 0.71,1.86 0,1.63 -1.05,2.81 -3.16,3.52 -1.43,0.48 -3.17,0.71 -5.24,0.71l-0.91 0 6.28 -17.6 -6.34 0 -7.26 20.43 9.21 0z"></path>
   <polygon class="fil0" points="12.63,8.66 11.54,11.76 15.94,11.76 17.03,8.66 "></polygon>
   <polygon class="fil1 str0" points="12.63,8.66 11.54,11.76 15.94,11.76 17.03,8.66 "></polygon>
   <path class="fil0" d="M30.88 22.12l-2.61 7.16c-0.14,0.39 -0.21,0.77 -0.21,1.15 0,0.66 0.21,1.19 0.64,1.59 0.47,0.44 1.13,0.66 1.96,0.66l2.73 0c1.38,0 2.47,-0.49 3.28,-1.47 0,0.98 0.76,1.47 2.28,1.47l6.49 0c0.65,0 1.27,-0.18 1.85,-0.53 0.62,-0.38 1.05,-0.92 1.3,-1.6 -0.04,0.2 -0.08,0.39 -0.08,0.56 0,1.04 0.77,1.57 2.3,1.57l5.98 0c0.74,0 1.44,-0.16 2.1,-0.47 0.72,-0.34 1.23,-0.82 1.55,-1.45 -0.02,0.12 -0.03,0.24 -0.03,0.35 0,1.04 0.76,1.57 2.29,1.57l5.98 0c0.74,0 1.44,-0.16 2.1,-0.47 0.88,-0.41 1.44,-1.04 1.73,-1.88 1.02,1.56 3.32,2.35 6.93,2.35l8.65 0c0.89,0 1.68,-0.21 2.37,-0.61 0.48,-0.28 0.84,-0.63 1.1,-1.05 0,0.02 0,0.03 0,0.04 0,1.08 0.77,1.62 2.3,1.62l7.92 0c2.1,0 3.39,-0.83 3.88,-2.49l-8.34 0 2.42 -7.07 1.02 0c1.97,0 3.27,-0.83 3.92,-2.49l-4.01 0 2.85 -8.32 -3.03 0c-1.13,2.14 -2.85,5.72 -3.84,6.54 -0.88,0.72 -2.23,1.31 -4.03,1.78l-0.98 2.49 2.54 0 -2.44 7.07 -11.9 0c-1.34,0 -2.02,-0.42 -2.02,-1.25 0,-0.18 0.04,-0.38 0.11,-0.59l1.28 -3.74 3.27 0 -2.26 4.58 4.05 0c2.43,-1.04 3.32,-2.9 3.27,-4.01 -0.06,-1.1 -0.75,-1.92 -2.08,-2.46 -0.99,-0.4 -2.15,-0.6 -3.46,-0.6l-2.25 0c-2.04,0 -3.8,0.47 -5.28,1.43 -1.72,1.1 -2.58,2.63 -2.58,4.58 0,0.79 0.18,1.48 0.52,2.06l-6.37 0 5.13 -14.61 -5.5 0 -5.09 14.61 -6.43 0 5.13 -14.61 -5.5 0 -5.09 14.61 -6.29 0 2.82 -8.07 -5.57 0 -2.89 8.07 -3.15 0 2.9 -8.07 -5.63 0z"></path>
   <path class="fil1 str0" d="M30.88 22.12l-2.61 7.16c-0.14,0.39 -0.21,0.77 -0.21,1.15 0,0.66 0.21,1.19 0.64,1.59 0.47,0.44 1.13,0.66 1.96,0.66l2.73 0c1.38,0 2.47,-0.49 3.28,-1.47 0,0.98 0.76,1.47 2.28,1.47l6.49 0c0.65,0 1.27,-0.18 1.85,-0.53 0.62,-0.38 1.05,-0.92 1.3,-1.6 -0.04,0.2 -0.08,0.39 -0.08,0.56 0,1.04 0.77,1.57 2.3,1.57l5.98 0c0.74,0 1.44,-0.16 2.1,-0.47 0.72,-0.34 1.23,-0.82 1.55,-1.45 -0.02,0.12 -0.03,0.24 -0.03,0.35 0,1.04 0.76,1.57 2.29,1.57l5.98 0c0.74,0 1.44,-0.16 2.1,-0.47 0.88,-0.41 1.44,-1.04 1.73,-1.88 1.02,1.56 3.32,2.35 6.93,2.35l8.65 0c0.89,0 1.68,-0.21 2.37,-0.61 0.48,-0.28 0.84,-0.63 1.1,-1.05 0,0.02 0,0.03 0,0.04 0,1.08 0.77,1.62 2.3,1.62l7.92 0c2.1,0 3.39,-0.83 3.88,-2.49l-8.34 0 2.42 -7.07 1.02 0c1.97,0 3.27,-0.83 3.92,-2.49l-4.01 0 2.85 -8.32 -3.03 0c-1.13,2.14 -2.85,5.72 -3.84,6.54 -0.88,0.72 -2.23,1.31 -4.03,1.78l-0.98 2.49 2.54 0 -2.44 7.07 -11.9 0c-1.34,0 -2.02,-0.42 -2.02,-1.25 0,-0.18 0.04,-0.38 0.11,-0.59l1.28 -3.74 3.27 0 -2.26 4.58 4.05 0c2.43,-1.04 3.32,-2.9 3.27,-4.01 -0.06,-1.1 -0.75,-1.92 -2.08,-2.46 -0.99,-0.4 -2.15,-0.6 -3.46,-0.6l-2.25 0c-2.04,0 -3.8,0.47 -5.28,1.43 -1.72,1.1 -2.58,2.63 -2.58,4.58 0,0.79 0.18,1.48 0.52,2.06l-6.37 0 5.13 -14.61 -5.5 0 -5.09 14.61 -6.43 0 5.13 -14.61 -5.5 0 -5.09 14.61 -6.29 0 2.82 -8.07 -5.57 0 -2.89 8.07 -3.15 0 2.9 -8.07 -5.63 0z"></path>
   <polygon class="fil0 str0" points="3.46,40.95 106,40.95 106,34.64 3.46,34.64 "></polygon>
   <polygon class="fil0" points="104.45,11.34 105.35,11.34 105.35,13.7 105.82,13.7 105.82,11.34 106.74,11.34 106.74,10.92 104.45,10.92 "></polygon>
   <polygon class="fil1 str0" points="104.45,11.34 105.35,11.34 105.35,13.7 105.82,13.7 105.82,11.34 106.74,11.34 106.74,10.92 104.45,10.92 "></polygon>
   <polygon class="fil0" points="109.13,10.92 108.45,13.14 107.74,10.92 107.05,10.92 107.05,13.7 107.48,13.7 107.48,11.34 108.23,13.7 108.65,13.7 109.38,11.37 109.38,13.7 109.8,13.7 109.8,10.92 "></polygon>
   <polygon class="fil1 str0" points="109.13,10.92 108.45,13.14 107.74,10.92 107.05,10.92 107.05,13.7 107.48,13.7 107.48,11.34 108.23,13.7 108.65,13.7 109.38,11.37 109.38,13.7 109.8,13.7 109.8,10.92 "></polygon>
   <path class="fil2" d="M32.34 13.42c0,1.74 -0.92,3.36 -2.75,4.87 -1.1,0.91 -2.77,1.91 -5.01,3 0.91,1.57 1.37,3 1.37,4.27 0,2.63 -1.7,4.57 -5.1,5.84 -2.43,0.9 -5.26,1.34 -8.48,1.34l-9.21 0 11.5 -32.37 6.36 0 -10.54 29.54 0.91 0c2.07,0 3.81,-0.23 5.23,-0.71 2.12,-0.71 3.17,-1.89 3.17,-3.52 0,-0.52 -0.24,-1.14 -0.71,-1.86 -0.47,-0.73 -0.7,-1.26 -0.7,-1.58 0,-0.17 0.01,-0.29 0.04,-0.36 0.23,-0.52 0.87,-1.02 1.92,-1.52 1.45,-0.7 2.51,-1.34 3.19,-1.93 1.12,-0.98 1.69,-2.11 1.69,-3.4 0,-1.81 -1.39,-2.72 -4.16,-2.72l-20.69 0 2.73 -4.46 20.64 0c2.71,0 4.74,0.37 6.09,1.1 1.67,0.9 2.51,2.39 2.51,4.47z"></path>
   <path class="fil3" d="M23.1 28.85l-0.18 0.14 -0.18 0.13 -0.19 0.13 -0.21 0.14 -0.21 0.13 -0.23 0.13 -0.23 0.12 -0.25 0.12 -0.26 0.13 -0.27 0.11 -0.28 0.12 -0.29 0.11 -0.21 0.07 -0.21 0.08 -0.22 0.07 -0.22 0.07 -0.22 0.07 -0.23 0.06 -0.23 0.07 -0.23 0.06 -0.23 0.06 -0.24 0.05 -0.23 0.05 -0.25 0.06 -0.24 0.04 -0.24 0.05 -0.25 0.04 -0.25 0.05 -0.25 0.03 -0.26 0.04 -0.26 0.03 -0.26 0.04 -0.26 0.02 -0.26 0.03 -0.27 0.02 -0.27 0.02 -0.28 0.03 -0.27 0.01 -0.28 0.02 -0.28 0.01 -0.28 0 -0.29 0.01 -0.28 0.01 -0.29 0 -7.63 0 6.32 -17.83 4.07 0 -6.12 17.13 2.39 0 0.2 0 0.2 0 0.19 0 0.19 -0.01 0.2 0 0.19 -0.01 0.19 -0.01 0.18 -0.01 0.19 -0.01 0.18 -0.02 0.18 -0.01 0.18 -0.02 0.18 -0.02 0.18 -0.01 0.18 -0.03 0.17 -0.02 0.17 -0.02 0.17 -0.03 0.17 -0.03 0.16 -0.02 0.17 -0.04 0.16 -0.02 0.16 -0.04 0.17 -0.04 0.15 -0.03 0.16 -0.04 0.16 -0.04 0.15 -0.04 0.15 -0.04 0.15 -0.05 0.15 -0.04 0.15 -0.05 0.22 -0.08 0.21 -0.08 0.2 -0.08 0.21 -0.09 0.19 -0.09 0.19 -0.09 0.18 -0.1 0.18 -0.1 0.18 -0.11 0.16 -0.11 0.17 -0.12 0.15 -0.12 0.15 -0.13 0.15 -0.13 0.14 -0.13 0.13 -0.14 0.12 -0.15 0.12 -0.15 0.11 -0.15 0.11 -0.16 0.09 -0.17 0.09 -0.17 0.08 -0.17 0.07 -0.18 0.06 -0.18 0.05 -0.18 0.05 -0.18 0.04 -0.19 0.03 -0.19 0.01 -0.19 0.02 -0.19 0 -0.2 0 -0.15 -0.02 -0.16 -0.02 -0.15 -0.03 -0.15 -0.03 -0.16 -0.04 -0.15 -0.05 -0.15 -0.05 -0.15 -0.06 -0.15 -0.07 -0.15 -0.07 -0.15 -0.07 -0.15 -0.08 -0.15 -0.09 -0.15 -0.1 -0.15 -0.09 -0.14 -0.08 -0.13 -0.07 -0.12 -0.06 -0.1 -0.06 -0.11 -0.05 -0.09 -0.05 -0.09 -0.04 -0.08 -0.04 -0.08 -0.03 -0.06c4.21,-4.01 7.15,3.48 3.75,6.44z"></path>
   <polygon class="fil3" points="12.63,8.66 17.03,8.66 15.94,11.76 11.54,11.76 "></polygon>
   <path class="fil4" d="M48.72 30.19c-0.22,0.86 -0.7,1.51 -1.43,1.96 -0.58,0.35 -1.2,0.53 -1.85,0.53l-6.49 0c-1.52,0 -2.28,-0.49 -2.28,-1.47 -0.81,0.98 -1.9,1.47 -3.28,1.47l-2.73 0c-0.83,0 -1.49,-0.22 -1.96,-0.66 -0.43,-0.4 -0.64,-0.93 -0.64,-1.59 0,-0.38 0.07,-0.76 0.21,-1.15l2.61 -7.16 5.63 0 -2.9 8.07 3.15 0 2.89 -8.07 5.57 0 -2.82 8.07 6.32 0z"></path>
   <path class="fil4" d="M60.67 30.19c-0.26,0.91 -0.85,1.58 -1.78,2.02 -0.66,0.31 -1.36,0.47 -2.1,0.47l-5.98 0c-1.53,0 -2.3,-0.53 -2.3,-1.57 0,-0.27 0.06,-0.58 0.18,-0.92l5.09 -14.61 5.5 0 -5.13 14.61 6.52 0z"></path>
   <path class="fil4" d="M72.56 30.19c-0.26,0.91 -0.85,1.58 -1.78,2.02 -0.66,0.31 -1.36,0.47 -2.1,0.47l-5.98 0c-1.53,0 -2.29,-0.53 -2.29,-1.57 0,-0.27 0.05,-0.58 0.17,-0.92l5.09 -14.61 5.5 0 -5.13 14.61 6.52 0z"></path>
   <path class="fil4" d="M91.95 30.19c-0.21,0.8 -0.71,1.43 -1.49,1.88 -0.69,0.4 -1.48,0.61 -2.37,0.61l-8.65 0c-5.03,0 -7.55,-1.52 -7.55,-4.55 0,-1.95 0.86,-3.48 2.58,-4.58 1.48,-0.96 3.24,-1.43 5.28,-1.43l2.25 0c1.31,0 2.47,0.2 3.46,0.6 1.33,0.54 2.02,1.36 2.08,2.46 0.05,1.11 -0.83,2.97 -3.27,4.01l-4.05 0 2.26 -4.58 -3.27 0 -1.28 3.74c-0.07,0.21 -0.11,0.41 -0.11,0.59 0,0.83 0.68,1.25 2.02,1.25l12.11 0z"></path>
   <path class="fil4" d="M105.66 30.19c-0.49,1.66 -1.78,2.49 -3.88,2.49l-7.92 0c-1.53,0 -2.3,-0.54 -2.3,-1.62 0,-0.27 0.06,-0.56 0.18,-0.87l2.44 -7.08 -2.54 0 0.97 -2.48c1.81,-0.47 3.16,-1.06 4.04,-1.79 0.99,-0.81 2.71,-4.39 3.84,-6.53l3.03 0 -2.85 8.32 4.01 0c-0.65,1.66 -1.95,2.48 -3.92,2.48l-1.02 0 -2.42 7.08 8.34 0z"></path>
   <g>
    <image x="3.46" y="34.64" width="102.54" height="6.32"></image>
   </g>
   <path class="fil0" d="M32.81 35.72c0,0.07 -0.17,0.24 -0.51,0.5l-0.07 0c-0.05,-0.01 -0.09,-0.06 -0.1,-0.15 -0.03,-0.18 -0.13,-0.33 -0.28,-0.44 -0.16,-0.12 -0.36,-0.17 -0.58,-0.17 -0.21,0 -0.39,0.04 -0.54,0.15 -0.16,0.1 -0.23,0.21 -0.23,0.36 0,0.1 0.05,0.21 0.14,0.33 0.1,0.11 0.35,0.29 0.75,0.55 0.41,0.25 0.67,0.45 0.78,0.6 0.11,0.15 0.17,0.29 0.17,0.43 0,0.31 -0.21,0.59 -0.62,0.82 -0.41,0.24 -0.89,0.36 -1.44,0.36 -0.46,0 -0.84,-0.07 -1.13,-0.21 -0.3,-0.14 -0.44,-0.25 -0.44,-0.34 0,-0.05 0.08,-0.16 0.24,-0.34 0.16,-0.18 0.25,-0.27 0.28,-0.27 0.09,0 0.15,0.02 0.18,0.05 0.04,0.03 0.06,0.09 0.08,0.18 0.03,0.27 0.13,0.46 0.3,0.57 0.16,0.1 0.37,0.15 0.63,0.15 0.28,0 0.53,-0.06 0.74,-0.19 0.21,-0.13 0.31,-0.28 0.31,-0.45 0,-0.09 -0.04,-0.18 -0.12,-0.28 -0.08,-0.1 -0.31,-0.27 -0.69,-0.51 -0.38,-0.23 -0.63,-0.43 -0.75,-0.6 -0.11,-0.17 -0.17,-0.33 -0.17,-0.48 0,-0.27 0.15,-0.52 0.46,-0.75 0.32,-0.23 0.73,-0.34 1.25,-0.34 0.39,0 0.72,0.06 0.98,0.17 0.26,0.12 0.38,0.22 0.38,0.3z"></path>
   <path class="fil0" d="M34.7 38.62c0.14,0.15 0.29,0.23 0.46,0.23 0.27,0 0.51,-0.14 0.71,-0.41 0.21,-0.27 0.31,-0.53 0.31,-0.79 0,-0.13 -0.04,-0.24 -0.12,-0.32 -0.08,-0.09 -0.19,-0.13 -0.33,-0.13 -0.1,0 -0.21,0.03 -0.32,0.09 -0.12,0.06 -0.21,0.14 -0.27,0.22 -0.05,0.08 -0.12,0.22 -0.2,0.43l-0.24 0.68zm0.46 -1.41c0.19,-0.15 0.38,-0.26 0.55,-0.34 0.16,-0.07 0.35,-0.11 0.56,-0.11 0.27,0 0.49,0.07 0.66,0.21 0.17,0.13 0.26,0.31 0.26,0.53 0,0.39 -0.21,0.75 -0.62,1.07 -0.4,0.32 -0.85,0.49 -1.32,0.49 -0.14,0 -0.24,-0.02 -0.32,-0.03 -0.07,-0.02 -0.18,-0.07 -0.3,-0.14 -0.2,0.56 -0.32,1 -0.37,1.34l-1.02 0.12c0.19,-0.82 0.43,-1.65 0.73,-2.5 -0.36,0.3 -0.6,0.49 -0.72,0.57l-0.09 0 0 -0.24c0.51,-0.36 0.92,-0.8 1.25,-1.31l0.91 -0.11 -0.16 0.45z"></path>
   <path class="fil0" d="M38.35 37.93c0.68,-0.13 1.02,-0.36 1.02,-0.7 0,-0.17 -0.09,-0.26 -0.28,-0.26 -0.17,0 -0.34,0.09 -0.5,0.27 -0.16,0.18 -0.24,0.41 -0.24,0.69zm2.09 0.49c-0.34,0.21 -0.64,0.37 -0.91,0.48 -0.27,0.1 -0.57,0.16 -0.89,0.16 -0.36,0 -0.66,-0.08 -0.88,-0.23 -0.22,-0.15 -0.33,-0.36 -0.33,-0.61 0,-0.37 0.19,-0.7 0.59,-1.01 0.39,-0.29 0.82,-0.45 1.3,-0.45 0.25,0 0.45,0.05 0.59,0.13 0.15,0.08 0.23,0.19 0.23,0.33 0,0.37 -0.59,0.66 -1.76,0.89 0.11,0.34 0.38,0.51 0.83,0.51 0.18,0 0.35,-0.03 0.51,-0.09 0.16,-0.07 0.4,-0.21 0.72,-0.42l0 0.31z"></path>
   <path class="fil0" d="M41.34 37.93c0.68,-0.13 1.02,-0.36 1.02,-0.7 0,-0.17 -0.09,-0.26 -0.28,-0.26 -0.17,0 -0.34,0.09 -0.5,0.27 -0.16,0.18 -0.24,0.41 -0.24,0.69zm2.1 0.49c-0.34,0.21 -0.65,0.37 -0.92,0.48 -0.27,0.1 -0.56,0.16 -0.89,0.16 -0.36,0 -0.65,-0.08 -0.88,-0.23 -0.22,-0.15 -0.33,-0.36 -0.33,-0.61 0,-0.37 0.2,-0.7 0.59,-1.01 0.39,-0.29 0.82,-0.45 1.3,-0.45 0.25,0 0.45,0.05 0.59,0.13 0.15,0.08 0.23,0.19 0.23,0.33 0,0.37 -0.59,0.66 -1.76,0.89 0.11,0.34 0.39,0.51 0.84,0.51 0.17,0 0.34,-0.03 0.5,-0.09 0.16,-0.07 0.4,-0.21 0.73,-0.42l0 0.31z"></path>
   <path class="fil0" d="M44.81 38.55c0.27,0 0.51,-0.14 0.73,-0.43 0.23,-0.3 0.35,-0.57 0.35,-0.82 0,-0.1 -0.04,-0.19 -0.11,-0.25 -0.07,-0.06 -0.16,-0.09 -0.28,-0.09 -0.25,0 -0.48,0.15 -0.72,0.46 -0.23,0.3 -0.35,0.57 -0.35,0.82 0,0.1 0.04,0.17 0.11,0.23 0.06,0.06 0.15,0.08 0.27,0.08zm2.9 -0.13c-0.39,0.25 -0.68,0.41 -0.88,0.51 -0.21,0.08 -0.38,0.13 -0.54,0.13 -0.19,0 -0.34,-0.06 -0.45,-0.19 -0.11,-0.12 -0.16,-0.29 -0.17,-0.53 -0.21,0.24 -0.45,0.41 -0.71,0.53 -0.26,0.13 -0.49,0.19 -0.7,0.19 -0.23,0 -0.42,-0.07 -0.6,-0.22 -0.17,-0.14 -0.26,-0.3 -0.26,-0.49 0,-0.39 0.22,-0.76 0.65,-1.09 0.43,-0.33 0.9,-0.5 1.4,-0.5 0.14,0 0.25,0.01 0.33,0.04 0.07,0.03 0.16,0.07 0.25,0.13l0.57 -1.57c0.47,-0.07 0.79,-0.11 0.95,-0.11 0.05,0 0.08,0.01 0.08,0.04 0,0.02 -0.07,0.21 -0.2,0.55 -0.53,1.37 -0.8,2.2 -0.8,2.49 0,0.06 0.02,0.12 0.07,0.16 0.04,0.04 0.09,0.06 0.16,0.06 0.17,0 0.45,-0.15 0.85,-0.44l0 0.31z"></path>
   <path class="fil0" d="M48.8 38.23c0.23,0.09 0.39,0.18 0.49,0.28 0.11,0.09 0.16,0.21 0.16,0.34 0,0.22 -0.13,0.41 -0.4,0.6 -0.27,0.17 -0.66,0.33 -1.17,0.45l-0.09 -0.16c0.3,-0.11 0.52,-0.2 0.68,-0.29 0.15,-0.09 0.22,-0.19 0.22,-0.32 0,-0.15 -0.13,-0.26 -0.4,-0.33 -0.09,-0.02 -0.14,-0.04 -0.14,-0.06 0,-0.02 0.06,-0.06 0.17,-0.13 0.11,-0.07 0.27,-0.19 0.48,-0.38z"></path>
   <path class="fil0" d="M55.89 35.72c0,0.07 -0.17,0.24 -0.51,0.5l-0.07 0c-0.06,-0.01 -0.09,-0.06 -0.1,-0.15 -0.03,-0.18 -0.13,-0.33 -0.29,-0.44 -0.16,-0.12 -0.35,-0.17 -0.57,-0.17 -0.22,0 -0.39,0.04 -0.55,0.15 -0.15,0.1 -0.22,0.21 -0.22,0.36 0,0.1 0.04,0.21 0.14,0.33 0.1,0.11 0.35,0.29 0.75,0.55 0.4,0.25 0.66,0.45 0.78,0.6 0.11,0.15 0.17,0.29 0.17,0.43 0,0.31 -0.21,0.59 -0.62,0.82 -0.41,0.24 -0.89,0.36 -1.44,0.36 -0.46,0 -0.84,-0.07 -1.13,-0.21 -0.3,-0.14 -0.45,-0.25 -0.45,-0.34 0,-0.05 0.08,-0.16 0.25,-0.34 0.16,-0.18 0.25,-0.27 0.28,-0.27 0.08,0 0.14,0.02 0.18,0.05 0.04,0.03 0.06,0.09 0.07,0.18 0.04,0.27 0.14,0.46 0.31,0.57 0.16,0.1 0.37,0.15 0.62,0.15 0.29,0 0.54,-0.06 0.74,-0.19 0.21,-0.13 0.32,-0.28 0.32,-0.45 0,-0.09 -0.04,-0.18 -0.12,-0.28 -0.08,-0.1 -0.31,-0.27 -0.69,-0.51 -0.38,-0.23 -0.63,-0.43 -0.75,-0.6 -0.12,-0.17 -0.18,-0.33 -0.18,-0.48 0,-0.27 0.16,-0.52 0.47,-0.75 0.31,-0.23 0.73,-0.34 1.25,-0.34 0.39,0 0.72,0.06 0.97,0.17 0.27,0.12 0.39,0.22 0.39,0.3z"></path>
   <path class="fil0" d="M57.43 38.56c0.26,0 0.51,-0.15 0.75,-0.45 0.24,-0.3 0.35,-0.57 0.35,-0.83 0,-0.1 -0.03,-0.17 -0.1,-0.23 -0.06,-0.05 -0.15,-0.08 -0.26,-0.08 -0.27,0 -0.52,0.15 -0.76,0.45 -0.24,0.3 -0.36,0.57 -0.36,0.82 0,0.1 0.04,0.17 0.11,0.23 0.07,0.06 0.16,0.09 0.27,0.09zm2.92 -0.14c-0.42,0.26 -0.73,0.43 -0.91,0.51 -0.19,0.09 -0.36,0.13 -0.53,0.13 -0.42,0 -0.62,-0.25 -0.6,-0.74 -0.26,0.25 -0.51,0.44 -0.73,0.56 -0.23,0.12 -0.46,0.18 -0.7,0.18 -0.24,0 -0.44,-0.08 -0.6,-0.22 -0.16,-0.14 -0.25,-0.32 -0.25,-0.53 0,-0.27 0.11,-0.52 0.33,-0.75 0.22,-0.24 0.51,-0.44 0.85,-0.59 0.34,-0.14 0.65,-0.21 0.91,-0.21 0.34,0 0.57,0.09 0.7,0.3l0.82 -0.3 0.22 0 -0.35 0.77c-0.18,0.39 -0.27,0.65 -0.27,0.8 0,0.15 0.08,0.22 0.24,0.22 0.11,0 0.22,-0.03 0.34,-0.1 0.13,-0.08 0.31,-0.19 0.53,-0.34l0 0.31z"></path>
   <path class="fil0" d="M62.25 36.92c0.31,-0.18 0.56,-0.38 0.74,-0.58 0.17,-0.21 0.26,-0.4 0.26,-0.57 0,-0.08 -0.02,-0.14 -0.06,-0.18 -0.04,-0.05 -0.09,-0.08 -0.15,-0.08 -0.12,0 -0.24,0.1 -0.36,0.31 -0.12,0.2 -0.26,0.56 -0.43,1.1zm1.35 1.5c-0.28,0.2 -0.56,0.36 -0.83,0.47 -0.27,0.11 -0.51,0.17 -0.72,0.17 -0.1,0 -0.24,-0.03 -0.42,-0.08 -0.11,0.39 -0.21,0.8 -0.3,1.25 -0.27,0.02 -0.61,0.06 -1,0.11 0.09,-0.48 0.24,-1.1 0.45,-1.87 -0.03,-0.03 -0.08,-0.12 -0.16,-0.25l-0.27 0.2 -0.09 0 0 -0.24 0.77 -0.52c0.14,-0.47 0.26,-0.81 0.35,-1.02 0.09,-0.21 0.21,-0.45 0.38,-0.7 0.16,-0.26 0.26,-0.41 0.31,-0.44 0.04,-0.04 0.14,-0.08 0.31,-0.11 0.16,-0.03 0.34,-0.07 0.52,-0.1 0.19,-0.03 0.29,-0.04 0.3,-0.04 0.1,0 0.18,0.04 0.25,0.13 0.06,0.08 0.1,0.2 0.1,0.34 0,0.24 -0.1,0.48 -0.3,0.71 -0.2,0.23 -0.57,0.51 -1.12,0.84l-0.33 1.1c0.13,0.18 0.33,0.27 0.58,0.27 0.38,0 0.78,-0.17 1.22,-0.53l0 0.31z"></path>
   <path class="fil0" d="M64.49 37.93c0.68,-0.13 1.02,-0.36 1.02,-0.7 0,-0.17 -0.09,-0.26 -0.28,-0.26 -0.17,0 -0.34,0.09 -0.5,0.27 -0.16,0.18 -0.24,0.41 -0.24,0.69zm2.1 0.49c-0.34,0.21 -0.65,0.37 -0.92,0.48 -0.27,0.1 -0.56,0.16 -0.89,0.16 -0.36,0 -0.66,-0.08 -0.88,-0.23 -0.22,-0.15 -0.33,-0.36 -0.33,-0.61 0,-0.37 0.19,-0.7 0.59,-1.01 0.39,-0.29 0.82,-0.45 1.3,-0.45 0.25,0 0.45,0.05 0.6,0.13 0.14,0.08 0.22,0.19 0.22,0.33 0,0.37 -0.59,0.66 -1.76,0.89 0.11,0.34 0.38,0.51 0.84,0.51 0.17,0 0.34,-0.03 0.5,-0.09 0.16,-0.07 0.4,-0.21 0.73,-0.42l0 0.31z"></path>
   <path class="fil0" d="M71.42 38.28c-0.21,-0.32 -0.37,-0.72 -0.47,-1.2 -0.4,0.12 -0.68,0.25 -0.87,0.38 -0.18,0.14 -0.27,0.31 -0.27,0.51 0,0.18 0.07,0.33 0.22,0.47 0.14,0.13 0.31,0.19 0.5,0.19 0.12,0 0.24,-0.02 0.36,-0.07 0.12,-0.04 0.3,-0.14 0.53,-0.28zm-0.49 -1.41l0 -0.22c0,-0.39 0.16,-0.72 0.47,-0.97 0.31,-0.26 0.7,-0.39 1.16,-0.39 0.26,0 0.48,0.04 0.67,0.11 0.19,0.08 0.28,0.16 0.28,0.27 0,0.05 -0.09,0.12 -0.26,0.21 -0.18,0.09 -0.28,0.13 -0.32,0.13 -0.09,0 -0.13,-0.05 -0.15,-0.15 -0.02,-0.11 -0.06,-0.19 -0.13,-0.25 -0.06,-0.07 -0.16,-0.1 -0.28,-0.1 -0.14,0 -0.25,0.06 -0.34,0.18 -0.08,0.13 -0.12,0.3 -0.12,0.51 0,0.35 0.09,0.75 0.26,1.19 0.17,0.44 0.33,0.75 0.5,0.94 0.17,0.19 0.36,0.28 0.55,0.28 0.2,0 0.36,-0.06 0.52,-0.18 0.05,-0.04 0.09,-0.05 0.11,-0.05 0.03,0 0.07,0.01 0.11,0.04 0.04,0.03 0.06,0.05 0.06,0.06 0,0.05 -0.13,0.16 -0.4,0.33 -0.27,0.16 -0.56,0.24 -0.88,0.24 -0.24,0 -0.46,-0.04 -0.64,-0.14 -0.19,-0.09 -0.37,-0.24 -0.55,-0.44 -0.33,0.2 -0.62,0.35 -0.88,0.44 -0.25,0.1 -0.52,0.14 -0.81,0.14 -0.32,0 -0.58,-0.06 -0.78,-0.19 -0.21,-0.13 -0.31,-0.3 -0.31,-0.51 0,-0.54 0.73,-1.03 2.16,-1.48z"></path>
   <path class="fil0" d="M82.79 38.41c-0.31,0.22 -0.59,0.39 -0.83,0.49 -0.25,0.1 -0.5,0.15 -0.75,0.15 -0.26,0 -0.47,-0.05 -0.63,-0.16 -0.16,-0.12 -0.24,-0.26 -0.24,-0.44 0,-0.11 0.04,-0.26 0.12,-0.46 0.07,-0.19 0.11,-0.33 0.11,-0.44 0,-0.16 -0.08,-0.24 -0.24,-0.25 -0.1,0 -0.15,-0.03 -0.15,-0.09 0,-0.1 0.06,-0.15 0.17,-0.15l0.27 0.01c0.25,0 0.45,-0.09 0.6,-0.24 0.15,-0.17 0.22,-0.36 0.22,-0.59 0,-0.53 -0.46,-0.8 -1.38,-0.8 -0.58,0 -1.1,0.11 -1.55,0.31 -0.45,0.21 -0.68,0.45 -0.68,0.7 0,0.15 0.11,0.26 0.33,0.33 0.1,0.03 0.15,0.08 0.15,0.13 0,0.04 -0.1,0.1 -0.3,0.15 -0.2,0.06 -0.34,0.09 -0.42,0.09 -0.11,0 -0.22,-0.05 -0.32,-0.15 -0.09,-0.1 -0.14,-0.21 -0.14,-0.34 0,-0.39 0.3,-0.73 0.9,-1 0.6,-0.28 1.33,-0.42 2.2,-0.42 0.72,0 1.29,0.1 1.69,0.31 0.41,0.2 0.61,0.45 0.61,0.74 0,0.19 -0.11,0.37 -0.34,0.54 -0.22,0.18 -0.65,0.31 -1.31,0.41 0.24,0.09 0.42,0.18 0.52,0.29 0.11,0.1 0.16,0.23 0.16,0.39 0,0.09 -0.01,0.19 -0.04,0.3 -0.03,0.1 -0.04,0.17 -0.04,0.2 0,0.15 0.09,0.23 0.27,0.23 0.24,0 0.59,-0.18 1.04,-0.54l0 0.3zm-2.05 -2.51c-0.22,0.11 -0.37,0.24 -0.44,0.37 -0.08,0.14 -0.15,0.38 -0.22,0.74 -0.08,0.35 -0.17,0.64 -0.26,0.85 -0.1,0.21 -0.26,0.41 -0.49,0.6 -0.24,0.18 -0.52,0.33 -0.85,0.44 -0.34,0.1 -0.68,0.15 -1.03,0.15 -0.39,0 -0.68,-0.05 -0.87,-0.18 -0.19,-0.12 -0.28,-0.26 -0.28,-0.42 0,-0.05 0.03,-0.1 0.09,-0.14 0.06,-0.04 0.18,-0.09 0.37,-0.16 0.18,-0.07 0.31,-0.11 0.38,-0.11 0.09,0 0.13,0.04 0.13,0.1 0,0.02 -0.01,0.08 -0.04,0.18 -0.03,0.11 -0.04,0.17 -0.04,0.19 0,0.09 0.04,0.17 0.13,0.24 0.08,0.06 0.19,0.1 0.32,0.1 0.28,0 0.52,-0.12 0.74,-0.35 0.21,-0.23 0.36,-0.57 0.45,-1.03 0.08,-0.45 0.2,-0.78 0.34,-0.98 0.14,-0.2 0.35,-0.37 0.62,-0.49 0.27,-0.13 0.51,-0.19 0.73,-0.19 0.06,0 0.13,0.03 0.22,0.09z"></path>
   <path class="fil0" d="M83.68 37.93c0.69,-0.13 1.03,-0.36 1.03,-0.7 0,-0.17 -0.1,-0.26 -0.28,-0.26 -0.18,0 -0.35,0.09 -0.51,0.27 -0.16,0.18 -0.24,0.41 -0.24,0.69zm2.1 0.49c-0.34,0.21 -0.65,0.37 -0.91,0.48 -0.27,0.1 -0.57,0.16 -0.9,0.16 -0.36,0 -0.65,-0.08 -0.87,-0.23 -0.22,-0.15 -0.33,-0.36 -0.33,-0.61 0,-0.37 0.19,-0.7 0.58,-1.01 0.39,-0.29 0.83,-0.45 1.3,-0.45 0.25,0 0.45,0.05 0.6,0.13 0.15,0.08 0.22,0.19 0.22,0.33 0,0.37 -0.58,0.66 -1.75,0.89 0.1,0.34 0.38,0.51 0.83,0.51 0.18,0 0.35,-0.03 0.5,-0.09 0.17,-0.07 0.41,-0.21 0.73,-0.42l0 0.31z"></path>
   <path class="fil0" d="M86.9 37.39c0.34,-0.25 0.61,-0.53 0.82,-0.84 0.21,-0.3 0.32,-0.57 0.32,-0.79 0,-0.07 -0.02,-0.12 -0.05,-0.16 -0.03,-0.04 -0.07,-0.06 -0.11,-0.06 -0.1,0 -0.24,0.17 -0.43,0.49 -0.19,0.32 -0.37,0.77 -0.55,1.36zm1.53 1.03c-0.37,0.21 -0.68,0.38 -0.96,0.48 -0.27,0.1 -0.53,0.16 -0.78,0.16 -0.28,0 -0.51,-0.08 -0.69,-0.22 -0.17,-0.15 -0.26,-0.34 -0.26,-0.59 0,-0.37 0.12,-0.81 0.36,-1.33 0.25,-0.51 0.54,-0.99 0.89,-1.42l1.01 -0.25c0.04,-0.01 0.06,-0.01 0.08,-0.01 0.07,0 0.13,0.04 0.18,0.11 0.05,0.08 0.08,0.18 0.08,0.3 0,0.36 -0.13,0.71 -0.38,1.04 -0.25,0.34 -0.64,0.7 -1.17,1.08 -0.02,0.18 -0.04,0.3 -0.04,0.37 0,0.15 0.05,0.28 0.13,0.36 0.09,0.1 0.2,0.14 0.34,0.14 0.15,0 0.3,-0.03 0.46,-0.1 0.17,-0.07 0.41,-0.21 0.75,-0.43l0 0.31z"></path>
   <path class="fil0" d="M90.31 35.73c0,0.43 -0.23,0.64 -0.7,0.64 -0.23,0 -0.43,-0.05 -0.59,-0.14 0.15,-0.15 0.27,-0.33 0.36,-0.52 0.21,0.09 0.38,0.13 0.5,0.13 0.15,0 0.29,-0.04 0.43,-0.11zm0.08 2.69c-0.62,0.43 -1.09,0.64 -1.4,0.64 -0.16,0 -0.31,-0.06 -0.43,-0.17 -0.11,-0.12 -0.17,-0.26 -0.17,-0.43 0,-0.38 0.19,-0.89 0.57,-1.56l1.02 -0.14 0.05 0 -0.4 0.83c-0.17,0.34 -0.25,0.58 -0.25,0.73 0,0.06 0.02,0.1 0.06,0.14 0.04,0.03 0.09,0.05 0.14,0.05 0.11,0 0.21,-0.03 0.32,-0.07 0.1,-0.06 0.27,-0.16 0.49,-0.33l0 0.31z"></path>
   <path class="fil0" d="M91.74 38.56c0.27,0 0.52,-0.15 0.75,-0.45 0.24,-0.3 0.35,-0.57 0.35,-0.83 0,-0.1 -0.03,-0.17 -0.1,-0.23 -0.06,-0.05 -0.15,-0.08 -0.26,-0.08 -0.27,0 -0.52,0.15 -0.76,0.45 -0.24,0.3 -0.36,0.57 -0.36,0.82 0,0.1 0.04,0.17 0.11,0.23 0.07,0.06 0.16,0.09 0.27,0.09zm2.93 -0.14c-0.43,0.26 -0.74,0.43 -0.92,0.51 -0.19,0.09 -0.36,0.13 -0.53,0.13 -0.42,0 -0.62,-0.25 -0.59,-0.74 -0.27,0.25 -0.52,0.44 -0.74,0.56 -0.23,0.12 -0.46,0.18 -0.7,0.18 -0.23,0 -0.44,-0.08 -0.6,-0.22 -0.16,-0.14 -0.24,-0.32 -0.24,-0.53 0,-0.27 0.11,-0.52 0.32,-0.75 0.23,-0.24 0.51,-0.44 0.85,-0.59 0.35,-0.14 0.65,-0.21 0.91,-0.21 0.34,0 0.57,0.09 0.7,0.3l0.82 -0.3 0.23 0 -0.36 0.77c-0.18,0.39 -0.27,0.65 -0.27,0.8 0,0.15 0.08,0.22 0.24,0.22 0.11,0 0.22,-0.03 0.35,-0.1 0.12,-0.08 0.3,-0.19 0.53,-0.34l0 0.31z"></path>
   <path class="fil0" d="M96.08 37c0.43,-0.27 0.76,-0.53 0.99,-0.77 0.22,-0.23 0.33,-0.41 0.33,-0.53 0,-0.05 -0.02,-0.09 -0.05,-0.12 -0.03,-0.03 -0.07,-0.05 -0.12,-0.05 -0.32,0 -0.7,0.49 -1.15,1.47zm2.17 1.42c-0.18,0.12 -0.4,0.19 -0.67,0.19 -0.21,0 -0.43,-0.07 -0.66,-0.19 -0.29,0.21 -0.54,0.37 -0.76,0.47 -0.22,0.11 -0.46,0.16 -0.72,0.16 -0.23,0 -0.43,-0.06 -0.58,-0.19 -0.16,-0.13 -0.24,-0.29 -0.24,-0.47 0,-0.37 0.16,-0.86 0.49,-1.48 0.33,-0.63 0.64,-1.1 0.95,-1.42 0.36,-0.07 0.67,-0.13 0.94,-0.18 0.26,-0.04 0.42,-0.06 0.46,-0.06 0.07,0 0.14,0.03 0.2,0.1 0.05,0.07 0.08,0.15 0.08,0.24 0,0.2 -0.12,0.43 -0.37,0.69 -0.25,0.26 -0.57,0.53 -0.96,0.79l-0.53 0.34c-0.16,0.38 -0.24,0.66 -0.24,0.85 0,0.09 0.03,0.18 0.1,0.24 0.07,0.06 0.16,0.08 0.27,0.08 0.13,0 0.25,-0.02 0.36,-0.08 0.1,-0.05 0.22,-0.14 0.35,-0.25 -0.13,-0.15 -0.2,-0.3 -0.2,-0.46 0,-0.26 0.11,-0.49 0.31,-0.71 0.21,-0.21 0.44,-0.32 0.67,-0.32 0.1,0 0.17,0.03 0.23,0.08 0.07,0.06 0.09,0.13 0.09,0.22 0,0.29 -0.24,0.68 -0.73,1.17 0.14,0.12 0.31,0.19 0.5,0.19 0.12,0 0.22,-0.02 0.3,-0.06 0.09,-0.04 0.21,-0.12 0.36,-0.25l0 0.31z"></path>
   <path class="fil0" d="M99.36 37.39c0.34,-0.25 0.61,-0.53 0.82,-0.84 0.22,-0.3 0.32,-0.57 0.32,-0.79 0,-0.07 -0.01,-0.12 -0.04,-0.16 -0.03,-0.04 -0.07,-0.06 -0.11,-0.06 -0.1,0 -0.24,0.17 -0.43,0.49 -0.19,0.32 -0.38,0.77 -0.56,1.36zm1.54 1.03c-0.37,0.21 -0.69,0.38 -0.96,0.48 -0.27,0.1 -0.53,0.16 -0.78,0.16 -0.28,0 -0.51,-0.08 -0.69,-0.22 -0.17,-0.15 -0.26,-0.34 -0.26,-0.59 0,-0.37 0.12,-0.81 0.36,-1.33 0.25,-0.51 0.54,-0.99 0.89,-1.42l1.01 -0.25c0.03,-0.01 0.06,-0.01 0.07,-0.01 0.08,0 0.14,0.04 0.2,0.11 0.04,0.08 0.07,0.18 0.07,0.3 0,0.36 -0.13,0.71 -0.38,1.04 -0.25,0.34 -0.64,0.7 -1.17,1.08 -0.03,0.18 -0.04,0.3 -0.04,0.37 0,0.15 0.05,0.28 0.13,0.36 0.09,0.1 0.2,0.14 0.34,0.14 0.15,0 0.3,-0.03 0.46,-0.1 0.17,-0.07 0.41,-0.21 0.75,-0.43l0 0.31z"></path>
   <path class="fil0" d="M101.79 37.93c0.68,-0.13 1.02,-0.36 1.02,-0.7 0,-0.17 -0.09,-0.26 -0.28,-0.26 -0.17,0 -0.34,0.09 -0.5,0.27 -0.16,0.18 -0.24,0.41 -0.24,0.69zm2.1 0.49c-0.34,0.21 -0.65,0.37 -0.91,0.48 -0.27,0.1 -0.57,0.16 -0.9,0.16 -0.36,0 -0.65,-0.08 -0.88,-0.23 -0.22,-0.15 -0.33,-0.36 -0.33,-0.61 0,-0.37 0.2,-0.7 0.59,-1.01 0.39,-0.29 0.83,-0.45 1.3,-0.45 0.25,0 0.45,0.05 0.6,0.13 0.15,0.08 0.22,0.19 0.22,0.33 0,0.37 -0.58,0.66 -1.76,0.89 0.11,0.34 0.39,0.51 0.84,0.51 0.18,0 0.34,-0.03 0.5,-0.09 0.16,-0.07 0.4,-0.21 0.73,-0.42l0 0.31z"></path>
   <path class="fil5" d="M107.05 13.7l0 -2.78 0.69 0 0.71 2.22 0.68 -2.22 0.67 0 0 2.78 -0.42 0 0 -2.33 -0.72 2.33 -0.43 0 -0.75 -2.36 0 2.36 -0.43 0zm-1.7 0l0 -2.36 -0.9 0 0 -0.42 2.29 0 0 0.42 -0.92 0 0 2.36 -0.47 0z"></path>
  </g>
 </g>
</svg>
