<?xml version="1.0" encoding="UTF-8" standalone="no"?>
<svg xmlns="http://www.w3.org/2000/svg" xmlns:xlink="http://www.w3.org/1999/xlink" xmlns:serif="http://www.serif.com/" width="100%" height="100%" viewBox="0 0 1189 458" version="1.1" xml:space="preserve" style="fill-rule:evenodd;clip-rule:evenodd;stroke-miterlimit:2.613;">
    <g transform="matrix(1,0,0,1,1239.05,-572.535)">
        <rect id="Artboard1" x="-1239.05" y="572.535" width="1188.5" height="457.9" style="fill:none;"></rect>
        <clipPath id="_clip1">
            <rect id="Artboard11" serif:id="Artboard1" x="-1239.05" y="572.535" width="1188.5" height="457.9"></rect>
        </clipPath>
        <g clip-path="url(#_clip1)">
            <g transform="matrix(2.06203,0,0,2.06203,-1169.41,180.093)">
                <path d="M288,318.8C284.8,320.3 281.6,321 278.3,321C275.7,321 273.3,320.6 271.2,319.6C269.1,318.7 267.3,317.4 265.8,315.7C264.3,314 263.2,312 262.3,309.6C261.5,307.2 261.1,304.6 261.1,301.6C261.1,298.6 261.5,295.8 262.3,293.4C263.1,291 264.3,288.9 265.8,287.1C267.3,285.4 269.1,284.1 271.2,283.1C273.3,282.2 275.7,281.7 278.3,281.7C281.4,281.7 284.6,282.5 287.7,284L287.7,294.6L286.3,294.6C286.2,294.3 286.2,294.1 286.1,293.9C286.1,293.7 286,293.5 285.9,293.4C285.3,291.2 284.7,289.4 284.1,288C283.6,286.6 283,285.6 282.4,284.8C281.8,284 281.1,283.5 280.4,283.3C279.6,283 278.7,282.9 277.6,282.9C274.2,282.9 271.8,284.4 270.2,287.4C268.6,290.4 267.8,295.2 267.8,301.7C267.8,305 268,307.7 268.3,309.7C268.6,311.7 269.2,313.5 269.9,315C271.5,318 274,319.5 277.3,319.5C278.5,319.5 279.6,319.3 280.5,318.9C281.4,318.5 282.2,317.8 282.9,316.9C283.6,315.9 284.2,314.5 284.7,312.8C285.2,311.1 285.8,308.9 286.3,306.2L287.8,306.2L287.8,318.8L288,318.8ZM307.8,304.8C307.4,305 306.9,305.2 306.5,305.4C306.1,305.6 305.7,305.7 305.3,305.9C304.9,306 304.4,306.2 303.9,306.3C303.4,306.4 302.7,306.6 301.9,306.9C300,307.4 298.8,308.1 298.1,309.1C297.4,310.1 297,311.5 297,313.5C297,317.3 298.3,319.3 301,319.3C303.1,319.3 304.8,318.3 306,316.4C307.2,314.4 307.9,311.8 307.9,308.5L307.9,304.8L307.8,304.8ZM307.8,315.3C306.3,319.1 303.5,321 299.4,321C297.1,321 295.2,320.3 293.8,319C292.4,317.6 291.7,315.9 291.7,313.6C291.7,312.5 291.9,311.4 292.4,310.4C292.9,309.4 293.5,308.5 294.3,307.9C295,307.4 295.7,306.9 296.6,306.6C297.5,306.3 298.8,305.9 300.6,305.5C301.4,305.3 302.1,305.2 302.6,305.1C303.2,304.9 303.8,304.8 304.3,304.7C304.8,304.5 305.4,304.3 305.9,304.1C306.5,303.9 307.1,303.6 307.8,303.3L307.8,299.3C307.8,295.3 306.2,293.2 302.9,293.2C301.6,293.2 300.6,293.4 299.9,293.9C299.3,294.3 298.6,295.3 298,296.7C297.6,297.5 297.2,298.4 296.9,299.4C296.6,300.4 296.2,301.5 295.8,302.8L294.3,302.8L294.3,294.1C297.1,292.6 300.1,291.8 303.3,291.8C306.3,291.8 308.6,292.6 310.1,294.1C311.7,295.6 312.5,297.8 312.5,300.7L312.5,318.8L315.2,318.8L315.2,320.1L307.8,320.1L307.8,315.3ZM325.8,292.7L318.4,292.7L318.4,294L321.1,294L321.1,319L318.4,319L318.4,320.3L329.2,320.3L329.2,319L325.8,319L325.8,302.9C325.8,300.2 326.3,298 327.4,296.3C328.5,294.6 329.9,293.8 331.8,293.8C333,293.8 333.9,294.2 334.6,295.1C335.2,295.9 335.6,297.1 335.6,298.6L335.6,319L332.1,319L332.1,320.3L342.9,320.3L342.9,319L340.3,319L340.3,298.3C340.3,296.3 339.7,294.7 338.5,293.7C337.3,292.6 335.5,292.1 333.1,292.1C331.3,292.1 329.9,292.5 328.7,293.3C327.6,294.1 326.6,295.5 325.8,297.4L325.8,292.7ZM361.8,304.8C361.3,305 360.9,305.2 360.5,305.4C360.1,305.6 359.7,305.7 359.3,305.9C358.9,306 358.4,306.2 357.9,306.3C357.4,306.4 356.7,306.6 355.9,306.9C354.1,307.4 352.8,308.1 352.1,309.1C351.4,310.1 351,311.5 351,313.5C351,317.3 352.3,319.3 355,319.3C357.1,319.3 358.8,318.3 360,316.4C361.2,314.4 361.9,311.8 361.9,308.5L361.9,304.8L361.8,304.8ZM361.8,315.3C360.3,319.1 357.5,321 353.4,321C351.1,321 349.2,320.3 347.8,319C346.4,317.6 345.7,315.9 345.7,313.6C345.7,312.5 345.9,311.4 346.4,310.4C346.8,309.4 347.5,308.5 348.3,307.9C349,307.4 349.8,306.9 350.6,306.6C351.5,306.3 352.8,305.9 354.6,305.5C355.4,305.3 356.1,305.2 356.6,305.1C357.2,304.9 357.8,304.8 358.3,304.7C358.8,304.5 359.4,304.3 359.9,304.1C360.5,303.9 361.1,303.6 361.8,303.3L361.8,299.3C361.8,295.3 360.2,293.2 356.9,293.2C355.6,293.2 354.6,293.4 353.9,293.9C353.3,294.3 352.6,295.3 352,296.7C351.6,297.5 351.2,298.4 350.9,299.4C350.6,300.4 350.2,301.5 349.8,302.8L348.3,302.8L348.3,294.1C351.1,292.6 354.1,291.8 357.3,291.8C360.3,291.8 362.6,292.6 364.2,294.1C365.8,295.6 366.6,297.8 366.6,300.7L366.6,318.8L369.3,318.8L369.3,320.1L361.9,320.1L361.9,315.3L361.8,315.3ZM390.2,303.4L390.2,293C389.6,292.6 389,292.4 388.4,292.2C387.9,292 387.3,292 386.6,292C385.1,292 383.8,292.4 382.7,293.2C381.7,294 380.7,295.4 379.8,297.3L379.8,292.7L372.4,292.7L372.4,294L375.1,294L375.1,319L372.4,319L372.4,320.3L383.8,320.3L383.8,319L380.1,319L380.1,302.7C380.2,301.8 380.3,301.1 380.4,300.4C380.5,299.7 380.7,299 380.9,298.5C381.1,297.9 381.3,297.4 381.6,296.8C382,296.1 382.5,295.4 383.1,294.9C383.7,294.3 384.2,294 384.7,294C384.9,294 385.1,294 385.3,294.1C385.4,294.1 385.6,294.3 385.7,294.5C385.9,294.7 386,295 386.2,295.4C386.4,295.8 386.6,296.3 386.8,296.9C387.2,297.9 387.6,298.9 387.8,299.9C388.1,300.9 388.4,302 388.7,303.4L390.2,303.4ZM408.5,304.8C408,305 407.6,305.2 407.2,305.4C406.8,305.6 406.4,305.7 406,305.9C405.6,306 405.1,306.2 404.6,306.3C404.1,306.4 403.4,306.6 402.6,306.9C400.8,307.4 399.5,308.1 398.8,309.1C398.1,310.1 397.7,311.5 397.7,313.5C397.7,317.3 399,319.3 401.7,319.3C403.8,319.3 405.5,318.3 406.7,316.4C407.9,314.4 408.6,311.8 408.6,308.5L408.6,304.8L408.5,304.8ZM408.5,315.3C407,319.1 404.2,321 400.1,321C397.8,321 395.9,320.3 394.5,319C393.1,317.6 392.4,315.9 392.4,313.6C392.4,312.5 392.6,311.4 393.1,310.4C393.5,309.4 394.2,308.5 395,307.9C395.7,307.4 396.5,306.9 397.3,306.6C398.2,306.3 399.5,305.9 401.3,305.5C402.1,305.3 402.8,305.2 403.3,305.1C403.9,304.9 404.5,304.8 405,304.7C405.5,304.5 406.1,304.3 406.6,304.1C407.2,303.9 407.8,303.6 408.5,303.3L408.5,299.3C408.5,295.3 406.9,293.2 403.6,293.2C402.3,293.2 401.3,293.4 400.6,293.9C400,294.3 399.3,295.3 398.7,296.7C398.3,297.5 397.9,298.4 397.6,299.4C397.3,300.4 396.9,301.5 396.5,302.8L395,302.8L395,294.1C397.8,292.6 400.8,291.8 404,291.8C407,291.8 409.3,292.6 410.9,294.1C412.5,295.6 413.3,297.8 413.3,300.7L413.3,318.8L416,318.8L416,320.1L408.6,320.1L408.6,315.3L408.5,315.3ZM444.3,318.9C448,318.9 450.6,318.2 452.2,316.8C453.8,315.4 454.6,313 454.6,309.7C454.6,308.2 454.4,306.8 454.1,305.7C453.8,304.6 453.3,303.7 452.5,303C451.8,302.3 450.9,301.8 449.7,301.5C448.6,301.2 447.2,301 445.5,301L441.3,301L441.3,318.8L444.3,318.8L444.3,318.9ZM443.4,299.8C446.5,299.8 448.7,299.2 450.1,297.9C451.5,296.6 452.1,294.5 452.1,291.6C452.1,288.9 451.5,286.9 450.5,285.7C449.4,284.4 447.7,283.8 445.4,283.8L441.3,283.8L441.3,299.8L443.4,299.8ZM445.5,282.5C447.7,282.5 449.5,282.7 450.8,283C452.2,283.3 453.3,283.8 454.4,284.5C455.6,285.3 456.5,286.3 457.2,287.5C457.8,288.7 458.2,289.9 458.2,291.3C458.2,293.7 457.4,295.7 455.8,297.2C454.2,298.8 451.9,299.8 448.9,300.3C450.7,300.4 452.2,300.6 453.3,300.9C454.4,301.2 455.4,301.6 456.4,302.1C457.8,302.9 458.8,304 459.6,305.3C460.4,306.6 460.8,308.1 460.8,309.7C460.8,311.6 460.3,313.4 459.2,315C458.1,316.6 456.6,317.8 454.7,318.7C453.5,319.3 452,319.7 450.3,320C448.6,320.3 446.6,320.4 444.5,320.4L432.4,320.4L432.4,319.1L435.8,319.1L435.8,284L432.4,284L432.4,282.7L445.5,282.7L445.5,282.5ZM480,304.8C479.6,305 479.1,305.2 478.7,305.4C478.3,305.6 477.9,305.7 477.5,305.9C477.1,306 476.6,306.2 476.1,306.3C475.6,306.4 474.9,306.6 474.1,306.9C472.3,307.4 471,308.1 470.3,309.1C469.6,310.1 469.2,311.5 469.2,313.5C469.2,317.3 470.5,319.3 473.2,319.3C475.3,319.3 477,318.3 478.2,316.4C479.4,314.4 480.1,311.8 480.1,308.5L480.1,304.8L480,304.8ZM480,315.3C478.5,319.1 475.7,321 471.6,321C469.3,321 467.4,320.3 466,319C464.6,317.6 463.9,315.9 463.9,313.6C463.9,312.5 464.1,311.4 464.6,310.4C465.1,309.4 465.7,308.5 466.5,307.9C467.2,307.4 468,306.9 468.8,306.6C469.7,306.3 471,305.9 472.8,305.5C473.6,305.3 474.3,305.2 474.8,305.1C475.4,304.9 476,304.8 476.5,304.7C477,304.5 477.6,304.3 478.1,304.1C478.7,303.9 479.3,303.6 480,303.3L480,299.3C480,295.3 478.4,293.2 475.1,293.2C473.8,293.2 472.8,293.4 472.1,293.9C471.5,294.3 470.8,295.3 470.2,296.7C469.8,297.5 469.4,298.4 469.1,299.4C468.8,300.4 468.4,301.5 468,302.8L466.5,302.8L466.5,294.1C469.3,292.6 472.3,291.8 475.5,291.8C478.5,291.8 480.8,292.6 482.3,294.1C483.9,295.6 484.7,297.8 484.7,300.7L484.7,318.8L487.4,318.8L487.4,320.1L480,320.1L480,315.3ZM498,292.7L490.7,292.7L490.7,294L493.3,294L493.3,319L490.7,319L490.7,320.3L501.4,320.3L501.4,319L498,319L498,302.9C498,300.2 498.5,298 499.6,296.3C500.7,294.6 502.1,293.8 504,293.8C505.2,293.8 506.1,294.2 506.8,295.1C507.4,295.9 507.8,297.1 507.8,298.6L507.8,319L504.4,319L504.4,320.3L515,320.3L515,319L512.4,319L512.4,298.3C512.4,296.3 511.8,294.7 510.6,293.7C509.4,292.6 507.6,292.1 505.2,292.1C503.4,292.1 502,292.5 500.8,293.3C499.7,294.1 498.7,295.5 497.9,297.4L497.9,292.7L498,292.7ZM535.6,294L532.2,294L532.2,292.7L539.9,292.7L539.9,294L537.4,294L529.5,303.3L540.5,318.9L542.6,318.9L542.6,320.2L535.5,320.2L525.6,305.7L535.6,294ZM525.4,318.9L528.8,318.9L528.8,320.2L518,320.2L518,318.9L520.7,318.9L520.7,283.8L518,283.8L518,282.5L525.4,282.5L525.4,318.9Z" style="fill:rgb(0,159,232);fill-rule:nonzero;"></path>
            </g>
            <g transform="matrix(2.06203,0,0,2.06203,-1169.41,180.093)">
                <path d="M288,318.8C284.8,320.3 281.6,321 278.3,321C275.7,321 273.3,320.6 271.2,319.6C269.1,318.7 267.3,317.4 265.8,315.7C264.3,314 263.2,312 262.3,309.6C261.5,307.2 261.1,304.6 261.1,301.6C261.1,298.6 261.5,295.8 262.3,293.4C263.1,291 264.3,288.9 265.8,287.1C267.3,285.4 269.1,284.1 271.2,283.1C273.3,282.2 275.7,281.7 278.3,281.7C281.4,281.7 284.6,282.5 287.7,284L287.7,294.6L286.3,294.6C286.2,294.3 286.2,294.1 286.1,293.9C286.1,293.7 286,293.5 285.9,293.4C285.3,291.2 284.7,289.4 284.1,288C283.6,286.6 283,285.6 282.4,284.8C281.8,284 281.1,283.5 280.4,283.3C279.6,283 278.7,282.9 277.6,282.9C274.2,282.9 271.8,284.4 270.2,287.4C268.6,290.4 267.8,295.2 267.8,301.7C267.8,305 268,307.7 268.3,309.7C268.6,311.7 269.2,313.5 269.9,315C271.5,318 274,319.5 277.3,319.5C278.5,319.5 279.6,319.3 280.5,318.9C281.4,318.5 282.2,317.8 282.9,316.9C283.6,315.9 284.2,314.5 284.7,312.8C285.2,311.1 285.8,308.9 286.3,306.2L287.8,306.2L287.8,318.8L288,318.8ZM307.8,304.8C307.4,305 306.9,305.2 306.5,305.4C306.1,305.6 305.7,305.7 305.3,305.9C304.9,306 304.4,306.2 303.9,306.3C303.4,306.4 302.7,306.6 301.9,306.9C300,307.4 298.8,308.1 298.1,309.1C297.4,310.1 297,311.5 297,313.5C297,317.3 298.3,319.3 301,319.3C303.1,319.3 304.8,318.3 306,316.4C307.2,314.4 307.9,311.8 307.9,308.5L307.9,304.8L307.8,304.8ZM307.8,315.3C306.3,319.1 303.5,321 299.4,321C297.1,321 295.2,320.3 293.8,319C292.4,317.6 291.7,315.9 291.7,313.6C291.7,312.5 291.9,311.4 292.4,310.4C292.9,309.4 293.5,308.5 294.3,307.9C295,307.4 295.7,306.9 296.6,306.6C297.5,306.3 298.8,305.9 300.6,305.5C301.4,305.3 302.1,305.2 302.6,305.1C303.2,304.9 303.8,304.8 304.3,304.7C304.8,304.5 305.4,304.3 305.9,304.1C306.5,303.9 307.1,303.6 307.8,303.3L307.8,299.3C307.8,295.3 306.2,293.2 302.9,293.2C301.6,293.2 300.6,293.4 299.9,293.9C299.3,294.3 298.6,295.3 298,296.7C297.6,297.5 297.2,298.4 296.9,299.4C296.6,300.4 296.2,301.5 295.8,302.8L294.3,302.8L294.3,294.1C297.1,292.6 300.1,291.8 303.3,291.8C306.3,291.8 308.6,292.6 310.1,294.1C311.7,295.6 312.5,297.8 312.5,300.7L312.5,318.8L315.2,318.8L315.2,320.1L307.8,320.1L307.8,315.3ZM325.8,292.7L318.4,292.7L318.4,294L321.1,294L321.1,319L318.4,319L318.4,320.3L329.2,320.3L329.2,319L325.8,319L325.8,302.9C325.8,300.2 326.3,298 327.4,296.3C328.5,294.6 329.9,293.8 331.8,293.8C333,293.8 333.9,294.2 334.6,295.1C335.2,295.9 335.6,297.1 335.6,298.6L335.6,319L332.1,319L332.1,320.3L342.9,320.3L342.9,319L340.3,319L340.3,298.3C340.3,296.3 339.7,294.7 338.5,293.7C337.3,292.6 335.5,292.1 333.1,292.1C331.3,292.1 329.9,292.5 328.7,293.3C327.6,294.1 326.6,295.5 325.8,297.4L325.8,292.7ZM361.8,304.8C361.3,305 360.9,305.2 360.5,305.4C360.1,305.6 359.7,305.7 359.3,305.9C358.9,306 358.4,306.2 357.9,306.3C357.4,306.4 356.7,306.6 355.9,306.9C354.1,307.4 352.8,308.1 352.1,309.1C351.4,310.1 351,311.5 351,313.5C351,317.3 352.3,319.3 355,319.3C357.1,319.3 358.8,318.3 360,316.4C361.2,314.4 361.9,311.8 361.9,308.5L361.9,304.8L361.8,304.8ZM361.8,315.3C360.3,319.1 357.5,321 353.4,321C351.1,321 349.2,320.3 347.8,319C346.4,317.6 345.7,315.9 345.7,313.6C345.7,312.5 345.9,311.4 346.4,310.4C346.8,309.4 347.5,308.5 348.3,307.9C349,307.4 349.8,306.9 350.6,306.6C351.5,306.3 352.8,305.9 354.6,305.5C355.4,305.3 356.1,305.2 356.6,305.1C357.2,304.9 357.8,304.8 358.3,304.7C358.8,304.5 359.4,304.3 359.9,304.1C360.5,303.9 361.1,303.6 361.8,303.3L361.8,299.3C361.8,295.3 360.2,293.2 356.9,293.2C355.6,293.2 354.6,293.4 353.9,293.9C353.3,294.3 352.6,295.3 352,296.7C351.6,297.5 351.2,298.4 350.9,299.4C350.6,300.4 350.2,301.5 349.8,302.8L348.3,302.8L348.3,294.1C351.1,292.6 354.1,291.8 357.3,291.8C360.3,291.8 362.6,292.6 364.2,294.1C365.8,295.6 366.6,297.8 366.6,300.7L366.6,318.8L369.3,318.8L369.3,320.1L361.9,320.1L361.9,315.3L361.8,315.3ZM390.2,303.4L390.2,293C389.6,292.6 389,292.4 388.4,292.2C387.9,292 387.3,292 386.6,292C385.1,292 383.8,292.4 382.7,293.2C381.7,294 380.7,295.4 379.8,297.3L379.8,292.7L372.4,292.7L372.4,294L375.1,294L375.1,319L372.4,319L372.4,320.3L383.8,320.3L383.8,319L380.1,319L380.1,302.7C380.2,301.8 380.3,301.1 380.4,300.4C380.5,299.7 380.7,299 380.9,298.5C381.1,297.9 381.3,297.4 381.6,296.8C382,296.1 382.5,295.4 383.1,294.9C383.7,294.3 384.2,294 384.7,294C384.9,294 385.1,294 385.3,294.1C385.4,294.1 385.6,294.3 385.7,294.5C385.9,294.7 386,295 386.2,295.4C386.4,295.8 386.6,296.3 386.8,296.9C387.2,297.9 387.6,298.9 387.8,299.9C388.1,300.9 388.4,302 388.7,303.4L390.2,303.4ZM408.5,304.8C408,305 407.6,305.2 407.2,305.4C406.8,305.6 406.4,305.7 406,305.9C405.6,306 405.1,306.2 404.6,306.3C404.1,306.4 403.4,306.6 402.6,306.9C400.8,307.4 399.5,308.1 398.8,309.1C398.1,310.1 397.7,311.5 397.7,313.5C397.7,317.3 399,319.3 401.7,319.3C403.8,319.3 405.5,318.3 406.7,316.4C407.9,314.4 408.6,311.8 408.6,308.5L408.6,304.8L408.5,304.8ZM408.5,315.3C407,319.1 404.2,321 400.1,321C397.8,321 395.9,320.3 394.5,319C393.1,317.6 392.4,315.9 392.4,313.6C392.4,312.5 392.6,311.4 393.1,310.4C393.5,309.4 394.2,308.5 395,307.9C395.7,307.4 396.5,306.9 397.3,306.6C398.2,306.3 399.5,305.9 401.3,305.5C402.1,305.3 402.8,305.2 403.3,305.1C403.9,304.9 404.5,304.8 405,304.7C405.5,304.5 406.1,304.3 406.6,304.1C407.2,303.9 407.8,303.6 408.5,303.3L408.5,299.3C408.5,295.3 406.9,293.2 403.6,293.2C402.3,293.2 401.3,293.4 400.6,293.9C400,294.3 399.3,295.3 398.7,296.7C398.3,297.5 397.9,298.4 397.6,299.4C397.3,300.4 396.9,301.5 396.5,302.8L395,302.8L395,294.1C397.8,292.6 400.8,291.8 404,291.8C407,291.8 409.3,292.6 410.9,294.1C412.5,295.6 413.3,297.8 413.3,300.7L413.3,318.8L416,318.8L416,320.1L408.6,320.1L408.6,315.3L408.5,315.3ZM444.3,318.9C448,318.9 450.6,318.2 452.2,316.8C453.8,315.4 454.6,313 454.6,309.7C454.6,308.2 454.4,306.8 454.1,305.7C453.8,304.6 453.3,303.7 452.5,303C451.8,302.3 450.9,301.8 449.7,301.5C448.6,301.2 447.2,301 445.5,301L441.3,301L441.3,318.8L444.3,318.8L444.3,318.9ZM443.4,299.8C446.5,299.8 448.7,299.2 450.1,297.9C451.5,296.6 452.1,294.5 452.1,291.6C452.1,288.9 451.5,286.9 450.5,285.7C449.4,284.4 447.7,283.8 445.4,283.8L441.3,283.8L441.3,299.8L443.4,299.8ZM445.5,282.5C447.7,282.5 449.5,282.7 450.8,283C452.2,283.3 453.3,283.8 454.4,284.5C455.6,285.3 456.5,286.3 457.2,287.5C457.8,288.7 458.2,289.9 458.2,291.3C458.2,293.7 457.4,295.7 455.8,297.2C454.2,298.8 451.9,299.8 448.9,300.3C450.7,300.4 452.2,300.6 453.3,300.9C454.4,301.2 455.4,301.6 456.4,302.1C457.8,302.9 458.8,304 459.6,305.3C460.4,306.6 460.8,308.1 460.8,309.7C460.8,311.6 460.3,313.4 459.2,315C458.1,316.6 456.6,317.8 454.7,318.7C453.5,319.3 452,319.7 450.3,320C448.6,320.3 446.6,320.4 444.5,320.4L432.4,320.4L432.4,319.1L435.8,319.1L435.8,284L432.4,284L432.4,282.7L445.5,282.7L445.5,282.5ZM480,304.8C479.6,305 479.1,305.2 478.7,305.4C478.3,305.6 477.9,305.7 477.5,305.9C477.1,306 476.6,306.2 476.1,306.3C475.6,306.4 474.9,306.6 474.1,306.9C472.3,307.4 471,308.1 470.3,309.1C469.6,310.1 469.2,311.5 469.2,313.5C469.2,317.3 470.5,319.3 473.2,319.3C475.3,319.3 477,318.3 478.2,316.4C479.4,314.4 480.1,311.8 480.1,308.5L480.1,304.8L480,304.8ZM480,315.3C478.5,319.1 475.7,321 471.6,321C469.3,321 467.4,320.3 466,319C464.6,317.6 463.9,315.9 463.9,313.6C463.9,312.5 464.1,311.4 464.6,310.4C465.1,309.4 465.7,308.5 466.5,307.9C467.2,307.4 468,306.9 468.8,306.6C469.7,306.3 471,305.9 472.8,305.5C473.6,305.3 474.3,305.2 474.8,305.1C475.4,304.9 476,304.8 476.5,304.7C477,304.5 477.6,304.3 478.1,304.1C478.7,303.9 479.3,303.6 480,303.3L480,299.3C480,295.3 478.4,293.2 475.1,293.2C473.8,293.2 472.8,293.4 472.1,293.9C471.5,294.3 470.8,295.3 470.2,296.7C469.8,297.5 469.4,298.4 469.1,299.4C468.8,300.4 468.4,301.5 468,302.8L466.5,302.8L466.5,294.1C469.3,292.6 472.3,291.8 475.5,291.8C478.5,291.8 480.8,292.6 482.3,294.1C483.9,295.6 484.7,297.8 484.7,300.7L484.7,318.8L487.4,318.8L487.4,320.1L480,320.1L480,315.3ZM498,292.7L490.7,292.7L490.7,294L493.3,294L493.3,319L490.7,319L490.7,320.3L501.4,320.3L501.4,319L498,319L498,302.9C498,300.2 498.5,298 499.6,296.3C500.7,294.6 502.1,293.8 504,293.8C505.2,293.8 506.1,294.2 506.8,295.1C507.4,295.9 507.8,297.1 507.8,298.6L507.8,319L504.4,319L504.4,320.3L515,320.3L515,319L512.4,319L512.4,298.3C512.4,296.3 511.8,294.7 510.6,293.7C509.4,292.6 507.6,292.1 505.2,292.1C503.4,292.1 502,292.5 500.8,293.3C499.7,294.1 498.7,295.5 497.9,297.4L497.9,292.7L498,292.7ZM535.6,294L532.2,294L532.2,292.7L539.9,292.7L539.9,294L537.4,294L529.5,303.3L540.5,318.9L542.6,318.9L542.6,320.2L535.5,320.2L525.6,305.7L535.6,294ZM525.4,318.9L528.8,318.9L528.8,320.2L518,320.2L518,318.9L520.7,318.9L520.7,283.8L518,283.8L518,282.5L525.4,282.5L525.4,318.9Z" style="fill:none;fill-rule:nonzero;stroke:rgb(0,159,232);stroke-width:0.35px;"></path>
            </g>
            <g transform="matrix(1.89146,0,0,1.89146,-1287.85,244.787)">
                <path d="M189.1,277.5C189.9,277.5 190.6,277.8 191.2,278.4C191.8,278.9 192.1,279.6 192.1,280.4C192.1,281.2 191.8,281.9 191.3,282.4C190.7,282.9 190.1,283.2 189.3,283.2C188.5,283.2 187.8,282.9 187.2,282.3C186.6,281.7 186.3,281 186.3,280.3C186.3,279.5 186.6,278.9 187.1,278.3C187.6,277.8 188.3,277.5 189.1,277.5M41.6,285.9L33.6,274.6L30.3,274.6L30.3,273.1L38.5,273.1L47.2,285.9L146.4,285.9L146.4,287.5L141.8,287.5L141.8,318.2L145.1,318.2L145.1,319.8L133.2,319.8L133.2,318.2L136.1,318.2L136.1,287.5L124.1,287.5C126.5,288 131.3,288.7 131.3,293.8C131.3,295.9 130.5,297.6 129.5,298.7C128.5,299.8 126.1,301.1 124.1,301.1L117.6,301.1L117.6,313.5C117.6,317.1 118.3,318.6 121.2,318.6C122.3,318.6 123.2,318.4 123.8,318C124.4,317.6 125,316.8 125.6,315.6C125.9,314.9 126.2,314.4 126.5,313.5C126.8,312.6 127.1,311.6 127.5,310.4L128.8,310.4L128.8,318.2C126.4,319.6 123.5,320.3 120.7,320.3C118.1,320.3 115.8,319.6 114.4,318.2C113,316.9 111.9,314.9 111.9,312.2L111.9,301.2L107.4,301.2L107.4,299.5L120.4,299.5C123.7,299.5 124.9,296 124.9,293.7C124.9,292 124.3,288.8 122.1,287.9C121.5,287.7 120.8,287.7 120.3,287.6L101.4,287.6L101.4,318.3L104.3,318.3L104.3,319.9L92.7,319.9L92.7,318.3L95.6,318.3L95.6,295.4L84.3,295.4C85.1,295.8 85.8,295.8 86.3,296.3C87.2,297.1 87.9,298 88.4,299.1C88.9,300.2 89.2,301.3 89.2,302.6C89.2,304.1 88.9,305.4 88.4,306.7C87.9,307.9 87.2,309 86.2,309.9C85.3,310.8 84.2,311.5 83,312C81.7,312.5 80.3,312.7 78.9,312.7C77.5,312.7 76.2,312.5 74.9,311.9C73.6,311.4 72.5,310.7 71.5,309.7C70.6,308.9 70,307.9 69.6,306.9C69.2,305.9 69,304.6 69,303.2C69,301.8 69.3,300.6 69.8,299.4C70.3,298.2 71.1,297.3 72,296.4C72.9,295.6 74,294.9 75.3,294.4C76.6,293.9 77.9,293.7 79.4,293.7L95.7,293.7L95.7,287.5L47.3,287.5L47.3,295C47.5,294.7 47.7,294.4 48,294.1C49.3,292.7 51.3,292 53.8,292C55.3,292 56.6,292.3 57.9,292.9C59.2,293.5 60.2,294.3 61.1,295.4C62,296.4 62.7,297.6 63.2,299C63.7,300.4 64,302 64,303.6C64,305.3 63.7,306.9 63.2,308.3C62.6,309.8 61.9,311 60.9,312C59.9,313.1 57.4,315.2 54.7,315.2C53,315.2 52.2,314.7 51,314.3C50.9,314.3 50.7,314.2 50.5,314.1L50.5,306.3L51.6,306.3C52,307.9 52.1,308.2 52.4,309.5C52.7,310.5 53,311.3 53.3,312.1C53.6,312.8 54.1,313.8 54.8,313.8C55.8,313.8 56.6,312.6 57.2,311.3C57.9,309.7 58.2,307.6 58.2,304.3C58.2,300.6 57.7,297.9 56.8,296.1C55.8,294.3 54.5,293.5 52.4,293.5C50.4,293.5 49.2,294.4 48,296.3C47.7,296.8 47.4,297.4 47.3,298.1L47.3,318.5L50.1,318.5L50.1,320.1L39,320.1L39,318.5L41.8,318.5L41.8,313.5C40.5,314.9 38.5,315.6 36,315.6C34.5,315.6 33.2,315.3 31.9,314.7C30.6,314.1 29.6,313.3 28.7,312.2C27.8,311.2 27.1,310 26.6,308.6C26.1,307.2 25.8,305.7 25.8,304C25.8,302.3 26.1,300.7 26.6,299.3C27.2,297.8 27.9,296.6 28.9,295.6C29.9,294.6 31.1,293.8 32.5,293.2C33.8,292.7 35.3,292.4 36.9,292.3C39.2,292.3 40.6,293.2 41.8,294.4L41.9,287.8L27.5,287.8L27.5,286.2L41.6,286.2L41.6,285.9ZM41.8,296.8L41.6,296.5C40.5,294.6 38.6,293.3 36.9,293.2L36.4,293.2C35.2,293.2 34.2,294 33.2,295.7C32.3,297.4 31.8,299.9 31.8,303.2C31.8,306.9 32.3,309.1 33.2,310.9C34.2,312.7 35,313.5 37.1,313.5C39.1,313.5 40.4,312.6 41.6,310.7L41.8,296.8ZM79.9,295.2L78.9,295.2C78.1,295.2 77.3,295.4 76.7,295.9C76.1,296.4 75.6,297.1 75.3,298C75.1,298.6 74.9,299.4 74.8,300.2C74.7,301 74.7,302.1 74.7,303.3C74.7,305 74.8,306.3 74.9,307.3C75,308.2 75.3,309 75.6,309.5C75.9,310 76.3,310.5 76.9,310.8C77.4,311.1 78,311.3 78.7,311.3C79.5,311.3 80.2,311.2 80.7,310.8C81.2,310.5 81.7,310 82,309.3C82.4,308.7 82.6,307.8 82.7,306.7C82.9,305.6 82.9,304.3 82.9,302.7C82.9,301.4 82.8,300.2 82.7,299.3C82.6,298.3 82.3,297.6 82,297C81.7,296.4 81.3,296 80.8,295.7C80.6,295.4 80.3,295.3 79.9,295.2M167.5,298.1L178.7,307L178.7,300.5C178.5,299.6 178.4,298.9 178.2,298.4C178,297.7 177.8,297.1 177.5,296.6C176.3,294.7 174.7,293.6 173,293.6C170.9,293.6 169.3,294.5 168.3,296.3C168,296.7 167.8,297.4 167.5,298.1M178.4,309L167,300.1C166.8,301.2 166.7,302.5 166.7,303.9C166.7,307.4 167.2,310 168.2,311.7C169.2,313.5 170.8,313.9 172.5,313.9C174.6,313.9 176.2,312.8 177.4,310.9C177.7,310.4 177.9,310.1 178.1,309.5C178.3,309.4 178.4,309.3 178.4,309M189,287.6L184.5,287.6L184.5,318.3L187.6,318.3L187.6,319.9L175.4,319.9L175.4,318.3L178.7,318.3L178.7,311.7C178.4,312.3 178,312.9 177.5,313.4C176.1,314.8 174.1,315.5 171.5,315.5C170,315.5 168.6,315.2 167.3,314.6C166,314 164.9,313.2 164,312.1C163.1,311.1 162.4,309.9 161.8,308.5C161.3,307.1 161,305.5 161,303.9L161,303.7C161,302 161.3,300.5 161.8,299.1C162.3,297.7 163.1,296.5 164,295.5C164.9,294.5 166,293.7 167.3,293.1C168.6,292.5 170,292.2 171.5,292.2C174.1,292.2 176.1,292.9 177.5,294.3C178,294.8 178.4,295.3 178.7,296L178.7,287.7L162.2,287.7L162.2,286.1L175.6,286.1L166,277.4L162.8,277.4L162.8,275.9L170.5,275.9L179.4,284.3L175.7,274.4L173,274.4L173,272.9L179.8,272.9L184.4,286L228.2,286L228.2,287.6L211.6,287.6L211.6,295.1C211.8,294.8 212,294.5 212.3,294.2C213.6,292.8 215.5,292.1 218.1,292.1C219.5,292.1 220.9,292.4 222.2,293C223.4,293.6 224.5,294.4 225.4,295.5C226.3,296.5 227,297.7 227.5,299.1C228,300.5 228.3,302.1 228.3,303.7C228.3,305.4 228,307 227.5,308.4C226.9,309.9 226.2,311.1 225.2,312.1C224.2,313.2 221.7,315.3 219,315.3C217.3,315.3 216.6,314.8 215.3,314.4C215.2,314.4 215,314.3 214.8,314.2L214.8,306.4L215.9,306.4C216.3,308 216.4,308.3 216.7,309.6C217,310.6 217.3,311.4 217.6,312.2C217.9,312.9 218.4,313.9 219.1,313.9C220.1,313.9 220.9,312.7 221.5,311.4C222.2,309.8 222.6,307.7 222.6,304.4C222.6,300.7 222.1,298 221.1,296.2C220.2,294.4 218.8,293.6 216.7,293.6C214.7,293.6 213.5,294.5 212.3,296.4C212,296.9 211.7,297.5 211.6,298.2L211.6,318.6L214.4,318.6L214.4,320.2L203.3,320.2L203.3,318.6L206.1,318.6L206.1,313.6C204.8,315 202.9,315.7 200.3,315.7C198.8,315.7 197.5,315.4 196.2,314.8C195,314.2 193.9,313.4 193,312.3C192.1,311.3 191.4,310.1 190.9,308.7C190.4,307.3 190.1,305.8 190.1,304.1C190.1,302.4 190.4,300.8 190.9,299.4C191.5,297.9 192.2,296.7 193.2,295.7C194.2,294.7 195.4,293.9 196.8,293.3C198.1,292.8 199.6,292.5 201.1,292.4C203.5,292.4 204.8,293.3 206,294.5L206.1,287.9L189,287.9L189,287.6ZM206.2,296.8L206,296.5C204.9,294.6 203,293.3 201.3,293.2L200.8,293.2C199.6,293.2 198.6,294 197.6,295.7C196.7,297.4 196.2,299.9 196.2,303.2C196.2,306.9 196.7,309.1 197.7,310.9C198.6,312.7 199.5,313.5 201.6,313.5C203.6,313.5 204.9,312.6 206.1,310.7L206.2,296.8Z" style="fill:rgb(0,159,232);fill-rule:nonzero;"></path>
            </g>
            <g transform="matrix(1.89146,0,0,1.89146,-1287.85,244.787)">
                <path d="M189.1,277.5C189.9,277.5 190.6,277.8 191.2,278.4C191.8,278.9 192.1,279.6 192.1,280.4C192.1,281.2 191.8,281.9 191.3,282.4C190.7,282.9 190.1,283.2 189.3,283.2C188.5,283.2 187.8,282.9 187.2,282.3C186.6,281.7 186.3,281 186.3,280.3C186.3,279.5 186.6,278.9 187.1,278.3C187.6,277.8 188.3,277.5 189.1,277.5ZM41.6,285.9L33.6,274.6L30.3,274.6L30.3,273.1L38.5,273.1L47.2,285.9L146.4,285.9L146.4,287.5L141.8,287.5L141.8,318.2L145.1,318.2L145.1,319.8L133.2,319.8L133.2,318.2L136.1,318.2L136.1,287.5L124.1,287.5C126.5,288 131.3,288.7 131.3,293.8C131.3,295.9 130.5,297.6 129.5,298.7C128.5,299.8 126.1,301.1 124.1,301.1L117.6,301.1L117.6,313.5C117.6,317.1 118.3,318.6 121.2,318.6C122.3,318.6 123.2,318.4 123.8,318C124.4,317.6 125,316.8 125.6,315.6C125.9,314.9 126.2,314.4 126.5,313.5C126.8,312.6 127.1,311.6 127.5,310.4L128.8,310.4L128.8,318.2C126.4,319.6 123.5,320.3 120.7,320.3C118.1,320.3 115.8,319.6 114.4,318.2C113,316.9 111.9,314.9 111.9,312.2L111.9,301.2L107.4,301.2L107.4,299.5L120.4,299.5C123.7,299.5 124.9,296 124.9,293.7C124.9,292 124.3,288.8 122.1,287.9C121.5,287.7 120.8,287.7 120.3,287.6L101.4,287.6L101.4,318.3L104.3,318.3L104.3,319.9L92.7,319.9L92.7,318.3L95.6,318.3L95.6,295.4L84.3,295.4C85.1,295.8 85.8,295.8 86.3,296.3C87.2,297.1 87.9,298 88.4,299.1C88.9,300.2 89.2,301.3 89.2,302.6C89.2,304.1 88.9,305.4 88.4,306.7C87.9,307.9 87.2,309 86.2,309.9C85.3,310.8 84.2,311.5 83,312C81.7,312.5 80.3,312.7 78.9,312.7C77.5,312.7 76.2,312.5 74.9,311.9C73.6,311.4 72.5,310.7 71.5,309.7C70.6,308.9 70,307.9 69.6,306.9C69.2,305.9 69,304.6 69,303.2C69,301.8 69.3,300.6 69.8,299.4C70.3,298.2 71.1,297.3 72,296.4C72.9,295.6 74,294.9 75.3,294.4C76.6,293.9 77.9,293.7 79.4,293.7L95.7,293.7L95.7,287.5L47.3,287.5L47.3,295C47.5,294.7 47.7,294.4 48,294.1C49.3,292.7 51.3,292 53.8,292C55.3,292 56.6,292.3 57.9,292.9C59.2,293.5 60.2,294.3 61.1,295.4C62,296.4 62.7,297.6 63.2,299C63.7,300.4 64,302 64,303.6C64,305.3 63.7,306.9 63.2,308.3C62.6,309.8 61.9,311 60.9,312C59.9,313.1 57.4,315.2 54.7,315.2C53,315.2 52.2,314.7 51,314.3C50.9,314.3 50.7,314.2 50.5,314.1L50.5,306.3L51.6,306.3C52,307.9 52.1,308.2 52.4,309.5C52.7,310.5 53,311.3 53.3,312.1C53.6,312.8 54.1,313.8 54.8,313.8C55.8,313.8 56.6,312.6 57.2,311.3C57.9,309.7 58.2,307.6 58.2,304.3C58.2,300.6 57.7,297.9 56.8,296.1C55.8,294.3 54.5,293.5 52.4,293.5C50.4,293.5 49.2,294.4 48,296.3C47.7,296.8 47.4,297.4 47.3,298.1L47.3,318.5L50.1,318.5L50.1,320.1L39,320.1L39,318.5L41.8,318.5L41.8,313.5C40.5,314.9 38.5,315.6 36,315.6C34.5,315.6 33.2,315.3 31.9,314.7C30.6,314.1 29.6,313.3 28.7,312.2C27.8,311.2 27.1,310 26.6,308.6C26.1,307.2 25.8,305.7 25.8,304C25.8,302.3 26.1,300.7 26.6,299.3C27.2,297.8 27.9,296.6 28.9,295.6C29.9,294.6 31.1,293.8 32.5,293.2C33.8,292.7 35.3,292.4 36.9,292.3C39.2,292.3 40.6,293.2 41.8,294.4L41.9,287.8L27.5,287.8L27.5,286.2L41.6,286.2L41.6,285.9ZM41.8,296.8L41.6,296.5C40.5,294.6 38.6,293.3 36.9,293.2L36.4,293.2C35.2,293.2 34.2,294 33.2,295.7C32.3,297.4 31.8,299.9 31.8,303.2C31.8,306.9 32.3,309.1 33.2,310.9C34.2,312.7 35,313.5 37.1,313.5C39.1,313.5 40.4,312.6 41.6,310.7L41.8,296.8ZM79.9,295.2L78.9,295.2C78.1,295.2 77.3,295.4 76.7,295.9C76.1,296.4 75.6,297.1 75.3,298C75.1,298.6 74.9,299.4 74.8,300.2C74.7,301 74.7,302.1 74.7,303.3C74.7,305 74.8,306.3 74.9,307.3C75,308.2 75.3,309 75.6,309.5C75.9,310 76.3,310.5 76.9,310.8C77.4,311.1 78,311.3 78.7,311.3C79.5,311.3 80.2,311.2 80.7,310.8C81.2,310.5 81.7,310 82,309.3C82.4,308.7 82.6,307.8 82.7,306.7C82.9,305.6 82.9,304.3 82.9,302.7C82.9,301.4 82.8,300.2 82.7,299.3C82.6,298.3 82.3,297.6 82,297C81.7,296.4 81.3,296 80.8,295.7C80.6,295.4 80.3,295.3 79.9,295.2ZM167.5,298.1L178.7,307L178.7,300.5C178.5,299.6 178.4,298.9 178.2,298.4C178,297.7 177.8,297.1 177.5,296.6C176.3,294.7 174.7,293.6 173,293.6C170.9,293.6 169.3,294.5 168.3,296.3C168,296.7 167.8,297.4 167.5,298.1ZM178.4,309L167,300.1C166.8,301.2 166.7,302.5 166.7,303.9C166.7,307.4 167.2,310 168.2,311.7C169.2,313.5 170.8,313.9 172.5,313.9C174.6,313.9 176.2,312.8 177.4,310.9C177.7,310.4 177.9,310.1 178.1,309.5C178.3,309.4 178.4,309.3 178.4,309ZM189,287.6L184.5,287.6L184.5,318.3L187.6,318.3L187.6,319.9L175.4,319.9L175.4,318.3L178.7,318.3L178.7,311.7C178.4,312.3 178,312.9 177.5,313.4C176.1,314.8 174.1,315.5 171.5,315.5C170,315.5 168.6,315.2 167.3,314.6C166,314 164.9,313.2 164,312.1C163.1,311.1 162.4,309.9 161.8,308.5C161.3,307.1 161,305.5 161,303.9L161,303.7C161,302 161.3,300.5 161.8,299.1C162.3,297.7 163.1,296.5 164,295.5C164.9,294.5 166,293.7 167.3,293.1C168.6,292.5 170,292.2 171.5,292.2C174.1,292.2 176.1,292.9 177.5,294.3C178,294.8 178.4,295.3 178.7,296L178.7,287.7L162.2,287.7L162.2,286.1L175.6,286.1L166,277.4L162.8,277.4L162.8,275.9L170.5,275.9L179.4,284.3L175.7,274.4L173,274.4L173,272.9L179.8,272.9L184.4,286L228.2,286L228.2,287.6L211.6,287.6L211.6,295.1C211.8,294.8 212,294.5 212.3,294.2C213.6,292.8 215.5,292.1 218.1,292.1C219.5,292.1 220.9,292.4 222.2,293C223.4,293.6 224.5,294.4 225.4,295.5C226.3,296.5 227,297.7 227.5,299.1C228,300.5 228.3,302.1 228.3,303.7C228.3,305.4 228,307 227.5,308.4C226.9,309.9 226.2,311.1 225.2,312.1C224.2,313.2 221.7,315.3 219,315.3C217.3,315.3 216.6,314.8 215.3,314.4C215.2,314.4 215,314.3 214.8,314.2L214.8,306.4L215.9,306.4C216.3,308 216.4,308.3 216.7,309.6C217,310.6 217.3,311.4 217.6,312.2C217.9,312.9 218.4,313.9 219.1,313.9C220.1,313.9 220.9,312.7 221.5,311.4C222.2,309.8 222.6,307.7 222.6,304.4C222.6,300.7 222.1,298 221.1,296.2C220.2,294.4 218.8,293.6 216.7,293.6C214.7,293.6 213.5,294.5 212.3,296.4C212,296.9 211.7,297.5 211.6,298.2L211.6,318.6L214.4,318.6L214.4,320.2L203.3,320.2L203.3,318.6L206.1,318.6L206.1,313.6C204.8,315 202.9,315.7 200.3,315.7C198.8,315.7 197.5,315.4 196.2,314.8C195,314.2 193.9,313.4 193,312.3C192.1,311.3 191.4,310.1 190.9,308.7C190.4,307.3 190.1,305.8 190.1,304.1C190.1,302.4 190.4,300.8 190.9,299.4C191.5,297.9 192.2,296.7 193.2,295.7C194.2,294.7 195.4,293.9 196.8,293.3C198.1,292.8 199.6,292.5 201.1,292.4C203.5,292.4 204.8,293.3 206,294.5L206.1,287.9L189,287.9L189,287.6ZM206.2,296.8L206,296.5C204.9,294.6 203,293.3 201.3,293.2L200.8,293.2C199.6,293.2 198.6,294 197.6,295.7C196.7,297.4 196.2,299.9 196.2,303.2C196.2,306.9 196.7,309.1 197.7,310.9C198.6,312.7 199.5,313.5 201.6,313.5C203.6,313.5 204.9,312.6 206.1,310.7L206.2,296.8Z" style="fill:none;fill-rule:nonzero;stroke:rgb(0,159,232);stroke-width:0.35px;"></path>
            </g>
            <g transform="matrix(2.66421,0,0,2.66421,-2298.23,17.334)">
                <path d="M601.5,264.9L624.7,307.6C627.5,312.2 624.6,316.9 619.3,316.1C617.6,315.8 606.9,314.4 593.3,312.5L597.2,307.3L615.6,309.3C617.1,309.5 617.8,309 617,307.4C617,307.4 599.7,272.5 599.5,272.1C598.9,271 598.3,271.4 597.7,272.3C597.7,272.3 580.7,303.2 580.5,303.6C579.9,304.8 580.1,305.4 581.9,305.6L588.6,306.3L584.7,311.1L576,309.7C573.8,309.4 573.1,308 574.3,305.8C575.2,304.1 595.5,267 595.5,267C595.9,266.3 596.3,265.7 596.7,265C597.9,263 600,262.4 601.5,264.9" style="fill:rgb(0,159,232);fill-rule:nonzero;"></path>
            </g>
            <g transform="matrix(2.66421,0,0,2.66421,-2298.23,17.334)">
                <path d="M551.3,297.7L581.7,292.3L579.1,297L558.1,300.5C557,300.7 557.1,301.2 557.8,301.7C557.8,301.7 576.1,314.3 577.9,315.5C579.3,316.5 580.1,316.9 581.3,315.3C581.3,315.3 596.2,297.1 596.9,295.8C598,294.3 598.5,293.7 596.7,294L586.4,295.7L589,290.9L602.8,288.4C606,287.9 607.2,290.1 605.7,292.4C604.4,294.3 582.4,323.8 582.4,323.8C581,325.9 579.9,325.8 578.3,324.3C576.3,322.6 550.3,301.1 550.3,301.1C548.7,299.8 549.2,298.1 551.3,297.7" style="fill:rgb(251,198,0);fill-rule:nonzero;"></path>
            </g>
        </g>
    </g>
</svg>
