<?xml version="1.0" encoding="UTF-8"?>
<!-- Creator: CorelDRAW 2021 (64-Bit) -->
<svg xmlns="http://www.w3.org/2000/svg" xmlns:xlink="http://www.w3.org/1999/xlink" xmlns:xodm="http://www.corel.com/coreldraw/odm/2003" xml:space="preserve" width="404px" height="159px" version="1.1" style="shape-rendering:geometricPrecision; text-rendering:geometricPrecision; image-rendering:optimizeQuality; fill-rule:evenodd; clip-rule:evenodd" viewBox="0 0 2728 1073.28">
 <defs>
  <style type="text/css">
   <![CDATA[
    .fil3 {fill:#FEFEFE}
    .fil4 {fill:#233B77}
    .fil2 {fill:#9D9E9E;fill-rule:nonzero}
    .fil0 {fill:#C92123;fill-rule:nonzero}
    .fil1 {fill:#233B77;fill-rule:nonzero}
   ]]>
  </style>
 </defs>
 <g id="Layer_x0020_1">
  <metadata id="CorelCorpID_0Corel-Layer"></metadata>
  <polygon class="fil0" points="1263.09,134.48 1060,134.48 1060,212.09 1246.64,212.09 1246.64,336.8 1060,336.8 1060,433.27 1270.18,433.27 1270.18,557.89 920.42,557.89 920.42,9 1263.09,9 "></polygon>
  <path class="fil0" d="M1628.61 396.4c0,-38.45 -45.49,-47.09 -100.41,-50.21 -119.16,-8.59 -197.58,-49.44 -199.13,-168.57 -4.75,-236.81 421.84,-236.81 418.73,0l-133.35 0c0,-72.92 -147.4,-66.69 -152.1,-1.58 -3.17,41.54 37.64,50.18 87.05,55.69 108.96,11.79 215.72,28.24 215.72,165.43 0,230.54 -447.01,234.45 -443.9,-7.03l135.65 0c0,69.78 171.74,70.57 171.74,6.27z"></path>
  <path class="fil0" d="M2044.23 224.66l-61.9 144.29 125.43 0 -63.53 -144.29zm109.04 264.31l-216.44 0 -32.16 68.92 -137.22 0 0 -20.35 247.03 -535.57 60.41 0 247.75 535.57 0 20.35 -137.22 0 -32.15 -68.92z"></path>
  <path class="fil1" d="M848.23 703.76l-14.6 33.82 29.5 0 -14.9 -33.82zm25.57 62l-50.81 0 -7.54 16.22 -32.28 0 0 -4.78 57.99 -125.75 14.23 0 58.1 125.75 0 4.78 -32.15 0 -7.54 -16.22z"></path>
  <polygon class="fil1" points="970.72,752.3 1017.52,752.3 1017.52,781.98 937.61,781.98 937.61,653.1 970.72,653.1 "></polygon>
  <polygon class="fil1" points="1080.38,752.3 1127.24,752.3 1127.24,781.98 1047.33,781.98 1047.33,653.1 1080.38,653.1 "></polygon>
  <polygon class="fil1" points="1248.58,740.17 1248.58,781.97 1215.18,781.97 1215.18,653.11 1295.44,653.11 1295.44,682.55 1248.58,682.55 1248.58,710.71 1290.08,710.71 1290.08,740.17 "></polygon>
  <polygon class="fil1" points="1382.85,753.03 1382.85,781.97 1317.44,781.97 1317.44,753.03 1333.75,753.03 1333.75,681.8 1318.71,681.8 1318.71,653.11 1381.46,653.11 1381.46,681.8 1366.42,681.8 1366.42,753.03 "></polygon>
  <polygon class="fil1" points="1445.71,718.6 1445.71,781.96 1411.69,781.96 1411.69,652.52 1423.68,652.52 1488.83,716.22 1488.83,653.1 1522.47,653.1 1522.47,782.16 1510.71,782.16 "></polygon>
  <path class="fil1" d="M1611.44 703.76l-14.61 33.82 29.46 0 -14.85 -33.82zm25.53 62l-50.84 0 -7.53 16.22 -32.22 0 0 -4.78 57.99 -125.75 14.13 0 58.24 125.75 0 4.78 -32.25 0 -7.52 -16.22z"></path>
  <polygon class="fil1" points="1735.04,718.6 1735.04,781.96 1700.93,781.96 1700.93,652.52 1713.01,652.52 1778.09,716.22 1778.09,653.1 1811.79,653.1 1811.79,782.16 1800.02,782.16 "></polygon>
  <path class="fil1" d="M1910.25 651.61c26.72,0 55.56,14.56 60.62,48.97l-32.43 0c-4.65,-13.08 -14.4,-18.98 -28.19,-18.98 -19.34,0 -32.04,14.55 -32.04,35.93 0,18.95 12.55,35.5 32.04,35.71 13.99,0 25.22,-7.02 28.73,-20.8l32.42 0c-4.86,36.4 -33.7,50.78 -61.15,50.78 -32.77,0.24 -65.85,-21.92 -66.07,-65.69 0.22,-43.81 33.3,-65.92 66.07,-65.92z"></path>
  <path class="fil2" d="M1491.41 1065.57c-6.36,0 -11.53,-0.74 -15.56,-2.27l0.44 -18.41c5.13,1.29 9.8,1.93 14.01,1.93 12.24,0 20.01,-7.62 23.24,-22.86l27.33 -129.44 21.8 0 -27.92 132.25c-2.81,13.26 -7.73,23.04 -14.76,29.34 -7.06,6.32 -16.58,9.46 -28.58,9.46z"></path>
  <path class="fil2" d="M1638.32 964.04c0,-6.52 -1.49,-11.63 -4.5,-15.32 -2.97,-3.69 -7.26,-5.53 -12.8,-5.53 -5.67,0 -10.74,2.19 -15.24,6.53 -4.46,4.38 -7.96,10.27 -10.4,17.77 -2.48,7.46 -3.71,15.43 -3.71,23.9 0,6.79 1.49,11.96 4.53,15.57 2.99,3.57 7.49,5.4 13.39,5.4 5.48,0 10.43,-2.07 14.81,-6.26 4.41,-4.14 7.82,-9.93 10.24,-17.4 2.44,-7.47 3.68,-15.71 3.68,-24.66zm21.67 0.91c0,12.34 -2.22,23.54 -6.68,33.63 -4.43,10.11 -10.56,17.83 -18.35,23.23 -7.76,5.39 -16.71,8.1 -26.84,8.1 -11.69,0 -21.01,-3.5 -27.88,-10.47 -6.92,-6.99 -10.37,-16.48 -10.37,-28.49 0,-12.14 2.2,-23.28 6.57,-33.41 4.35,-10.13 10.48,-17.99 18.32,-23.63 7.88,-5.65 16.95,-8.46 27.28,-8.46 11.9,0 21.17,3.53 27.89,10.59 6.7,7.09 10.06,16.71 10.06,28.91z"></path>
  <path class="fil2" d="M1677.83 927.1l21.24 0 5.75 48.56c0.55,3.79 1.05,9.1 1.45,15.95 0.44,6.88 0.65,12.41 0.65,16.61l0.55 0c5.25,-13.11 9.36,-22.65 12.34,-28.63l26.81 -52.49 23.25 0 -62.95 117.08c-5.49,10.06 -11.47,17.42 -17.95,22.09 -6.45,4.66 -14.03,7 -22.75,7 -4.64,0 -9.02,-0.58 -13.1,-1.73l0 -17.2c4.58,0.96 8.4,1.45 11.44,1.45 4.52,0 8.61,-1.31 12.25,-3.96 3.67,-2.65 7.47,-7.42 11.34,-14.24l4.67 -8.41 -14.99 -102.08z"></path>
  <path class="fil2" d="M1886.22 964.04c0,-6.52 -1.48,-11.63 -4.5,-15.32 -2.97,-3.69 -7.26,-5.53 -12.8,-5.53 -5.66,0 -10.74,2.19 -15.23,6.53 -4.46,4.38 -7.96,10.27 -10.41,17.77 -2.47,7.46 -3.7,15.43 -3.7,23.9 0,6.79 1.48,11.96 4.51,15.57 3.01,3.57 7.5,5.4 13.4,5.4 5.48,0 10.44,-2.07 14.81,-6.26 4.4,-4.14 7.82,-9.93 10.24,-17.4 2.45,-7.47 3.68,-15.71 3.68,-24.66zm21.68 0.91c0,12.34 -2.22,23.54 -6.69,33.63 -4.43,10.11 -10.55,17.83 -18.35,23.23 -7.76,5.39 -16.71,8.1 -26.83,8.1 -11.69,0 -21.01,-3.5 -27.89,-10.47 -6.91,-6.99 -10.36,-16.48 -10.36,-28.49 0,-12.14 2.2,-23.28 6.53,-33.41 4.38,-10.13 10.5,-17.99 18.35,-23.63 7.88,-5.65 16.95,-8.46 27.28,-8.46 11.88,0 21.18,3.53 27.89,10.59 6.71,7.09 10.07,16.71 10.07,28.91z"></path>
  <path class="fil2" d="M1909.63 1073.28c-5.48,0 -10.03,-0.72 -13.63,-2.11l0 -17.39c3.92,1.23 7.39,1.85 10.42,1.85 8.17,0 13.59,-6.27 16.19,-18.78l19.87 -93.48 -16.36 0 1.88 -9.69 17.77 -6.97 1.92 -8.4c2.69,-12.07 6.78,-20.64 12.28,-25.76 5.56,-5.1 13.37,-7.65 23.49,-7.65 7,0 13.46,1.32 19.28,3.95l-5.57 16.1c-4.49,-1.69 -8.66,-2.56 -12.43,-2.56 -4.22,0 -7.58,1.3 -10.12,3.92 -2.54,2.63 -4.45,6.93 -5.81,12.91l-1.62 7.88 20.94 0 -3.39 16.27 -20.93 0 -20.43 96.32c-2.43,11.52 -6.42,20.01 -11.99,25.44 -5.55,5.43 -12.81,8.15 -21.76,8.15z"></path>
  <polygon class="fil3" points="24.39,10.93 740.03,10.93 740.03,528.83 24.39,528.83 "></polygon>
  <polygon class="fil4" points="0,0 760,0 760,558.99 0,558.99 "></polygon>
  <polygon class="fil0" points="2521.85,379.94 2521.85,557.89 2379.11,557.89 2379.11,9 2721.03,9 2721.03,134.47 2521.85,134.47 2521.85,254.45 2698.27,254.45 2698.27,379.94 "></polygon>
  <polygon class="fil1" points="80.49,682.55 32.77,682.55 32.77,700.78 76.63,700.78 76.63,730.06 32.77,730.06 32.77,752.75 82.15,752.75 82.15,782.01 0,782.01 0,653.07 80.49,653.07 "></polygon>
  <path class="fil1" d="M166.36 744.06c0,-9 -10.7,-11.04 -23.6,-11.78 -27.98,-2.02 -46.41,-11.6 -46.77,-39.61 -1.12,-55.61 99.11,-55.61 98.38,0l-31.34 0c0,-17.11 -34.62,-15.63 -35.73,-0.35 -0.76,9.75 8.84,11.78 20.44,13.07 25.59,2.78 50.69,6.64 50.69,38.85 0,54.17 -105.01,55.08 -104.26,-1.64l31.83 0c0,16.41 40.36,16.58 40.36,1.46z"></path>
  <path class="fil1" d="M263.97 703.75l-14.54 33.89 29.47 0 -14.93 -33.89zm25.63 62.07l-50.84 0 -7.57 16.2 -32.23 0 0 -4.79 58.03 -125.81 14.2 0 58.19 125.81 0 4.79 -32.24 0 -7.54 -16.2z"></path>
  <polygon class="fil1" points="376.17,740.2 376.17,782.01 342.63,782.01 342.63,653.08 422.94,653.08 422.94,682.54 376.17,682.54 376.17,710.75 417.62,710.75 417.62,740.2 "></polygon>
  <path class="fil1" d="M567.38 744.01c0,-9.02 -10.7,-11.06 -23.54,-11.81 -28.01,-2 -46.43,-11.58 -46.8,-39.56 -1.06,-55.58 99.08,-55.58 98.25,0l-31.28 0c0,-17.08 -34.54,-15.63 -35.64,-0.35 -0.73,9.73 8.78,11.75 20.36,13.08 25.66,2.74 50.69,6.66 50.69,38.82 0,54.14 -104.95,55.08 -104.25,-1.61l31.91 0c0,16.37 40.3,16.54 40.3,1.43z"></path>
  <polygon class="fil1" points="744.58,652.72 756.42,652.72 756.42,781.97 722.72,781.97 722.72,724.49 695.25,753.25 691.57,753.25 664.29,724.49 664.29,781.97 630.59,781.97 630.59,652.72 642.76,652.72 693.27,708.68 "></polygon>
  <polygon class="fil1" points="2084.31,682.54 2036.62,682.54 2036.62,700.75 2080.45,700.75 2080.45,730.06 2036.62,730.06 2036.62,752.64 2086.02,752.64 2086.02,781.98 2003.9,781.98 2003.9,653.12 2084.31,653.12 "></polygon>
  <path class="fil1" d="M2211.47 730.79l0 21.85 26.39 0c13.2,0 12.99,-21.85 -0.2,-21.85l-26.19 0zm0 -48.25l0 20.79 20.79 0c13.11,0 13.11,-20.79 -0.17,-20.79l-20.62 0zm53.26 32.4c10.45,5.3 15.46,14.88 15.46,26.34 -0.21,22.47 -13.81,40.7 -40.17,40.7l-60.36 0 0 -128.86 54.99 0c22.39,0 40.15,17.26 40.15,39.52 0,7.79 -3.87,17.13 -10.07,22.3z"></path>
  <path class="fil1" d="M2362.09 703.76l-14.55 33.82 29.4 0 -14.85 -33.82zm25.53 62l-50.74 0 -7.6 16.22 -32.19 0 0 -4.78 57.97 -125.75 14.16 0 58.17 125.75 0 4.78 -32.25 0 -7.52 -16.22z"></path>
  <polygon class="fil1" points="2485.65,718.6 2485.65,781.96 2451.6,781.96 2451.6,652.52 2463.68,652.52 2528.8,716.22 2528.8,653.1 2562.49,653.1 2562.49,782.16 2550.69,782.16 "></polygon>
  <path class="fil1" d="M2602.79 781.97l0 -128.86 33.46 0 0 48.75 2.39 0c32.99,0 31.31,-24.65 31.31,-48.75l33.87 0c0,26.31 0.79,50.64 -24.89,66.98l34.99 56.71 0 5.17 -36.55 0 -28.37 -49.89c-4.47,0.71 -8.48,0.71 -12.75,0.71l0 49.18 -33.46 0z"></path>
  <path class="fil2" d="M2074.2 949.77l18.2 0c8.5,0 15.03,-1.84 19.67,-5.54 4.64,-3.67 6.95,-8.92 6.95,-15.7 0,-10.46 -6.8,-15.71 -20.4,-15.71l-16.54 0 -7.88 36.95zm-12.89 60.09l20.4 0c8.95,0 15.97,-2.07 21.08,-6.21 5.08,-4.14 7.65,-10.06 7.65,-17.74 0,-5.97 -1.85,-10.52 -5.49,-13.67 -3.67,-3.15 -9.04,-4.74 -16.1,-4.74l-18.31 0 -9.23 42.36zm39.32 -115.33c13.54,0 23.77,2.57 30.7,7.67 6.91,5.13 10.37,12.68 10.37,22.7 0,8.88 -2.62,16.29 -7.9,22.21 -5.28,5.93 -12.57,9.82 -21.91,11.62l0 0.73c6.59,1.73 11.71,4.87 15.32,9.49 3.65,4.6 5.46,10.2 5.46,16.76 0,13.25 -4.59,23.63 -13.75,31.22 -9.12,7.55 -21.84,11.34 -38.13,11.34l-44.92 0 28.27 -133.74 36.49 0z"></path>
  <path class="fil2" d="M2187.9 1012.71c5,0 9.92,-2.36 14.74,-7.09 4.81,-4.73 8.78,-11.05 11.89,-18.99 3.1,-7.94 4.68,-16.57 4.68,-25.96 0,-5.37 -1.47,-9.68 -4.32,-12.94 -2.86,-3.27 -6.62,-4.9 -11.26,-4.9 -5.17,0 -10.04,2.35 -14.62,7.05 -4.57,4.7 -8.21,11.07 -11,19.16 -2.74,8.09 -4.11,16.45 -4.11,25.09 0,6.24 1.26,10.87 3.71,13.97 2.48,3.06 5.89,4.61 10.29,4.61zm-7.87 17.39c-8.57,0 -15.4,-3.1 -20.39,-9.3 -4.99,-6.19 -7.5,-14.89 -7.5,-26.12 0,-12.3 2.14,-23.84 6.36,-34.56 4.23,-10.74 10.06,-19.22 17.51,-25.48 7.46,-6.26 15.63,-9.39 24.53,-9.39 5.92,0 11,1.42 15.25,4.18 4.29,2.77 7.62,6.8 9.98,12.11l0.93 0 5.67 -14.44 16.48 0 -21.6 101.16 -16.65 0 1.93 -16.1 -0.55 0c-9.63,11.96 -20.28,17.94 -31.95,17.94z"></path>
  <path class="fil2" d="M2316.26 1028.26l12.98 -61.46c1.11,-5.48 1.66,-9.47 1.66,-11.99 0,-7.98 -3.94,-11.98 -11.82,-11.98 -4.37,0 -8.72,1.74 -12.98,5.21 -4.28,3.47 -8.11,8.48 -11.52,15.06 -3.41,6.52 -5.98,13.97 -7.71,22.25l-8.95 42.91 -21.58 0 21.58 -101.16 16.83 0 -1.92 18.72 0.81 0c5.08,-7.18 10.3,-12.39 15.67,-15.66 5.34,-3.27 11.17,-4.9 17.44,-4.9 8.2,0 14.54,2.3 18.99,6.94 4.5,4.64 6.74,11.22 6.74,19.78 0,4.19 -0.69,9.72 -2.12,16.54l-12.52 59.74 -21.58 0z"></path>
  <path class="fil2" d="M2443.68 927.1l24.88 0 -44.19 44.36 26.64 56.8 -23.98 0 -19.11 -43.08 -12.45 8.77 -7.03 34.31 -21.6 0 30.19 -142.34 21.5 0c-8.25,38.25 -13.1,60.48 -14.61,66.75 -1.48,6.25 -3.3,13.15 -5.42,20.71l0.38 0 44.8 -46.28z"></path>
  <path class="fil2" d="M2491.61 902.2c0,-4.14 1.21,-7.49 3.57,-10.06 2.39,-2.57 5.75,-3.85 10.07,-3.85 3.23,0 5.85,0.81 7.87,2.43 2.02,1.63 3,4.09 3,7.38 0,4.31 -1.19,7.72 -3.64,10.23 -2.46,2.51 -5.66,3.76 -9.6,3.76 -3.24,0 -5.92,-0.78 -8.05,-2.38 -2.17,-1.58 -3.22,-4.09 -3.22,-7.51zm-4.28 126.06l-21.59 0 21.59 -101.16 21.5 0 -21.5 101.16z"></path>
  <path class="fil2" d="M2577.15 1028.26l12.98 -61.46c1.11,-5.48 1.66,-9.47 1.66,-11.99 0,-7.98 -3.93,-11.98 -11.81,-11.98 -4.37,0 -8.72,1.74 -12.99,5.21 -4.28,3.47 -8.1,8.48 -11.51,15.06 -3.42,6.52 -5.98,13.97 -7.71,22.25l-8.95 42.91 -21.59 0 21.59 -101.16 16.83 0 -1.92 18.72 0.82 0c5.07,-7.18 10.29,-12.39 15.65,-15.66 5.34,-3.27 11.18,-4.9 17.48,-4.9 8.17,0 14.5,2.3 18.96,6.94 4.5,4.64 6.74,11.22 6.74,19.78 0,4.19 -0.7,9.72 -2.13,16.54l-12.52 59.74 -21.58 0z"></path>
  <path class="fil2" d="M2677.77 939.63c-3.97,0 -7.43,1.16 -10.45,3.53 -2.98,2.33 -5.27,5.54 -6.94,9.59 -1.63,4.05 -2.45,8.49 -2.45,13.3 0,4.34 1.08,7.67 3.24,10.03 2.16,2.35 5.25,3.51 9.28,3.51 3.97,0 7.41,-1.16 10.29,-3.56 2.89,-2.37 5.17,-5.64 6.78,-9.8 1.61,-4.14 2.41,-8.66 2.41,-13.62 0,-8.67 -4.05,-12.98 -12.16,-12.98zm-24.71 86.98c-6.82,1.12 -12.05,3.28 -15.72,6.51 -3.64,3.24 -5.48,7.23 -5.48,11.98 0,3.94 1.69,7.12 5.06,9.46 3.4,2.37 8.55,3.53 15.5,3.53 9.95,0 17.74,-1.67 23.33,-4.92 5.61,-3.31 8.41,-8.04 8.41,-14.21 0,-3.09 -1.34,-5.55 -4.12,-7.3 -2.73,-1.77 -7.54,-3.04 -14.44,-3.76l-12.54 -1.29zm74.94 -99.53l-2.86 12.55 -17.55 3c1.72,3.56 2.56,7.73 2.56,12.54 0,11.79 -3.61,21.12 -10.88,28.04 -7.26,6.9 -16.98,10.38 -29.17,10.38 -3.18,0 -5.99,-0.23 -8.43,-0.73 -6.78,2.45 -10.16,5.59 -10.16,9.51 0,2.33 0.97,3.92 2.9,4.75 1.92,0.89 4.68,1.55 8.36,2.01l11.61 1.47c10.74,1.34 18.45,4.03 23.05,8.02 4.64,3.99 6.97,9.72 6.97,17.15 0,11.93 -4.6,21.17 -13.82,27.72 -9.22,6.53 -22.28,9.76 -39.24,9.76 -12.39,0 -21.96,-2.28 -28.79,-6.86 -6.77,-4.57 -10.18,-10.84 -10.18,-18.84 0,-6.27 2.13,-11.68 6.35,-16.27 4.24,-4.59 11.07,-8.43 20.46,-11.61 -4.65,-2.74 -6.97,-6.63 -6.97,-11.61 0,-4.23 1.42,-7.89 4.25,-10.94 2.86,-3.1 7.29,-6.06 13.42,-8.93 -8.25,-4.93 -12.37,-12.63 -12.37,-23.05 0,-11.95 3.73,-21.58 11.21,-28.9 7.46,-7.33 17.35,-10.97 29.6,-10.97 4.87,0 9.75,0.61 14.65,1.81l35.03 0z"></path>
  <polygon class="fil3" points="587.94,172.56 489.33,172.56 489.33,74 587.94,74 "></polygon>
  <polygon class="fil3" points="587.94,303.06 587.94,484.98 489.33,484.98 489.33,303.06 398.35,303.06 398.35,204.51 678.83,204.51 678.83,303.06 "></polygon>
  <polygon class="fil3" points="270.7,172.56 172.15,172.56 172.15,74 270.7,74 "></polygon>
  <polygon class="fil3" points="270.73,303.06 270.73,484.98 172.18,484.98 172.18,303.06 81.17,303.06 81.17,204.51 361.68,204.51 361.68,303.06 "></polygon>
 </g>
</svg>
