<?xml version="1.0" encoding="UTF-8"?>
<!-- Creator: CorelDRAW 2021 (64-Bit) -->
<svg xmlns="http://www.w3.org/2000/svg" xmlns:xlink="http://www.w3.org/1999/xlink" xmlns:xodm="http://www.corel.com/coreldraw/odm/2003" xml:space="preserve" width="9682px" height="1699px" version="1.1" style="shape-rendering:geometricPrecision; text-rendering:geometricPrecision; image-rendering:optimizeQuality; fill-rule:evenodd; clip-rule:evenodd" viewBox="0 0 4787.46 840.31">
 <defs>
  <style type="text/css">
   <![CDATA[
    .fil2 {fill:#BA2C2C;fill-rule:nonzero}
    .fil0 {fill:#E31E24;fill-rule:nonzero}
    .fil1 {fill:#EC6C51;fill-rule:nonzero}
   ]]>
  </style>
 </defs>
 <g id="Layer_x0020_1">
  <metadata id="CorelCorpID_0Corel-Layer"></metadata>
  <g id="_2794182176464">
   <path class="fil0" d="M1090.52 142l175.52 0 0 188.01 165.88 0 0 -188.01 175.52 0 0 555.6 -175.52 0 0 -215 -165.88 0 0 215 -175.52 0 0 -555.6zm765.74 0l177.75 0 191.08 555.6 -174.05 0 -21.46 -74.01 -173.32 0 -20.71 74.01 -170.34 0 191.05 -555.6zm32.61 366.01l110.32 0 -56.26 -198.81 -54.07 198.81 0.01 0zm303.63 -366.01l177 0 94.04 369.1 97 -369.1 176.26 0 -185.13 555.6 -176.26 0 -182.91 -555.6 0 0zm616.15 0l435.47 0 0 129.46 -259.96 0 0 80.14 219.22 0 0 129.45 -219.22 0 0 87.08 270.32 0 0 129.47 -445.83 0 0 -555.6 0 0zm535.43 0l175.52 0 0 426.13 239.93 0 0 129.47 -415.45 0 0 -555.6 0 0zm494.7 0l175.52 0 0 426.13 239.96 0 0 129.47 -415.48 0 0 -555.6 0 0zm767.98 161.04c-4.44,-31.86 -28.39,-47.77 -71.83,-47.77 -34.56,0 -52.59,10.01 -54.07,30.06 -0.49,12.31 5.31,22.59 17.41,30.8 12.08,8.23 28.25,15.05 48.49,20.42 20.25,5.41 39.77,10.42 58.51,15.05 62.72,15.4 108.87,36.21 138.49,62.41 29.62,26.21 44.18,62.43 43.69,108.65 0,45.21 -11.59,82.06 -34.8,110.57 -23.2,28.53 -53.68,48.96 -91.45,61.29 -37.77,12.32 -78.37,18.46 -121.83,18.46 -65.16,0 -120.35,-17.32 -165.51,-52 -45.18,-34.68 -69.26,-79.74 -72.22,-135.23l168.12 0c3.94,22.09 14.18,37.49 30.73,46.24 16.53,8.72 33.68,13.11 51.47,13.11 42.95,-2.09 65.67,-14.66 68.15,-37.78 1.96,-15.91 -5.82,-28.1 -23.36,-36.62 -17.5,-8.45 -44.54,-17.31 -81.08,-26.55 -45.91,-11.83 -82.45,-23.9 -109.61,-36.25 -27.15,-12.31 -49.5,-30.69 -67.01,-55.09 -17.54,-24.4 -26.07,-56.63 -25.56,-96.71 0.98,-49.82 22.09,-90.39 63.32,-121.75 41.23,-31.34 97.63,-47.02 169.23,-47.02 38,0 72.94,5.53 104.79,16.59 31.84,11.03 58.87,29.79 81.09,56.26 22.22,26.44 36.04,60.75 41.46,102.86l-166.62 0 0 0z"></path>
   <g>
    <path class="fil1" d="M169.25 251.59c-2.96,-0.02 -5.54,-0.18 -7.96,-0.54 -16.73,-2.53 -29.4,-12.41 -35.64,-27.87 -2.94,-7.29 -4.38,-14.94 -4.38,-23.37 0,-11.79 2.89,-23.58 5.4,-32.56 13.71,-48.77 29.38,-83.04 47.93,-104.76 3.55,-4.16 7.14,-7.71 10.71,-10.61l1.12 -0.83c0.44,-0.33 0.88,-0.67 1.33,-0.99 6.83,-4.97 13.43,-7.39 19.82,-7.41 15.24,0 31.45,13.96 45.7,39.29 14.81,26.28 27.67,64.59 37.21,110.77 3.21,15.61 5.97,31.57 8.38,48.51 -6.66,0.43 -13.31,0.86 -19.96,1.34 -22.32,1.53 -42.97,3.17 -63.13,4.96 -9.9,0.9 -19.8,1.84 -29.7,2.85l-2.32 0.22c-5.05,0.51 -9.83,1 -14.51,1l0 0z"></path>
    <path class="fil2" d="M195.48 792.38l-0.13 0c-6.61,0 -13.41,-2.64 -20.16,-7.87l-0.04 -0.01 -0.16 -0.19 -0.49 -0.39 -0.45 -0.33 -0.48 -0.39c-0.24,-0.21 -0.48,-0.4 -0.71,-0.58 -3.53,-3.04 -7.07,-6.74 -10.49,-11.04 -18.49,-23.2 -33.41,-59.71 -45.6,-111.65 -2.67,-11.4 -5.28,-23.54 -5.28,-35.49 0,-8.75 1.39,-16.98 4.27,-25.09 6.04,-17.08 18.36,-28.82 34.67,-33.1 4.39,-1.14 9.04,-1.71 14.23,-1.71 3.12,0 6.31,0.19 10.15,0.57 9.93,1 20.37,1.96 31.05,2.9 21.36,1.86 43.68,3.58 66.39,5.08 8.04,0.57 16.08,1.07 24.13,1.56 -3.26,21.28 -6.96,40.95 -11.3,60.07 -10.86,47.79 -24.96,87.7 -40.81,115.35 -15.37,26.89 -33.15,42.31 -48.79,42.31l0 0z"></path>
    <path class="fil0" d="M869.47 417.87c-0.47,-96.95 -31.86,-193.05 -88.39,-270.56 -45.74,-62.74 -105,-110.72 -173.59,-141.17 -5.25,-2.08 -23.14,-6.93 -27.67,-6.03 -16.92,3.38 -29.02,19.3 -32.7,39.9 -0.9,5.05 -1.27,10.4 -1.09,15.89 -0.67,10.41 -1.27,21.38 -1.84,33.32 -0.1,2 -0.22,5.03 -0.35,8.65 -0.53,13.46 -1.3,33.81 -2.66,41.71 -11.95,68.79 -81.27,112.36 -141.39,114.73 -40.98,1.58 -81.22,3.73 -119.61,6.4 -21.3,1.47 -42.41,3.13 -62.77,4.95 -9.83,0.87 -19.69,1.8 -29.54,2.8l-2.28 0.23c-5.27,0.52 -10.71,1.08 -16.36,1.08 -3.81,0 -7.28,-0.22 -10.6,-0.72 -23.08,-3.42 -41.25,-17.64 -49.85,-39.05 -3.85,-9.51 -5.72,-19.38 -5.72,-30.2 0,-13.95 3.25,-27.36 6.1,-37.47 5.22,-18.54 12.45,-41.82 22.68,-64.32 -34.67,35.18 -63.78,76.38 -85.48,121.28 -29,60.05 -45.01,127.2 -46.28,194.22 -0.06,2.96 -0.09,5.9 -0.08,8.86 -0.01,117.68 43.52,228.94 120.89,312.4 -10.26,-24.61 -17.06,-50.35 -21.82,-70.67 -2.93,-12.44 -5.79,-25.75 -5.79,-39.66 0,-10.87 1.74,-21.08 5.31,-31.16 8.1,-22.93 24.88,-38.8 47.23,-44.63 5.92,-1.56 12.09,-2.3 18.84,-2.3 3.67,0 7.6,0.22 11.96,0.66 9.83,0.96 19.91,1.91 30.83,2.87 20.99,1.85 43.19,3.54 66,5.06 39.97,2.69 82.06,4.87 125.12,6.48 33.28,1.25 67.87,14.81 94.89,37.26 28.52,23.7 46.71,55.18 51.25,88.69 0.94,7.02 1.87,27.13 2.55,41.79 0.23,4.8 0.4,8.78 0.53,11.06 0.96,16.83 1.96,31.67 3.02,45.31 0,0.02 0.01,0.04 0.01,0.07 0.44,5.95 0.89,11.38 1.35,16.46 3.75,19.02 14.91,33.73 30.73,37.41 5.41,1.26 10.88,1.06 16.24,-0.28 4.37,-1.85 8.72,-3.74 13.01,-5.75 67.72,-31.41 126.12,-79.95 171.03,-142.79 55.65,-77.88 86.31,-173.97 86.31,-270.46l-0.02 -2.32 0 0z"></path>
   </g>
  </g>
 </g>
</svg>
