<?xml version="1.0" encoding="UTF-8" standalone="no"?><!DOCTYPE svg PUBLIC "-//W3C//DTD SVG 1.1//EN" "http://www.w3.org/Graphics/SVG/1.1/DTD/svg11.dtd"><svg width="100%" height="100%" viewBox="0 0 380 139" version="1.1" xmlns="http://www.w3.org/2000/svg" xmlns:xlink="http://www.w3.org/1999/xlink" xml:space="preserve" xmlns:serif="http://www.serif.com/" style="fill-rule:evenodd;clip-rule:evenodd;stroke-linejoin:round;stroke-miterlimit:2;"><g id="Layer-1" serif:id="Layer 1"></g><rect id="Artboard1" x="0" y="0" width="379.852" height="138.421" style="fill:none;"/><g id="Layer-11" serif:id="Layer 1"><path d="M118.45,114.886c0.696,-0 1.282,-0.059 1.758,-0.177c0.476,-0.119 0.866,-0.325 1.168,-0.621c0.301,-0.296 0.517,-0.696 0.644,-1.197c0.129,-0.503 0.193,-1.139 0.193,-1.908c-0,-0.827 -0.073,-1.497 -0.219,-2.009c-0.148,-0.513 -0.372,-0.917 -0.674,-1.212c-0.301,-0.296 -0.691,-0.493 -1.166,-0.592c-0.477,-0.098 -1.053,-0.148 -1.731,-0.148l-3.489,0l0,7.864l3.516,-0Zm-5.713,-9.933l5.658,-0c1.044,-0 1.945,0.089 2.706,0.266c0.759,0.178 1.391,0.493 1.895,0.946c0.504,0.454 0.879,1.07 1.126,1.847c0.248,0.779 0.371,1.77 0.371,2.971c-0,1.105 -0.119,2.031 -0.357,2.78c-0.238,0.749 -0.605,1.355 -1.098,1.818c-0.495,0.463 -1.123,0.798 -1.883,1.005c-0.759,0.207 -1.661,0.311 -2.705,0.311l-3.516,-0l0,7.272l-2.197,0l0,-19.216Z" style="fill:#14469e;fill-rule:nonzero;"/><path d="M137.018,124.169l-0.494,-1.475c-0.733,0.6 -1.442,1.046 -2.13,1.336c-0.686,0.289 -1.487,0.434 -2.403,0.434c-0.787,0 -1.465,-0.089 -2.032,-0.266c-0.568,-0.177 -1.03,-0.468 -1.387,-0.872c-0.358,-0.403 -0.623,-0.935 -0.797,-1.596c-0.173,-0.66 -0.262,-1.483 -0.262,-2.469l0,-9.874l2.143,0l0,9.852c0,0.649 0.059,1.185 0.179,1.607c0.119,0.424 0.293,0.758 0.522,1.003c0.228,0.247 0.526,0.419 0.894,0.517c0.365,0.098 0.796,0.147 1.29,0.147c0.659,0 1.314,-0.132 1.964,-0.398c0.65,-0.265 1.25,-0.634 1.798,-1.105l-0,-11.623l2.142,0l0,14.782l-1.427,0Z" style="fill:#14469e;fill-rule:nonzero;"/><path d="M147.977,111.22c-0.861,-0 -1.58,0.124 -2.157,0.37c-0.576,0.247 -1.13,0.635 -1.662,1.167l0,11.412l-2.142,-0l-0,-14.782l1.43,0l0.493,1.449c0.586,-0.551 1.199,-0.98 1.84,-1.286c0.642,-0.305 1.374,-0.458 2.198,-0.458l-0,2.128Z" style="fill:#14469e;fill-rule:nonzero;"/><path d="M159.073,115.891c0,-0.901 -0.046,-1.66 -0.138,-2.277c-0.091,-0.617 -0.26,-1.116 -0.508,-1.498c-0.246,-0.382 -0.59,-0.657 -1.029,-0.823c-0.44,-0.167 -1.016,-0.25 -1.731,-0.25c-0.695,0 -1.277,0.079 -1.744,0.235c-0.467,0.157 -0.838,0.426 -1.113,0.809c-0.274,0.381 -0.466,0.881 -0.576,1.498c-0.11,0.617 -0.166,1.386 -0.166,2.306l7.005,0Zm-3.241,6.622c0.989,0 1.854,-0.054 2.595,-0.162c0.742,-0.108 1.461,-0.241 2.157,-0.399l0,1.973c-0.641,0.159 -1.356,0.29 -2.142,0.39c-0.788,0.099 -1.666,0.15 -2.637,0.15c-0.989,-0 -1.851,-0.099 -2.583,-0.296c-0.731,-0.197 -1.341,-0.552 -1.825,-1.064c-0.487,-0.512 -0.852,-1.213 -1.1,-2.099c-0.247,-0.887 -0.37,-2.03 -0.37,-3.43l-0,-1.596c-0,-1.36 0.118,-2.483 0.357,-3.37c0.238,-0.887 0.599,-1.592 1.084,-2.114c0.486,-0.522 1.086,-0.887 1.8,-1.094c0.714,-0.207 1.546,-0.31 2.499,-0.31c0.935,-0 1.745,0.103 2.431,0.31c0.687,0.207 1.263,0.568 1.73,1.079c0.467,0.513 0.816,1.213 1.044,2.1c0.229,0.886 0.344,2.009 0.344,3.369l-0,1.715l-9.148,0c0,0.96 0.061,1.754 0.179,2.381c0.12,0.626 0.325,1.121 0.619,1.483c0.292,0.362 0.681,0.617 1.167,0.764c0.485,0.147 1.085,0.22 1.799,0.22" style="fill:#14469e;fill-rule:nonzero;"/><path d="M173.685,107.022l-4.504,0l-0,-2.069l11.206,-0l0,2.069l-4.505,0l0,17.147l-2.197,0l0,-17.147Z" style="fill:#14469e;fill-rule:nonzero;"/><path d="M196.675,107.909l-4.847,16.26l-1.844,-0l-4.845,-16.26l0,16.26l-2.142,-0l-0,-19.216l3.207,-0l4.689,15.935l0.027,-0l4.689,-15.935l3.208,-0l0,19.216l-2.142,-0l-0,-16.26Z" style="fill:#14469e;fill-rule:nonzero;"/><path d="M205.959,107.022l-4.506,0l0,-2.069l11.208,-0l-0,2.069l-4.505,0l-0,17.147l-2.197,0l-0,-17.147Z" style="fill:#14469e;fill-rule:nonzero;"/><path d="M227.477,122.1c1.314,-0 2.24,-0.251 2.778,-0.754c0.539,-0.503 0.807,-1.354 0.807,-2.558c0,-1.202 -0.297,-2.064 -0.89,-2.586c-0.593,-0.523 -1.463,-0.784 -2.612,-0.784l-4.051,0l-0,6.682l3.968,-0Zm-3.968,-15.078l-0,6.386l4.01,0c1.08,0 1.858,-0.286 2.335,-0.857c0.476,-0.572 0.714,-1.361 0.714,-2.365c0,-1.164 -0.266,-1.982 -0.797,-2.455c-0.531,-0.472 -1.41,-0.709 -2.637,-0.709l-3.625,0Zm-2.198,-2.069l5.796,-0c2.05,-0 3.511,0.389 4.381,1.167c0.87,0.779 1.304,2.046 1.304,3.799c0,1.124 -0.244,2.065 -0.733,2.823c-0.489,0.76 -1.139,1.278 -1.951,1.553c1.132,0.336 1.95,0.881 2.453,1.641c0.502,0.758 0.753,1.758 0.753,3c0,1.873 -0.466,3.213 -1.397,4.021c-0.932,0.808 -2.393,1.212 -4.386,1.212l-6.22,0l-0,-19.216Z" style="fill:#14469e;fill-rule:nonzero;"/><path d="M240.494,122.543c0.883,-0 1.628,-0.138 2.234,-0.414c0.607,-0.275 1.214,-0.7 1.82,-1.271l0,-3.637l-4.439,0.503c-0.828,0.099 -1.44,0.34 -1.835,0.725c-0.395,0.384 -0.592,0.951 -0.592,1.7c-0,0.828 0.238,1.433 0.716,1.818c0.478,0.383 1.177,0.576 2.096,0.576m-4.955,-2.277c0,-1.28 0.358,-2.28 1.071,-3c0.715,-0.719 1.813,-1.128 3.297,-1.227l4.641,-0.325l0,-1.774c0,-0.512 -0.045,-0.951 -0.137,-1.315c-0.091,-0.365 -0.256,-0.665 -0.494,-0.902c-0.239,-0.237 -0.564,-0.409 -0.975,-0.517c-0.413,-0.108 -0.929,-0.163 -1.552,-0.163c-1.153,0 -1.969,0.207 -2.445,0.62c-0.476,0.415 -0.714,1.124 -0.714,2.129l-2.142,0c-0,-0.887 0.118,-1.631 0.356,-2.232c0.238,-0.601 0.582,-1.083 1.03,-1.449c0.45,-0.363 1.003,-0.625 1.663,-0.783c0.658,-0.157 1.408,-0.236 2.252,-0.236c0.97,0 1.789,0.088 2.458,0.265c0.668,0.177 1.212,0.459 1.634,0.843c0.421,0.385 0.727,0.882 0.92,1.493c0.193,0.611 0.289,1.36 0.289,2.247l-0,10.229l-1.428,0l-0.496,-1.448c-0.677,0.572 -1.358,1.009 -2.045,1.315c-0.687,0.305 -1.479,0.459 -2.376,0.459c-1.575,-0 -2.77,-0.355 -3.584,-1.065c-0.815,-0.709 -1.223,-1.764 -1.223,-3.164" style="fill:#14469e;fill-rule:nonzero;"/><path d="M255.947,111.22c-0.861,-0 -1.58,0.124 -2.157,0.37c-0.576,0.247 -1.131,0.635 -1.661,1.167l0,11.412l-2.143,-0l0,-14.782l1.429,0l0.494,1.449c0.585,-0.551 1.2,-0.98 1.841,-1.286c0.64,-0.305 1.373,-0.458 2.197,-0.458l0,2.128Z" style="fill:#14469e;fill-rule:nonzero;"/><path d="M269.02,120.06c0,0.591 -0.059,1.158 -0.178,1.699c-0.12,0.543 -0.371,1.011 -0.755,1.405c-0.385,0.395 -0.948,0.71 -1.689,0.946c-0.742,0.236 -1.735,0.355 -2.981,0.355c-1.08,-0 -1.973,-0.104 -2.677,-0.311c-0.705,-0.207 -1.264,-0.507 -1.676,-0.902c-0.412,-0.394 -0.7,-0.876 -0.865,-1.448c-0.165,-0.571 -0.247,-1.222 -0.247,-1.951l2.142,0c0,0.468 0.05,0.867 0.15,1.198c0.101,0.332 0.28,0.61 0.536,0.834c0.257,0.224 0.596,0.386 1.016,0.482c0.422,0.098 0.962,0.146 1.621,0.146c0.751,0 1.356,-0.058 1.813,-0.175c0.458,-0.118 0.811,-0.28 1.059,-0.485c0.245,-0.206 0.406,-0.461 0.479,-0.765c0.073,-0.304 0.11,-0.651 0.11,-1.043c0,-0.392 -0.05,-0.729 -0.151,-1.013c-0.1,-0.285 -0.288,-0.525 -0.563,-0.721c-0.274,-0.196 -0.645,-0.353 -1.112,-0.469c-0.467,-0.118 -1.067,-0.207 -1.799,-0.266c-0.935,-0.078 -1.721,-0.216 -2.363,-0.413c-0.641,-0.197 -1.162,-0.463 -1.565,-0.798c-0.403,-0.336 -0.691,-0.745 -0.865,-1.228c-0.174,-0.483 -0.261,-1.059 -0.261,-1.729c-0,-1.517 0.467,-2.616 1.4,-3.297c0.934,-0.679 2.216,-1.019 3.846,-1.019c1.849,0 3.186,0.354 4.01,1.064c0.824,0.709 1.236,1.902 1.236,3.578l-2.142,-0c-0,-0.434 -0.046,-0.818 -0.138,-1.153c-0.091,-0.335 -0.256,-0.616 -0.494,-0.843c-0.238,-0.227 -0.559,-0.399 -0.961,-0.518c-0.403,-0.118 -0.907,-0.177 -1.511,-0.177c-1.027,0 -1.799,0.177 -2.321,0.532c-0.522,0.355 -0.783,0.966 -0.783,1.833c0,0.828 0.242,1.424 0.728,1.788c0.484,0.365 1.332,0.597 2.541,0.695c1.08,0.099 1.968,0.242 2.664,0.429c0.696,0.188 1.25,0.444 1.661,0.769c0.413,0.325 0.697,0.728 0.852,1.212c0.155,0.483 0.233,1.069 0.233,1.759" style="fill:#14469e;fill-rule:nonzero;"/><path d="M101.093,11.79l-14.375,10.557c31.113,0.968 52.261,-9.72 52.261,-9.72c-22.551,11.809 -46.359,12.871 -56.356,12.717l-17.128,12.572c-0,-0 53.551,-1.431 87.639,-36.838c0,0 -21.069,16.807 -52.041,10.712" style="fill:#d71920;fill-rule:nonzero;"/><path d="M165.517,37.686l-1.401,0c0,0 0.635,1.016 -0.252,2.418l-11.873,17.382l1.428,-16.541c0.283,-2.125 1.842,-3.271 1.842,-3.271l-5.065,0l-0,0.012l-12.781,0l-13.532,19.8l1.427,-16.437c0.004,-0.017 0.018,-0.036 0.021,-0.049c0.265,-2.148 1.846,-3.305 1.846,-3.305l-1.578,0l0,-0.005l-16.269,-0.004l0,0.009c-0.849,-0.044 -41.615,-2.077 -47.722,9.625c2.511,-5.43 4.209,-9.393 4.319,-9.561l-29.594,-0c0.308,0.098 1.942,1.053 1.389,2.709l0,0.004c-1.54,5.659 -5.299,18.775 -9.49,28.499c-5.497,12.728 -17.871,17.39 -26.365,20.636c-0.779,0.299 -0.658,0.92 0.158,0.925c20.897,0.139 38.053,-1.66 51.034,-25.866c3.009,-5.613 5.962,-11.753 8.28,-16.757c-0.149,0.37 -0.267,0.749 -0.357,1.161c-2.664,13.057 20.005,13.891 19.671,17.013c-0.301,2.75 -13.808,1.904 -22.717,-1.252c-0.048,-0.019 -0.084,-0.042 -0.118,-0.059c-1.714,-0.607 -2.436,-1.689 -2.436,-1.689l0.077,0.749l-0.008,-0.006c0,0 0.013,0.05 0.019,0.114l0.359,3.483c0.359,3.674 0.83,8.846 0.83,8.846c-0,-0 47.222,6.423 48.092,-10.095c0.655,-12.5 -22.087,-14.012 -21.835,-16.75c0.232,-2.567 11.302,-2.891 18.016,-1.817c0.02,0.005 0.036,0.012 0.054,0.012c3.005,0.51 3.428,2.259 3.428,2.259l0.492,-1.22l0.009,0c0.006,-0.055 4.061,-10.032 4.414,-10.899l-3.048,35.034l-0,0.004c-0.27,2.149 -1.847,3.311 -1.847,3.311l3.185,0l14.641,0.009l13.552,-19.825l-1.439,16.531c-0.276,2.131 -1.839,3.285 -1.839,3.285l1.557,0l0,0.007l16.275,-0.011l26.252,-38.414l-11.101,-0.004Z" style="fill:#14469e;fill-rule:nonzero;"/><path d="M209.228,76.078l-7.574,0l-11.523,-30.655l0.274,8.683l0,21.972l-5.817,0l0,-38.393l7.573,-0l11.524,30.656l-0.274,-8.801l-0,-21.855l5.817,-0l-0,38.393Z" style="fill:#d71920;fill-rule:nonzero;"/><path d="M232.441,59.067c0,-1.338 -0.046,-2.51 -0.137,-3.514c-0.091,-1.004 -0.329,-1.821 -0.713,-2.452c-0.385,-0.629 -0.952,-1.102 -1.701,-1.417c-0.751,-0.315 -1.766,-0.473 -3.047,-0.473c-1.243,0 -2.249,0.148 -3.017,0.443c-0.769,0.296 -1.372,0.748 -1.811,1.358c-0.439,0.612 -0.733,1.418 -0.879,2.423c-0.147,1.004 -0.219,2.215 -0.219,3.632l11.524,-0Zm-5.598,12.345c1.099,0 2.104,-0.019 3.019,-0.059c0.914,-0.039 1.775,-0.098 2.579,-0.177c0.804,-0.078 1.583,-0.178 2.332,-0.295c0.751,-0.118 1.51,-0.256 2.278,-0.414l-0,5.198c-1.426,0.315 -2.936,0.57 -4.527,0.767c-1.592,0.197 -3.357,0.296 -5.296,0.296c-2.013,0 -3.786,-0.207 -5.323,-0.621c-1.537,-0.413 -2.818,-1.141 -3.841,-2.185c-1.025,-1.042 -1.793,-2.46 -2.305,-4.253c-0.514,-1.791 -0.769,-4.065 -0.769,-6.822l0,-3.071c0,-2.678 0.255,-4.902 0.769,-6.675c0.512,-1.771 1.261,-3.19 2.25,-4.252c0.987,-1.064 2.222,-1.821 3.704,-2.275c1.482,-0.452 3.191,-0.679 5.13,-0.679c1.83,0 3.458,0.217 4.885,0.65c1.427,0.434 2.634,1.181 3.622,2.244c0.987,1.064 1.737,2.482 2.25,4.253c0.512,1.772 0.768,4.017 0.768,6.734l0,3.78l-17.451,-0c0,1.497 0.091,2.738 0.274,3.721c0.183,0.985 0.503,1.793 0.961,2.422c0.457,0.631 1.06,1.074 1.811,1.33c0.749,0.256 1.71,0.383 2.88,0.383" style="fill:#d71920;fill-rule:nonzero;"/><path d="M260.757,59.776c0,-1.693 -0.101,-3.101 -0.301,-4.223c-0.202,-1.122 -0.531,-1.998 -0.987,-2.63c-0.459,-0.628 -1.081,-1.071 -1.867,-1.328c-0.787,-0.256 -1.747,-0.383 -2.881,-0.383c-1.171,-0 -2.14,0.127 -2.908,0.383c-0.769,0.257 -1.382,0.7 -1.839,1.328c-0.458,0.632 -0.787,1.508 -0.988,2.63c-0.201,1.122 -0.302,2.53 -0.302,4.223l0,3.072c0,1.732 0.101,3.151 0.302,4.252c0.201,1.104 0.53,1.97 0.988,2.599c0.457,0.631 1.07,1.073 1.839,1.329c0.768,0.256 1.737,0.384 2.908,0.384c1.134,0 2.094,-0.128 2.881,-0.384c0.786,-0.256 1.408,-0.698 1.867,-1.329c0.456,-0.629 0.785,-1.495 0.987,-2.599c0.2,-1.101 0.301,-2.52 0.301,-4.252l0,-3.072Zm5.927,3.072c0,2.637 -0.238,4.843 -0.713,6.615c-0.476,1.772 -1.208,3.2 -2.195,4.282c-0.988,1.084 -2.232,1.851 -3.732,2.304c-1.501,0.452 -3.275,0.68 -5.323,0.68c-2.049,-0 -3.824,-0.228 -5.323,-0.68c-1.5,-0.453 -2.744,-1.22 -3.732,-2.304c-0.988,-1.082 -1.72,-2.51 -2.195,-4.282c-0.476,-1.772 -0.714,-3.978 -0.714,-6.615l0,-3.072c0,-2.638 0.247,-4.843 0.741,-6.615c0.494,-1.772 1.235,-3.199 2.224,-4.282c0.987,-1.083 2.23,-1.851 3.73,-2.305c1.5,-0.452 3.257,-0.679 5.269,-0.679c2.011,0 3.768,0.227 5.268,0.679c1.5,0.454 2.744,1.222 3.732,2.305c0.988,1.083 1.729,2.51 2.223,4.282c0.493,1.772 0.74,3.977 0.74,6.615l0,3.072Z" style="fill:#d71920;fill-rule:nonzero;"/><path d="M293.958,67.66c0,1.186 -0.101,2.322 -0.302,3.408c-0.202,1.088 -0.685,2.046 -1.453,2.874c-0.769,0.83 -1.921,1.503 -3.458,2.015c-1.537,0.513 -3.622,0.771 -6.256,0.771c-2.232,0 -4.084,-0.207 -5.555,-0.621c-1.472,-0.412 -2.64,-1.033 -3.507,-1.86c-0.868,-0.827 -1.477,-1.84 -1.827,-3.042c-0.351,-1.201 -0.526,-2.589 -0.526,-4.164l5.927,-0c-0,0.788 0.072,1.458 0.218,2.008c0.145,0.552 0.428,1.005 0.846,1.36c0.419,0.354 0.984,0.61 1.694,0.767c0.709,0.158 1.61,0.236 2.703,0.236c1.164,0 2.111,-0.078 2.839,-0.236c0.727,-0.157 1.292,-0.393 1.692,-0.709c0.4,-0.314 0.664,-0.699 0.793,-1.152c0.127,-0.452 0.191,-0.993 0.191,-1.625c-0,-0.668 -0.074,-1.248 -0.22,-1.741c-0.147,-0.493 -0.458,-0.906 -0.933,-1.241c-0.475,-0.334 -1.135,-0.61 -1.976,-0.827c-0.841,-0.215 -1.939,-0.384 -3.292,-0.502c-1.976,-0.157 -3.613,-0.443 -4.912,-0.856c-1.299,-0.414 -2.331,-0.965 -3.1,-1.654c-0.768,-0.689 -1.308,-1.537 -1.619,-2.54c-0.312,-1.005 -0.467,-2.175 -0.467,-3.515c0,-3.071 0.942,-5.325 2.826,-6.763c1.885,-1.437 4.564,-2.156 8.04,-2.156c3.952,0 6.777,0.738 8.478,2.215c1.702,1.477 2.552,3.987 2.552,7.532l-5.905,-0c-0,-0.592 -0.056,-1.162 -0.165,-1.713c-0.11,-0.551 -0.347,-1.025 -0.711,-1.418c-0.366,-0.393 -0.886,-0.709 -1.559,-0.945c-0.675,-0.236 -1.559,-0.354 -2.652,-0.354c-1.86,-0 -3.155,0.293 -3.884,0.879c-0.729,0.585 -1.093,1.504 -1.093,2.755c0,1.25 0.356,2.198 1.071,2.843c0.712,0.644 2.13,1.045 4.252,1.201c2.268,0.197 4.134,0.494 5.598,0.889c1.462,0.394 2.615,0.928 3.458,1.6c0.841,0.672 1.416,1.522 1.727,2.549c0.311,1.027 0.467,2.272 0.467,3.732" style="fill:#d71920;fill-rule:nonzero;"/><path d="M312.834,76.078c-0.549,0.197 -1.261,0.354 -2.14,0.473c-0.878,0.119 -1.701,0.178 -2.469,0.178c-2.598,-0 -4.427,-0.69 -5.488,-2.068c-1.061,-1.378 -1.591,-3.465 -1.591,-6.261l0,-16.539l-3.896,0l-0,-4.43l3.896,-0.886l0,-6.911l5.927,-1.358l-0,8.269l5.761,-0l0,5.316l-5.761,0l-0,16.598c-0,0.906 0.192,1.624 0.576,2.156c0.384,0.531 1.051,0.797 2.003,0.797c0.731,0 1.344,-0.059 1.838,-0.177c0.494,-0.118 0.941,-0.216 1.344,-0.295l0,5.138Z" style="fill:#d71920;fill-rule:nonzero;"/><path d="M334.292,59.067c-0,-1.338 -0.047,-2.51 -0.138,-3.514c-0.091,-1.004 -0.329,-1.821 -0.713,-2.452c-0.384,-0.629 -0.952,-1.102 -1.701,-1.417c-0.75,-0.315 -1.766,-0.473 -3.046,-0.473c-1.243,0 -2.25,0.148 -3.018,0.443c-0.768,0.296 -1.372,0.748 -1.811,1.358c-0.439,0.612 -0.732,1.418 -0.878,2.423c-0.147,1.004 -0.22,2.215 -0.22,3.632l11.525,-0Zm-5.598,12.345c1.098,0 2.104,-0.019 3.019,-0.059c0.914,-0.039 1.774,-0.098 2.579,-0.177c0.804,-0.078 1.582,-0.178 2.332,-0.295c0.75,-0.118 1.509,-0.256 2.277,-0.414l0,5.198c-1.426,0.315 -2.935,0.57 -4.527,0.767c-1.592,0.197 -3.357,0.296 -5.296,0.296c-2.013,0 -3.786,-0.207 -5.323,-0.621c-1.536,-0.413 -2.818,-1.141 -3.841,-2.185c-1.025,-1.042 -1.793,-2.46 -2.305,-4.253c-0.513,-1.791 -0.769,-4.065 -0.769,-6.822l0,-3.071c0,-2.678 0.256,-4.902 0.769,-6.675c0.512,-1.771 1.262,-3.19 2.25,-4.252c0.987,-1.064 2.222,-1.821 3.705,-2.275c1.481,-0.452 3.19,-0.679 5.13,-0.679c1.829,0 3.457,0.217 4.884,0.65c1.427,0.434 2.635,1.181 3.622,2.244c0.988,1.064 1.737,2.482 2.251,4.253c0.511,1.772 0.768,4.017 0.768,6.734l-0,3.78l-17.452,-0c0,1.497 0.091,2.738 0.274,3.721c0.183,0.985 0.503,1.793 0.961,2.422c0.457,0.631 1.061,1.074 1.812,1.33c0.748,0.256 1.709,0.383 2.88,0.383" style="fill:#d71920;fill-rule:nonzero;"/><path d="M362.334,59.067c0,-1.338 -0.047,-2.51 -0.137,-3.514c-0.092,-1.004 -0.329,-1.821 -0.714,-2.452c-0.384,-0.629 -0.951,-1.102 -1.701,-1.417c-0.75,-0.315 -1.765,-0.473 -3.046,-0.473c-1.243,0 -2.249,0.148 -3.017,0.443c-0.769,0.296 -1.372,0.748 -1.811,1.358c-0.439,0.612 -0.733,1.418 -0.879,2.423c-0.147,1.004 -0.219,2.215 -0.219,3.632l11.524,-0Zm-5.598,12.345c1.099,0 2.104,-0.019 3.019,-0.059c0.914,-0.039 1.774,-0.098 2.579,-0.177c0.804,-0.078 1.582,-0.178 2.332,-0.295c0.75,-0.118 1.509,-0.256 2.277,-0.414l0,5.198c-1.426,0.315 -2.935,0.57 -4.526,0.767c-1.592,0.197 -3.358,0.296 -5.297,0.296c-2.012,0 -3.786,-0.207 -5.322,-0.621c-1.537,-0.413 -2.819,-1.141 -3.842,-2.185c-1.024,-1.042 -1.792,-2.46 -2.304,-4.253c-0.514,-1.791 -0.769,-4.065 -0.769,-6.822l-0,-3.071c-0,-2.678 0.255,-4.902 0.769,-6.675c0.512,-1.771 1.261,-3.19 2.25,-4.252c0.987,-1.064 2.222,-1.821 3.704,-2.275c1.481,-0.452 3.19,-0.679 5.13,-0.679c1.83,0 3.458,0.217 4.885,0.65c1.426,0.434 2.634,1.181 3.621,2.244c0.988,1.064 1.737,2.482 2.251,4.253c0.511,1.772 0.768,4.017 0.768,6.734l0,3.78l-17.451,-0c-0,1.497 0.09,2.738 0.273,3.721c0.183,0.985 0.504,1.793 0.962,2.422c0.456,0.631 1.06,1.074 1.811,1.33c0.749,0.256 1.709,0.383 2.88,0.383" style="fill:#d71920;fill-rule:nonzero;"/><rect x="373.748" y="36.504" width="5.927" height="39.574" style="fill:#d71920;"/></g></svg>