<?xml version="1.0" encoding="UTF-8"?>
<!-- Creator: CorelDRAW 2021 (64-Bit) -->
<svg xmlns="http://www.w3.org/2000/svg" xmlns:xlink="http://www.w3.org/1999/xlink" xmlns:xodm="http://www.corel.com/coreldraw/odm/2003" xml:space="preserve" width="1065px" height="739px" version="1.1" style="shape-rendering:geometricPrecision; text-rendering:geometricPrecision; image-rendering:optimizeQuality; fill-rule:evenodd; clip-rule:evenodd" viewBox="0 0 1212.1 840.97">
 <defs>
  <style type="text/css">
   <![CDATA[
    .fil2 {fill:#FEFEFE;fill-rule:nonzero}
    .fil0 {fill:#2B2A29;fill-rule:nonzero}
    .fil1 {fill:#FFED00;fill-rule:nonzero}
    .fil4 {fill:#D12421;fill-rule:nonzero}
    .fil3 {fill:#007336;fill-rule:nonzero}
   ]]>
  </style>
 </defs>
 <g id="Layer_x0020_1">
  <metadata id="CorelCorpID_0Corel-Layer"></metadata>
  <g id="_1768678686880">
   <path class="fil0" d="M142.53 840.97l37.86 -79.22c-20.86,5.51 -42.36,7.95 -62.39,7.95 -47.98,0 -82.2,-11.28 -101.7,-33.52 -10.63,-12.12 -21.59,-33.32 -13.49,-65.46 4.73,-19.08 23,-61.88 91.51,-67.95 -25.75,-30.24 -29.14,-65.42 -10.06,-104.97 25.72,-54.27 86.48,-86.66 162.58,-86.66 47.04,0 79.36,12.14 96.08,36.06 9.95,14.25 13.73,28.62 10.89,48.8l91.01 0c40.49,0 59.81,15.32 68.88,28.18 0.22,0.32 0.45,0.64 0.66,0.96 24.25,-19.35 57.16,-29.22 105.91,-29.22 7.19,0 256.93,-0.01 259.85,0 1.14,-1.66 11.47,-17.74 11.47,-17.74l162.47 -43.17 -30.4 60.99 188.44 0 -46.43 98.05 -54.82 53.64 53.45 0 -35.98 73.86c-14.37,29.08 -41.94,45.66 -75.72,45.66l-182.35 0c-33.28,-0.01 -60.07,-9.85 -73.22,-30.9l-0.22 -0.36c-15.96,-26.35 -4.29,-58.42 7.65,-83.42l17.69 -37.02 -2.3 0c-16.29,0.77 -21.05,5.43 -27.16,18.49l-40.76 86.83c-13.67,29.14 -41.95,46.14 -77.58,46.65 0,0 -121.85,1.05 -140.07,1.05 -46.63,0 -76.46,-9.59 -93.59,-31.12 -22.23,20.88 -52.65,32.02 -88.86,32.02 -10.86,0 -20.76,-1.06 -29.68,-3.17l-13.48 28.45c-13.77,29.35 -42.25,46.26 -78.08,46.26l-88.06 0z"></path>
   <g>
    <path class="fil1" d="M1137 664.02l0.02 0 -0.02 0zm48.1 -151.69l0.03 0 -0.03 0zm-163.01 -52.12l0.02 0 -0.02 0zm-776.48 -32.74c-68.16,0 -122.25,28.34 -144.68,75.82 -27.99,57.87 4.4,90.49 31.19,109.99 2.69,1.94 5.17,3.77 7.46,5.48l1.57 1.18 -16.72 -1.08c-5.01,-0.32 -9.87,-0.49 -14.45,-0.49 -65.98,0 -84.36,34.41 -89.45,54.92 -6.55,25.97 2.01,42.76 10.34,52.27 16.19,18.46 45.92,27.82 88.36,27.82 35.33,0 67.53,-7.12 93.13,-20.6l1.56 -0.82 -44.29 92.69 62.18 0c28.1,0 49.48,-12.6 60.2,-35.46l20.9 -44.09 0.53 0.27c10.41,5.13 23.74,7.73 39.62,7.73 41.71,0 73.5,-16.61 91.95,-48.03l0.83 -1.42 0.25 1.62c1.13,7.37 3.87,14.12 8.13,20.07 13.36,18.68 40.36,27.76 82.53,27.76 34.42,0 59.95,-5.97 80.34,-18.78l1.77 -1.11 -9.2 18.44 65.63 -0.49c28.02,-0.4 49.32,-13.11 59.95,-35.8l40.76 -86.81c9.61,-20.53 22.75,-29.29 43.93,-29.29l1.25 0.01c6.56,0.1 26.57,0.83 26.72,0.83l0.9 0.03 -27.7 57.97c-10.31,21.56 -20.53,48.94 -8.07,69.51 9.51,15.22 29.72,23.27 58.45,23.27l182.36 0c26.18,0 46.74,-12.43 57.9,-35.01l25.26 -51.85 -69.6 0 83.1 -78.62 34.6 -73.07 -188.99 0 25.98 -52.12 -118.65 31.36 -4.48 7.15c-8.08,12.87 -16.85,13.21 -27.01,13.61l-0.56 0.02 -252.35 0c-54.84,0 -88.41,13.19 -112.26,44.13l-0.95 1.23 -0.09 -1.56c-0.52,-8.58 -3.07,-16.18 -7.58,-22.58 -9.95,-14.1 -28.31,-21.24 -54.57,-21.24l-111.73 0 0.24 -0.76c7.25,-23.41 5.83,-39.86 -4.77,-55.03 -13.47,-19.29 -40.96,-29.07 -81.72,-29.07zm0 1.21c40.34,0 67.5,9.61 80.73,28.55 10.35,14.83 11.73,30.97 4.59,53.98l-0.23 0.76 -0.49 1.57 1.65 0 111.73 0c25.84,0 43.86,6.97 53.58,20.73 4.38,6.21 6.85,13.6 7.36,21.95l0.09 1.56 0.18 3.24 1.99 -2.56 0.95 -1.24c23.59,-30.6 56.88,-43.66 111.3,-43.66l252.4 0 0.56 -0.02c10.06,-0.39 19.57,-0.77 27.98,-14.17l4.23 -6.74 115.59 -30.55 -24.78 49.7 -0.87 1.76 1.96 0 187.07 0 -33.68 71.14 -82.93 78.45 -2.22 2.1 3.05 0 67.66 0 -24.41 50.11c-10.94,22.14 -31.12,34.33 -56.81,34.33l-182.36 0c-28.29,-0.01 -48.15,-7.86 -57.41,-22.69 -12.16,-20.08 -2.05,-47.08 8.13,-68.36l27.69 -57.96 0.8 -1.68 -1.86 -0.06 -0.86 -0.02c-0.11,-0.01 -20.09,-0.74 -26.78,-0.84l-1.26 -0.02c-21.72,0 -35.19,8.97 -45.03,29.99l-40.76 86.82c-10.42,22.23 -31.33,34.7 -58.86,35.09l-63.65 0.48 8.31 -16.66 1.93 -3.87 -3.66 2.3 -1.76 1.11c-20.2,12.68 -45.52,18.58 -79.7,18.58 -41.75,0 -68.42,-8.91 -81.54,-27.25 -4.15,-5.79 -6.82,-12.37 -7.92,-19.55l-0.25 -1.62 -0.52 -3.37 -1.73 2.94 -0.83 1.42c-18.21,31.03 -49.65,47.43 -90.9,47.43 -15.69,0 -28.84,-2.56 -39.08,-7.61l-0.54 -0.26 -1.1 -0.55 -0.53 1.12 -20.9 44.09c-10.51,22.42 -31.5,34.76 -59.1,34.76l-60.26 0 43.47 -90.94 1.57 -3.3 -3.23 1.7 -1.57 0.82c-25.42,13.38 -57.43,20.45 -92.56,20.45 -42.08,0 -71.5,-9.21 -87.44,-27.4 -8.14,-9.29 -16.5,-25.71 -10.08,-51.18 5,-20.16 23.12,-53.99 88.27,-53.99 4.52,0 9.35,0.16 14.37,0.48l16.72 1.08 4.09 0.27 -3.28 -2.45 -1.57 -1.18c-2.3,-1.71 -4.79,-3.55 -7.47,-5.49 -26.44,-19.24 -58.41,-51.42 -30.81,-108.49 22.22,-47.04 75.9,-75.13 143.58,-75.13z"></path>
   </g>
   <path class="fil2" d="M920.44 733.1l134.83 0c18.24,0 30.59,-7.76 38.27,-23.29l13.64 -28.01 -87.2 0 113.95 -105.93 21.67 -45.77 -141.35 0 -24.39 51.31 67.75 0 -116.46 108.15 -20.71 43.54z"></path>
   <path class="fil2" d="M39.97 675.97c-10.55,41.88 25.34,59.63 80.69,59.63 46.08,0 110.29,-14.98 131.33,-64.62 18.98,-44.37 9.94,-65.72 -32.61,-96.23 -38.66,-27.73 -43.23,-38.26 -33.59,-60.45 8.02,-17.75 25.49,-26.62 40.64,-26.62 29.69,0 22.21,22.8 6.59,54.66l68.2 -0.55c33.17,-62.15 16.56,-96.54 -57.04,-96.54 -49.47,0 -102.87,17.19 -125.03,64.06 -19.17,39.65 -6.58,66 26.19,89.85 38.35,27.73 49.6,39.1 41.36,60.17 -6.87,18.31 -23.56,29.96 -50.16,29.96 -37.11,0 -28.41,-29.96 -14.97,-52.7 -51.43,-3.32 -74.93,12.49 -81.6,39.38zm435.09 -15.8c-22.8,49.08 -6.15,75.15 63.12,75.15 63.4,0 86.96,-20.24 111.22,-70.71l27.99 -58.52c24.83,-52.13 10.21,-77.37 -59.68,-77.37 -69.27,0 -93.22,24.68 -115.63,73.21l-27.02 58.24zm63.93 0.55l28.91 -60.45c7.33,-15.25 13.31,-35.78 38.67,-35.78 26.59,0 16.02,20.25 9.57,33.84l-29.88 62.67c-9.26,19.69 -15.33,38.82 -40.38,38.82 -26.59,0 -15.14,-21.91 -6.89,-39.1zm100.88 72.94l36.54 -0.28c19.52,-0.28 33.1,-8.04 40.51,-23.85l40.75 -86.8c16.24,-34.67 42.36,-43.54 82.17,-41.04l24.83 -52.14c-27.26,-1.66 -63.35,-0.27 -93.11,31.89l14.79 -31.33 -84.21 0.55c12.45,9.43 23.61,31.06 0.26,77.65l-62.53 125.35zm190.75 -15.53c6.93,11.09 22.94,17.47 43.4,17.19 17.62,0 25.22,-1.11 33.87,-3.05l19.58 -41.2c-7.06,1.87 -12.59,2.36 -17.98,2.36 -10.94,0 -17.78,-7.07 -9,-25.66l41.44 -86.36 35.26 0 24.39 -51.3 -35.57 0 21.16 -42.43 -70.98 18.86c-13.58,21.63 -25.55,23.01 -39.55,23.57l-24.08 51.3 26.29 0 -39.49 82.64c-11.93,24.96 -15.63,42.7 -8.74,54.08zm-451.58 -52.97c-7.24,14.7 -19.64,30.78 -38.51,30.78l-1.23 0c-20.11,0 -16.8,-15.25 -11.84,-25.23l30.1 -62.12c8.68,-18.03 20.15,-37.99 40.56,-37.99l1.24 0c21.02,0 16.67,19.96 8.55,36.32l-28.87 58.24zm-179.81 141.71l34.02 0c19.48,0 33.06,-7.77 40.47,-23.57l33.65 -71c6.27,13.31 18.05,23.02 47.12,23.02 41.44,0 64.13,-18.58 76.46,-44.1l42.55 -88.45c17.42,-36.34 23.7,-72.66 -31.34,-72.66 -24.43,0 -43.35,8.32 -62.25,24.4l10.17 -21.63 -60.03 0.28 -130.82 273.71z"></path>
   <path class="fil2" d="M602.21 408.33c111.67,0 201.95,-90.59 201.95,-201.93 0,-111.52 -90.43,-201.96 -202.1,-201.96 -111.52,0.17 -201.95,90.6 -201.95,202.11 0.17,111.34 90.6,201.78 202.1,201.78z"></path>
   <path class="fil2" d="M602.06 8.87c-108.91,0.17 -197.51,88.85 -197.51,197.68 0.16,108.81 88.83,197.35 197.66,197.35 108.91,0 197.51,-88.6 197.51,-197.51 0,-108.91 -88.67,-197.52 -197.66,-197.52zm0.15 403.9c-113.72,0 -206.37,-92.51 -206.54,-206.21 0,-113.72 92.58,-206.38 206.38,-206.56 113.89,0 206.54,92.59 206.54,206.39 0,113.8 -92.57,206.38 -206.38,206.38z"></path>
   <path class="fil3" d="M590.95 305.98c-36.71,-9.59 -71.39,-18.65 -109.54,-18.65 -14.59,0 -27.86,1.43 -39.79,3.71 30.33,57.56 90.72,96.82 160.31,96.82 53.35,0 101.29,-23.07 134.44,-59.77 -2.26,0.07 -4.54,0.11 -6.83,0.11 -53.52,0 -96.76,-11.29 -138.59,-22.22zm-109.54 -215.95c-6.33,0 -12.48,0.24 -18.49,0.63 33.21,-39.75 83.15,-65.05 139.01,-65.05 71.98,0 134.15,41.99 163.36,102.82 -11.11,1.89 -23.08,3.05 -35.75,3.05 -45.97,0 -80.56,-9.63 -117.15,-19.83 -38.19,-10.63 -77.68,-21.62 -130.98,-21.62z"></path>
   <path class="fil4" d="M353.55 139.93l0 172.8c0,0 43.8,-42.61 127.86,-42.61 84.07,0 149.45,40.86 248.12,40.86 77.65,0 129.02,-35.6 129.02,-35.6l0 -165.22c0,0 -51.95,38.52 -129.02,38.52 -97.5,0 -147.12,-41.44 -248.12,-41.44 -75.31,0 -127.86,32.69 -127.86,32.69z"></path>
   <path class="fil2" d="M506.57 158.03c0,0 2.26,16.2 -5.15,14.08 0,0 -5.29,-2.57 5.15,-14.08z"></path>
   <path class="fil2" d="M506.57 158.03c0,0 -12.87,-10.14 -6.05,-13.61 0,0 5.59,-1.82 6.05,13.61z"></path>
   <path class="fil2" d="M506.57 158.03c0,0 -16.34,1.51 -13.77,-5.75 0,0 2.88,-5.14 13.77,5.75z"></path>
   <path class="fil2" d="M506.57 158.03c0,0 -10.14,12.87 -13.77,6.05 0,0 -1.67,-5.59 13.77,-6.05z"></path>
   <path class="fil2" d="M506.57 158.03c0,0 13.31,9.54 6.66,13.47 0,0 -5.6,1.98 -6.66,-13.47z"></path>
   <path class="fil2" d="M506.57 158.03c0,0 16.04,-3.02 14.23,4.39 0,0 -2.28,5.45 -14.23,-4.39z"></path>
   <path class="fil2" d="M506.57 158.03c0,0 8.78,-13.61 13.01,-7.26 0,0 2.27,5.45 -13.01,7.26z"></path>
   <path class="fil2" d="M506.57 158.03c0,0 -2.42,-16.03 5,-14.07 0,0 5.29,2.57 -5,14.07z"></path>
   <path class="fil2" d="M506.57 160.76c1.37,0 2.58,-1.22 2.58,-2.72 0,-1.36 -1.21,-2.57 -2.58,-2.57 -1.51,0 -2.58,1.21 -2.58,2.57 0,1.5 1.07,2.72 2.58,2.72z"></path>
   <path class="fil2" d="M379.45 144.11l64.32 -0.15c0.16,0 -30.57,22.55 -21.95,71.89 1.82,10.27 3.79,20.42 13.77,24.65 15.89,6.52 32.39,-16.79 39.35,-36.46 2.42,-6.81 4.54,-13.31 4.24,-17.55l0.15 64.3 -106.68 0c26.93,-30.26 31.47,-74.14 6.8,-106.68z"></path>
   <path class="fil2" d="M488.57 178.77l33.74 0 0 71.89 -36.63 0c13.62,-26.04 20.74,-49.65 2.89,-71.89z"></path>
   <path class="fil2" d="M529.42 178.62l32.08 0.3 0.31 11.35c0,0 9.69,-8.93 13.32,-9.98 3.47,-1.22 19.52,-10.9 33.13,9.83 -0.15,0.9 22.1,-24.67 43.28,-7.11 12.87,12.1 2.27,59.32 15.29,67.64l-36.32 -0.3c4.39,-21.8 4.39,-37.69 3.02,-47.82 -6.49,-25.58 -38.58,-8.63 -19.96,48.12l-32.4 0.14c21.5,-81.85 -34.34,-74.74 -17.39,0l-36.78 -0.44c13.32,-25.43 17.86,-49.79 2.42,-71.73z"></path>
   <path class="fil2" d="M715.71 187.99c-2.57,0.31 -7.86,5.92 -7.27,10.75 1.37,19.83 28.91,17.86 27.4,-1.81 -8.17,-33.61 -69.76,-26.49 -70.22,16.34 1.67,47.98 54.63,52.66 73.55,19.68 -48.28,42.97 -54.33,-22.56 -41.92,-44.5 4.54,-6.2 13.77,-9.68 18.46,-0.46z"></path>
   <path class="fil2" d="M773.22 188.15c5.75,-10.74 27.24,-5.6 24.36,4.09 -3.63,15.73 -20.13,12.86 -32.84,19.66 -46.76,14.22 -9.83,65.38 35.12,34.51l1.2 4.24 29.82 0c-9.84,-13.47 -2.12,-42.22 -12.12,-60.38 -13,-24.36 -84.89,-16.2 -71.11,11.51 5.44,10.73 31.92,10.73 25.57,-13.63zm9.38 26.17c11.95,-7.25 16.19,-1.66 16.34,9.09 -4.23,21.79 -15.28,24.22 -22.09,21.79 -8.78,-3.64 -10.44,-19.68 5.75,-30.88z"></path>
   <path class="fil3" d="M808.33 326.14c2.04,0.04 3.48,-0.44 3.48,-2.78 0,-2.4 -2.61,-2.4 -4.39,-2.4l-4.48 0 0 5.18 5.39 0zm6.52 10.56l-4.21 0 -4.09 -7.83 -3.61 0 0 7.83 -3.61 0 0 -18.47 8.91 0c1.57,0 3.61,0.04 5,0.91 1.66,1.09 2.18,2.87 2.18,4.78 0,3.35 -1.79,4.74 -5.05,4.95l4.48 7.83zm5.35 -9.35c0,-7.64 -6.17,-13.81 -13.82,-13.81 -7.7,0 -13.91,6.17 -13.91,13.81 0,7.74 6.21,13.91 13.91,13.91 7.65,0 13.82,-6.17 13.82,-13.91zm-30.94 0c0,-9.39 7.64,-17.03 17.12,-17.03 9.38,0 17.03,7.64 17.03,17.03 0,9.48 -7.65,17.12 -17.03,17.12 -9.48,0 -17.12,-7.64 -17.12,-17.12z"></path>
  </g>
 </g>
</svg>
