<?xml version="1.0" encoding="UTF-8" standalone="no"?><!DOCTYPE svg PUBLIC "-//W3C//DTD SVG 1.1//EN" "http://www.w3.org/Graphics/SVG/1.1/DTD/svg11.dtd"><svg width="100%" height="100%" viewBox="0 0 151 111" version="1.1" xmlns="http://www.w3.org/2000/svg" xmlns:xlink="http://www.w3.org/1999/xlink" xml:space="preserve" xmlns:serif="http://www.serif.com/" style="fill-rule:evenodd;clip-rule:evenodd;stroke-linejoin:round;stroke-miterlimit:2;"><rect id="Page-1" serif:id="Page 1" x="-400.288" y="-35.153" width="595.276" height="841.89" style="fill:none;"/><path d="M136.944,54.533l0.861,1.278l-0.582,0.516l-1.067,0.949c-0.038,0.041 -0.118,0.14 -0.144,0.175l-2.103,2.624l-0.663,0.826l-0.338,-0.869l-0.785,-2.01l-0.067,-0.016c-0.098,-0.026 -0.198,-0.049 -0.298,-0.073l-2.417,-0.541l0.02,-0.101l0.302,-1.566l0.147,-0.766c0.068,-0.357 0.138,-0.726 0.207,-1.105c0.036,-0.197 0.072,-0.397 0.108,-0.598l0.295,-1.654l1.634,-0.384c0.237,-0.056 0.459,-0.101 0.674,-0.145c0.098,-0.021 0.198,-0.04 0.297,-0.061l0.132,-0.029l0.597,-0.127l6.024,-1.284l-2.682,3.511l-0.402,0.528l-0.198,0.257c0.025,0.035 0.044,0.065 0.058,0.087l0.367,0.543l0.023,0.035Z" style="fill:#003bb7;fill-rule:nonzero;"/><path d="M137.225,56.225c-0,0.035 -0,0.069 -0.001,0.102c-0.012,0.527 -0.108,1.021 -0.288,1.474c-0.227,0.575 -0.57,1.062 -1.019,1.445l-0.006,0.005c-0.465,0.394 -1.033,0.662 -1.644,0.775c-0.118,0.022 -0.237,0.038 -0.358,0.048c-0.109,0.01 -0.219,0.014 -0.329,0.014c-0.219,0 -0.446,-0.018 -0.672,-0.056c-0.073,-0.012 -0.146,-0.026 -0.218,-0.042c-0.27,-0.058 -0.533,-0.142 -0.786,-0.248c-0.217,-0.091 -0.429,-0.197 -0.63,-0.318c-0.177,-0.107 -0.351,-0.224 -0.515,-0.352l-0.006,-0.003c-0.146,-0.115 -0.283,-0.232 -0.406,-0.349l-1.429,-1.361l-0.436,-0.415l1.18,-1.22l0.611,-0.631c0.043,-0.044 0.086,-0.089 0.129,-0.136c0.515,-0.565 1.245,-0.887 2.01,-0.887c0.04,0 0.081,0.001 0.121,0.002l0.206,-0.125c0.1,-0.06 0.196,-0.122 0.292,-0.183c0.075,-0.049 0.151,-0.097 0.226,-0.144l2.965,-1.856l0.472,1.847l0.227,0.887l0.015,0.059l0.152,0.595c0.091,0.356 0.137,0.718 0.137,1.073" style="fill:#003bb7;fill-rule:nonzero;"/><path d="M137.097,50.22l-0,3.367c-0,0.328 -0.051,0.646 -0.152,0.947c-0.003,0.008 -0.005,0.016 -0.009,0.024c-0.106,0.307 -0.264,0.595 -0.47,0.856c-0.458,0.579 -1.139,0.96 -1.913,1.069c-0.142,0.02 -0.293,0.043 -0.453,0.069l-0.177,0.027l-4.562,0.711l-0.443,0.07l-3.144,0.49l4.243,-3.995l1.761,-1.659c0.29,-0.271 0.588,-0.538 0.886,-0.793l0.493,-0.42l0.019,-0.015l0.578,-0.113l0.079,-0.015c0.011,-0.002 0.025,-0.004 0.039,-0.008c0.066,-0.015 0.132,-0.029 0.198,-0.041l3.027,-0.571Z" style="fill:#003bb7;fill-rule:nonzero;"/><path d="M102.502,26.807c0.015,0.313 0.247,0.517 0.449,0.66c0.373,0.263 0.776,0.486 1.196,0.663l0.134,0.055c0.199,0.081 0.386,0.156 0.537,0.27c0.145,0.109 0.265,0.256 0.396,0.423l0.156,0.205c0.403,0.518 0.819,1.056 1.373,1.456c0.187,0.135 0.388,0.252 0.587,0.367c0.288,0.168 0.559,0.326 0.781,0.537c0.146,0.138 0.268,0.298 0.362,0.477c1.81,3.417 3.758,5.973 6.315,8.286l0.428,0.38c0.391,0.347 0.796,0.705 1.159,1.084c0.699,0.731 1.273,1.565 1.706,2.48c0.116,0.244 0.22,0.493 0.327,0.742c0.215,0.507 0.436,1.03 0.742,1.511c0.433,0.676 1.001,1.186 1.551,1.679l0.268,0.241c0.172,0.157 0.368,0.301 0.566,0.447c0.376,0.275 0.731,0.534 0.925,0.888c0.136,0.251 0.194,0.542 0.25,0.869c0.038,0.219 0.073,0.439 0.109,0.658c0.157,0.966 0.318,1.965 0.686,2.9c0.157,0.403 0.352,0.79 0.54,1.166c0.075,0.149 0.145,0.294 0.215,0.439c0.035,0.074 0.075,0.149 0.109,0.223c0.105,0.229 0.203,0.458 0.284,0.693c0.225,0.654 0.32,1.335 0.422,2.056c0.058,0.41 0.116,0.82 0.198,1.224c0.059,0.295 0.133,0.587 0.206,0.879c0.127,0.513 0.249,0.998 0.301,1.499c0.15,1.41 -0.275,2.86 -0.686,4.162c-0.04,0.04 -0.066,0.092 -0.076,0.15c-0.431,2.606 0.118,4.601 0.882,6.938c0.444,1.36 1.012,2.674 1.625,3.958c0.172,0.363 0.349,0.724 0.528,1.083c0.316,0.632 0.636,1.256 0.955,1.874l1.301,2.525c-1.84,0.164 -3.339,0.134 -4.814,-0.091c-0.547,-0.084 -1.24,-0.232 -1.769,-0.646c-0.081,-0.066 -0.156,-0.138 -0.233,-0.214c-0.117,-0.116 -0.233,-0.238 -0.349,-0.369c-0.013,-0.012 -0.025,-0.025 -0.037,-0.039c-0.088,-0.1 -0.178,-0.198 -0.27,-0.295l-0.199,-0.206c-0.696,-0.733 -1.748,-1.841 -2.779,-1.375c-0.72,0.325 -1.23,1.124 -1.364,2.138c-0.062,0.473 -0.05,0.949 -0.038,1.408c0.008,0.321 0.017,0.653 -0.001,0.973c-0.034,0.586 -0.162,1.182 -0.285,1.759c-0.155,0.726 -0.315,1.476 -0.303,2.244c0.008,0.555 0.234,1.296 0.719,1.697c0.272,0.226 0.591,0.315 0.923,0.256c0.803,-0.141 1.086,-0.986 1.313,-1.664l0.025,-0.077c0.394,-1.173 1.355,-2.372 2.617,-2.412c0.614,-0.013 1.212,0.23 1.753,0.45l6.403,2.599c0.162,3.105 1.412,5.987 2.62,8.775c0.898,2.071 1.826,4.211 2.304,6.428c0.033,0.157 0.061,0.319 0.01,0.418c-0.024,0.047 -0.081,0.102 -0.141,0.158c-0.076,0.07 -0.163,0.152 -0.23,0.261c-0.088,0.141 -0.123,0.288 -0.132,0.435c-0.011,0.158 0.008,0.315 0.028,0.462c0.006,0.047 0.009,0.092 0.014,0.138c0.003,0.028 0.008,0.057 0.009,0.085c0.019,0.295 -0.062,0.595 -0.146,0.913c-0.075,0.278 -0.152,0.567 -0.168,0.872c-0.064,1.277 0.876,1.365 1.564,1.429c0.172,0.017 0.345,0.033 0.507,0.065c1.445,0.293 2.936,0.555 4.398,0.555c1.16,-0 2.302,-0.164 3.39,-0.612c0.468,-0.192 0.707,-0.515 0.64,-0.861c-0.03,-0.158 -0.122,-0.279 -0.208,-0.377c-0.551,-0.629 -1.294,-0.999 -2.015,-1.357c-0.607,-0.302 -1.184,-0.588 -1.647,-1.017c-0.394,-0.364 -0.69,-0.816 -1.003,-1.295c-0.195,-0.3 -0.398,-0.608 -0.626,-0.896c-0.163,-0.203 -0.341,-0.402 -0.52,-0.602c-0.565,-0.627 -1.098,-1.221 -1.123,-1.957c-0.002,-0.091 -0.047,-0.169 -0.113,-0.219c-0.304,-1.577 -0.639,-3.195 -0.964,-4.767c-0.366,-1.762 -0.742,-3.584 -1.074,-5.337c-0.172,-0.915 -0.35,-1.862 -0.341,-2.798c0.003,-0.35 0.032,-0.7 0.061,-1.051c0.034,-0.404 0.07,-0.824 0.064,-1.244c-0.003,-0.249 -0.02,-0.498 -0.037,-0.746c-0.027,-0.392 -0.052,-0.763 -0.024,-1.133c0.048,-0.616 0.245,-1.203 0.452,-1.826c0.102,-0.304 0.203,-0.607 0.288,-0.915c0.159,-0.587 0.248,-1.182 0.308,-1.779c0.016,-0.162 0.033,-0.325 0.044,-0.487c0.043,-0.595 0.062,-1.19 0.077,-1.776c0.021,-0.832 0.073,-1.699 0.124,-2.538c0.089,-1.502 0.183,-3.055 0.109,-4.54c-0.049,-0.956 -0.207,-1.884 -0.359,-2.781c-0.23,-1.354 -0.448,-2.635 -0.331,-4.037c0.104,-1.255 0.349,-2.518 0.586,-3.741c0.181,-0.938 0.37,-1.909 0.495,-2.877c0.143,-1.1 0.111,-2.198 0.082,-3.262c-0.024,-0.857 -0.044,-1.736 0.024,-2.61c0.01,-0.114 0.021,-0.229 0.034,-0.344c0.008,-0.081 0.013,-0.162 0.023,-0.243c0.95,-0.259 1.92,-0.937 2.627,-1.845c0.218,-0.281 0.403,-0.582 0.582,-0.873c0.249,-0.407 0.484,-0.79 0.795,-1.11c0.324,-0.332 0.719,-0.583 1.138,-0.85c0.412,-0.262 0.836,-0.534 1.198,-0.892c0.532,-0.529 0.872,-1.181 1.203,-1.813l0.17,-0.325c0.474,-0.883 0.722,-1.373 0.847,-1.657c0.357,0.046 0.727,-0.071 0.987,-0.325c0.045,-0.044 0.088,-0.093 0.13,-0.141c0.065,-0.076 0.131,-0.155 0.183,-0.169c0.027,-0.007 0.078,-0.004 0.128,-0.003c0.003,-0 0.065,0.001 0.067,0.001c0.323,0.027 0.639,-0.092 0.913,-0.177c0.152,-0.048 0.381,-0.12 0.526,-0.329c0.199,-0.287 0.099,-0.507 0.047,-0.589c-0.175,-0.271 -0.593,-0.308 -0.817,-0.268l-0.134,0.028c-0.428,0.091 -0.688,0.125 -0.845,0.133c0.056,-0.038 0.123,-0.074 0.192,-0.111c0.26,-0.14 0.522,-0.299 0.666,-0.581c0.101,-0.197 0.109,-0.448 0.019,-0.653c-0.076,-0.175 -0.212,-0.299 -0.385,-0.349c-0.392,-0.113 -0.69,0.185 -0.887,0.383c-0.198,0.197 -0.477,0.394 -0.629,0.46c0.036,-0.17 0.176,-0.47 0.244,-0.612c0.081,-0.178 0.147,-0.317 0.173,-0.427c0.083,-0.361 -0.031,-0.68 -0.289,-0.813c-0.226,-0.117 -0.523,-0.056 -0.722,0.145c-0.146,0.149 -0.214,0.338 -0.264,0.477l-0.172,0.469c-0.013,-0.127 -0.013,-0.269 -0.014,-0.407c-0.001,-0.19 -0.002,-0.388 -0.03,-0.573c-0.072,-0.463 -0.356,-0.744 -0.686,-0.706c-0.136,0.015 -0.46,0.115 -0.539,0.681c-0.009,0.066 -0.022,0.132 -0.035,0.199c-0.03,0.159 -0.063,0.339 -0.055,0.522c0.005,0.089 0.022,0.174 0.04,0.255c-0.026,-0.015 -0.053,-0.031 -0.077,-0.046c-0.377,-0.228 -0.803,-0.489 -1.155,-0.327c-0.122,0.054 -0.278,0.183 -0.328,0.478c-0.064,0.373 0.243,0.586 0.426,0.714c0.059,0.041 0.147,0.102 0.166,0.132c0.007,0.014 0.009,0.072 0.01,0.114c0.028,0.47 0.217,0.791 0.524,0.914c0.034,0.014 0.07,0.024 0.105,0.035c0.07,0.029 0.089,0.094 0.069,0.155c-0.257,0.752 -1.215,1.198 -1.985,1.557c-0.159,0.074 -0.311,0.146 -0.451,0.215c-1.334,0.668 -2.529,1.639 -3.455,2.806l-0.046,0.059c-0.218,0.274 -0.441,0.558 -0.726,0.641c-0.251,0.075 -0.541,-0.007 -0.85,-0.094c-0.144,-0.041 -0.286,-0.082 -0.429,-0.108c-0.995,-0.19 -2.376,0.314 -2.984,1.262c-0.28,-0.384 -0.491,-0.813 -0.349,-1.19c0.063,-0.171 0.199,-0.325 0.343,-0.489c0.174,-0.198 0.371,-0.423 0.465,-0.717c0.139,-0.439 0.001,-0.894 -0.1,-1.227c-0.126,-0.414 -0.294,-0.806 -0.458,-1.185c-0.05,-0.114 -0.104,-0.213 -0.16,-0.312c-0.121,-0.211 -0.194,-0.349 -0.179,-0.516l0.013,-0.11c0.027,-0.215 0.065,-0.507 -0.205,-0.767c-0.19,-0.18 -0.413,-0.222 -0.592,-0.256c-0.102,-0.019 -0.189,-0.036 -0.262,-0.073c-0.069,-0.035 -0.138,-0.111 -0.212,-0.189l-0.088,-0.094c-0.338,-0.346 -0.79,-0.563 -1.272,-0.613c-0.439,-0.045 -0.88,-0.079 -1.391,0.012c-1.064,0.185 -1.908,0.902 -2.681,1.62c-0.241,0.225 -0.573,0.533 -0.741,0.94c-0.097,0.237 -0.131,0.488 -0.148,0.679c-0.073,0.793 0.1,1.625 0.503,2.45c-0.72,-0.339 -1.509,-0.54 -2.297,-0.578c-0.171,-0.007 -0.383,-0.357 -0.524,-0.589c-0.045,-0.074 -0.088,-0.145 -0.13,-0.206c-1.024,-1.541 -2.782,-3.586 -5.372,-4.62l-0.148,-0.197c-0.693,-0.929 -1.409,-1.89 -2.252,-2.744c-0.675,-0.683 -1.425,-1.307 -2.151,-1.909c-1.183,-0.982 -2.407,-1.997 -3.272,-3.266c-0.098,-0.142 0.071,-0.381 0.342,-0.728c0.173,-0.223 0.35,-0.451 0.443,-0.697c0.114,-0.303 0.122,-0.623 0.131,-0.932c0.011,-0.394 0.02,-0.734 0.24,-0.92c0.041,-0.035 0.087,-0.064 0.132,-0.095c0.145,-0.093 0.324,-0.21 0.406,-0.432c0.076,-0.199 0.045,-0.41 -0.089,-0.591c-0.18,-0.243 -0.535,-0.393 -0.848,-0.38c-0.88,0.056 -1.469,0.836 -1.698,1.623c-0.254,-0.095 -0.456,-0.351 -0.551,-0.594c-0.134,-0.341 -0.148,-0.725 -0.162,-1.131l-0.005,-0.153c-0.019,-0.509 -0.076,-1.04 -0.359,-1.484c-0.194,-0.304 -0.573,-0.562 -0.949,-0.41c-0.204,0.081 -0.527,0.334 -0.387,1.095l0.262,1.436c0.007,0.036 0.009,0.071 0.009,0.102c-0,-0.001 -0.001,-0.004 -0.002,-0.005l-0.598,-1.376c-0.109,-0.25 -0.233,-0.534 -0.458,-0.755c-0.184,-0.182 -0.501,-0.347 -0.816,-0.311c-0.199,0.025 -0.366,0.136 -0.469,0.311c-0.306,0.516 0.021,1.075 0.238,1.445l0.043,0.072c0.152,0.265 0.27,0.546 0.35,0.837l-0.688,-0.706c-0.158,-0.163 -0.373,-0.385 -0.674,-0.468c-0.204,-0.054 -0.431,-0.024 -0.608,0.083c-0.151,0.09 -0.256,0.228 -0.293,0.389c-0.051,0.216 0.016,0.446 0.201,0.681c0.184,0.239 0.407,0.426 0.623,0.607c0.075,0.063 0.15,0.128 0.223,0.193c0.115,0.103 0.245,0.224 0.344,0.359c0.017,0.024 0.033,0.051 0.047,0.075c-0.084,-0.017 -0.17,-0.057 -0.259,-0.114c-0.065,-0.042 -0.128,-0.088 -0.191,-0.134c-0.179,-0.131 -0.384,-0.281 -0.639,-0.343c-0.257,-0.064 -0.551,0.002 -0.752,0.168c-0.163,0.135 -0.248,0.316 -0.237,0.515m25.386,50.107c0.195,-0.258 0.422,-0.516 0.699,-0.75c0.367,-0.31 0.795,-0.578 1.238,-0.794c0.221,-0.108 0.444,-0.202 0.671,-0.289c0.214,-0.083 0.473,-0.162 0.704,-0.186c0.472,-0.056 0.896,0.003 1.247,0.055c0.352,0.056 0.641,0.103 0.847,0.124c0.205,0.023 0.323,0.027 0.323,0.027c-0,-0 -0.117,0.015 -0.325,0.022c-0.207,0.01 -0.505,0.006 -0.859,0.005c-0.351,-0.002 -0.764,0.008 -1.163,0.119c-0.205,0.057 -0.378,0.138 -0.582,0.255c-0.195,0.111 -0.392,0.231 -0.579,0.36c-0.374,0.257 -0.714,0.551 -0.98,0.859c-0.271,0.309 -0.464,0.623 -0.593,0.909c-0.058,0.127 -0.098,0.243 -0.133,0.351c-0.174,-0.353 -0.347,-0.709 -0.515,-1.067m-4.868,5.424c-0.041,0.029 -0.088,0.061 -0.163,0.101c-0.222,0.119 -0.475,0.218 -0.706,0.359c-0.229,0.137 -0.434,0.339 -0.582,0.595c-0.311,0.507 -0.339,1.151 -0.259,1.606c0.077,0.461 0.205,0.752 0.205,0.752c-0,-0 -0.161,-0.273 -0.292,-0.733c-0.132,-0.452 -0.191,-1.136 0.093,-1.755c0.133,-0.306 0.356,-0.588 0.612,-0.784c0.253,-0.194 0.502,-0.326 0.682,-0.45c0.017,-0.01 0.046,-0.035 0.072,-0.057c0.013,0.014 0.026,0.026 0.039,0.04c0.096,0.109 0.194,0.22 0.299,0.326m14.208,-3.324c-0.08,-0.036 -0.157,-0.073 -0.241,-0.104c-0.559,-0.216 -1.175,-0.245 -1.23,-0.246c0.081,0.401 0.152,0.787 0.208,1.127c0.087,0.501 0.121,0.926 0.154,1.218c0.023,0.296 0.037,0.464 0.037,0.464c-0,-0 -0.169,-0.653 -0.424,-1.633c-0.117,-0.49 -0.291,-1.053 -0.454,-1.661c-0.166,-0.607 -0.36,-1.249 -0.569,-1.887c-0.196,-0.641 -0.405,-1.278 -0.617,-1.871c-0.218,-0.59 -0.398,-1.152 -0.584,-1.62c-0.355,-0.949 -0.59,-1.581 -0.59,-1.581c-0,-0 0.086,0.146 0.235,0.401c0.143,0.26 0.358,0.625 0.575,1.085c0.219,0.458 0.476,0.994 0.709,1.585c0.231,0.592 0.463,1.23 0.678,1.873c0.192,0.651 0.37,1.305 0.521,1.922c0.047,0.199 0.083,0.386 0.121,0.576c0.052,-0.011 0.66,-0.121 1.297,-0.028c0.066,0.009 0.13,0.025 0.196,0.037c-0.008,0.115 -0.013,0.228 -0.022,0.343m1.133,-29.463c-0.116,0.024 -0.204,0.118 -0.221,0.234c-0.022,0.146 -0.033,0.292 -0.049,0.438c-0.028,-0.174 -0.059,-0.371 -0.096,-0.612c-0.112,-0.664 -0.249,-1.568 -0.714,-2.315c-0.227,-0.376 -0.55,-0.674 -0.908,-0.902c-0.348,-0.231 -0.715,-0.383 -1.047,-0.426c-0.333,-0.046 -0.618,0.01 -0.802,0.082c-0.163,0.062 -0.24,0.117 -0.259,0.131c-0,-0.001 0.001,-0.003 0.002,-0.004c0.033,-0.027 0.114,-0.086 0.247,-0.15c0.181,-0.086 0.468,-0.168 0.82,-0.148c0.35,0.018 0.75,0.148 1.132,0.361c0.382,0.201 0.772,0.506 1.05,0.896c0.284,0.384 0.482,0.821 0.626,1.235c0.143,0.416 0.241,0.811 0.322,1.146c0.002,0.002 0.002,0.003 0.002,0.005c-0.035,0.009 -0.07,0.022 -0.105,0.029m-15.562,-5.897c-0,-0 -0.059,-0.094 -0.151,-0.263c-0.092,-0.173 -0.236,-0.401 -0.416,-0.672c-0.352,-0.546 -0.885,-1.221 -1.501,-1.814c-0.614,-0.594 -1.308,-1.101 -1.866,-1.434c-0.277,-0.169 -0.515,-0.308 -0.687,-0.392c-0.171,-0.087 -0.267,-0.142 -0.267,-0.142c-0,-0 0.107,0.019 0.297,0.066c0.186,0.049 0.459,0.118 0.766,0.249c0.314,0.121 0.661,0.306 1.018,0.529c0.354,0.227 0.705,0.511 1.035,0.818c0.318,0.319 0.614,0.659 0.854,1.005c0.235,0.349 0.432,0.689 0.565,0.998c0.141,0.301 0.222,0.575 0.278,0.757c0.051,0.186 0.075,0.295 0.075,0.295m4.717,2.042c-0,-0 -0.058,-0.026 -0.154,-0.08c-0.095,-0.058 -0.232,-0.119 -0.394,-0.202c-0.324,-0.162 -0.756,-0.35 -1.203,-0.494c-0.445,-0.144 -0.906,-0.248 -1.263,-0.306c-0.179,-0.03 -0.33,-0.06 -0.438,-0.07c-0.108,-0.013 -0.172,-0.026 -0.172,-0.026c-0,-0 0.235,-0.1 0.616,-0.149c0.379,-0.05 0.899,-0.011 1.389,0.146c0.489,0.162 0.932,0.437 1.209,0.7c0.282,0.264 0.41,0.481 0.41,0.481m8.075,13.003c-1.607,0.192 -3.229,0.272 -4.848,0.239c-0.022,-2.235 -0.052,-4.468 -0.075,-6.704l5.488,-0c0.239,2.126 -0.713,4.332 -0.565,6.465m-0.832,-11.745c-0.076,-0.171 -0.155,-0.258 -0.155,-0.258c-0,-0 0.102,0.053 0.226,0.217c0.113,0.16 0.255,0.447 0.212,0.818c-0.024,0.182 -0.087,0.386 -0.231,0.559c-0.129,0.168 -0.332,0.317 -0.552,0.395c-0.222,0.081 -0.465,0.121 -0.707,0.101c-0.239,-0.014 -0.493,-0.082 -0.704,-0.179c-0.447,-0.213 -0.791,-0.527 -1.082,-0.832c-0.292,-0.305 -0.537,-0.595 -0.769,-0.824c-0.231,-0.226 -0.438,-0.402 -0.603,-0.501c-0.162,-0.102 -0.264,-0.15 -0.264,-0.15c-0,-0 0.112,0.012 0.3,0.076c0.186,0.066 0.45,0.187 0.725,0.388c0.279,0.197 0.569,0.468 0.872,0.742c0.303,0.267 0.633,0.551 0.992,0.712c0.19,0.09 0.37,0.141 0.565,0.159c0.191,0.017 0.384,0.007 0.554,-0.045c0.173,-0.055 0.318,-0.13 0.436,-0.252c0.113,-0.11 0.186,-0.253 0.229,-0.395c0.079,-0.288 0.032,-0.562 -0.044,-0.731m-6.608,19.545c-0,-0 0.329,0.029 0.806,0.167c0.48,0.131 1.089,0.409 1.649,0.768c0.549,0.376 1.041,0.831 1.348,1.222c0.314,0.387 0.467,0.678 0.467,0.678c-0,-0 -0.057,-0.059 -0.16,-0.16c-0.098,-0.106 -0.247,-0.242 -0.424,-0.409c-0.172,-0.172 -0.396,-0.346 -0.625,-0.541c-0.233,-0.191 -0.493,-0.379 -0.762,-0.553c-0.266,-0.181 -0.541,-0.347 -0.807,-0.489c-0.27,-0.134 -0.517,-0.273 -0.742,-0.365c-0.441,-0.199 -0.75,-0.318 -0.75,-0.318m0.819,1.296c0.373,0.076 0.76,0.207 1.135,0.368c0.368,0.175 0.722,0.379 1.026,0.608c0.301,0.233 0.566,0.47 0.76,0.703c0.203,0.223 0.343,0.441 0.435,0.585c0.091,0.148 0.138,0.237 0.138,0.237c-0,-0 -0.076,-0.065 -0.203,-0.186c-0.124,-0.124 -0.309,-0.278 -0.538,-0.46c-0.451,-0.368 -1.097,-0.786 -1.793,-1.099c-0.696,-0.314 -1.437,-0.522 -2.011,-0.617c-0.286,-0.051 -0.53,-0.088 -0.702,-0.098c-0.173,-0.015 -0.272,-0.029 -0.272,-0.029c-0,-0 0.096,-0.025 0.269,-0.055c0.173,-0.025 0.423,-0.066 0.726,-0.062c0.303,-0.008 0.656,0.033 1.03,0.105m1.406,13.65c-0.665,-1.423 -1.109,-2.372 -1.109,-2.372c-0,-0 0.575,0.878 1.323,2.267c0.362,0.698 0.785,1.518 1.153,2.438c0.37,0.916 0.7,1.924 0.937,2.959c0.115,0.518 0.189,1.044 0.247,1.563c0.053,0.522 0.072,1.036 0.107,1.516c0.074,0.971 0.176,1.875 0.326,2.642c0.151,0.766 0.3,1.402 0.434,1.84c0.134,0.438 0.211,0.689 0.211,0.689c-0,-0 -0.117,-0.236 -0.29,-0.663c-0.166,-0.428 -0.399,-1.046 -0.59,-1.814c-0.185,-0.769 -0.37,-1.677 -0.459,-2.663c-0.046,-0.498 -0.073,-0.999 -0.133,-1.502c-0.066,-0.504 -0.15,-1.014 -0.269,-1.517c-0.211,-1.012 -0.518,-2.006 -0.864,-2.917c-0.347,-0.911 -0.695,-1.755 -1.024,-2.466m6.251,24.38c0.014,0.004 0.022,0.011 0.037,0.014c0.201,0.047 0.461,0.042 0.704,-0.061c0.061,-0.028 0.12,-0.059 0.167,-0.092c0.025,-0.011 0.061,-0.049 0.09,-0.071c0.036,-0.029 0.041,-0.037 0.074,-0.07c0.1,-0.106 0.188,-0.237 0.275,-0.377c0.167,-0.28 0.374,-0.595 0.657,-0.773c0.277,-0.18 0.578,-0.264 0.833,-0.28c0.257,-0.021 0.466,0.026 0.606,0.07c0.141,0.045 0.213,0.086 0.213,0.086c-0,-0 -0.078,-0.034 -0.219,-0.062c-0.141,-0.028 -0.349,-0.051 -0.589,-0.006c-0.239,0.04 -0.508,0.15 -0.737,0.337c-0.234,0.187 -0.375,0.461 -0.516,0.766c-0.074,0.151 -0.153,0.308 -0.263,0.455c-0.022,0.029 -0.068,0.083 -0.093,0.109c-0.031,0.03 -0.049,0.056 -0.092,0.09c-0.076,0.067 -0.153,0.118 -0.231,0.165c-0.288,0.161 -0.6,0.208 -0.873,0.191c-0.001,-0.034 0.002,-0.067 -0,-0.101c-0.005,-0.086 -0.016,-0.173 -0.028,-0.261c-0.006,-0.044 -0.01,-0.087 -0.015,-0.129m-11.72,-50.098c-0.087,-0.192 -0.18,-0.378 -0.273,-0.564c0.169,-0.245 0.376,-0.553 0.605,-0.915c0.596,-0.947 1.311,-2.264 1.881,-3.65c0.286,-0.692 0.538,-1.4 0.747,-2.072c0.199,-0.671 0.393,-1.308 0.48,-1.859c0.089,-0.552 0.032,-1.032 -0.113,-1.326c-0.137,-0.3 -0.313,-0.405 -0.303,-0.411c-0.01,0.006 0.17,0.101 0.326,0.4c0.162,0.292 0.243,0.782 0.178,1.349c-0.064,0.569 -0.226,1.207 -0.396,1.897c-0.177,0.686 -0.397,1.411 -0.655,2.124c-0.509,1.428 -1.172,2.8 -1.734,3.793c-0.28,0.496 -0.531,0.902 -0.71,1.183c-0.012,0.018 -0.022,0.032 -0.033,0.051" style="fill:#003bb7;fill-rule:nonzero;"/><path d="M132.586,57.233c0.094,0.057 0.196,0.108 0.305,0.153c0.108,0.047 0.221,0.082 0.341,0.109c0.204,0.044 0.394,0.053 0.569,0.02c0.177,-0.032 0.329,-0.102 0.459,-0.212c0.128,-0.109 0.23,-0.258 0.302,-0.441c0.073,-0.184 0.109,-0.397 0.109,-0.636c-0,-0.156 -0.022,-0.302 -0.058,-0.442c-0.181,0.114 -0.359,0.231 -0.541,0.343c0.002,0.031 0.012,0.055 0.012,0.088c-0,0.135 -0.017,0.26 -0.054,0.369c-0.036,0.108 -0.09,0.199 -0.159,0.269c-0.071,0.07 -0.157,0.118 -0.259,0.146c-0.102,0.026 -0.216,0.029 -0.346,0.008c-0.119,-0.02 -0.221,-0.05 -0.307,-0.092c-0.086,-0.04 -0.159,-0.082 -0.221,-0.122c-0.064,-0.041 -0.119,-0.077 -0.166,-0.11c-0.048,-0.033 -0.09,-0.052 -0.131,-0.057c-0.064,-0.008 -0.115,0.01 -0.153,0.052c-0.059,0.067 -0.12,0.13 -0.18,0.192c0.064,0.062 0.136,0.123 0.216,0.184c0.08,0.063 0.167,0.122 0.262,0.179" style="fill:#003bb7;fill-rule:nonzero;"/><path d="M134.199,53.953c0.124,-0.018 0.212,-0.058 0.264,-0.125c0.054,-0.068 0.081,-0.147 0.081,-0.242l0,-0.286c-0.076,0.014 -0.15,0.033 -0.224,0.048c-0.269,0.229 -0.534,0.465 -0.791,0.708c0.223,-0.034 0.446,-0.072 0.67,-0.103" style="fill:#003bb7;fill-rule:nonzero;"/><path d="M132.991,55.454c0.101,-0.018 0.2,-0.028 0.296,-0.028c0.131,-0.002 0.247,0.014 0.347,0.048c0.099,0.035 0.183,0.087 0.25,0.154c0.059,0.061 0.101,0.14 0.135,0.226c0.135,-0.17 0.272,-0.336 0.421,-0.469c-0.029,-0.041 -0.056,-0.085 -0.09,-0.124c-0.106,-0.115 -0.239,-0.204 -0.395,-0.262c-0.158,-0.058 -0.339,-0.077 -0.545,-0.065c-0.08,0.006 -0.163,0.017 -0.25,0.031c-0.087,0.015 -0.177,0.034 -0.272,0.06c0.053,-0.294 0.107,-0.592 0.159,-0.894c0.051,-0.01 0.102,-0.017 0.152,-0.025c0.094,-0.213 0.217,-0.412 0.358,-0.597c-0.305,0.065 -0.611,0.123 -0.917,0.195c-0.108,0.602 -0.215,1.182 -0.323,1.738c0.123,0.027 0.245,0.056 0.367,0.088c0.104,-0.034 0.206,-0.059 0.307,-0.076" style="fill:#003bb7;fill-rule:nonzero;"/><path d="M5.809,52.896l-2.045,0l-0.67,3.763l-3.094,0l2.183,-12.371l5.241,0c1.294,0 2.217,0.297 2.767,0.893c0.4,0.458 0.601,1.042 0.601,1.752c-0,0.241 -0.024,0.493 -0.069,0.756l-0.343,1.942c-0.172,0.951 -0.676,1.733 -1.513,2.346c-0.836,0.613 -1.855,0.919 -3.058,0.919m0.532,-5.928l-1.546,0l-0.567,3.247l1.529,0c0.939,0 1.483,-0.417 1.633,-1.253l0.119,-0.706c0.023,-0.103 0.035,-0.24 0.035,-0.411c-0,-0.173 -0.086,-0.362 -0.258,-0.568c-0.171,-0.206 -0.487,-0.309 -0.945,-0.309" style="fill:#ed2d24;fill-rule:nonzero;"/><path d="M22.925,56.66l-8.626,-0l2.182,-12.372l8.627,-0l-0.481,2.68l-5.534,-0l-0.395,2.32l4.57,-0l-0.481,2.682l-4.57,-0l-0.344,2.009l5.533,-0l-0.481,2.681Z" style="fill:#ed2d24;fill-rule:nonzero;"/><path d="M35.609,44.288c1.306,-0 2.234,0.286 2.784,0.859c0.413,0.435 0.619,0.985 0.619,1.65c-0,0.229 -0.023,0.47 -0.07,0.721l-0.239,1.341c-0.137,0.744 -0.376,1.345 -0.714,1.804c-0.337,0.459 -0.713,0.785 -1.125,0.979l1.563,5.018l-3.471,-0l-1.443,-4.623l-1.066,-0l-0.704,4.623l-3.299,-0l2.182,-12.372l4.983,-0Zm-1.082,2.68l-1.289,-0l-0.446,2.99l1.202,-0c0.607,-0 1.042,-0.146 1.307,-0.438c0.263,-0.292 0.394,-0.678 0.394,-1.16c-0,-0.928 -0.39,-1.392 -1.168,-1.392" style="fill:#ed2d24;fill-rule:nonzero;"/><path d="M49.55,56.659l0.103,-2.698l-2.869,0l-0.842,2.698l-3.283,0l4.417,-12.372l5.671,0l0.068,12.372l-3.265,0Zm-0.704,-9.365l-1.357,4.365l2.25,0l0.189,-4.365l-1.082,0Z" style="fill:#ed2d24;fill-rule:nonzero;"/><path d="M62.63,53.652l3.265,-9.365l3.351,0l-4.692,12.372l-5.499,0l-0.136,-12.372l3.368,0l-0.052,9.365l0.395,0Z" style="fill:#ed2d24;fill-rule:nonzero;"/><path d="M78.642,44.167c2.76,-0 4.141,1.129 4.141,3.386c-0,0.378 -0.04,0.785 -0.12,1.22l-0.602,3.436c-0.275,1.593 -0.871,2.772 -1.787,3.541c-0.916,0.767 -2.205,1.15 -3.866,1.15c-1.661,-0 -2.818,-0.383 -3.471,-1.15c-0.447,-0.527 -0.671,-1.256 -0.671,-2.183c-0,-0.412 0.047,-0.865 0.138,-1.358l0.602,-3.436c0.539,-3.07 2.416,-4.606 5.636,-4.606m-1.77,10.07c0.573,-0 1.031,-0.148 1.374,-0.447c0.344,-0.298 0.585,-0.848 0.722,-1.649l0.585,-3.3c0.034,-0.228 0.052,-0.435 0.052,-0.618c-0,-0.928 -0.471,-1.392 -1.41,-1.392c-1.18,0.024 -1.884,0.693 -2.114,2.01l-0.583,3.3c-0.047,0.286 -0.07,0.583 -0.07,0.893c-0,0.802 0.481,1.203 1.444,1.203" style="fill:#ed2d24;fill-rule:nonzero;"/><path d="M93.571,44.167c2.76,-0 4.141,1.129 4.141,3.386c-0,0.378 -0.04,0.785 -0.12,1.22l-0.602,3.436c-0.275,1.593 -0.871,2.772 -1.787,3.541c-0.917,0.767 -2.205,1.15 -3.866,1.15c-1.661,-0 -2.818,-0.383 -3.471,-1.15c-0.447,-0.527 -0.671,-1.256 -0.671,-2.183c-0,-0.412 0.047,-0.865 0.138,-1.358l0.602,-3.436c0.538,-3.07 2.416,-4.606 5.636,-4.606m-1.77,10.07c0.573,-0 1.031,-0.148 1.375,-0.447c0.343,-0.298 0.584,-0.848 0.721,-1.649l0.584,-3.3c0.035,-0.228 0.053,-0.435 0.053,-0.618c-0,-0.928 -0.471,-1.392 -1.41,-1.392c-1.18,0.024 -1.884,0.693 -2.113,2.01l-0.584,3.3c-0.047,0.286 -0.07,0.583 -0.07,0.893c-0,0.802 0.481,1.203 1.444,1.203" style="fill:#ed2d24;fill-rule:nonzero;"/><path d="M108.977,44.288c1.306,-0 2.234,0.286 2.784,0.859c0.413,0.435 0.619,0.985 0.619,1.65c-0,0.229 -0.023,0.47 -0.07,0.721l-0.24,1.341c-0.137,0.744 -0.376,1.345 -0.713,1.804c-0.338,0.459 -0.713,0.785 -1.125,0.979l1.563,5.018l-3.471,-0l-1.443,-4.623l-1.066,-0l-0.704,4.623l-3.3,-0l2.183,-12.372l4.983,-0Zm-1.082,2.68l-1.289,-0l-0.446,2.99l1.202,-0c0.607,-0 1.042,-0.146 1.306,-0.438c0.264,-0.292 0.395,-0.678 0.395,-1.16c-0,-0.928 -0.39,-1.392 -1.168,-1.392" style="fill:#ed2d24;fill-rule:nonzero;"/><path d="M5.413,60.432l1.838,5.928l3.953,-5.928l3.248,0l-2.183,12.372l-3.11,0l1.237,-6.976l-2.646,4.158l-2.251,0l-1.168,-4.158l-1.238,6.976l-3.093,0l2.183,-12.372l3.23,0Z" style="fill:#ed2d24;fill-rule:nonzero;"/><path d="M24.237,72.804l0.103,-2.698l-2.869,0l-0.842,2.698l-3.283,0l4.417,-12.372l5.671,0l0.068,12.372l-3.265,0Zm-0.704,-9.365l-1.357,4.365l2.25,0l0.189,-4.365l-1.082,0Z" style="fill:#ed2d24;fill-rule:nonzero;"/><path d="M39.699,60.433c1.306,-0 2.234,0.286 2.784,0.859c0.413,0.435 0.619,0.985 0.619,1.65c-0,0.229 -0.023,0.47 -0.07,0.721l-0.24,1.341c-0.136,0.744 -0.376,1.345 -0.713,1.804c-0.338,0.457 -0.713,0.785 -1.125,0.979l1.563,5.018l-3.471,-0l-1.443,-4.623l-1.066,-0l-0.704,4.623l-3.3,-0l2.183,-12.372l4.983,-0Zm-1.082,2.68l-1.289,-0l-0.446,2.99l1.202,-0c0.607,-0 1.042,-0.146 1.307,-0.438c0.263,-0.292 0.394,-0.678 0.394,-1.16c-0,-0.928 -0.39,-1.392 -1.168,-1.392" style="fill:#ed2d24;fill-rule:nonzero;"/><path d="M53.64,72.804l0.103,-2.698l-2.869,0l-0.842,2.698l-3.283,0l4.417,-12.372l5.671,0l0.068,12.372l-3.265,0Zm-0.704,-9.365l-1.357,4.365l2.25,0l0.189,-4.365l-1.082,0Z" style="fill:#ed2d24;fill-rule:nonzero;"/><path d="M73.495,63.113l-4.226,0l-1.702,9.692l-3.111,0l1.702,-9.692l-4.244,0l0.481,-2.68l11.582,0l-0.482,2.68Z" style="fill:#ed2d24;fill-rule:nonzero;"/><path d="M88.196,60.432l-2.165,12.372l-3.11,0l0.79,-4.468l-3.351,0l-0.772,4.468l-3.111,0l2.181,-12.372l3.094,0l-0.928,5.224l3.351,0l0.927,-5.224l3.094,0Z" style="fill:#ed2d24;fill-rule:nonzero;"/><path d="M98.601,60.312c2.761,-0 4.141,1.129 4.141,3.386c-0,0.378 -0.04,0.785 -0.12,1.22l-0.602,3.436c-0.275,1.593 -0.871,2.772 -1.787,3.541c-0.916,0.767 -2.205,1.15 -3.866,1.15c-1.661,-0 -2.818,-0.383 -3.471,-1.15c-0.447,-0.527 -0.671,-1.256 -0.671,-2.183c-0,-0.412 0.047,-0.865 0.138,-1.358l0.601,-3.436c0.54,-3.07 2.417,-4.606 5.637,-4.606m-1.77,10.07c0.573,-0 1.031,-0.148 1.375,-0.447c0.343,-0.298 0.584,-0.848 0.721,-1.649l0.585,-3.3c0.034,-0.228 0.052,-0.435 0.052,-0.618c-0,-0.928 -0.471,-1.392 -1.41,-1.392c-1.18,0.024 -1.884,0.693 -2.114,2.01l-0.583,3.3c-0.047,0.286 -0.07,0.583 -0.07,0.893c-0,0.802 0.481,1.203 1.444,1.203" style="fill:#ed2d24;fill-rule:nonzero;"/><path d="M118.561,60.432l-2.165,12.372l-3.11,0l-2.165,-6.77l-1.168,6.77l-3.111,0l2.182,-12.372l3.196,0l2.131,6.324l1.116,-6.324l3.094,0Z" style="fill:#ed2d24;fill-rule:nonzero;"/><path d="M104.228,30.888l-57.836,-0.811l55.448,-0.778c0.101,0.087 0.21,0.172 0.327,0.255c0.522,0.368 1.086,0.68 1.676,0.929l0.104,0.044l0.097,0.124c0.059,0.077 0.12,0.156 0.184,0.237" style="fill:#aaa;fill-rule:nonzero;"/><path d="M106.982,33.26c0.196,0.367 0.393,0.724 0.593,1.073l-75.749,-0.919l73.987,-0.897c0.043,0.032 0.084,0.063 0.127,0.095c0.277,0.198 0.535,0.351 0.796,0.502c0.078,0.045 0.175,0.102 0.246,0.146" style="fill:#aaa;fill-rule:nonzero;"/><path d="M108.445,35.778c0.435,0.685 0.883,1.337 1.348,1.962l-92.535,-0.988l91.187,-0.974Z" style="fill:#aaa;fill-rule:nonzero;"/><path d="M112.751,41.143l-111.225,-1.053l109.302,-1.035c0.606,0.726 1.244,1.419 1.923,2.088" style="fill:#aaa;fill-rule:nonzero;"/><path d="M134.417,103.595c0.046,0.155 0.091,0.31 0.132,0.464c-0.099,0.198 -0.18,0.407 -0.239,0.623l-38.72,-0.543l38.827,-0.544Z" style="fill:#aaa;fill-rule:nonzero;"/><path d="M134.452,106.319c0.034,0.156 0.066,0.31 0.097,0.464c-0.074,0.199 -0.132,0.407 -0.176,0.623l-28.499,-0.543l28.578,-0.544Z" style="fill:#aaa;fill-rule:nonzero;"/><path d="M133.14,100.17c0.178,0.422 0.354,0.845 0.522,1.27l-52.639,-0.638l52.117,-0.632Z" style="fill:#aaa;fill-rule:nonzero;"/><path d="M131.69,96.766c0.194,0.476 0.392,0.943 0.588,1.4l-65.821,-0.703l65.233,-0.697Z" style="fill:#aaa;fill-rule:nonzero;"/><path d="M130.488,93.37c0.146,0.513 0.31,1.018 0.484,1.515l-80.247,-0.76l79.763,-0.755Z" style="fill:#aaa;fill-rule:nonzero;"/><path d="M63.222,81.165c0.651,-2.866 3.217,-3.816 5.627,-3.816c2.374,0 4.326,1.056 4.326,3.288c0,3.412 -2.427,4.503 -5.68,4.503c-1.037,0 -2.55,0.121 -2.831,1.67l-0.089,0.474l7.369,0l-0.44,2.532l-9.952,0c0.175,-1.002 0.351,-2.004 0.526,-3.024c0.581,-3.306 3.413,-4.044 5.839,-4.044c0.897,0 2.286,-0.264 2.497,-1.477c0.175,-1.02 -0.58,-1.582 -1.969,-1.582c-1.108,0 -2.339,0.474 -2.585,1.476l-2.638,0Z" style="fill:#003bb7;fill-rule:nonzero;"/><path d="M75.723,82.748c0.651,-3.852 3.465,-5.628 6.453,-5.628c2.989,0 5.118,1.864 4.484,5.628l-0.298,1.776c-0.633,3.762 -3.447,5.645 -6.33,5.645c-2.885,0 -5.259,-1.759 -4.608,-5.628l0.299,-1.793Zm2.392,1.793c-0.423,2.163 0.545,3.2 2.127,3.2c1.583,0 2.955,-1.037 3.376,-3.2l0.37,-1.776c0.404,-2.092 -0.545,-3.147 -2.111,-3.147c-1.564,0 -2.989,0.984 -3.393,3.147l-0.369,1.776Z" style="fill:#003bb7;fill-rule:nonzero;"/><path d="M89.912,81.165c0.651,-2.866 3.218,-3.816 5.628,-3.816c2.373,0 4.325,1.056 4.325,3.288c-0,3.412 -2.427,4.503 -5.68,4.503c-1.037,0 -2.549,0.121 -2.831,1.67l-0.088,0.474l7.368,0l-0.44,2.532l-9.952,0c0.175,-1.002 0.351,-2.004 0.526,-3.024c0.581,-3.306 3.413,-4.044 5.839,-4.044c0.897,0 2.286,-0.264 2.497,-1.477c0.176,-1.02 -0.58,-1.582 -1.969,-1.582c-1.108,0 -2.338,0.474 -2.585,1.476l-2.638,0Z" style="fill:#003bb7;fill-rule:nonzero;"/><path d="M112.155,79.987l-6.542,0l-0.334,1.935l2.233,0c2.639,0 4.626,0.843 4.292,4.008c-0.317,3.042 -3.394,4.046 -5.646,4.046c-2.848,0 -4.835,-1.038 -4.343,-3.958l2.673,0c-0.193,1.267 1.037,1.53 2.058,1.53c0.72,0 2.567,-0.281 2.567,-1.916c-0,-1.144 -1.266,-1.39 -2.022,-1.39l-4.713,0c0.404,-2.303 0.774,-4.396 1.178,-6.716l9.021,0l-0.422,2.461Z" style="fill:#003bb7;fill-rule:nonzero;"/><rect x="0.001" y="0" width="66.049" height="27.701" style="fill:#ed2d24;"/><path d="M39.928,10.03c0.32,-0 0.57,0.284 0.807,0.464l0.188,0.17c0.111,0.112 0.255,0.233 0.36,0.339l0.211,0.196c0.024,0.02 0.041,0.037 0.064,0.058l0.473,0.511c-1.785,2.42 -3.191,-1.738 -2.103,-1.738m6.916,-3.739c0.036,0.053 0.025,0.197 0.025,0.275c0,0.397 -0.215,1.034 -0.361,1.382c-0.09,0.214 -0.146,0.316 -0.243,0.513l-0.079,0.143c-0.071,0.127 -0.214,0.351 -0.301,0.47l-0.239,0.304l-0.382,0.382c-0.013,0.013 -0.012,0.011 -0.027,0.023l-0.153,0.118c-0.318,0.225 -0.619,0.338 -1.017,0.405c-0.122,0.02 -0.269,0.038 -0.404,0.038c0.37,-0.564 2.636,-5.154 3.181,-4.053m-8.885,1.759c0.05,0.236 0.112,0.475 0.179,0.706c0.089,0.307 0.184,0.591 0.293,0.878c0.107,0.28 0.226,0.554 0.359,0.82c0.08,0.16 0.163,0.321 0.252,0.476c0.373,0.647 1.239,1.942 2.036,1.942c0.177,-0 0.3,-0.04 0.45,-0.114c0.032,-0.016 0.049,-0.029 0.08,-0.047c0.028,-0.017 0.053,-0.033 0.078,-0.052c0.051,-0.038 0.101,-0.073 0.15,-0.113c0.158,-0.131 0.358,-0.311 0.494,-0.471c0.014,-0.017 0.021,-0.02 0.033,-0.038c0.03,0.02 0.059,0.045 0.088,0.069c0.288,0.235 0.628,0.457 0.969,0.609c0.223,0.1 0.419,0.158 0.61,0.165l0.079,-0c0.212,-0.008 0.419,-0.081 0.652,-0.23c0.133,-0.086 0.248,-0.182 0.368,-0.282c0.017,-0.015 0.022,-0.016 0.039,-0.033c0.085,-0.084 0.22,-0.195 0.287,-0.284c0.023,-0.03 0.05,-0.049 0.073,-0.077l0.1,-0.114c0.014,-0.015 0.018,-0.023 0.032,-0.039l0.066,-0.078c0.191,-0.242 0.378,-0.488 0.542,-0.75c0.131,-0.21 0.252,-0.422 0.363,-0.644c0.305,-0.608 0.58,-1.66 0.699,-2.322c0.031,-0.169 0.053,-0.325 0.077,-0.502c0.018,-0.136 0.034,-0.29 0.041,-0.448l0,-0.316c-0.012,-0.247 -0.054,-0.487 -0.15,-0.681c-0.783,-1.58 -3.575,3.335 -3.993,3.899c-0.02,0.026 -0.033,0.048 -0.053,0.075c-0.205,0.272 -0.386,0.02 -0.571,-0.142c-0.107,-0.084 -0.349,-0.354 -0.455,-0.473l-0.098,-0.116c-0.104,-0.133 -0.218,-0.26 -0.322,-0.393l-0.375,-0.481c-0.244,-0.326 -0.547,-0.722 -0.813,-1.038l-0.099,-0.115c-0.146,-0.163 -0.29,-0.327 -0.447,-0.482c-0.059,-0.058 -0.113,-0.125 -0.178,-0.179c-0.013,-0.011 -0.023,-0.022 -0.036,-0.035l-0.374,-0.339c-0.128,-0.112 -0.265,-0.216 -0.41,-0.305c-0.174,-0.106 -0.402,-0.24 -0.617,-0.24l-0.007,-0c-0.136,0.001 -0.242,0.015 -0.352,0.084c-0.23,0.146 -0.327,0.463 -0.327,0.759c0,0.436 0.023,0.575 0.093,1l0.095,0.491Z" style="fill:#191a18;fill-rule:nonzero;"/><path d="M9.368,14.312c0.036,-0.52 0.086,-0.981 0.154,-1.381c0.032,-0.171 0.063,-0.335 0.099,-0.494c0.037,-0.16 0.082,-0.303 0.132,-0.43c0.049,-0.127 0.108,-0.221 0.172,-0.293c0.063,-0.073 0.136,-0.102 0.213,-0.087c0.095,0.015 0.163,0.063 0.203,0.144c0.041,0.081 0.054,0.185 0.045,0.306c-0.008,0.121 -0.031,0.252 -0.072,0.39c-0.041,0.137 -0.086,0.269 -0.14,0.396c-0.077,0.177 -0.164,0.353 -0.254,0.525c-0.09,0.171 -0.176,0.332 -0.262,0.47c-0.095,0.161 -0.195,0.316 -0.29,0.454m8.564,-0.931c-0.008,-0.011 -0.017,-0.02 -0.026,-0.031c-0.002,-0.002 -0.005,-0.006 -0.005,-0.006l-0.001,0.001c-0.041,-0.047 -0.09,-0.085 -0.15,-0.111c-0.073,-0.024 -0.144,-0.004 -0.223,0.07c-0.079,0.073 -0.157,0.173 -0.236,0.305c-0.078,0.132 -0.157,0.284 -0.235,0.462c-0.079,0.178 -0.151,0.356 -0.21,0.541c-0.157,0.467 -0.278,1.1 -0.383,1.698c-0.105,0.598 -0.196,1.176 -0.275,1.747c-0.025,0.182 -0.049,0.357 -0.072,0.528c-0.02,0.144 -0.039,0.284 -0.057,0.42c-0.012,0.073 -0.023,0.139 -0.035,0.202c-0.038,0.208 -0.1,0.49 -0.177,0.659c-0.003,0.005 -0.006,0.012 -0.008,0.017c-0.008,0.017 -0.017,0.033 -0.025,0.047c-0.089,0.152 -0.153,0.092 -0.153,0.092c-0.141,-0.057 -0.256,-0.43 -0.343,-0.85c-0.006,-0.027 -0.011,-0.055 -0.017,-0.082c-0.052,-0.269 -0.093,-0.55 -0.123,-0.774l0.004,0.006c-0.199,-2.236 -0.738,-3.155 -1.153,-3.533c-0.04,-0.037 -0.071,-0.062 -0.101,-0.084l0.005,0c-0.007,-0.004 -0.012,-0.006 -0.018,-0.009c-0.037,-0.025 -0.077,-0.045 -0.13,-0.067c-0.097,-0.047 -0.189,-0.08 -0.277,-0.101c-0.002,-0.002 -0.006,-0.004 -0.006,-0.004l0.001,0.002c-0.282,-0.067 -0.517,-0.021 -0.704,0.07c-0.055,0.023 -0.109,0.05 -0.157,0.084c-0.072,0.051 -0.139,0.114 -0.202,0.185c-0.107,0.114 -0.162,0.21 -0.162,0.21l-0.001,0.007c-0.074,0.115 -0.144,0.245 -0.211,0.387c-0.164,0.35 -0.314,0.752 -0.439,1.206c-0.113,0.414 -0.226,0.821 -0.34,1.218c-0,0 -0.044,0.167 -0.106,0.403c-0.048,0.166 -0.097,0.362 -0.137,0.529c-0.06,0.233 -0.121,0.471 -0.168,0.662c-0.219,0.587 -0.505,0.187 -0.594,-0.072c-0.039,-0.111 -0.124,-0.509 -0.124,-0.509c-0.079,-0.452 -0.152,-0.898 -0.213,-1.338c-0.06,-0.439 -0.122,-0.708 -0.176,-1.16c-0.026,-0.209 -0.052,-0.465 -0.079,-0.729c0.005,-0.027 0.01,-0.056 0.016,-0.082c0.285,-0.207 0.554,-0.471 0.805,-0.797c0.211,-0.275 0.415,-0.619 0.608,-1.045c0.193,-0.426 0.333,-0.927 0.409,-1.509c0.052,-0.437 0.035,-0.783 -0.058,-1.034c-0.094,-0.251 -0.211,-0.432 -0.351,-0.549c-0.164,-0.142 -0.362,-0.221 -0.596,-0.243c-0.356,0.006 -0.665,0.088 -0.928,0.237c-0.263,0.15 -0.479,0.356 -0.66,0.611c-0.181,0.256 -0.321,0.548 -0.432,0.885c-0.112,0.336 -0.135,0.277 -0.272,1.113c-0.137,0.836 -0.119,2.06 -0.119,2.06c-0.013,0.015 -0.11,0.073 -0.123,0.086c-0.053,0.045 -0.123,0.09 -0.211,0.142c-0.088,0.052 -0.204,0.099 -0.362,0.146c-0.14,0.046 -0.245,0.105 -0.315,0.182c-0.07,0.076 -0.105,0.152 -0.112,0.229c-0.005,0.076 0.03,0.144 0.095,0.213c0.063,0.068 0.168,0.104 0.308,0.108c0.159,0.016 0.275,0.021 0.357,0.013c0.082,-0.008 0.14,-0.016 0.181,-0.022c0.046,-0.008 0.178,-0.075 0.195,-0.095c0.058,0.453 0.093,0.827 0.145,1.318c0.029,0.202 0.06,0.41 0.093,0.627c0.068,0.439 0.159,0.865 0.261,1.284c0.104,0.419 0.226,0.812 0.366,1.177c0.14,0.365 0.299,0.665 0.481,0.905c0.182,0.241 0.383,0.394 0.602,0.476c0.219,0.082 0.469,0.044 0.742,-0.111c0.213,-0.129 0.383,-0.316 0.518,-0.561c0.133,-0.246 0.242,-0.517 0.328,-0.808c0.085,-0.291 0.153,-0.581 0.207,-0.878c0.027,-0.145 0.052,-0.28 0.077,-0.408c0.057,-0.29 0.109,-0.543 0.16,-0.769c0.007,-0.038 0.016,-0.084 0.026,-0.134c0.053,-0.209 0.111,-0.43 0.174,-0.676c0.013,-0.047 0.027,-0.094 0.039,-0.141c0.022,-0.08 0.045,-0.162 0.069,-0.246c0.072,-0.257 0.151,-0.514 0.229,-0.777c0.079,-0.263 0.151,-0.494 0.223,-0.698c0.072,-0.204 0.131,-0.362 0.183,-0.481c0.053,-0.119 0.118,-0.041 0.138,-0.016c0.15,0.293 0.222,0.749 0.281,1.174c0.059,0.425 0.118,0.87 0.164,1.347c0.046,0.478 0.111,0.955 0.184,1.439c0.044,0.301 0.102,0.61 0.181,0.902c0.074,0.234 0.257,0.714 0.588,1.075c0.015,0.015 0.028,0.03 0.044,0.046c0.149,0.142 0.267,0.245 0.478,0.356c0.173,0.085 0.688,0.296 1.216,0.048l-0.001,0.002c0.005,-0.002 0.008,-0.005 0.012,-0.007c0.081,-0.038 0.161,-0.091 0.241,-0.153c0.114,-0.103 0.496,-0.493 0.774,-1.3c0.002,-0.004 0.003,-0.009 0.005,-0.014c0.018,-0.053 0.036,-0.108 0.053,-0.164c0.015,-0.05 0.028,-0.1 0.042,-0.151c0.005,-0.017 0.01,-0.034 0.014,-0.052c0.006,-0.022 0.012,-0.04 0.017,-0.06c0.229,-0.899 0.281,-1.826 0.291,-2.148c0.068,-0.728 0.101,-1.389 0.12,-2.105c0.015,-0.591 0.185,-1.665 0.174,-1.881c-0.002,-0.184 -0.086,-0.321 -0.132,-0.384" style="fill:#191a18;fill-rule:nonzero;"/><path d="M49.824,17.96c-0.201,1.026 -1.091,2.815 -2.352,3.236c-0.325,0.105 -0.55,0.094 -0.673,-0.033c-0.123,-0.127 -0.175,-0.326 -0.168,-0.588c0.008,-0.263 0.074,-0.575 0.187,-0.925c0.112,-0.35 0.248,-0.696 0.403,-1.032c0.156,-0.337 0.311,-0.645 0.467,-0.925c0.155,-0.279 0.296,-0.467 0.379,-0.593c0.08,-0.122 0.309,-0.393 0.425,-0.542c0.114,-0.146 0.247,-0.266 0.377,-0.388c0.257,-0.215 0.638,-0.389 0.902,0.156c0.009,0.023 0.019,0.044 0.027,0.069c0.069,0.204 0.105,0.437 0.11,0.704c0.006,0.268 -0.024,0.554 -0.084,0.861m0.464,-2.858c-0.251,-0.011 -0.795,0.001 -1.139,0.111c-0.28,0.09 -0.461,0.149 -0.786,0.374c-0.238,0.165 -0.426,0.332 -0.57,0.512c-0.328,0.395 -0.64,0.84 -0.934,1.337c-0.294,0.499 -0.527,1.001 -0.695,1.502c-0.167,0.5 -0.252,0.986 -0.244,1.444c0.008,0.459 0.145,0.857 0.421,1.187c0.141,0.181 0.335,0.307 0.581,0.376c0.246,0.071 0.511,0.086 0.792,0.052c3.092,-0.375 4.838,-6.798 2.574,-6.895" style="fill:#191a18;fill-rule:nonzero;"/><path d="M25.027,20.748c-0.05,-0.025 -0.107,-0.011 -0.163,0.04c-0.057,0.051 -0.126,0.109 -0.208,0.174c-0.081,0.063 -0.182,0.122 -0.301,0.168c-0.12,0.045 -0.277,0.054 -0.459,0.026c-0.132,-0.024 -0.258,-0.097 -0.378,-0.227c-0.119,-0.13 -0.22,-0.298 -0.301,-0.511c-0.082,-0.212 -0.151,-0.463 -0.195,-0.745c-0.044,-0.283 -0.063,-0.596 -0.044,-0.942c0.019,-0.335 -0.012,-0.573 -0.082,-0.71c-0.069,-0.137 -0.163,-0.218 -0.282,-0.24c-0.12,-0.024 -0.239,-0.016 -0.371,0.018c-0.133,0.033 -0.239,0.06 -0.334,0.068c-0.094,0.007 -0.157,0.072 -0.194,0.192c-0.038,0.12 -0.063,0.259 -0.076,0.416c-0.012,0.157 -0.012,0.321 -0.006,0.484c0.006,0.164 0.012,0.29 0.012,0.384c0,0.094 -0.037,0.227 -0.113,0.398c-0.075,0.171 -0.17,0.343 -0.289,0.507c-0.119,0.166 -0.251,0.313 -0.395,0.441c-0.145,0.128 -0.29,0.193 -0.422,0.195c-0.107,0.002 -0.201,-0.11 -0.27,-0.328c-0.069,-0.219 -0.107,-0.483 -0.113,-0.791c-0.006,-0.308 0.025,-0.63 0.094,-0.964c0.069,-0.334 0.182,-0.625 0.352,-0.873c0.107,-0.153 0.245,-0.275 0.402,-0.372c0.157,-0.096 0.315,-0.181 0.465,-0.258c0.151,-0.079 0.283,-0.157 0.403,-0.228c0.119,-0.07 0.188,-0.166 0.213,-0.273c0.019,-0.07 -0.037,-0.119 -0.157,-0.155c-0.12,-0.036 -0.283,-0.045 -0.478,-0.036c-0.194,0.01 -0.421,0.051 -0.666,0.117c-0.245,0.067 -0.496,0.172 -0.741,0.314c-0.245,0.142 -0.478,0.322 -0.698,0.546c-0.22,0.223 -0.396,0.491 -0.528,0.801c-0.201,0.481 -0.295,0.935 -0.283,1.369c0.013,0.434 0.095,0.81 0.251,1.134c0.158,0.325 0.365,0.579 0.623,0.77c0.257,0.191 0.534,0.275 0.829,0.264c0.296,-0.024 0.541,-0.091 0.743,-0.207c0.2,-0.117 0.364,-0.245 0.489,-0.38c0.151,-0.153 0.271,-0.331 0.352,-0.533c0.12,0.268 0.271,0.499 0.466,0.697c0.169,0.167 0.383,0.307 0.647,0.43c0.264,0.122 0.584,0.147 0.962,0.072c0.251,-0.035 0.471,-0.121 0.653,-0.249c0.182,-0.129 0.327,-0.263 0.434,-0.403c0.107,-0.14 0.17,-0.267 0.201,-0.387c0.031,-0.12 0.013,-0.189 -0.044,-0.213" style="fill:#191a18;fill-rule:nonzero;"/><path d="M32.872,17.616c-0.119,0.172 -0.239,0.294 -0.358,0.377c-0.12,0.083 -0.226,0.136 -0.321,0.162c-0.107,0.033 -0.22,0.048 -0.327,0.031c0.026,-0.252 0.088,-0.492 0.189,-0.721c0.101,-0.227 0.214,-0.424 0.346,-0.59c0.131,-0.166 0.264,-0.287 0.402,-0.371c0.138,-0.084 0.251,-0.098 0.346,-0.049c0.094,0.042 0.125,0.167 0.1,0.375c-0.025,0.208 -0.15,0.475 -0.377,0.786m-6.11,-2.682c0.045,-0.196 0.088,-0.385 0.139,-0.568c0.05,-0.183 0.113,-0.348 0.182,-0.493c0.069,-0.146 0.151,-0.254 0.239,-0.337c0.088,-0.084 0.188,-0.117 0.295,-0.099c0.132,0.016 0.226,0.072 0.283,0.165c0.057,0.093 0.076,0.213 0.063,0.351c-0.013,0.138 -0.044,0.29 -0.101,0.448c-0.056,0.158 -0.119,0.31 -0.195,0.456c-0.106,0.203 -0.226,0.406 -0.351,0.603c-0.126,0.197 -0.246,0.381 -0.365,0.54c-0.132,0.185 -0.27,0.363 -0.402,0.522c0.05,-0.598 0.119,-1.127 0.213,-1.588m15.551,5.537c-0.05,-0.024 -0.107,-0.011 -0.164,0.04c-0.056,0.052 -0.126,0.109 -0.208,0.173c-0.081,0.065 -0.181,0.123 -0.301,0.169c-0.12,0.045 -0.276,0.055 -0.459,0.026c-0.132,-0.023 -0.257,-0.097 -0.377,-0.227c-0.12,-0.13 -0.22,-0.298 -0.301,-0.511c-0.082,-0.212 -0.152,-0.463 -0.195,-0.745c-0.044,-0.282 -0.063,-0.596 -0.044,-0.943c0.018,-0.333 -0.013,-0.572 -0.082,-0.709c-0.069,-0.137 -0.163,-0.217 -0.283,-0.241c-0.119,-0.022 -0.239,-0.014 -0.371,0.019c-0.132,0.033 -0.239,0.06 -0.333,0.068c-0.094,0.008 -0.157,0.072 -0.195,0.192c-0.038,0.12 -0.063,0.259 -0.075,0.416c-0.013,0.158 -0.013,0.321 -0.006,0.485c0.006,0.163 0.012,0.289 0.012,0.383c-0,0.094 -0.038,0.227 -0.113,0.398c-0.075,0.171 -0.17,0.342 -0.289,0.508c-0.12,0.165 -0.252,0.312 -0.396,0.44c-0.145,0.128 -0.289,0.194 -0.421,0.196c-0.107,0.002 -0.201,-0.11 -0.27,-0.329c-0.07,-0.22 -0.108,-0.483 -0.114,-0.791c-0.006,-0.308 0.026,-0.63 0.094,-0.964c0.07,-0.334 0.183,-0.625 0.353,-0.873c0.107,-0.153 0.245,-0.275 0.402,-0.371c0.157,-0.097 0.314,-0.182 0.465,-0.259c0.151,-0.079 0.283,-0.156 0.402,-0.227c0.12,-0.071 0.189,-0.167 0.214,-0.274c0.019,-0.069 -0.038,-0.119 -0.157,-0.154c-0.12,-0.036 -0.283,-0.046 -0.478,-0.037c-0.195,0.009 -0.422,0.051 -0.666,0.118c-0.245,0.066 -0.496,0.171 -0.742,0.313c-0.245,0.143 -0.477,0.322 -0.697,0.546c-0.221,0.224 -0.397,0.49 -0.529,0.801c-0.2,0.481 -0.295,0.935 -0.282,1.369c0.002,0.082 0.009,0.159 0.016,0.236c-0.013,0.006 -0.027,0.013 -0.042,0.022c-0.081,0.052 -0.176,0.122 -0.288,0.206c-0.114,0.084 -0.239,0.18 -0.372,0.277c-0.132,0.096 -0.27,0.18 -0.414,0.251c-0.145,0.072 -0.289,0.112 -0.434,0.121c-0.144,0.008 -0.289,-0.034 -0.421,-0.132c-0.132,-0.092 -0.252,-0.216 -0.352,-0.372c-0.101,-0.155 -0.182,-0.317 -0.245,-0.474c-0.062,-0.156 -0.107,-0.294 -0.132,-0.413c-0.025,-0.118 -0.025,-0.182 -0,-0.188c0.251,-0.111 0.471,-0.291 0.66,-0.527c0.189,-0.235 0.327,-0.502 0.421,-0.792c0.094,-0.291 0.126,-0.587 0.094,-0.888c-0.031,-0.302 -0.131,-0.577 -0.307,-0.826c-0.183,-0.249 -0.384,-0.396 -0.598,-0.45c-0.214,-0.052 -0.421,-0.043 -0.622,0.017c-0.201,0.059 -0.39,0.157 -0.56,0.279c-0.169,0.123 -0.301,0.238 -0.395,0.34c-0.233,0.249 -0.403,0.465 -0.509,0.662c-0.099,0.18 -0.174,0.342 -0.239,0.491l0.107,-1.734c0.245,-0.425 0.421,-0.83 0.527,-1.228c0.05,-0.158 0.089,-0.329 0.107,-0.505c0.019,-0.176 0.019,-0.346 -0.006,-0.504c-0.025,-0.156 -0.082,-0.306 -0.17,-0.443c-0.088,-0.137 -0.213,-0.248 -0.371,-0.34c-0.32,-0.171 -0.584,-0.148 -0.792,0.07c-0.207,0.217 -0.314,0.659 -0.314,1.331c-0,0.296 -0.013,0.542 -0.031,0.737c-0.019,0.195 -0.051,0.359 -0.082,0.491c-0.031,0.133 -0.063,0.234 -0.095,0.31c-0.031,0.076 -0.049,0.139 -0.068,0.19c-0.095,0.278 -0.201,0.513 -0.327,0.703c-0.126,0.191 -0.239,0.35 -0.346,0.477c-0.107,0.128 -0.182,0.236 -0.239,0.325c-0.057,0.089 -0.057,0.171 -0.006,0.245c0.056,0.1 0.132,0.143 0.214,0.136c0.081,-0.008 0.163,-0.035 0.238,-0.08c0.076,-0.045 0.139,-0.09 0.195,-0.148c0.057,-0.058 0.089,-0.083 0.094,-0.083c0.026,-0.007 0.038,0.087 0.045,0.295c0.006,0.207 0.006,0.471 -0,0.792c-0.007,0.321 -0.007,0.68 -0.013,1.064c-0.005,0.343 -0.006,0.675 -0.006,0.999c-0.033,0.034 -0.064,0.067 -0.101,0.102c-0.126,0.122 -0.264,0.237 -0.409,0.334c-0.144,0.097 -0.301,0.181 -0.465,0.24c-0.163,0.06 -0.326,0.087 -0.484,0.071c-0.156,-0.017 -0.314,-0.077 -0.465,-0.187c-0.15,-0.112 -0.289,-0.292 -0.415,-0.541c-0.207,-0.418 -0.352,-0.787 -0.427,-1.119c-0.076,-0.332 -0.119,-0.614 -0.138,-0.859c-0.019,-0.277 0.006,-0.529 0.062,-0.756c0.308,-0.206 0.598,-0.469 0.868,-0.794c0.226,-0.274 0.446,-0.617 0.654,-1.042c0.207,-0.424 0.358,-0.923 0.44,-1.503c0.056,-0.435 0.037,-0.781 -0.063,-1.031c-0.101,-0.25 -0.226,-0.43 -0.377,-0.547c-0.176,-0.142 -0.39,-0.22 -0.642,-0.241c-0.383,0.006 -0.716,0.086 -0.999,0.235c-0.283,0.15 -0.515,0.355 -0.71,0.609c-0.195,0.255 -0.346,0.547 -0.465,0.882c-0.12,0.335 -0.207,0.689 -0.264,1.067c-0.057,0.378 -0.101,0.693 -0.119,0.952c-0.02,0.258 -0.039,0.466 -0.045,0.623c-0.006,0.183 -0.006,0.334 0.013,0.44c-0.032,0.057 -0.082,0.114 -0.138,0.166c-0.057,0.045 -0.132,0.09 -0.227,0.142c-0.094,0.052 -0.22,0.098 -0.389,0.144c-0.151,0.047 -0.264,0.105 -0.34,0.182c-0.075,0.077 -0.113,0.153 -0.119,0.228c-0.007,0.076 0.031,0.145 0.1,0.212c0.07,0.069 0.183,0.104 0.334,0.108c0.169,0.016 0.295,0.021 0.383,0.014c0.088,-0.009 0.15,-0.016 0.195,-0.023c0.05,-0.007 0.081,-0.02 0.101,-0.039c0.093,0.696 0.251,1.316 0.477,1.866c0.101,0.231 0.22,0.462 0.352,0.692c0.132,0.231 0.295,0.43 0.478,0.609c0.182,0.18 0.396,0.327 0.635,0.443c0.238,0.116 0.508,0.18 0.81,0.182c0.233,0.015 0.453,-0.007 0.654,-0.061c0.201,-0.053 0.384,-0.126 0.547,-0.216c0.163,-0.091 0.314,-0.194 0.446,-0.315c0.103,-0.095 0.194,-0.19 0.279,-0.287c0.001,0.025 0.002,0.051 0.004,0.074c0.019,0.27 0.05,0.453 0.094,0.546c0.045,0.094 0.126,0.149 0.259,0.166c0.131,0.017 0.269,0.002 0.42,-0.045c0.151,-0.046 0.289,-0.13 0.421,-0.245c0.133,-0.116 0.214,-0.262 0.258,-0.438c0.025,-0.083 0.045,-0.196 0.057,-0.342c0.012,-0.144 0.019,-0.289 0.025,-0.44c0.006,-0.151 0.006,-0.296 0.013,-0.427c0.006,-0.133 0.006,-0.233 0.006,-0.29c0.006,-0.132 0.019,-0.233 0.031,-0.296c0.013,-0.063 0.031,-0.108 0.063,-0.14c0.031,-0.031 0.069,-0.051 0.113,-0.064c0.044,-0.014 0.113,-0.039 0.195,-0.073c0.019,-0.006 0.037,0.05 0.069,0.169c0.032,0.119 0.069,0.276 0.126,0.457c0.056,0.182 0.126,0.388 0.22,0.607c0.094,0.218 0.208,0.431 0.352,0.623c0.145,0.193 0.314,0.36 0.516,0.495c0.201,0.135 0.445,0.207 0.728,0.221c0.258,0.014 0.503,-0.027 0.729,-0.118c0.226,-0.092 0.434,-0.215 0.616,-0.363c0.183,-0.147 0.346,-0.32 0.491,-0.504c0.144,-0.185 0.251,-0.363 0.332,-0.534c0.021,-0.043 0.032,-0.081 0.048,-0.122c0.033,0.103 0.071,0.202 0.116,0.296c0.157,0.324 0.365,0.578 0.622,0.769c0.258,0.191 0.534,0.275 0.83,0.264c0.295,-0.024 0.54,-0.091 0.742,-0.207c0.201,-0.116 0.364,-0.245 0.49,-0.379c0.151,-0.154 0.27,-0.331 0.352,-0.534c0.119,0.268 0.27,0.499 0.465,0.697c0.17,0.167 0.384,0.308 0.647,0.43c0.264,0.121 0.585,0.147 0.962,0.072c0.251,-0.035 0.472,-0.12 0.654,-0.249c0.182,-0.129 0.326,-0.263 0.433,-0.403c0.108,-0.14 0.17,-0.267 0.202,-0.387c0.031,-0.12 0.012,-0.189 -0.044,-0.213" style="fill:#191a18;fill-rule:nonzero;"/><path d="M55.875,19.756c-0.351,0.299 -0.678,0.519 -1.011,0.598c-0.278,0.065 -0.515,-0.038 -0.68,-0.226c-0.916,-1.043 -1.009,-3.219 -0.851,-4.447c0.076,-0.6 0.202,-1.207 0.373,-1.812c0.172,-0.604 0.388,-1.128 0.661,-1.551c0.272,-0.423 0.586,-0.721 0.955,-0.875c0.368,-0.154 0.799,-0.083 1.289,0.215c0.362,0.224 0.647,0.518 0.851,0.874c0.205,0.355 0.353,0.742 0.438,1.158c0.085,0.416 0.13,0.841 0.117,1.271c-0.054,1.9 -0.602,3.486 -2.142,4.795m0.946,-9.894c-2.364,-0.139 -4.325,2.588 -5.105,5.987c-0.53,2.312 0.298,5.656 2.481,5.792c2.77,0.174 5.119,-2.932 5.759,-4.69c1.228,-3.373 0.247,-6.89 -3.135,-7.089" style="fill:#191a18;fill-rule:nonzero;"/><path d="M46.67,16.555c0.123,-0.096 0.224,-0.199 0.296,-0.308c0.072,-0.11 0.109,-0.205 0.116,-0.298c0.007,-0.094 -0.029,-0.151 -0.109,-0.179c-0.31,-0.082 -0.613,-0.07 -0.923,0.029c-0.311,0.099 -0.586,0.234 -0.838,0.389c-0.289,0.178 -0.57,0.399 -0.838,0.663c-0.05,-0.114 -0.123,-0.25 -0.216,-0.4c-0.08,-0.122 -0.181,-0.272 -0.304,-0.436c-0.122,-0.164 -0.281,-0.342 -0.476,-0.535c-0.231,-0.22 -0.484,-0.331 -0.75,-0.348c-0.268,-0.018 -0.52,0.016 -0.759,0.084c-0.238,0.069 -0.433,0.166 -0.592,0.276c-0.159,0.112 -0.238,0.192 -0.238,0.228c0.008,0.087 0.044,0.137 0.101,0.158c0.058,0.02 0.131,0.027 0.224,0.032c0.094,0.006 0.188,0.012 0.296,0.025c0.108,0.012 0.209,0.047 0.318,0.103c0.252,0.133 0.433,0.47 0.548,1.024c0.116,0.554 0.167,1.355 0.145,2.403c-0,0.831 0.086,1.414 0.26,1.758c0.173,0.345 0.44,0.506 0.794,0.479c0.31,-0.027 0.555,-0.19 0.736,-0.496c0.181,-0.306 0.267,-0.77 0.261,-1.398c-0,-0.296 0.013,-0.607 0.043,-0.932c0.029,-0.326 0.093,-0.63 0.201,-0.914c0.109,-0.284 0.26,-0.539 0.455,-0.751c0.195,-0.213 0.462,-0.362 0.802,-0.447c0.173,-0.039 0.325,-0.114 0.447,-0.209" style="fill:#191a18;fill-rule:nonzero;"/><path d="M39.713,9.933c0.32,0 0.57,0.284 0.807,0.464l0.188,0.17c0.111,0.112 0.255,0.233 0.36,0.339l0.211,0.196c0.024,0.021 0.041,0.037 0.064,0.058l0.473,0.511c-1.785,2.42 -3.191,-1.738 -2.103,-1.738m6.916,-3.739c0.036,0.053 0.025,0.197 0.025,0.275c0,0.397 -0.215,1.034 -0.361,1.382c-0.09,0.214 -0.146,0.316 -0.243,0.513l-0.079,0.143c-0.071,0.127 -0.214,0.352 -0.301,0.47l-0.239,0.304l-0.382,0.382c-0.013,0.013 -0.012,0.011 -0.027,0.023l-0.153,0.118c-0.318,0.225 -0.619,0.338 -1.017,0.405c-0.122,0.02 -0.269,0.038 -0.404,0.038c0.37,-0.564 2.636,-5.154 3.181,-4.053m-8.885,1.759c0.05,0.236 0.112,0.475 0.179,0.706c0.089,0.307 0.184,0.591 0.293,0.878c0.107,0.28 0.226,0.554 0.359,0.82c0.08,0.16 0.163,0.321 0.252,0.476c0.373,0.647 1.239,1.942 2.036,1.942c0.177,0 0.3,-0.04 0.45,-0.114c0.032,-0.015 0.049,-0.029 0.08,-0.047c0.028,-0.017 0.053,-0.033 0.078,-0.052c0.051,-0.038 0.101,-0.073 0.15,-0.113c0.158,-0.131 0.358,-0.311 0.494,-0.471c0.014,-0.017 0.021,-0.02 0.033,-0.038c0.03,0.02 0.059,0.045 0.088,0.069c0.288,0.235 0.628,0.457 0.969,0.609c0.223,0.1 0.419,0.158 0.61,0.165l0.079,0c0.212,-0.008 0.419,-0.081 0.652,-0.23c0.133,-0.086 0.248,-0.182 0.368,-0.282c0.017,-0.015 0.022,-0.016 0.039,-0.033c0.085,-0.084 0.22,-0.195 0.287,-0.284c0.023,-0.03 0.05,-0.049 0.073,-0.077l0.1,-0.114c0.014,-0.015 0.018,-0.023 0.032,-0.039l0.066,-0.078c0.191,-0.242 0.378,-0.488 0.542,-0.75c0.131,-0.21 0.252,-0.422 0.363,-0.644c0.305,-0.608 0.58,-1.66 0.699,-2.322c0.031,-0.169 0.053,-0.325 0.077,-0.502c0.018,-0.136 0.034,-0.29 0.041,-0.448l0,-0.316c-0.012,-0.247 -0.054,-0.487 -0.15,-0.681c-0.783,-1.58 -3.575,3.335 -3.993,3.899c-0.02,0.026 -0.033,0.048 -0.053,0.075c-0.205,0.272 -0.386,0.02 -0.57,-0.142c-0.108,-0.084 -0.35,-0.354 -0.456,-0.473l-0.098,-0.116c-0.104,-0.133 -0.218,-0.26 -0.322,-0.393l-0.375,-0.481c-0.244,-0.326 -0.547,-0.722 -0.813,-1.038l-0.099,-0.115c-0.146,-0.163 -0.29,-0.327 -0.447,-0.482c-0.059,-0.058 -0.113,-0.125 -0.178,-0.179c-0.013,-0.011 -0.023,-0.022 -0.036,-0.035l-0.374,-0.339c-0.128,-0.112 -0.265,-0.216 -0.41,-0.305c-0.174,-0.106 -0.402,-0.24 -0.617,-0.24l-0.007,0c-0.136,0.001 -0.242,0.015 -0.352,0.084c-0.23,0.146 -0.327,0.463 -0.327,0.759c0,0.437 0.023,0.575 0.093,1l0.095,0.491Z" style="fill:#fff;fill-rule:nonzero;"/><path d="M9.152,14.216c0.036,-0.52 0.086,-0.981 0.154,-1.381c0.032,-0.171 0.063,-0.335 0.099,-0.494c0.037,-0.16 0.082,-0.303 0.132,-0.43c0.049,-0.127 0.108,-0.221 0.172,-0.293c0.063,-0.073 0.136,-0.102 0.213,-0.087c0.095,0.015 0.163,0.063 0.203,0.144c0.041,0.082 0.054,0.185 0.045,0.306c-0.008,0.121 -0.031,0.252 -0.072,0.39c-0.041,0.137 -0.086,0.269 -0.14,0.396c-0.077,0.177 -0.164,0.353 -0.254,0.525c-0.09,0.171 -0.176,0.332 -0.262,0.47c-0.095,0.161 -0.195,0.316 -0.29,0.454m8.563,-0.931c-0.007,-0.011 -0.016,-0.02 -0.025,-0.031c-0.002,-0.002 -0.005,-0.006 -0.005,-0.006l-0.001,0.001c-0.041,-0.047 -0.09,-0.085 -0.15,-0.111c-0.072,-0.024 -0.144,-0.004 -0.223,0.07c-0.079,0.073 -0.157,0.173 -0.236,0.305c-0.078,0.132 -0.157,0.284 -0.235,0.462c-0.079,0.178 -0.151,0.356 -0.21,0.541c-0.157,0.467 -0.278,1.1 -0.383,1.698c-0.105,0.598 -0.196,1.176 -0.275,1.747c-0.025,0.182 -0.049,0.357 -0.072,0.528c-0.02,0.144 -0.039,0.284 -0.057,0.42c-0.012,0.073 -0.023,0.139 -0.035,0.202c-0.038,0.208 -0.1,0.49 -0.177,0.659c-0.003,0.005 -0.006,0.012 -0.008,0.017c-0.008,0.017 -0.017,0.033 -0.025,0.047c-0.089,0.152 -0.153,0.092 -0.153,0.092c-0.141,-0.057 -0.256,-0.43 -0.343,-0.85c-0.006,-0.027 -0.011,-0.055 -0.017,-0.082c-0.052,-0.269 -0.093,-0.55 -0.123,-0.774l0.004,0.006c-0.199,-2.236 -0.738,-3.155 -1.153,-3.533c-0.04,-0.037 -0.071,-0.062 -0.101,-0.084l0.005,-0c-0.007,-0.004 -0.012,-0.006 -0.018,-0.009c-0.037,-0.025 -0.077,-0.045 -0.13,-0.067c-0.097,-0.047 -0.189,-0.08 -0.277,-0.101c-0.002,-0.002 -0.006,-0.004 -0.006,-0.004l0.001,0.002c-0.282,-0.067 -0.517,-0.021 -0.704,0.07c-0.055,0.023 -0.109,0.05 -0.157,0.084c-0.072,0.051 -0.139,0.114 -0.202,0.186c-0.107,0.113 -0.162,0.209 -0.162,0.209l-0.001,0.007c-0.074,0.115 -0.144,0.245 -0.211,0.387c-0.164,0.35 -0.314,0.752 -0.438,1.206c-0.114,0.414 -0.227,0.821 -0.341,1.218c0,-0 -0.044,0.167 -0.106,0.403c-0.048,0.166 -0.097,0.362 -0.137,0.529c-0.06,0.233 -0.121,0.471 -0.168,0.662c-0.219,0.587 -0.505,0.187 -0.594,-0.072c-0.039,-0.111 -0.124,-0.509 -0.124,-0.509c-0.079,-0.452 -0.152,-0.898 -0.213,-1.338c-0.06,-0.439 -0.122,-0.708 -0.176,-1.16c-0.026,-0.209 -0.052,-0.465 -0.079,-0.729c0.005,-0.027 0.01,-0.056 0.016,-0.082c0.285,-0.207 0.554,-0.471 0.805,-0.797c0.211,-0.275 0.415,-0.619 0.608,-1.045c0.193,-0.426 0.333,-0.927 0.409,-1.509c0.052,-0.437 0.035,-0.783 -0.058,-1.034c-0.094,-0.251 -0.211,-0.432 -0.351,-0.549c-0.164,-0.142 -0.362,-0.221 -0.596,-0.243c-0.356,0.006 -0.665,0.088 -0.928,0.238c-0.263,0.149 -0.479,0.355 -0.66,0.61c-0.181,0.256 -0.321,0.548 -0.432,0.885c-0.112,0.336 -0.135,0.277 -0.272,1.113c-0.137,0.836 -0.119,2.061 -0.119,2.061c-0.013,0.014 -0.11,0.072 -0.123,0.085c-0.053,0.045 -0.123,0.09 -0.211,0.142c-0.088,0.052 -0.204,0.099 -0.362,0.146c-0.14,0.046 -0.245,0.105 -0.315,0.182c-0.07,0.076 -0.105,0.152 -0.112,0.229c-0.005,0.076 0.03,0.144 0.095,0.213c0.063,0.068 0.168,0.104 0.308,0.108c0.159,0.016 0.275,0.021 0.357,0.013c0.082,-0.008 0.14,-0.016 0.181,-0.022c0.046,-0.008 0.178,-0.075 0.195,-0.095c0.058,0.453 0.093,0.827 0.145,1.318c0.029,0.202 0.06,0.41 0.093,0.627c0.068,0.439 0.159,0.865 0.261,1.284c0.104,0.419 0.226,0.812 0.366,1.177c0.14,0.365 0.299,0.665 0.481,0.905c0.182,0.241 0.383,0.394 0.602,0.476c0.219,0.082 0.469,0.044 0.742,-0.111c0.213,-0.129 0.383,-0.316 0.518,-0.561c0.133,-0.246 0.242,-0.517 0.328,-0.808c0.085,-0.291 0.153,-0.581 0.207,-0.878c0.027,-0.145 0.052,-0.28 0.077,-0.408c0.057,-0.29 0.109,-0.543 0.16,-0.769c0.007,-0.038 0.016,-0.084 0.026,-0.134c0.053,-0.209 0.111,-0.43 0.174,-0.676c0.013,-0.047 0.027,-0.094 0.039,-0.141c0.022,-0.08 0.045,-0.162 0.069,-0.246c0.072,-0.257 0.151,-0.514 0.229,-0.777c0.079,-0.263 0.151,-0.494 0.223,-0.698c0.072,-0.204 0.131,-0.362 0.183,-0.481c0.053,-0.119 0.118,-0.041 0.138,-0.016c0.15,0.293 0.222,0.749 0.281,1.174c0.059,0.425 0.118,0.87 0.164,1.347c0.046,0.478 0.111,0.955 0.184,1.439c0.044,0.301 0.102,0.61 0.181,0.902c0.074,0.234 0.257,0.714 0.588,1.075c0.015,0.015 0.028,0.03 0.044,0.046c0.149,0.142 0.267,0.245 0.478,0.356c0.173,0.085 0.688,0.296 1.216,0.049l-0.001,0.001c0.005,-0.002 0.008,-0.005 0.012,-0.007c0.081,-0.038 0.161,-0.091 0.241,-0.153c0.114,-0.103 0.496,-0.493 0.774,-1.3c0.002,-0.004 0.003,-0.009 0.005,-0.014c0.018,-0.053 0.036,-0.108 0.053,-0.164c0.015,-0.05 0.028,-0.1 0.042,-0.151c0.005,-0.017 0.01,-0.034 0.014,-0.052c0.006,-0.022 0.012,-0.04 0.017,-0.06c0.229,-0.899 0.281,-1.826 0.291,-2.148c0.068,-0.728 0.101,-1.389 0.12,-2.105c0.015,-0.591 0.185,-1.664 0.174,-1.881c-0.002,-0.184 -0.086,-0.321 -0.133,-0.384" style="fill:#fff;fill-rule:nonzero;"/><path d="M49.608,17.863c-0.201,1.026 -1.091,2.815 -2.352,3.236c-0.325,0.105 -0.55,0.094 -0.673,-0.033c-0.123,-0.127 -0.175,-0.326 -0.168,-0.588c0.008,-0.263 0.075,-0.575 0.187,-0.925c0.112,-0.35 0.248,-0.696 0.403,-1.032c0.156,-0.337 0.311,-0.645 0.467,-0.925c0.155,-0.279 0.296,-0.467 0.379,-0.593c0.08,-0.122 0.309,-0.393 0.425,-0.542c0.114,-0.146 0.247,-0.266 0.377,-0.388c0.257,-0.215 0.638,-0.389 0.902,0.156c0.009,0.023 0.019,0.044 0.027,0.069c0.069,0.204 0.105,0.437 0.11,0.704c0.006,0.268 -0.024,0.554 -0.084,0.861m0.464,-2.858c-0.251,-0.011 -0.795,0.001 -1.139,0.111c-0.28,0.09 -0.461,0.149 -0.786,0.374c-0.238,0.165 -0.426,0.332 -0.569,0.512c-0.329,0.395 -0.641,0.84 -0.935,1.337c-0.294,0.499 -0.526,1.001 -0.695,1.502c-0.167,0.5 -0.251,0.986 -0.244,1.444c0.008,0.459 0.145,0.857 0.421,1.188c0.141,0.18 0.335,0.306 0.581,0.375c0.246,0.071 0.511,0.086 0.792,0.052c3.092,-0.375 4.838,-6.798 2.574,-6.895" style="fill:#fff;fill-rule:nonzero;"/><path d="M24.812,20.652c-0.05,-0.025 -0.107,-0.011 -0.163,0.04c-0.057,0.051 -0.126,0.109 -0.208,0.173c-0.081,0.064 -0.182,0.123 -0.301,0.169c-0.12,0.045 -0.277,0.054 -0.459,0.026c-0.132,-0.024 -0.258,-0.097 -0.378,-0.227c-0.119,-0.13 -0.22,-0.298 -0.301,-0.511c-0.082,-0.212 -0.151,-0.463 -0.195,-0.745c-0.044,-0.283 -0.063,-0.597 -0.044,-0.943c0.019,-0.334 -0.012,-0.572 -0.082,-0.709c-0.069,-0.137 -0.163,-0.218 -0.282,-0.241c-0.12,-0.023 -0.239,-0.015 -0.371,0.019c-0.133,0.033 -0.239,0.06 -0.334,0.068c-0.094,0.007 -0.157,0.072 -0.194,0.192c-0.038,0.12 -0.063,0.259 -0.076,0.416c-0.012,0.157 -0.012,0.321 -0.006,0.484c0.006,0.164 0.012,0.29 0.012,0.383c0,0.095 -0.037,0.228 -0.113,0.399c-0.075,0.171 -0.17,0.343 -0.289,0.507c-0.119,0.166 -0.251,0.313 -0.395,0.441c-0.145,0.128 -0.29,0.193 -0.422,0.195c-0.107,0.002 -0.201,-0.11 -0.27,-0.329c-0.069,-0.219 -0.107,-0.482 -0.113,-0.79c-0.006,-0.308 0.025,-0.63 0.094,-0.964c0.069,-0.334 0.182,-0.625 0.352,-0.873c0.107,-0.154 0.245,-0.275 0.402,-0.372c0.157,-0.097 0.315,-0.181 0.465,-0.258c0.151,-0.079 0.283,-0.157 0.403,-0.228c0.119,-0.07 0.188,-0.166 0.213,-0.273c0.019,-0.07 -0.037,-0.119 -0.157,-0.155c-0.12,-0.036 -0.283,-0.045 -0.478,-0.036c-0.194,0.009 -0.421,0.051 -0.666,0.117c-0.245,0.067 -0.496,0.172 -0.742,0.314c-0.244,0.142 -0.477,0.322 -0.697,0.546c-0.22,0.223 -0.396,0.491 -0.528,0.801c-0.201,0.481 -0.295,0.935 -0.283,1.369c0.013,0.434 0.095,0.81 0.251,1.134c0.158,0.325 0.365,0.579 0.623,0.77c0.257,0.191 0.534,0.274 0.829,0.264c0.296,-0.024 0.541,-0.091 0.742,-0.207c0.201,-0.117 0.365,-0.245 0.49,-0.379c0.151,-0.154 0.271,-0.332 0.352,-0.534c0.12,0.268 0.271,0.499 0.466,0.697c0.169,0.167 0.383,0.308 0.647,0.43c0.264,0.121 0.584,0.148 0.962,0.072c0.251,-0.035 0.471,-0.121 0.653,-0.249c0.182,-0.129 0.327,-0.263 0.434,-0.403c0.107,-0.14 0.169,-0.267 0.201,-0.387c0.031,-0.121 0.013,-0.189 -0.044,-0.213" style="fill:#fff;fill-rule:nonzero;"/><path d="M32.656,17.52c-0.119,0.172 -0.239,0.294 -0.358,0.377c-0.12,0.083 -0.226,0.136 -0.321,0.162c-0.107,0.033 -0.22,0.048 -0.327,0.031c0.026,-0.252 0.088,-0.492 0.189,-0.721c0.101,-0.227 0.214,-0.424 0.346,-0.59c0.131,-0.166 0.264,-0.287 0.402,-0.371c0.138,-0.084 0.251,-0.098 0.346,-0.049c0.094,0.042 0.125,0.167 0.1,0.375c-0.025,0.208 -0.15,0.475 -0.377,0.786m-6.109,-2.682c0.044,-0.195 0.088,-0.385 0.138,-0.568c0.05,-0.183 0.113,-0.348 0.182,-0.493c0.069,-0.146 0.151,-0.254 0.239,-0.337c0.088,-0.084 0.188,-0.117 0.295,-0.099c0.132,0.016 0.226,0.072 0.283,0.165c0.057,0.093 0.076,0.213 0.063,0.351c-0.013,0.138 -0.044,0.29 -0.1,0.448c-0.057,0.158 -0.12,0.31 -0.196,0.456c-0.106,0.203 -0.226,0.406 -0.351,0.603c-0.126,0.197 -0.246,0.381 -0.365,0.54c-0.132,0.185 -0.27,0.363 -0.402,0.522c0.05,-0.598 0.119,-1.127 0.214,-1.588m15.55,5.537c-0.05,-0.024 -0.107,-0.011 -0.164,0.04c-0.056,0.052 -0.126,0.109 -0.208,0.173c-0.081,0.065 -0.181,0.123 -0.301,0.169c-0.12,0.045 -0.276,0.055 -0.459,0.026c-0.132,-0.023 -0.257,-0.097 -0.377,-0.227c-0.119,-0.13 -0.22,-0.298 -0.301,-0.511c-0.082,-0.212 -0.152,-0.463 -0.195,-0.745c-0.044,-0.282 -0.063,-0.596 -0.044,-0.943c0.018,-0.333 -0.013,-0.572 -0.082,-0.709c-0.069,-0.137 -0.163,-0.217 -0.283,-0.241c-0.119,-0.022 -0.239,-0.014 -0.371,0.019c-0.132,0.033 -0.239,0.06 -0.333,0.068c-0.094,0.008 -0.157,0.072 -0.195,0.192c-0.038,0.12 -0.063,0.259 -0.075,0.416c-0.013,0.158 -0.013,0.321 -0.006,0.485c0.006,0.163 0.012,0.289 0.012,0.383c0,0.094 -0.038,0.227 -0.113,0.398c-0.075,0.171 -0.17,0.342 -0.289,0.508c-0.12,0.165 -0.252,0.312 -0.396,0.44c-0.145,0.128 -0.289,0.194 -0.421,0.196c-0.107,0.002 -0.201,-0.11 -0.27,-0.329c-0.07,-0.22 -0.108,-0.483 -0.114,-0.791c-0.006,-0.308 0.026,-0.63 0.095,-0.964c0.069,-0.334 0.182,-0.625 0.352,-0.873c0.107,-0.153 0.245,-0.275 0.402,-0.371c0.157,-0.097 0.314,-0.182 0.465,-0.259c0.151,-0.079 0.283,-0.156 0.402,-0.227c0.12,-0.071 0.189,-0.167 0.214,-0.274c0.019,-0.07 -0.038,-0.119 -0.157,-0.154c-0.12,-0.036 -0.283,-0.046 -0.478,-0.037c-0.195,0.009 -0.422,0.051 -0.666,0.118c-0.245,0.066 -0.496,0.171 -0.742,0.313c-0.245,0.143 -0.477,0.322 -0.697,0.546c-0.221,0.224 -0.397,0.49 -0.529,0.801c-0.2,0.481 -0.295,0.935 -0.282,1.369c0.002,0.082 0.009,0.159 0.016,0.236c-0.013,0.006 -0.027,0.013 -0.042,0.022c-0.081,0.052 -0.176,0.122 -0.288,0.206c-0.114,0.084 -0.239,0.18 -0.371,0.277c-0.133,0.096 -0.271,0.18 -0.415,0.251c-0.145,0.072 -0.289,0.112 -0.434,0.121c-0.144,0.008 -0.289,-0.034 -0.421,-0.132c-0.132,-0.092 -0.251,-0.216 -0.352,-0.372c-0.101,-0.155 -0.182,-0.317 -0.245,-0.474c-0.062,-0.156 -0.107,-0.294 -0.132,-0.413c-0.025,-0.118 -0.025,-0.182 0,-0.188c0.251,-0.111 0.471,-0.291 0.66,-0.527c0.189,-0.235 0.327,-0.502 0.421,-0.792c0.094,-0.291 0.126,-0.587 0.094,-0.888c-0.031,-0.302 -0.131,-0.577 -0.307,-0.826c-0.183,-0.249 -0.384,-0.396 -0.598,-0.449c-0.214,-0.053 -0.421,-0.044 -0.622,0.016c-0.201,0.059 -0.39,0.157 -0.56,0.279c-0.169,0.123 -0.301,0.238 -0.395,0.34c-0.233,0.249 -0.403,0.465 -0.509,0.662c-0.098,0.18 -0.174,0.342 -0.239,0.491l0.107,-1.733c0.245,-0.426 0.421,-0.831 0.527,-1.229c0.05,-0.158 0.089,-0.329 0.107,-0.505c0.019,-0.176 0.019,-0.346 -0.006,-0.504c-0.025,-0.156 -0.082,-0.306 -0.17,-0.443c-0.088,-0.137 -0.213,-0.248 -0.371,-0.34c-0.32,-0.171 -0.584,-0.148 -0.791,0.07c-0.208,0.217 -0.315,0.659 -0.315,1.331c0,0.296 -0.013,0.542 -0.031,0.737c-0.019,0.195 -0.051,0.359 -0.082,0.491c-0.031,0.133 -0.063,0.234 -0.095,0.31c-0.031,0.076 -0.049,0.139 -0.068,0.19c-0.095,0.278 -0.201,0.513 -0.327,0.703c-0.126,0.191 -0.239,0.35 -0.346,0.477c-0.107,0.128 -0.182,0.236 -0.239,0.325c-0.057,0.089 -0.057,0.171 -0.006,0.245c0.056,0.1 0.132,0.143 0.214,0.136c0.082,-0.008 0.163,-0.035 0.238,-0.08c0.076,-0.045 0.139,-0.09 0.195,-0.148c0.057,-0.058 0.089,-0.083 0.094,-0.083c0.026,-0.007 0.038,0.087 0.045,0.295c0.006,0.207 0.006,0.471 0,0.792c-0.007,0.321 -0.007,0.68 -0.013,1.064c-0.005,0.343 -0.006,0.675 -0.006,0.999c-0.033,0.034 -0.064,0.067 -0.101,0.102c-0.126,0.122 -0.264,0.237 -0.409,0.335c-0.144,0.096 -0.301,0.18 -0.465,0.239c-0.163,0.06 -0.326,0.087 -0.484,0.071c-0.156,-0.017 -0.314,-0.077 -0.465,-0.187c-0.15,-0.112 -0.289,-0.291 -0.415,-0.541c-0.207,-0.418 -0.352,-0.787 -0.427,-1.119c-0.075,-0.332 -0.119,-0.614 -0.138,-0.859c-0.019,-0.277 0.006,-0.529 0.063,-0.756c0.307,-0.206 0.597,-0.468 0.867,-0.794c0.226,-0.274 0.446,-0.617 0.654,-1.042c0.207,-0.424 0.358,-0.923 0.44,-1.503c0.056,-0.435 0.037,-0.781 -0.063,-1.031c-0.101,-0.25 -0.226,-0.43 -0.377,-0.547c-0.176,-0.142 -0.39,-0.22 -0.642,-0.241c-0.383,0.006 -0.716,0.086 -0.999,0.235c-0.283,0.15 -0.515,0.355 -0.71,0.609c-0.195,0.255 -0.346,0.547 -0.465,0.882c-0.12,0.335 -0.207,0.69 -0.264,1.067c-0.057,0.378 -0.101,0.693 -0.119,0.952c-0.02,0.258 -0.039,0.466 -0.045,0.623c-0.006,0.183 -0.006,0.334 0.013,0.44c-0.032,0.057 -0.082,0.114 -0.138,0.166c-0.057,0.045 -0.132,0.09 -0.227,0.142c-0.094,0.052 -0.219,0.098 -0.389,0.144c-0.151,0.047 -0.264,0.105 -0.34,0.182c-0.075,0.077 -0.113,0.153 -0.119,0.228c-0.007,0.076 0.031,0.145 0.1,0.212c0.07,0.069 0.183,0.104 0.334,0.108c0.169,0.016 0.295,0.021 0.383,0.014c0.088,-0.009 0.15,-0.016 0.195,-0.023c0.05,-0.007 0.081,-0.02 0.101,-0.039c0.093,0.696 0.251,1.316 0.477,1.866c0.101,0.231 0.22,0.462 0.352,0.692c0.132,0.231 0.295,0.43 0.478,0.609c0.182,0.18 0.396,0.327 0.635,0.443c0.238,0.116 0.508,0.18 0.81,0.182c0.233,0.015 0.453,-0.007 0.654,-0.061c0.201,-0.053 0.384,-0.126 0.547,-0.216c0.163,-0.091 0.314,-0.194 0.446,-0.315c0.103,-0.095 0.194,-0.19 0.279,-0.287c0.001,0.025 0.003,0.051 0.004,0.074c0.019,0.27 0.05,0.453 0.094,0.546c0.045,0.094 0.126,0.149 0.259,0.166c0.131,0.017 0.269,0.002 0.42,-0.045c0.151,-0.046 0.289,-0.13 0.421,-0.245c0.133,-0.116 0.214,-0.262 0.258,-0.438c0.025,-0.083 0.045,-0.196 0.057,-0.342c0.013,-0.144 0.019,-0.289 0.025,-0.44c0.006,-0.151 0.006,-0.296 0.013,-0.427c0.006,-0.133 0.006,-0.233 0.006,-0.29c0.006,-0.132 0.019,-0.233 0.031,-0.296c0.013,-0.063 0.031,-0.108 0.063,-0.14c0.031,-0.031 0.069,-0.051 0.113,-0.064c0.044,-0.014 0.113,-0.039 0.195,-0.073c0.019,-0.006 0.037,0.05 0.069,0.169c0.032,0.119 0.069,0.276 0.126,0.458c0.056,0.181 0.126,0.387 0.22,0.606c0.094,0.218 0.208,0.431 0.352,0.623c0.145,0.193 0.314,0.36 0.516,0.495c0.201,0.135 0.445,0.207 0.728,0.221c0.258,0.014 0.503,-0.027 0.729,-0.118c0.226,-0.092 0.434,-0.215 0.616,-0.363c0.183,-0.147 0.346,-0.32 0.491,-0.504c0.144,-0.185 0.251,-0.363 0.332,-0.534c0.021,-0.043 0.032,-0.081 0.048,-0.122c0.033,0.103 0.071,0.202 0.116,0.296c0.157,0.324 0.365,0.578 0.622,0.769c0.258,0.191 0.534,0.275 0.83,0.264c0.296,-0.024 0.54,-0.091 0.742,-0.207c0.201,-0.116 0.364,-0.245 0.49,-0.379c0.151,-0.153 0.27,-0.331 0.352,-0.534c0.119,0.268 0.27,0.499 0.465,0.697c0.17,0.167 0.384,0.308 0.647,0.43c0.264,0.121 0.585,0.147 0.962,0.072c0.251,-0.035 0.472,-0.12 0.654,-0.249c0.182,-0.129 0.326,-0.263 0.433,-0.403c0.108,-0.14 0.17,-0.267 0.202,-0.387c0.031,-0.12 0.012,-0.189 -0.044,-0.213" style="fill:#fff;fill-rule:nonzero;"/><path d="M55.66,19.66c-0.351,0.299 -0.678,0.519 -1.011,0.598c-0.278,0.065 -0.515,-0.038 -0.68,-0.226c-0.916,-1.043 -1.009,-3.219 -0.851,-4.447c0.076,-0.6 0.202,-1.207 0.373,-1.812c0.172,-0.604 0.388,-1.128 0.661,-1.551c0.272,-0.423 0.586,-0.721 0.955,-0.875c0.368,-0.154 0.799,-0.082 1.289,0.215c0.362,0.224 0.647,0.519 0.851,0.874c0.205,0.355 0.353,0.742 0.438,1.158c0.085,0.416 0.13,0.841 0.117,1.271c-0.054,1.9 -0.602,3.486 -2.142,4.795m0.946,-9.894c-2.364,-0.139 -4.325,2.588 -5.105,5.987c-0.53,2.312 0.299,5.656 2.481,5.792c2.77,0.174 5.119,-2.932 5.759,-4.689c1.228,-3.374 0.247,-6.891 -3.135,-7.09" style="fill:#fff;fill-rule:nonzero;"/><path d="M46.455,16.459c0.123,-0.096 0.224,-0.198 0.296,-0.308c0.072,-0.11 0.109,-0.205 0.116,-0.298c0.007,-0.094 -0.029,-0.151 -0.109,-0.179c-0.31,-0.082 -0.613,-0.07 -0.924,0.029c-0.31,0.099 -0.585,0.234 -0.837,0.389c-0.289,0.178 -0.57,0.399 -0.838,0.663c-0.05,-0.114 -0.123,-0.25 -0.216,-0.4c-0.08,-0.122 -0.181,-0.272 -0.303,-0.436c-0.123,-0.164 -0.282,-0.342 -0.477,-0.535c-0.231,-0.22 -0.484,-0.331 -0.75,-0.348c-0.268,-0.018 -0.52,0.016 -0.759,0.084c-0.238,0.069 -0.433,0.166 -0.592,0.276c-0.159,0.112 -0.238,0.192 -0.238,0.228c0.007,0.087 0.044,0.137 0.101,0.158c0.058,0.02 0.131,0.027 0.224,0.032c0.094,0.006 0.188,0.012 0.296,0.025c0.108,0.012 0.209,0.047 0.318,0.103c0.252,0.133 0.433,0.47 0.548,1.024c0.116,0.554 0.167,1.355 0.145,2.403c-0,0.831 0.086,1.414 0.26,1.758c0.173,0.345 0.44,0.506 0.794,0.479c0.31,-0.027 0.555,-0.19 0.736,-0.496c0.181,-0.306 0.267,-0.77 0.261,-1.398c-0,-0.296 0.013,-0.607 0.043,-0.932c0.029,-0.326 0.093,-0.63 0.201,-0.914c0.109,-0.284 0.26,-0.539 0.455,-0.751c0.195,-0.213 0.462,-0.362 0.802,-0.447c0.173,-0.038 0.325,-0.114 0.447,-0.209" style="fill:#fff;fill-rule:nonzero;"/><path d="M59.746,9.184l-0.061,0l0,-0.189c0.011,-0.003 0.032,-0.005 0.07,-0.005c0.072,0 0.115,0.033 0.115,0.095c0,0.06 -0.046,0.099 -0.124,0.099m0.157,0.06l0,-0.003c0.06,-0.021 0.122,-0.081 0.122,-0.168c0,-0.064 -0.023,-0.112 -0.064,-0.144c-0.05,-0.04 -0.121,-0.056 -0.223,-0.056c-0.084,0 -0.158,0.006 -0.208,0.016l0,0.678l0.155,0l0,-0.271l0.046,0c0.064,0.002 0.094,0.024 0.113,0.111c0.019,0.085 0.037,0.14 0.047,0.16l0.16,0c-0.014,-0.026 -0.034,-0.116 -0.056,-0.195c-0.017,-0.063 -0.044,-0.108 -0.092,-0.128" style="fill:#fff;fill-rule:nonzero;"/><path d="M60.168,9.666c-0.107,0.107 -0.254,0.173 -0.417,0.173c-0.163,0 -0.31,-0.066 -0.417,-0.173c-0.107,-0.107 -0.173,-0.254 -0.173,-0.417c-0,-0.163 0.066,-0.31 0.173,-0.417c0.107,-0.107 0.254,-0.173 0.417,-0.173c0.163,0 0.31,0.066 0.417,0.173c0.107,0.107 0.173,0.254 0.173,0.417c-0,0.163 -0.066,0.31 -0.173,0.417m-0.417,-1.131c-0.394,0 -0.714,0.32 -0.714,0.714c-0,0.394 0.32,0.713 0.714,0.714c0.394,-0.001 0.714,-0.32 0.714,-0.714c-0,-0.394 -0.32,-0.714 -0.714,-0.714" style="fill:#fff;fill-rule:nonzero;"/></svg>