<?xml version="1.0" encoding="UTF-8"?>
<!-- Creator: CorelDRAW 2021 (64-Bit) -->
<svg xmlns="http://www.w3.org/2000/svg" xmlns:xlink="http://www.w3.org/1999/xlink" xmlns:xodm="http://www.corel.com/coreldraw/odm/2003" xml:space="preserve" width="2702px" height="646px" version="1.1" style="shape-rendering:geometricPrecision; text-rendering:geometricPrecision; image-rendering:optimizeQuality; fill-rule:evenodd; clip-rule:evenodd" viewBox="0 0 595 142.2">
 <defs>
  <style type="text/css">
   <![CDATA[
    .fil1 {fill:#2C2A29}
    .fil2 {fill:#843434}
    .fil3 {fill:#C5CD39}
    .fil4 {fill:white}
    .fil0 {fill:#843434;fill-rule:nonzero}
   ]]>
  </style>
    <clipPath id="id0">
     <path d="M0 134.65l147.14 0 0 -134.65 -147.14 0 0 134.65z"></path>
    </clipPath>
 </defs>
 <g id="Layer_x0020_1">
  <metadata id="CorelCorpID_0Corel-Layer"></metadata>
  <g id="_1878724606368">
   <path class="fil0" d="M583.98 53.15l0 -8.55 3.79 0c0.77,0 1.35,0.08 1.74,0.23 0.4,0.15 0.71,0.42 0.95,0.81 0.24,0.39 0.36,0.82 0.36,1.29 0,0.61 -0.2,1.12 -0.59,1.54 -0.39,0.41 -1,0.68 -1.82,0.79 0.3,0.14 0.53,0.29 0.68,0.43 0.33,0.3 0.64,0.68 0.94,1.13l1.49 2.33 -1.42 0 -1.13 -1.78c-0.34,-0.51 -0.61,-0.91 -0.82,-1.18 -0.22,-0.27 -0.41,-0.46 -0.58,-0.57 -0.17,-0.11 -0.34,-0.18 -0.51,-0.23 -0.13,-0.02 -0.34,-0.04 -0.64,-0.04l-1.31 0 0 3.8 -1.13 0zm1.13 -4.78l2.44 0c0.51,0 0.92,-0.05 1.21,-0.16 0.29,-0.1 0.51,-0.28 0.67,-0.51 0.15,-0.24 0.22,-0.49 0.22,-0.77 0,-0.4 -0.14,-0.73 -0.44,-1 -0.29,-0.26 -0.76,-0.39 -1.39,-0.39l-2.71 0 0 2.83z"></path>
   <path class="fil0" d="M587.28 41.15c2.13,0 4.06,0.86 5.46,2.26l0 0c1.4,1.4 2.26,3.33 2.26,5.46 0,2.14 -0.86,4.07 -2.26,5.47l0 0c-1.4,1.39 -3.33,2.26 -5.46,2.26 -2.13,0 -4.06,-0.87 -5.46,-2.26l0 0c-1.4,-1.4 -2.26,-3.33 -2.26,-5.47 0,-2.13 0.86,-4.06 2.26,-5.46l0 0c1.4,-1.4 3.33,-2.26 5.46,-2.26zm5.04 2.68c-1.29,-1.29 -3.07,-2.09 -5.04,-2.09 -1.97,0 -3.75,0.8 -5.04,2.09 -1.29,1.29 -2.09,3.07 -2.09,5.04 0,1.97 0.8,3.76 2.09,5.05 1.29,1.28 3.07,2.08 5.04,2.08 1.97,0 3.75,-0.8 5.04,-2.08 1.29,-1.29 2.09,-3.08 2.09,-5.05 0,-1.97 -0.8,-3.75 -2.09,-5.04z"></path>
   <path class="fil1" d="M550.36 141.65l0 -6.24 0.8 0c0.91,4.06 3.07,6.09 6.46,6.09 1.53,0 2.71,-0.39 3.56,-1.16 0.83,-0.78 1.25,-1.65 1.25,-2.61 0,-0.97 -0.37,-1.79 -1.1,-2.45 -0.74,-0.65 -2.08,-1.34 -4.04,-2.08 -1.74,-0.67 -3.06,-1.26 -3.94,-1.75 -0.9,-0.51 -1.59,-1.15 -2.08,-1.95 -0.5,-0.8 -0.75,-1.65 -0.75,-2.56 0,-1.39 0.54,-2.54 1.61,-3.45 1.08,-0.93 2.43,-1.38 4.08,-1.38 0.92,0 1.79,0.13 2.6,0.4 0.81,0.26 1.65,0.82 2.5,1.65 0.49,-0.52 0.77,-1.09 0.84,-1.7l0.7 0 0 5.07 -0.7 0c-0.41,-1.47 -1.14,-2.63 -2.16,-3.48 -1.03,-0.85 -2.23,-1.27 -3.58,-1.27 -1.3,0 -2.24,0.31 -2.85,0.94 -0.6,0.62 -0.9,1.3 -0.9,2.04 0,0.9 0.37,1.66 1.13,2.28 0.75,0.62 2.1,1.33 4.06,2.11 1.87,0.74 3.23,1.34 4.07,1.79 0.86,0.46 1.53,1.08 2.05,1.88 0.52,0.8 0.77,1.73 0.77,2.79 0,1.65 -0.62,2.99 -1.86,4.03 -1.24,1.05 -2.89,1.56 -4.96,1.56 -2.39,0 -4.38,-0.81 -5.97,-2.45 -0.36,0.46 -0.62,1.08 -0.79,1.9l-0.8 0zm-53 -9.81c0.8,-0.02 1.63,-0.05 2.48,-0.08 0.86,-0.04 1.6,-0.15 2.24,-0.32 0.62,-0.18 1.13,-0.42 1.52,-0.75 0.4,-0.33 0.7,-0.76 0.93,-1.3 0.22,-0.52 0.33,-1.19 0.33,-1.97 0,-1.36 -0.38,-2.45 -1.14,-3.27 -0.77,-0.82 -2.43,-1.23 -5,-1.23 -0.4,0 -0.85,0.02 -1.36,0.06l0 8.86zm16.43 10.01l-5.85 0c-1.03,-0.66 -2.63,-2.34 -4.76,-5.09 -0.69,-0.88 -1.39,-1.72 -2.14,-2.53 -0.73,-0.8 -1.24,-1.3 -1.52,-1.47 -0.27,-0.17 -0.71,-0.26 -1.29,-0.26l-0.87 0 0 4.3c0,1.52 0.04,2.52 0.12,3 0.08,0.46 0.29,0.81 0.64,1.04 0.35,0.23 1.02,0.34 1.99,0.34l1.05 0 0 0.67 -10.4 0 0 -0.67 0.7 0c0.93,0 1.57,-0.1 1.93,-0.31 0.36,-0.21 0.59,-0.53 0.69,-0.97 0.09,-0.45 0.14,-1.48 0.14,-3.1l0 -9.5c0,-1.55 -0.06,-2.55 -0.14,-2.99 -0.1,-0.45 -0.32,-0.76 -0.64,-0.93 -0.34,-0.17 -1.06,-0.26 -2.16,-0.26l-0.36 0 0 -0.66 3.1 -0.14c2.08,-0.09 3.72,-0.12 4.94,-0.12 2.07,0 3.76,0.17 5.06,0.5 1.3,0.35 2.35,0.92 3.15,1.7 0.8,0.78 1.2,1.71 1.2,2.79 0,1.27 -0.52,2.35 -1.57,3.25 -1.04,0.9 -2.59,1.45 -4.62,1.67 0.91,0.39 2.38,1.8 4.4,4.23 1.65,1.97 2.94,3.26 3.88,3.87 0.94,0.62 2.05,0.94 3.33,0.97l0 0.67zm-60.26 -6.03l0.77 0 -0.47 6.03 -18 0 0 -0.67 0.45 0c1.08,0 1.78,-0.12 2.09,-0.38 0.32,-0.26 0.52,-0.58 0.6,-0.98 0.09,-0.39 0.13,-1.4 0.13,-3.02l0 -9.5c0,-1.48 -0.04,-2.45 -0.13,-2.92 -0.1,-0.47 -0.3,-0.8 -0.63,-0.98 -0.33,-0.19 -1.01,-0.28 -2.06,-0.28l0 -0.66 15.53 0 0.51 4.84 -0.75 0c-0.34,-1.36 -0.76,-2.32 -1.26,-2.88 -0.49,-0.57 -1.08,-0.93 -1.77,-1.07 -0.68,-0.16 -1.78,-0.23 -3.3,-0.23l-3.01 0 0 8.14 2.3 0c1.07,0 1.8,-0.09 2.22,-0.25 0.42,-0.16 0.71,-0.4 0.84,-0.74 0.13,-0.32 0.2,-0.96 0.2,-1.92l0.75 0 0 6.63 -0.75 0c0,-1.07 -0.1,-1.79 -0.31,-2.16 -0.2,-0.37 -0.5,-0.6 -0.89,-0.72 -0.39,-0.1 -1.05,-0.16 -1.98,-0.16l-2.38 0 0 4.58c0,2.3 0.16,3.66 0.5,4.06 0.33,0.41 1.22,0.6 2.67,0.6l1.61 0c1.15,0 2.09,-0.13 2.83,-0.39 0.74,-0.26 1.43,-0.8 2.11,-1.61 0.67,-0.81 1.19,-1.93 1.58,-3.36zm-70.85 -12.8l0 12.95c0,1.91 0.04,3.15 0.12,3.7 0.09,0.56 0.32,0.94 0.72,1.16 0.4,0.23 1.25,0.34 2.54,0.34 1.9,0 3.45,-0.22 4.67,-0.69 1.22,-0.47 2.24,-1.37 3.06,-2.72 0.81,-1.37 1.22,-3.1 1.22,-5.2 0,-1.65 -0.24,-3.11 -0.71,-4.4 -0.47,-1.28 -1.16,-2.33 -2.05,-3.13 -0.88,-0.8 -1.87,-1.36 -2.95,-1.64 -1.08,-0.3 -2.45,-0.44 -4.15,-0.44 -0.81,0 -1.63,0.02 -2.47,0.07zm-6.7 -0.39l3.57 -0.17c2.99,-0.13 5,-0.2 6.04,-0.2 3.22,0 5.73,0.44 7.54,1.32 1.81,0.88 3.15,2.07 4.03,3.57 0.89,1.49 1.33,3.23 1.33,5.19 0,1.42 -0.24,2.72 -0.72,3.89 -0.49,1.18 -1.14,2.16 -1.99,2.94 -0.83,0.77 -1.8,1.37 -2.91,1.77 -1.11,0.4 -2.15,0.65 -3.15,0.75 -0.99,0.11 -2.4,0.16 -4.2,0.16l-9.64 0 0 -0.67 0.9 0c0.93,0 1.58,-0.1 1.94,-0.31 0.35,-0.21 0.58,-0.53 0.69,-0.97 0.09,-0.45 0.14,-1.48 0.14,-3.1l0 -9.34c0,-1.55 -0.05,-2.55 -0.14,-3 -0.11,-0.46 -0.33,-0.77 -0.65,-0.93 -0.33,-0.17 -1.04,-0.25 -2.14,-0.25l-0.64 -0.01 0 -0.64zm-35.66 13.51l-0.15 5.71 -18.47 0 0 -0.67 0.64 0c0.93,0 1.57,-0.1 1.93,-0.31 0.36,-0.21 0.59,-0.53 0.69,-0.97 0.1,-0.45 0.15,-1.48 0.15,-3.1l0 -9.5c0,-1.55 -0.05,-2.55 -0.15,-2.99 -0.1,-0.45 -0.32,-0.76 -0.64,-0.93 -0.33,-0.17 -1.04,-0.26 -2.14,-0.26l-0.48 0 0 -0.66 10.43 0 0 0.66 -0.96 0c-1.07,0 -1.76,0.08 -2.1,0.24 -0.33,0.16 -0.55,0.45 -0.66,0.88 -0.12,0.42 -0.17,1.45 -0.17,3.06l0 10.14c0,1.4 0.04,2.28 0.13,2.64 0.08,0.34 0.32,0.62 0.7,0.81 0.37,0.19 1.19,0.29 2.44,0.29l1.65 0c1.33,0 2.33,-0.1 2.97,-0.31 0.65,-0.21 1.26,-0.66 1.84,-1.36 0.58,-0.72 1.12,-1.83 1.6,-3.37l0.75 0zm-64.94 -13.02l0 -0.66 9.95 0 0 0.66 -0.47 0c-1.08,0 -1.77,0.08 -2.11,0.24 -0.33,0.16 -0.55,0.45 -0.66,0.88 -0.11,0.42 -0.17,1.45 -0.17,3.06l0 9.5c0,1.52 0.04,2.52 0.12,3 0.08,0.46 0.29,0.81 0.64,1.04 0.35,0.23 1.02,0.34 2,0.34l0.65 0 0 0.67 -9.95 0 0 -0.67 0.64 0c0.93,0 1.57,-0.1 1.93,-0.31 0.36,-0.21 0.59,-0.53 0.69,-0.97 0.09,-0.45 0.14,-1.48 0.14,-3.1l0 -9.5c0,-1.55 -0.05,-2.55 -0.14,-2.99 -0.1,-0.45 -0.32,-0.76 -0.64,-0.93 -0.34,-0.17 -1.06,-0.26 -2.16,-0.26l-0.46 0zm-43.42 -0.66l7.25 0 0 0.66c-0.97,0.06 -1.68,0.25 -2.16,0.58 -0.47,0.33 -0.76,0.7 -0.87,1.11 -0.1,0.41 -0.16,1.21 -0.16,2.38l0 6.45c0,1.65 -0.07,2.87 -0.22,3.67 -0.14,0.8 -0.56,1.59 -1.24,2.36 -0.69,0.78 -1.66,1.39 -2.91,1.84 -1.25,0.46 -2.7,0.69 -4.34,0.69 -1.92,0 -3.57,-0.29 -4.91,-0.88 -1.34,-0.59 -2.3,-1.34 -2.87,-2.27 -0.57,-0.93 -0.85,-2.17 -0.85,-3.73l0.01 -1.99 0 -6.03c0,-1.55 -0.05,-2.55 -0.15,-2.99 -0.1,-0.45 -0.31,-0.76 -0.64,-0.93 -0.33,-0.17 -1.04,-0.26 -2.14,-0.26l-0.5 0 0 -0.66 9.93 0 0 0.66 -0.43 0c-1.08,0 -1.78,0.08 -2.11,0.24 -0.33,0.16 -0.55,0.45 -0.66,0.88 -0.12,0.42 -0.17,1.45 -0.17,3.06l0 6.1c0,2.12 0.11,3.61 0.33,4.5 0.22,0.88 0.83,1.66 1.85,2.32 1.02,0.67 2.36,1 4.06,1 1.32,-0.01 2.52,-0.22 3.61,-0.67 1.08,-0.44 1.89,-0.99 2.42,-1.65 0.53,-0.67 0.86,-1.35 0.97,-2.05 0.12,-0.7 0.18,-1.81 0.18,-3.31l0 -6.6c0,-1.1 -0.07,-1.87 -0.22,-2.3 -0.13,-0.45 -0.43,-0.79 -0.89,-1.05 -0.46,-0.25 -1.18,-0.41 -2.17,-0.47l0 -0.66zm-63.74 9.38l0 4.31c0,1.85 0.05,3.01 0.12,3.51 0.07,0.49 0.27,0.87 0.6,1.13 0.32,0.25 0.97,0.38 1.94,0.38 1.7,0 2.99,-0.39 3.84,-1.17 0.85,-0.78 1.28,-1.95 1.28,-3.51 0,-1.61 -0.48,-2.78 -1.45,-3.54 -0.97,-0.76 -2.67,-1.14 -5.11,-1.14 -0.38,0 -0.79,0.01 -1.22,0.03zm0 -0.7c0.27,0.01 0.49,0.01 0.68,0.01 2.31,0 3.88,-0.32 4.73,-0.97 0.84,-0.65 1.27,-1.69 1.27,-3.14 0,-1.01 -0.17,-1.79 -0.5,-2.35 -0.34,-0.55 -0.83,-0.97 -1.49,-1.28 -0.67,-0.29 -1.8,-0.44 -3.41,-0.44 -0.41,-0.01 -0.84,0.01 -1.28,0.04l0 8.13zm3.93 0.27c2.47,0.16 4.3,0.71 5.51,1.64 1.19,0.94 1.79,2.1 1.79,3.51 0,1.21 -0.41,2.26 -1.22,3.15 -0.81,0.88 -1.85,1.46 -3.12,1.73 -1.27,0.26 -2.96,0.41 -5.09,0.41l-8.52 0 0 -0.67 0.83 0c0.93,0 1.58,-0.1 1.93,-0.31 0.35,-0.21 0.58,-0.53 0.68,-0.97 0.09,-0.45 0.15,-1.48 0.15,-3.1l0 -9.44c0,-1.56 -0.06,-2.58 -0.16,-3.04 -0.11,-0.46 -0.32,-0.77 -0.64,-0.94 -0.32,-0.17 -1.04,-0.26 -2.14,-0.26l-0.41 0 0 -0.66 3.57 -0.08 4.07 -0.12c5.94,0 8.91,1.53 8.91,4.58 0,1.26 -0.5,2.27 -1.53,3.03 -1.02,0.76 -2.55,1.28 -4.61,1.54z"></path>
   <path class="fil2" d="M559 90.79l0 -17.66c0.98,-1.83 2.42,-3.5 4.3,-5.05 1.88,-1.55 3.66,-2.46 5.32,-2.72 1.96,-0.34 3.63,0.2 4.98,1.61 0,0 0.12,0.18 0.34,0.55 0.23,0.37 0.57,0.93 1.02,1.67 0.53,0.87 1.21,1.31 2.03,1.31 1.59,0 2.38,-0.71 2.38,-2.12l0 -6.66c0,-2.76 -1.5,-4.27 -4.52,-4.54 -4.83,-0.4 -10.11,2.66 -15.85,9.18l0 -3.63c0,-1.01 0.11,-2.1 0.34,-3.28 0.22,-1.18 0.34,-1.87 0.34,-2.06 0,-0.88 -0.42,-1.52 -1.24,-1.93 -0.76,-0.26 -1.59,-0.26 -2.5,0 -2.41,1.21 -4.9,1.85 -7.46,1.93 -0.61,0.06 -1.33,0.07 -2.15,0.04 -0.84,-0.03 -1.81,-0.08 -2.95,-0.15 -2.48,-0.06 -3.73,0.64 -3.73,2.12 0,1.48 1.09,2.39 3.28,2.72 1.66,0.2 2.79,0.51 3.4,0.91 0.97,0.67 1.47,1.85 1.47,3.54l0 24.22c0,2.42 -0.76,4 -2.27,4.74 -0.15,0.06 -0.58,0.18 -1.3,0.35 -0.71,0.17 -1.72,0.39 -3,0.66 -1.51,0.33 -2.26,1.14 -2.26,2.42 0,1.15 0.72,1.85 2.15,2.12 0.3,0.07 1.66,0.1 4.07,0.1l16.64 0c2.34,0 3.66,-0.03 3.96,-0.1 1.44,-0.27 2.16,-0.97 2.16,-2.12 0,-1.28 -0.76,-2.09 -2.27,-2.42 -2.72,-0.48 -4.19,-0.78 -4.42,-0.91 -1.5,-0.81 -2.26,-2.42 -2.26,-4.84zm-49.69 -11.01c2.35,-0.74 4.31,-1.78 5.89,-3.12 0,4.91 -0.15,8.04 -0.45,9.38 -0.91,3.83 -3.02,6.66 -6.34,8.48 -1.74,0.94 -3.7,1.42 -5.88,1.42 -1.74,-0.01 -3.25,-0.38 -4.53,-1.12 -2.42,-1.41 -3.51,-3.43 -3.28,-6.06 0.07,-2.22 1.46,-4 4.18,-5.35 0.91,-0.46 3.81,-1.44 8.72,-2.92l1.69 -0.71zm5.78 16.05c0,4.37 0.34,6.7 1.02,6.96 0.6,0.34 2.48,0.03 5.66,-0.91 0.53,-0.13 1.24,-0.26 2.15,-0.4 0.9,-0.13 1.99,-0.27 3.28,-0.4 0.6,-0.07 1.24,-0.12 1.92,-0.16 0.68,-0.03 1.36,-0.08 2.04,-0.14 1.13,-0.14 1.96,-0.54 2.49,-1.22 0.52,-0.67 0.52,-1.31 0,-1.92 -0.23,-0.4 -0.87,-0.7 -1.92,-0.9 -1.51,-0.34 -2.57,-0.68 -3.17,-1.02 -1.28,-0.67 -2.12,-1.67 -2.49,-3.02 -0.08,-0.34 -0.12,-2.11 -0.12,-5.35l0 -12.41c0,-3.7 -0.23,-6.36 -0.68,-7.97 -0.75,-3.23 -2.63,-5.82 -5.65,-7.77 -2.57,-1.69 -6.23,-2.53 -10.98,-2.53 -4.91,0 -9.09,0.72 -12.57,2.12 -6.34,2.55 -9.73,5.15 -10.18,7.78 -0.38,1.74 0.3,3.19 2.03,4.33 1.21,0.88 2.68,1.05 4.42,0.51 1.21,-0.41 2.45,-1.28 3.73,-2.62 0.53,-0.54 1.02,-1.08 1.47,-1.62 0.46,-0.54 0.95,-1.07 1.48,-1.61 1.88,-1.89 4.15,-3.13 6.79,-3.74 3.02,-0.74 5.51,-0.26 7.47,1.41 1.74,1.48 2.33,3.2 1.81,5.15 -0.68,2.36 -2.76,4.28 -6.23,5.75 -0.9,0.41 -3.51,1.21 -7.81,2.42l-3.62 1.01c-4.68,1.35 -8.07,2.79 -10.19,4.34 -2.56,1.82 -3.99,4.38 -4.3,7.67 -0.53,4.91 1.71,8.61 6.68,11.1 2.34,1.08 4.91,1.61 7.7,1.61 5.58,0 11.51,-2.14 17.77,-6.45zm-61.68 5.35l16.52 0c2.42,0 3.77,-0.03 4.07,-0.1 1.44,-0.27 2.16,-0.97 2.16,-2.12 0,-1.28 -0.76,-2.09 -2.27,-2.42 -2.71,-0.48 -4.19,-0.78 -4.41,-0.91 -1.51,-0.74 -2.27,-2.36 -2.27,-4.84l0 -28.06c0,-1.01 0.11,-2.1 0.35,-3.28 0.22,-1.18 0.33,-1.87 0.33,-2.06 0,-0.88 -0.41,-1.52 -1.24,-1.93 -0.76,-0.26 -1.59,-0.26 -2.49,0 -2.42,1.21 -4.9,1.85 -7.47,1.93 -0.61,0.06 -1.32,0.07 -2.15,0.04 -0.83,-0.03 -1.81,-0.08 -2.94,-0.15 -2.49,-0.06 -3.74,0.64 -3.74,2.12 0,1.48 1.09,2.39 3.28,2.72 1.66,0.2 2.79,0.51 3.4,0.91 0.98,0.67 1.47,1.85 1.47,3.54l0 24.22c0,2.42 -0.76,4.03 -2.27,4.84 -0.22,0.06 -1.66,0.37 -4.3,0.91 -1.5,0.33 -2.26,1.14 -2.26,2.42 0,1.15 0.72,1.85 2.15,2.12 0.31,0.07 1.66,0.1 4.07,0.1l0.01 0zm0 -58.23c0,1.82 0.69,3.33 2.09,4.54 1.39,1.21 3.08,1.82 5.04,1.82 2.03,0 3.75,-0.64 5.14,-1.92 1.39,-1.28 2.1,-2.79 2.1,-4.54 0,-1.82 -0.71,-3.33 -2.1,-4.54 -1.39,-1.22 -3.11,-1.81 -5.14,-1.81 -1.96,0 -3.65,0.6 -5.04,1.81 -1.4,1.21 -2.1,2.76 -2.1,4.64l0.01 0zm-49.01 18.67l0 -26.54c0,-1.95 0.5,-3.57 1.47,-4.84 0.3,-0.34 0.74,-0.78 1.3,-1.32 0.57,-0.54 1.27,-1.14 2.1,-1.81 0.37,-0.34 0.56,-0.74 0.56,-1.21 0.08,-0.47 -0.07,-0.88 -0.45,-1.21 -0.83,-0.95 -1.89,-1.12 -3.17,-0.51l-17.43 8.28c-1.36,0.67 -2.07,1.38 -2.15,2.12 -0.23,1.01 0.04,1.71 0.79,2.11 0.76,0.4 1.55,0.51 2.38,0.31 0.23,-0.07 0.56,-0.11 1.02,-0.11 1.58,0 2.37,1.15 2.37,3.44l0 49.04c0,1.62 -0.11,3.12 -0.33,4.5 -0.23,1.37 -0.46,2.56 -0.68,3.57 -0.23,1.01 -0.46,1.79 -0.68,2.33 -0.23,0.53 -0.34,0.8 -0.34,0.8 0,1.15 0.83,1.62 2.49,1.42 1.5,-0.61 2.52,-1.15 3.05,-1.62 1.36,-0.81 2.34,-1.21 2.94,-1.21 1.36,0 3.85,0.58 7.48,1.71 2.79,0.88 5.36,1.38 7.69,1.52 3.17,0.2 6.57,-0.3 10.19,-1.52 4.15,-1.48 7.47,-3.6 9.96,-6.35 4.37,-4.71 6.56,-10.26 6.56,-16.66 0,-2.08 -0.3,-4.13 -0.9,-6.15 -1.97,-6.66 -6.38,-11.2 -13.24,-13.62 -2.27,-0.81 -4.6,-1.21 -7.02,-1.21 -4.83,0 -10.15,1.58 -15.96,4.74zm0 19.78l0 -13.02c4.15,-3.1 8,-4.64 11.54,-4.64 1.43,0 2.84,0.27 4.19,0.8 5.51,2.29 8.72,6.73 9.62,13.32 0.08,0.41 0.13,0.83 0.17,1.27 0.04,0.44 0.06,0.93 0.06,1.46 0,7.2 -2.49,12.21 -7.47,15.04 -1.81,1.01 -4.15,1.51 -7.02,1.51 -2.12,0 -3.89,-0.33 -5.32,-1.01 -2.86,-1.42 -4.64,-3.49 -5.31,-6.26 -0.31,-1.07 -0.46,-3.89 -0.46,-8.47zm-57.95 -17.56c-2.33,-3.1 -4.45,-5.05 -6.33,-5.85 -1.66,-0.74 -3.48,-1.11 -5.44,-1.11 -5.2,0 -10.71,1.98 -16.52,5.95 0,-1.01 0.11,-2.1 0.34,-3.28 0.22,-1.18 0.33,-1.9 0.33,-2.16 0,-0.88 -0.41,-1.52 -1.24,-1.93 -0.75,-0.26 -1.59,-0.26 -2.49,0 -2.41,1.21 -4.9,1.85 -7.47,1.93 -0.61,0.06 -1.32,0.07 -2.15,0.04 -0.83,-0.03 -1.8,-0.08 -2.94,-0.15 -2.49,-0.06 -3.73,0.64 -3.73,2.12 0,1.48 1.08,2.39 3.28,2.72 1.66,0.2 2.79,0.51 3.39,0.91 0.98,0.67 1.48,1.85 1.48,3.54l0 24.22c0,2.48 -0.72,4.06 -2.16,4.74 -0.22,0.19 -1.5,0.53 -3.85,1.01 -1.43,0.27 -2.14,1.07 -2.14,2.42 0,1.15 0.71,1.85 2.14,2.12 0.31,0.07 1.62,0.1 3.97,0.1l15.28 0c2.33,0 3.65,-0.03 3.96,-0.1 1.35,-0.27 2.03,-0.97 2.03,-2.12 0,-1.28 -0.68,-2.09 -2.03,-2.42 -2.41,-0.54 -3.74,-0.85 -3.96,-0.91 -1.37,-0.81 -2.04,-2.42 -2.04,-4.84l0 -11.61c0,-4.31 0.15,-7.03 0.45,-8.18 0.68,-2.75 2.37,-4.84 5.09,-6.25 1.44,-0.74 3.06,-1.11 4.87,-1.11 1.66,0 3.05,0.3 4.19,0.9 2.26,1.15 3.69,3 4.3,5.56 0.23,0.94 0.34,3.16 0.34,6.65l0 14.04c0,2.48 -0.57,4.13 -1.7,4.93 -0.08,0.08 -1.06,0.34 -2.94,0.82 -1.14,0.33 -1.7,1.14 -1.7,2.42 0,1.15 0.72,1.85 2.15,2.12 0.3,0.07 1.66,0.1 4.08,0.1l11.88 0c2.49,0 3.88,-0.03 4.19,-0.1 1.28,-0.34 1.91,-1.05 1.91,-2.12 0,-1.15 -0.56,-1.89 -1.69,-2.22 -1.66,-0.28 -2.72,-0.54 -3.17,-0.8 -1.13,-0.81 -1.69,-2.53 -1.69,-5.15l0 -13.03 0 -5.04c0,-1.28 0.04,-2.09 0.11,-2.42 0.3,-2.02 1.39,-3.64 3.28,-4.85 1.21,-0.87 2.76,-1.3 4.64,-1.3 1.06,0 2.15,0.16 3.28,0.5 3.93,1.34 6.27,4.71 7.02,10.09 0.22,1.61 0.34,3.36 0.34,5.24 0,5.12 -0.71,10.13 -2.15,15.04 -1.43,4.92 -3.78,9.42 -7.01,13.52 -1.06,1.35 -3.21,3.67 -6.46,6.97 -0.83,0.66 -1.09,1.41 -0.79,2.21 0.38,0.68 1.02,0.85 1.92,0.51 1.36,-0.4 4,-2.38 7.93,-5.95 1.66,-1.55 3.13,-2.98 4.41,-4.29 1.29,-1.31 2.33,-2.5 3.17,-3.58 6.94,-8.55 10.41,-17.46 10.41,-26.74 0,-3.77 -0.68,-7.13 -2.04,-10.09 -1.35,-3.04 -3.5,-5.49 -6.45,-7.37 -2.94,-1.89 -6.22,-2.82 -9.84,-2.82 -4.98,0 -9.66,2.14 -14.04,6.45zm-77.98 15.94c2.34,-0.74 4.3,-1.78 5.89,-3.12 0,4.91 -0.15,8.04 -0.46,9.38 -0.9,3.83 -3.02,6.66 -6.33,8.48 -1.74,0.94 -3.7,1.42 -5.89,1.42 -1.73,-0.01 -3.24,-0.38 -4.52,-1.12 -2.42,-1.41 -3.52,-3.43 -3.28,-6.06 0.07,-2.22 1.47,-4 4.18,-5.35 0.9,-0.46 3.81,-1.44 8.71,-2.92l1.7 -0.71zm5.77 16.05c0,4.37 0.35,6.7 1.03,6.96 0.59,0.34 2.48,0.03 5.65,-0.91 0.53,-0.13 1.24,-0.26 2.15,-0.4 0.91,-0.13 2,-0.27 3.28,-0.4 0.61,-0.07 1.25,-0.12 1.93,-0.16 0.68,-0.03 1.35,-0.08 2.03,-0.14 1.14,-0.14 1.97,-0.54 2.5,-1.22 0.52,-0.67 0.52,-1.31 0,-1.92 -0.23,-0.4 -0.87,-0.7 -1.93,-0.9 -1.51,-0.34 -2.56,-0.68 -3.17,-1.02 -1.28,-0.67 -2.11,-1.67 -2.49,-3.02 -0.08,-0.34 -0.11,-2.11 -0.11,-5.35l0 -12.41c0,-3.7 -0.23,-6.36 -0.68,-7.97 -0.76,-3.23 -2.64,-5.82 -5.66,-7.77 -2.57,-1.69 -6.23,-2.53 -10.97,-2.53 -4.91,0 -9.1,0.72 -12.57,2.12 -6.34,2.55 -9.74,5.15 -10.19,7.78 -0.37,1.74 0.3,3.19 2.04,4.33 1.2,0.88 2.68,1.05 4.41,0.51 1.21,-0.41 2.46,-1.28 3.74,-2.62 0.53,-0.54 1.02,-1.08 1.47,-1.62 0.46,-0.54 0.94,-1.07 1.47,-1.61 1.89,-1.89 4.15,-3.13 6.79,-3.74 3.02,-0.74 5.51,-0.26 7.47,1.41 1.74,1.48 2.34,3.2 1.81,5.15 -0.67,2.36 -2.75,4.28 -6.22,5.75 -0.91,0.41 -3.51,1.21 -7.81,2.42l-3.62 1.01c-4.68,1.35 -8.08,2.79 -10.18,4.34 -2.57,1.82 -4.01,4.38 -4.31,7.67 -0.53,4.91 1.69,8.61 6.68,11.1 2.34,1.08 4.9,1.61 7.7,1.61 5.58,0 11.5,-2.14 17.76,-6.45zm-57.04 -51.87l0 22c-7.47,-11.3 -15.73,-20.05 -24.78,-26.24 -7.85,-5.38 -14.95,-7.97 -21.29,-7.77 -3.01,0.07 -5.31,1.48 -6.9,4.24 -0.38,0.6 -1.05,2.42 -2.04,5.45 -0.98,3.02 -1.54,4.91 -1.69,5.65 -0.22,1.28 0.45,1.92 2.03,1.92 0.61,0 1.06,-0.13 1.36,-0.41 0.46,-0.47 0.91,-0.93 1.36,-1.41 0.45,-0.47 0.87,-0.95 1.25,-1.41 1.36,-1.41 2.72,-2.12 4.08,-2.12 1.27,0 2.78,0.6 4.52,1.82l0 45.11c0,2.42 -0.75,4 -2.26,4.74 -0.15,0.06 -0.59,0.18 -1.31,0.35 -0.71,0.17 -1.71,0.39 -3,0.66 -1.51,0.33 -2.25,1.14 -2.25,2.42 0,1.15 0.71,1.85 2.14,2.12 0.3,0.07 1.62,0.1 3.96,0.1l14.26 0c2.27,0 3.55,-0.03 3.85,-0.1 1.44,-0.27 2.15,-0.97 2.15,-2.12 0,-1.28 -0.75,-2.09 -2.26,-2.42 -2.64,-0.54 -4.07,-0.85 -4.3,-0.91 -1.51,-0.74 -2.27,-2.36 -2.27,-4.84l0 -39.46c2.64,1.34 5.53,3.59 8.66,6.76 3.13,3.16 6.62,7.19 10.47,12.11 7.92,10.43 12.23,18.73 12.91,24.93 0.15,1.33 0.26,2.38 0.34,3.12 0.07,0.74 0.14,1.18 0.22,1.31 0.3,1.08 1.05,1.62 2.26,1.62l4.3 0c1.59,0 2.5,-0.44 2.72,-1.31 0.15,-0.68 0.22,-3.03 0.22,-7.07l0 -48.84c0,-2.42 0.76,-4.03 2.27,-4.84 0.23,-0.07 1.66,-0.37 4.3,-0.91 1.51,-0.34 2.26,-1.15 2.26,-2.42 0,-1.15 -0.71,-1.86 -2.14,-2.13 -0.31,-0.06 -1.63,-0.09 -3.97,-0.09l-14.14 0c-2.42,0 -3.78,0.03 -4.08,0.09 -1.44,0.27 -2.15,0.98 -2.15,2.13 0,1.27 0.76,2.08 2.27,2.42 1.35,0.26 2.39,0.49 3.11,0.66 0.71,0.16 1.15,0.28 1.3,0.35 1.51,0.74 2.26,2.32 2.26,4.74z"></path>
   <polygon class="fil3" points="0.06,0.06 147.1,0.06 147.1,141.39 0.06,141.39 "></polygon>
   <g style="clip-path:url(#id0)">
    <image x="-0.04" y="-0.11" width="147.39" height="134.88"></image>
   </g>
   <path class="fil4" d="M72.95 139.62c-10.25,-3.37 -19.64,-8.45 -25.98,-16.9 -10.55,-14.06 -13.53,-30.53 -5.35,-47.13 6.74,-13.66 12.22,-25.33 13.38,-35.79 15.62,19.41 23.19,37.91 20.07,55.18 9.51,-15.42 13.06,-32.08 11.52,-50.06 -1.63,-19.06 6.55,-32.79 23.64,-41.14 -11.47,10.47 -16.49,23.48 -12.94,36.96 3.77,14.21 8.15,28.25 4.84,42.04 -3.31,13.74 -14.94,21.72 -30.37,24.99 3.14,-17.63 0.53,-33.88 -14.75,-47.09 -0.45,10.79 -3.02,21.4 -5.54,32.36 -2.1,9.1 -1.56,18.24 2.19,26.1 3.64,7.59 10.71,14.2 19.29,20.48z"></path>
  </g>
 </g>
</svg>
