<?xml version="1.0" encoding="UTF-8" standalone="no"?>
<svg xmlns="http://www.w3.org/2000/svg" xmlns:xlink="http://www.w3.org/1999/xlink" xmlns:serif="http://www.serif.com/" width="100%" height="100%" viewBox="0 0 183 107" version="1.1" xml:space="preserve" style="fill-rule:evenodd;clip-rule:evenodd;stroke-linejoin:round;stroke-miterlimit:2;">
    <g transform="matrix(1,0,0,1,-5109.32,-3864.37)">
        <g id="marathon-2023-logo.svg" serif:id="marathon 2023 logo.svg" transform="matrix(0.0653749,0,0,0.0653749,5200.75,3917.59)">
            <g transform="matrix(1,0,0,1,-1398.5,-814)">
                <g id="Layer_x0020_1">
                    <g id="_1594058037104">
                        <path d="M2548.65,594.16L2564.65,617.959L2553.84,627.564L2533.96,645.218C2533.29,645.96 2531.77,647.831 2531.28,648.467L2492.16,697.301L2479.83,712.66L2473.51,696.524L2458.93,659.095L2457.69,658.778C2455.86,658.318 2453.99,657.895 2452.11,657.471L2407.13,647.372L2407.52,645.501L2413.1,616.335L2415.85,602.105C2417.16,595.431 2418.43,588.581 2419.73,581.555C2420.41,577.882 2421.08,574.14 2421.75,570.397L2427.22,539.642L2457.62,532.474C2462.03,531.45 2466.17,530.602 2470.16,529.79C2471.99,529.402 2473.86,529.013 2475.7,528.625L2478.17,528.095L2489.26,525.73L2601.37,501.825L2551.47,567.184L2543.95,577L2540.32,581.802C2540.74,582.437 2541.13,583.002 2541.38,583.391L2548.19,593.525L2548.65,594.16Z" style="fill:rgb(57,70,145);fill-rule:nonzero;"></path>
                        <path d="M2475.07,611.321C2476.94,611.003 2478.77,610.791 2480.57,610.791C2483.01,610.756 2485.16,611.038 2487.03,611.674C2488.91,612.345 2490.43,613.298 2491.66,614.569C2492.79,615.699 2493.57,617.147 2494.17,618.771C2496.71,615.593 2499.25,612.486 2502.01,610.05C2501.48,609.238 2500.98,608.426 2500.38,607.719C2498.37,605.565 2495.93,603.941 2493,602.847C2490.07,601.787 2486.68,601.399 2482.87,601.646C2481.35,601.752 2479.83,601.929 2478.21,602.211C2476.62,602.493 2474.92,602.847 2473.16,603.341C2474.15,597.868 2475.14,592.324 2476.12,586.675C2477.04,586.498 2477.99,586.392 2478.95,586.251C2480.68,582.261 2482.97,578.553 2485.62,575.128C2479.9,576.329 2474.22,577.388 2468.53,578.73C2466.52,589.958 2464.54,600.728 2462.53,611.074C2464.79,611.603 2467.09,612.133 2469.34,612.733C2471.29,612.098 2473.19,611.639 2475.07,611.321Z" style="fill:rgb(57,70,145);fill-rule:nonzero;"></path>
                        <path d="M2553.88,625.657C2553.88,626.292 2553.84,626.928 2553.84,627.564C2553.63,637.38 2551.83,646.56 2548.47,654.999C2544.27,665.698 2537.88,674.773 2529.51,681.87L2529.41,681.976C2520.76,689.321 2510.16,694.299 2498.79,696.418C2496.6,696.806 2494.38,697.124 2492.16,697.301C2490.11,697.477 2488.06,697.583 2486.01,697.583C2481.91,697.583 2477.75,697.195 2473.51,696.524C2472.17,696.277 2470.83,696.029 2469.45,695.747C2464.44,694.652 2459.53,693.099 2454.83,691.121C2450.77,689.427 2446.85,687.449 2443.11,685.225C2439.79,683.212 2436.58,681.023 2433.51,678.657L2433.43,678.586C2430.72,676.468 2428.14,674.279 2425.84,672.089L2399.25,646.772L2391.13,639.039L2413.13,616.335L2424.47,604.612C2425.28,603.8 2426.09,602.953 2426.87,602.07C2436.44,591.583 2450.07,585.58 2464.3,585.58C2465.04,585.58 2465.78,585.58 2466.55,585.615L2470.37,583.285C2472.2,582.155 2474.01,581.025 2475.81,579.86C2477.22,578.977 2478.63,578.059 2480.01,577.176L2535.2,542.643L2543.95,577L2548.19,593.525L2548.47,594.619L2551.3,605.707C2552.99,612.345 2553.88,619.054 2553.88,625.657Z" style="fill:rgb(57,70,145);fill-rule:nonzero;"></path>
                        <path d="M2467.51,644.406C2469.27,645.466 2471.18,646.454 2473.19,647.266C2475.21,648.114 2477.33,648.82 2479.55,649.279C2483.36,650.127 2486.89,650.268 2490.14,649.668C2493.43,649.067 2496.25,647.761 2498.65,645.713C2501.05,643.665 2502.96,640.946 2504.3,637.521C2505.64,634.096 2506.35,630.141 2506.35,625.692C2506.35,622.761 2505.93,620.043 2505.26,617.465C2501.9,619.583 2498.58,621.737 2495.16,623.821C2495.19,624.421 2495.4,624.88 2495.4,625.48C2495.4,627.987 2495.09,630.282 2494.38,632.33C2493.71,634.378 2492.72,636.038 2491.41,637.344C2490.11,638.651 2488.52,639.569 2486.61,640.063C2484.7,640.558 2482.59,640.593 2480.15,640.204C2477.96,639.851 2476.09,639.286 2474.46,638.51C2472.88,637.733 2471.5,636.991 2470.33,636.25C2469.17,635.473 2468.14,634.802 2467.26,634.166C2466.38,633.566 2465.57,633.213 2464.83,633.142C2463.62,632.966 2462.71,633.319 2461.97,634.096C2460.87,635.332 2459.74,636.497 2458.61,637.662C2459.81,638.792 2461.15,639.957 2462.64,641.087C2464.12,642.252 2465.74,643.382 2467.51,644.406Z" style="fill:rgb(57,70,145);fill-rule:nonzero;"></path>
                        <path d="M2551.47,513.901L2551.47,576.541C2551.47,582.649 2550.52,588.581 2548.65,594.16C2548.58,594.337 2548.55,594.478 2548.47,594.619C2546.5,600.34 2543.57,605.707 2539.72,610.544C2531.21,621.349 2518.53,628.446 2504.12,630.459C2501.48,630.812 2498.69,631.271 2495.69,631.73L2492.4,632.26L2407.52,645.501L2399.25,646.772L2340.78,655.882L2419.73,581.555L2452.5,550.694C2457.87,545.644 2463.41,540.666 2468.99,535.934L2478.17,528.095L2478.49,527.813L2489.26,525.73L2490.74,525.447C2490.92,525.412 2491.2,525.341 2491.45,525.271C2492.68,525.023 2493.92,524.741 2495.16,524.529L2551.47,513.901Z" style="fill:rgb(57,70,145);fill-rule:nonzero;"></path>
                        <path d="M2497.56,583.391C2499.85,583.073 2501.48,582.296 2502.47,581.06C2503.45,579.789 2503.95,578.306 2503.95,576.541L2503.95,571.209C2502.57,571.491 2501.19,571.844 2499.78,572.092C2494.77,576.364 2489.86,580.778 2485.06,585.298C2489.22,584.662 2493.39,583.956 2497.56,583.391Z" style="fill:rgb(57,70,145);fill-rule:nonzero;"></path>
                        <path d="M2324.61,616.406C2322.99,612.839 2321.26,609.344 2319.52,605.919C2322.7,601.364 2326.55,595.608 2330.79,588.864C2341.88,571.244 2355.19,546.739 2365.78,520.928C2371.11,508.039 2375.81,494.904 2379.69,482.404C2383.4,469.905 2387,458.041 2388.63,447.801C2390.32,437.525 2389.23,428.592 2386.54,423.119C2383.97,417.54 2380.72,415.563 2380.86,415.457C2380.72,415.563 2384.04,417.363 2386.93,422.907C2389.97,428.345 2391.49,437.455 2390.29,448.012C2389.09,458.605 2386.08,470.47 2382.91,483.322C2379.59,496.069 2375.49,509.558 2370.72,522.834C2361.26,549.423 2348.9,574.952 2338.45,593.419C2333.22,602.67 2328.56,610.226 2325.24,615.452C2325,615.805 2324.82,616.052 2324.61,616.406ZM2542.72,1548.76C2543,1548.84 2543.14,1548.94 2543.43,1549.01C2547.13,1549.86 2551.97,1549.79 2556.53,1547.88C2557.62,1547.35 2558.75,1546.75 2559.63,1546.15C2560.09,1545.94 2560.76,1545.27 2561.29,1544.85C2561.96,1544.32 2562.07,1544.14 2562.67,1543.54C2564.54,1541.56 2566.16,1539.12 2567.79,1536.51C2570.9,1531.32 2574.74,1525.42 2580.04,1522.14C2585.2,1518.75 2590.78,1517.2 2595.51,1516.91C2600.27,1516.53 2604.19,1517.41 2606.81,1518.22C2609.42,1519.03 2610.76,1519.81 2610.76,1519.81C2610.76,1519.81 2609.31,1519.17 2606.66,1518.64C2604.05,1518.15 2600.17,1517.69 2595.72,1518.54C2591.27,1519.32 2586.26,1521.33 2582.02,1524.82C2577.68,1528.32 2575.06,1533.4 2572.41,1539.09C2571.04,1541.88 2569.55,1544.81 2567.51,1547.53C2567.12,1548.09 2566.27,1549.08 2565.78,1549.58C2565.18,1550.14 2564.86,1550.6 2564.08,1551.24C2562.67,1552.51 2561.22,1553.46 2559.77,1554.31C2554.41,1557.31 2548.58,1558.19 2543.53,1557.87C2543.49,1557.24 2543.57,1556.64 2543.53,1556C2543.43,1554.41 2543.21,1552.79 2543,1551.13C2542.89,1550.32 2542.82,1549.54 2542.72,1548.76ZM2426.37,1095.03C2414.01,1068.55 2405.75,1050.89 2405.75,1050.89C2405.75,1050.89 2416.45,1067.21 2430.36,1093.05C2437.11,1106.05 2445.02,1121.34 2451.83,1138.43C2458.72,1155.48 2464.86,1174.27 2469.27,1193.51C2471.39,1203.15 2472.8,1212.93 2473.86,1222.61C2474.89,1232.32 2475.21,1241.89 2475.88,1250.82C2477.25,1268.86 2479.12,1285.7 2481.91,1299.97C2484.7,1314.24 2487.49,1326.07 2490,1334.22C2492.51,1342.38 2493.92,1347.04 2493.92,1347.04C2493.92,1347.04 2491.73,1342.66 2488.55,1334.72C2485.41,1326.74 2481.1,1315.26 2477.57,1300.92C2474.11,1286.66 2470.69,1269.75 2469.03,1251.38C2468.14,1242.1 2467.65,1232.78 2466.52,1223.42C2465.32,1214.06 2463.77,1204.56 2461.54,1195.21C2457.59,1176.35 2451.9,1157.85 2445.44,1140.9C2438.98,1123.95 2432.52,1108.24 2426.37,1095.03ZM2400.24,840.977C2407.16,842.425 2414.37,844.861 2421.36,847.827C2428.17,851.075 2434.78,854.889 2440.46,859.126C2446.04,863.469 2450.98,867.918 2454.59,872.226C2458.36,876.393 2460.98,880.453 2462.67,883.102C2464.37,885.891 2465.25,887.515 2465.25,887.515C2465.25,887.515 2463.84,886.315 2461.51,884.09C2459.18,881.76 2455.72,878.9 2451.48,875.51C2443.07,868.66 2431.03,860.892 2418.07,855.065C2405.15,849.204 2391.35,845.355 2380.65,843.59C2375.35,842.636 2370.79,841.93 2367.58,841.718C2364.4,841.471 2362.53,841.189 2362.53,841.189C2362.53,841.189 2364.33,840.765 2367.55,840.2C2370.76,839.706 2375.42,838.964 2381.03,839.035C2386.68,838.894 2393.29,839.635 2400.24,840.977ZM2384.95,816.895C2384.95,816.895 2391.1,817.425 2400,820.003C2408.93,822.439 2420.26,827.559 2430.68,834.268C2440.89,841.259 2450.03,849.734 2455.75,857.008C2461.61,864.211 2464.47,869.613 2464.47,869.613C2464.47,869.613 2463.38,868.554 2461.47,866.647C2459.63,864.67 2456.88,862.127 2453.6,859.02C2450.38,855.842 2446.22,852.594 2441.94,848.957C2437.6,845.426 2432.76,841.895 2427.75,838.682C2422.81,835.327 2417.72,832.22 2412.74,829.607C2407.73,827.065 2403.14,824.487 2398.97,822.792C2390.71,819.085 2384.95,816.895 2384.95,816.895ZM2507.94,453.132C2506.56,449.955 2505.08,448.33 2505.08,448.33C2505.08,448.33 2506.99,449.319 2509.28,452.356C2511.4,455.357 2514.01,460.653 2513.24,467.574C2512.78,470.964 2511.61,474.777 2508.93,477.991C2506.53,481.133 2502.75,483.887 2498.65,485.37C2494.52,486.853 2490,487.595 2485.48,487.242C2481.03,486.959 2476.34,485.688 2472.42,483.887C2464.08,479.933 2457.69,474.071 2452.25,468.422C2446.82,462.737 2442.26,457.334 2437.95,453.097C2433.65,448.86 2429.8,445.576 2426.72,443.775C2423.72,441.869 2421.82,440.951 2421.82,440.951C2421.82,440.951 2423.9,441.162 2427.4,442.363C2430.86,443.599 2435.76,445.823 2440.89,449.601C2446.11,453.238 2451.48,458.288 2457.13,463.372C2462.74,468.386 2468.89,473.648 2475.59,476.649C2479.12,478.344 2482.44,479.262 2486.08,479.615C2489.65,479.933 2493.21,479.721 2496.39,478.767C2499.61,477.743 2502.32,476.331 2504.51,474.071C2506.63,472.023 2507.97,469.375 2508.75,466.727C2510.23,461.36 2509.39,456.275 2507.94,453.132ZM2523.44,671.736C2493.53,675.303 2463.38,676.786 2433.22,676.15C2432.8,634.59 2432.23,592.995 2431.85,551.4L2533.96,551.4C2538.41,590.947 2520.68,632.013 2523.44,671.736ZM2373.2,429.722C2373.2,429.722 2372.1,429.228 2370.3,428.239C2368.53,427.18 2365.99,426.014 2362.96,424.496C2356.92,421.459 2348.9,417.964 2340.57,415.28C2332.31,412.561 2323.73,410.655 2317.09,409.595C2313.77,409.03 2310.91,408.465 2308.93,408.289C2306.92,408.042 2305.72,407.794 2305.72,407.794C2305.72,407.794 2310.1,405.923 2317.19,405.04C2324.22,404.087 2333.93,404.828 2343.04,407.759C2352.12,410.725 2360.38,415.88 2365.53,420.753C2370.79,425.697 2373.2,429.722 2373.2,429.722ZM2285.38,391.728C2285.38,391.728 2284.28,389.963 2282.55,386.82C2280.86,383.607 2278.18,379.37 2274.82,374.321C2268.25,364.151 2258.37,351.581 2246.89,340.564C2235.45,329.512 2222.53,320.049 2212.15,313.87C2207.03,310.727 2202.61,308.15 2199.4,306.596C2196.22,304.972 2194.39,303.913 2194.39,303.913C2194.39,303.913 2196.43,304.301 2199.93,305.148C2203.43,306.067 2208.47,307.338 2214.2,309.809C2220.06,312.034 2226.48,315.494 2233.16,319.661C2239.72,323.863 2246.26,329.159 2252.4,334.844C2258.3,340.776 2263.8,347.132 2268.29,353.558C2272.67,360.055 2276.34,366.376 2278.81,372.131C2281.43,377.746 2282.94,382.83 2283.97,386.22C2284.96,389.68 2285.38,391.728 2285.38,391.728ZM2574.99,501.436C2572.84,501.895 2571.21,503.661 2570.86,505.815C2570.47,508.534 2570.26,511.253 2569.98,513.971C2569.45,510.723 2568.88,507.051 2568.18,502.566C2566.09,490.208 2563.55,473.365 2554.9,459.488C2550.66,452.497 2544.66,446.953 2537.99,442.716C2531.53,438.408 2524.68,435.548 2518.5,434.771C2512.32,433.924 2506.99,434.983 2503.6,436.29C2500.56,437.455 2499.11,438.479 2498.76,438.761C2498.76,438.726 2498.79,438.691 2498.79,438.655C2499.43,438.161 2500.91,437.066 2503.42,435.866C2506.77,434.277 2512.11,432.759 2518.64,433.147C2525.2,433.429 2532.62,435.866 2539.72,439.856C2546.81,443.599 2554.09,449.248 2559.24,456.487C2564.54,463.655 2568.25,471.776 2570.9,479.509C2573.58,487.242 2575.42,494.586 2576.93,500.836L2576.93,500.907C2576.3,501.083 2575.63,501.295 2574.99,501.436ZM2553.91,1049.76C2552.43,1049.13 2550.98,1048.42 2549.43,1047.86C2539.01,1043.83 2527.57,1043.3 2526.55,1043.27C2528.07,1050.72 2529.37,1057.92 2530.39,1064.24C2532.02,1073.56 2532.66,1081.47 2533.26,1086.91C2533.72,1092.42 2533.96,1095.56 2533.96,1095.56C2533.96,1095.56 2530.82,1083.38 2526.05,1065.16C2523.86,1056.01 2520.65,1045.53 2517.61,1034.23C2514.54,1022.93 2510.9,1010.99 2507.02,999.13C2503.38,987.195 2499.5,975.331 2495.54,964.314C2491.48,953.333 2488.13,942.881 2484.67,934.16C2478.07,916.505 2473.69,904.711 2473.69,904.711C2473.69,904.711 2475.28,907.43 2478.1,912.197C2480.71,917.034 2484.74,923.849 2488.76,932.394C2492.86,940.904 2497.63,950.861 2501.97,961.878C2506.28,972.895 2510.59,984.759 2514.58,996.729C2518.18,1008.84 2521.46,1021.02 2524.29,1032.53C2525.17,1036.2 2525.8,1039.67 2526.55,1043.2C2527.5,1043.02 2538.8,1040.97 2550.66,1042.7C2551.9,1042.88 2553.06,1043.16 2554.3,1043.41C2554.16,1045.53 2554.09,1047.65 2553.91,1049.76ZM2289.48,1111.63C2288.73,1112.19 2287.85,1112.76 2286.47,1113.5C2282.31,1115.72 2277.61,1117.56 2273.3,1120.17C2269.07,1122.75 2265.25,1126.49 2262.5,1131.26C2256.71,1140.69 2256.18,1152.69 2257.66,1161.17C2259.11,1169.71 2261.47,1175.15 2261.47,1175.15C2261.47,1175.15 2258.51,1170.07 2256.07,1161.52C2253.6,1153.12 2252.47,1140.37 2257.77,1128.82C2260.27,1123.14 2264.41,1117.91 2269.17,1114.28C2273.9,1110.64 2278.53,1108.2 2281.85,1105.87C2282.17,1105.73 2282.7,1105.24 2283.19,1104.81C2283.44,1105.06 2283.68,1105.34 2283.9,1105.59C2285.73,1107.6 2287.57,1109.65 2289.48,1111.63ZM2380.08,1010.71C2383.72,1005.91 2387.95,1001.07 2393.11,996.729C2399.93,990.938 2407.87,985.995 2416.13,981.969C2420.26,979.957 2424.39,978.191 2428.63,976.602C2432.59,975.013 2437.42,973.566 2441.73,973.107C2450.52,972.083 2458.4,973.177 2464.93,974.166C2471.5,975.19 2476.87,976.073 2480.68,976.461C2484.49,976.885 2486.72,976.955 2486.72,976.955C2486.72,976.955 2484.53,977.238 2480.68,977.379C2476.8,977.556 2471.25,977.485 2464.68,977.45C2458.12,977.414 2450.45,977.591 2443.04,979.674C2439.19,980.734 2436.01,982.252 2432.2,984.406C2428.56,986.454 2424.89,988.714 2421.43,991.115C2414.47,995.917 2408.15,1001.36 2403.17,1007.11C2398.16,1012.83 2394.56,1018.69 2392.16,1024.02C2391.06,1026.39 2390.32,1028.54 2389.68,1030.56C2386.44,1023.99 2383.22,1017.35 2380.08,1010.71ZM1907.63,78.176C1907.92,84.038 1912.26,87.816 1916,90.464C1922.96,95.372 1930.44,99.503 1938.25,102.823L1940.76,103.811C1944.46,105.33 1947.92,106.742 1950.75,108.861C1953.43,110.873 1955.69,113.627 1958.13,116.735L1961.02,120.513C1968.51,130.188 1976.28,140.18 1986.59,147.631C1990.05,150.138 1993.79,152.327 1997.5,154.481C2002.87,157.588 2007.91,160.519 2012.05,164.438C2014.73,167.051 2017.02,170.017 2018.75,173.336C2052.47,236.93 2088.7,284.492 2136.3,327.535L2144.28,334.632C2151.55,341.059 2159.08,347.732 2165.82,354.794C2178.85,368.389 2189.51,383.925 2197.56,400.944C2199.72,405.499 2201.7,410.125 2203.67,414.751C2207.66,424.178 2211.76,433.924 2217.48,442.857C2225.53,455.463 2236.12,464.961 2246.33,474.107L2251.31,478.626C2254.52,481.522 2258.16,484.205 2261.86,486.924C2268.86,492.044 2275.46,496.881 2279.06,503.449C2281.6,508.11 2282.66,513.548 2283.72,519.621C2284.43,523.717 2285.1,527.778 2285.73,531.874C2288.66,549.846 2291.66,568.419 2298.51,585.862C2301.45,593.348 2305.08,600.551 2308.58,607.543C2309.95,610.297 2311.26,613.016 2312.57,615.699C2313.24,617.076 2313.98,618.489 2314.62,619.866C2316.56,624.103 2318.36,628.376 2319.88,632.754C2324.08,644.936 2325.85,657.612 2327.75,671.03C2328.81,678.657 2329.91,686.284 2331.42,693.805C2332.52,699.278 2333.9,704.716 2335.24,710.153C2337.64,719.687 2339.9,728.726 2340.89,738.048C2343.64,764.284 2335.73,791.26 2328.07,815.518C2327.36,816.26 2326.87,817.213 2326.69,818.308C2318.64,866.788 2328.88,903.934 2343.08,947.401C2351.37,972.718 2361.93,997.188 2373.34,1021.06C2376.55,1027.84 2379.83,1034.58 2383.15,1041.22C2389.05,1052.98 2395.02,1064.63 2400.91,1076.11L2425.17,1123.1C2390.92,1126.14 2363.03,1125.61 2335.55,1121.41C2325.39,1119.86 2312.46,1117.07 2302.65,1109.37C2301.13,1108.17 2299.72,1106.79 2298.3,1105.41C2296.11,1103.26 2293.96,1100.96 2291.77,1098.53C2291.56,1098.28 2291.35,1098.07 2291.1,1097.82C2289.48,1095.95 2287.82,1094.11 2286.09,1092.35L2282.38,1088.5C2269.42,1074.84 2249.86,1054.21 2230.65,1062.9C2217.27,1068.94 2207.77,1083.84 2205.3,1102.69C2204.1,1111.52 2204.34,1120.35 2204.55,1128.89C2204.73,1134.86 2204.87,1141.04 2204.55,1147.01C2203.92,1157.92 2201.55,1169.01 2199.26,1179.74C2196.36,1193.23 2193.4,1207.21 2193.61,1221.51C2193.75,1231.82 2197.95,1245.59 2206.99,1253.08C2212.08,1257.28 2218.01,1258.94 2224.19,1257.85C2239.12,1255.2 2244.39,1239.49 2248.59,1226.84L2249.08,1225.43C2256.39,1203.64 2274.29,1181.29 2297.77,1180.55C2309.18,1180.31 2320.34,1184.83 2330.4,1188.92L2449.57,1237.3C2452.57,1295.06 2475.84,1348.7 2498.33,1400.6C2515.04,1439.13 2532.3,1478.96 2541.2,1520.23C2541.8,1523.16 2542.33,1526.17 2541.41,1528C2540.92,1528.88 2539.86,1529.91 2538.76,1530.93C2537.35,1532.28 2535.73,1533.76 2534.49,1535.81C2532.83,1538.42 2532.2,1541.17 2532.02,1543.89C2531.81,1546.86 2532.16,1549.75 2532.55,1552.51C2532.66,1553.36 2532.73,1554.24 2532.8,1555.09C2532.87,1555.62 2532.94,1556.14 2532.97,1556.67C2533.33,1562.11 2531.84,1567.73 2530.25,1573.62C2528.88,1578.81 2527.43,1584.18 2527.11,1589.87C2525.95,1613.63 2543.46,1615.29 2556.24,1616.45C2559.42,1616.77 2562.67,1617.05 2565.67,1617.65C2592.58,1623.13 2620.29,1628 2647.52,1628C2669.09,1628 2690.35,1624.93 2710.62,1616.6C2719.3,1613.03 2723.75,1607.03 2722.52,1600.6C2721.95,1597.63 2720.26,1595.37 2718.67,1593.57C2708.39,1581.85 2694.55,1574.96 2681.17,1568.33C2669.83,1562.71 2659.14,1557.38 2650.52,1549.4C2643.18,1542.62 2637.67,1534.18 2631.84,1525.28C2628.2,1519.74 2624.43,1513.98 2620.19,1508.62C2617.15,1504.84 2613.83,1501.13 2610.51,1497.42C2599.99,1485.74 2590.07,1474.68 2589.61,1460.98C2589.58,1459.32 2588.73,1457.84 2587.49,1456.92C2581.84,1427.55 2575.59,1397.46 2569.55,1368.23C2562.78,1335.42 2555.75,1301.49 2549.57,1268.86C2546.36,1251.84 2543.04,1234.22 2543.21,1216.82C2543.28,1210.28 2543.81,1203.75 2544.38,1197.25C2545.01,1189.73 2545.65,1181.89 2545.54,1174.09C2545.51,1169.46 2545.19,1164.8 2544.87,1160.21C2544.38,1152.9 2543.88,1146.02 2544.41,1139.13C2545.33,1127.66 2548.97,1116.75 2552.85,1105.17C2554.72,1099.48 2556.6,1093.83 2558.18,1088.11C2561.15,1077.2 2562.81,1066.11 2563.94,1055.03C2564.22,1051.99 2564.54,1048.95 2564.75,1045.92C2565.53,1034.86 2565.88,1023.78 2566.16,1012.9C2566.55,997.4 2567.54,981.263 2568.46,965.656C2570.15,937.726 2571.89,908.807 2570.51,881.16C2569.59,863.363 2566.66,846.097 2563.83,829.43C2559.53,804.184 2555.5,780.35 2557.66,754.291C2559.6,730.916 2564.15,707.399 2568.57,684.66C2571.95,667.217 2575.45,649.138 2577.78,631.13C2580.43,610.65 2579.87,590.206 2579.3,570.432C2578.84,554.472 2578.49,538.088 2579.76,521.846C2579.93,519.692 2580.15,517.573 2580.39,515.419C2580.57,513.936 2580.61,512.418 2580.82,510.899C2598.51,506.097 2616.55,493.492 2629.72,476.578C2633.78,471.352 2637.21,465.738 2640.53,460.336C2645.15,452.779 2649.57,445.611 2655.32,439.679C2661.36,433.5 2668.7,428.804 2676.51,423.86C2684.17,418.952 2692.08,413.938 2698.82,407.265C2708.71,397.413 2715.07,385.267 2721.21,373.509L2724.35,367.471C2733.18,351.051 2737.81,341.906 2740.1,336.645C2746.78,337.492 2753.66,335.303 2758.5,330.572C2759.35,329.76 2760.12,328.841 2760.9,327.923C2762.13,326.546 2763.34,325.099 2764.32,324.816C2764.82,324.675 2765.77,324.71 2766.69,324.745C2766.76,324.745 2767.89,324.781 2767.93,324.781C2773.96,325.275 2779.83,323.051 2784.91,321.462C2787.77,320.579 2792.04,319.237 2794.73,315.353C2798.43,310.021 2796.56,305.925 2795.61,304.407C2792.36,299.358 2784.56,298.651 2780.39,299.393L2777.88,299.923C2769.94,301.617 2765.1,302.253 2762.17,302.394C2763.23,301.688 2764.47,301.017 2765.74,300.346C2770.61,297.733 2775.45,294.767 2778.13,289.541C2780,285.869 2780.14,281.208 2778.52,277.395C2777.07,274.111 2774.56,271.816 2771.35,270.898C2764.04,268.779 2758.5,274.323 2754.83,277.995C2751.12,281.667 2745.96,285.34 2743.1,286.575C2743.81,283.398 2746.39,277.819 2747.66,275.17C2749.18,271.887 2750.41,269.274 2750.87,267.226C2752.42,260.517 2750.34,254.585 2745.5,252.113C2741.27,249.924 2735.76,251.054 2732.09,254.797C2729.37,257.586 2728.1,261.117 2727.14,263.659L2723.96,272.416C2723.72,270.015 2723.72,267.402 2723.72,264.825C2723.68,261.294 2723.65,257.621 2723.12,254.161C2721.78,245.545 2716.51,240.319 2710.34,241.026C2707.83,241.308 2701.83,243.144 2700.34,253.702C2700.17,254.938 2699.92,256.174 2699.71,257.409C2699.14,260.375 2698.51,263.73 2698.65,267.12C2698.75,268.779 2699.07,270.333 2699.42,271.887C2698.93,271.569 2698.43,271.286 2697.98,271.004C2690.95,266.767 2683.04,261.929 2676.47,264.895C2674.21,265.954 2671.32,268.32 2670.36,273.793C2669.16,280.749 2674.88,284.739 2678.31,287.105C2679.4,287.847 2681.03,289.012 2681.38,289.577C2681.52,289.824 2681.56,290.883 2681.59,291.695C2682.09,300.417 2685.62,306.42 2691.34,308.679C2691.97,308.962 2692.64,309.139 2693.28,309.315C2694.59,309.88 2694.94,311.081 2694.55,312.21C2689.78,326.229 2671.95,334.526 2657.62,341.2C2654.69,342.577 2651.83,343.919 2649.25,345.225C2624.43,357.654 2602.18,375.698 2584.95,397.449L2584.07,398.508C2580.04,403.628 2575.88,408.889 2570.58,410.443C2565.88,411.855 2560.48,410.301 2554.76,408.677C2552.08,407.936 2549.43,407.194 2546.74,406.7C2528.24,403.134 2502.54,412.526 2491.24,430.181C2486.01,423.013 2482.09,415.033 2484.74,408.042C2485.91,404.864 2488.45,402.004 2491.1,398.932C2494.34,395.259 2498.02,391.058 2499.78,385.585C2502.36,377.428 2499.78,368.954 2497.91,362.739C2495.54,355.041 2492.44,347.768 2489.4,340.706C2488.48,338.587 2487.42,336.716 2486.4,334.915C2484.18,330.96 2482.83,328.382 2483.08,325.31L2483.33,323.262C2483.82,319.272 2484.53,313.799 2479.51,308.997C2475.98,305.608 2471.82,304.831 2468.5,304.195C2466.59,303.842 2464.97,303.524 2463.62,302.853C2462.32,302.182 2461.05,300.805 2459.67,299.322L2458.01,297.592C2451.76,291.166 2443.32,287.105 2434.35,286.187C2426.16,285.34 2418,284.704 2408.47,286.399C2388.66,289.859 2372.98,303.206 2358.58,316.554C2354.09,320.755 2347.91,326.476 2344.81,334.032C2342.97,338.446 2342.37,343.107 2342.02,346.673C2340.68,361.433 2343.89,376.934 2351.41,392.258C2337.99,385.973 2323.34,382.23 2308.61,381.524C2305.47,381.383 2301.52,374.886 2298.9,370.542C2298.06,369.165 2297.24,367.859 2296.5,366.694C2277.43,338.057 2244.7,299.993 2196.51,280.749L2193.75,277.077C2180.86,259.775 2167.51,241.908 2151.84,225.984C2139.27,213.272 2125.32,201.69 2111.8,190.462C2089.8,172.207 2067.02,153.316 2050.89,129.729C2049.09,127.045 2052.23,122.596 2057.28,116.17C2060.49,112.003 2063.81,107.731 2065.54,103.176C2067.62,97.561 2067.8,91.594 2067.94,85.803C2068.15,78.494 2068.33,72.174 2072.43,68.713C2073.17,68.042 2074.05,67.513 2074.9,66.948C2077.58,65.217 2080.9,63.028 2082.45,58.897C2083.87,55.189 2083.27,51.27 2080.76,47.916C2077.44,43.361 2070.84,40.606 2064.97,40.854C2048.63,41.878 2037.64,56.39 2033.41,71.044C2028.68,69.243 2024.9,64.476 2023.13,59.992C2020.66,53.636 2020.38,46.503 2020.13,38.947L2020.03,36.087C2019.67,26.624 2018.61,16.702 2013.35,8.474C2009.75,2.789 2002.69,-1.977 1995.7,0.847C1991.88,2.366 1985.88,7.062 1988.49,21.221L1993.37,47.951C1993.47,48.586 1993.54,49.257 1993.54,49.822C1993.54,49.822 1993.51,49.787 1993.51,49.752L1982.38,24.152C1980.34,19.491 1978.04,14.23 1973.84,10.063C1970.41,6.709 1964.52,3.637 1958.66,4.308C1954.95,4.767 1951.84,6.815 1949.93,10.063C1944.22,19.668 1950.32,30.084 1954.35,36.97L1955.16,38.311C1957.99,43.255 1960.17,48.481 1961.69,53.918L1948.88,40.748C1945.94,37.711 1941.92,33.58 1936.34,32.061C1932.53,31.037 1928.29,31.602 1925.01,33.58C1922.18,35.275 1920.24,37.852 1919.57,40.818C1918.62,44.844 1919.85,49.151 1923.28,53.53C1926.74,57.944 1930.87,61.439 1934.86,64.794C1936.27,65.994 1937.68,67.195 1939.06,68.395C1941.21,70.302 1943.62,72.562 1945.45,75.069C1945.77,75.528 1946.05,76.022 1946.33,76.481C1944.75,76.128 1943.16,75.422 1941.5,74.363C1940.3,73.586 1939.13,72.738 1937.97,71.856C1934.61,69.419 1930.8,66.63 1926.07,65.465C1921.26,64.299 1915.79,65.535 1912.05,68.607C1909.05,71.079 1907.46,74.504 1907.63,78.176Z" style="fill:rgb(57,70,145);fill-rule:nonzero;"></path>
                        <g transform="matrix(1,0,0,1,0,100.267)">
                            <path d="M118.056,453.38L89.278,453.38L78.72,513.83L107.18,513.83C124.659,513.83 134.793,506.062 137.547,490.455L139.807,477.355C140.23,475.448 140.442,472.871 140.442,469.693C140.442,466.48 138.818,462.949 135.64,459.135C132.427,455.286 126.565,453.38 118.056,453.38ZM108.134,563.688L70.105,563.688L57.605,633.743L0.05,633.743L40.656,403.487L138.182,403.487C162.299,403.487 179.46,409.03 189.7,420.118C197.15,428.627 200.858,439.538 200.858,452.744C200.858,457.228 200.434,461.889 199.586,466.797L193.195,502.955C190.017,520.645 180.625,535.193 165.053,546.598C149.517,558.003 130.52,563.688 108.134,563.688Z" style="fill:rgb(209,40,41);fill-rule:nonzero;"></path>
                        </g>
                        <g transform="matrix(1,0,0,1,0,100.267)">
                            <path d="M431.714,633.743L271.195,633.743L311.801,403.487L472.32,403.487L463.387,453.38L360.388,453.38L353.043,496.564L438.105,496.564L429.172,546.457L344.075,546.457L337.684,583.85L440.647,583.85L431.714,633.743Z" style="fill:rgb(209,40,41);fill-rule:nonzero;"></path>
                        </g>
                        <g transform="matrix(1,0,0,1,0,100.267)">
                            <path d="M652.33,453.38L628.355,453.38L620.022,509.028L642.408,509.028C653.707,509.028 661.793,506.309 666.702,500.871C671.645,495.434 674.081,488.231 674.081,479.262C674.081,462.031 666.843,453.38 652.33,453.38ZM672.492,403.487C696.75,403.487 714.052,408.818 724.257,419.482C731.954,427.568 735.803,437.808 735.803,450.166C735.803,454.439 735.379,458.923 734.532,463.619L730.048,488.548C727.47,502.425 723.056,513.618 716.771,522.128C710.486,530.673 703.494,536.746 695.832,540.348L724.892,633.743L660.31,633.743L633.44,547.728L613.631,547.728L600.531,633.743L539.127,633.743L579.733,403.487L672.492,403.487Z" style="fill:rgb(209,40,41);fill-rule:nonzero;"></path>
                        </g>
                        <g transform="matrix(1,0,0,1,0,100.267)">
                            <path d="M923.264,459.453L897.982,540.666L939.859,540.666L943.39,459.453L923.264,459.453ZM936.364,633.743L938.306,583.532L884.882,583.532L869.204,633.743L808.118,633.743L890.319,403.487L995.825,403.487L997.132,633.743L936.364,633.743Z" style="fill:rgb(209,40,41);fill-rule:nonzero;"></path>
                        </g>
                        <g transform="matrix(1,0,0,1,0,100.267)">
                            <path d="M1185.23,577.777L1245.96,403.487L1308.32,403.487L1221.03,633.743L1118.7,633.743L1116.13,403.487L1178.84,403.487L1177.85,577.777L1185.23,577.777Z" style="fill:rgb(209,40,41);fill-rule:nonzero;"></path>
                        </g>
                        <g transform="matrix(1,0,0,1,0,100.267)">
                            <path d="M1455.42,588.652C1466.08,588.652 1474.59,585.862 1481.02,580.354C1487.41,574.81 1491.86,564.571 1494.44,549.634L1505.31,488.231C1505.95,483.993 1506.27,480.109 1506.27,476.719C1506.27,459.453 1497.54,450.837 1480.03,450.837C1458.07,451.261 1444.97,463.725 1440.69,488.231L1429.86,549.634C1428.97,554.966 1428.55,560.51 1428.55,566.265C1428.55,581.202 1437.52,588.652 1455.42,588.652ZM1488.36,401.262C1539.74,401.262 1565.41,422.236 1565.41,464.255C1565.41,471.282 1564.67,478.838 1563.19,486.959L1551.99,550.906C1546.87,580.566 1535.79,602.529 1518.73,616.794C1501.68,631.059 1477.7,638.227 1446.77,638.227C1415.87,638.227 1394.33,631.059 1382.19,616.794C1373.89,606.978 1369.72,593.454 1369.72,576.188C1369.72,568.49 1370.57,560.086 1372.27,550.906L1383.46,486.959C1393.49,429.828 1428.44,401.262 1488.36,401.262Z" style="fill:rgb(209,40,41);fill-rule:nonzero;"></path>
                        </g>
                        <g transform="matrix(1,0,0,1,0,100.267)">
                            <path d="M1738.01,588.652C1748.63,588.652 1757.18,585.862 1763.57,580.354C1769.96,574.81 1774.44,564.571 1776.99,549.634L1787.86,488.231C1788.5,483.993 1788.85,480.109 1788.85,476.719C1788.85,459.453 1780.09,450.837 1762.62,450.837C1740.65,451.261 1727.52,463.725 1723.28,488.231L1712.4,549.634C1711.56,554.966 1711.13,560.51 1711.13,566.265C1711.13,581.202 1720.07,588.652 1738.01,588.652ZM1770.91,401.262C1822.29,401.262 1848,422.236 1848,464.255C1848,471.282 1847.25,478.838 1845.77,486.959L1834.58,550.906C1829.46,580.566 1818.37,602.529 1801.32,616.794C1784.26,631.059 1760.25,638.227 1729.35,638.227C1698.46,638.227 1676.92,631.059 1664.77,616.794C1656.44,606.978 1652.27,593.454 1652.27,576.188C1652.27,568.49 1653.12,560.086 1654.85,550.906L1666.04,486.959C1676.04,429.828 1710.99,401.262 1770.91,401.262Z" style="fill:rgb(209,40,41);fill-rule:nonzero;"></path>
                        </g>
                        <g transform="matrix(1,0,0,1,0,100.267)">
                            <path d="M2042.31,453.38L2018.3,453.38L2010,509.028L2032.38,509.028C2043.68,509.028 2051.77,506.309 2056.68,500.871C2061.62,495.434 2064.06,488.231 2064.06,479.262C2064.06,462.031 2056.82,453.38 2042.31,453.38ZM2062.47,403.487C2086.73,403.487 2104.03,408.818 2114.23,419.482C2121.93,427.568 2125.78,437.808 2125.78,450.166C2125.78,454.439 2125.36,458.923 2124.51,463.619L2120.02,488.548C2117.45,502.425 2113,513.618 2106.75,522.128C2100.46,530.673 2093.47,536.746 2085.81,540.348L2114.87,633.743L2050.29,633.743L2023.41,547.728L2003.61,547.728L1990.51,633.743L1929.1,633.743L1969.71,403.487L2062.47,403.487Z" style="fill:rgb(209,40,41);fill-rule:nonzero;"></path>
                        </g>
                        <g transform="matrix(1,0,0,1,0,100.267)">
                            <path d="M100.789,703.939L135.004,814.282L208.555,703.939L268.97,703.939L228.364,934.195L170.491,934.195L193.513,804.36L144.256,881.76L102.378,881.76L80.627,804.36L57.605,934.195L0.05,934.195L40.656,703.939L100.789,703.939Z" style="fill:rgb(209,40,41);fill-rule:nonzero;"></path>
                        </g>
                        <g transform="matrix(1,0,0,1,0,100.267)">
                            <path d="M442.942,759.94L417.661,841.118L459.538,841.118L463.069,759.94L442.942,759.94ZM456.007,934.195L457.949,883.984L404.525,883.984L388.883,934.195L327.797,934.195L409.998,703.939L515.504,703.939L516.811,934.195L456.007,934.195Z" style="fill:rgb(209,40,41);fill-rule:nonzero;"></path>
                        </g>
                        <g transform="matrix(1,0,0,1,0,100.267)">
                            <path d="M728.529,753.832L704.554,753.832L696.256,809.48L718.642,809.48C729.942,809.48 738.028,806.761 742.936,801.324C747.844,795.886 750.28,788.718 750.28,779.749C750.28,762.483 743.042,753.832 728.529,753.832ZM748.691,703.939C772.984,703.939 790.251,709.306 800.491,719.934C808.188,728.056 812.002,738.295 812.002,750.654C812.002,754.891 811.578,759.376 810.731,764.072L806.246,789.001C803.669,802.877 799.255,814.071 792.97,822.616C786.685,831.125 779.693,837.199 772.031,840.836L801.126,934.195L736.545,934.195L709.674,848.18L689.865,848.18L676.73,934.195L615.361,934.195L655.967,703.939L748.691,703.939Z" style="fill:rgb(209,40,41);fill-rule:nonzero;"></path>
                        </g>
                        <g transform="matrix(1,0,0,1,0,100.267)">
                            <path d="M999.498,759.94L974.216,841.118L1016.13,841.118L1019.66,759.94L999.498,759.94ZM1012.6,934.195L1014.54,883.984L961.116,883.984L945.438,934.195L884.387,934.195L966.554,703.939L1072.06,703.939L1073.37,934.195L1012.6,934.195Z" style="fill:rgb(209,40,41);fill-rule:nonzero;"></path>
                        </g>
                        <g transform="matrix(1,0,0,1,0,100.267)">
                            <path d="M1388.19,753.832L1309.52,753.832L1277.85,934.195L1219.97,934.195L1251.61,753.832L1172.66,753.832L1181.59,703.939L1397.12,703.939L1388.19,753.832Z" style="fill:rgb(209,40,41);fill-rule:nonzero;"></path>
                        </g>
                        <g transform="matrix(1,0,0,1,0,100.267)">
                            <path d="M1666.89,703.939L1626.6,934.195L1568.69,934.195L1583.42,851.04L1521.06,851.04L1506.65,934.195L1448.78,934.195L1489.42,703.939L1546.94,703.939L1529.71,801.182L1592.03,801.182L1609.34,703.939L1666.89,703.939Z" style="fill:rgb(209,40,41);fill-rule:nonzero;"></path>
                        </g>
                        <g transform="matrix(1,0,0,1,0,100.267)">
                            <path d="M1832.42,889.104C1843.09,889.104 1851.6,886.35 1858.02,880.806C1864.41,875.263 1868.9,865.023 1871.44,850.087L1882.32,788.718C1882.95,784.446 1883.27,780.597 1883.27,777.172C1883.27,759.94 1874.55,751.29 1857.04,751.29C1835.07,751.713 1821.97,764.178 1817.7,788.718L1806.86,850.087C1806.01,855.419 1805.55,860.962 1805.55,866.718C1805.55,881.654 1814.52,889.104 1832.42,889.104ZM1865.37,701.714C1916.74,701.714 1942.41,722.724 1942.41,764.707C1942.41,771.769 1941.71,779.326 1940.19,787.412L1929,851.393C1923.91,881.018 1912.79,902.981 1895.74,917.246C1878.68,931.511 1854.7,938.679 1823.81,938.679C1792.88,938.679 1771.34,931.511 1759.19,917.246C1750.89,907.465 1746.73,893.906 1746.73,876.64C1746.73,868.978 1747.57,860.538 1749.27,851.393L1760.46,787.412C1770.49,730.28 1805.45,701.714 1865.37,701.714Z" style="fill:rgb(209,40,41);fill-rule:nonzero;"></path>
                        </g>
                        <g transform="matrix(1,0,0,1,0,100.267)">
                            <path d="M2241.56,703.939L2201.27,934.195L2143.4,934.195L2103.11,808.209L2081.36,934.195L2023.49,934.195L2064.09,703.939L2123.55,703.939L2163.21,821.627L2184.01,703.939L2241.56,703.939Z" style="fill:rgb(209,40,41);fill-rule:nonzero;"></path>
                        </g>
                        <path d="M1939.77,154.128L863.413,139.015L1895.31,124.538C1897.22,126.162 1899.23,127.751 1901.42,129.305C1911.13,136.12 1921.62,141.946 1932.6,146.607L1934.54,147.384L1936.34,149.714C1937.44,151.162 1938.6,152.61 1939.77,154.128Z" style="fill:rgb(209,40,41);fill-rule:nonzero;"></path>
                        <path d="M1991,198.301C1994.67,205.115 1998.35,211.754 2002.05,218.251L592.339,201.161L1969.25,184.459C1970.06,185.059 1970.84,185.624 1971.65,186.225C1976.77,189.897 1981.57,192.757 1986.45,195.582C1987.89,196.429 1989.69,197.453 1991,198.301Z" style="fill:rgb(209,40,41);fill-rule:nonzero;"></path>
                        <path d="M2018.26,245.157C2026.35,257.904 2034.68,270.015 2043.33,281.667L321.229,263.271L2018.26,245.157Z" style="fill:rgb(209,40,41);fill-rule:nonzero;"></path>
                        <path d="M2098.41,344.978L28.439,325.381L2062.61,306.137C2073.91,319.661 2085.77,332.514 2098.41,344.978Z" style="fill:rgb(209,40,41);fill-rule:nonzero;"></path>
                        <path d="M2501.62,1507.24C2502.47,1510.13 2503.28,1513 2504.05,1515.86C2502.22,1519.56 2500.74,1523.45 2499.64,1527.47L1779.04,1517.37L2501.62,1507.24Z" style="fill:rgb(209,40,41);fill-rule:nonzero;"></path>
                        <path d="M2502.25,1557.94C2502.89,1560.81 2503.49,1563.7 2504.05,1566.56C2502.68,1570.27 2501.62,1574.15 2500.81,1578.18L1970.41,1568.08L2502.25,1557.94Z" style="fill:rgb(209,40,41);fill-rule:nonzero;"></path>
                        <path d="M2477.85,1443.47C2481.17,1451.34 2484.42,1459.22 2487.53,1467.13L1507.92,1455.26L2477.85,1443.47Z" style="fill:rgb(209,40,41);fill-rule:nonzero;"></path>
                        <path d="M2450.84,1380.16C2454.44,1389.02 2458.15,1397.71 2461.79,1406.22L1236.82,1393.12L2450.84,1380.16Z" style="fill:rgb(209,40,41);fill-rule:nonzero;"></path>
                        <path d="M2428.49,1316.95C2431.21,1326.49 2434.25,1335.92 2437.49,1345.13L944.061,1331.01L2428.49,1316.95Z" style="fill:rgb(209,40,41);fill-rule:nonzero;"></path>
                        <g transform="matrix(1,0,0,1,-257.995,-103.65)">
                            <path d="M2428.49,1316.95C2431.21,1326.49 2434.25,1335.92 2437.49,1345.13L944.061,1331.01L2428.49,1316.95Z" style="fill:rgb(209,40,41);fill-rule:nonzero;"></path>
                        </g>
                        <g transform="matrix(1.07543,0,0,1,-476.149,-176.363)">
                            <path d="M2428.49,1316.95C2431.21,1326.49 2434.25,1335.92 2437.49,1345.13L944.061,1331.01L2428.49,1316.95Z" style="fill:rgb(209,40,41);fill-rule:nonzero;"></path>
                        </g>
                        <g transform="matrix(1.43643,0,0,1,-1356.08,-909.981)">
                            <path d="M2428.49,1316.95C2431.21,1326.49 2434.25,1335.92 2437.49,1345.13L944.061,1331.01L2428.49,1316.95Z" style="fill:rgb(209,40,41);fill-rule:nonzero;"></path>
                        </g>
                    </g>
                </g>
            </g>
        </g>
        <g id="Layer-1" serif:id="Layer 1">
        </g>
    </g>
</svg>
