<?xml version="1.0" encoding="UTF-8" standalone="no"?><!DOCTYPE svg PUBLIC "-//W3C//DTD SVG 1.1//EN" "http://www.w3.org/Graphics/SVG/1.1/DTD/svg11.dtd"><svg width="100%" height="100%" viewBox="0 0 550 407" version="1.1" xmlns="http://www.w3.org/2000/svg" xmlns:xlink="http://www.w3.org/1999/xlink" xml:space="preserve" xmlns:serif="http://www.serif.com/" style="fill-rule:evenodd;clip-rule:evenodd;stroke-linejoin:round;stroke-miterlimit:2;"><path d="M143.468,150.504c-0,12.846 -10.413,23.259 -23.254,23.259c-12.842,-0 -23.254,-10.413 -23.254,-23.259c-0,-12.841 10.412,-23.254 23.254,-23.254c12.841,0 23.254,10.413 23.254,23.254" style="fill:#faa919;fill-rule:nonzero;"/><path d="M0,99.134c1.004,1.625 1.921,3.266 2.917,4.85c1.083,1.55 2.033,3.141 3.2,4.604c2.195,3 4.495,5.879 7.041,8.542c5.021,5.362 10.471,10.229 16.259,14.7c11.579,8.979 24.162,16.491 37.012,24.454c12.808,7.991 25.833,16.587 37.508,27.741c5.838,5.555 11.217,11.834 15.863,18.775c4.6,6.996 8.167,14.717 10.808,22.542c2.534,7.883 4.179,15.933 5.067,23.967c0.829,8.033 1,16.087 0.567,23.966c-0.855,15.805 -3.7,31.005 -6.917,45.767c-6.483,29.429 -13.583,58.713 -22.658,87.683c0.854,-30.337 3.704,-60.37 7.141,-90.254c1.692,-14.887 3.413,-29.496 3.467,-43.779c0.033,-7.137 -0.258,-14.158 -1.217,-21.054c-0.862,-6.896 -2.329,-13.629 -4.45,-20.05c-2.091,-6.438 -4.862,-12.479 -8.408,-18.129c-3.517,-5.696 -7.871,-10.984 -12.654,-16.059c-9.617,-10.145 -21.209,-19.1 -33.063,-28.245c-11.854,-9.134 -24.146,-18.705 -34.7,-30.138c-5.25,-5.733 -10.125,-11.892 -14.058,-18.604c-1.013,-1.65 -1.917,-3.379 -2.792,-5.108c-0.925,-1.692 -1.662,-3.492 -2.446,-5.246c-0.77,-1.759 -1.316,-3.629 -1.975,-5.417c-0.595,-1.812 -1.033,-3.683 -1.512,-5.508Z" style="fill:#27a64a;fill-rule:nonzero;"/><path d="M137.126,220.638c-3.929,-5.162 -5.312,-12.35 -4.566,-19.204c0.762,-6.958 3.67,-13.571 7.504,-19.25c7.812,-11.367 18.746,-19.471 29.575,-25.979c10.908,-6.55 21.858,-11.608 31.975,-17.625c10.179,-6.013 19.662,-12.713 27.804,-22.596c-0.942,6.367 -3.683,12.521 -7.304,18.025c-3.646,5.504 -8.175,10.392 -13.046,14.708c-9.817,8.688 -20.917,15.042 -31.2,21.209c-10.304,6.162 -20.108,12.316 -28.058,20.146c-3.942,3.9 -7.325,8.27 -9.671,13.312c-2.334,5.079 -3.629,10.863 -3.013,17.254" style="fill:#d32027;fill-rule:nonzero;"/><path d="M108.379,244.838c1.4,14.959 -0.162,30.071 -3.612,44.734c-1.725,7.337 -3.984,14.562 -6.696,21.621c-0.659,1.775 -1.384,3.52 -2.134,5.254c-0.729,1.741 -1.475,3.475 -2.345,5.304c-1.755,3.608 -3.975,7.492 -7.267,11.054c-3.417,3.588 -7.813,6.525 -13.258,7.817c-2.709,0.6 -5.738,0.737 -8.638,0.133c-2.867,-0.554 -5.596,-1.733 -7.808,-3.279c-4.459,-3.125 -7.209,-7.013 -9.246,-10.783c-1.021,-1.896 -1.879,-3.792 -2.621,-5.68c-0.687,-1.841 -1.329,-3.65 -1.925,-5.495c-4.696,-14.713 -6.058,-30.417 -3.017,-45.155c3.65,14.542 8.288,28 14.671,40.405c0.775,1.545 1.617,3.091 2.45,4.575c0.8,1.429 1.621,2.8 2.504,4.029c1.763,2.45 3.68,4.458 5.396,5.337c0.859,0.438 1.575,0.688 2.321,0.767c0.692,0.1 1.404,0.008 2.25,-0.229c1.692,-0.438 3.7,-1.659 5.271,-3.404c1.737,-1.784 3.296,-4.271 4.821,-7.188c1.566,-2.921 3.125,-6.267 4.65,-9.417c3.062,-6.4 5.929,-12.912 8.687,-19.512c5.567,-13.208 10.371,-26.804 15.546,-40.888" style="fill:#faa919;fill-rule:nonzero;"/><path d="M162.183,205.208c0.229,-3.091 1.471,-6.133 3.296,-8.762c1.854,-2.629 4.263,-4.834 6.829,-6.738c5.142,-3.812 11.059,-6.35 16.579,-8.908c11.113,-5.033 21.934,-10.508 31.917,-16.975c9.867,-6.563 19.033,-14.071 25.796,-23.254c3.375,-4.563 6.3,-9.442 8.454,-14.604c2.163,-5.175 3.625,-10.655 4.438,-16.25c1.729,-11.192 0.775,-22.859 -2.271,-33.959c-1.492,-5.566 -3.521,-11.008 -6.084,-16.196c-2.566,-5.166 -5.633,-10.166 -9.091,-14.912c-6.892,-9.533 -15.529,-17.883 -24.996,-25.313c-9.479,-7.466 -20.021,-13.662 -30.983,-19.337c11.933,3.183 23.483,8.087 34.3,14.467c10.745,6.47 20.791,14.508 29.075,24.325c8.312,9.725 14.95,21.295 18.708,33.775c1.929,6.225 3.192,12.67 3.817,19.2c0.533,6.545 0.345,13.17 -0.609,19.72c-1.012,6.538 -2.754,13.013 -5.421,19.142c-2.741,6.104 -6.25,11.788 -10.383,16.925c-4.121,5.15 -8.829,9.746 -13.921,13.717c-5.062,4.025 -10.45,7.512 -15.987,10.616c-11.142,6.084 -22.825,10.688 -34.659,14.384c-5.933,1.791 -11.637,3.512 -16.925,6.241c-2.629,1.355 -5.108,2.996 -7.195,5.088c-2.121,2.054 -3.767,4.646 -4.684,7.608" style="fill:#27a64a;fill-rule:nonzero;"/><path d="M206.908,193.265c17.521,-6.805 32.825,-17.192 45.104,-30.213c12.271,-12.987 21.513,-28.592 26.342,-45.433c4.816,-16.846 5.258,-34.967 1.737,-52.479c-3.521,-17.546 -10.979,-34.467 -22.216,-49.538c14.9,11.596 25.741,28.638 31.362,47.221c5.633,18.6 6.138,39.058 0.65,58.104c-5.462,19.054 -16.725,36.125 -31.367,48.917c-14.612,12.766 -32.829,21.471 -51.612,23.421" style="fill:#0d74ba;fill-rule:nonzero;"/><path d="M227.96,146.109c5.229,-9.262 8.717,-18.825 10.379,-28.596c1.675,-9.741 1.533,-19.625 -0.583,-29.016c-2.125,-9.388 -6.234,-18.375 -11.921,-26.459c-5.692,-8.112 -12.933,-15.258 -21.621,-21.391c10.438,2.32 20.129,8.366 27.7,16.395c7.575,8.059 13.129,18.238 15.596,29.259c2.483,11.016 1.829,22.591 -1.567,33.112c-3.4,10.5 -9.554,20.109 -17.983,26.696" style="fill:#faa919;fill-rule:nonzero;"/><path d="M192.66,242.89c0,-3.295 -2.6,-5.966 -5.825,-5.966l-8.404,-0l0,11.958l8.404,0c3.225,0 5.825,-2.671 5.825,-5.992m6.288,-0.012c-0,6.671 -5.404,12.033 -12.113,12.033l-8.404,0l0,11.034l-6.287,-0l-0,-35.055l14.691,0c6.709,0 12.113,5.363 12.113,11.988" style="fill:#d32027;fill-rule:nonzero;"/><path d="M214.517,236.922l0,9.512l16.392,0l-0,6.029l-16.392,0l0,7.45l19.488,0l-0,6.034l-25.775,-0l-0,-35.059l25.775,0l-0,6.034l-19.488,-0Z" style="fill:#231f20;fill-rule:nonzero;"/><path d="M250.09,248.883l8.404,-0c3.225,-0 5.825,-2.671 5.825,-5.992c0,-3.296 -2.6,-5.971 -5.825,-5.971l-8.404,0l-0,11.963Zm12.179,5.437l7.196,11.625l-7.4,0l-6.829,-11.033l-5.146,0l-0,11.033l-6.288,0l0,-35.058l14.692,0c6.708,0 12.113,5.367 12.113,11.992c-0,5.358 -3.488,9.875 -8.338,11.441" style="fill:#231f20;fill-rule:nonzero;"/><path d="M300.839,251.975l-4.929,-12.783l-4.925,12.783l9.854,-0Zm2.425,6.292l-14.704,-0l-2.958,7.666l-6.75,0l13.654,-35.021l6.808,0l13.654,35.021l-6.75,0l-2.954,-7.666Z" style="fill:#231f20;fill-rule:nonzero;"/><path d="M314.012,230.903l6.75,-0l10.308,26.741l10.308,-26.741l6.75,-0l-13.654,35.02l-6.808,0l-13.654,-35.02Z" style="fill:#231f20;fill-rule:nonzero;"/><path d="M384.588,248.418c-0,-6.633 -5.379,-12.013 -12.013,-12.013c-6.633,0 -12.012,5.38 -12.012,12.013c-0,6.637 5.379,12.012 12.012,12.012c6.634,0 12.013,-5.375 12.013,-12.012m-30.313,-0c0,-9.963 8.196,-18.046 18.3,-18.046c10.109,0 18.305,8.083 18.305,18.046c-0,9.967 -8.196,18.046 -18.305,18.046c-10.104,-0 -18.3,-8.079 -18.3,-18.046" style="fill:#231f20;fill-rule:nonzero;"/><path d="M430.468,248.418c-0,-6.633 -5.379,-12.013 -12.013,-12.013c-6.633,0 -12.012,5.38 -12.012,12.013c-0,6.637 5.379,12.012 12.012,12.012c6.634,0 12.013,-5.375 12.013,-12.012m-30.313,-0c0,-9.963 8.196,-18.046 18.3,-18.046c10.109,0 18.305,8.083 18.305,18.046c-0,9.967 -8.196,18.046 -18.305,18.046c-10.104,-0 -18.3,-8.079 -18.3,-18.046" style="fill:#231f20;fill-rule:nonzero;"/><path d="M452.326,248.883l8.404,-0c3.225,-0 5.825,-2.671 5.825,-5.992c0,-3.296 -2.6,-5.971 -5.825,-5.971l-8.404,0l-0,11.963Zm12.179,5.437l7.196,11.625l-7.4,0l-6.829,-11.033l-5.146,0l-0,11.033l-6.288,0l0,-35.058l14.692,0c6.708,0 12.112,5.367 12.112,11.992c0,5.358 -3.487,9.875 -8.337,11.441" style="fill:#231f20;fill-rule:nonzero;"/><path d="M169.42,313.214l2.796,-5.191c3.287,1.904 7.666,4.07 12.154,4.07c2.475,0 7.737,-0.67 7.704,-4.283c-0.021,-2.729 -2.958,-3.262 -7.912,-4.067c-5.359,-0.879 -13.584,-2.116 -13.571,-10.483c0.016,-8.079 7.646,-11.225 13.933,-11.225c5.467,0 10.671,2.371 14.204,4.688l-2.866,5.354c-3.038,-2 -6.955,-4.009 -11.646,-4.009c-5.259,0 -7.346,2.525 -7.334,4.93c0.013,2.854 2.942,3.258 7.28,4.041c6.55,1.188 14.179,2.784 14.179,10.567c-0,8.508 -9.071,10.521 -14.179,10.521c-4.996,-0 -10.667,-1.963 -14.742,-4.913" style="fill:#d32027;fill-rule:nonzero;"/><path d="M231.273,294.553c0,-3.295 -2.6,-5.966 -5.825,-5.966l-8.404,-0l0,11.958l8.404,0c3.225,0 5.825,-2.671 5.825,-5.992m6.288,-0.012c-0,6.671 -5.404,12.033 -12.113,12.033l-8.404,0l0,11.034l-6.287,-0l-0,-35.055l14.691,0c6.709,0 12.113,5.363 12.113,11.988" style="fill:#231f20;fill-rule:nonzero;"/><path d="M276.638,300.08c-0,-6.633 -5.379,-12.012 -12.013,-12.012c-6.633,-0 -12.012,5.379 -12.012,12.012c-0,6.638 5.379,12.013 12.012,12.013c6.634,-0 12.013,-5.375 12.013,-12.013m-30.313,0c0,-9.962 8.196,-18.045 18.3,-18.045c10.109,-0 18.305,8.083 18.305,18.045c-0,9.967 -8.196,18.046 -18.305,18.046c-10.104,0 -18.3,-8.079 -18.3,-18.046" style="fill:#231f20;fill-rule:nonzero;"/><path d="M298.496,300.545l8.404,0c3.225,0 5.825,-2.67 5.825,-5.991c0,-3.296 -2.6,-5.971 -5.825,-5.971l-8.404,-0l-0,11.962Zm12.179,5.442l7.196,11.621l-7.4,-0l-6.829,-11.033l-5.146,-0l-0,11.033l-6.288,-0l0,-35.054l14.692,-0c6.708,-0 12.113,5.362 12.113,11.987c-0,5.359 -3.488,9.875 -8.338,11.446" style="fill:#231f20;fill-rule:nonzero;"/><path d="M358.708,288.585l-12.58,-0l0,29.025l-6.287,-0l-0,-29.025l-12.579,-0l-0,-6.034l31.445,0l0,6.034Z" style="fill:#231f20;fill-rule:nonzero;"/><path d="M365.924,313.214l2.796,-5.191c3.287,1.904 7.667,4.07 12.154,4.07c2.475,0 7.738,-0.67 7.704,-4.283c-0.021,-2.729 -2.958,-3.262 -7.912,-4.067c-5.359,-0.879 -13.584,-2.116 -13.571,-10.483c0.017,-8.079 7.646,-11.225 13.933,-11.225c5.467,0 10.671,2.371 14.204,4.688l-2.866,5.354c-3.038,-2 -6.954,-4.009 -11.646,-4.009c-5.258,0 -7.346,2.525 -7.333,4.93c0.012,2.854 2.941,3.258 7.279,4.041c6.55,1.188 14.179,2.784 14.179,10.567c0,8.508 -9.071,10.521 -14.179,10.521c-4.996,-0 -10.667,-1.963 -14.742,-4.913" style="fill:#231f20;fill-rule:nonzero;"/><path d="M178.948,340.247l-0.001,9.513l16.392,-0l0,6.029l-16.392,-0l0,13.483l-6.287,0l0,-35.058l25.775,-0l0,6.033l-19.488,0Z" style="fill:#d32027;fill-rule:nonzero;"/><path d="M236.993,351.743c0,-6.633 -5.379,-12.013 -12.012,-12.013c-6.634,0 -12.013,5.38 -12.013,12.013c0,6.637 5.379,12.012 12.013,12.012c6.633,0 12.012,-5.375 12.012,-12.012m-30.312,-0c-0,-9.967 8.196,-18.046 18.3,-18.046c10.108,0 18.304,8.079 18.304,18.046c-0,9.967 -8.196,18.046 -18.304,18.046c-10.104,-0 -18.3,-8.079 -18.3,-18.046" style="fill:#231f20;fill-rule:nonzero;"/><path d="M252.563,353.548l-0.001,-19.333l6.288,0l0,19.333c0,5.638 4.571,10.209 10.208,10.209c5.638,-0 10.209,-4.571 10.209,-10.209l-0,-19.333l6.287,0l0,19.333c0,8.967 -7.383,16.238 -16.496,16.238c-9.108,-0 -16.496,-7.271 -16.496,-16.238" style="fill:#231f20;fill-rule:nonzero;"/><path d="M326.797,334.225l0,35.059l-6.287,-0l-19.388,-25.25l0,25.237l-6.287,0l-0,-35.058l6.287,-0l19.388,25.183l-0,-25.171l6.287,0Z" style="fill:#231f20;fill-rule:nonzero;"/><path d="M362.265,351.743c-0,-6.35 -5.146,-11.496 -11.496,-11.496l-7.888,0l0,22.992l7.888,-0c6.35,-0 11.496,-5.146 11.496,-11.496m6.287,-0c0,9.679 -7.958,17.529 -17.779,17.529l-14.183,0l-0,-35.058l14.179,-0c9.821,-0 17.783,7.85 17.783,17.529" style="fill:#231f20;fill-rule:nonzero;"/><path d="M396.725,355.3l-4.93,-12.783l-4.925,12.783l9.855,0Zm2.425,6.292l-14.705,0l-2.954,7.667l-6.754,-0l13.654,-35.021l6.809,-0l13.654,35.021l-6.75,-0l-2.954,-7.667Z" style="fill:#231f20;fill-rule:nonzero;"/><path d="M447.531,340.247l-12.579,0l0,29.025l-6.287,0l-0,-29.025l-12.58,0l0,-6.033l31.446,-0l0,6.033Z" style="fill:#231f20;fill-rule:nonzero;"/><rect x="455.778" y="334.216" width="6.287" height="35.058" style="fill:#231f20;"/><path d="M501.658,351.743c0,-6.633 -5.379,-12.013 -12.012,-12.013c-6.634,0 -12.013,5.38 -12.013,12.013c0,6.637 5.379,12.012 12.013,12.012c6.633,0 12.012,-5.375 12.012,-12.012m-30.312,-0c-0,-9.967 8.196,-18.046 18.3,-18.046c10.108,0 18.304,8.079 18.304,18.046c-0,9.967 -8.196,18.046 -18.304,18.046c-10.104,-0 -18.3,-8.079 -18.3,-18.046" style="fill:#231f20;fill-rule:nonzero;"/><path d="M549.188,334.225l0,35.059l-6.287,-0l-19.388,-25.25l0,25.237l-6.287,0l-0,-35.058l6.287,-0l19.388,25.183l-0,-25.171l6.287,0Z" style="fill:#231f20;fill-rule:nonzero;"/></svg>