<?xml version="1.0" encoding="UTF-8"?>
<!-- Creator: CorelDRAW 2021 (64-Bit) -->
<svg xmlns="http://www.w3.org/2000/svg" xmlns:xlink="http://www.w3.org/1999/xlink" xmlns:xodm="http://www.corel.com/coreldraw/odm/2003" xml:space="preserve" width="1198px" height="394px" version="1.1" style="shape-rendering:geometricPrecision; text-rendering:geometricPrecision; image-rendering:optimizeQuality; fill-rule:evenodd; clip-rule:evenodd" viewBox="0 0 2634.36 866.7">
 <defs>
  <style type="text/css">
   <![CDATA[
    .str0 {stroke:#2B2A29;stroke-width:2.29;stroke-miterlimit:10}
    .str1 {stroke:#2B2A29;stroke-width:4.58;stroke-miterlimit:10}
    .fil7 {fill:none;fill-rule:nonzero}
    .fil6 {fill:#2B2A29;fill-rule:nonzero}
    .fil2 {fill:#EF7F1A;fill-rule:nonzero}
    .fil0 {fill:#E8462F;fill-rule:nonzero}
    .fil5 {fill:url(#id0)}
    .fil3 {fill:url(#id1)}
    .fil4 {fill:url(#id2)}
    .fil1 {fill:url(#id3)}
   ]]>
  </style>
  <linearGradient id="id0" gradientUnits="userSpaceOnUse" x1="207.36" y1="125.07" x2="178.19" y2="247.42">
   <stop offset="0" style="stop-opacity:1; stop-color:#E51A4B"></stop>
   <stop offset="1" style="stop-opacity:1; stop-color:#FECC00"></stop>
  </linearGradient>
  <linearGradient id="id1" gradientUnits="userSpaceOnUse" x1="236.49" y1="157.02" x2="195.92" y2="385.02">
   <stop offset="0" style="stop-opacity:1; stop-color:#B0CB1F"></stop>
   <stop offset="1" style="stop-opacity:1; stop-color:#009846"></stop>
  </linearGradient>
  <linearGradient id="id2" gradientUnits="userSpaceOnUse" x1="245" y1="40.65" x2="207.4" y2="258.29">
   <stop offset="0" style="stop-opacity:1; stop-color:#9E3230"></stop>
   <stop offset="1" style="stop-opacity:1; stop-color:#E31E24"></stop>
  </linearGradient>
  <linearGradient id="id3" gradientUnits="userSpaceOnUse" x1="268.11" y1="106.62" x2="175.32" y2="446.9">
   <stop offset="0" style="stop-opacity:1; stop-color:#9E3230"></stop>
   <stop offset="0.490196" style="stop-opacity:1; stop-color:#9A3230"></stop>
   <stop offset="1" style="stop-opacity:1; stop-color:#953231"></stop>
  </linearGradient>
 </defs>
 <g id="Layer_x0020_1">
  <metadata id="CorelCorpID_0Corel-Layer"></metadata>
  <g id="_1718204493424">
   <path class="fil0" d="M718.58 333.63c0,13.94 -2.54,26.2 -7.18,38.43 -4.64,12.24 -11.41,22.81 -20.7,31.67 -8.86,8.87 -20.26,16.05 -33.35,21.12 -13.09,5.08 -27.87,7.6 -44.76,7.6l-6.33 0c-27.04,0 -56.17,-5.49 -87.42,-16.05l0 -7.6 0 -70.94 1.69 0 5.06 0 17.33 0c5.48,0 8.44,2.53 9.7,7.6 0.85,3.8 2.12,15.62 3.81,35.04 12.24,3.8 31.67,5.5 57.85,5.5 16.04,0 28.71,-3.8 37.57,-11.4 8.88,-7.61 13.1,-18.59 13.1,-32.93 0,-8.04 -2.1,-14.79 -5.91,-19.86 -3.81,-5.06 -9.28,-9.29 -16.05,-12.66 -6.75,-3.39 -13.94,-6.34 -22.38,-8.87 -8.44,-2.53 -17.31,-4.65 -25.75,-7.6 -8.88,-2.96 -17.32,-6.33 -25.76,-10.14 -8.45,-3.8 -16.05,-9.29 -22.8,-15.62 -6.76,-6.34 -11.83,-13.93 -15.63,-23.66 -3.81,-9.28 -6.33,-21.1 -6.33,-35.04 0,-10.98 2.11,-21.96 6.75,-32.51 4.23,-10.56 10.98,-20.27 19.42,-28.3 8.44,-8.02 19.01,-14.36 31.25,-19.42 12.25,-5.06 26.61,-7.6 42.66,-7.6 29.97,0 59.1,5.92 87.41,17.31l0 78.13 -1.69 0 -5.07 0 -17.31 0c-5.5,0 -8.46,-2.97 -9.72,-8.02 -0.85,-3.82 -2.11,-15.22 -3.81,-34.21 -10.55,-4.65 -27.44,-6.76 -49.39,-6.76 -8.03,0 -14.36,0.84 -20.28,2.54 -5.91,2.11 -10.98,4.65 -14.77,8.02 -3.81,3.37 -7.18,7.6 -9.29,12.24 -2.12,4.64 -2.96,10.14 -2.96,15.63 0,7.18 2.53,13.08 6.33,17.73 3.8,4.65 8.88,8.86 15.63,12.24 6.76,3.39 14.36,6.76 22.8,9.3 8.45,2.53 16.89,5.49 25.76,8.45 8.86,2.95 17.32,6.75 25.76,10.56 8.44,3.79 16.05,8.86 22.8,15.19 6.75,6.34 12.24,13.51 16.05,22.38 4.22,8.86 5.91,19.85 5.91,32.51z"></path>
   <path class="fil0" d="M902.69 215.83l-6.76 39.27c-0.42,2.53 -1.27,4.22 -2.53,5.05 -1.27,0.86 -3.37,1.69 -5.91,1.69 -2.11,0 -4.65,-0.41 -8.45,-1.25 -3.79,-0.85 -8.86,-1.7 -14.78,-1.7 -10.97,0 -20.27,2.95 -27.87,8.88 -7.59,5.9 -13.93,15.2 -19.41,26.6l0 92.9c18.14,3.38 17.72,3.38 21.09,3.79 7.19,1.7 10.57,5.91 10.57,13.1l0 24.91 -31.66 0 -52.38 0 -31.66 0 0 -24.91c0,-7.19 3.37,-11.4 10.56,-13.1 3.38,-0.41 2.95,-0.41 21.1,-3.79l0 -133.03c-18.15,-3.36 -17.72,-3.36 -21.1,-3.79 -7.19,-1.69 -10.56,-5.91 -10.56,-13.1l0 -24.9 31.66 0 30.83 0c5.49,0 8.86,0.84 10.97,2.96 2.12,2.1 3.39,5.48 4.23,10.13l3.38 26.17c7.6,-13.5 16.48,-24.06 27.03,-31.67 10.55,-7.59 21.95,-11.4 35.05,-11.4 10.55,0 19.42,2.12 26.6,7.19z"></path>
   <path class="fil0" d="M984.61 259.32c-8.45,8.44 -13.94,20.69 -16.47,36.31l97.97 0c0,-6.76 -1.26,-13.09 -2.96,-19 -1.69,-5.91 -4.64,-10.98 -8.44,-15.63 -3.8,-4.64 -8.44,-8.01 -14.37,-10.55 -5.9,-2.53 -12.65,-4.23 -20.26,-4.23 -15.2,0 -27.03,4.65 -35.47,13.1zm72.21 -43.92c11.4,4.23 21.11,10.99 29.56,19.42 8.45,8.45 14.79,18.59 19.43,30.83 4.63,12.26 7.17,25.76 7.17,41.39 0,3.79 -0.41,7.6 -0.84,10.13 -0.43,2.52 -0.85,4.64 -1.7,5.91 -0.83,1.69 -2.11,2.53 -3.79,3.38 -1.69,0.84 -3.38,0.84 -5.91,0.84l-133.86 0c1.68,22.38 7.59,38.43 18.15,48.98 10.56,10.55 24.07,15.63 41.39,15.63 8.45,0 15.63,-0.84 21.54,-2.95 6.33,-2.13 11.4,-4.24 16.05,-6.75 4.63,-2.54 8.86,-4.23 12.24,-6.34 3.37,-2.11 6.33,-2.96 9.7,-2.96 2.12,0 4.22,0.42 5.92,1.26 1.69,0.85 2.54,1.7 3.8,3.39l15.2 18.99c-5.91,6.76 -12.24,12.67 -19.42,17.31 -7.18,4.65 -14.79,8.46 -22.38,10.99 -8.03,2.54 -16.05,4.22 -24.08,5.49 -8.02,1.26 -16.03,1.69 -23.64,1.69 -15.19,0 -28.72,-2.12 -41.8,-7.18 -13.1,-5.07 -24.07,-12.68 -33.79,-22.38 -9.72,-9.72 -17.31,-21.95 -22.81,-36.32 -5.48,-14.35 -8.01,-31.24 -8.01,-50.25 0,-14.77 2.53,-28.29 7.18,-41.39 4.65,-13.08 11.82,-24.48 20.68,-34.2 8.87,-9.71 19.85,-17.31 32.52,-22.8 12.67,-5.49 27.88,-8.44 43.92,-8.44 13.51,0 26.17,2.11 37.58,6.33z"></path>
   <path class="fil0" d="M1204.6 259.32c-8.44,8.44 -13.93,20.69 -16.47,36.31l97.98 0c0,-6.76 -1.27,-13.09 -2.96,-19 -1.69,-5.91 -4.64,-10.98 -8.45,-15.63 -3.78,-4.64 -8.44,-8.01 -14.36,-10.55 -5.9,-2.53 -12.65,-4.23 -20.27,-4.23 -15.2,0 -27.02,4.65 -35.47,13.1zm72.22 -43.92c11.4,4.23 21.12,10.99 29.56,19.42 8.44,8.45 14.79,18.59 19.42,30.83 4.65,12.26 7.18,25.76 7.18,41.39 0,3.79 -0.41,7.6 -0.83,10.13 -0.45,2.52 -0.86,4.64 -1.7,5.91 -0.84,1.69 -2.12,2.53 -3.8,3.38 -1.69,0.84 -3.39,0.84 -5.91,0.84l-133.87 0c1.69,22.38 7.61,38.43 18.15,48.98 10.57,10.55 24.08,15.63 41.39,15.63 8.44,0 15.63,-0.84 21.54,-2.95 6.34,-2.13 11.41,-4.24 16.05,-6.75 4.64,-2.54 8.87,-4.23 12.24,-6.34 3.38,-2.11 6.34,-2.96 9.72,-2.96 2.1,0 4.22,0.42 5.9,1.26 1.7,0.85 2.54,1.7 3.82,3.39l15.2 18.99c-5.92,6.76 -12.26,12.67 -19.44,17.31 -7.17,4.65 -14.77,8.46 -22.38,10.99 -8.01,2.54 -16.04,4.22 -24.07,5.49 -8.02,1.26 -16.04,1.69 -23.65,1.69 -15.19,0 -28.72,-2.12 -41.8,-7.18 -13.09,-5.07 -24.06,-12.68 -33.79,-22.38 -9.7,-9.72 -17.31,-21.95 -22.8,-36.32 -5.48,-14.35 -8.01,-31.24 -8.01,-50.25 0,-14.77 2.53,-28.29 7.18,-41.39 4.64,-13.08 11.82,-24.48 20.67,-34.2 8.88,-9.71 19.86,-17.31 32.53,-22.8 12.66,-5.49 27.87,-8.44 43.92,-8.44 13.51,0 26.17,2.11 37.58,6.33z"></path>
   <path class="fil0" d="M1535.67 396.55c-5.91,6.76 -11.83,12.68 -18.58,17.31 -6.75,4.65 -13.94,8.03 -21.12,10.99 -7.17,2.54 -14.78,4.22 -22.37,5.48 -7.61,1.27 -15.63,1.69 -23.23,1.69 -13.51,0 -25.76,-2.11 -37.59,-7.17 -11.82,-5.07 -21.95,-12.25 -30.81,-21.97 -8.88,-9.7 -16.06,-21.1 -21.13,-35.03 -5.06,-13.94 -7.59,-29.99 -7.59,-47.73 0,-16.04 2.11,-30.39 6.76,-43.91 4.63,-13.52 11.39,-25.34 20.26,-35.47 8.87,-10.13 19.85,-17.74 32.95,-23.23 13.08,-5.49 28.29,-8.44 45.17,-8.44 17.73,0 40.53,5.06 68.41,15.62l-0.43 66.71 -1.68 0 -5.07 0 -17.31 0c-5.49,0 -8.44,-2.95 -9.72,-8.01 -0.41,-3.38 -1.68,-13.52 -3.38,-30.4 -10.97,-2.96 -20.68,-4.24 -27.87,-4.24 -9.27,0 -17.31,1.7 -24.06,5.08 -6.76,3.37 -12.25,7.6 -16.88,13.94 -4.66,6.32 -8.45,13.93 -10.56,22.79 -2.12,8.87 -3.39,18.59 -3.39,29.56 0,11.41 1.27,21.95 3.81,30.84 2.52,8.86 5.9,16.46 10.55,22.79 4.64,5.92 10.13,10.56 16.89,13.94 6.76,2.96 13.95,4.64 22.39,4.64 8.44,0 15.19,-0.85 20.27,-2.96 5.06,-2.1 9.71,-4.22 13.09,-6.74 3.37,-2.54 6.75,-4.65 9.28,-6.76 2.54,-2.12 5.07,-2.96 8.44,-2.96 4.23,0 7.62,1.27 9.71,4.65l14.79 18.99z"></path>
   <path class="fil0" d="M1801.28 404.15l0 24.92 -31.66 0 -52.37 0 0 -137.66c0,-13.09 -2.95,-23.65 -9.29,-30.82 -5.91,-7.18 -15.2,-10.99 -27.45,-10.99 -8.87,0 -17.31,2.12 -25.34,6.34 -8.01,4.22 -15.19,9.29 -22.37,16.46l0 114.87c5.06,0.83 9.71,1.69 12.66,2.11 2.96,0.41 5.07,1.27 6.34,1.27 1.26,0.42 2.12,0.42 2.54,0.42 7.17,1.68 10.55,5.91 10.55,13.08l0 24.92 -32.09 0 -51.95 0 -32.09 0 0 -24.92c0,-7.17 3.38,-11.4 10.56,-13.08 0.41,0 1.27,-0.42 2.54,-0.42 1.25,0 3.36,-0.86 6.32,-1.27 2.97,-0.42 7.62,-1.28 12.67,-2.11l0 -230.15c-5.05,-0.85 -9.7,-1.68 -12.67,-2.1 -2.96,-0.42 -5.07,-1.27 -6.32,-1.27 -1.27,0 -2.13,-0.42 -2.54,-0.42 -7.18,-1.69 -10.56,-5.92 -10.56,-13.1l0 -24.91 32.09 0 51.95 0 0 120.77c8.45,-8.02 17.73,-14.35 27.87,-19.41 10.14,-5.08 22.38,-7.61 35.89,-7.61 11.82,0 21.96,2.11 31.26,5.91 9.27,3.8 16.46,9.7 22.79,16.89 5.91,7.18 10.56,16.05 13.94,26.18 2.96,10.13 5.07,20.69 5.07,32.94l0 96.28c5.05,0.83 9.28,1.69 12.24,2.11 2.95,0.41 5.06,0.84 6.33,1.27 1.27,0.42 2.11,0.42 2.54,0.42 7.18,1.68 10.55,5.91 10.55,13.08z"></path>
   <path class="fil0" d="M1944.02 336.59c-15.2,0 -27.88,0.85 -38.01,2.96 -10.14,2.11 -18.58,4.65 -24.91,7.59 -6.35,2.96 -10.56,6.35 -13.1,10.15 -2.52,3.8 -3.79,8.44 -3.79,13.08 0,9.3 2.54,16.05 8.03,19.84 5.47,3.81 12.23,5.93 21.1,5.93 5.49,0 10.14,-0.43 14.78,-1.28 4.65,-0.84 9.29,-2.53 13.09,-4.65 3.8,-2.1 7.61,-4.21 11.4,-7.15 3.8,-2.97 7.61,-6.35 11.41,-10.15l0 -36.32zm77.26 67.14l0 24.91 -26.59 0 -5.5 0 -17.73 0c-5.06,0 -8.86,-0.42 -11.82,-2.11 -2.96,-1.26 -5.07,-4.64 -6.33,-9.29l-4.65 -15.19c-5.49,5.06 -10.56,9.29 -16.05,13.08 -5.07,3.8 -10.98,6.76 -16.47,9.29 -5.48,2.53 -11.4,4.22 -17.72,5.5 -6.35,1.26 -13.53,2.1 -21.13,2.1 -9.29,0 -17.73,-1.26 -25.34,-3.8 -7.59,-2.53 -14.35,-5.91 -19.84,-10.98 -5.49,-5.07 -10.13,-11.39 -13.09,-18.58 -2.95,-7.18 -4.64,-15.6 -4.64,-25.33 0,-8.02 2.11,-16.47 6.32,-24.48 4.24,-8.03 11.41,-15.22 21.55,-21.55 10.13,-6.32 23.23,-11.82 39.69,-16.04 16.48,-4.23 37.58,-6.34 62.08,-6.34l0 -12.67c0,-14.78 -3.37,-25.33 -9.3,-32.51 -5.9,-7.18 -14.78,-10.55 -26.6,-10.55 -8.45,0 -15.62,0.84 -21.1,2.95 -5.49,2.11 -10.57,4.22 -14.78,6.75 -4.24,2.54 -8.03,4.22 -11.41,6.35 -3.39,2.11 -7.18,2.95 -11.41,2.95 -3.38,0 -6.75,-0.84 -9.28,-2.54 -2.54,-1.68 -4.22,-4.22 -5.92,-6.76l-9.71 -16.45c24.91,-22.81 54.89,-34.64 89.94,-34.64 12.67,0 24.08,2.11 34.21,6.34 9.71,4.21 18.16,10.13 24.92,17.31 6.75,7.6 12.66,16.47 16.03,26.6 3.38,10.14 5.08,21.54 5.08,33.79l0 95.85c4.65,0.85 8.87,1.68 11.39,2.1 2.54,0.42 4.24,0.86 4.65,0.86 7.18,1.68 10.55,5.9 10.55,13.08z"></path>
   <path class="fil0" d="M2289.85 404.15l0 24.92 -32.08 0 -51.95 0 0 -137.66c0,-13.09 -3.37,-23.65 -9.29,-30.82 -5.91,-7.18 -15.19,-10.99 -27.44,-10.99 -8.88,0 -17.32,2.12 -25.34,6.34 -8.01,4.22 -15.2,9.29 -22.37,16.46l0 114.87c5.06,0.83 9.29,1.69 12.24,2.11 2.95,0.41 5.06,0.84 6.33,1.27 1.28,0.42 2.11,0.42 2.54,0.42 7.18,1.68 10.55,5.91 10.55,13.08l0 24.92 -31.66 0 -52.36 0 -31.68 0 0 -24.92c0,-7.17 3.38,-11.4 10.55,-13.08 0.42,0 1.28,-0.42 2.53,-0.42 1.28,-0.43 3.38,-0.86 6.35,-1.27 2.95,-0.42 7.17,-1.28 12.25,-2.11l0 -133.02c-5.08,-0.84 -9.3,-1.69 -12.25,-2.11 -2.97,-0.42 -5.07,-1.26 -6.35,-1.26 -1.25,-0.43 -2.11,-0.43 -2.53,-0.43 -7.17,-1.69 -10.55,-5.92 -10.55,-13.09l0 -24.92 31.68 0 32.08 0c6.77,0 10.97,3.38 13.1,9.72l3.79 16.89c4.22,-4.65 8.45,-8.45 13.51,-12.25 4.65,-3.8 10.14,-6.74 15.63,-9.28 5.49,-2.54 10.98,-5.08 17.32,-6.34 6.33,-1.27 13.08,-2.11 20.26,-2.11 11.82,0 22.38,1.69 31.68,5.91 9.28,3.8 16.46,9.7 22.8,16.89 5.91,7.18 10.55,16.05 13.93,26.18 3.38,10.13 4.65,21.12 4.65,33.36l0 95.86c5.07,0.83 9.71,1.69 12.66,2.11 2.96,0.41 5.06,1.27 6.34,1.27 1.26,0 2.11,0.42 2.54,0.42 7.17,1.68 10.54,5.91 10.54,13.08z"></path>
   <path class="fil0" d="M2451.17 267.76c-5.92,-7.17 -12.68,-12.24 -19.44,-15.2 -7.17,-2.95 -14.77,-4.64 -22.79,-4.64 -8.02,0 -14.77,1.69 -21.12,4.64 -6.33,2.96 -11.82,7.59 -16.48,13.52 -4.2,5.91 -7.58,13.51 -10.12,22.8 -2.53,9.29 -3.38,19.85 -3.38,32.5 0,12.68 0.85,23.66 2.96,32.53 2.1,8.86 5.07,15.62 8.86,21.11 3.79,5.49 8.03,9.71 13.52,12.25 5.49,2.53 11.82,3.79 18.57,3.79 10.99,0 20.29,-2.11 27.87,-6.75 7.61,-4.64 14.78,-10.98 21.55,-19.42l0 -97.13zm81.49 160.46l-29.56 0 -32.09 0c-3.37,0 -5.91,-0.84 -8.44,-2.53 -2.55,-1.68 -3.8,-3.8 -4.66,-7.18l-4.21 -19.84c-8.87,10.14 -18.59,17.73 -29.98,24.06 -11.4,6.34 -24.92,9.3 -40.12,9.3 -11.83,0 -22.38,-2.12 -32.1,-7.19 -9.71,-5.06 -18.16,-12.24 -25.34,-21.53 -7.16,-9.29 -12.66,-21.1 -16.45,-34.61 -3.8,-13.95 -5.92,-29.57 -5.92,-47.32 0,-16.03 2.12,-30.81 6.34,-44.75 4.21,-13.94 10.98,-25.76 18.99,-35.89 8.03,-10.14 17.74,-17.74 29.14,-23.65 11.4,-5.91 24.07,-8.87 38.43,-8.87 12.25,0 22.8,2.11 31.24,5.91 8.46,3.81 16.06,8.45 22.82,15.21l0 -72.21c-5.5,-0.85 -9.31,-1.69 -12.26,-2.11 -2.95,-0.42 -5.06,-1.27 -6.33,-1.27 -1.26,0 -2.12,-0.42 -2.54,-0.42 -7.16,-1.69 -10.55,-5.92 -10.55,-13.09l0 -24.92 31.68 0 52.35 0 0 271.52c4.65,0.85 8.44,1.27 10.98,1.7 2.53,0.41 4.65,1.26 5.49,1.26 0.84,0 1.69,0.42 2.54,0.42 7.18,1.68 10.55,5.91 10.55,13.09l0 24.91z"></path>
   <path class="fil1" d="M55.27 178.59l-0.32 0c-0.81,0.01 -1.61,0.09 -2.41,0.24 -1.65,0.3 -3.2,0.92 -4.66,1.87 -1.43,0.92 -2.61,2.21 -3.52,3.81l-4.16 7.41c-0.23,0.38 -0.27,0.78 -0.15,1.2 0.1,0.41 0.34,0.72 0.72,0.93l20.97 11.81c0.33,0.38 0.71,0.56 1.14,0.56 0.28,0.03 0.55,-0.03 0.83,-0.17 0.26,-0.15 0.47,-0.34 0.6,-0.59l4.26 -7.55c0.74,-1.31 1.17,-2.78 1.31,-4.39 0.12,-1.62 -0.06,-3.24 -0.56,-4.85 -0.5,-1.63 -1.33,-3.16 -2.49,-4.63 -1.14,-1.48 -2.63,-2.73 -4.45,-3.74 -1.48,-0.84 -3.07,-1.4 -4.78,-1.69 -0.79,-0.14 -1.56,-0.21 -2.33,-0.22zm-11.61 13.49l3.4 -6.04c0.66,-1.18 1.54,-2.13 2.62,-2.83 1.08,-0.7 2.25,-1.16 3.53,-1.37 1.26,-0.22 2.55,-0.21 3.89,0.04 1.33,0.23 2.58,0.69 3.74,1.35 1.15,0.64 2.18,1.48 3.11,2.52 0.91,1.05 1.62,2.19 2.11,3.4 0.5,1.23 0.76,2.48 0.77,3.76 0.01,1.3 -0.31,2.52 -0.96,3.69l-3.42 6.07 -18.79 -10.59zm-9.92 19.03c-0.38,0.2 -0.63,0.5 -0.77,0.91 -0.13,0.42 -0.09,0.82 0.11,1.18 0.2,0.38 0.5,0.64 0.92,0.76l18.4 5.76 -23.01 6.1c-0.54,0.16 -0.9,0.51 -1.07,1.07 -0.13,0.41 -0.1,0.8 0.11,1.17 0.2,0.39 0.5,0.65 0.89,0.78l23.56 7.37c0.4,0.13 0.78,0.08 1.18,-0.11 0.37,-0.2 0.62,-0.51 0.75,-0.91 0.14,-0.43 0.1,-0.82 -0.1,-1.19 -0.2,-0.37 -0.51,-0.62 -0.91,-0.74l-18.45 -5.79 23.01 -6.11c0.56,-0.13 0.94,-0.48 1.11,-1.05 0.13,-0.4 0.1,-0.79 -0.1,-1.18 -0.21,-0.37 -0.51,-0.63 -0.91,-0.75l-23.54 -7.38c-0.15,-0.05 -0.32,-0.08 -0.47,-0.08 -0.24,0 -0.47,0.06 -0.71,0.19zm359.37 0.15l-23.77 6.65c-0.4,0.11 -0.7,0.34 -0.91,0.73 -0.21,0.37 -0.27,0.78 -0.14,1.21 0.11,0.4 0.35,0.7 0.73,0.92 0.37,0.22 0.77,0.26 1.18,0.14l11.48 -3.2 3.72 13.31 -11.48 3.21c-0.41,0.13 -0.73,0.37 -0.94,0.74 -0.21,0.38 -0.25,0.77 -0.13,1.17 0.1,0.43 0.36,0.75 0.74,0.97 0.36,0.22 0.76,0.25 1.16,0.15l23.76 -6.65c0.41,-0.1 0.72,-0.34 0.93,-0.72 0.21,-0.38 0.27,-0.78 0.14,-1.21 -0.11,-0.41 -0.35,-0.72 -0.74,-0.93 -0.37,-0.21 -0.76,-0.27 -1.16,-0.15l-9.26 2.59 -3.72 -13.33 9.26 -2.59c0.4,-0.1 0.71,-0.34 0.92,-0.73 0.22,-0.37 0.25,-0.76 0.15,-1.17 -0.12,-0.43 -0.37,-0.74 -0.74,-0.96 -0.25,-0.14 -0.5,-0.2 -0.76,-0.2 -0.14,0 -0.28,0 -0.42,0.05zm-342.59 35.57c-4.33,1.38 -8.61,2.75 -12.88,4.11 -4.27,1.37 -8.57,2.75 -12.88,4.13 -0.32,0.09 -0.57,0.26 -0.76,0.48 -0.19,0.26 -0.3,0.53 -0.32,0.84 -0.04,0.32 0.02,0.61 0.16,0.89 0.13,0.27 0.35,0.48 0.64,0.63l16.62 9.02 7.16 3.86c0.38,0.22 0.78,0.27 1.19,0.15 0.41,-0.13 0.72,-0.38 0.91,-0.76 0.23,-0.38 0.29,-0.78 0.15,-1.19 -0.12,-0.41 -0.36,-0.72 -0.75,-0.93l-6.26 -3.39 1.2 -12.71 6.78 -2.13c0.32,-0.09 0.56,-0.27 0.76,-0.53 0.18,-0.24 0.29,-0.54 0.32,-0.83 0.02,-0.21 0,-0.41 -0.08,-0.62 -0.14,-0.41 -0.38,-0.71 -0.76,-0.91 -0.24,-0.13 -0.48,-0.18 -0.72,-0.18 -0.15,0 -0.31,0.01 -0.48,0.07zm-21.31 10.08l12.24 -3.9 -0.94 10.05 -11.3 -6.15zm360.2 -8.79c-1.92,0.13 -3.7,0.6 -5.34,1.43 -1.64,0.83 -3.04,1.92 -4.21,3.23 -1.18,1.34 -2.08,2.88 -2.7,4.62 -0.61,1.73 -0.87,3.55 -0.75,5.47 0.13,1.89 0.6,3.66 1.44,5.3 0.82,1.64 1.91,3.05 3.24,4.23 1.33,1.17 2.86,2.06 4.59,2.68 1.74,0.63 3.57,0.87 5.47,0.74 1.9,-0.11 3.67,-0.59 5.31,-1.42 1.64,-0.83 3.05,-1.91 4.23,-3.24 1.18,-1.34 2.06,-2.87 2.68,-4.6 0.63,-1.72 0.88,-3.55 0.75,-5.43 -0.12,-1.92 -0.58,-3.72 -1.42,-5.35 -0.83,-1.64 -1.92,-3.05 -3.25,-4.23 -1.34,-1.17 -2.86,-2.06 -4.59,-2.68 -1.45,-0.52 -2.95,-0.78 -4.51,-0.78 -0.31,0 -0.62,0.01 -0.94,0.03zm-2.68 24.04c-1.34,-0.48 -2.54,-1.18 -3.57,-2.09 -1.07,-0.9 -1.9,-1.99 -2.55,-3.27 -0.65,-1.28 -1.01,-2.65 -1.1,-4.13 -0.1,-1.47 0.1,-2.88 0.58,-4.24 0.47,-1.34 1.18,-2.53 2.09,-3.58 0.93,-1.05 2.03,-1.89 3.3,-2.54 1.28,-0.64 2.65,-1.01 4.13,-1.09 1.47,-0.1 2.88,0.08 4.24,0.57 1.34,0.48 2.53,1.17 3.57,2.1 1.02,0.92 1.86,2.02 2.5,3.3 0.66,1.28 1.02,2.65 1.11,4.12 0.11,1.48 -0.1,2.89 -0.57,4.24 -0.48,1.34 -1.18,2.53 -2.09,3.57 -0.91,1.03 -2.01,1.88 -3.27,2.52 -1.3,0.64 -2.66,1.01 -4.13,1.1 -0.24,0.01 -0.49,0.01 -0.74,0.01 -1.21,0 -2.37,-0.2 -3.5,-0.59zm-336.67 8.92l-24.55 2.41c-0.42,0.04 -0.76,0.23 -1.04,0.56 -0.28,0.33 -0.39,0.72 -0.34,1.16 0.03,0.42 0.23,0.77 0.56,1.05 0.33,0.26 0.71,0.38 1.12,0.34l9.56 -0.93 1.37 13.75 -9.57 0.95c-0.42,0.04 -0.77,0.24 -1.05,0.57 -0.26,0.32 -0.39,0.69 -0.34,1.12 0.04,0.45 0.23,0.81 0.56,1.08 0.33,0.28 0.72,0.38 1.14,0.34l24.54 -2.41c0.42,-0.03 0.77,-0.23 1.05,-0.56 0.26,-0.33 0.38,-0.71 0.34,-1.17 -0.04,-0.42 -0.23,-0.76 -0.56,-1.03 -0.34,-0.28 -0.71,-0.4 -1.13,-0.34l-11.87 1.15 -1.35 -13.75 11.86 -1.18c0.43,-0.03 0.78,-0.22 1.05,-0.56 0.27,-0.33 0.39,-0.71 0.35,-1.13 -0.04,-0.44 -0.24,-0.8 -0.57,-1.07 -0.29,-0.24 -0.62,-0.36 -0.99,-0.36 -0.05,0 -0.09,0.01 -0.14,0.01zm330.34 7.8c-0.97,0.29 -1.86,0.74 -2.65,1.35 -0.79,0.6 -1.44,1.34 -1.98,2.23 -0.52,0.88 -0.86,1.85 -1,2.91 -0.13,1.08 -0.06,2.11 0.23,3.1 0.28,1 0.73,1.9 1.33,2.68 0.61,0.79 1.35,1.45 2.23,1.98 0.88,0.54 1.86,0.85 2.93,1 1.18,0.15 2.2,0.09 3.08,-0.21 0.86,-0.29 1.6,-0.71 2.22,-1.25 0.64,-0.55 1.18,-1.18 1.64,-1.92 0.46,-0.72 0.88,-1.46 1.26,-2.2 0.19,-0.37 0.38,-0.73 0.57,-1.09 0.18,-0.36 0.38,-0.71 0.56,-1.06 0.37,-0.66 0.77,-1.25 1.19,-1.77 0.42,-0.49 0.89,-0.84 1.38,-1.08 0.51,-0.24 1.11,-0.3 1.81,-0.21 0.62,0.08 1.21,0.27 1.74,0.6 0.55,0.32 1,0.71 1.35,1.19 0.37,0.47 0.64,1 0.81,1.6 0.18,0.59 0.22,1.19 0.14,1.82 -0.08,0.63 -0.29,1.21 -0.6,1.74 -0.32,0.55 -0.71,1 -1.2,1.37 -0.47,0.37 -1.01,0.62 -1.6,0.8 -0.61,0.17 -1.21,0.22 -1.85,0.12 -0.41,-0.04 -0.79,0.06 -1.14,0.33 -0.35,0.25 -0.53,0.6 -0.59,1.01 -0.06,0.45 0.05,0.84 0.3,1.18 0.27,0.33 0.61,0.55 1.03,0.6 1.07,0.14 2.1,0.06 3.09,-0.22 0.97,-0.29 1.85,-0.74 2.65,-1.35 0.8,-0.61 1.45,-1.35 1.98,-2.24 0.52,-0.89 0.86,-1.86 1,-2.94 0.14,-1.06 0.07,-2.1 -0.22,-3.08 -0.28,-0.99 -0.73,-1.87 -1.35,-2.66 -0.59,-0.79 -1.34,-1.45 -2.23,-1.98 -0.87,-0.52 -1.84,-0.85 -2.91,-1 -1.15,-0.15 -2.13,-0.07 -2.96,0.22 -0.83,0.3 -1.55,0.72 -2.15,1.27 -0.61,0.55 -1.14,1.19 -1.58,1.92 -0.45,0.73 -0.87,1.47 -1.24,2.2 -0.2,0.38 -0.38,0.75 -0.57,1.1 -0.19,0.36 -0.38,0.7 -0.56,1.04 -0.2,0.33 -0.41,0.64 -0.6,0.94 -0.2,0.3 -0.4,0.57 -0.62,0.81 -0.44,0.48 -0.94,0.85 -1.47,1.09 -0.54,0.23 -1.2,0.3 -1.97,0.21 -0.62,-0.08 -1.2,-0.29 -1.72,-0.61 -0.54,-0.32 -0.97,-0.71 -1.34,-1.18 -0.37,-0.48 -0.63,-1.01 -0.81,-1.62 -0.16,-0.6 -0.21,-1.21 -0.13,-1.83 0.08,-0.64 0.28,-1.21 0.6,-1.74 0.31,-0.53 0.71,-0.98 1.18,-1.33 0.47,-0.37 1.01,-0.64 1.6,-0.81 0.58,-0.18 1.2,-0.22 1.82,-0.14 0.44,0.06 0.83,-0.04 1.17,-0.3 0.34,-0.28 0.56,-0.61 0.6,-1.04 0.06,-0.44 -0.04,-0.83 -0.3,-1.17 -0.27,-0.35 -0.63,-0.54 -1.06,-0.59 -0.34,-0.05 -0.68,-0.08 -1.01,-0.08 -0.72,0 -1.4,0.1 -2.08,0.29zm-329.12 25.03c-0.4,0.11 -0.7,0.37 -0.91,0.78 -0.22,0.38 -0.27,0.78 -0.15,1.19 0.12,0.4 0.37,0.7 0.79,0.89 1.29,0.73 2.37,1.63 3.27,2.74 0.89,1.1 1.55,2.35 1.96,3.74 0.43,1.45 0.55,2.88 0.37,4.33 -0.15,1.43 -0.57,2.75 -1.23,3.98 -0.67,1.23 -1.56,2.31 -2.65,3.23 -1.12,0.94 -2.38,1.61 -3.82,2.04 -1.44,0.43 -2.85,0.57 -4.25,0.39 -1.41,-0.18 -2.7,-0.6 -3.89,-1.27 -1.2,-0.67 -2.24,-1.55 -3.15,-2.67 -0.91,-1.12 -1.59,-2.4 -2.02,-3.86 -0.42,-1.39 -0.56,-2.81 -0.41,-4.21 0.15,-1.42 0.57,-2.78 1.27,-4.09 0.21,-0.39 0.25,-0.78 0.13,-1.19 -0.11,-0.39 -0.37,-0.7 -0.75,-0.9 -0.39,-0.24 -0.78,-0.29 -1.18,-0.18 -0.41,0.13 -0.72,0.4 -0.94,0.8 -0.9,1.67 -1.44,3.41 -1.62,5.22 -0.18,1.83 0,3.63 0.53,5.44 0.56,1.85 1.42,3.51 2.58,4.94 1.16,1.42 2.52,2.57 4.06,3.43 1.53,0.87 3.21,1.41 5.04,1.63 1.81,0.23 3.65,0.08 5.49,-0.48 1.87,-0.55 3.51,-1.42 4.92,-2.62 1.43,-1.19 2.56,-2.59 3.41,-4.17 0.86,-1.57 1.39,-3.27 1.62,-5.11 0.22,-1.86 0.04,-3.71 -0.5,-5.56 -0.54,-1.8 -1.39,-3.42 -2.55,-4.83 -1.15,-1.41 -2.56,-2.57 -4.23,-3.47 -0.24,-0.16 -0.5,-0.23 -0.76,-0.23 -0.14,0 -0.29,0.03 -0.43,0.07zm320.06 1c-0.38,0.21 -0.64,0.52 -0.77,0.95 -0.13,0.39 -0.1,0.78 0.11,1.18 0.19,0.37 0.51,0.63 0.9,0.75l10.18 3.19 -1.39 4.44c-0.33,1.02 -0.43,2.05 -0.33,3.08 0.12,1.03 0.39,1.99 0.86,2.87 0.46,0.88 1.08,1.67 1.84,2.34 0.78,0.66 1.69,1.15 2.73,1.48 1.02,0.33 2.05,0.42 3.06,0.31 1.02,-0.1 1.98,-0.38 2.86,-0.85 0.87,-0.45 1.65,-1.09 2.33,-1.86 0.66,-0.79 1.17,-1.69 1.49,-2.72l1.86 -5.92c0.12,-0.42 0.1,-0.83 -0.11,-1.21 -0.2,-0.39 -0.5,-0.63 -0.9,-0.76l-23.54 -7.38c-0.16,-0.05 -0.32,-0.07 -0.47,-0.07 -0.24,0 -0.47,0.06 -0.71,0.18zm15.04 17.31c-0.58,-0.21 -1.13,-0.49 -1.58,-0.9 -0.48,-0.41 -0.84,-0.87 -1.12,-1.41 -0.28,-0.52 -0.44,-1.09 -0.52,-1.72 -0.05,-0.61 0,-1.25 0.21,-1.84l1.37 -4.44 8.9 2.8 -1.38 4.42c-0.19,0.61 -0.49,1.15 -0.9,1.63 -0.41,0.47 -0.87,0.85 -1.41,1.13 -0.53,0.27 -1.1,0.44 -1.72,0.51 -0.14,0.02 -0.3,0.03 -0.45,0.03 -0.46,0 -0.92,-0.08 -1.4,-0.21zm-23.74 6.83c-0.4,0.15 -0.69,0.42 -0.88,0.83 -0.19,0.37 -0.2,0.77 -0.06,1.18 0.15,0.4 0.4,0.71 0.79,0.89l22.29 10.56c0.37,0.19 0.77,0.2 1.18,0.07 0.41,-0.15 0.7,-0.41 0.88,-0.79 0.19,-0.41 0.21,-0.82 0.07,-1.23 -0.14,-0.4 -0.41,-0.68 -0.78,-0.88l-22.29 -10.57c-0.22,-0.1 -0.44,-0.15 -0.65,-0.15 -0.18,0 -0.36,0.02 -0.55,0.09zm-295.87 5.6c-0.4,0.21 -0.65,0.51 -0.77,0.93 -0.14,0.41 -0.09,0.82 0.11,1.21l4.89 9.35 -8.38 4.38 -4.14 -7.87c-0.2,-0.39 -0.5,-0.63 -0.9,-0.76 -0.42,-0.13 -0.81,-0.1 -1.18,0.1 -0.4,0.2 -0.66,0.51 -0.78,0.93 -0.12,0.39 -0.07,0.78 0.12,1.15l4.12 7.9 -7.95 4.15 -4.88 -9.34c-0.22,-0.4 -0.51,-0.67 -0.93,-0.81 -0.39,-0.12 -0.78,-0.08 -1.19,0.12 -0.37,0.19 -0.62,0.49 -0.75,0.9 -0.13,0.42 -0.08,0.81 0.12,1.21l5.61 10.73c0.21,0.41 0.51,0.66 0.92,0.78 0.42,0.14 0.81,0.12 1.19,-0.09l21.73 -11.37 0.06 -0.03 0.06 -0.02c0.39,-0.2 0.64,-0.52 0.75,-0.92 0.14,-0.41 0.1,-0.82 -0.11,-1.22l-5.6 -10.72c-0.21,-0.4 -0.53,-0.66 -0.94,-0.79 -0.16,-0.05 -0.32,-0.07 -0.47,-0.07 -0.24,0 -0.47,0.05 -0.71,0.17zm286.43 12.14c-0.43,0.12 -0.74,0.37 -0.97,0.75 -0.22,0.37 -0.26,0.75 -0.16,1.17 0.11,0.42 0.35,0.74 0.72,0.94l19.94 11.71 -2.88 4.92c-0.22,0.36 -0.28,0.75 -0.18,1.15 0.1,0.42 0.34,0.74 0.73,0.97 0.36,0.2 0.75,0.26 1.16,0.15 0.42,-0.11 0.74,-0.35 0.96,-0.71l7.34 -12.53c0.23,-0.37 0.27,-0.75 0.17,-1.18 -0.11,-0.42 -0.35,-0.73 -0.72,-0.94 -0.38,-0.23 -0.77,-0.28 -1.19,-0.17 -0.41,0.11 -0.71,0.35 -0.92,0.71l-2.89 4.92 -19.94 -11.69c-0.24,-0.15 -0.49,-0.22 -0.75,-0.22 -0.15,0 -0.29,0.02 -0.42,0.05zm-272.96 10.13c-0.36,0.27 -0.57,0.6 -0.63,1.04 -0.07,0.44 0.04,0.81 0.3,1.18l6.31 8.47 -7.61 5.65 -5.32 -7.16c-0.24,-0.33 -0.58,-0.52 -1,-0.59 -0.43,-0.06 -0.82,0.03 -1.16,0.28 -0.36,0.28 -0.56,0.62 -0.61,1.04 -0.05,0.42 0.04,0.78 0.29,1.14l5.32 7.13 -7.22 5.36 -6.28 -8.48c-0.27,-0.36 -0.62,-0.57 -1.03,-0.63 -0.42,-0.07 -0.81,0.02 -1.16,0.29 -0.34,0.25 -0.54,0.59 -0.61,1.01 -0.06,0.43 0.05,0.82 0.3,1.18l7.23 9.71c0.26,0.37 0.61,0.57 1.04,0.63 0.42,0.07 0.81,-0.02 1.15,-0.27l19.69 -14.63 0.05 -0.04 0.06 -0.05c0.35,-0.25 0.54,-0.59 0.6,-1.01 0.07,-0.43 -0.03,-0.83 -0.31,-1.18l-7.21 -9.72c-0.26,-0.35 -0.61,-0.57 -1.04,-0.63 -0.09,-0.01 -0.18,-0.02 -0.27,-0.02 -0.32,0 -0.61,0.1 -0.88,0.3zm262.58 4.82c-0.4,0.18 -0.68,0.48 -0.81,0.88 -0.15,0.4 -0.12,0.81 0.07,1.18l3.07 6.42 -8.44 9.58 -6.75 -2.23c-0.32,-0.12 -0.61,-0.13 -0.91,-0.04 -0.31,0.1 -0.56,0.26 -0.76,0.49 -0.14,0.15 -0.23,0.34 -0.3,0.54 -0.13,0.41 -0.11,0.8 0.08,1.19 0.2,0.38 0.49,0.64 0.9,0.79 4.31,1.43 8.6,2.84 12.85,4.24 4.25,1.4 8.53,2.81 12.85,4.24 0.3,0.11 0.61,0.12 0.89,0.04 0.3,-0.09 0.54,-0.25 0.75,-0.47 0.21,-0.25 0.34,-0.52 0.4,-0.81 0.05,-0.32 -0.01,-0.61 -0.16,-0.9l-8.14 -17.08 -3.52 -7.32c-0.17,-0.41 -0.46,-0.67 -0.88,-0.81 -0.17,-0.07 -0.34,-0.1 -0.51,-0.1 -0.23,0 -0.46,0.07 -0.68,0.17zm-2.88 19.13l6.68 -7.58 5.52 11.63 -12.2 -4.05zm-241.75 -3.81c-0.43,0.02 -0.79,0.18 -1.07,0.51 -0.19,0.2 -0.32,0.45 -0.39,0.73l-2.3 11.26c0.14,0.12 0.26,0.21 0.39,0.33l0.31 0.29 -0.89 0.29 0.19 -0.91c-0.7,-0.55 -1.45,-0.99 -2.26,-1.27 -0.99,-0.33 -1.98,-0.49 -2.97,-0.42 -0.99,0.03 -1.96,0.26 -2.89,0.69 -0.95,0.4 -1.78,1.01 -2.5,1.8 -0.73,0.81 -1.26,1.69 -1.59,2.66 -0.33,0.97 -0.47,1.95 -0.43,2.94 0.05,1 0.29,1.97 0.71,2.91 0.43,0.95 1.04,1.78 1.83,2.52l4.58 4.16c0.33,0.31 0.71,0.45 1.14,0.44 0.43,-0.03 0.78,-0.21 1.07,-0.52l16.63 -18.21c0.29,-0.31 0.41,-0.67 0.41,-1.12 -0.03,-0.42 -0.21,-0.79 -0.54,-1.08 -0.31,-0.29 -0.67,-0.43 -1.09,-0.41 -0.44,0.01 -0.8,0.19 -1.09,0.5l-7.18 7.88 -1.13 -1.04 2.67 -13.03c0.05,-0.27 0.03,-0.55 -0.05,-0.82 -0.08,-0.26 -0.24,-0.5 -0.44,-0.67 -0.29,-0.29 -0.63,-0.41 -1.04,-0.41 -0.02,0 -0.05,0 -0.08,0zm-11.77 22.04c-0.47,-0.44 -0.84,-0.93 -1.09,-1.5 -0.25,-0.58 -0.41,-1.15 -0.42,-1.75 -0.03,-0.59 0.06,-1.19 0.25,-1.78 0.21,-0.59 0.53,-1.11 0.97,-1.58 0.42,-0.48 0.91,-0.84 1.48,-1.09 0.55,-0.23 1.14,-0.39 1.73,-0.4 0.6,-0.04 1.18,0.05 1.78,0.26 0.59,0.21 1.13,0.52 1.59,0.94l3.42 3.13 -6.27 6.89 -3.44 -3.12zm231.59 -12.41l-7.13 6.12c-0.34,0.27 -0.52,0.64 -0.55,1.07 -0.03,0.43 0.09,0.81 0.36,1.12 0.28,0.33 0.62,0.5 1.05,0.54 0.44,0.03 0.81,-0.1 1.15,-0.39l5.97 -5.11 15.04 17.55c0.29,0.34 0.65,0.52 1.06,0.56 0.41,0.03 0.78,-0.09 1.13,-0.39 0.32,-0.27 0.5,-0.62 0.55,-1.04 0.02,-0.42 -0.1,-0.81 -0.39,-1.15l-16.05 -18.73c-0.28,-0.31 -0.63,-0.48 -1.05,-0.52 -0.06,0 -0.1,-0.01 -0.15,-0.01 -0.37,0 -0.69,0.13 -0.99,0.38zm-199.32 9.93c-0.98,0.21 -1.89,0.58 -2.75,1.14 -0.85,0.57 -1.59,1.29 -2.17,2.18 -0.66,1 -1.06,1.96 -1.18,2.87 -0.12,0.9 -0.06,1.75 0.15,2.55 0.21,0.81 0.55,1.57 1.01,2.31 0.44,0.74 0.93,1.42 1.42,2.1 0.26,0.34 0.5,0.67 0.73,0.98 0.24,0.33 0.48,0.66 0.72,0.97 0.43,0.64 0.78,1.24 1.06,1.86 0.24,0.59 0.37,1.15 0.36,1.71 0,0.55 -0.22,1.13 -0.6,1.7 -0.35,0.54 -0.78,0.98 -1.3,1.31 -0.53,0.35 -1.08,0.58 -1.67,0.7 -0.59,0.13 -1.18,0.13 -1.78,0.03 -0.61,-0.1 -1.17,-0.33 -1.71,-0.68 -0.52,-0.36 -0.96,-0.79 -1.31,-1.3 -0.34,-0.53 -0.57,-1.08 -0.69,-1.66 -0.13,-0.59 -0.13,-1.19 -0.01,-1.81 0.1,-0.62 0.34,-1.19 0.68,-1.71 0.24,-0.36 0.31,-0.74 0.22,-1.17 -0.09,-0.42 -0.3,-0.74 -0.65,-0.97 -0.38,-0.25 -0.78,-0.33 -1.2,-0.24 -0.43,0.07 -0.76,0.3 -0.98,0.65 -0.6,0.9 -0.98,1.86 -1.16,2.88 -0.17,0.99 -0.15,1.98 0.05,2.97 0.19,0.97 0.58,1.89 1.14,2.75 0.57,0.88 1.31,1.6 2.21,2.2 0.9,0.59 1.86,0.97 2.86,1.15 1.02,0.17 2,0.15 2.98,-0.04 0.97,-0.2 1.89,-0.59 2.75,-1.14 0.86,-0.55 1.6,-1.29 2.18,-2.19 0.63,-0.96 1.01,-1.88 1.1,-2.75 0.1,-0.87 0.04,-1.71 -0.19,-2.49 -0.23,-0.78 -0.58,-1.54 -1.04,-2.27 -0.45,-0.71 -0.94,-1.4 -1.44,-2.07 -0.24,-0.35 -0.49,-0.67 -0.72,-0.99 -0.24,-0.33 -0.47,-0.64 -0.69,-0.95 -0.19,-0.35 -0.4,-0.66 -0.58,-0.97 -0.19,-0.3 -0.34,-0.61 -0.45,-0.91 -0.25,-0.61 -0.36,-1.2 -0.34,-1.79 0.02,-0.6 0.25,-1.22 0.68,-1.87 0.34,-0.51 0.78,-0.96 1.29,-1.28 0.52,-0.33 1.06,-0.56 1.65,-0.69 0.58,-0.11 1.19,-0.12 1.8,-0.01 0.62,0.1 1.18,0.34 1.72,0.68 0.53,0.36 0.96,0.79 1.3,1.3 0.33,0.51 0.56,1.06 0.69,1.64 0.1,0.6 0.11,1.2 0.01,1.81 -0.11,0.6 -0.32,1.15 -0.67,1.69 -0.25,0.38 -0.33,0.77 -0.24,1.2 0.07,0.42 0.3,0.75 0.65,0.97 0.37,0.26 0.77,0.33 1.19,0.24 0.43,-0.09 0.76,-0.31 1.01,-0.69 0.59,-0.89 0.98,-1.85 1.14,-2.86 0.19,-1.01 0.17,-2 -0.03,-2.97 -0.21,-0.99 -0.58,-1.9 -1.14,-2.76 -0.56,-0.85 -1.28,-1.59 -2.18,-2.17 -0.9,-0.61 -1.87,-0.98 -2.89,-1.17 -0.48,-0.08 -0.96,-0.13 -1.44,-0.13 -0.52,0 -1.03,0.06 -1.55,0.16z"></path>
   <path class="fil2" d="M331.42 175.87c1.68,2.12 3.31,4.3 4.88,6.51 2.82,3.96 5.43,8.06 7.86,12.3 12.42,21.76 19.53,46.94 19.53,73.76l-0.03 0c0,23.14 -5.27,45.06 -14.68,64.59l4.83 2.33c-3.47,7.22 -7.51,14.14 -12.06,20.73 -4.55,6.58 -9.58,12.76 -15.04,18.53 -26.83,28.29 -64.23,46.43 -105.86,48.08l0 47.87c77.82,-4.58 144.64,-49.82 176.44,-115.28 6.34,-13.07 11.3,-26.93 14.66,-41.43 3.38,-14.55 5.17,-29.72 5.18,-45.33l-0.04 0 0 -0.09 0 -0.01 0.04 0c-0.01,-55.86 -22.67,-106.46 -59.32,-143.1 -36.64,-36.65 -87.25,-59.31 -143.1,-59.31l0 0.02 -0.01 0 0 0 0 -0.02c-55.87,0 -106.47,22.66 -143.11,59.3 -36.64,36.65 -59.32,87.25 -59.32,143.12l0.03 0 0 0c0,65.71 31.47,123.68 79.99,160.73 9.4,7.18 19.49,13.59 30.14,19.14 7.56,3.93 15.37,7.42 23.4,10.4 1.2,-2.12 2.68,-4.08 4.4,-5.8 4.89,-4.88 11.64,-7.9 19.13,-7.9l0 -0.02 0.01 0 0 0.02c7.49,0 14.25,3.02 19.12,7.9 4.89,4.89 7.9,11.64 7.9,19.14l0.04 0 0 0.01 -0.04 0c0,7.47 -3.01,14.24 -7.9,19.12l-0.02 0c-4.88,4.88 -11.63,7.9 -19.1,7.9l0 0.02 0 0 0 -0.02c-7.5,0 -14.26,-3.02 -19.14,-7.9l0 -0.03c-4.88,-4.87 -7.89,-11.63 -7.9,-19.09l-0.02 0 0 -0.01 0.02 0c0,-0.51 0.02,-1.01 0.04,-1.51 -8.82,-3.24 -17.38,-7.03 -25.6,-11.32 -11.23,-5.84 -21.92,-12.64 -31.94,-20.3 -51.46,-39.3 -84.83,-100.78 -84.83,-170.48l0 0 0.02 0c0,-59.3 24.02,-112.98 62.87,-151.82 38.83,-38.83 92.51,-62.86 151.81,-62.86l0 -0.03 0 0 0.01 0 0 0.03c59.29,0 112.97,24.03 151.81,62.86 38.83,38.85 62.86,92.52 62.86,151.81l0.02 0 0 0.01 0 0.09 -0.02 0c0,16.63 -1.89,32.71 -5.46,48.07 -3.57,15.42 -8.84,30.16 -15.57,44.03 -33.81,69.57 -104.86,117.6 -187.5,122.22l0 0.24 -5.26 0c-0.24,0.01 -0.47,0.01 -0.72,0.03l-0.01 -0.03 -6.31 0 0 -60.46c-18.2,-0.69 -35.57,-4.55 -51.58,-11.02 -5.68,-2.29 -11.32,-5 -16.88,-8.07 -27.97,-15.5 -50.61,-39.35 -64.51,-68.18l4.84 -2.33c-9.41,-19.53 -14.68,-41.45 -14.68,-64.59l-0.03 0 0 -0.01 0.03 0c0,-18.65 3.42,-36.47 9.66,-52.9 1,-2.63 2.1,-5.28 3.29,-7.93 5.14,-11.47 11.68,-22.18 19.41,-31.88l-4.69 -3.74 7.65 -9.61 18.92 15.1 -7.64 9.62 -4.66 -3.72c-7.09,8.91 -13.09,18.72 -17.79,29.23 -1.05,2.33 -2.05,4.76 -3,7.26 -5.75,15.11 -8.9,31.48 -8.9,48.57l0.03 0 0 0.01 -0.03 0c0,21.22 4.85,41.32 13.49,59.25l4.83 -2.33c11.86,24.61 31.12,44.93 54.87,58.08 4.49,2.48 9.28,4.76 14.35,6.81 15.21,6.15 31.81,9.53 49.17,9.53l0 -0.03 0 0c37.54,0 71.41,-15.75 95.34,-41 4.66,-4.93 8.94,-10.18 12.77,-15.73 3.85,-5.55 7.3,-11.46 10.27,-17.66l0.1 -0.14 0 -0.01 4.78 2.39c8.61,-17.9 13.44,-37.96 13.44,-59.16l-0.02 0c0,-24.64 -6.5,-47.76 -17.89,-67.7 -2.21,-3.88 -4.61,-7.62 -7.19,-11.25 -1.44,-2.04 -2.93,-4.02 -4.47,-5.97l-5.11 4.07 -7.64 -9.61 20.21 -16.11 7.63 9.6 -5.5 4.4zm-162.05 287.18c4.98,0 9,4.02 9,9 0,4.96 -4.02,9.01 -9,9.01 -4.98,0 -9.01,-4.05 -9.01,-9.01 0,-4.98 4.03,-9 9.01,-9zm0 -5.79l0 0.04 -0.01 0 0 -0.04c-4.06,0 -7.74,1.67 -10.43,4.36 -2.67,2.68 -4.34,6.37 -4.34,10.43l0.02 0 0 0.01 -0.02 0c0,4.06 1.66,7.75 4.33,10.43l0.01 -0.01c2.69,2.67 6.38,4.34 10.44,4.34l0 -0.02 0 0 0 0.02c4.07,0 7.76,-1.66 10.44,-4.33l-0.01 -0.01c2.68,-2.69 4.34,-6.38 4.34,-10.42l-0.02 0 0 -0.01 0.02 0c0,-4.06 -1.66,-7.75 -4.33,-10.43 -2.7,-2.69 -6.39,-4.36 -10.44,-4.36z"></path>
   <path class="fil3" d="M301.1 211.94c2.99,12.72 2.41,24.97 -0.43,36.08 1.87,-18.27 -7.83,-35.36 -5.95,-49.93 -3.23,-1.38 -11.76,4.48 -11.5,10.6 -0.36,23.15 11.75,32.7 0.21,59.46 7,-21.21 -5.86,-39.85 -3.56,-57.82 -3.01,-1.31 -10.97,4.18 -10.73,9.91 -0.35,21.63 11.16,34.37 0.37,59.39 6.5,-19.38 -4.8,-36.54 -2.48,-52.89 -2.6,-1.12 -9.68,4.01 -9.56,9.19 -0.67,19.64 9.73,36.18 -0.14,59.07 10.51,-1.82 22.77,-10.67 34.11,-24.99 -17.19,28.68 -47.64,41.24 -50.66,16.85 -0.26,-12.93 6.54,-30.17 -17.04,-31.15 14.99,12.07 -40.89,108.02 64.69,111.96 -25.88,-31.49 -3.91,-52 17.11,-89.18 19.47,-38.63 4.83,-63.74 4.59,-87.19 -10.06,1.32 -10.52,15.89 -9.03,20.64zm-177.24 66.55c21.02,37.18 42.99,57.69 17.12,89.18 105.57,-3.94 49.69,-99.89 64.68,-111.96 -23.58,0.98 -16.78,18.22 -17.03,31.15 -3.03,24.39 -33.49,11.81 -50.68,-16.86 11.35,14.33 23.62,23.18 34.13,25 -9.87,-22.89 0.52,-39.45 -0.16,-59.07 0.12,-5.18 -6.94,-10.31 -9.56,-9.19 2.32,16.35 -8.98,33.51 -2.47,52.89 -10.8,-25.02 0.72,-37.76 0.38,-59.39 0.23,-5.73 -7.73,-11.22 -10.75,-9.91 2.31,17.97 -10.55,36.61 -3.54,57.82 -11.54,-26.76 0.56,-36.31 0.2,-59.46 0.27,-6.12 -8.27,-11.98 -11.49,-10.6 1.87,14.56 -7.82,31.66 -5.96,49.93 -2.84,-11.11 -3.42,-23.36 -0.42,-36.08 1.47,-4.75 1.02,-19.32 -9.06,-20.64 -0.22,23.43 -14.85,48.56 4.61,87.19z"></path>
   <path class="fil4" d="M192.72 160.78c10.84,17.29 30.01,30.47 32.15,52.27 0.32,3.09 0.32,6.54 0,10.55 -0.31,3.63 -0.87,6.94 -1.31,9.36 -0.34,1.67 -0.67,3.19 -0.96,4.52 -0.25,1.13 0.07,2.29 0.87,3.12 0.65,0.67 1.54,1.03 2.45,1.03 0.21,0 0.44,-0.03 0.65,-0.06 1.6,-0.31 3.13,-0.72 4.67,-1.24 8.64,-2.81 16.35,-8.4 22.05,-15.45 51.92,-64.21 -70.88,-92.48 -33.61,-146.99 -37.71,14.98 -46.68,50.99 -26.96,82.89z"></path>
   <path class="fil5" d="M166.87 211.21c5.52,16.11 19.53,26 32.1,28.69 7.74,2.12 18.29,1.19 21.29,-7.46 5.67,-16.4 -25.07,-38.21 -32.51,-47.77 -2.22,-2.84 -4.11,-5.82 -5.67,-8.88 -1.33,-2.33 -2.42,-4.85 -3.24,-7.59 -3.67,-10.89 -3.49,-22 0.7,-30.37 -15.94,21.87 -20.49,50.59 -12.67,73.38z"></path>
   <path class="fil6" d="M1296.78 590.23c0,-4.47 -1.56,-7.94 -4.72,-10.38 -3.16,-2.42 -8.86,-4.88 -17.08,-7.35 -8.23,-2.47 -14.77,-5.23 -19.63,-8.27 -9.31,-5.84 -13.96,-13.47 -13.96,-22.86 0,-8.23 3.35,-15 10.07,-20.33 6.72,-5.34 15.41,-8 26.12,-8 7.1,0 13.44,1.31 19,3.93 5.56,2.62 9.94,6.35 13.11,11.19 3.18,4.83 4.76,10.19 4.76,16.08l-17.67 0c0,-5.28 -1.66,-9.42 -5.01,-12.4 -3.34,-3.01 -8.12,-4.5 -14.33,-4.5 -5.8,0 -10.29,1.24 -13.5,3.71 -3.21,2.47 -4.8,5.91 -4.8,10.33 0,3.73 1.73,6.84 5.18,9.33 3.46,2.48 9.17,4.9 17.11,7.27 7.95,2.34 14.32,5.03 19.14,8.03 4.82,3.02 8.35,6.48 10.59,10.38 2.24,3.91 3.37,8.48 3.37,13.71 0,8.51 -3.27,15.28 -9.79,20.3 -6.52,5.02 -15.36,7.53 -26.53,7.53 -7.4,0 -14.18,-1.37 -20.38,-4.1 -6.19,-2.74 -11,-6.5 -14.44,-11.32 -3.44,-4.81 -5.16,-10.42 -5.16,-16.83l17.76 0c0,5.79 1.91,10.27 5.74,13.46 3.83,3.17 9.32,4.77 16.48,4.77 6.17,0 10.8,-1.25 13.91,-3.75 3.12,-2.5 4.66,-5.81 4.66,-9.93z"></path>
   <path class="fil6" d="M1384.08 577.9c0,-7.57 -1.51,-13.58 -4.52,-18.02 -3.02,-4.45 -7.33,-6.67 -12.94,-6.67 -6.97,0 -11.96,2.88 -15,8.63l0 33.65c3.09,5.89 8.13,8.84 15.14,8.84 5.42,0 9.67,-2.19 12.73,-6.55 3.06,-4.37 4.59,-11.01 4.59,-19.88zm16.97 1.47c0,11.73 -2.66,21.1 -7.99,28.09 -5.33,6.98 -12.49,10.47 -21.46,10.47 -8.33,0 -14.98,-2.73 -19.98,-8.21l0 35.98 -17.04 0 0 -105.03 15.71 0 0.7 7.71c5,-6.08 11.8,-9.11 20.4,-9.11 9.25,0 16.51,3.45 21.77,10.34 5.26,6.88 7.89,16.46 7.89,28.71l0 1.05z"></path>
   <path class="fil6" d="M1453 552.94c-4.67,0 -8.45,1.63 -11.32,4.9 -2.87,3.28 -4.72,7.84 -5.5,13.68l32.46 0 0 -1.27c-0.37,-5.7 -1.9,-10 -4.56,-12.94 -2.66,-2.9 -6.36,-4.37 -11.08,-4.37zm2.05 65c-10.81,0 -19.57,-3.41 -26.27,-10.2 -6.71,-6.8 -10.05,-15.86 -10.05,-27.17l0 -2.11c0,-7.57 1.46,-14.33 4.37,-20.29 2.92,-5.96 7.03,-10.61 12.31,-13.93 5.28,-3.31 11.17,-4.96 17.67,-4.96 10.33,0 18.31,3.28 23.94,9.88 5.63,6.58 8.45,15.9 8.45,27.97l0 6.87 -49.57 0c0.52,6.27 2.6,11.21 6.27,14.85 3.68,3.66 8.28,5.49 13.86,5.49 7.8,0 14.16,-3.17 19.07,-9.47l9.18 8.76c-3.05,4.54 -7.1,8.05 -12.17,10.55 -5.08,2.5 -10.77,3.76 -17.06,3.76z"></path>
   <path class="fil6" d="M1536.02 604.33c4.25,0 7.78,-1.24 10.59,-3.72 2.81,-2.46 4.3,-5.54 4.49,-9.18l16.05 0c-0.19,4.72 -1.65,9.13 -4.41,13.22 -2.76,4.09 -6.5,7.32 -11.22,9.71 -4.73,2.38 -9.81,3.57 -15.29,3.57 -10.61,0 -19.02,-3.43 -25.24,-10.31 -6.22,-6.85 -9.32,-16.36 -9.32,-28.45l0 -1.76c0,-11.55 3.08,-20.8 9.26,-27.73 6.16,-6.94 14.58,-10.42 25.23,-10.42 9.03,0 16.38,2.63 22.05,7.9 5.68,5.26 8.66,12.17 8.94,20.71l-16.05 0c-0.19,-4.35 -1.67,-7.91 -4.46,-10.73 -2.77,-2.79 -6.32,-4.2 -10.62,-4.2 -5.51,0 -9.77,2 -12.75,5.99 -3,4 -4.51,10.05 -4.56,18.2l0 2.72c0,8.23 1.49,14.37 4.45,18.41 2.97,4.05 7.26,6.07 12.86,6.07z"></path>
   <path class="fil6" d="M1604.31 616.52l-17.04 0 0 -75.85 17.04 0 0 75.85zm-18.08 -95.62c0,-2.64 0.82,-4.82 2.48,-6.58 1.67,-1.73 4.04,-2.6 7.13,-2.6 3.07,0 5.46,0.87 7.13,2.6 1.69,1.76 2.55,3.94 2.55,6.58 0,2.59 -0.86,4.74 -2.55,6.46 -1.67,1.73 -4.06,2.58 -7.13,2.58 -3.09,0 -5.46,-0.85 -7.13,-2.58 -1.66,-1.72 -2.48,-3.87 -2.48,-6.46z"></path>
   <path class="fil6" d="M1655.65 604.26c3.36,0 6.52,-0.82 9.5,-2.45 2.96,-1.63 5.19,-3.83 6.69,-6.6l0 -14.29 -9.18 0c-6.32,0 -11.06,1.08 -14.24,3.28 -3.18,2.2 -4.76,5.31 -4.76,9.33 0,3.27 1.08,5.89 3.25,7.82 2.18,1.94 5.09,2.91 8.74,2.91zm18.72 12.27c-0.75,-1.45 -1.41,-3.81 -1.96,-7.08 -5.43,5.65 -12.06,8.48 -19.92,8.48 -7.61,0 -13.84,-2.17 -18.66,-6.52 -4.81,-4.35 -7.21,-9.72 -7.21,-16.12 0,-8.08 3.01,-14.3 9.01,-18.62 6,-4.33 14.59,-6.48 25.76,-6.48l10.45 0 0 -4.97c0,-3.94 -1.09,-7.08 -3.29,-9.44 -2.2,-2.36 -5.54,-3.54 -10.04,-3.54 -3.87,0 -7.05,0.96 -9.52,2.91 -2.48,1.93 -3.72,4.4 -3.72,7.4l-17.04 0c0,-4.15 1.38,-8.06 4.14,-11.68 2.76,-3.62 6.5,-6.46 11.25,-8.52 4.75,-2.05 10.04,-3.09 15.88,-3.09 8.87,0 15.96,2.25 21.24,6.7 5.28,4.46 8,10.74 8.14,18.82l0 34.22c0,6.83 0.96,12.27 2.87,16.34l0 1.19 -17.38 0z"></path>
   <polygon class="fil6" points="1731.02,616.52 1713.98,616.52 1713.98,508.83 1731.02,508.83 "></polygon>
   <path class="fil6" d="M1773.87 616.52l-17.05 0 0 -75.85 17.05 0 0 75.85zm-18.1 -95.62c0,-2.64 0.83,-4.82 2.49,-6.58 1.66,-1.73 4.03,-2.6 7.12,-2.6 3.08,0 5.46,0.87 7.15,2.6 1.67,1.76 2.53,3.94 2.53,6.58 0,2.59 -0.86,4.74 -2.53,6.46 -1.69,1.73 -4.07,2.58 -7.15,2.58 -3.09,0 -5.46,-0.85 -7.12,-2.58 -1.66,-1.72 -2.49,-3.87 -2.49,-6.46z"></path>
   <path class="fil6" d="M1819.92 522.23l0 18.44 13.4 0 0 12.62 -13.4 0 0 42.35c0,2.88 0.58,4.98 1.73,6.27 1.14,1.29 3.19,1.92 6.13,1.92 1.96,0 3.94,-0.23 5.96,-0.69l0 13.18c-3.89,1.08 -7.62,1.61 -11.22,1.61 -13.09,0 -19.63,-7.22 -19.63,-21.66l0 -42.98 -12.49 0 0 -12.62 12.49 0 0 -18.44 17.03 0z"></path>
   <path class="fil6" d="M1879.04 592.13l15.42 -51.46 18.15 0 -30.14 87.36c-4.63,12.76 -12.48,19.14 -23.55,19.14 -2.48,0 -5.22,-0.42 -8.21,-1.26l0 -13.26 3.23 0.22c4.29,0 7.53,-0.78 9.71,-2.35 2.18,-1.56 3.89,-4.19 5.15,-7.88l2.46 -6.52 -26.66 -75.45 18.38 0 16.06 51.46z"></path>
   <polygon class="fil6" points="2053.21,616.52 2035.54,616.52 2035.54,571.23 1989.9,571.23 1989.9,616.52 1972.15,616.52 1972.15,514.44 1989.9,514.44 1989.9,556.94 2035.54,556.94 2035.54,514.44 2053.21,514.44 "></polygon>
   <path class="fil6" d="M2092.54 579.37c0,7.82 1.61,13.91 4.84,18.34 3.22,4.41 7.7,6.62 13.46,6.62 5.76,0 10.23,-2.24 13.44,-6.73 3.19,-4.48 4.8,-11.06 4.8,-19.71 0,-7.66 -1.65,-13.73 -4.95,-18.22 -3.3,-4.49 -7.77,-6.73 -13.43,-6.73 -5.55,0 -9.98,2.21 -13.24,6.62 -3.28,4.43 -4.92,11.03 -4.92,19.81zm-17.04 -1.48c0,-7.43 1.48,-14.11 4.42,-20.08 2.95,-5.96 7.09,-10.53 12.42,-13.74 5.32,-3.21 11.44,-4.81 18.36,-4.81 10.24,0 18.54,3.3 24.93,9.89 6.37,6.6 9.82,15.34 10.34,26.23l0.07 3.99c0,7.48 -1.44,14.17 -4.31,20.06 -2.88,5.89 -7,10.44 -12.34,13.66 -5.35,3.23 -11.54,4.84 -18.55,4.84 -10.69,0 -19.27,-3.55 -25.69,-10.68 -6.43,-7.13 -9.65,-16.64 -9.65,-28.51l0 -0.85z"></path>
   <path class="fil6" d="M2209.15 595.91c0,-3.02 -1.26,-5.35 -3.75,-6.93 -2.5,-1.59 -6.65,-2.99 -12.45,-4.21 -5.79,-1.22 -10.64,-2.75 -14.51,-4.63 -8.52,-4.12 -12.76,-10.08 -12.76,-17.87 0,-6.55 2.75,-12.02 8.27,-16.41 5.52,-4.4 12.52,-6.59 21.04,-6.59 9.06,0 16.39,2.23 21.97,6.72 5.59,4.49 8.38,10.31 8.38,17.47l-17.04 0c0,-3.27 -1.21,-6 -3.64,-8.17 -2.43,-2.18 -5.66,-3.26 -9.67,-3.26 -3.75,0 -6.79,0.86 -9.16,2.6 -2.36,1.72 -3.54,4.03 -3.54,6.93 0,2.62 1.11,4.65 3.3,6.1 2.19,1.45 6.64,2.91 13.32,4.39 6.68,1.47 11.92,3.21 15.73,5.26 3.82,2.03 6.65,4.47 8.49,7.33 1.84,2.84 2.78,6.3 2.78,10.36 0,6.84 -2.83,12.36 -8.49,16.58 -5.66,4.25 -13.06,6.36 -22.22,6.36 -6.22,0 -11.77,-1.13 -16.63,-3.38 -4.85,-2.24 -8.65,-5.32 -11.35,-9.25 -2.71,-3.93 -4.07,-8.15 -4.07,-12.69l16.55 0c0.24,4.02 1.76,7.12 4.57,9.29 2.79,2.18 6.51,3.26 11.14,3.26 4.48,0 7.89,-0.85 10.23,-2.56 2.34,-1.7 3.51,-3.93 3.51,-6.7z"></path>
   <path class="fil6" d="M2296.37 577.9c0,-7.57 -1.51,-13.58 -4.52,-18.02 -3.02,-4.45 -7.33,-6.67 -12.94,-6.67 -6.96,0 -11.97,2.88 -15.01,8.63l0 33.65c3.1,5.89 8.15,8.84 15.16,8.84 5.41,0 9.66,-2.19 12.72,-6.55 3.05,-4.37 4.59,-11.01 4.59,-19.88zm16.97 1.47c0,11.73 -2.67,21.1 -8,28.09 -5.32,6.98 -12.48,10.47 -21.44,10.47 -8.33,0 -14.99,-2.73 -20,-8.21l0 35.98 -17.03 0 0 -105.03 15.71 0 0.7 7.71c5,-6.08 11.8,-9.11 20.4,-9.11 9.25,0 16.51,3.45 21.77,10.34 5.26,6.88 7.89,16.46 7.89,28.71l0 1.05z"></path>
   <path class="fil6" d="M2352.05 616.52l-17.05 0 0 -75.85 17.05 0 0 75.85zm-18.1 -95.62c0,-2.64 0.83,-4.82 2.49,-6.58 1.67,-1.73 4.04,-2.6 7.12,-2.6 3.08,0 5.46,0.87 7.15,2.6 1.68,1.76 2.52,3.94 2.52,6.58 0,2.59 -0.84,4.74 -2.52,6.46 -1.69,1.73 -4.07,2.58 -7.15,2.58 -3.08,0 -5.45,-0.85 -7.12,-2.58 -1.66,-1.72 -2.49,-3.87 -2.49,-6.46z"></path>
   <path class="fil6" d="M2398.11 522.23l0 18.44 13.4 0 0 12.62 -13.4 0 0 42.35c0,2.88 0.57,4.98 1.72,6.27 1.14,1.29 3.19,1.92 6.14,1.92 1.95,0 3.93,-0.23 5.95,-0.69l0 13.18c-3.88,1.08 -7.63,1.61 -11.22,1.61 -13.09,0 -19.63,-7.22 -19.63,-21.66l0 -42.98 -12.48 0 0 -12.62 12.48 0 0 -18.44 17.04 0z"></path>
   <path class="fil6" d="M2457.29 604.26c3.36,0 6.53,-0.82 9.5,-2.45 2.97,-1.63 5.19,-3.83 6.69,-6.6l0 -14.29 -9.18 0c-6.32,0 -11.05,1.08 -14.23,3.28 -3.19,2.2 -4.76,5.31 -4.76,9.33 0,3.27 1.07,5.89 3.25,7.82 2.17,1.94 5.07,2.91 8.73,2.91zm18.72 12.27c-0.75,-1.45 -1.41,-3.81 -1.96,-7.08 -5.43,5.65 -12.07,8.48 -19.91,8.48 -7.63,0 -13.85,-2.17 -18.66,-6.52 -4.82,-4.35 -7.22,-9.72 -7.22,-16.12 0,-8.08 3.01,-14.3 9.02,-18.62 6,-4.33 14.58,-6.48 25.75,-6.48l10.45 0 0 -4.97c0,-3.94 -1.09,-7.08 -3.29,-9.44 -2.2,-2.36 -5.54,-3.54 -10.03,-3.54 -3.89,0 -7.07,0.96 -9.53,2.91 -2.47,1.93 -3.72,4.4 -3.72,7.4l-17.04 0c0,-4.15 1.38,-8.06 4.14,-11.68 2.76,-3.62 6.5,-6.46 11.25,-8.52 4.75,-2.05 10.03,-3.09 15.88,-3.09 8.88,0 15.97,2.25 21.24,6.7 5.28,4.46 8,10.74 8.14,18.82l0 34.22c0,6.83 0.97,12.27 2.88,16.34l0 1.19 -17.39 0z"></path>
   <polygon class="fil6" points="2532.66,616.52 2515.61,616.52 2515.61,508.83 2532.66,508.83 "></polygon>
   <path class="fil6" d="M1671.7 837.47c4.98,3.06 12.26,5.61 19.92,5.61 11.36,0 17.99,-6 17.99,-14.68 0,-8.04 -4.59,-12.64 -16.21,-17.11 -14.04,-4.97 -22.72,-12.25 -22.72,-24.38 0,-13.4 11.11,-23.36 27.84,-23.36 8.8,0 15.18,2.04 19.01,4.21l-3.06 9.07c-2.81,-1.53 -8.56,-4.09 -16.34,-4.09 -11.75,0 -16.22,7.03 -16.22,12.89 0,8.04 5.23,12.01 17.11,16.6 14.55,5.62 21.96,12.64 21.96,25.28 0,13.28 -9.83,24.77 -30.12,24.77 -8.31,0 -17.37,-2.43 -21.97,-5.5l2.81 -9.31z"></path>
   <path class="fil6" d="M1763.22 851l0 -86.05 12.14 0 27.57 43.53c6.38,10.09 11.36,19.16 15.44,27.96l0.26 -0.12c-1.02,-11.5 -1.27,-21.96 -1.27,-35.37l0 -36 10.46 0 0 86.05 -11.24 0 -27.31 -43.66c-6.01,-9.58 -11.74,-19.4 -16.09,-28.72l-0.38 0.12c0.64,10.85 0.9,21.19 0.9,35.49l0 36.77 -10.48 0z"></path>
   <path class="fil6" d="M1885.38 807.47c2.43,0.64 5.48,0.89 9.19,0.89 13.41,0 21.58,-6.51 21.58,-18.39 0,-11.35 -8.05,-16.84 -20.3,-16.84 -4.85,0 -8.55,0.38 -10.47,0.88l0 33.46zm-11.11 -41.5c5.37,-0.89 12.39,-1.66 21.32,-1.66 10.98,0 19.03,2.56 24.13,7.16 4.72,4.08 7.53,10.34 7.53,18 0,7.78 -2.29,13.91 -6.64,18.37 -5.86,6.26 -15.44,9.46 -26.29,9.46 -3.32,0 -6.39,-0.14 -8.94,-0.77l0 34.47 -11.11 0 0 -85.03z"></path>
   <path class="fil6" d="M1971.03 819.47c-12.25,-0.26 -26.17,1.91 -26.17,13.91 0,7.28 4.86,10.72 10.6,10.72 8.04,0 13.15,-5.1 14.94,-10.34 0.38,-1.14 0.63,-2.43 0.63,-3.57l0 -10.72zm1.66 31.53l-0.89 -7.79 -0.38 0c-3.45,4.85 -10.08,9.19 -18.9,9.19 -12.51,0 -18.89,-8.8 -18.89,-17.74 0,-14.94 13.28,-23.11 37.15,-22.98l0 -1.28c0,-5.1 -1.4,-14.29 -14.04,-14.29 -5.75,0 -11.75,1.78 -16.08,4.59l-2.56 -7.41c5.1,-3.31 12.51,-5.49 20.3,-5.49 18.9,0 23.49,12.9 23.49,25.28l0 23.1c0,5.37 0.25,10.61 1.02,14.82l-10.22 0z"></path>
   <path class="fil6" d="M2000.01 808.48c0,-7.27 -0.13,-13.52 -0.52,-19.27l9.84 0 0.37 12.13 0.52 0c2.81,-8.3 9.57,-13.54 17.11,-13.54 1.27,0 2.16,0.14 3.18,0.39l0 10.6c-1.14,-0.26 -2.29,-0.4 -3.82,-0.4 -7.92,0 -13.54,6.01 -15.07,14.44 -0.25,1.53 -0.51,3.32 -0.51,5.23l0 32.94 -11.1 0 0 -42.52z"></path>
   <path class="fil6" d="M2053.36 817.55l0.26 0c1.53,-2.17 3.7,-4.85 5.49,-7.02l18.13 -21.32 13.53 0 -23.88 25.41 27.19 36.38 -13.65 0 -21.32 -29.62 -5.75 6.38 0 23.24 -11.1 0 0 -90.64 11.1 0 0 57.19z"></path>
   <path class="fil6" d="M2096.62 866.7c2.82,-7.53 6.26,-21.19 7.66,-30.51l12.52 -1.27c-2.94,10.85 -8.56,25.01 -12.13,31.02l-8.05 0.76z"></path>
   <path class="fil6" d="M2157.77 764.95l11.1 0 0 41.5 0.39 0c2.3,-3.33 4.59,-6.39 6.76,-9.2l26.31 -32.3 13.78 0 -31.14 36.52 33.57 49.53 -13.15 0 -28.34 -42.26 -8.18 9.45 0 32.81 -11.1 0 0 -86.05z"></path>
   <path class="fil6" d="M2261.16 819.47c-12.25,-0.26 -26.17,1.91 -26.17,13.91 0,7.28 4.86,10.72 10.59,10.72 8.05,0 13.15,-5.1 14.95,-10.34 0.37,-1.14 0.63,-2.43 0.63,-3.57l0 -10.72zm1.66 31.53l-0.9 -7.79 -0.37 0c-3.46,4.85 -10.08,9.19 -18.9,9.19 -12.51,0 -18.89,-8.8 -18.89,-17.74 0,-14.94 13.27,-23.11 37.14,-22.98l0 -1.28c0,-5.1 -1.4,-14.29 -14.03,-14.29 -5.75,0 -11.75,1.78 -16.09,4.59l-2.56 -7.41c5.11,-3.31 12.51,-5.49 20.3,-5.49 18.9,0 23.49,12.9 23.49,25.28l0 23.1c0,5.37 0.26,10.61 1.03,14.82l-10.22 0z"></path>
   <path class="fil6" d="M2290.13 805.93c0,-6.38 -0.13,-11.61 -0.51,-16.72l9.96 0 0.64 10.21 0.25 0c3.07,-5.87 10.21,-11.62 20.43,-11.62 8.55,0 21.83,5.11 21.83,26.31l0 36.89 -11.24 0 0 -35.62c0,-9.96 -3.7,-18.26 -14.3,-18.26 -7.4,0 -13.15,5.25 -15.06,11.49 -0.51,1.41 -0.76,3.32 -0.76,5.24l0 37.15 -11.24 0 0 -45.07z"></path>
   <path class="fil6" d="M2360.97 805.93c0,-6.38 -0.12,-11.61 -0.51,-16.72l9.96 0 0.64 10.21 0.25 0c3.07,-5.87 10.21,-11.62 20.43,-11.62 8.55,0 21.83,5.11 21.83,26.31l0 36.89 -11.24 0 0 -35.62c0,-9.96 -3.69,-18.26 -14.29,-18.26 -7.41,0 -13.15,5.25 -15.07,11.49 -0.5,1.41 -0.76,3.32 -0.76,5.24l0 37.15 -11.24 0 0 -45.07z"></path>
   <path class="fil6" d="M2483.52 834.15c0,6.38 0.13,11.99 0.51,16.85l-9.96 0 -0.63 -10.09 -0.26 0c-2.94,4.99 -9.44,11.49 -20.43,11.49 -9.7,0 -21.32,-5.36 -21.32,-27.06l0 -36.13 11.23 0 0 34.21c0,11.74 3.58,19.66 13.8,19.66 7.53,0 12.76,-5.23 14.81,-10.21 0.64,-1.65 1.01,-3.7 1.01,-5.74l0 -37.92 11.24 0 0 44.94z"></path>
   <path class="fil6" d="M2502.15 808.48c0,-7.27 -0.13,-13.52 -0.51,-19.27l9.83 0 0.38 12.13 0.51 0c2.81,-8.3 9.58,-13.54 17.11,-13.54 1.27,0 2.17,0.14 3.19,0.39l0 10.6c-1.15,-0.26 -2.3,-0.4 -3.83,-0.4 -7.91,0 -13.53,6.01 -15.07,14.44 -0.25,1.53 -0.5,3.32 -0.5,5.23l0 32.94 -11.11 0 0 -42.52z"></path>
   <line class="fil7 str0" x1="2532.66" y1="705.09" x2="1238.23" y2="705.09"></line>
   <path class="fil7 str1" d="M2632.07 53.73c0,28.41 -23.03,51.44 -51.44,51.44 -28.41,0 -51.44,-23.03 -51.44,-51.44 0,-28.41 23.03,-51.44 51.44,-51.44 28.41,0 51.44,23.03 51.44,51.44z"></path>
   <path class="fil6" d="M2546.56 44.07l0 -5.38 26.22 0 0 5.38 -9.57 0 0 28.16 -7.05 0 0 -28.16 -9.6 0zm41.84 -5.38l4.46 17.63 1.7 7.4 1.28 -7.4 4.03 -17.63 9.57 0 4 33.54 -6.87 0 -1.65 -17.99 -0.6 -10.26 -2.47 10.26 -4.8 18.32 -5.56 0 -5.31 -18.32 -2.48 -10.26 -0.79 10.26 -1.43 17.99 -6.5 0.02 3.57 -33.56 9.85 0z"></path>
  </g>
 </g>
</svg>
