<?xml version="1.0" encoding="UTF-8" standalone="no"?>
<svg xmlns="http://www.w3.org/2000/svg" xmlns:xlink="http://www.w3.org/1999/xlink" xmlns:serif="http://www.serif.com/" width="100%" height="100%" viewBox="0 0 384 230" version="1.1" xml:space="preserve" style="fill-rule:evenodd;clip-rule:evenodd;stroke-linejoin:round;stroke-miterlimit:2;">
    <g id="Layer-1" serif:id="Layer 1">
    </g>
    <g id="Artboard1" transform="matrix(1.16445,0,0,1.03778,-574.254,-104.395)">
        <rect x="493.155" y="100.595" width="329.167" height="221.429" style="fill:none;"></rect>
    </g>
    <g transform="matrix(4.16667,0,0,4.16667,62.6874,149.022)">
        <path d="M0,-29.741L-0.172,-28.444C-1.296,-28.444 -2.246,-28.242 -3.023,-27.839C-3.803,-27.434 -4.192,-26.887 -4.192,-26.197C-4.192,-25.62 -4.133,-24.95 -4.02,-24.187C-3.904,-23.423 -3.773,-22.479 -3.629,-21.354L-1.641,-5.576L-1.426,-5.533L7.35,-22.046C8.1,-23.428 8.641,-24.468 8.972,-25.158C9.303,-25.85 9.469,-26.354 9.469,-26.671C9.469,-27.134 9.223,-27.522 8.734,-27.839C8.242,-28.157 7.422,-28.36 6.27,-28.444L6.485,-29.741L15.434,-29.741L15.175,-28.444C14.626,-28.444 14.152,-28.351 13.749,-28.162C13.343,-27.976 12.955,-27.664 12.581,-27.236C12.206,-26.802 11.816,-26.238 11.414,-25.549C11.01,-24.857 10.533,-24.02 9.986,-23.039L-2.767,0L-4.84,0L-8.515,-24.252C-8.602,-24.884 -8.701,-25.453 -8.816,-25.959C-8.935,-26.463 -9.119,-26.901 -9.38,-27.279C-9.637,-27.651 -9.991,-27.94 -10.438,-28.143C-10.885,-28.342 -11.483,-28.444 -12.232,-28.444L-12.017,-29.741L0,-29.741Z" style="fill:rgb(3,4,5);fill-rule:nonzero;"></path>
    </g>
    <g transform="matrix(4.16667,0,0,4.16667,154.912,122.356)">
        <path d="M0,-7.52C0,-9.276 -0.245,-10.653 -0.735,-11.649C-1.226,-12.643 -1.888,-13.14 -2.722,-13.14C-3.357,-13.14 -3.978,-12.907 -4.581,-12.448C-5.187,-11.986 -5.758,-11.373 -6.29,-10.611C-6.823,-9.846 -7.312,-8.967 -7.759,-7.974C-8.207,-6.98 -8.588,-5.927 -8.903,-4.818C-9.223,-3.709 -9.475,-2.591 -9.662,-1.467C-9.849,-0.345 -9.943,0.722 -9.943,1.732C-9.943,3.201 -9.704,4.217 -9.229,4.777C-8.753,5.341 -8.085,5.62 -7.22,5.62C-6.384,5.62 -5.532,5.218 -4.669,4.411C-3.804,3.603 -3.025,2.567 -2.334,1.3C-1.642,0.029 -1.081,-1.382 -0.647,-2.939C-0.216,-4.493 0,-6.02 0,-7.52M5.923,-13.917L2.248,1.255C2.075,2.005 1.938,2.619 1.837,3.092C1.735,3.568 1.684,3.907 1.684,4.11C1.684,5.117 2.134,5.62 3.026,5.62C3.372,5.62 3.73,5.434 4.106,5.059C4.481,4.685 4.878,4.172 5.297,3.524C5.714,2.875 6.13,2.112 6.55,1.235C6.966,0.355 7.377,-0.588 7.781,-1.598L8.817,-1.338C8.415,-0.443 7.997,0.493 7.564,1.472C7.133,2.452 6.658,3.347 6.14,4.151C5.618,4.958 5.043,5.62 4.409,6.141C3.774,6.657 3.04,6.918 2.204,6.918C1.253,6.918 0.417,6.522 -0.303,5.73C-1.025,4.936 -1.341,3.677 -1.254,1.949L-1.383,1.86C-1.642,2.32 -1.952,2.848 -2.313,3.44C-2.674,4.031 -3.1,4.583 -3.587,5.103C-4.077,5.62 -4.654,6.052 -5.316,6.4C-5.979,6.746 -6.73,6.918 -7.564,6.918C-8.43,6.918 -9.237,6.715 -9.984,6.313C-10.735,5.911 -11.377,5.355 -11.908,4.649C-12.442,3.943 -12.866,3.1 -13.184,2.12C-13.502,1.141 -13.66,0.061 -13.66,-1.122C-13.66,-3.169 -13.284,-5.014 -12.537,-6.655C-11.787,-8.296 -10.857,-9.695 -9.748,-10.851C-8.638,-11.999 -7.464,-12.885 -6.224,-13.507C-4.985,-14.125 -3.89,-14.438 -2.939,-14.438C-1.642,-14.438 -0.691,-14.019 -0.087,-13.182C0.521,-12.347 0.894,-11.107 1.038,-9.465L1.123,-9.465L2.118,-13.917L5.923,-13.917Z" style="fill:rgb(3,4,5);fill-rule:nonzero;"></path>
    </g>
    <g transform="matrix(4.16667,0,0,4.16667,284.774,181.069)">
        <path d="M0,-28.008L-5.401,-8.687C-5.778,-7.389 -6.254,-6.177 -6.829,-5.056C-7.406,-3.931 -8.155,-2.956 -9.077,-2.136C-9.999,-1.316 -11.116,-0.667 -12.429,-0.193C-13.738,0.283 -15.301,0.521 -17.117,0.521C-17.868,0.521 -18.608,0.428 -19.345,0.239C-20.079,0.053 -20.729,-0.206 -21.289,-0.538C-21.852,-0.869 -22.305,-1.257 -22.652,-1.703C-22.997,-2.152 -23.17,-2.648 -23.17,-3.196C-23.17,-3.86 -22.969,-4.412 -22.565,-4.858C-22.161,-5.308 -21.643,-5.529 -21.008,-5.529C-20.432,-5.529 -19.942,-5.351 -19.539,-4.99C-19.136,-4.628 -18.934,-4.177 -18.934,-3.628C-18.934,-2.995 -19.07,-2.497 -19.345,-2.136C-19.618,-1.777 -19.754,-1.482 -19.754,-1.252C-19.754,-1.108 -19.609,-0.989 -19.322,-0.905C-19.036,-0.82 -18.559,-0.776 -17.895,-0.776C-16.716,-0.776 -15.648,-0.921 -14.696,-1.205C-13.746,-1.495 -12.881,-2.043 -12.104,-2.85C-11.326,-3.657 -10.634,-4.782 -10.028,-6.221C-9.423,-7.664 -8.876,-9.522 -8.385,-11.798L-8.474,-11.885C-8.732,-11.393 -9.087,-10.876 -9.532,-10.329C-9.979,-9.781 -10.502,-9.27 -11.108,-8.793C-11.715,-8.318 -12.379,-7.928 -13.098,-7.628C-13.818,-7.324 -14.567,-7.173 -15.346,-7.173C-16.584,-7.173 -17.607,-7.612 -18.414,-8.493C-19.222,-9.371 -19.625,-10.559 -19.625,-12.058C-19.625,-13.382 -19.389,-14.635 -18.912,-15.818C-18.436,-16.999 -17.911,-18.138 -17.333,-19.233C-16.786,-20.327 -16.283,-21.417 -15.82,-22.497C-15.361,-23.578 -15.13,-24.493 -15.13,-25.242C-15.13,-26.566 -15.634,-27.231 -16.643,-27.231C-17.623,-27.231 -18.473,-26.698 -19.192,-25.63C-19.914,-24.564 -20.808,-22.921 -21.873,-20.702L-23.041,-21.091C-22.579,-22.071 -22.126,-23.014 -21.679,-23.923C-21.231,-24.831 -20.75,-25.623 -20.231,-26.301C-19.711,-26.976 -19.12,-27.519 -18.457,-27.923C-17.797,-28.326 -17.03,-28.529 -16.166,-28.529C-15.504,-28.529 -14.92,-28.375 -14.416,-28.075C-13.912,-27.77 -13.494,-27.382 -13.162,-26.906C-12.832,-26.432 -12.587,-25.896 -12.429,-25.308C-12.27,-24.716 -12.189,-24.118 -12.189,-23.512C-12.189,-22.503 -12.406,-21.364 -12.839,-20.097C-13.271,-18.83 -13.731,-17.561 -14.223,-16.294C-14.74,-15.027 -15.211,-13.88 -15.627,-12.856C-16.045,-11.834 -16.252,-11.078 -16.252,-10.589C-16.252,-9.924 -16.045,-9.447 -15.627,-9.163C-15.211,-8.873 -14.696,-8.73 -14.091,-8.73C-13.428,-8.73 -12.693,-9.068 -11.889,-9.746C-11.081,-10.421 -10.295,-11.287 -9.532,-12.337C-8.768,-13.39 -8.069,-14.556 -7.434,-15.84C-6.801,-17.12 -6.326,-18.368 -6.009,-19.578L-3.717,-28.008L0,-28.008Z" style="fill:rgb(3,4,5);fill-rule:nonzero;"></path>
    </g>
    <g transform="matrix(4.16667,0,0,4.16667,340.788,122.356)">
        <path d="M0,-7.52C0,-9.276 -0.244,-10.653 -0.733,-11.649C-1.224,-12.643 -1.888,-13.14 -2.722,-13.14C-3.356,-13.14 -3.977,-12.907 -4.582,-12.448C-5.186,-11.986 -5.756,-11.373 -6.289,-10.611C-6.822,-9.846 -7.312,-8.967 -7.759,-7.974C-8.205,-6.98 -8.587,-5.927 -8.904,-4.818C-9.223,-3.709 -9.475,-2.591 -9.66,-1.467C-9.849,-0.345 -9.941,0.722 -9.941,1.732C-9.941,3.201 -9.704,4.217 -9.23,4.777C-8.752,5.341 -8.084,5.62 -7.219,5.62C-6.383,5.62 -5.533,5.218 -4.668,4.411C-3.803,3.603 -3.024,2.567 -2.334,1.3C-1.641,0.029 -1.08,-1.382 -0.648,-2.939C-0.215,-4.493 0,-6.02 0,-7.52M5.924,-13.917L2.249,1.255C2.076,2.005 1.936,2.619 1.838,3.092C1.736,3.568 1.686,3.907 1.686,4.11C1.686,5.117 2.133,5.62 3.027,5.62C3.373,5.62 3.731,5.434 4.107,5.059C4.48,4.685 4.878,4.172 5.295,3.524C5.713,2.875 6.132,2.112 6.549,1.235C6.968,0.355 7.378,-0.588 7.781,-1.598L8.818,-1.338C8.416,-0.443 7.998,0.493 7.566,1.472C7.134,2.452 6.658,3.347 6.141,4.151C5.62,4.958 5.043,5.62 4.411,6.141C3.774,6.657 3.041,6.918 2.205,6.918C1.254,6.918 0.418,6.522 -0.301,5.73C-1.023,4.936 -1.34,3.677 -1.254,1.949L-1.383,1.86C-1.641,2.32 -1.951,2.848 -2.311,3.44C-2.673,4.031 -3.099,4.583 -3.587,5.103C-4.077,5.62 -4.654,6.052 -5.316,6.4C-5.98,6.746 -6.728,6.918 -7.564,6.918C-8.429,6.918 -9.236,6.715 -9.985,6.313C-10.735,5.911 -11.376,5.355 -11.906,4.649C-12.443,3.943 -12.867,3.1 -13.184,2.12C-13.5,1.141 -13.659,0.061 -13.659,-1.122C-13.659,-3.169 -13.287,-5.014 -12.535,-6.655C-11.786,-8.296 -10.856,-9.695 -9.746,-10.851C-8.639,-11.999 -7.463,-12.885 -6.224,-13.507C-4.984,-14.125 -3.888,-14.438 -2.938,-14.438C-1.641,-14.438 -0.689,-14.019 -0.086,-13.182C0.52,-12.347 0.895,-11.107 1.038,-9.465L1.123,-9.465L2.119,-13.917L5.924,-13.917Z" style="fill:rgb(3,4,5);fill-rule:nonzero;"></path>
    </g>
    <g transform="matrix(-4.16667,0,0,4.16667,521.665,-231.629)">
        <rect x="38.286" y="67.58" width="52.155" height="1.112" style="fill:rgb(3,4,5);"></rect>
    </g>
    <g transform="matrix(4.16667,0,0,4.16667,-14.6972,-80.4957)">
        <g transform="matrix(0.964455,0,0,1,0.465422,0)">
            <text x="13.094px" y="70.883px" style="font-family:'Arial-BoldMT', 'Arial', sans-serif;font-weight:700;font-size:5.5px;fill:rgb(3,4,5);">P<tspan x="17.4px 22.315px 28.144px 32.45px 37.059px 39.225px 43.834px 48.749px 51.672px 56.281px 60.587px 64.893px 67.059px 71.668px 75.854px 79.851px 82.017px 86.932px 91.542px " y="70.883px 70.883px 70.883px 70.883px 70.883px 70.883px 70.883px 70.883px 70.883px 70.883px 70.883px 70.883px 70.883px 70.883px 70.883px 70.883px 70.883px 70.883px 70.883px ">OWERING ASPIRATIONS</tspan></text>
        </g>
    </g>
</svg>
